<?xml version="1.0" encoding="utf-8" standalone="no"?>
<!DOCTYPE svg PUBLIC "-//W3C//DTD SVG 1.1//EN"
  "http://www.w3.org/Graphics/SVG/1.1/DTD/svg11.dtd">
<svg xmlns:xlink="http://www.w3.org/1999/xlink" width="524.120312pt" height="175.148125pt" viewBox="0 0 524.120312 175.148125" xmlns="http://www.w3.org/2000/svg" version="1.1">
 <metadata>
  <rdf:RDF xmlns:dc="http://purl.org/dc/elements/1.1/" xmlns:cc="http://creativecommons.org/ns#" xmlns:rdf="http://www.w3.org/1999/02/22-rdf-syntax-ns#">
   <cc:Work>
    <dc:type rdf:resource="http://purl.org/dc/dcmitype/StillImage"/>
    <dc:date>2026-04-29T18:59:06.647543</dc:date>
    <dc:format>image/svg+xml</dc:format>
    <dc:creator>
     <cc:Agent>
      <dc:title>Matplotlib v3.10.8, https://matplotlib.org/</dc:title>
     </cc:Agent>
    </dc:creator>
   </cc:Work>
  </rdf:RDF>
 </metadata>
 <defs>
  <style type="text/css">*{stroke-linejoin: round; stroke-linecap: butt}</style>
 </defs>
 <g id="figure_1">
  <g id="patch_1">
   <path d="M 0 175.148125 
L 524.120312 175.148125 
L 524.120312 0 
L 0 0 
z
" style="fill: #ffffff"/>
  </g>
  <g id="axes_1">
   <g id="patch_2">
    <path d="M 46.240313 143.39875 
L 187.101881 143.39875 
L 187.101881 19.27875 
L 46.240313 19.27875 
z
" style="fill: #ffffff"/>
   </g>
   <g id="PathCollection_1">
    <defs>
     <path id="m785888a86c" d="M 0 3.872983 
L 0 -3.872983 
" style="stroke: #d55e00; stroke-width: 0.8"/>
    </defs>
    <g clip-path="url(#pb837be1409)">
     <use xlink:href="#m785888a86c" x="47.950047" y="23.00235" style="fill: #d55e00; stroke: #d55e00; stroke-width: 0.8"/>
     <use xlink:href="#m785888a86c" x="49.735009" y="23.00235" style="fill: #d55e00; stroke: #d55e00; stroke-width: 0.8"/>
     <use xlink:href="#m785888a86c" x="65.79967" y="23.00235" style="fill: #d55e00; stroke: #d55e00; stroke-width: 0.8"/>
     <use xlink:href="#m785888a86c" x="67.584632" y="23.00235" style="fill: #d55e00; stroke: #d55e00; stroke-width: 0.8"/>
     <use xlink:href="#m785888a86c" x="82.756812" y="23.00235" style="fill: #d55e00; stroke: #d55e00; stroke-width: 0.8"/>
     <use xlink:href="#m785888a86c" x="84.541775" y="23.00235" style="fill: #d55e00; stroke: #d55e00; stroke-width: 0.8"/>
     <use xlink:href="#m785888a86c" x="97.928992" y="23.00235" style="fill: #d55e00; stroke: #d55e00; stroke-width: 0.8"/>
     <use xlink:href="#m785888a86c" x="99.713955" y="23.00235" style="fill: #d55e00; stroke: #d55e00; stroke-width: 0.8"/>
     <use xlink:href="#m785888a86c" x="113.101172" y="23.00235" style="fill: #d55e00; stroke: #d55e00; stroke-width: 0.8"/>
     <use xlink:href="#m785888a86c" x="114.886135" y="23.00235" style="fill: #d55e00; stroke: #d55e00; stroke-width: 0.8"/>
     <use xlink:href="#m785888a86c" x="127.380871" y="23.00235" style="fill: #d55e00; stroke: #d55e00; stroke-width: 0.8"/>
     <use xlink:href="#m785888a86c" x="129.165833" y="23.00235" style="fill: #d55e00; stroke: #d55e00; stroke-width: 0.8"/>
     <use xlink:href="#m785888a86c" x="141.66057" y="23.00235" style="fill: #d55e00; stroke: #d55e00; stroke-width: 0.8"/>
     <use xlink:href="#m785888a86c" x="143.445532" y="23.00235" style="fill: #d55e00; stroke: #d55e00; stroke-width: 0.8"/>
     <use xlink:href="#m785888a86c" x="155.940269" y="23.00235" style="fill: #d55e00; stroke: #d55e00; stroke-width: 0.8"/>
     <use xlink:href="#m785888a86c" x="157.725231" y="23.00235" style="fill: #d55e00; stroke: #d55e00; stroke-width: 0.8"/>
     <use xlink:href="#m785888a86c" x="170.219967" y="23.00235" style="fill: #d55e00; stroke: #d55e00; stroke-width: 0.8"/>
     <use xlink:href="#m785888a86c" x="172.00493" y="23.00235" style="fill: #d55e00; stroke: #d55e00; stroke-width: 0.8"/>
     <use xlink:href="#m785888a86c" x="183.607185" y="23.00235" style="fill: #d55e00; stroke: #d55e00; stroke-width: 0.8"/>
     <use xlink:href="#m785888a86c" x="185.392147" y="23.00235" style="fill: #d55e00; stroke: #d55e00; stroke-width: 0.8"/>
    </g>
   </g>
   <g id="patch_3">
    <path d="M 46.240313 143.39875 
L 187.101881 143.39875 
L 187.101881 19.27875 
L 46.240313 19.27875 
z
" clip-path="url(#pb837be1409)" style="fill: #999999; opacity: 0.12"/>
   </g>
   <g id="matplotlib.axis_1">
    <g id="xtick_1">
     <g id="line2d_1">
      <path d="M 49.105827 143.39875 
L 49.105827 19.27875 
" clip-path="url(#pb837be1409)" style="fill: none; stroke-dasharray: 0.8,1.32; stroke-dashoffset: 0; stroke: #b0b0b0; stroke-opacity: 0.6; stroke-width: 0.8"/>
     </g>
     <g id="line2d_2">
      <defs>
       <path id="ma357d30211" d="M 0 0 
L 0 3.5 
" style="stroke: #000000; stroke-width: 0.8"/>
      </defs>
      <g>
       <use xlink:href="#ma357d30211" x="49.105827" y="143.39875" style="stroke: #000000; stroke-width: 0.8"/>
      </g>
     </g>
     <g id="text_1">
      <!-- 1.00e5 -->
      <g transform="translate(38.671452 154.957812) scale(0.06 -0.06)">
       <defs>
        <path id="DejaVuSans-31" d="M 794 531 
L 1825 531 
L 1825 4091 
L 703 3866 
L 703 4441 
L 1819 4666 
L 2450 4666 
L 2450 531 
L 3481 531 
L 3481 0 
L 794 0 
L 794 531 
z
" transform="scale(0.015625)"/>
        <path id="DejaVuSans-2e" d="M 684 794 
L 1344 794 
L 1344 0 
L 684 0 
L 684 794 
z
" transform="scale(0.015625)"/>
        <path id="DejaVuSans-30" d="M 2034 4250 
Q 1547 4250 1301 3770 
Q 1056 3291 1056 2328 
Q 1056 1369 1301 889 
Q 1547 409 2034 409 
Q 2525 409 2770 889 
Q 3016 1369 3016 2328 
Q 3016 3291 2770 3770 
Q 2525 4250 2034 4250 
z
M 2034 4750 
Q 2819 4750 3233 4129 
Q 3647 3509 3647 2328 
Q 3647 1150 3233 529 
Q 2819 -91 2034 -91 
Q 1250 -91 836 529 
Q 422 1150 422 2328 
Q 422 3509 836 4129 
Q 1250 4750 2034 4750 
z
" transform="scale(0.015625)"/>
        <path id="DejaVuSans-65" d="M 3597 1894 
L 3597 1613 
L 953 1613 
Q 991 1019 1311 708 
Q 1631 397 2203 397 
Q 2534 397 2845 478 
Q 3156 559 3463 722 
L 3463 178 
Q 3153 47 2828 -22 
Q 2503 -91 2169 -91 
Q 1331 -91 842 396 
Q 353 884 353 1716 
Q 353 2575 817 3079 
Q 1281 3584 2069 3584 
Q 2775 3584 3186 3129 
Q 3597 2675 3597 1894 
z
M 3022 2063 
Q 3016 2534 2758 2815 
Q 2500 3097 2075 3097 
Q 1594 3097 1305 2825 
Q 1016 2553 972 2059 
L 3022 2063 
z
" transform="scale(0.015625)"/>
        <path id="DejaVuSans-35" d="M 691 4666 
L 3169 4666 
L 3169 4134 
L 1269 4134 
L 1269 2991 
Q 1406 3038 1543 3061 
Q 1681 3084 1819 3084 
Q 2600 3084 3056 2656 
Q 3513 2228 3513 1497 
Q 3513 744 3044 326 
Q 2575 -91 1722 -91 
Q 1428 -91 1123 -41 
Q 819 9 494 109 
L 494 744 
Q 775 591 1075 516 
Q 1375 441 1709 441 
Q 2250 441 2565 725 
Q 2881 1009 2881 1497 
Q 2881 1984 2565 2268 
Q 2250 2553 1709 2553 
Q 1456 2553 1204 2497 
Q 953 2441 691 2322 
L 691 4666 
z
" transform="scale(0.015625)"/>
       </defs>
       <use xlink:href="#DejaVuSans-31"/>
       <use xlink:href="#DejaVuSans-2e" transform="translate(63.623047 0)"/>
       <use xlink:href="#DejaVuSans-30" transform="translate(95.410156 0)"/>
       <use xlink:href="#DejaVuSans-30" transform="translate(159.033203 0)"/>
       <use xlink:href="#DejaVuSans-65" transform="translate(222.65625 0)"/>
       <use xlink:href="#DejaVuSans-35" transform="translate(284.179688 0)"/>
      </g>
     </g>
    </g>
    <g id="xtick_2">
     <g id="line2d_3">
      <path d="M 83.300508 143.39875 
L 83.300508 19.27875 
" clip-path="url(#pb837be1409)" style="fill: none; stroke-dasharray: 0.8,1.32; stroke-dashoffset: 0; stroke: #b0b0b0; stroke-opacity: 0.6; stroke-width: 0.8"/>
     </g>
     <g id="line2d_4">
      <g>
       <use xlink:href="#ma357d30211" x="83.300508" y="143.39875" style="stroke: #000000; stroke-width: 0.8"/>
      </g>
     </g>
     <g id="text_2">
      <!-- 2.00e5 -->
      <g transform="translate(72.866133 154.957812) scale(0.06 -0.06)">
       <defs>
        <path id="DejaVuSans-32" d="M 1228 531 
L 3431 531 
L 3431 0 
L 469 0 
L 469 531 
Q 828 903 1448 1529 
Q 2069 2156 2228 2338 
Q 2531 2678 2651 2914 
Q 2772 3150 2772 3378 
Q 2772 3750 2511 3984 
Q 2250 4219 1831 4219 
Q 1534 4219 1204 4116 
Q 875 4013 500 3803 
L 500 4441 
Q 881 4594 1212 4672 
Q 1544 4750 1819 4750 
Q 2544 4750 2975 4387 
Q 3406 4025 3406 3419 
Q 3406 3131 3298 2873 
Q 3191 2616 2906 2266 
Q 2828 2175 2409 1742 
Q 1991 1309 1228 531 
z
" transform="scale(0.015625)"/>
       </defs>
       <use xlink:href="#DejaVuSans-32"/>
       <use xlink:href="#DejaVuSans-2e" transform="translate(63.623047 0)"/>
       <use xlink:href="#DejaVuSans-30" transform="translate(95.410156 0)"/>
       <use xlink:href="#DejaVuSans-30" transform="translate(159.033203 0)"/>
       <use xlink:href="#DejaVuSans-65" transform="translate(222.65625 0)"/>
       <use xlink:href="#DejaVuSans-35" transform="translate(284.179688 0)"/>
      </g>
     </g>
    </g>
    <g id="xtick_3">
     <g id="line2d_5">
      <path d="M 117.495189 143.39875 
L 117.495189 19.27875 
" clip-path="url(#pb837be1409)" style="fill: none; stroke-dasharray: 0.8,1.32; stroke-dashoffset: 0; stroke: #b0b0b0; stroke-opacity: 0.6; stroke-width: 0.8"/>
     </g>
     <g id="line2d_6">
      <g>
       <use xlink:href="#ma357d30211" x="117.495189" y="143.39875" style="stroke: #000000; stroke-width: 0.8"/>
      </g>
     </g>
     <g id="text_3">
      <!-- 3.00e5 -->
      <g transform="translate(107.060814 154.957812) scale(0.06 -0.06)">
       <defs>
        <path id="DejaVuSans-33" d="M 2597 2516 
Q 3050 2419 3304 2112 
Q 3559 1806 3559 1356 
Q 3559 666 3084 287 
Q 2609 -91 1734 -91 
Q 1441 -91 1130 -33 
Q 819 25 488 141 
L 488 750 
Q 750 597 1062 519 
Q 1375 441 1716 441 
Q 2309 441 2620 675 
Q 2931 909 2931 1356 
Q 2931 1769 2642 2001 
Q 2353 2234 1838 2234 
L 1294 2234 
L 1294 2753 
L 1863 2753 
Q 2328 2753 2575 2939 
Q 2822 3125 2822 3475 
Q 2822 3834 2567 4026 
Q 2313 4219 1838 4219 
Q 1578 4219 1281 4162 
Q 984 4106 628 3988 
L 628 4550 
Q 988 4650 1302 4700 
Q 1616 4750 1894 4750 
Q 2613 4750 3031 4423 
Q 3450 4097 3450 3541 
Q 3450 3153 3228 2886 
Q 3006 2619 2597 2516 
z
" transform="scale(0.015625)"/>
       </defs>
       <use xlink:href="#DejaVuSans-33"/>
       <use xlink:href="#DejaVuSans-2e" transform="translate(63.623047 0)"/>
       <use xlink:href="#DejaVuSans-30" transform="translate(95.410156 0)"/>
       <use xlink:href="#DejaVuSans-30" transform="translate(159.033203 0)"/>
       <use xlink:href="#DejaVuSans-65" transform="translate(222.65625 0)"/>
       <use xlink:href="#DejaVuSans-35" transform="translate(284.179688 0)"/>
      </g>
     </g>
    </g>
    <g id="xtick_4">
     <g id="line2d_7">
      <path d="M 151.68987 143.39875 
L 151.68987 19.27875 
" clip-path="url(#pb837be1409)" style="fill: none; stroke-dasharray: 0.8,1.32; stroke-dashoffset: 0; stroke: #b0b0b0; stroke-opacity: 0.6; stroke-width: 0.8"/>
     </g>
     <g id="line2d_8">
      <g>
       <use xlink:href="#ma357d30211" x="151.68987" y="143.39875" style="stroke: #000000; stroke-width: 0.8"/>
      </g>
     </g>
     <g id="text_4">
      <!-- 4.00e5 -->
      <g transform="translate(141.255495 154.957812) scale(0.06 -0.06)">
       <defs>
        <path id="DejaVuSans-34" d="M 2419 4116 
L 825 1625 
L 2419 1625 
L 2419 4116 
z
M 2253 4666 
L 3047 4666 
L 3047 1625 
L 3713 1625 
L 3713 1100 
L 3047 1100 
L 3047 0 
L 2419 0 
L 2419 1100 
L 313 1100 
L 313 1709 
L 2253 4666 
z
" transform="scale(0.015625)"/>
       </defs>
       <use xlink:href="#DejaVuSans-34"/>
       <use xlink:href="#DejaVuSans-2e" transform="translate(63.623047 0)"/>
       <use xlink:href="#DejaVuSans-30" transform="translate(95.410156 0)"/>
       <use xlink:href="#DejaVuSans-30" transform="translate(159.033203 0)"/>
       <use xlink:href="#DejaVuSans-65" transform="translate(222.65625 0)"/>
       <use xlink:href="#DejaVuSans-35" transform="translate(284.179688 0)"/>
      </g>
     </g>
    </g>
    <g id="xtick_5">
     <g id="line2d_9">
      <path d="M 185.884551 143.39875 
L 185.884551 19.27875 
" clip-path="url(#pb837be1409)" style="fill: none; stroke-dasharray: 0.8,1.32; stroke-dashoffset: 0; stroke: #b0b0b0; stroke-opacity: 0.6; stroke-width: 0.8"/>
     </g>
     <g id="line2d_10">
      <g>
       <use xlink:href="#ma357d30211" x="185.884551" y="143.39875" style="stroke: #000000; stroke-width: 0.8"/>
      </g>
     </g>
     <g id="text_5">
      <!-- 5.00e5 -->
      <g transform="translate(175.450176 154.957812) scale(0.06 -0.06)">
       <use xlink:href="#DejaVuSans-35"/>
       <use xlink:href="#DejaVuSans-2e" transform="translate(63.623047 0)"/>
       <use xlink:href="#DejaVuSans-30" transform="translate(95.410156 0)"/>
       <use xlink:href="#DejaVuSans-30" transform="translate(159.033203 0)"/>
       <use xlink:href="#DejaVuSans-65" transform="translate(222.65625 0)"/>
       <use xlink:href="#DejaVuSans-35" transform="translate(284.179688 0)"/>
      </g>
     </g>
    </g>
    <g id="text_6">
     <!-- Time (ns) -->
     <g transform="translate(97.872972 166.284375) scale(0.08 -0.08)">
      <defs>
       <path id="DejaVuSans-54" d="M -19 4666 
L 3928 4666 
L 3928 4134 
L 2272 4134 
L 2272 0 
L 1638 0 
L 1638 4134 
L -19 4134 
L -19 4666 
z
" transform="scale(0.015625)"/>
       <path id="DejaVuSans-69" d="M 603 3500 
L 1178 3500 
L 1178 0 
L 603 0 
L 603 3500 
z
M 603 4863 
L 1178 4863 
L 1178 4134 
L 603 4134 
L 603 4863 
z
" transform="scale(0.015625)"/>
       <path id="DejaVuSans-6d" d="M 3328 2828 
Q 3544 3216 3844 3400 
Q 4144 3584 4550 3584 
Q 5097 3584 5394 3201 
Q 5691 2819 5691 2113 
L 5691 0 
L 5113 0 
L 5113 2094 
Q 5113 2597 4934 2840 
Q 4756 3084 4391 3084 
Q 3944 3084 3684 2787 
Q 3425 2491 3425 1978 
L 3425 0 
L 2847 0 
L 2847 2094 
Q 2847 2600 2669 2842 
Q 2491 3084 2119 3084 
Q 1678 3084 1418 2786 
Q 1159 2488 1159 1978 
L 1159 0 
L 581 0 
L 581 3500 
L 1159 3500 
L 1159 2956 
Q 1356 3278 1631 3431 
Q 1906 3584 2284 3584 
Q 2666 3584 2933 3390 
Q 3200 3197 3328 2828 
z
" transform="scale(0.015625)"/>
       <path id="DejaVuSans-20" transform="scale(0.015625)"/>
       <path id="DejaVuSans-28" d="M 1984 4856 
Q 1566 4138 1362 3434 
Q 1159 2731 1159 2009 
Q 1159 1288 1364 580 
Q 1569 -128 1984 -844 
L 1484 -844 
Q 1016 -109 783 600 
Q 550 1309 550 2009 
Q 550 2706 781 3412 
Q 1013 4119 1484 4856 
L 1984 4856 
z
" transform="scale(0.015625)"/>
       <path id="DejaVuSans-6e" d="M 3513 2113 
L 3513 0 
L 2938 0 
L 2938 2094 
Q 2938 2591 2744 2837 
Q 2550 3084 2163 3084 
Q 1697 3084 1428 2787 
Q 1159 2491 1159 1978 
L 1159 0 
L 581 0 
L 581 3500 
L 1159 3500 
L 1159 2956 
Q 1366 3272 1645 3428 
Q 1925 3584 2291 3584 
Q 2894 3584 3203 3211 
Q 3513 2838 3513 2113 
z
" transform="scale(0.015625)"/>
       <path id="DejaVuSans-73" d="M 2834 3397 
L 2834 2853 
Q 2591 2978 2328 3040 
Q 2066 3103 1784 3103 
Q 1356 3103 1142 2972 
Q 928 2841 928 2578 
Q 928 2378 1081 2264 
Q 1234 2150 1697 2047 
L 1894 2003 
Q 2506 1872 2764 1633 
Q 3022 1394 3022 966 
Q 3022 478 2636 193 
Q 2250 -91 1575 -91 
Q 1294 -91 989 -36 
Q 684 19 347 128 
L 347 722 
Q 666 556 975 473 
Q 1284 391 1588 391 
Q 1994 391 2212 530 
Q 2431 669 2431 922 
Q 2431 1156 2273 1281 
Q 2116 1406 1581 1522 
L 1381 1569 
Q 847 1681 609 1914 
Q 372 2147 372 2553 
Q 372 3047 722 3315 
Q 1072 3584 1716 3584 
Q 2034 3584 2315 3537 
Q 2597 3491 2834 3397 
z
" transform="scale(0.015625)"/>
       <path id="DejaVuSans-29" d="M 513 4856 
L 1013 4856 
Q 1481 4119 1714 3412 
Q 1947 2706 1947 2009 
Q 1947 1309 1714 600 
Q 1481 -109 1013 -844 
L 513 -844 
Q 928 -128 1133 580 
Q 1338 1288 1338 2009 
Q 1338 2731 1133 3434 
Q 928 4138 513 4856 
z
" transform="scale(0.015625)"/>
      </defs>
      <use xlink:href="#DejaVuSans-54"/>
      <use xlink:href="#DejaVuSans-69" transform="translate(57.958984 0)"/>
      <use xlink:href="#DejaVuSans-6d" transform="translate(85.742188 0)"/>
      <use xlink:href="#DejaVuSans-65" transform="translate(183.154297 0)"/>
      <use xlink:href="#DejaVuSans-20" transform="translate(244.677734 0)"/>
      <use xlink:href="#DejaVuSans-28" transform="translate(276.464844 0)"/>
      <use xlink:href="#DejaVuSans-6e" transform="translate(315.478516 0)"/>
      <use xlink:href="#DejaVuSans-73" transform="translate(378.857422 0)"/>
      <use xlink:href="#DejaVuSans-29" transform="translate(430.957031 0)"/>
     </g>
    </g>
   </g>
   <g id="matplotlib.axis_2">
    <g id="ytick_1">
     <g id="line2d_11">
      <path d="M 46.240313 124.635548 
L 187.101881 124.635548 
" clip-path="url(#pb837be1409)" style="fill: none; stroke-dasharray: 0.8,1.32; stroke-dashoffset: 0; stroke: #b0b0b0; stroke-opacity: 0.6; stroke-width: 0.8"/>
     </g>
     <g id="line2d_12">
      <defs>
       <path id="m67b912e49c" d="M 0 0 
L -3.5 0 
" style="stroke: #000000; stroke-width: 0.8"/>
      </defs>
      <g>
       <use xlink:href="#m67b912e49c" x="46.240313" y="124.635548" style="stroke: #000000; stroke-width: 0.8"/>
      </g>
     </g>
     <g id="text_7">
      <!-- −2000 -->
      <g transform="translate(18.9425 126.915079) scale(0.06 -0.06)">
       <defs>
        <path id="DejaVuSans-2212" d="M 678 2272 
L 4684 2272 
L 4684 1741 
L 678 1741 
L 678 2272 
z
" transform="scale(0.015625)"/>
       </defs>
       <use xlink:href="#DejaVuSans-2212"/>
       <use xlink:href="#DejaVuSans-32" transform="translate(83.789062 0)"/>
       <use xlink:href="#DejaVuSans-30" transform="translate(147.412109 0)"/>
       <use xlink:href="#DejaVuSans-30" transform="translate(211.035156 0)"/>
       <use xlink:href="#DejaVuSans-30" transform="translate(274.658203 0)"/>
      </g>
     </g>
    </g>
    <g id="ytick_2">
     <g id="line2d_13">
      <path d="M 46.240313 105.796519 
L 187.101881 105.796519 
" clip-path="url(#pb837be1409)" style="fill: none; stroke-dasharray: 0.8,1.32; stroke-dashoffset: 0; stroke: #b0b0b0; stroke-opacity: 0.6; stroke-width: 0.8"/>
     </g>
     <g id="line2d_14">
      <g>
       <use xlink:href="#m67b912e49c" x="46.240313" y="105.796519" style="stroke: #000000; stroke-width: 0.8"/>
      </g>
     </g>
     <g id="text_8">
      <!-- 0 -->
      <g transform="translate(35.422812 108.076051) scale(0.06 -0.06)">
       <use xlink:href="#DejaVuSans-30"/>
      </g>
     </g>
    </g>
    <g id="ytick_3">
     <g id="line2d_15">
      <path d="M 46.240313 86.95749 
L 187.101881 86.95749 
" clip-path="url(#pb837be1409)" style="fill: none; stroke-dasharray: 0.8,1.32; stroke-dashoffset: 0; stroke: #b0b0b0; stroke-opacity: 0.6; stroke-width: 0.8"/>
     </g>
     <g id="line2d_16">
      <g>
       <use xlink:href="#m67b912e49c" x="46.240313" y="86.95749" style="stroke: #000000; stroke-width: 0.8"/>
      </g>
     </g>
     <g id="text_9">
      <!-- 2000 -->
      <g transform="translate(23.970313 89.237022) scale(0.06 -0.06)">
       <use xlink:href="#DejaVuSans-32"/>
       <use xlink:href="#DejaVuSans-30" transform="translate(63.623047 0)"/>
       <use xlink:href="#DejaVuSans-30" transform="translate(127.246094 0)"/>
       <use xlink:href="#DejaVuSans-30" transform="translate(190.869141 0)"/>
      </g>
     </g>
    </g>
    <g id="ytick_4">
     <g id="line2d_17">
      <path d="M 46.240313 68.118461 
L 187.101881 68.118461 
" clip-path="url(#pb837be1409)" style="fill: none; stroke-dasharray: 0.8,1.32; stroke-dashoffset: 0; stroke: #b0b0b0; stroke-opacity: 0.6; stroke-width: 0.8"/>
     </g>
     <g id="line2d_18">
      <g>
       <use xlink:href="#m67b912e49c" x="46.240313" y="68.118461" style="stroke: #000000; stroke-width: 0.8"/>
      </g>
     </g>
     <g id="text_10">
      <!-- 4000 -->
      <g transform="translate(23.970313 70.397993) scale(0.06 -0.06)">
       <use xlink:href="#DejaVuSans-34"/>
       <use xlink:href="#DejaVuSans-30" transform="translate(63.623047 0)"/>
       <use xlink:href="#DejaVuSans-30" transform="translate(127.246094 0)"/>
       <use xlink:href="#DejaVuSans-30" transform="translate(190.869141 0)"/>
      </g>
     </g>
    </g>
    <g id="ytick_5">
     <g id="line2d_19">
      <path d="M 46.240313 49.279433 
L 187.101881 49.279433 
" clip-path="url(#pb837be1409)" style="fill: none; stroke-dasharray: 0.8,1.32; stroke-dashoffset: 0; stroke: #b0b0b0; stroke-opacity: 0.6; stroke-width: 0.8"/>
     </g>
     <g id="line2d_20">
      <g>
       <use xlink:href="#m67b912e49c" x="46.240313" y="49.279433" style="stroke: #000000; stroke-width: 0.8"/>
      </g>
     </g>
     <g id="text_11">
      <!-- 6000 -->
      <g transform="translate(23.970313 51.558964) scale(0.06 -0.06)">
       <defs>
        <path id="DejaVuSans-36" d="M 2113 2584 
Q 1688 2584 1439 2293 
Q 1191 2003 1191 1497 
Q 1191 994 1439 701 
Q 1688 409 2113 409 
Q 2538 409 2786 701 
Q 3034 994 3034 1497 
Q 3034 2003 2786 2293 
Q 2538 2584 2113 2584 
z
M 3366 4563 
L 3366 3988 
Q 3128 4100 2886 4159 
Q 2644 4219 2406 4219 
Q 1781 4219 1451 3797 
Q 1122 3375 1075 2522 
Q 1259 2794 1537 2939 
Q 1816 3084 2150 3084 
Q 2853 3084 3261 2657 
Q 3669 2231 3669 1497 
Q 3669 778 3244 343 
Q 2819 -91 2113 -91 
Q 1303 -91 875 529 
Q 447 1150 447 2328 
Q 447 3434 972 4092 
Q 1497 4750 2381 4750 
Q 2619 4750 2861 4703 
Q 3103 4656 3366 4563 
z
" transform="scale(0.015625)"/>
       </defs>
       <use xlink:href="#DejaVuSans-36"/>
       <use xlink:href="#DejaVuSans-30" transform="translate(63.623047 0)"/>
       <use xlink:href="#DejaVuSans-30" transform="translate(127.246094 0)"/>
       <use xlink:href="#DejaVuSans-30" transform="translate(190.869141 0)"/>
      </g>
     </g>
    </g>
    <g id="ytick_6">
     <g id="line2d_21">
      <path d="M 46.240313 30.440404 
L 187.101881 30.440404 
" clip-path="url(#pb837be1409)" style="fill: none; stroke-dasharray: 0.8,1.32; stroke-dashoffset: 0; stroke: #b0b0b0; stroke-opacity: 0.6; stroke-width: 0.8"/>
     </g>
     <g id="line2d_22">
      <g>
       <use xlink:href="#m67b912e49c" x="46.240313" y="30.440404" style="stroke: #000000; stroke-width: 0.8"/>
      </g>
     </g>
     <g id="text_12">
      <!-- 8000 -->
      <g transform="translate(23.970313 32.719935) scale(0.06 -0.06)">
       <defs>
        <path id="DejaVuSans-38" d="M 2034 2216 
Q 1584 2216 1326 1975 
Q 1069 1734 1069 1313 
Q 1069 891 1326 650 
Q 1584 409 2034 409 
Q 2484 409 2743 651 
Q 3003 894 3003 1313 
Q 3003 1734 2745 1975 
Q 2488 2216 2034 2216 
z
M 1403 2484 
Q 997 2584 770 2862 
Q 544 3141 544 3541 
Q 544 4100 942 4425 
Q 1341 4750 2034 4750 
Q 2731 4750 3128 4425 
Q 3525 4100 3525 3541 
Q 3525 3141 3298 2862 
Q 3072 2584 2669 2484 
Q 3125 2378 3379 2068 
Q 3634 1759 3634 1313 
Q 3634 634 3220 271 
Q 2806 -91 2034 -91 
Q 1263 -91 848 271 
Q 434 634 434 1313 
Q 434 1759 690 2068 
Q 947 2378 1403 2484 
z
M 1172 3481 
Q 1172 3119 1398 2916 
Q 1625 2713 2034 2713 
Q 2441 2713 2670 2916 
Q 2900 3119 2900 3481 
Q 2900 3844 2670 4047 
Q 2441 4250 2034 4250 
Q 1625 4250 1398 4047 
Q 1172 3844 1172 3481 
z
" transform="scale(0.015625)"/>
       </defs>
       <use xlink:href="#DejaVuSans-38"/>
       <use xlink:href="#DejaVuSans-30" transform="translate(63.623047 0)"/>
       <use xlink:href="#DejaVuSans-30" transform="translate(127.246094 0)"/>
       <use xlink:href="#DejaVuSans-30" transform="translate(190.869141 0)"/>
      </g>
     </g>
    </g>
    <g id="text_13">
     <!-- Membrane -->
     <g transform="translate(13.27875 102.77875) rotate(-90) scale(0.08 -0.08)">
      <defs>
       <path id="DejaVuSans-4d" d="M 628 4666 
L 1569 4666 
L 2759 1491 
L 3956 4666 
L 4897 4666 
L 4897 0 
L 4281 0 
L 4281 4097 
L 3078 897 
L 2444 897 
L 1241 4097 
L 1241 0 
L 628 0 
L 628 4666 
z
" transform="scale(0.015625)"/>
       <path id="DejaVuSans-62" d="M 3116 1747 
Q 3116 2381 2855 2742 
Q 2594 3103 2138 3103 
Q 1681 3103 1420 2742 
Q 1159 2381 1159 1747 
Q 1159 1113 1420 752 
Q 1681 391 2138 391 
Q 2594 391 2855 752 
Q 3116 1113 3116 1747 
z
M 1159 2969 
Q 1341 3281 1617 3432 
Q 1894 3584 2278 3584 
Q 2916 3584 3314 3078 
Q 3713 2572 3713 1747 
Q 3713 922 3314 415 
Q 2916 -91 2278 -91 
Q 1894 -91 1617 61 
Q 1341 213 1159 525 
L 1159 0 
L 581 0 
L 581 4863 
L 1159 4863 
L 1159 2969 
z
" transform="scale(0.015625)"/>
       <path id="DejaVuSans-72" d="M 2631 2963 
Q 2534 3019 2420 3045 
Q 2306 3072 2169 3072 
Q 1681 3072 1420 2755 
Q 1159 2438 1159 1844 
L 1159 0 
L 581 0 
L 581 3500 
L 1159 3500 
L 1159 2956 
Q 1341 3275 1631 3429 
Q 1922 3584 2338 3584 
Q 2397 3584 2469 3576 
Q 2541 3569 2628 3553 
L 2631 2963 
z
" transform="scale(0.015625)"/>
       <path id="DejaVuSans-61" d="M 2194 1759 
Q 1497 1759 1228 1600 
Q 959 1441 959 1056 
Q 959 750 1161 570 
Q 1363 391 1709 391 
Q 2188 391 2477 730 
Q 2766 1069 2766 1631 
L 2766 1759 
L 2194 1759 
z
M 3341 1997 
L 3341 0 
L 2766 0 
L 2766 531 
Q 2569 213 2275 61 
Q 1981 -91 1556 -91 
Q 1019 -91 701 211 
Q 384 513 384 1019 
Q 384 1609 779 1909 
Q 1175 2209 1959 2209 
L 2766 2209 
L 2766 2266 
Q 2766 2663 2505 2880 
Q 2244 3097 1772 3097 
Q 1472 3097 1187 3025 
Q 903 2953 641 2809 
L 641 3341 
Q 956 3463 1253 3523 
Q 1550 3584 1831 3584 
Q 2591 3584 2966 3190 
Q 3341 2797 3341 1997 
z
" transform="scale(0.015625)"/>
      </defs>
      <use xlink:href="#DejaVuSans-4d"/>
      <use xlink:href="#DejaVuSans-65" transform="translate(86.279297 0)"/>
      <use xlink:href="#DejaVuSans-6d" transform="translate(147.802734 0)"/>
      <use xlink:href="#DejaVuSans-62" transform="translate(245.214844 0)"/>
      <use xlink:href="#DejaVuSans-72" transform="translate(308.691406 0)"/>
      <use xlink:href="#DejaVuSans-61" transform="translate(349.804688 0)"/>
      <use xlink:href="#DejaVuSans-6e" transform="translate(411.083984 0)"/>
      <use xlink:href="#DejaVuSans-65" transform="translate(474.462891 0)"/>
     </g>
    </g>
   </g>
   <g id="line2d_23">
    <path d="M 47.057565 29.281803 
L 47.950047 29.281803 
L 47.950047 28.613018 
L 48.842528 28.613018 
L 48.842528 105.127734 
L 49.735009 105.127734 
L 49.735009 27.331964 
L 50.62749 27.331964 
L 50.62749 137.756932 
L 51.519971 137.756932 
L 51.519971 34.58499 
L 52.412452 34.58499 
L 52.412452 78.517605 
L 53.304934 78.517605 
L 53.304934 43.51469 
L 54.197415 43.51469 
L 54.197415 56.551298 
L 55.089896 56.551298 
L 55.089896 43.486431 
L 55.982377 43.486431 
L 55.982377 46.444159 
L 56.874858 46.444159 
L 56.874858 40.877226 
L 57.767339 40.877226 
L 57.767339 40.745352 
L 58.659821 40.745352 
L 58.659821 37.88182 
L 59.552302 37.88182 
L 59.552302 36.902191 
L 60.444783 36.902191 
L 60.444783 35.103063 
L 61.337264 35.103063 
L 61.337264 33.972722 
L 62.229745 33.972722 
L 62.229745 32.635151 
L 63.122227 32.635151 
L 63.122227 31.570745 
L 64.014708 31.570745 
L 64.014708 30.468662 
L 64.907189 30.468662 
L 64.907189 29.498452 
L 65.79967 29.498452 
L 65.79967 28.556501 
L 66.692151 28.556501 
L 66.692151 104.845148 
L 67.584632 104.845148 
L 67.584632 26.83273 
L 68.477114 26.83273 
L 68.477114 137.097566 
L 69.369595 137.097566 
L 69.369595 33.746653 
L 70.262076 33.746653 
L 70.262076 77.556815 
L 71.154557 77.556815 
L 71.154557 42.422026 
L 72.047038 42.422026 
L 72.047038 55.3456 
L 72.939519 55.3456 
L 72.939519 42.186538 
L 73.832001 42.186538 
L 73.832001 45.050071 
L 74.724482 45.050071 
L 74.724482 39.42662 
L 75.616963 39.42662 
L 75.616963 39.219391 
L 76.509444 39.219391 
L 76.509444 36.299342 
L 77.401925 36.299342 
L 77.401925 35.272615 
L 78.294406 35.272615 
L 78.294406 33.41697 
L 79.186888 33.41697 
L 79.186888 32.25837 
L 80.079369 32.25837 
L 80.079369 30.883121 
L 80.97185 30.883121 
L 80.97185 29.781038 
L 81.864331 29.781038 
L 81.864331 28.660115 
L 82.756812 28.660115 
L 82.756812 27.661647 
L 83.649294 27.661647 
L 83.649294 103.865519 
L 84.541775 103.865519 
L 84.541775 25.806003 
L 85.434256 25.806003 
L 85.434256 136.004902 
L 86.326737 136.004902 
L 86.326737 32.616311 
L 87.219218 32.616311 
L 87.219218 76.379376 
L 88.111699 76.379376 
L 88.111699 41.206909 
L 89.004181 41.206909 
L 89.004181 54.102224 
L 89.896662 54.102224 
L 89.896662 40.914904 
L 90.789143 40.914904 
L 90.789143 43.750178 
L 91.681624 43.750178 
L 91.681624 38.098469 
L 92.574105 38.098469 
L 92.574105 37.872401 
L 93.466586 37.872401 
L 93.466586 34.942932 
L 94.359068 34.942932 
L 94.359068 33.887946 
L 95.251549 33.887946 
L 95.251549 32.032302 
L 96.14403 32.032302 
L 96.14403 30.854862 
L 97.036511 30.854862 
L 97.036511 29.470194 
L 97.928992 29.470194 
L 97.928992 28.36811 
L 98.821473 28.36811 
L 98.821473 104.393012 
L 99.713955 104.393012 
L 99.713955 26.2393 
L 100.606436 26.2393 
L 100.606436 136.315746 
L 101.498917 136.315746 
L 101.498917 32.84238 
L 102.391398 32.84238 
L 102.391398 76.511249 
L 103.283879 76.511249 
L 103.283879 41.272845 
L 104.176361 41.272845 
L 104.176361 54.092804 
L 105.068842 54.092804 
L 105.068842 40.839548 
L 105.961323 40.839548 
L 105.961323 43.627724 
L 106.853804 43.627724 
L 106.853804 37.919498 
L 107.746285 37.919498 
L 107.746285 37.655752 
L 108.638766 37.655752 
L 108.638766 34.669766 
L 109.531248 34.669766 
L 109.531248 33.595941 
L 110.423729 33.595941 
L 110.423729 31.693199 
L 111.31621 31.693199 
L 111.31621 30.487501 
L 112.208691 30.487501 
L 112.208691 29.065155 
L 113.101172 29.065155 
L 113.101172 27.944232 
L 113.993653 27.944232 
L 113.993653 103.940875 
L 114.886135 103.940875 
L 114.886135 25.768324 
L 115.778616 25.768324 
L 115.778616 135.816512 
L 116.671097 135.816512 
L 116.671097 32.324307 
L 117.563578 32.324307 
L 117.563578 75.983756 
L 118.456059 75.983756 
L 118.456059 40.717094 
L 119.34854 40.717094 
L 119.34854 53.518214 
L 120.241022 53.518214 
L 120.241022 40.264957 
L 121.133503 40.264957 
L 121.133503 43.024875 
L 122.025984 43.024875 
L 122.025984 37.326069 
L 122.918465 37.326069 
L 122.918465 37.034064 
L 123.810946 37.034064 
L 123.810946 34.057497 
L 124.703428 34.057497 
L 124.703428 32.955414 
L 125.595909 32.955414 
L 125.595909 31.052672 
L 126.48839 31.052672 
L 126.48839 29.837555 
L 127.380871 29.837555 
L 127.380871 28.415208 
L 128.273352 28.415208 
L 128.273352 104.440109 
L 129.165833 104.440109 
L 129.165833 26.116847 
L 130.058315 26.116847 
L 130.058315 136.136775 
L 130.950796 136.136775 
L 130.950796 32.569214 
L 131.843277 32.569214 
L 131.843277 76.172146 
L 132.735758 76.172146 
L 132.735758 40.858387 
L 133.628239 40.858387 
L 133.628239 53.631248 
L 134.52072 53.631248 
L 134.52072 40.312055 
L 135.413202 40.312055 
L 135.413202 43.053134 
L 136.305683 43.053134 
L 136.305683 37.29781 
L 137.198164 37.29781 
L 137.198164 36.996386 
L 138.090645 36.996386 
L 138.090645 33.972722 
L 138.983126 33.972722 
L 138.983126 32.861219 
L 139.875607 32.861219 
L 139.875607 30.920799 
L 140.768089 30.920799 
L 140.768089 29.686842 
L 141.66057 29.686842 
L 141.66057 28.245657 
L 142.553051 28.245657 
L 142.553051 104.261138 
L 143.445532 104.261138 
L 143.445532 25.909617 
L 144.338013 25.909617 
L 144.338013 135.920126 
L 145.230495 135.920126 
L 145.230495 32.324307 
L 146.122976 32.324307 
L 146.122976 75.917819 
L 147.015457 75.917819 
L 147.015457 40.59464 
L 147.907938 40.59464 
L 147.907938 53.348663 
L 148.800419 53.348663 
L 148.800419 40.029469 
L 149.6929 40.029469 
L 149.6929 42.761129 
L 150.585382 42.761129 
L 150.585382 37.005805 
L 151.477863 37.005805 
L 151.477863 36.676122 
L 152.370344 36.676122 
L 152.370344 33.661878 
L 153.262825 33.661878 
L 153.262825 32.531536 
L 154.155306 32.531536 
L 154.155306 30.591116 
L 155.047787 30.591116 
L 155.047787 29.34774 
L 155.940269 29.34774 
L 155.940269 27.906554 
L 156.83275 27.906554 
L 156.83275 103.903197 
L 157.725231 103.903197 
L 157.725231 25.551676 
L 158.617712 25.551676 
L 158.617712 135.552765 
L 159.510193 135.552765 
L 159.510193 31.966365 
L 160.402674 31.966365 
L 160.402674 75.550458 
L 161.295156 75.550458 
L 161.295156 40.21786 
L 162.187637 40.21786 
L 162.187637 52.971882 
L 163.080118 52.971882 
L 163.080118 39.652689 
L 163.972599 39.652689 
L 163.972599 42.374928 
L 164.86508 42.374928 
L 164.86508 36.600766 
L 165.757562 36.600766 
L 165.757562 36.280503 
L 166.650043 36.280503 
L 166.650043 33.247419 
L 167.542524 33.247419 
L 167.542524 32.117077 
L 168.435005 32.117077 
L 168.435005 30.176657 
L 169.327486 30.176657 
L 169.327486 28.933281 
L 170.219967 28.933281 
L 170.219967 27.492096 
L 171.112449 27.492096 
L 171.112449 103.488738 
L 172.00493 103.488738 
L 172.00493 25.137217 
L 172.897411 25.137217 
L 172.897411 135.138307 
L 173.789892 135.138307 
L 173.789892 31.542487 
L 174.682373 31.542487 
L 174.682373 75.136 
L 175.574854 75.136 
L 175.574854 39.793982 
L 176.467336 39.793982 
L 176.467336 52.548004 
L 177.359817 52.548004 
L 177.359817 39.228811 
L 178.252298 39.228811 
L 178.252298 41.95105 
L 179.144779 41.95105 
L 179.144779 36.186307 
L 180.03726 36.186307 
L 180.03726 35.856624 
L 180.929741 35.856624 
L 180.929741 32.83296 
L 181.822223 32.83296 
L 181.822223 31.702619 
L 182.714704 31.702619 
L 182.714704 29.752779 
L 183.607185 29.752779 
L 183.607185 28.518823 
L 184.499666 28.518823 
L 184.499666 104.22346 
L 185.392147 104.22346 
L 185.392147 25.900198 
L 186.284629 25.900198 
L 186.284629 135.759995 
L 186.284629 135.759995 
" clip-path="url(#pb837be1409)" style="fill: none; stroke: #0072b2; stroke-width: 0.8; stroke-linecap: square"/>
   </g>
   <g id="patch_4">
    <path d="M 46.240313 143.39875 
L 46.240313 19.27875 
" style="fill: none; stroke: #000000; stroke-width: 0.8; stroke-linejoin: miter; stroke-linecap: square"/>
   </g>
   <g id="patch_5">
    <path d="M 187.101881 143.39875 
L 187.101881 19.27875 
" style="fill: none; stroke: #000000; stroke-width: 0.8; stroke-linejoin: miter; stroke-linecap: square"/>
   </g>
   <g id="patch_6">
    <path d="M 46.240313 143.39875 
L 187.101881 143.39875 
" style="fill: none; stroke: #000000; stroke-width: 0.8; stroke-linejoin: miter; stroke-linecap: square"/>
   </g>
   <g id="patch_7">
    <path d="M 46.240313 19.27875 
L 187.101881 19.27875 
" style="fill: none; stroke: #000000; stroke-width: 0.8; stroke-linejoin: miter; stroke-linecap: square"/>
   </g>
   <g id="text_14">
    <!-- startup -->
    <g style="fill: #999999" transform="translate(102.281097 13.27875) scale(0.08 -0.08)">
     <defs>
      <path id="DejaVuSans-74" d="M 1172 4494 
L 1172 3500 
L 2356 3500 
L 2356 3053 
L 1172 3053 
L 1172 1153 
Q 1172 725 1289 603 
Q 1406 481 1766 481 
L 2356 481 
L 2356 0 
L 1766 0 
Q 1100 0 847 248 
Q 594 497 594 1153 
L 594 3053 
L 172 3053 
L 172 3500 
L 594 3500 
L 594 4494 
L 1172 4494 
z
" transform="scale(0.015625)"/>
      <path id="DejaVuSans-75" d="M 544 1381 
L 544 3500 
L 1119 3500 
L 1119 1403 
Q 1119 906 1312 657 
Q 1506 409 1894 409 
Q 2359 409 2629 706 
Q 2900 1003 2900 1516 
L 2900 3500 
L 3475 3500 
L 3475 0 
L 2900 0 
L 2900 538 
Q 2691 219 2414 64 
Q 2138 -91 1772 -91 
Q 1169 -91 856 284 
Q 544 659 544 1381 
z
M 1991 3584 
L 1991 3584 
z
" transform="scale(0.015625)"/>
      <path id="DejaVuSans-70" d="M 1159 525 
L 1159 -1331 
L 581 -1331 
L 581 3500 
L 1159 3500 
L 1159 2969 
Q 1341 3281 1617 3432 
Q 1894 3584 2278 3584 
Q 2916 3584 3314 3078 
Q 3713 2572 3713 1747 
Q 3713 922 3314 415 
Q 2916 -91 2278 -91 
Q 1894 -91 1617 61 
Q 1341 213 1159 525 
z
M 3116 1747 
Q 3116 2381 2855 2742 
Q 2594 3103 2138 3103 
Q 1681 3103 1420 2742 
Q 1159 2381 1159 1747 
Q 1159 1113 1420 752 
Q 1681 391 2138 391 
Q 2594 391 2855 752 
Q 3116 1113 3116 1747 
z
" transform="scale(0.015625)"/>
     </defs>
     <use xlink:href="#DejaVuSans-73"/>
     <use xlink:href="#DejaVuSans-74" transform="translate(52.099609 0)"/>
     <use xlink:href="#DejaVuSans-61" transform="translate(91.308594 0)"/>
     <use xlink:href="#DejaVuSans-72" transform="translate(152.587891 0)"/>
     <use xlink:href="#DejaVuSans-74" transform="translate(193.701172 0)"/>
     <use xlink:href="#DejaVuSans-75" transform="translate(232.910156 0)"/>
     <use xlink:href="#DejaVuSans-70" transform="translate(296.289062 0)"/>
    </g>
   </g>
  </g>
  <g id="axes_2">
   <g id="patch_8">
    <path d="M 211.149528 143.39875 
L 352.011097 143.39875 
L 352.011097 19.27875 
L 211.149528 19.27875 
z
" style="fill: #ffffff"/>
   </g>
   <g id="patch_9">
    <path d="M 211.149528 143.39875 
L 352.011097 143.39875 
L 352.011097 19.27875 
L 211.149528 19.27875 
z
" clip-path="url(#pb363b15b9b)" style="fill: #d55e00; opacity: 0.12"/>
   </g>
   <g id="matplotlib.axis_3">
    <g id="xtick_6">
     <g id="line2d_24">
      <path d="M 218.768286 143.39875 
L 218.768286 19.27875 
" clip-path="url(#pb363b15b9b)" style="fill: none; stroke-dasharray: 0.8,1.32; stroke-dashoffset: 0; stroke: #b0b0b0; stroke-opacity: 0.6; stroke-width: 0.8"/>
     </g>
     <g id="line2d_25">
      <g>
       <use xlink:href="#ma357d30211" x="218.768286" y="143.39875" style="stroke: #000000; stroke-width: 0.8"/>
      </g>
     </g>
     <g id="text_15">
      <!-- 8.00e5 -->
      <g transform="translate(208.333911 154.957812) scale(0.06 -0.06)">
       <use xlink:href="#DejaVuSans-38"/>
       <use xlink:href="#DejaVuSans-2e" transform="translate(63.623047 0)"/>
       <use xlink:href="#DejaVuSans-30" transform="translate(95.410156 0)"/>
       <use xlink:href="#DejaVuSans-30" transform="translate(159.033203 0)"/>
       <use xlink:href="#DejaVuSans-65" transform="translate(222.65625 0)"/>
       <use xlink:href="#DejaVuSans-35" transform="translate(284.179688 0)"/>
      </g>
     </g>
    </g>
    <g id="xtick_7">
     <g id="line2d_26">
      <path d="M 241.255765 143.39875 
L 241.255765 19.27875 
" clip-path="url(#pb363b15b9b)" style="fill: none; stroke-dasharray: 0.8,1.32; stroke-dashoffset: 0; stroke: #b0b0b0; stroke-opacity: 0.6; stroke-width: 0.8"/>
     </g>
     <g id="line2d_27">
      <g>
       <use xlink:href="#ma357d30211" x="241.255765" y="143.39875" style="stroke: #000000; stroke-width: 0.8"/>
      </g>
     </g>
     <g id="text_16">
      <!-- 8.50e5 -->
      <g transform="translate(230.82139 154.957812) scale(0.06 -0.06)">
       <use xlink:href="#DejaVuSans-38"/>
       <use xlink:href="#DejaVuSans-2e" transform="translate(63.623047 0)"/>
       <use xlink:href="#DejaVuSans-35" transform="translate(95.410156 0)"/>
       <use xlink:href="#DejaVuSans-30" transform="translate(159.033203 0)"/>
       <use xlink:href="#DejaVuSans-65" transform="translate(222.65625 0)"/>
       <use xlink:href="#DejaVuSans-35" transform="translate(284.179688 0)"/>
      </g>
     </g>
    </g>
    <g id="xtick_8">
     <g id="line2d_28">
      <path d="M 263.743244 143.39875 
L 263.743244 19.27875 
" clip-path="url(#pb363b15b9b)" style="fill: none; stroke-dasharray: 0.8,1.32; stroke-dashoffset: 0; stroke: #b0b0b0; stroke-opacity: 0.6; stroke-width: 0.8"/>
     </g>
     <g id="line2d_29">
      <g>
       <use xlink:href="#ma357d30211" x="263.743244" y="143.39875" style="stroke: #000000; stroke-width: 0.8"/>
      </g>
     </g>
     <g id="text_17">
      <!-- 9.00e5 -->
      <g transform="translate(253.308869 154.957812) scale(0.06 -0.06)">
       <defs>
        <path id="DejaVuSans-39" d="M 703 97 
L 703 672 
Q 941 559 1184 500 
Q 1428 441 1663 441 
Q 2288 441 2617 861 
Q 2947 1281 2994 2138 
Q 2813 1869 2534 1725 
Q 2256 1581 1919 1581 
Q 1219 1581 811 2004 
Q 403 2428 403 3163 
Q 403 3881 828 4315 
Q 1253 4750 1959 4750 
Q 2769 4750 3195 4129 
Q 3622 3509 3622 2328 
Q 3622 1225 3098 567 
Q 2575 -91 1691 -91 
Q 1453 -91 1209 -44 
Q 966 3 703 97 
z
M 1959 2075 
Q 2384 2075 2632 2365 
Q 2881 2656 2881 3163 
Q 2881 3666 2632 3958 
Q 2384 4250 1959 4250 
Q 1534 4250 1286 3958 
Q 1038 3666 1038 3163 
Q 1038 2656 1286 2365 
Q 1534 2075 1959 2075 
z
" transform="scale(0.015625)"/>
       </defs>
       <use xlink:href="#DejaVuSans-39"/>
       <use xlink:href="#DejaVuSans-2e" transform="translate(63.623047 0)"/>
       <use xlink:href="#DejaVuSans-30" transform="translate(95.410156 0)"/>
       <use xlink:href="#DejaVuSans-30" transform="translate(159.033203 0)"/>
       <use xlink:href="#DejaVuSans-65" transform="translate(222.65625 0)"/>
       <use xlink:href="#DejaVuSans-35" transform="translate(284.179688 0)"/>
      </g>
     </g>
    </g>
    <g id="xtick_9">
     <g id="line2d_30">
      <path d="M 286.230723 143.39875 
L 286.230723 19.27875 
" clip-path="url(#pb363b15b9b)" style="fill: none; stroke-dasharray: 0.8,1.32; stroke-dashoffset: 0; stroke: #b0b0b0; stroke-opacity: 0.6; stroke-width: 0.8"/>
     </g>
     <g id="line2d_31">
      <g>
       <use xlink:href="#ma357d30211" x="286.230723" y="143.39875" style="stroke: #000000; stroke-width: 0.8"/>
      </g>
     </g>
     <g id="text_18">
      <!-- 9.50e5 -->
      <g transform="translate(275.796348 154.957812) scale(0.06 -0.06)">
       <use xlink:href="#DejaVuSans-39"/>
       <use xlink:href="#DejaVuSans-2e" transform="translate(63.623047 0)"/>
       <use xlink:href="#DejaVuSans-35" transform="translate(95.410156 0)"/>
       <use xlink:href="#DejaVuSans-30" transform="translate(159.033203 0)"/>
       <use xlink:href="#DejaVuSans-65" transform="translate(222.65625 0)"/>
       <use xlink:href="#DejaVuSans-35" transform="translate(284.179688 0)"/>
      </g>
     </g>
    </g>
    <g id="xtick_10">
     <g id="line2d_32">
      <path d="M 308.718202 143.39875 
L 308.718202 19.27875 
" clip-path="url(#pb363b15b9b)" style="fill: none; stroke-dasharray: 0.8,1.32; stroke-dashoffset: 0; stroke: #b0b0b0; stroke-opacity: 0.6; stroke-width: 0.8"/>
     </g>
     <g id="line2d_33">
      <g>
       <use xlink:href="#ma357d30211" x="308.718202" y="143.39875" style="stroke: #000000; stroke-width: 0.8"/>
      </g>
     </g>
     <g id="text_19">
      <!-- 1.00e6 -->
      <g transform="translate(298.283827 154.957812) scale(0.06 -0.06)">
       <use xlink:href="#DejaVuSans-31"/>
       <use xlink:href="#DejaVuSans-2e" transform="translate(63.623047 0)"/>
       <use xlink:href="#DejaVuSans-30" transform="translate(95.410156 0)"/>
       <use xlink:href="#DejaVuSans-30" transform="translate(159.033203 0)"/>
       <use xlink:href="#DejaVuSans-65" transform="translate(222.65625 0)"/>
       <use xlink:href="#DejaVuSans-36" transform="translate(284.179688 0)"/>
      </g>
     </g>
    </g>
    <g id="xtick_11">
     <g id="line2d_34">
      <path d="M 331.205681 143.39875 
L 331.205681 19.27875 
" clip-path="url(#pb363b15b9b)" style="fill: none; stroke-dasharray: 0.8,1.32; stroke-dashoffset: 0; stroke: #b0b0b0; stroke-opacity: 0.6; stroke-width: 0.8"/>
     </g>
     <g id="line2d_35">
      <g>
       <use xlink:href="#ma357d30211" x="331.205681" y="143.39875" style="stroke: #000000; stroke-width: 0.8"/>
      </g>
     </g>
     <g id="text_20">
      <!-- 1.05e6 -->
      <g transform="translate(320.771306 154.957812) scale(0.06 -0.06)">
       <use xlink:href="#DejaVuSans-31"/>
       <use xlink:href="#DejaVuSans-2e" transform="translate(63.623047 0)"/>
       <use xlink:href="#DejaVuSans-30" transform="translate(95.410156 0)"/>
       <use xlink:href="#DejaVuSans-35" transform="translate(159.033203 0)"/>
       <use xlink:href="#DejaVuSans-65" transform="translate(222.65625 0)"/>
       <use xlink:href="#DejaVuSans-36" transform="translate(284.179688 0)"/>
      </g>
     </g>
    </g>
    <g id="text_21">
     <!-- Time (ns) -->
     <g transform="translate(262.782188 166.284375) scale(0.08 -0.08)">
      <use xlink:href="#DejaVuSans-54"/>
      <use xlink:href="#DejaVuSans-69" transform="translate(57.958984 0)"/>
      <use xlink:href="#DejaVuSans-6d" transform="translate(85.742188 0)"/>
      <use xlink:href="#DejaVuSans-65" transform="translate(183.154297 0)"/>
      <use xlink:href="#DejaVuSans-20" transform="translate(244.677734 0)"/>
      <use xlink:href="#DejaVuSans-28" transform="translate(276.464844 0)"/>
      <use xlink:href="#DejaVuSans-6e" transform="translate(315.478516 0)"/>
      <use xlink:href="#DejaVuSans-73" transform="translate(378.857422 0)"/>
      <use xlink:href="#DejaVuSans-29" transform="translate(430.957031 0)"/>
     </g>
    </g>
   </g>
   <g id="matplotlib.axis_4">
    <g id="ytick_7">
     <g id="line2d_36">
      <path d="M 211.149528 124.635548 
L 352.011097 124.635548 
" clip-path="url(#pb363b15b9b)" style="fill: none; stroke-dasharray: 0.8,1.32; stroke-dashoffset: 0; stroke: #b0b0b0; stroke-opacity: 0.6; stroke-width: 0.8"/>
     </g>
     <g id="line2d_37">
      <g>
       <use xlink:href="#m67b912e49c" x="211.149528" y="124.635548" style="stroke: #000000; stroke-width: 0.8"/>
      </g>
     </g>
    </g>
    <g id="ytick_8">
     <g id="line2d_38">
      <path d="M 211.149528 105.796519 
L 352.011097 105.796519 
" clip-path="url(#pb363b15b9b)" style="fill: none; stroke-dasharray: 0.8,1.32; stroke-dashoffset: 0; stroke: #b0b0b0; stroke-opacity: 0.6; stroke-width: 0.8"/>
     </g>
     <g id="line2d_39">
      <g>
       <use xlink:href="#m67b912e49c" x="211.149528" y="105.796519" style="stroke: #000000; stroke-width: 0.8"/>
      </g>
     </g>
    </g>
    <g id="ytick_9">
     <g id="line2d_40">
      <path d="M 211.149528 86.95749 
L 352.011097 86.95749 
" clip-path="url(#pb363b15b9b)" style="fill: none; stroke-dasharray: 0.8,1.32; stroke-dashoffset: 0; stroke: #b0b0b0; stroke-opacity: 0.6; stroke-width: 0.8"/>
     </g>
     <g id="line2d_41">
      <g>
       <use xlink:href="#m67b912e49c" x="211.149528" y="86.95749" style="stroke: #000000; stroke-width: 0.8"/>
      </g>
     </g>
    </g>
    <g id="ytick_10">
     <g id="line2d_42">
      <path d="M 211.149528 68.118461 
L 352.011097 68.118461 
" clip-path="url(#pb363b15b9b)" style="fill: none; stroke-dasharray: 0.8,1.32; stroke-dashoffset: 0; stroke: #b0b0b0; stroke-opacity: 0.6; stroke-width: 0.8"/>
     </g>
     <g id="line2d_43">
      <g>
       <use xlink:href="#m67b912e49c" x="211.149528" y="68.118461" style="stroke: #000000; stroke-width: 0.8"/>
      </g>
     </g>
    </g>
    <g id="ytick_11">
     <g id="line2d_44">
      <path d="M 211.149528 49.279433 
L 352.011097 49.279433 
" clip-path="url(#pb363b15b9b)" style="fill: none; stroke-dasharray: 0.8,1.32; stroke-dashoffset: 0; stroke: #b0b0b0; stroke-opacity: 0.6; stroke-width: 0.8"/>
     </g>
     <g id="line2d_45">
      <g>
       <use xlink:href="#m67b912e49c" x="211.149528" y="49.279433" style="stroke: #000000; stroke-width: 0.8"/>
      </g>
     </g>
    </g>
    <g id="ytick_12">
     <g id="line2d_46">
      <path d="M 211.149528 30.440404 
L 352.011097 30.440404 
" clip-path="url(#pb363b15b9b)" style="fill: none; stroke-dasharray: 0.8,1.32; stroke-dashoffset: 0; stroke: #b0b0b0; stroke-opacity: 0.6; stroke-width: 0.8"/>
     </g>
     <g id="line2d_47">
      <g>
       <use xlink:href="#m67b912e49c" x="211.149528" y="30.440404" style="stroke: #000000; stroke-width: 0.8"/>
      </g>
     </g>
    </g>
   </g>
   <g id="line2d_48">
    <path d="M 212.318877 58.529396 
L 213.492723 58.529396 
L 213.492723 71.208062 
L 214.66657 71.208062 
L 214.66657 66.178041 
L 215.840416 66.178041 
L 215.840416 70.925477 
L 217.014263 70.925477 
L 217.014263 69.823394 
L 218.188109 69.823394 
L 218.188109 71.923945 
L 219.361955 71.923945 
L 219.361955 72.084077 
L 220.535802 72.084077 
L 220.535802 73.261516 
L 221.709648 73.261516 
L 221.709648 73.77017 
L 222.883495 73.77017 
L 222.883495 74.599087 
L 224.057341 74.599087 
L 224.057341 75.183097 
L 225.231187 75.183097 
L 225.231187 75.851883 
L 226.405034 75.851883 
L 226.405034 76.435893 
L 227.57888 76.435893 
L 227.57888 77.010483 
L 228.752727 77.010483 
L 228.752727 77.556815 
L 229.926573 77.556815 
L 229.926573 78.084308 
L 231.100419 78.084308 
L 231.100419 78.583542 
L 232.274266 78.583542 
L 232.274266 79.063937 
L 233.448112 79.063937 
L 233.448112 79.525493 
L 234.621959 79.525493 
L 234.621959 79.968211 
L 235.795805 79.968211 
L 235.795805 80.401508 
L 236.969652 80.401508 
L 236.969652 80.806547 
L 238.143498 80.806547 
L 238.143498 81.211587 
L 239.317344 81.211587 
L 239.317344 81.588367 
L 240.491191 81.588367 
L 240.491191 81.965148 
L 241.665037 81.965148 
L 241.665037 82.323089 
L 242.838884 82.323089 
L 242.838884 82.681031 
L 244.01273 82.681031 
L 244.01273 83.029553 
L 245.186576 83.029553 
L 245.186576 83.359236 
L 246.360423 83.359236 
L 246.360423 83.688919 
L 247.534269 83.688919 
L 247.534269 83.999763 
L 248.708116 83.999763 
L 248.708116 84.310607 
L 249.881962 84.310607 
L 249.881962 84.612031 
L 251.055808 84.612031 
L 251.055808 84.894617 
L 252.229655 84.894617 
L 252.229655 85.186622 
L 253.403501 85.186622 
L 253.403501 85.450368 
L 254.577348 85.450368 
L 254.577348 85.723534 
L 255.751194 85.723534 
L 255.751194 85.968441 
L 256.92504 85.968441 
L 256.92504 86.232188 
L 258.098887 86.232188 
L 258.098887 86.467676 
L 259.272733 86.467676 
L 259.272733 86.722003 
L 260.44658 86.722003 
L 260.44658 86.948071 
L 261.620426 86.948071 
L 261.620426 87.192978 
L 262.794272 87.192978 
L 262.794272 87.409627 
L 263.968119 87.409627 
L 263.968119 87.645115 
L 265.141965 87.645115 
L 265.141965 87.852344 
L 266.315812 87.852344 
L 266.315812 88.078413 
L 267.489658 88.078413 
L 267.489658 88.276222 
L 268.663505 88.276222 
L 268.663505 88.492871 
L 269.837351 88.492871 
L 269.837351 88.690681 
L 271.011197 88.690681 
L 271.011197 88.888491 
L 272.185044 88.888491 
L 272.185044 89.086301 
L 273.35889 89.086301 
L 273.35889 89.265271 
L 274.532737 89.265271 
L 274.532737 89.453662 
L 275.706583 89.453662 
L 275.706583 89.623213 
L 276.880429 89.623213 
L 276.880429 89.802184 
L 278.054276 89.802184 
L 278.054276 89.981155 
L 279.228122 89.981155 
L 279.228122 90.150706 
L 280.401969 90.150706 
L 280.401969 90.320257 
L 281.575815 90.320257 
L 281.575815 90.489808 
L 282.749661 90.489808 
L 282.749661 90.64994 
L 283.923508 90.64994 
L 283.923508 90.810072 
L 285.097354 90.810072 
L 285.097354 90.979623 
L 286.271201 90.979623 
L 286.271201 91.130335 
L 287.445047 91.130335 
L 287.445047 91.290467 
L 288.618893 91.290467 
L 288.618893 91.441179 
L 289.79274 91.441179 
L 289.79274 91.601311 
L 290.966586 91.601311 
L 290.966586 91.733184 
L 292.140433 91.733184 
L 292.140433 91.883896 
L 293.314279 91.883896 
L 293.314279 92.01577 
L 294.488125 92.01577 
L 294.488125 92.147643 
L 295.661972 92.147643 
L 295.661972 92.288936 
L 296.835818 92.288936 
L 296.835818 92.420809 
L 298.009665 92.420809 
L 298.009665 92.552682 
L 299.183511 92.552682 
L 299.183511 92.684555 
L 300.357358 92.684555 
L 300.357358 92.816428 
L 301.531204 92.816428 
L 301.531204 92.938882 
L 302.70505 92.938882 
L 302.70505 93.070755 
L 303.878897 93.070755 
L 303.878897 93.193209 
L 305.052743 93.193209 
L 305.052743 93.315663 
L 306.22659 93.315663 
L 306.22659 93.438116 
L 307.400436 93.438116 
L 307.400436 93.56057 
L 308.574282 93.56057 
L 308.574282 93.673604 
L 309.748129 93.673604 
L 309.748129 93.786638 
L 310.921975 93.786638 
L 310.921975 93.909092 
L 313.269668 94.003287 
L 313.269668 94.116321 
L 315.617361 94.219936 
L 315.617361 94.323551 
L 316.791207 94.323551 
L 316.791207 94.436585 
L 319.1389 94.5402 
L 319.1389 94.643814 
L 321.486593 94.747429 
L 321.486593 94.851043 
L 323.834286 94.954658 
L 323.834286 95.058273 
L 326.181978 95.152468 
L 326.181978 95.256083 
L 328.529671 95.350278 
L 328.529671 95.444473 
L 330.877364 95.538668 
L 330.877364 95.623444 
L 333.225057 95.717639 
L 333.225057 95.802414 
L 335.57275 95.88719 
L 335.57275 95.981385 
L 337.920443 96.066161 
L 337.920443 96.160356 
L 340.268135 96.235712 
L 340.268135 96.329907 
L 342.615828 96.414683 
L 342.615828 96.499459 
L 344.963521 96.584234 
L 344.963521 96.66901 
L 347.311214 96.753785 
L 347.311214 96.819722 
L 349.658907 96.904498 
L 349.658907 96.970434 
L 352.006599 97.04579 
L 352.006599 97.121146 
L 352.006599 97.121146 
" clip-path="url(#pb363b15b9b)" style="fill: none; stroke: #0072b2; stroke-width: 0.8; stroke-linecap: square"/>
   </g>
   <g id="patch_10">
    <path d="M 211.149528 143.39875 
L 211.149528 19.27875 
" style="fill: none; stroke: #000000; stroke-width: 0.8; stroke-linejoin: miter; stroke-linecap: square"/>
   </g>
   <g id="patch_11">
    <path d="M 352.011097 143.39875 
L 352.011097 19.27875 
" style="fill: none; stroke: #000000; stroke-width: 0.8; stroke-linejoin: miter; stroke-linecap: square"/>
   </g>
   <g id="patch_12">
    <path d="M 211.149528 143.39875 
L 352.011097 143.39875 
" style="fill: none; stroke: #000000; stroke-width: 0.8; stroke-linejoin: miter; stroke-linecap: square"/>
   </g>
   <g id="patch_13">
    <path d="M 211.149528 19.27875 
L 352.011097 19.27875 
" style="fill: none; stroke: #000000; stroke-width: 0.8; stroke-linejoin: miter; stroke-linecap: square"/>
   </g>
   <g id="text_22">
    <!-- dropout -->
    <g style="fill: #d55e00" transform="translate(265.949063 13.27875) scale(0.08 -0.08)">
     <defs>
      <path id="DejaVuSans-64" d="M 2906 2969 
L 2906 4863 
L 3481 4863 
L 3481 0 
L 2906 0 
L 2906 525 
Q 2725 213 2448 61 
Q 2172 -91 1784 -91 
Q 1150 -91 751 415 
Q 353 922 353 1747 
Q 353 2572 751 3078 
Q 1150 3584 1784 3584 
Q 2172 3584 2448 3432 
Q 2725 3281 2906 2969 
z
M 947 1747 
Q 947 1113 1208 752 
Q 1469 391 1925 391 
Q 2381 391 2643 752 
Q 2906 1113 2906 1747 
Q 2906 2381 2643 2742 
Q 2381 3103 1925 3103 
Q 1469 3103 1208 2742 
Q 947 2381 947 1747 
z
" transform="scale(0.015625)"/>
      <path id="DejaVuSans-6f" d="M 1959 3097 
Q 1497 3097 1228 2736 
Q 959 2375 959 1747 
Q 959 1119 1226 758 
Q 1494 397 1959 397 
Q 2419 397 2687 759 
Q 2956 1122 2956 1747 
Q 2956 2369 2687 2733 
Q 2419 3097 1959 3097 
z
M 1959 3584 
Q 2709 3584 3137 3096 
Q 3566 2609 3566 1747 
Q 3566 888 3137 398 
Q 2709 -91 1959 -91 
Q 1206 -91 779 398 
Q 353 888 353 1747 
Q 353 2609 779 3096 
Q 1206 3584 1959 3584 
z
" transform="scale(0.015625)"/>
     </defs>
     <use xlink:href="#DejaVuSans-64"/>
     <use xlink:href="#DejaVuSans-72" transform="translate(63.476562 0)"/>
     <use xlink:href="#DejaVuSans-6f" transform="translate(102.339844 0)"/>
     <use xlink:href="#DejaVuSans-70" transform="translate(163.521484 0)"/>
     <use xlink:href="#DejaVuSans-6f" transform="translate(226.998047 0)"/>
     <use xlink:href="#DejaVuSans-75" transform="translate(288.179688 0)"/>
     <use xlink:href="#DejaVuSans-74" transform="translate(351.558594 0)"/>
    </g>
   </g>
  </g>
  <g id="axes_3">
   <g id="patch_14">
    <path d="M 376.058744 143.39875 
L 516.920313 143.39875 
L 516.920313 19.27875 
L 376.058744 19.27875 
z
" style="fill: #ffffff"/>
   </g>
   <g id="PathCollection_2">
    <g clip-path="url(#pdd0383a103)">
     <use xlink:href="#m785888a86c" x="377.812935" y="23.00235" style="fill: #d55e00; stroke: #d55e00; stroke-width: 0.8"/>
     <use xlink:href="#m785888a86c" x="379.644311" y="23.00235" style="fill: #d55e00; stroke: #d55e00; stroke-width: 0.8"/>
     <use xlink:href="#m785888a86c" x="395.211005" y="23.00235" style="fill: #d55e00; stroke: #d55e00; stroke-width: 0.8"/>
     <use xlink:href="#m785888a86c" x="397.042381" y="23.00235" style="fill: #d55e00; stroke: #d55e00; stroke-width: 0.8"/>
     <use xlink:href="#m785888a86c" x="410.7777" y="23.00235" style="fill: #d55e00; stroke: #d55e00; stroke-width: 0.8"/>
     <use xlink:href="#m785888a86c" x="412.609075" y="23.00235" style="fill: #d55e00; stroke: #d55e00; stroke-width: 0.8"/>
     <use xlink:href="#m785888a86c" x="426.344394" y="23.00235" style="fill: #d55e00; stroke: #d55e00; stroke-width: 0.8"/>
     <use xlink:href="#m785888a86c" x="428.17577" y="23.00235" style="fill: #d55e00; stroke: #d55e00; stroke-width: 0.8"/>
     <use xlink:href="#m785888a86c" x="440.995401" y="23.00235" style="fill: #d55e00; stroke: #d55e00; stroke-width: 0.8"/>
     <use xlink:href="#m785888a86c" x="442.826776" y="23.00235" style="fill: #d55e00; stroke: #d55e00; stroke-width: 0.8"/>
     <use xlink:href="#m785888a86c" x="455.646407" y="23.00235" style="fill: #d55e00; stroke: #d55e00; stroke-width: 0.8"/>
     <use xlink:href="#m785888a86c" x="457.477783" y="23.00235" style="fill: #d55e00; stroke: #d55e00; stroke-width: 0.8"/>
     <use xlink:href="#m785888a86c" x="470.297414" y="23.00235" style="fill: #d55e00; stroke: #d55e00; stroke-width: 0.8"/>
     <use xlink:href="#m785888a86c" x="472.128789" y="23.00235" style="fill: #d55e00; stroke: #d55e00; stroke-width: 0.8"/>
     <use xlink:href="#m785888a86c" x="484.94842" y="23.00235" style="fill: #d55e00; stroke: #d55e00; stroke-width: 0.8"/>
     <use xlink:href="#m785888a86c" x="486.779796" y="23.00235" style="fill: #d55e00; stroke: #d55e00; stroke-width: 0.8"/>
     <use xlink:href="#m785888a86c" x="499.599427" y="23.00235" style="fill: #d55e00; stroke: #d55e00; stroke-width: 0.8"/>
     <use xlink:href="#m785888a86c" x="501.430802" y="23.00235" style="fill: #d55e00; stroke: #d55e00; stroke-width: 0.8"/>
     <use xlink:href="#m785888a86c" x="513.334745" y="23.00235" style="fill: #d55e00; stroke: #d55e00; stroke-width: 0.8"/>
     <use xlink:href="#m785888a86c" x="515.166121" y="23.00235" style="fill: #d55e00; stroke: #d55e00; stroke-width: 0.8"/>
    </g>
   </g>
   <g id="patch_15">
    <path d="M 376.058744 143.39875 
L 516.920313 143.39875 
L 516.920313 19.27875 
L 376.058744 19.27875 
z
" clip-path="url(#pdd0383a103)" style="fill: #009e73; opacity: 0.12"/>
   </g>
   <g id="matplotlib.axis_5">
    <g id="xtick_12">
     <g id="line2d_49">
      <path d="M 388.573145 143.39875 
L 388.573145 19.27875 
" clip-path="url(#pdd0383a103)" style="fill: none; stroke-dasharray: 0.8,1.32; stroke-dashoffset: 0; stroke: #b0b0b0; stroke-opacity: 0.6; stroke-width: 0.8"/>
     </g>
     <g id="line2d_50">
      <g>
       <use xlink:href="#ma357d30211" x="388.573145" y="143.39875" style="stroke: #000000; stroke-width: 0.8"/>
      </g>
     </g>
     <g id="text_23">
      <!-- 1.20e6 -->
      <g transform="translate(378.13877 154.957812) scale(0.06 -0.06)">
       <use xlink:href="#DejaVuSans-31"/>
       <use xlink:href="#DejaVuSans-2e" transform="translate(63.623047 0)"/>
       <use xlink:href="#DejaVuSans-32" transform="translate(95.410156 0)"/>
       <use xlink:href="#DejaVuSans-30" transform="translate(159.033203 0)"/>
       <use xlink:href="#DejaVuSans-65" transform="translate(222.65625 0)"/>
       <use xlink:href="#DejaVuSans-36" transform="translate(284.179688 0)"/>
      </g>
     </g>
    </g>
    <g id="xtick_13">
     <g id="line2d_51">
      <path d="M 423.656973 143.39875 
L 423.656973 19.27875 
" clip-path="url(#pdd0383a103)" style="fill: none; stroke-dasharray: 0.8,1.32; stroke-dashoffset: 0; stroke: #b0b0b0; stroke-opacity: 0.6; stroke-width: 0.8"/>
     </g>
     <g id="line2d_52">
      <g>
       <use xlink:href="#ma357d30211" x="423.656973" y="143.39875" style="stroke: #000000; stroke-width: 0.8"/>
      </g>
     </g>
     <g id="text_24">
      <!-- 1.30e6 -->
      <g transform="translate(413.222598 154.957812) scale(0.06 -0.06)">
       <use xlink:href="#DejaVuSans-31"/>
       <use xlink:href="#DejaVuSans-2e" transform="translate(63.623047 0)"/>
       <use xlink:href="#DejaVuSans-33" transform="translate(95.410156 0)"/>
       <use xlink:href="#DejaVuSans-30" transform="translate(159.033203 0)"/>
       <use xlink:href="#DejaVuSans-65" transform="translate(222.65625 0)"/>
       <use xlink:href="#DejaVuSans-36" transform="translate(284.179688 0)"/>
      </g>
     </g>
    </g>
    <g id="xtick_14">
     <g id="line2d_53">
      <path d="M 458.740801 143.39875 
L 458.740801 19.27875 
" clip-path="url(#pdd0383a103)" style="fill: none; stroke-dasharray: 0.8,1.32; stroke-dashoffset: 0; stroke: #b0b0b0; stroke-opacity: 0.6; stroke-width: 0.8"/>
     </g>
     <g id="line2d_54">
      <g>
       <use xlink:href="#ma357d30211" x="458.740801" y="143.39875" style="stroke: #000000; stroke-width: 0.8"/>
      </g>
     </g>
     <g id="text_25">
      <!-- 1.40e6 -->
      <g transform="translate(448.306426 154.957812) scale(0.06 -0.06)">
       <use xlink:href="#DejaVuSans-31"/>
       <use xlink:href="#DejaVuSans-2e" transform="translate(63.623047 0)"/>
       <use xlink:href="#DejaVuSans-34" transform="translate(95.410156 0)"/>
       <use xlink:href="#DejaVuSans-30" transform="translate(159.033203 0)"/>
       <use xlink:href="#DejaVuSans-65" transform="translate(222.65625 0)"/>
       <use xlink:href="#DejaVuSans-36" transform="translate(284.179688 0)"/>
      </g>
     </g>
    </g>
    <g id="xtick_15">
     <g id="line2d_55">
      <path d="M 493.824629 143.39875 
L 493.824629 19.27875 
" clip-path="url(#pdd0383a103)" style="fill: none; stroke-dasharray: 0.8,1.32; stroke-dashoffset: 0; stroke: #b0b0b0; stroke-opacity: 0.6; stroke-width: 0.8"/>
     </g>
     <g id="line2d_56">
      <g>
       <use xlink:href="#ma357d30211" x="493.824629" y="143.39875" style="stroke: #000000; stroke-width: 0.8"/>
      </g>
     </g>
     <g id="text_26">
      <!-- 1.50e6 -->
      <g transform="translate(483.390254 154.957812) scale(0.06 -0.06)">
       <use xlink:href="#DejaVuSans-31"/>
       <use xlink:href="#DejaVuSans-2e" transform="translate(63.623047 0)"/>
       <use xlink:href="#DejaVuSans-35" transform="translate(95.410156 0)"/>
       <use xlink:href="#DejaVuSans-30" transform="translate(159.033203 0)"/>
       <use xlink:href="#DejaVuSans-65" transform="translate(222.65625 0)"/>
       <use xlink:href="#DejaVuSans-36" transform="translate(284.179688 0)"/>
      </g>
     </g>
    </g>
    <g id="text_27">
     <!-- Time (ns) -->
     <g transform="translate(427.691403 166.284375) scale(0.08 -0.08)">
      <use xlink:href="#DejaVuSans-54"/>
      <use xlink:href="#DejaVuSans-69" transform="translate(57.958984 0)"/>
      <use xlink:href="#DejaVuSans-6d" transform="translate(85.742188 0)"/>
      <use xlink:href="#DejaVuSans-65" transform="translate(183.154297 0)"/>
      <use xlink:href="#DejaVuSans-20" transform="translate(244.677734 0)"/>
      <use xlink:href="#DejaVuSans-28" transform="translate(276.464844 0)"/>
      <use xlink:href="#DejaVuSans-6e" transform="translate(315.478516 0)"/>
      <use xlink:href="#DejaVuSans-73" transform="translate(378.857422 0)"/>
      <use xlink:href="#DejaVuSans-29" transform="translate(430.957031 0)"/>
     </g>
    </g>
   </g>
   <g id="matplotlib.axis_6">
    <g id="ytick_13">
     <g id="line2d_57">
      <path d="M 376.058744 124.635548 
L 516.920313 124.635548 
" clip-path="url(#pdd0383a103)" style="fill: none; stroke-dasharray: 0.8,1.32; stroke-dashoffset: 0; stroke: #b0b0b0; stroke-opacity: 0.6; stroke-width: 0.8"/>
     </g>
     <g id="line2d_58">
      <g>
       <use xlink:href="#m67b912e49c" x="376.058744" y="124.635548" style="stroke: #000000; stroke-width: 0.8"/>
      </g>
     </g>
    </g>
    <g id="ytick_14">
     <g id="line2d_59">
      <path d="M 376.058744 105.796519 
L 516.920313 105.796519 
" clip-path="url(#pdd0383a103)" style="fill: none; stroke-dasharray: 0.8,1.32; stroke-dashoffset: 0; stroke: #b0b0b0; stroke-opacity: 0.6; stroke-width: 0.8"/>
     </g>
     <g id="line2d_60">
      <g>
       <use xlink:href="#m67b912e49c" x="376.058744" y="105.796519" style="stroke: #000000; stroke-width: 0.8"/>
      </g>
     </g>
    </g>
    <g id="ytick_15">
     <g id="line2d_61">
      <path d="M 376.058744 86.95749 
L 516.920313 86.95749 
" clip-path="url(#pdd0383a103)" style="fill: none; stroke-dasharray: 0.8,1.32; stroke-dashoffset: 0; stroke: #b0b0b0; stroke-opacity: 0.6; stroke-width: 0.8"/>
     </g>
     <g id="line2d_62">
      <g>
       <use xlink:href="#m67b912e49c" x="376.058744" y="86.95749" style="stroke: #000000; stroke-width: 0.8"/>
      </g>
     </g>
    </g>
    <g id="ytick_16">
     <g id="line2d_63">
      <path d="M 376.058744 68.118461 
L 516.920313 68.118461 
" clip-path="url(#pdd0383a103)" style="fill: none; stroke-dasharray: 0.8,1.32; stroke-dashoffset: 0; stroke: #b0b0b0; stroke-opacity: 0.6; stroke-width: 0.8"/>
     </g>
     <g id="line2d_64">
      <g>
       <use xlink:href="#m67b912e49c" x="376.058744" y="68.118461" style="stroke: #000000; stroke-width: 0.8"/>
      </g>
     </g>
    </g>
    <g id="ytick_17">
     <g id="line2d_65">
      <path d="M 376.058744 49.279433 
L 516.920313 49.279433 
" clip-path="url(#pdd0383a103)" style="fill: none; stroke-dasharray: 0.8,1.32; stroke-dashoffset: 0; stroke: #b0b0b0; stroke-opacity: 0.6; stroke-width: 0.8"/>
     </g>
     <g id="line2d_66">
      <g>
       <use xlink:href="#m67b912e49c" x="376.058744" y="49.279433" style="stroke: #000000; stroke-width: 0.8"/>
      </g>
     </g>
    </g>
    <g id="ytick_18">
     <g id="line2d_67">
      <path d="M 376.058744 30.440404 
L 516.920313 30.440404 
" clip-path="url(#pdd0383a103)" style="fill: none; stroke-dasharray: 0.8,1.32; stroke-dashoffset: 0; stroke: #b0b0b0; stroke-opacity: 0.6; stroke-width: 0.8"/>
     </g>
     <g id="line2d_68">
      <g>
       <use xlink:href="#m67b912e49c" x="376.058744" y="30.440404" style="stroke: #000000; stroke-width: 0.8"/>
      </g>
     </g>
    </g>
   </g>
   <g id="line2d_69">
    <path d="M 376.897247 29.404257 
L 377.812935 29.404257 
L 377.812935 28.584759 
L 378.728623 28.584759 
L 378.728623 104.939343 
L 379.644311 104.939343 
L 379.644311 27.0117 
L 380.559999 27.0117 
L 380.559999 137.314215 
L 381.475687 137.314215 
L 381.475687 34.019819 
L 382.391375 34.019819 
L 382.391375 77.84882 
L 383.307062 77.84882 
L 383.307062 42.73287 
L 384.22275 42.73287 
L 384.22275 55.675283 
L 385.138438 55.675283 
L 385.138438 42.525641 
L 386.054126 42.525641 
L 386.054126 45.398593 
L 386.969814 45.398593 
L 386.969814 39.765723 
L 387.885502 39.765723 
L 387.885502 39.558494 
L 388.80119 39.558494 
L 388.80119 36.629025 
L 389.716878 36.629025 
L 389.716878 35.583459 
L 390.632566 35.583459 
L 390.632566 33.727814 
L 391.548254 33.727814 
L 391.548254 32.540955 
L 392.463942 32.540955 
L 392.463942 31.156287 
L 393.379629 31.156287 
L 393.379629 30.025945 
L 394.295317 30.025945 
L 394.295317 28.895603 
L 395.211005 28.895603 
L 395.211005 27.878296 
L 396.126693 27.878296 
L 396.126693 104.063329 
L 397.042381 104.063329 
L 397.042381 25.984973 
L 397.958069 25.984973 
L 397.958069 136.165034 
L 398.873757 136.165034 
L 398.873757 32.767024 
L 399.789445 32.767024 
L 399.789445 76.501829 
L 400.705133 76.501829 
L 400.705133 41.319943 
L 401.620821 41.319943 
L 401.620821 54.187 
L 402.536509 54.187 
L 402.536509 40.99026 
L 403.452196 40.99026 
L 403.452196 43.806695 
L 404.367884 43.806695 
L 404.367884 38.145566 
L 405.283572 38.145566 
L 405.283572 37.89124 
L 406.19926 37.89124 
L 406.19926 34.952351 
L 407.114948 34.952351 
L 407.114948 33.887946 
L 408.030636 33.887946 
L 408.030636 32.004043 
L 408.946324 32.004043 
L 408.946324 30.817184 
L 409.862012 30.817184 
L 409.862012 29.413677 
L 410.7777 29.413677 
L 410.7777 28.302174 
L 411.693388 28.302174 
L 411.693388 104.317656 
L 412.609075 104.317656 
L 412.609075 26.145105 
L 413.524763 26.145105 
L 413.524763 136.212131 
L 414.440451 136.212131 
L 414.440451 32.729346 
L 415.356139 32.729346 
L 415.356139 76.398215 
L 416.271827 76.398215 
L 416.271827 41.150392 
L 417.187515 41.150392 
L 417.187515 53.960931 
L 418.103203 53.960931 
L 418.103203 40.707674 
L 419.018891 40.707674 
L 419.018891 43.477012 
L 419.934579 43.477012 
L 419.934579 37.768786 
L 420.850267 37.768786 
L 420.850267 37.4862 
L 421.765955 37.4862 
L 421.765955 34.500214 
L 422.681642 34.500214 
L 422.681642 33.407551 
L 423.59733 33.407551 
L 423.59733 31.504809 
L 424.513018 31.504809 
L 424.513018 30.289691 
L 425.428706 30.289691 
L 425.428706 28.867345 
L 426.344394 28.867345 
L 426.344394 27.737003 
L 427.260082 27.737003 
L 427.260082 103.733646 
L 428.17577 103.733646 
L 428.17577 25.551676 
L 429.091458 25.551676 
L 429.091458 135.609283 
L 430.007146 135.609283 
L 430.007146 32.117077 
L 430.922834 32.117077 
L 430.922834 75.767107 
L 431.838522 75.767107 
L 431.838522 40.509865 
L 432.754209 40.509865 
L 432.754209 53.310985 
L 433.669897 53.310985 
L 433.669897 40.057728 
L 434.585585 40.057728 
L 434.585585 42.808226 
L 435.501273 42.808226 
L 435.501273 37.10942 
L 436.416961 37.10942 
L 436.416961 36.807995 
L 437.332649 36.807995 
L 437.332649 33.831429 
L 438.248337 33.831429 
L 438.248337 32.729346 
L 439.164025 32.729346 
L 439.164025 30.826604 
L 440.079713 30.826604 
L 440.079713 29.611486 
L 440.995401 29.611486 
L 440.995401 28.198559 
L 441.911089 28.198559 
L 441.911089 104.22346 
L 442.826776 104.22346 
L 442.826776 25.900198 
L 443.742464 25.900198 
L 443.742464 135.929546 
L 444.658152 135.929546 
L 444.658152 32.361985 
L 445.57384 32.361985 
L 445.57384 75.983756 
L 446.489528 75.983756 
L 446.489528 40.660577 
L 447.405216 40.660577 
L 447.405216 53.442858 
L 448.320904 53.442858 
L 448.320904 40.123665 
L 449.236592 40.123665 
L 449.236592 42.874163 
L 450.15228 42.874163 
L 450.15228 37.118839 
L 451.067968 37.118839 
L 451.067968 36.807995 
L 451.983656 36.807995 
L 451.983656 33.80317 
L 452.899343 33.80317 
L 452.899343 32.691668 
L 453.815031 32.691668 
L 453.815031 30.760667 
L 454.730719 30.760667 
L 454.730719 29.53613 
L 455.646407 29.53613 
L 455.646407 28.104364 
L 456.562095 28.104364 
L 456.562095 104.119846 
L 457.477783 104.119846 
L 457.477783 25.787164 
L 458.393471 25.787164 
L 458.393471 135.797673 
L 459.309159 135.797673 
L 459.309159 32.220692 
L 460.224847 32.220692 
L 460.224847 75.823624 
L 461.140535 75.823624 
L 461.140535 40.500445 
L 462.056222 40.500445 
L 462.056222 53.254468 
L 462.97191 53.254468 
L 462.97191 39.944694 
L 463.887598 39.944694 
L 463.887598 42.676353 
L 464.803286 42.676353 
L 464.803286 36.930449 
L 465.718974 36.930449 
L 465.718974 36.600766 
L 466.634662 36.600766 
L 466.634662 33.605361 
L 467.55035 33.605361 
L 467.55035 32.475019 
L 468.466038 32.475019 
L 468.466038 30.553438 
L 469.381726 30.553438 
L 469.381726 29.319481 
L 470.297414 29.319481 
L 470.297414 27.878296 
L 471.213102 27.878296 
L 471.213102 103.893777 
L 472.128789 103.893777 
L 472.128789 25.551676 
L 473.044477 25.551676 
L 473.044477 135.562185 
L 473.960165 135.562185 
L 473.960165 31.985204 
L 474.875853 31.985204 
L 474.875853 75.578717 
L 475.791541 75.578717 
L 475.791541 40.255538 
L 476.707229 40.255538 
L 476.707229 53.00956 
L 477.622917 53.00956 
L 477.622917 39.699786 
L 478.538605 39.699786 
L 478.538605 42.431446 
L 479.454293 42.431446 
L 479.454293 36.666703 
L 480.369981 36.666703 
L 480.369981 36.355859 
L 481.285669 36.355859 
L 481.285669 33.332195 
L 482.201356 33.332195 
L 482.201356 32.211272 
L 483.117044 32.211272 
L 483.117044 30.280272 
L 484.032732 30.280272 
L 484.032732 29.046316 
L 484.94842 29.046316 
L 484.94842 27.59571 
L 485.864108 27.59571 
L 485.864108 103.601772 
L 486.779796 103.601772 
L 486.779796 25.259671 
L 487.695484 25.259671 
L 487.695484 135.26076 
L 488.611172 135.26076 
L 488.611172 31.67436 
L 489.52686 31.67436 
L 489.52686 75.267873 
L 490.442548 75.267873 
L 490.442548 39.935274 
L 491.358236 39.935274 
L 491.358236 52.698716 
L 492.273923 52.698716 
L 492.273923 39.379523 
L 493.189611 39.379523 
L 493.189611 42.101763 
L 494.105299 42.101763 
L 494.105299 36.346439 
L 495.020987 36.346439 
L 495.020987 36.026176 
L 495.936675 36.026176 
L 495.936675 33.002512 
L 496.852363 33.002512 
L 496.852363 31.881589 
L 497.768051 31.881589 
L 497.768051 29.950589 
L 498.683739 29.950589 
L 498.683739 28.707213 
L 499.599427 28.707213 
L 499.599427 27.256608 
L 500.515115 27.256608 
L 500.515115 103.272089 
L 501.430802 103.272089 
L 501.430802 24.920568 
L 502.34649 24.920568 
L 502.34649 134.931077 
L 503.262178 134.931077 
L 503.262178 31.335258 
L 504.177866 31.335258 
L 504.177866 74.93819 
L 505.093554 74.93819 
L 505.093554 39.596172 
L 506.009242 39.596172 
L 506.009242 52.359614 
L 506.92493 52.359614 
L 506.92493 39.04042 
L 507.840618 39.04042 
L 507.840618 41.76266 
L 508.756306 41.76266 
L 508.756306 36.007337 
L 509.671994 36.007337 
L 509.671994 35.687073 
L 510.587682 35.687073 
L 510.587682 32.663409 
L 511.503369 32.663409 
L 511.503369 31.542487 
L 512.419057 31.542487 
L 512.419057 29.611486 
L 513.334745 29.611486 
L 513.334745 28.36811 
L 514.250433 28.36811 
L 514.250433 104.082168 
L 515.166121 104.082168 
L 515.166121 25.758905 
L 516.081809 25.758905 
L 516.081809 135.628122 
L 516.081809 135.628122 
" clip-path="url(#pdd0383a103)" style="fill: none; stroke: #0072b2; stroke-width: 0.8; stroke-linecap: square"/>
   </g>
   <g id="patch_16">
    <path d="M 376.058744 143.39875 
L 376.058744 19.27875 
" style="fill: none; stroke: #000000; stroke-width: 0.8; stroke-linejoin: miter; stroke-linecap: square"/>
   </g>
   <g id="patch_17">
    <path d="M 516.920313 143.39875 
L 516.920313 19.27875 
" style="fill: none; stroke: #000000; stroke-width: 0.8; stroke-linejoin: miter; stroke-linecap: square"/>
   </g>
   <g id="patch_18">
    <path d="M 376.058744 143.39875 
L 516.920313 143.39875 
" style="fill: none; stroke: #000000; stroke-width: 0.8; stroke-linejoin: miter; stroke-linecap: square"/>
   </g>
   <g id="patch_19">
    <path d="M 376.058744 19.27875 
L 516.920313 19.27875 
" style="fill: none; stroke: #000000; stroke-width: 0.8; stroke-linejoin: miter; stroke-linecap: square"/>
   </g>
   <g id="text_28">
    <!-- recovery -->
    <g style="fill: #009e73" transform="translate(428.986403 13.27875) scale(0.08 -0.08)">
     <defs>
      <path id="DejaVuSans-63" d="M 3122 3366 
L 3122 2828 
Q 2878 2963 2633 3030 
Q 2388 3097 2138 3097 
Q 1578 3097 1268 2742 
Q 959 2388 959 1747 
Q 959 1106 1268 751 
Q 1578 397 2138 397 
Q 2388 397 2633 464 
Q 2878 531 3122 666 
L 3122 134 
Q 2881 22 2623 -34 
Q 2366 -91 2075 -91 
Q 1284 -91 818 406 
Q 353 903 353 1747 
Q 353 2603 823 3093 
Q 1294 3584 2113 3584 
Q 2378 3584 2631 3529 
Q 2884 3475 3122 3366 
z
" transform="scale(0.015625)"/>
      <path id="DejaVuSans-76" d="M 191 3500 
L 800 3500 
L 1894 563 
L 2988 3500 
L 3597 3500 
L 2284 0 
L 1503 0 
L 191 3500 
z
" transform="scale(0.015625)"/>
      <path id="DejaVuSans-79" d="M 2059 -325 
Q 1816 -950 1584 -1140 
Q 1353 -1331 966 -1331 
L 506 -1331 
L 506 -850 
L 844 -850 
Q 1081 -850 1212 -737 
Q 1344 -625 1503 -206 
L 1606 56 
L 191 3500 
L 800 3500 
L 1894 763 
L 2988 3500 
L 3597 3500 
L 2059 -325 
z
" transform="scale(0.015625)"/>
     </defs>
     <use xlink:href="#DejaVuSans-72"/>
     <use xlink:href="#DejaVuSans-65" transform="translate(38.863281 0)"/>
     <use xlink:href="#DejaVuSans-63" transform="translate(100.386719 0)"/>
     <use xlink:href="#DejaVuSans-6f" transform="translate(155.367188 0)"/>
     <use xlink:href="#DejaVuSans-76" transform="translate(216.548828 0)"/>
     <use xlink:href="#DejaVuSans-65" transform="translate(275.728516 0)"/>
     <use xlink:href="#DejaVuSans-72" transform="translate(337.251953 0)"/>
     <use xlink:href="#DejaVuSans-79" transform="translate(378.365234 0)"/>
    </g>
   </g>
  </g>
 </g>
 <defs>
  <clipPath id="pb837be1409">
   <rect x="46.240313" y="19.27875" width="140.861569" height="124.12"/>
  </clipPath>
  <clipPath id="pb363b15b9b">
   <rect x="211.149528" y="19.27875" width="140.861569" height="124.12"/>
  </clipPath>
  <clipPath id="pdd0383a103">
   <rect x="376.058744" y="19.27875" width="140.861569" height="124.12"/>
  </clipPath>
 </defs>
</svg>
