<?xml version="1.0" encoding="utf-8" standalone="no"?>
<!DOCTYPE svg PUBLIC "-//W3C//DTD SVG 1.1//EN"
  "http://www.w3.org/Graphics/SVG/1.1/DTD/svg11.dtd">
<svg xmlns:xlink="http://www.w3.org/1999/xlink" width="522.12875pt" height="272.571875pt" viewBox="0 0 522.12875 272.571875" xmlns="http://www.w3.org/2000/svg" version="1.1">
 <metadata>
  <rdf:RDF xmlns:dc="http://purl.org/dc/elements/1.1/" xmlns:cc="http://creativecommons.org/ns#" xmlns:rdf="http://www.w3.org/1999/02/22-rdf-syntax-ns#">
   <cc:Work>
    <dc:type rdf:resource="http://purl.org/dc/dcmitype/StillImage"/>
    <dc:date>2026-05-08T07:12:14.406711</dc:date>
    <dc:format>image/svg+xml</dc:format>
    <dc:creator>
     <cc:Agent>
      <dc:title>Matplotlib v3.10.8, https://matplotlib.org/</dc:title>
     </cc:Agent>
    </dc:creator>
   </cc:Work>
  </rdf:RDF>
 </metadata>
 <defs>
  <style type="text/css">*{stroke-linejoin: round; stroke-linecap: butt}</style>
 </defs>
 <g id="figure_1">
  <g id="patch_1">
   <path d="M 0 272.571875 
L 522.12875 272.571875 
L 522.12875 0 
L 0 0 
z
" style="fill: #ffffff"/>
  </g>
  <g id="axes_1">
   <g id="patch_2">
    <path d="M 42.53875 233.08 
L 514.92875 233.08 
L 514.92875 7.2 
L 42.53875 7.2 
z
" style="fill: #ffffff"/>
   </g>
   <g id="matplotlib.axis_1">
    <g id="xtick_1">
     <g id="line2d_1">
      <path d="M 64.011023 233.08 
L 64.011023 7.2 
" clip-path="url(#p5a67d11855)" style="fill: none; stroke-dasharray: 0.8,1.32; stroke-dashoffset: 0; stroke: #b0b0b0; stroke-opacity: 0.6; stroke-width: 0.8"/>
     </g>
     <g id="line2d_2">
      <defs>
       <path id="m5d28cc8458" d="M 0 0 
L 0 3.5 
" style="stroke: #000000; stroke-width: 0.8"/>
      </defs>
      <g>
       <use xlink:href="#m5d28cc8458" x="64.011023" y="233.08" style="stroke: #000000; stroke-width: 0.8"/>
      </g>
     </g>
     <g id="text_1">
      <!-- 0 -->
      <g transform="translate(60.829773 247.678437) scale(0.1 -0.1)">
       <defs>
        <path id="DejaVuSans-30" d="M 2034 4250 
Q 1547 4250 1301 3770 
Q 1056 3291 1056 2328 
Q 1056 1369 1301 889 
Q 1547 409 2034 409 
Q 2525 409 2770 889 
Q 3016 1369 3016 2328 
Q 3016 3291 2770 3770 
Q 2525 4250 2034 4250 
z
M 2034 4750 
Q 2819 4750 3233 4129 
Q 3647 3509 3647 2328 
Q 3647 1150 3233 529 
Q 2819 -91 2034 -91 
Q 1250 -91 836 529 
Q 422 1150 422 2328 
Q 422 3509 836 4129 
Q 1250 4750 2034 4750 
z
" transform="scale(0.015625)"/>
       </defs>
       <use xlink:href="#DejaVuSans-30"/>
      </g>
     </g>
    </g>
    <g id="xtick_2">
     <g id="line2d_3">
      <path d="M 117.961457 233.08 
L 117.961457 7.2 
" clip-path="url(#p5a67d11855)" style="fill: none; stroke-dasharray: 0.8,1.32; stroke-dashoffset: 0; stroke: #b0b0b0; stroke-opacity: 0.6; stroke-width: 0.8"/>
     </g>
     <g id="line2d_4">
      <g>
       <use xlink:href="#m5d28cc8458" x="117.961457" y="233.08" style="stroke: #000000; stroke-width: 0.8"/>
      </g>
     </g>
     <g id="text_2">
      <!-- 25 -->
      <g transform="translate(111.598957 247.678437) scale(0.1 -0.1)">
       <defs>
        <path id="DejaVuSans-32" d="M 1228 531 
L 3431 531 
L 3431 0 
L 469 0 
L 469 531 
Q 828 903 1448 1529 
Q 2069 2156 2228 2338 
Q 2531 2678 2651 2914 
Q 2772 3150 2772 3378 
Q 2772 3750 2511 3984 
Q 2250 4219 1831 4219 
Q 1534 4219 1204 4116 
Q 875 4013 500 3803 
L 500 4441 
Q 881 4594 1212 4672 
Q 1544 4750 1819 4750 
Q 2544 4750 2975 4387 
Q 3406 4025 3406 3419 
Q 3406 3131 3298 2873 
Q 3191 2616 2906 2266 
Q 2828 2175 2409 1742 
Q 1991 1309 1228 531 
z
" transform="scale(0.015625)"/>
        <path id="DejaVuSans-35" d="M 691 4666 
L 3169 4666 
L 3169 4134 
L 1269 4134 
L 1269 2991 
Q 1406 3038 1543 3061 
Q 1681 3084 1819 3084 
Q 2600 3084 3056 2656 
Q 3513 2228 3513 1497 
Q 3513 744 3044 326 
Q 2575 -91 1722 -91 
Q 1428 -91 1123 -41 
Q 819 9 494 109 
L 494 744 
Q 775 591 1075 516 
Q 1375 441 1709 441 
Q 2250 441 2565 725 
Q 2881 1009 2881 1497 
Q 2881 1984 2565 2268 
Q 2250 2553 1709 2553 
Q 1456 2553 1204 2497 
Q 953 2441 691 2322 
L 691 4666 
z
" transform="scale(0.015625)"/>
       </defs>
       <use xlink:href="#DejaVuSans-32"/>
       <use xlink:href="#DejaVuSans-35" transform="translate(63.623047 0)"/>
      </g>
     </g>
    </g>
    <g id="xtick_3">
     <g id="line2d_5">
      <path d="M 171.911891 233.08 
L 171.911891 7.2 
" clip-path="url(#p5a67d11855)" style="fill: none; stroke-dasharray: 0.8,1.32; stroke-dashoffset: 0; stroke: #b0b0b0; stroke-opacity: 0.6; stroke-width: 0.8"/>
     </g>
     <g id="line2d_6">
      <g>
       <use xlink:href="#m5d28cc8458" x="171.911891" y="233.08" style="stroke: #000000; stroke-width: 0.8"/>
      </g>
     </g>
     <g id="text_3">
      <!-- 50 -->
      <g transform="translate(165.549391 247.678437) scale(0.1 -0.1)">
       <use xlink:href="#DejaVuSans-35"/>
       <use xlink:href="#DejaVuSans-30" transform="translate(63.623047 0)"/>
      </g>
     </g>
    </g>
    <g id="xtick_4">
     <g id="line2d_7">
      <path d="M 225.862325 233.08 
L 225.862325 7.2 
" clip-path="url(#p5a67d11855)" style="fill: none; stroke-dasharray: 0.8,1.32; stroke-dashoffset: 0; stroke: #b0b0b0; stroke-opacity: 0.6; stroke-width: 0.8"/>
     </g>
     <g id="line2d_8">
      <g>
       <use xlink:href="#m5d28cc8458" x="225.862325" y="233.08" style="stroke: #000000; stroke-width: 0.8"/>
      </g>
     </g>
     <g id="text_4">
      <!-- 75 -->
      <g transform="translate(219.499825 247.678437) scale(0.1 -0.1)">
       <defs>
        <path id="DejaVuSans-37" d="M 525 4666 
L 3525 4666 
L 3525 4397 
L 1831 0 
L 1172 0 
L 2766 4134 
L 525 4134 
L 525 4666 
z
" transform="scale(0.015625)"/>
       </defs>
       <use xlink:href="#DejaVuSans-37"/>
       <use xlink:href="#DejaVuSans-35" transform="translate(63.623047 0)"/>
      </g>
     </g>
    </g>
    <g id="xtick_5">
     <g id="line2d_9">
      <path d="M 279.812759 233.08 
L 279.812759 7.2 
" clip-path="url(#p5a67d11855)" style="fill: none; stroke-dasharray: 0.8,1.32; stroke-dashoffset: 0; stroke: #b0b0b0; stroke-opacity: 0.6; stroke-width: 0.8"/>
     </g>
     <g id="line2d_10">
      <g>
       <use xlink:href="#m5d28cc8458" x="279.812759" y="233.08" style="stroke: #000000; stroke-width: 0.8"/>
      </g>
     </g>
     <g id="text_5">
      <!-- 100 -->
      <g transform="translate(270.269009 247.678437) scale(0.1 -0.1)">
       <defs>
        <path id="DejaVuSans-31" d="M 794 531 
L 1825 531 
L 1825 4091 
L 703 3866 
L 703 4441 
L 1819 4666 
L 2450 4666 
L 2450 531 
L 3481 531 
L 3481 0 
L 794 0 
L 794 531 
z
" transform="scale(0.015625)"/>
       </defs>
       <use xlink:href="#DejaVuSans-31"/>
       <use xlink:href="#DejaVuSans-30" transform="translate(63.623047 0)"/>
       <use xlink:href="#DejaVuSans-30" transform="translate(127.246094 0)"/>
      </g>
     </g>
    </g>
    <g id="xtick_6">
     <g id="line2d_11">
      <path d="M 333.763193 233.08 
L 333.763193 7.2 
" clip-path="url(#p5a67d11855)" style="fill: none; stroke-dasharray: 0.8,1.32; stroke-dashoffset: 0; stroke: #b0b0b0; stroke-opacity: 0.6; stroke-width: 0.8"/>
     </g>
     <g id="line2d_12">
      <g>
       <use xlink:href="#m5d28cc8458" x="333.763193" y="233.08" style="stroke: #000000; stroke-width: 0.8"/>
      </g>
     </g>
     <g id="text_6">
      <!-- 125 -->
      <g transform="translate(324.219443 247.678437) scale(0.1 -0.1)">
       <use xlink:href="#DejaVuSans-31"/>
       <use xlink:href="#DejaVuSans-32" transform="translate(63.623047 0)"/>
       <use xlink:href="#DejaVuSans-35" transform="translate(127.246094 0)"/>
      </g>
     </g>
    </g>
    <g id="xtick_7">
     <g id="line2d_13">
      <path d="M 387.713627 233.08 
L 387.713627 7.2 
" clip-path="url(#p5a67d11855)" style="fill: none; stroke-dasharray: 0.8,1.32; stroke-dashoffset: 0; stroke: #b0b0b0; stroke-opacity: 0.6; stroke-width: 0.8"/>
     </g>
     <g id="line2d_14">
      <g>
       <use xlink:href="#m5d28cc8458" x="387.713627" y="233.08" style="stroke: #000000; stroke-width: 0.8"/>
      </g>
     </g>
     <g id="text_7">
      <!-- 150 -->
      <g transform="translate(378.169877 247.678437) scale(0.1 -0.1)">
       <use xlink:href="#DejaVuSans-31"/>
       <use xlink:href="#DejaVuSans-35" transform="translate(63.623047 0)"/>
       <use xlink:href="#DejaVuSans-30" transform="translate(127.246094 0)"/>
      </g>
     </g>
    </g>
    <g id="xtick_8">
     <g id="line2d_15">
      <path d="M 441.664061 233.08 
L 441.664061 7.2 
" clip-path="url(#p5a67d11855)" style="fill: none; stroke-dasharray: 0.8,1.32; stroke-dashoffset: 0; stroke: #b0b0b0; stroke-opacity: 0.6; stroke-width: 0.8"/>
     </g>
     <g id="line2d_16">
      <g>
       <use xlink:href="#m5d28cc8458" x="441.664061" y="233.08" style="stroke: #000000; stroke-width: 0.8"/>
      </g>
     </g>
     <g id="text_8">
      <!-- 175 -->
      <g transform="translate(432.120311 247.678437) scale(0.1 -0.1)">
       <use xlink:href="#DejaVuSans-31"/>
       <use xlink:href="#DejaVuSans-37" transform="translate(63.623047 0)"/>
       <use xlink:href="#DejaVuSans-35" transform="translate(127.246094 0)"/>
      </g>
     </g>
    </g>
    <g id="xtick_9">
     <g id="line2d_17">
      <path d="M 495.614495 233.08 
L 495.614495 7.2 
" clip-path="url(#p5a67d11855)" style="fill: none; stroke-dasharray: 0.8,1.32; stroke-dashoffset: 0; stroke: #b0b0b0; stroke-opacity: 0.6; stroke-width: 0.8"/>
     </g>
     <g id="line2d_18">
      <g>
       <use xlink:href="#m5d28cc8458" x="495.614495" y="233.08" style="stroke: #000000; stroke-width: 0.8"/>
      </g>
     </g>
     <g id="text_9">
      <!-- 200 -->
      <g transform="translate(486.070745 247.678437) scale(0.1 -0.1)">
       <use xlink:href="#DejaVuSans-32"/>
       <use xlink:href="#DejaVuSans-30" transform="translate(63.623047 0)"/>
       <use xlink:href="#DejaVuSans-30" transform="translate(127.246094 0)"/>
      </g>
     </g>
    </g>
    <g id="text_10">
     <!-- Time Step -->
     <g transform="translate(248.484375 262.87625) scale(0.12 -0.12)">
      <defs>
       <path id="DejaVuSans-54" d="M -19 4666 
L 3928 4666 
L 3928 4134 
L 2272 4134 
L 2272 0 
L 1638 0 
L 1638 4134 
L -19 4134 
L -19 4666 
z
" transform="scale(0.015625)"/>
       <path id="DejaVuSans-69" d="M 603 3500 
L 1178 3500 
L 1178 0 
L 603 0 
L 603 3500 
z
M 603 4863 
L 1178 4863 
L 1178 4134 
L 603 4134 
L 603 4863 
z
" transform="scale(0.015625)"/>
       <path id="DejaVuSans-6d" d="M 3328 2828 
Q 3544 3216 3844 3400 
Q 4144 3584 4550 3584 
Q 5097 3584 5394 3201 
Q 5691 2819 5691 2113 
L 5691 0 
L 5113 0 
L 5113 2094 
Q 5113 2597 4934 2840 
Q 4756 3084 4391 3084 
Q 3944 3084 3684 2787 
Q 3425 2491 3425 1978 
L 3425 0 
L 2847 0 
L 2847 2094 
Q 2847 2600 2669 2842 
Q 2491 3084 2119 3084 
Q 1678 3084 1418 2786 
Q 1159 2488 1159 1978 
L 1159 0 
L 581 0 
L 581 3500 
L 1159 3500 
L 1159 2956 
Q 1356 3278 1631 3431 
Q 1906 3584 2284 3584 
Q 2666 3584 2933 3390 
Q 3200 3197 3328 2828 
z
" transform="scale(0.015625)"/>
       <path id="DejaVuSans-65" d="M 3597 1894 
L 3597 1613 
L 953 1613 
Q 991 1019 1311 708 
Q 1631 397 2203 397 
Q 2534 397 2845 478 
Q 3156 559 3463 722 
L 3463 178 
Q 3153 47 2828 -22 
Q 2503 -91 2169 -91 
Q 1331 -91 842 396 
Q 353 884 353 1716 
Q 353 2575 817 3079 
Q 1281 3584 2069 3584 
Q 2775 3584 3186 3129 
Q 3597 2675 3597 1894 
z
M 3022 2063 
Q 3016 2534 2758 2815 
Q 2500 3097 2075 3097 
Q 1594 3097 1305 2825 
Q 1016 2553 972 2059 
L 3022 2063 
z
" transform="scale(0.015625)"/>
       <path id="DejaVuSans-20" transform="scale(0.015625)"/>
       <path id="DejaVuSans-53" d="M 3425 4513 
L 3425 3897 
Q 3066 4069 2747 4153 
Q 2428 4238 2131 4238 
Q 1616 4238 1336 4038 
Q 1056 3838 1056 3469 
Q 1056 3159 1242 3001 
Q 1428 2844 1947 2747 
L 2328 2669 
Q 3034 2534 3370 2195 
Q 3706 1856 3706 1288 
Q 3706 609 3251 259 
Q 2797 -91 1919 -91 
Q 1588 -91 1214 -16 
Q 841 59 441 206 
L 441 856 
Q 825 641 1194 531 
Q 1563 422 1919 422 
Q 2459 422 2753 634 
Q 3047 847 3047 1241 
Q 3047 1584 2836 1778 
Q 2625 1972 2144 2069 
L 1759 2144 
Q 1053 2284 737 2584 
Q 422 2884 422 3419 
Q 422 4038 858 4394 
Q 1294 4750 2059 4750 
Q 2388 4750 2728 4690 
Q 3069 4631 3425 4513 
z
" transform="scale(0.015625)"/>
       <path id="DejaVuSans-74" d="M 1172 4494 
L 1172 3500 
L 2356 3500 
L 2356 3053 
L 1172 3053 
L 1172 1153 
Q 1172 725 1289 603 
Q 1406 481 1766 481 
L 2356 481 
L 2356 0 
L 1766 0 
Q 1100 0 847 248 
Q 594 497 594 1153 
L 594 3053 
L 172 3053 
L 172 3500 
L 594 3500 
L 594 4494 
L 1172 4494 
z
" transform="scale(0.015625)"/>
       <path id="DejaVuSans-70" d="M 1159 525 
L 1159 -1331 
L 581 -1331 
L 581 3500 
L 1159 3500 
L 1159 2969 
Q 1341 3281 1617 3432 
Q 1894 3584 2278 3584 
Q 2916 3584 3314 3078 
Q 3713 2572 3713 1747 
Q 3713 922 3314 415 
Q 2916 -91 2278 -91 
Q 1894 -91 1617 61 
Q 1341 213 1159 525 
z
M 3116 1747 
Q 3116 2381 2855 2742 
Q 2594 3103 2138 3103 
Q 1681 3103 1420 2742 
Q 1159 2381 1159 1747 
Q 1159 1113 1420 752 
Q 1681 391 2138 391 
Q 2594 391 2855 752 
Q 3116 1113 3116 1747 
z
" transform="scale(0.015625)"/>
      </defs>
      <use xlink:href="#DejaVuSans-54"/>
      <use xlink:href="#DejaVuSans-69" transform="translate(57.958984 0)"/>
      <use xlink:href="#DejaVuSans-6d" transform="translate(85.742188 0)"/>
      <use xlink:href="#DejaVuSans-65" transform="translate(183.154297 0)"/>
      <use xlink:href="#DejaVuSans-20" transform="translate(244.677734 0)"/>
      <use xlink:href="#DejaVuSans-53" transform="translate(276.464844 0)"/>
      <use xlink:href="#DejaVuSans-74" transform="translate(339.941406 0)"/>
      <use xlink:href="#DejaVuSans-65" transform="translate(379.150391 0)"/>
      <use xlink:href="#DejaVuSans-70" transform="translate(440.673828 0)"/>
     </g>
    </g>
   </g>
   <g id="matplotlib.axis_2">
    <g id="ytick_1">
     <g id="line2d_19">
      <path d="M 42.53875 222.812854 
L 514.92875 222.812854 
" clip-path="url(#p5a67d11855)" style="fill: none; stroke-dasharray: 0.8,1.32; stroke-dashoffset: 0; stroke: #b0b0b0; stroke-opacity: 0.6; stroke-width: 0.8"/>
     </g>
     <g id="line2d_20">
      <defs>
       <path id="m980f2f5ab0" d="M 0 0 
L -3.5 0 
" style="stroke: #000000; stroke-width: 0.8"/>
      </defs>
      <g>
       <use xlink:href="#m980f2f5ab0" x="42.53875" y="222.812854" style="stroke: #000000; stroke-width: 0.8"/>
      </g>
     </g>
     <g id="text_11">
      <!-- 0 -->
      <g transform="translate(29.17625 226.612073) scale(0.1 -0.1)">
       <use xlink:href="#DejaVuSans-30"/>
      </g>
     </g>
    </g>
    <g id="ytick_2">
     <g id="line2d_21">
      <path d="M 42.53875 181.390883 
L 514.92875 181.390883 
" clip-path="url(#p5a67d11855)" style="fill: none; stroke-dasharray: 0.8,1.32; stroke-dashoffset: 0; stroke: #b0b0b0; stroke-opacity: 0.6; stroke-width: 0.8"/>
     </g>
     <g id="line2d_22">
      <g>
       <use xlink:href="#m980f2f5ab0" x="42.53875" y="181.390883" style="stroke: #000000; stroke-width: 0.8"/>
      </g>
     </g>
     <g id="text_12">
      <!-- 2 -->
      <g transform="translate(29.17625 185.190101) scale(0.1 -0.1)">
       <use xlink:href="#DejaVuSans-32"/>
      </g>
     </g>
    </g>
    <g id="ytick_3">
     <g id="line2d_23">
      <path d="M 42.53875 139.968911 
L 514.92875 139.968911 
" clip-path="url(#p5a67d11855)" style="fill: none; stroke-dasharray: 0.8,1.32; stroke-dashoffset: 0; stroke: #b0b0b0; stroke-opacity: 0.6; stroke-width: 0.8"/>
     </g>
     <g id="line2d_24">
      <g>
       <use xlink:href="#m980f2f5ab0" x="42.53875" y="139.968911" style="stroke: #000000; stroke-width: 0.8"/>
      </g>
     </g>
     <g id="text_13">
      <!-- 4 -->
      <g transform="translate(29.17625 143.76813) scale(0.1 -0.1)">
       <defs>
        <path id="DejaVuSans-34" d="M 2419 4116 
L 825 1625 
L 2419 1625 
L 2419 4116 
z
M 2253 4666 
L 3047 4666 
L 3047 1625 
L 3713 1625 
L 3713 1100 
L 3047 1100 
L 3047 0 
L 2419 0 
L 2419 1100 
L 313 1100 
L 313 1709 
L 2253 4666 
z
" transform="scale(0.015625)"/>
       </defs>
       <use xlink:href="#DejaVuSans-34"/>
      </g>
     </g>
    </g>
    <g id="ytick_4">
     <g id="line2d_25">
      <path d="M 42.53875 98.54694 
L 514.92875 98.54694 
" clip-path="url(#p5a67d11855)" style="fill: none; stroke-dasharray: 0.8,1.32; stroke-dashoffset: 0; stroke: #b0b0b0; stroke-opacity: 0.6; stroke-width: 0.8"/>
     </g>
     <g id="line2d_26">
      <g>
       <use xlink:href="#m980f2f5ab0" x="42.53875" y="98.54694" style="stroke: #000000; stroke-width: 0.8"/>
      </g>
     </g>
     <g id="text_14">
      <!-- 6 -->
      <g transform="translate(29.17625 102.346159) scale(0.1 -0.1)">
       <defs>
        <path id="DejaVuSans-36" d="M 2113 2584 
Q 1688 2584 1439 2293 
Q 1191 2003 1191 1497 
Q 1191 994 1439 701 
Q 1688 409 2113 409 
Q 2538 409 2786 701 
Q 3034 994 3034 1497 
Q 3034 2003 2786 2293 
Q 2538 2584 2113 2584 
z
M 3366 4563 
L 3366 3988 
Q 3128 4100 2886 4159 
Q 2644 4219 2406 4219 
Q 1781 4219 1451 3797 
Q 1122 3375 1075 2522 
Q 1259 2794 1537 2939 
Q 1816 3084 2150 3084 
Q 2853 3084 3261 2657 
Q 3669 2231 3669 1497 
Q 3669 778 3244 343 
Q 2819 -91 2113 -91 
Q 1303 -91 875 529 
Q 447 1150 447 2328 
Q 447 3434 972 4092 
Q 1497 4750 2381 4750 
Q 2619 4750 2861 4703 
Q 3103 4656 3366 4563 
z
" transform="scale(0.015625)"/>
       </defs>
       <use xlink:href="#DejaVuSans-36"/>
      </g>
     </g>
    </g>
    <g id="ytick_5">
     <g id="line2d_27">
      <path d="M 42.53875 57.124968 
L 514.92875 57.124968 
" clip-path="url(#p5a67d11855)" style="fill: none; stroke-dasharray: 0.8,1.32; stroke-dashoffset: 0; stroke: #b0b0b0; stroke-opacity: 0.6; stroke-width: 0.8"/>
     </g>
     <g id="line2d_28">
      <g>
       <use xlink:href="#m980f2f5ab0" x="42.53875" y="57.124968" style="stroke: #000000; stroke-width: 0.8"/>
      </g>
     </g>
     <g id="text_15">
      <!-- 8 -->
      <g transform="translate(29.17625 60.924187) scale(0.1 -0.1)">
       <defs>
        <path id="DejaVuSans-38" d="M 2034 2216 
Q 1584 2216 1326 1975 
Q 1069 1734 1069 1313 
Q 1069 891 1326 650 
Q 1584 409 2034 409 
Q 2484 409 2743 651 
Q 3003 894 3003 1313 
Q 3003 1734 2745 1975 
Q 2488 2216 2034 2216 
z
M 1403 2484 
Q 997 2584 770 2862 
Q 544 3141 544 3541 
Q 544 4100 942 4425 
Q 1341 4750 2034 4750 
Q 2731 4750 3128 4425 
Q 3525 4100 3525 3541 
Q 3525 3141 3298 2862 
Q 3072 2584 2669 2484 
Q 3125 2378 3379 2068 
Q 3634 1759 3634 1313 
Q 3634 634 3220 271 
Q 2806 -91 2034 -91 
Q 1263 -91 848 271 
Q 434 634 434 1313 
Q 434 1759 690 2068 
Q 947 2378 1403 2484 
z
M 1172 3481 
Q 1172 3119 1398 2916 
Q 1625 2713 2034 2713 
Q 2441 2713 2670 2916 
Q 2900 3119 2900 3481 
Q 2900 3844 2670 4047 
Q 2441 4250 2034 4250 
Q 1625 4250 1398 4047 
Q 1172 3844 1172 3481 
z
" transform="scale(0.015625)"/>
       </defs>
       <use xlink:href="#DejaVuSans-38"/>
      </g>
     </g>
    </g>
    <g id="ytick_6">
     <g id="line2d_29">
      <path d="M 42.53875 15.702997 
L 514.92875 15.702997 
" clip-path="url(#p5a67d11855)" style="fill: none; stroke-dasharray: 0.8,1.32; stroke-dashoffset: 0; stroke: #b0b0b0; stroke-opacity: 0.6; stroke-width: 0.8"/>
     </g>
     <g id="line2d_30">
      <g>
       <use xlink:href="#m980f2f5ab0" x="42.53875" y="15.702997" style="stroke: #000000; stroke-width: 0.8"/>
      </g>
     </g>
     <g id="text_16">
      <!-- 10 -->
      <g transform="translate(22.81375 19.502216) scale(0.1 -0.1)">
       <use xlink:href="#DejaVuSans-31"/>
       <use xlink:href="#DejaVuSans-30" transform="translate(63.623047 0)"/>
      </g>
     </g>
    </g>
    <g id="text_17">
     <!-- Membrane Potential -->
     <g transform="translate(16.318125 180.487812) rotate(-90) scale(0.12 -0.12)">
      <defs>
       <path id="DejaVuSans-4d" d="M 628 4666 
L 1569 4666 
L 2759 1491 
L 3956 4666 
L 4897 4666 
L 4897 0 
L 4281 0 
L 4281 4097 
L 3078 897 
L 2444 897 
L 1241 4097 
L 1241 0 
L 628 0 
L 628 4666 
z
" transform="scale(0.015625)"/>
       <path id="DejaVuSans-62" d="M 3116 1747 
Q 3116 2381 2855 2742 
Q 2594 3103 2138 3103 
Q 1681 3103 1420 2742 
Q 1159 2381 1159 1747 
Q 1159 1113 1420 752 
Q 1681 391 2138 391 
Q 2594 391 2855 752 
Q 3116 1113 3116 1747 
z
M 1159 2969 
Q 1341 3281 1617 3432 
Q 1894 3584 2278 3584 
Q 2916 3584 3314 3078 
Q 3713 2572 3713 1747 
Q 3713 922 3314 415 
Q 2916 -91 2278 -91 
Q 1894 -91 1617 61 
Q 1341 213 1159 525 
L 1159 0 
L 581 0 
L 581 4863 
L 1159 4863 
L 1159 2969 
z
" transform="scale(0.015625)"/>
       <path id="DejaVuSans-72" d="M 2631 2963 
Q 2534 3019 2420 3045 
Q 2306 3072 2169 3072 
Q 1681 3072 1420 2755 
Q 1159 2438 1159 1844 
L 1159 0 
L 581 0 
L 581 3500 
L 1159 3500 
L 1159 2956 
Q 1341 3275 1631 3429 
Q 1922 3584 2338 3584 
Q 2397 3584 2469 3576 
Q 2541 3569 2628 3553 
L 2631 2963 
z
" transform="scale(0.015625)"/>
       <path id="DejaVuSans-61" d="M 2194 1759 
Q 1497 1759 1228 1600 
Q 959 1441 959 1056 
Q 959 750 1161 570 
Q 1363 391 1709 391 
Q 2188 391 2477 730 
Q 2766 1069 2766 1631 
L 2766 1759 
L 2194 1759 
z
M 3341 1997 
L 3341 0 
L 2766 0 
L 2766 531 
Q 2569 213 2275 61 
Q 1981 -91 1556 -91 
Q 1019 -91 701 211 
Q 384 513 384 1019 
Q 384 1609 779 1909 
Q 1175 2209 1959 2209 
L 2766 2209 
L 2766 2266 
Q 2766 2663 2505 2880 
Q 2244 3097 1772 3097 
Q 1472 3097 1187 3025 
Q 903 2953 641 2809 
L 641 3341 
Q 956 3463 1253 3523 
Q 1550 3584 1831 3584 
Q 2591 3584 2966 3190 
Q 3341 2797 3341 1997 
z
" transform="scale(0.015625)"/>
       <path id="DejaVuSans-6e" d="M 3513 2113 
L 3513 0 
L 2938 0 
L 2938 2094 
Q 2938 2591 2744 2837 
Q 2550 3084 2163 3084 
Q 1697 3084 1428 2787 
Q 1159 2491 1159 1978 
L 1159 0 
L 581 0 
L 581 3500 
L 1159 3500 
L 1159 2956 
Q 1366 3272 1645 3428 
Q 1925 3584 2291 3584 
Q 2894 3584 3203 3211 
Q 3513 2838 3513 2113 
z
" transform="scale(0.015625)"/>
       <path id="DejaVuSans-50" d="M 1259 4147 
L 1259 2394 
L 2053 2394 
Q 2494 2394 2734 2622 
Q 2975 2850 2975 3272 
Q 2975 3691 2734 3919 
Q 2494 4147 2053 4147 
L 1259 4147 
z
M 628 4666 
L 2053 4666 
Q 2838 4666 3239 4311 
Q 3641 3956 3641 3272 
Q 3641 2581 3239 2228 
Q 2838 1875 2053 1875 
L 1259 1875 
L 1259 0 
L 628 0 
L 628 4666 
z
" transform="scale(0.015625)"/>
       <path id="DejaVuSans-6f" d="M 1959 3097 
Q 1497 3097 1228 2736 
Q 959 2375 959 1747 
Q 959 1119 1226 758 
Q 1494 397 1959 397 
Q 2419 397 2687 759 
Q 2956 1122 2956 1747 
Q 2956 2369 2687 2733 
Q 2419 3097 1959 3097 
z
M 1959 3584 
Q 2709 3584 3137 3096 
Q 3566 2609 3566 1747 
Q 3566 888 3137 398 
Q 2709 -91 1959 -91 
Q 1206 -91 779 398 
Q 353 888 353 1747 
Q 353 2609 779 3096 
Q 1206 3584 1959 3584 
z
" transform="scale(0.015625)"/>
       <path id="DejaVuSans-6c" d="M 603 4863 
L 1178 4863 
L 1178 0 
L 603 0 
L 603 4863 
z
" transform="scale(0.015625)"/>
      </defs>
      <use xlink:href="#DejaVuSans-4d"/>
      <use xlink:href="#DejaVuSans-65" transform="translate(86.279297 0)"/>
      <use xlink:href="#DejaVuSans-6d" transform="translate(147.802734 0)"/>
      <use xlink:href="#DejaVuSans-62" transform="translate(245.214844 0)"/>
      <use xlink:href="#DejaVuSans-72" transform="translate(308.691406 0)"/>
      <use xlink:href="#DejaVuSans-61" transform="translate(349.804688 0)"/>
      <use xlink:href="#DejaVuSans-6e" transform="translate(411.083984 0)"/>
      <use xlink:href="#DejaVuSans-65" transform="translate(474.462891 0)"/>
      <use xlink:href="#DejaVuSans-20" transform="translate(535.986328 0)"/>
      <use xlink:href="#DejaVuSans-50" transform="translate(567.773438 0)"/>
      <use xlink:href="#DejaVuSans-6f" transform="translate(624.451172 0)"/>
      <use xlink:href="#DejaVuSans-74" transform="translate(685.632812 0)"/>
      <use xlink:href="#DejaVuSans-65" transform="translate(724.841797 0)"/>
      <use xlink:href="#DejaVuSans-6e" transform="translate(786.365234 0)"/>
      <use xlink:href="#DejaVuSans-74" transform="translate(849.744141 0)"/>
      <use xlink:href="#DejaVuSans-69" transform="translate(888.953125 0)"/>
      <use xlink:href="#DejaVuSans-61" transform="translate(916.736328 0)"/>
      <use xlink:href="#DejaVuSans-6c" transform="translate(978.015625 0)"/>
     </g>
    </g>
   </g>
   <g id="line2d_31">
    <path d="M 64.011023 203.984685 
L 66.16904 202.273034 
L 68.327057 201.347186 
L 70.485075 200.705175 
L 74.80111 199.807718 
L 79.117144 199.170138 
L 85.591196 198.459141 
L 94.223266 197.758452 
L 107.17137 196.986516 
L 124.435509 196.232532 
L 146.015682 195.527579 
L 169.753873 194.926189 
L 171.911891 213.706012 
L 174.069908 215.370196 
L 176.227925 216.249423 
L 178.385943 216.845627 
L 182.701978 217.653802 
L 187.018012 218.205033 
L 193.492064 218.791585 
L 202.124134 219.334958 
L 215.072238 219.8871 
L 232.336377 220.373569 
L 256.074568 220.810139 
L 290.602845 221.210857 
L 342.395262 221.570858 
L 422.241904 221.883035 
L 493.456477 222.050093 
L 493.456477 222.050093 
" clip-path="url(#p5a67d11855)" style="fill: none; stroke: #0072b2; stroke-width: 1.5; stroke-linecap: square"/>
   </g>
   <g id="line2d_32">
    <path d="M 64.011023 203.984685 
L 66.16904 198.84973 
L 68.327057 195.652054 
L 70.485075 193.271372 
L 72.643092 191.351666 
L 74.80111 189.731707 
L 76.959127 188.323905 
L 81.275162 185.950055 
L 85.591196 183.981537 
L 89.907231 182.291549 
L 94.223266 180.805981 
L 100.697318 178.861664 
L 107.17137 177.172048 
L 115.803439 175.209976 
L 124.435509 173.49682 
L 135.225596 171.616874 
L 146.015682 169.95887 
L 158.963787 168.193754 
L 169.753873 166.870934 
L 171.911891 185.448292 
L 174.069908 190.336637 
L 176.227925 193.291759 
L 178.385943 195.433802 
L 180.54396 197.118655 
L 182.701978 198.507421 
L 184.859995 199.687572 
L 189.17603 201.616297 
L 193.492064 203.152572 
L 197.808099 204.422436 
L 202.124134 205.499303 
L 208.598186 206.850616 
L 215.072238 207.969587 
L 223.704307 209.202664 
L 232.336377 210.220054 
L 243.126464 211.272449 
L 256.074568 212.302314 
L 271.180689 213.274528 
L 288.444828 214.170962 
L 310.025002 215.065364 
L 335.92121 215.908934 
L 368.29147 216.72512 
L 407.135783 217.472444 
L 456.770182 218.188834 
L 493.456477 218.602535 
L 493.456477 218.602535 
" clip-path="url(#p5a67d11855)" style="fill: none; stroke: #d55e00; stroke-width: 1.5; stroke-linecap: square"/>
   </g>
   <g id="line2d_33">
    <path d="M 64.011023 203.984685 
L 66.16904 195.426427 
L 68.327057 189.396745 
L 70.485075 184.613668 
L 72.643092 180.599473 
L 74.80111 177.116766 
L 76.959127 174.027908 
L 79.117144 171.244943 
L 81.275162 168.707754 
L 83.433179 166.373177 
L 87.749214 162.190557 
L 92.065248 158.516635 
L 96.381283 155.236089 
L 100.697318 152.270156 
L 105.013353 149.562354 
L 109.329387 147.070639 
L 115.803439 143.669653 
L 122.277491 140.602318 
L 128.751544 137.809479 
L 135.225596 135.246757 
L 141.699648 132.879929 
L 150.331717 129.983017 
L 158.963787 127.337029 
L 167.595856 124.903634 
L 169.753873 124.324831 
L 171.911891 142.585168 
L 174.069908 150.586183 
L 176.227925 156.068846 
L 178.385943 160.314782 
L 180.54396 163.801387 
L 182.701978 166.765743 
L 184.859995 169.345191 
L 187.018012 171.627406 
L 189.17603 173.672234 
L 191.334047 175.522582 
L 195.650082 178.76017 
L 199.966116 181.518783 
L 204.282151 183.91206 
L 208.598186 186.017223 
L 212.914221 187.889333 
L 217.230255 189.569127 
L 223.704307 191.794183 
L 230.178359 193.732657 
L 236.652411 195.440382 
L 245.284481 197.428469 
L 253.91655 199.150996 
L 262.54862 200.660053 
L 273.338707 202.304311 
L 284.128793 203.731178 
L 297.076898 205.213948 
L 312.183019 206.692391 
L 329.447158 208.122616 
L 348.869314 209.475573 
L 370.449488 210.734325 
L 394.187679 211.891069 
L 422.241904 213.024071 
L 454.612165 214.094453 
L 491.29846 215.07987 
L 493.456477 215.13172 
L 493.456477 215.13172 
" clip-path="url(#p5a67d11855)" style="fill: none; stroke: #009e73; stroke-width: 1.5; stroke-linecap: square"/>
   </g>
   <g id="line2d_34">
    <path d="M 64.011023 203.984685 
L 66.16904 192.003123 
L 68.327057 182.581259 
L 70.485075 174.663031 
L 72.643092 167.781386 
L 74.80111 161.676079 
L 76.959127 156.182487 
L 79.117144 151.187743 
L 81.275162 146.610028 
L 83.433179 142.387557 
L 85.591196 138.472192 
L 87.749214 134.825495 
L 89.907231 131.416152 
L 94.223266 125.20997 
L 98.5393 119.691049 
L 102.855335 114.740066 
L 107.17137 110.26641 
L 111.487405 106.199415 
L 115.803439 102.482781 
L 120.119474 99.070865 
L 124.435509 95.926114 
L 128.751544 93.017249 
L 133.067578 90.317935 
L 137.383613 87.805789 
L 143.857665 84.347296 
L 150.331717 81.213281 
L 156.805769 78.359754 
L 163.279821 75.750511 
L 169.753873 73.355437 
L 171.911891 91.428351 
L 174.069908 102.674779 
L 176.227925 111.38084 
L 178.385943 118.601847 
L 180.54396 124.804142 
L 182.701978 130.247298 
L 184.859995 135.095295 
L 187.018012 139.460393 
L 189.17603 143.423832 
L 191.334047 147.046844 
L 193.492064 150.377044 
L 195.650082 153.452368 
L 197.808099 156.303652 
L 199.966116 158.956371 
L 204.282151 163.748199 
L 208.598186 167.96321 
L 212.914221 171.702021 
L 217.230255 175.041689 
L 221.54629 178.042633 
L 225.862325 180.753139 
L 230.178359 183.212418 
L 234.494394 185.45273 
L 238.810429 187.50093 
L 245.284481 190.26144 
L 251.758533 192.702066 
L 258.232585 194.872303 
L 264.706637 196.811987 
L 271.180689 198.553577 
L 279.812759 200.613087 
L 288.444828 202.418765 
L 297.076898 204.011301 
L 307.866984 205.751405 
L 318.657071 207.259767 
L 331.605175 208.819112 
L 344.553279 210.154654 
L 359.659401 211.484019 
L 376.92354 212.761452 
L 396.345696 213.955606 
L 417.92587 215.047967 
L 441.664061 216.030365 
L 469.718286 216.967158 
L 493.456477 217.614905 
L 493.456477 217.614905 
" clip-path="url(#p5a67d11855)" style="fill: none; stroke: #cc79a7; stroke-width: 1.5; stroke-linecap: square"/>
   </g>
   <g id="line2d_35">
    <path d="M 64.011023 203.984685 
L 66.16904 188.57982 
L 68.327057 175.205596 
L 70.485075 163.350427 
L 72.643092 152.724272 
L 74.80111 143.131305 
L 76.959127 134.426626 
L 79.117144 126.496962 
L 81.275162 119.25053 
L 83.433179 112.611094 
L 85.591196 106.514167 
L 87.749214 100.904459 
L 89.907231 95.734053 
L 92.065248 90.961073 
L 94.223266 86.548667 
L 96.381283 82.464217 
L 98.5393 78.678714 
L 100.697318 75.166253 
L 102.855335 71.903614 
L 105.013353 68.869922 
L 107.17137 66.046357 
L 109.329387 63.415907 
L 113.645422 58.674148 
L 117.961457 54.53755 
L 122.277491 50.917296 
L 126.593526 47.739283 
L 130.909561 44.941356 
L 135.225596 42.471146 
L 139.54163 40.284343 
L 143.857665 38.343319 
L 148.1737 36.616014 
L 152.489734 35.075021 
L 158.963787 33.062392 
L 165.437839 31.350968 
L 169.753873 30.350822 
L 171.911891 48.716097 
L 174.069908 63.680874 
L 176.227925 76.636452 
L 178.385943 88.093148 
L 180.54396 98.339821 
L 182.701978 107.571188 
L 184.859995 115.931118 
L 187.018012 123.531919 
L 189.17603 130.464469 
L 191.334047 136.804163 
L 193.492064 142.614696 
L 195.650082 147.950618 
L 197.808099 152.859154 
L 199.966116 157.381529 
L 202.124134 161.553987 
L 204.282151 165.408574 
L 206.440168 168.973763 
L 208.598186 172.274955 
L 210.756203 175.334898 
L 212.914221 178.174022 
L 215.072238 180.810729 
L 217.230255 183.261638 
L 221.54629 187.664808 
L 225.862325 191.487922 
L 230.178359 194.817391 
L 234.494394 197.725185 
L 238.810429 200.271555 
L 243.126464 202.507173 
L 247.442498 204.474832 
L 251.758533 206.210803 
L 256.074568 207.745931 
L 260.390602 209.106529 
L 266.864655 210.868538 
L 273.338707 212.350755 
L 279.812759 213.603502 
L 286.286811 214.667183 
L 294.91888 215.846755 
L 303.55095 216.808247 
L 314.341036 217.772877 
L 327.289141 218.668668 
L 342.395262 219.453757 
L 359.659401 220.112877 
L 381.239575 220.699188 
L 409.2938 221.213971 
L 445.980095 221.642838 
L 493.456477 221.978755 
L 493.456477 221.978755 
" clip-path="url(#p5a67d11855)" style="fill: none; stroke: #56b4e9; stroke-width: 1.5; stroke-linecap: square"/>
   </g>
   <g id="line2d_36">
    <path d="M 64.011023 203.984685 
L 66.16904 186.868168 
L 68.327057 171.307698 
L 70.485075 157.161816 
L 72.643092 144.301923 
L 74.80111 132.611112 
L 76.959127 121.983101 
L 79.117144 112.321274 
L 81.275162 103.537794 
L 83.433179 95.552812 
L 85.591196 88.293738 
L 87.749214 81.69458 
L 89.907231 75.695345 
L 92.065248 70.241495 
L 94.223266 65.28345 
L 96.381283 60.776136 
L 98.5393 56.678578 
L 100.697318 52.953525 
L 102.855335 49.567113 
L 105.013353 46.488557 
L 107.17137 43.68987 
L 109.329387 41.145609 
L 111.487405 38.832644 
L 113.645422 36.729949 
L 115.803439 34.818408 
L 117.961457 33.080643 
L 120.119474 31.500857 
L 124.435509 28.75908 
L 128.751544 26.493148 
L 133.067578 24.620477 
L 137.383613 23.072815 
L 141.699648 21.793756 
L 146.015682 20.736682 
L 150.331717 19.863067 
L 156.805769 18.828519 
L 163.279821 18.051248 
L 169.753873 17.467273 
L 171.911891 36.135053 
L 174.069908 53.105762 
L 176.227925 68.53368 
L 178.385943 82.559059 
L 180.54396 95.309404 
L 182.701978 106.900627 
L 184.859995 117.438102 
L 187.018012 127.017625 
L 189.17603 135.726282 
L 191.334047 143.643243 
L 193.492064 150.840481 
L 195.650082 157.383424 
L 197.808099 163.331554 
L 199.966116 168.738945 
L 202.124134 173.654755 
L 204.282151 178.123673 
L 206.440168 182.186326 
L 208.598186 185.879646 
L 210.756203 189.237211 
L 212.914221 192.289542 
L 215.072238 195.064389 
L 217.230255 197.586976 
L 219.388273 199.880238 
L 221.54629 201.965021 
L 223.704307 203.860279 
L 225.862325 205.58324 
L 228.020342 207.149569 
L 232.336377 209.86799 
L 236.652411 212.114619 
L 240.968446 213.971338 
L 245.284481 215.505816 
L 249.600516 216.77398 
L 253.91655 217.822049 
L 258.232585 218.688222 
L 264.706637 219.713957 
L 271.180689 220.484607 
L 279.812759 221.22263 
L 288.444828 221.72671 
L 299.234915 222.138444 
L 314.341036 222.466775 
L 335.92121 222.679426 
L 374.765522 222.788856 
L 493.456477 222.812727 
L 493.456477 222.812727 
" clip-path="url(#p5a67d11855)" style="fill: none; stroke: #e69f00; stroke-width: 1.5; stroke-linecap: square"/>
   </g>
   <g id="line2d_37">
    <path d="M 171.911891 233.08 
L 171.911891 7.2 
" clip-path="url(#p5a67d11855)" style="fill: none; stroke-dasharray: 5.55,2.4; stroke-dashoffset: 0; stroke: #808080; stroke-opacity: 0.7; stroke-width: 1.5"/>
   </g>
   <g id="patch_3">
    <path d="M 42.53875 233.08 
L 42.53875 7.2 
" style="fill: none; stroke: #000000; stroke-width: 0.8; stroke-linejoin: miter; stroke-linecap: square"/>
   </g>
   <g id="patch_4">
    <path d="M 514.92875 233.08 
L 514.92875 7.2 
" style="fill: none; stroke: #000000; stroke-width: 0.8; stroke-linejoin: miter; stroke-linecap: square"/>
   </g>
   <g id="patch_5">
    <path d="M 42.53875 233.08 
L 514.92875 233.08 
" style="fill: none; stroke: #000000; stroke-width: 0.8; stroke-linejoin: miter; stroke-linecap: square"/>
   </g>
   <g id="patch_6">
    <path d="M 42.53875 7.2 
L 514.92875 7.2 
" style="fill: none; stroke: #000000; stroke-width: 0.8; stroke-linejoin: miter; stroke-linecap: square"/>
   </g>
   <g id="line2d_38">
    <path d="M 64.011023 203.984685 
L 66.16904 186.868168 
L 68.327057 171.307698 
L 70.485075 157.161816 
L 72.643092 144.301923 
L 74.80111 132.611112 
L 76.959127 121.983101 
L 79.117144 112.321274 
L 81.275162 103.537794 
L 83.433179 95.552812 
L 85.591196 88.293738 
L 87.749214 81.69458 
L 89.907231 75.695345 
L 92.065248 70.241495 
L 94.223266 65.28345 
L 96.381283 60.776136 
L 98.5393 56.678578 
L 100.697318 52.953525 
L 102.855335 49.567113 
L 105.013353 46.488557 
L 107.17137 43.68987 
L 109.329387 41.145609 
L 111.487405 38.832644 
L 113.645422 36.729949 
L 115.803439 34.818408 
L 117.961457 33.080643 
L 120.119474 31.500857 
L 124.435509 28.75908 
L 128.751544 26.493148 
L 133.067578 24.620477 
L 137.383613 23.072815 
L 141.699648 21.793756 
L 146.015682 20.736682 
L 150.331717 19.863067 
L 156.805769 18.828519 
L 163.279821 18.051248 
L 169.753873 17.467273 
L 171.911891 36.135053 
L 174.069908 53.105762 
L 176.227925 68.53368 
L 178.385943 82.559059 
L 180.54396 95.309404 
L 182.701978 106.900627 
L 184.859995 117.438102 
L 187.018012 127.017625 
L 189.17603 135.726282 
L 191.334047 143.643243 
L 193.492064 150.840481 
L 195.650082 157.383424 
L 197.808099 163.331554 
L 199.966116 168.738945 
L 202.124134 173.654755 
L 204.282151 178.123673 
L 206.440168 182.186326 
L 208.598186 185.879646 
L 210.756203 189.237211 
L 212.914221 192.289542 
L 215.072238 195.064389 
L 217.230255 197.586976 
L 219.388273 199.880238 
L 221.54629 201.965021 
L 223.704307 203.860279 
L 225.862325 205.58324 
L 228.020342 207.149569 
L 232.336377 209.86799 
L 236.652411 212.114619 
L 240.968446 213.971338 
L 245.284481 215.505816 
L 249.600516 216.77398 
L 253.91655 217.822049 
L 258.232585 218.688222 
L 264.706637 219.713957 
L 271.180689 220.484607 
L 279.812759 221.22263 
L 288.444828 221.72671 
L 299.234915 222.138444 
L 314.341036 222.466775 
L 335.92121 222.679426 
L 374.765522 222.788856 
L 493.456477 222.812727 
L 493.456477 222.812727 
" clip-path="url(#p5a67d11855)" style="fill: none; stroke-dasharray: 9.25,4; stroke-dashoffset: 0; stroke: #999999; stroke-width: 2.5"/>
   </g>
   <g id="legend_1">
    <g id="patch_7">
     <path d="M 397.56875 119.2825 
L 509.32875 119.2825 
Q 510.92875 119.2825 510.92875 117.6825 
L 510.92875 12.8 
Q 510.92875 11.2 509.32875 11.2 
L 397.56875 11.2 
Q 395.96875 11.2 395.96875 12.8 
L 395.96875 117.6825 
Q 395.96875 119.2825 397.56875 119.2825 
z
" style="fill: #ffffff; opacity: 0.8; stroke: #cccccc; stroke-linejoin: miter"/>
    </g>
    <g id="line2d_39">
     <path d="M 399.16875 17.67875 
L 407.16875 17.67875 
L 415.16875 17.67875 
" style="fill: none; stroke-dasharray: 9.25,4; stroke-dashoffset: 0; stroke: #999999; stroke-width: 2.5"/>
    </g>
    <g id="text_18">
     <!-- snnTorch.Leaky -->
     <g transform="translate(421.56875 20.47875) scale(0.08 -0.08)">
      <defs>
       <path id="DejaVuSans-73" d="M 2834 3397 
L 2834 2853 
Q 2591 2978 2328 3040 
Q 2066 3103 1784 3103 
Q 1356 3103 1142 2972 
Q 928 2841 928 2578 
Q 928 2378 1081 2264 
Q 1234 2150 1697 2047 
L 1894 2003 
Q 2506 1872 2764 1633 
Q 3022 1394 3022 966 
Q 3022 478 2636 193 
Q 2250 -91 1575 -91 
Q 1294 -91 989 -36 
Q 684 19 347 128 
L 347 722 
Q 666 556 975 473 
Q 1284 391 1588 391 
Q 1994 391 2212 530 
Q 2431 669 2431 922 
Q 2431 1156 2273 1281 
Q 2116 1406 1581 1522 
L 1381 1569 
Q 847 1681 609 1914 
Q 372 2147 372 2553 
Q 372 3047 722 3315 
Q 1072 3584 1716 3584 
Q 2034 3584 2315 3537 
Q 2597 3491 2834 3397 
z
" transform="scale(0.015625)"/>
       <path id="DejaVuSans-63" d="M 3122 3366 
L 3122 2828 
Q 2878 2963 2633 3030 
Q 2388 3097 2138 3097 
Q 1578 3097 1268 2742 
Q 959 2388 959 1747 
Q 959 1106 1268 751 
Q 1578 397 2138 397 
Q 2388 397 2633 464 
Q 2878 531 3122 666 
L 3122 134 
Q 2881 22 2623 -34 
Q 2366 -91 2075 -91 
Q 1284 -91 818 406 
Q 353 903 353 1747 
Q 353 2603 823 3093 
Q 1294 3584 2113 3584 
Q 2378 3584 2631 3529 
Q 2884 3475 3122 3366 
z
" transform="scale(0.015625)"/>
       <path id="DejaVuSans-68" d="M 3513 2113 
L 3513 0 
L 2938 0 
L 2938 2094 
Q 2938 2591 2744 2837 
Q 2550 3084 2163 3084 
Q 1697 3084 1428 2787 
Q 1159 2491 1159 1978 
L 1159 0 
L 581 0 
L 581 4863 
L 1159 4863 
L 1159 2956 
Q 1366 3272 1645 3428 
Q 1925 3584 2291 3584 
Q 2894 3584 3203 3211 
Q 3513 2838 3513 2113 
z
" transform="scale(0.015625)"/>
       <path id="DejaVuSans-2e" d="M 684 794 
L 1344 794 
L 1344 0 
L 684 0 
L 684 794 
z
" transform="scale(0.015625)"/>
       <path id="DejaVuSans-4c" d="M 628 4666 
L 1259 4666 
L 1259 531 
L 3531 531 
L 3531 0 
L 628 0 
L 628 4666 
z
" transform="scale(0.015625)"/>
       <path id="DejaVuSans-6b" d="M 581 4863 
L 1159 4863 
L 1159 1991 
L 2875 3500 
L 3609 3500 
L 1753 1863 
L 3688 0 
L 2938 0 
L 1159 1709 
L 1159 0 
L 581 0 
L 581 4863 
z
" transform="scale(0.015625)"/>
       <path id="DejaVuSans-79" d="M 2059 -325 
Q 1816 -950 1584 -1140 
Q 1353 -1331 966 -1331 
L 506 -1331 
L 506 -850 
L 844 -850 
Q 1081 -850 1212 -737 
Q 1344 -625 1503 -206 
L 1606 56 
L 191 3500 
L 800 3500 
L 1894 763 
L 2988 3500 
L 3597 3500 
L 2059 -325 
z
" transform="scale(0.015625)"/>
      </defs>
      <use xlink:href="#DejaVuSans-73"/>
      <use xlink:href="#DejaVuSans-6e" transform="translate(52.099609 0)"/>
      <use xlink:href="#DejaVuSans-6e" transform="translate(115.478516 0)"/>
      <use xlink:href="#DejaVuSans-54" transform="translate(178.857422 0)"/>
      <use xlink:href="#DejaVuSans-6f" transform="translate(222.941406 0)"/>
      <use xlink:href="#DejaVuSans-72" transform="translate(284.123047 0)"/>
      <use xlink:href="#DejaVuSans-63" transform="translate(322.986328 0)"/>
      <use xlink:href="#DejaVuSans-68" transform="translate(377.966797 0)"/>
      <use xlink:href="#DejaVuSans-2e" transform="translate(441.345703 0)"/>
      <use xlink:href="#DejaVuSans-4c" transform="translate(473.132812 0)"/>
      <use xlink:href="#DejaVuSans-65" transform="translate(527.095703 0)"/>
      <use xlink:href="#DejaVuSans-61" transform="translate(588.619141 0)"/>
      <use xlink:href="#DejaVuSans-6b" transform="translate(649.898438 0)"/>
      <use xlink:href="#DejaVuSans-79" transform="translate(704.183594 0)"/>
     </g>
    </g>
    <g id="line2d_40">
     <path d="M 399.16875 29.42125 
L 407.16875 29.42125 
L 415.16875 29.42125 
" style="fill: none; stroke: #0072b2; stroke-width: 1.5; stroke-linecap: square"/>
    </g>
    <g id="text_19">
     <!-- $\alpha$ = 0.1 -->
     <g transform="translate(421.56875 32.22125) scale(0.08 -0.08)">
      <defs>
       <path id="DejaVuSans-Oblique-3b1" d="M 2619 1628 
L 2622 2350 
Q 2625 3088 2069 3091 
Q 1653 3094 1394 2747 
Q 1069 2319 959 1747 
Q 825 1059 994 731 
Q 1169 397 1547 397 
Q 1966 397 2319 1063 
L 2619 1628 
z
M 2166 3578 
Q 3141 3594 3128 2584 
Q 3128 2584 3616 3500 
L 4128 3500 
L 3119 1603 
L 3109 919 
Q 3109 766 3194 638 
Q 3291 488 3391 488 
L 3669 488 
L 3575 0 
L 3228 0 
Q 2934 0 2722 263 
Q 2622 394 2619 669 
Q 2416 334 2066 50 
Q 1900 -81 1453 -78 
Q 722 -72 456 397 
Q 184 884 353 1747 
Q 534 2675 1009 3097 
Q 1544 3569 2166 3578 
z
" transform="scale(0.015625)"/>
       <path id="DejaVuSans-3d" d="M 678 2906 
L 4684 2906 
L 4684 2381 
L 678 2381 
L 678 2906 
z
M 678 1631 
L 4684 1631 
L 4684 1100 
L 678 1100 
L 678 1631 
z
" transform="scale(0.015625)"/>
      </defs>
      <use xlink:href="#DejaVuSans-Oblique-3b1" transform="translate(0 0.78125)"/>
      <use xlink:href="#DejaVuSans-20" transform="translate(65.917969 0.78125)"/>
      <use xlink:href="#DejaVuSans-3d" transform="translate(97.705078 0.78125)"/>
      <use xlink:href="#DejaVuSans-20" transform="translate(181.494141 0.78125)"/>
      <use xlink:href="#DejaVuSans-30" transform="translate(213.28125 0.78125)"/>
      <use xlink:href="#DejaVuSans-2e" transform="translate(276.904297 0.78125)"/>
      <use xlink:href="#DejaVuSans-31" transform="translate(308.691406 0.78125)"/>
     </g>
    </g>
    <g id="line2d_41">
     <path d="M 399.16875 41.16375 
L 407.16875 41.16375 
L 415.16875 41.16375 
" style="fill: none; stroke: #d55e00; stroke-width: 1.5; stroke-linecap: square"/>
    </g>
    <g id="text_20">
     <!-- $\alpha$ = 0.3 -->
     <g transform="translate(421.56875 43.96375) scale(0.08 -0.08)">
      <defs>
       <path id="DejaVuSans-33" d="M 2597 2516 
Q 3050 2419 3304 2112 
Q 3559 1806 3559 1356 
Q 3559 666 3084 287 
Q 2609 -91 1734 -91 
Q 1441 -91 1130 -33 
Q 819 25 488 141 
L 488 750 
Q 750 597 1062 519 
Q 1375 441 1716 441 
Q 2309 441 2620 675 
Q 2931 909 2931 1356 
Q 2931 1769 2642 2001 
Q 2353 2234 1838 2234 
L 1294 2234 
L 1294 2753 
L 1863 2753 
Q 2328 2753 2575 2939 
Q 2822 3125 2822 3475 
Q 2822 3834 2567 4026 
Q 2313 4219 1838 4219 
Q 1578 4219 1281 4162 
Q 984 4106 628 3988 
L 628 4550 
Q 988 4650 1302 4700 
Q 1616 4750 1894 4750 
Q 2613 4750 3031 4423 
Q 3450 4097 3450 3541 
Q 3450 3153 3228 2886 
Q 3006 2619 2597 2516 
z
" transform="scale(0.015625)"/>
      </defs>
      <use xlink:href="#DejaVuSans-Oblique-3b1" transform="translate(0 0.78125)"/>
      <use xlink:href="#DejaVuSans-20" transform="translate(65.917969 0.78125)"/>
      <use xlink:href="#DejaVuSans-3d" transform="translate(97.705078 0.78125)"/>
      <use xlink:href="#DejaVuSans-20" transform="translate(181.494141 0.78125)"/>
      <use xlink:href="#DejaVuSans-30" transform="translate(213.28125 0.78125)"/>
      <use xlink:href="#DejaVuSans-2e" transform="translate(276.904297 0.78125)"/>
      <use xlink:href="#DejaVuSans-33" transform="translate(308.691406 0.78125)"/>
     </g>
    </g>
    <g id="line2d_42">
     <path d="M 399.16875 52.90625 
L 407.16875 52.90625 
L 415.16875 52.90625 
" style="fill: none; stroke: #009e73; stroke-width: 1.5; stroke-linecap: square"/>
    </g>
    <g id="text_21">
     <!-- $\alpha$ = 0.5 -->
     <g transform="translate(421.56875 55.70625) scale(0.08 -0.08)">
      <use xlink:href="#DejaVuSans-Oblique-3b1" transform="translate(0 0.78125)"/>
      <use xlink:href="#DejaVuSans-20" transform="translate(65.917969 0.78125)"/>
      <use xlink:href="#DejaVuSans-3d" transform="translate(97.705078 0.78125)"/>
      <use xlink:href="#DejaVuSans-20" transform="translate(181.494141 0.78125)"/>
      <use xlink:href="#DejaVuSans-30" transform="translate(213.28125 0.78125)"/>
      <use xlink:href="#DejaVuSans-2e" transform="translate(276.904297 0.78125)"/>
      <use xlink:href="#DejaVuSans-35" transform="translate(308.691406 0.78125)"/>
     </g>
    </g>
    <g id="line2d_43">
     <path d="M 399.16875 64.64875 
L 407.16875 64.64875 
L 415.16875 64.64875 
" style="fill: none; stroke: #cc79a7; stroke-width: 1.5; stroke-linecap: square"/>
    </g>
    <g id="text_22">
     <!-- $\alpha$ = 0.7 -->
     <g transform="translate(421.56875 67.44875) scale(0.08 -0.08)">
      <use xlink:href="#DejaVuSans-Oblique-3b1" transform="translate(0 0.78125)"/>
      <use xlink:href="#DejaVuSans-20" transform="translate(65.917969 0.78125)"/>
      <use xlink:href="#DejaVuSans-3d" transform="translate(97.705078 0.78125)"/>
      <use xlink:href="#DejaVuSans-20" transform="translate(181.494141 0.78125)"/>
      <use xlink:href="#DejaVuSans-30" transform="translate(213.28125 0.78125)"/>
      <use xlink:href="#DejaVuSans-2e" transform="translate(276.904297 0.78125)"/>
      <use xlink:href="#DejaVuSans-37" transform="translate(300.941406 0.78125)"/>
     </g>
    </g>
    <g id="line2d_44">
     <path d="M 399.16875 76.39125 
L 407.16875 76.39125 
L 415.16875 76.39125 
" style="fill: none; stroke: #56b4e9; stroke-width: 1.5; stroke-linecap: square"/>
    </g>
    <g id="text_23">
     <!-- $\alpha$ = 0.9 -->
     <g transform="translate(421.56875 79.19125) scale(0.08 -0.08)">
      <defs>
       <path id="DejaVuSans-39" d="M 703 97 
L 703 672 
Q 941 559 1184 500 
Q 1428 441 1663 441 
Q 2288 441 2617 861 
Q 2947 1281 2994 2138 
Q 2813 1869 2534 1725 
Q 2256 1581 1919 1581 
Q 1219 1581 811 2004 
Q 403 2428 403 3163 
Q 403 3881 828 4315 
Q 1253 4750 1959 4750 
Q 2769 4750 3195 4129 
Q 3622 3509 3622 2328 
Q 3622 1225 3098 567 
Q 2575 -91 1691 -91 
Q 1453 -91 1209 -44 
Q 966 3 703 97 
z
M 1959 2075 
Q 2384 2075 2632 2365 
Q 2881 2656 2881 3163 
Q 2881 3666 2632 3958 
Q 2384 4250 1959 4250 
Q 1534 4250 1286 3958 
Q 1038 3666 1038 3163 
Q 1038 2656 1286 2365 
Q 1534 2075 1959 2075 
z
" transform="scale(0.015625)"/>
      </defs>
      <use xlink:href="#DejaVuSans-Oblique-3b1" transform="translate(0 0.78125)"/>
      <use xlink:href="#DejaVuSans-20" transform="translate(65.917969 0.78125)"/>
      <use xlink:href="#DejaVuSans-3d" transform="translate(97.705078 0.78125)"/>
      <use xlink:href="#DejaVuSans-20" transform="translate(181.494141 0.78125)"/>
      <use xlink:href="#DejaVuSans-30" transform="translate(213.28125 0.78125)"/>
      <use xlink:href="#DejaVuSans-2e" transform="translate(276.904297 0.78125)"/>
      <use xlink:href="#DejaVuSans-39" transform="translate(308.691406 0.78125)"/>
     </g>
    </g>
    <g id="line2d_45">
     <path d="M 399.16875 88.13375 
L 407.16875 88.13375 
L 415.16875 88.13375 
" style="fill: none; stroke: #e69f00; stroke-width: 1.5; stroke-linecap: square"/>
    </g>
    <g id="text_24">
     <!-- $\alpha$ = 1.0 -->
     <g transform="translate(421.56875 90.93375) scale(0.08 -0.08)">
      <use xlink:href="#DejaVuSans-Oblique-3b1" transform="translate(0 0.78125)"/>
      <use xlink:href="#DejaVuSans-20" transform="translate(65.917969 0.78125)"/>
      <use xlink:href="#DejaVuSans-3d" transform="translate(97.705078 0.78125)"/>
      <use xlink:href="#DejaVuSans-20" transform="translate(181.494141 0.78125)"/>
      <use xlink:href="#DejaVuSans-31" transform="translate(213.28125 0.78125)"/>
      <use xlink:href="#DejaVuSans-2e" transform="translate(276.904297 0.78125)"/>
      <use xlink:href="#DejaVuSans-30" transform="translate(308.691406 0.78125)"/>
     </g>
    </g>
    <g id="line2d_46">
     <path d="M 399.16875 99.87625 
L 407.16875 99.87625 
L 415.16875 99.87625 
" style="fill: none; stroke-dasharray: 2.5,4.125; stroke-dashoffset: 0; stroke: #000000; stroke-width: 2.5"/>
    </g>
    <g id="text_25">
     <!-- BitshiftLIF ($\approx \alpha=0.5$) -->
     <g transform="translate(421.56875 102.67625) scale(0.08 -0.08)">
      <defs>
       <path id="DejaVuSans-42" d="M 1259 2228 
L 1259 519 
L 2272 519 
Q 2781 519 3026 730 
Q 3272 941 3272 1375 
Q 3272 1813 3026 2020 
Q 2781 2228 2272 2228 
L 1259 2228 
z
M 1259 4147 
L 1259 2741 
L 2194 2741 
Q 2656 2741 2882 2914 
Q 3109 3088 3109 3444 
Q 3109 3797 2882 3972 
Q 2656 4147 2194 4147 
L 1259 4147 
z
M 628 4666 
L 2241 4666 
Q 2963 4666 3353 4366 
Q 3744 4066 3744 3513 
Q 3744 3084 3544 2831 
Q 3344 2578 2956 2516 
Q 3422 2416 3680 2098 
Q 3938 1781 3938 1306 
Q 3938 681 3513 340 
Q 3088 0 2303 0 
L 628 0 
L 628 4666 
z
" transform="scale(0.015625)"/>
       <path id="DejaVuSans-66" d="M 2375 4863 
L 2375 4384 
L 1825 4384 
Q 1516 4384 1395 4259 
Q 1275 4134 1275 3809 
L 1275 3500 
L 2222 3500 
L 2222 3053 
L 1275 3053 
L 1275 0 
L 697 0 
L 697 3053 
L 147 3053 
L 147 3500 
L 697 3500 
L 697 3744 
Q 697 4328 969 4595 
Q 1241 4863 1831 4863 
L 2375 4863 
z
" transform="scale(0.015625)"/>
       <path id="DejaVuSans-49" d="M 628 4666 
L 1259 4666 
L 1259 0 
L 628 0 
L 628 4666 
z
" transform="scale(0.015625)"/>
       <path id="DejaVuSans-46" d="M 628 4666 
L 3309 4666 
L 3309 4134 
L 1259 4134 
L 1259 2759 
L 3109 2759 
L 3109 2228 
L 1259 2228 
L 1259 0 
L 628 0 
L 628 4666 
z
" transform="scale(0.015625)"/>
       <path id="DejaVuSans-28" d="M 1984 4856 
Q 1566 4138 1362 3434 
Q 1159 2731 1159 2009 
Q 1159 1288 1364 580 
Q 1569 -128 1984 -844 
L 1484 -844 
Q 1016 -109 783 600 
Q 550 1309 550 2009 
Q 550 2706 781 3412 
Q 1013 4119 1484 4856 
L 1984 4856 
z
" transform="scale(0.015625)"/>
       <path id="DejaVuSans-2248" d="M 4684 1947 
L 4684 1388 
Q 4356 1144 4076 1036 
Q 3797 928 3494 928 
Q 3150 928 2694 1113 
Q 2663 1125 2641 1134 
Q 2622 1141 2575 1159 
Q 2091 1350 1797 1350 
Q 1522 1350 1253 1231 
Q 984 1113 678 850 
L 678 1409 
Q 1006 1653 1286 1761 
Q 1566 1869 1869 1869 
Q 2213 1869 2672 1684 
Q 2706 1669 2722 1663 
Q 2741 1656 2788 1638 
Q 3272 1447 3566 1447 
Q 3834 1447 4098 1564 
Q 4363 1681 4684 1947 
z
M 4684 3163 
L 4684 2606 
Q 4356 2359 4076 2251 
Q 3797 2144 3494 2144 
Q 3150 2144 2694 2328 
Q 2663 2341 2641 2350 
Q 2622 2356 2575 2375 
Q 2091 2566 1797 2566 
Q 1522 2566 1253 2447 
Q 984 2328 678 2069 
L 678 2625 
Q 1006 2869 1286 2976 
Q 1566 3084 1869 3084 
Q 2213 3084 2672 2900 
Q 2703 2888 2719 2881 
Q 2741 2872 2788 2853 
Q 3272 2663 3566 2663 
Q 3834 2663 4098 2780 
Q 4363 2897 4684 3163 
z
" transform="scale(0.015625)"/>
       <path id="DejaVuSans-29" d="M 513 4856 
L 1013 4856 
Q 1481 4119 1714 3412 
Q 1947 2706 1947 2009 
Q 1947 1309 1714 600 
Q 1481 -109 1013 -844 
L 513 -844 
Q 928 -128 1133 580 
Q 1338 1288 1338 2009 
Q 1338 2731 1133 3434 
Q 928 4138 513 4856 
z
" transform="scale(0.015625)"/>
      </defs>
      <use xlink:href="#DejaVuSans-42" transform="translate(0 0.015625)"/>
      <use xlink:href="#DejaVuSans-69" transform="translate(68.603516 0.015625)"/>
      <use xlink:href="#DejaVuSans-74" transform="translate(96.386719 0.015625)"/>
      <use xlink:href="#DejaVuSans-73" transform="translate(135.595703 0.015625)"/>
      <use xlink:href="#DejaVuSans-68" transform="translate(187.695312 0.015625)"/>
      <use xlink:href="#DejaVuSans-69" transform="translate(251.074219 0.015625)"/>
      <use xlink:href="#DejaVuSans-66" transform="translate(278.857422 0.015625)"/>
      <use xlink:href="#DejaVuSans-74" transform="translate(314.0625 0.015625)"/>
      <use xlink:href="#DejaVuSans-4c" transform="translate(353.271484 0.015625)"/>
      <use xlink:href="#DejaVuSans-49" transform="translate(408.984375 0.015625)"/>
      <use xlink:href="#DejaVuSans-46" transform="translate(438.476562 0.015625)"/>
      <use xlink:href="#DejaVuSans-20" transform="translate(495.996094 0.015625)"/>
      <use xlink:href="#DejaVuSans-28" transform="translate(527.783203 0.015625)"/>
      <use xlink:href="#DejaVuSans-2248" transform="translate(586.279297 0.015625)"/>
      <use xlink:href="#DejaVuSans-Oblique-3b1" transform="translate(689.550781 0.015625)"/>
      <use xlink:href="#DejaVuSans-3d" transform="translate(774.951172 0.015625)"/>
      <use xlink:href="#DejaVuSans-30" transform="translate(878.222656 0.015625)"/>
      <use xlink:href="#DejaVuSans-2e" transform="translate(941.845703 0.015625)"/>
      <use xlink:href="#DejaVuSans-35" transform="translate(973.632812 0.015625)"/>
      <use xlink:href="#DejaVuSans-29" transform="translate(1037.255859 0.015625)"/>
     </g>
    </g>
    <g id="line2d_47">
     <path d="M 399.16875 111.61875 
L 407.16875 111.61875 
L 415.16875 111.61875 
" style="fill: none; stroke-dasharray: 5.55,2.4; stroke-dashoffset: 0; stroke: #808080; stroke-opacity: 0.7; stroke-width: 1.5"/>
    </g>
    <g id="text_26">
     <!-- Current off -->
     <g transform="translate(421.56875 114.41875) scale(0.08 -0.08)">
      <defs>
       <path id="DejaVuSans-43" d="M 4122 4306 
L 4122 3641 
Q 3803 3938 3442 4084 
Q 3081 4231 2675 4231 
Q 1875 4231 1450 3742 
Q 1025 3253 1025 2328 
Q 1025 1406 1450 917 
Q 1875 428 2675 428 
Q 3081 428 3442 575 
Q 3803 722 4122 1019 
L 4122 359 
Q 3791 134 3420 21 
Q 3050 -91 2638 -91 
Q 1578 -91 968 557 
Q 359 1206 359 2328 
Q 359 3453 968 4101 
Q 1578 4750 2638 4750 
Q 3056 4750 3426 4639 
Q 3797 4528 4122 4306 
z
" transform="scale(0.015625)"/>
       <path id="DejaVuSans-75" d="M 544 1381 
L 544 3500 
L 1119 3500 
L 1119 1403 
Q 1119 906 1312 657 
Q 1506 409 1894 409 
Q 2359 409 2629 706 
Q 2900 1003 2900 1516 
L 2900 3500 
L 3475 3500 
L 3475 0 
L 2900 0 
L 2900 538 
Q 2691 219 2414 64 
Q 2138 -91 1772 -91 
Q 1169 -91 856 284 
Q 544 659 544 1381 
z
M 1991 3584 
L 1991 3584 
z
" transform="scale(0.015625)"/>
      </defs>
      <use xlink:href="#DejaVuSans-43"/>
      <use xlink:href="#DejaVuSans-75" transform="translate(69.824219 0)"/>
      <use xlink:href="#DejaVuSans-72" transform="translate(133.203125 0)"/>
      <use xlink:href="#DejaVuSans-72" transform="translate(172.566406 0)"/>
      <use xlink:href="#DejaVuSans-65" transform="translate(211.429688 0)"/>
      <use xlink:href="#DejaVuSans-6e" transform="translate(272.953125 0)"/>
      <use xlink:href="#DejaVuSans-74" transform="translate(336.332031 0)"/>
      <use xlink:href="#DejaVuSans-20" transform="translate(375.541016 0)"/>
      <use xlink:href="#DejaVuSans-6f" transform="translate(407.328125 0)"/>
      <use xlink:href="#DejaVuSans-66" transform="translate(468.509766 0)"/>
      <use xlink:href="#DejaVuSans-66" transform="translate(503.714844 0)"/>
     </g>
    </g>
   </g>
   <g id="line2d_48">
    <path d="M 64.011023 203.984685 
L 66.16904 195.426427 
L 68.327057 189.396745 
L 70.485075 184.613668 
L 72.643092 180.733196 
L 76.959127 174.084962 
L 79.117144 171.193434 
L 83.433179 165.96339 
L 85.591196 163.494231 
L 89.907231 159.022646 
L 94.223266 154.947009 
L 98.5393 151.152065 
L 102.855335 147.704905 
L 107.17137 144.498223 
L 111.487405 141.49214 
L 115.803439 138.726316 
L 122.277491 134.915276 
L 126.593526 132.564414 
L 133.067578 129.346692 
L 139.54163 126.423634 
L 146.015682 123.758872 
L 152.489734 121.349103 
L 158.963787 119.149285 
L 165.437839 117.139502 
L 169.753873 115.903681 
L 171.911891 134.14194 
L 174.069908 142.127743 
L 176.227925 147.601685 
L 178.385943 151.844956 
L 180.54396 155.200831 
L 182.701978 158.118785 
L 184.859995 160.845017 
L 187.018012 163.257823 
L 191.334047 167.573568 
L 193.492064 169.605876 
L 197.808099 173.241599 
L 202.124134 176.528564 
L 206.440168 179.578513 
L 210.756203 182.324235 
L 217.230255 186.092175 
L 221.54629 188.36546 
L 228.020342 191.45752 
L 234.494394 194.266034 
L 240.968446 196.77517 
L 247.442498 199.049134 
L 253.91655 201.118458 
L 260.390602 202.98137 
L 269.022672 205.214581 
L 277.654741 207.180861 
L 286.286811 208.915003 
L 294.91888 210.454718 
L 305.708967 212.127938 
L 316.499054 213.571925 
L 327.289141 214.81292 
L 340.237245 216.080822 
L 353.185349 217.143362 
L 368.29147 218.169511 
L 385.555609 219.113439 
L 404.977766 219.945571 
L 426.557939 220.649883 
L 452.454147 221.268833 
L 484.824408 221.798043 
L 493.456477 221.905206 
L 493.456477 221.905206 
" clip-path="url(#p5a67d11855)" style="fill: none; stroke-dasharray: 2.5,4.125; stroke-dashoffset: 0; stroke: #000000; stroke-width: 2.5"/>
   </g>
  </g>
 </g>
 <defs>
  <clipPath id="p5a67d11855">
   <rect x="42.53875" y="7.2" width="472.39" height="225.88"/>
  </clipPath>
 </defs>
</svg>
