<?xml version="1.0" encoding="utf-8" standalone="no"?>
<!DOCTYPE svg PUBLIC "-//W3C//DTD SVG 1.1//EN"
  "http://www.w3.org/Graphics/SVG/1.1/DTD/svg11.dtd">
<svg xmlns:xlink="http://www.w3.org/1999/xlink" width="522.12875pt" height="271.61pt" viewBox="0 0 522.12875 271.61" xmlns="http://www.w3.org/2000/svg" version="1.1">
 <metadata>
  <rdf:RDF xmlns:dc="http://purl.org/dc/elements/1.1/" xmlns:cc="http://creativecommons.org/ns#" xmlns:rdf="http://www.w3.org/1999/02/22-rdf-syntax-ns#">
   <cc:Work>
    <dc:type rdf:resource="http://purl.org/dc/dcmitype/StillImage"/>
    <dc:date>2026-05-07T14:52:02.925132</dc:date>
    <dc:format>image/svg+xml</dc:format>
    <dc:creator>
     <cc:Agent>
      <dc:title>Matplotlib v3.10.8, https://matplotlib.org/</dc:title>
     </cc:Agent>
    </dc:creator>
   </cc:Work>
  </rdf:RDF>
 </metadata>
 <defs>
  <style type="text/css">*{stroke-linejoin: round; stroke-linecap: butt}</style>
 </defs>
 <g id="figure_1">
  <g id="patch_1">
   <path d="M 0 271.61 
L 522.12875 271.61 
L 522.12875 0 
L 0 0 
z
" style="fill: #ffffff"/>
  </g>
  <g id="axes_1">
   <g id="patch_2">
    <path d="M 42.53875 232.118125 
L 514.92875 232.118125 
L 514.92875 22.318125 
L 42.53875 22.318125 
z
" style="fill: #ffffff"/>
   </g>
   <g id="matplotlib.axis_1">
    <g id="xtick_1">
     <g id="line2d_1">
      <path d="M 64.011023 232.118125 
L 64.011023 22.318125 
" clip-path="url(#p7b088c084b)" style="fill: none; stroke-dasharray: 0.8,1.32; stroke-dashoffset: 0; stroke: #b0b0b0; stroke-opacity: 0.6; stroke-width: 0.8"/>
     </g>
     <g id="line2d_2">
      <defs>
       <path id="mc577e56b3a" d="M 0 0 
L 0 3.5 
" style="stroke: #000000; stroke-width: 0.8"/>
      </defs>
      <g>
       <use xlink:href="#mc577e56b3a" x="64.011023" y="232.118125" style="stroke: #000000; stroke-width: 0.8"/>
      </g>
     </g>
     <g id="text_1">
      <!-- 0 -->
      <g transform="translate(60.829773 246.716563) scale(0.1 -0.1)">
       <defs>
        <path id="DejaVuSans-30" d="M 2034 4250 
Q 1547 4250 1301 3770 
Q 1056 3291 1056 2328 
Q 1056 1369 1301 889 
Q 1547 409 2034 409 
Q 2525 409 2770 889 
Q 3016 1369 3016 2328 
Q 3016 3291 2770 3770 
Q 2525 4250 2034 4250 
z
M 2034 4750 
Q 2819 4750 3233 4129 
Q 3647 3509 3647 2328 
Q 3647 1150 3233 529 
Q 2819 -91 2034 -91 
Q 1250 -91 836 529 
Q 422 1150 422 2328 
Q 422 3509 836 4129 
Q 1250 4750 2034 4750 
z
" transform="scale(0.015625)"/>
       </defs>
       <use xlink:href="#DejaVuSans-30"/>
      </g>
     </g>
    </g>
    <g id="xtick_2">
     <g id="line2d_3">
      <path d="M 117.961457 232.118125 
L 117.961457 22.318125 
" clip-path="url(#p7b088c084b)" style="fill: none; stroke-dasharray: 0.8,1.32; stroke-dashoffset: 0; stroke: #b0b0b0; stroke-opacity: 0.6; stroke-width: 0.8"/>
     </g>
     <g id="line2d_4">
      <g>
       <use xlink:href="#mc577e56b3a" x="117.961457" y="232.118125" style="stroke: #000000; stroke-width: 0.8"/>
      </g>
     </g>
     <g id="text_2">
      <!-- 25 -->
      <g transform="translate(111.598957 246.716563) scale(0.1 -0.1)">
       <defs>
        <path id="DejaVuSans-32" d="M 1228 531 
L 3431 531 
L 3431 0 
L 469 0 
L 469 531 
Q 828 903 1448 1529 
Q 2069 2156 2228 2338 
Q 2531 2678 2651 2914 
Q 2772 3150 2772 3378 
Q 2772 3750 2511 3984 
Q 2250 4219 1831 4219 
Q 1534 4219 1204 4116 
Q 875 4013 500 3803 
L 500 4441 
Q 881 4594 1212 4672 
Q 1544 4750 1819 4750 
Q 2544 4750 2975 4387 
Q 3406 4025 3406 3419 
Q 3406 3131 3298 2873 
Q 3191 2616 2906 2266 
Q 2828 2175 2409 1742 
Q 1991 1309 1228 531 
z
" transform="scale(0.015625)"/>
        <path id="DejaVuSans-35" d="M 691 4666 
L 3169 4666 
L 3169 4134 
L 1269 4134 
L 1269 2991 
Q 1406 3038 1543 3061 
Q 1681 3084 1819 3084 
Q 2600 3084 3056 2656 
Q 3513 2228 3513 1497 
Q 3513 744 3044 326 
Q 2575 -91 1722 -91 
Q 1428 -91 1123 -41 
Q 819 9 494 109 
L 494 744 
Q 775 591 1075 516 
Q 1375 441 1709 441 
Q 2250 441 2565 725 
Q 2881 1009 2881 1497 
Q 2881 1984 2565 2268 
Q 2250 2553 1709 2553 
Q 1456 2553 1204 2497 
Q 953 2441 691 2322 
L 691 4666 
z
" transform="scale(0.015625)"/>
       </defs>
       <use xlink:href="#DejaVuSans-32"/>
       <use xlink:href="#DejaVuSans-35" transform="translate(63.623047 0)"/>
      </g>
     </g>
    </g>
    <g id="xtick_3">
     <g id="line2d_5">
      <path d="M 171.911891 232.118125 
L 171.911891 22.318125 
" clip-path="url(#p7b088c084b)" style="fill: none; stroke-dasharray: 0.8,1.32; stroke-dashoffset: 0; stroke: #b0b0b0; stroke-opacity: 0.6; stroke-width: 0.8"/>
     </g>
     <g id="line2d_6">
      <g>
       <use xlink:href="#mc577e56b3a" x="171.911891" y="232.118125" style="stroke: #000000; stroke-width: 0.8"/>
      </g>
     </g>
     <g id="text_3">
      <!-- 50 -->
      <g transform="translate(165.549391 246.716563) scale(0.1 -0.1)">
       <use xlink:href="#DejaVuSans-35"/>
       <use xlink:href="#DejaVuSans-30" transform="translate(63.623047 0)"/>
      </g>
     </g>
    </g>
    <g id="xtick_4">
     <g id="line2d_7">
      <path d="M 225.862325 232.118125 
L 225.862325 22.318125 
" clip-path="url(#p7b088c084b)" style="fill: none; stroke-dasharray: 0.8,1.32; stroke-dashoffset: 0; stroke: #b0b0b0; stroke-opacity: 0.6; stroke-width: 0.8"/>
     </g>
     <g id="line2d_8">
      <g>
       <use xlink:href="#mc577e56b3a" x="225.862325" y="232.118125" style="stroke: #000000; stroke-width: 0.8"/>
      </g>
     </g>
     <g id="text_4">
      <!-- 75 -->
      <g transform="translate(219.499825 246.716563) scale(0.1 -0.1)">
       <defs>
        <path id="DejaVuSans-37" d="M 525 4666 
L 3525 4666 
L 3525 4397 
L 1831 0 
L 1172 0 
L 2766 4134 
L 525 4134 
L 525 4666 
z
" transform="scale(0.015625)"/>
       </defs>
       <use xlink:href="#DejaVuSans-37"/>
       <use xlink:href="#DejaVuSans-35" transform="translate(63.623047 0)"/>
      </g>
     </g>
    </g>
    <g id="xtick_5">
     <g id="line2d_9">
      <path d="M 279.812759 232.118125 
L 279.812759 22.318125 
" clip-path="url(#p7b088c084b)" style="fill: none; stroke-dasharray: 0.8,1.32; stroke-dashoffset: 0; stroke: #b0b0b0; stroke-opacity: 0.6; stroke-width: 0.8"/>
     </g>
     <g id="line2d_10">
      <g>
       <use xlink:href="#mc577e56b3a" x="279.812759" y="232.118125" style="stroke: #000000; stroke-width: 0.8"/>
      </g>
     </g>
     <g id="text_5">
      <!-- 100 -->
      <g transform="translate(270.269009 246.716563) scale(0.1 -0.1)">
       <defs>
        <path id="DejaVuSans-31" d="M 794 531 
L 1825 531 
L 1825 4091 
L 703 3866 
L 703 4441 
L 1819 4666 
L 2450 4666 
L 2450 531 
L 3481 531 
L 3481 0 
L 794 0 
L 794 531 
z
" transform="scale(0.015625)"/>
       </defs>
       <use xlink:href="#DejaVuSans-31"/>
       <use xlink:href="#DejaVuSans-30" transform="translate(63.623047 0)"/>
       <use xlink:href="#DejaVuSans-30" transform="translate(127.246094 0)"/>
      </g>
     </g>
    </g>
    <g id="xtick_6">
     <g id="line2d_11">
      <path d="M 333.763193 232.118125 
L 333.763193 22.318125 
" clip-path="url(#p7b088c084b)" style="fill: none; stroke-dasharray: 0.8,1.32; stroke-dashoffset: 0; stroke: #b0b0b0; stroke-opacity: 0.6; stroke-width: 0.8"/>
     </g>
     <g id="line2d_12">
      <g>
       <use xlink:href="#mc577e56b3a" x="333.763193" y="232.118125" style="stroke: #000000; stroke-width: 0.8"/>
      </g>
     </g>
     <g id="text_6">
      <!-- 125 -->
      <g transform="translate(324.219443 246.716563) scale(0.1 -0.1)">
       <use xlink:href="#DejaVuSans-31"/>
       <use xlink:href="#DejaVuSans-32" transform="translate(63.623047 0)"/>
       <use xlink:href="#DejaVuSans-35" transform="translate(127.246094 0)"/>
      </g>
     </g>
    </g>
    <g id="xtick_7">
     <g id="line2d_13">
      <path d="M 387.713627 232.118125 
L 387.713627 22.318125 
" clip-path="url(#p7b088c084b)" style="fill: none; stroke-dasharray: 0.8,1.32; stroke-dashoffset: 0; stroke: #b0b0b0; stroke-opacity: 0.6; stroke-width: 0.8"/>
     </g>
     <g id="line2d_14">
      <g>
       <use xlink:href="#mc577e56b3a" x="387.713627" y="232.118125" style="stroke: #000000; stroke-width: 0.8"/>
      </g>
     </g>
     <g id="text_7">
      <!-- 150 -->
      <g transform="translate(378.169877 246.716563) scale(0.1 -0.1)">
       <use xlink:href="#DejaVuSans-31"/>
       <use xlink:href="#DejaVuSans-35" transform="translate(63.623047 0)"/>
       <use xlink:href="#DejaVuSans-30" transform="translate(127.246094 0)"/>
      </g>
     </g>
    </g>
    <g id="xtick_8">
     <g id="line2d_15">
      <path d="M 441.664061 232.118125 
L 441.664061 22.318125 
" clip-path="url(#p7b088c084b)" style="fill: none; stroke-dasharray: 0.8,1.32; stroke-dashoffset: 0; stroke: #b0b0b0; stroke-opacity: 0.6; stroke-width: 0.8"/>
     </g>
     <g id="line2d_16">
      <g>
       <use xlink:href="#mc577e56b3a" x="441.664061" y="232.118125" style="stroke: #000000; stroke-width: 0.8"/>
      </g>
     </g>
     <g id="text_8">
      <!-- 175 -->
      <g transform="translate(432.120311 246.716563) scale(0.1 -0.1)">
       <use xlink:href="#DejaVuSans-31"/>
       <use xlink:href="#DejaVuSans-37" transform="translate(63.623047 0)"/>
       <use xlink:href="#DejaVuSans-35" transform="translate(127.246094 0)"/>
      </g>
     </g>
    </g>
    <g id="xtick_9">
     <g id="line2d_17">
      <path d="M 495.614495 232.118125 
L 495.614495 22.318125 
" clip-path="url(#p7b088c084b)" style="fill: none; stroke-dasharray: 0.8,1.32; stroke-dashoffset: 0; stroke: #b0b0b0; stroke-opacity: 0.6; stroke-width: 0.8"/>
     </g>
     <g id="line2d_18">
      <g>
       <use xlink:href="#mc577e56b3a" x="495.614495" y="232.118125" style="stroke: #000000; stroke-width: 0.8"/>
      </g>
     </g>
     <g id="text_9">
      <!-- 200 -->
      <g transform="translate(486.070745 246.716563) scale(0.1 -0.1)">
       <use xlink:href="#DejaVuSans-32"/>
       <use xlink:href="#DejaVuSans-30" transform="translate(63.623047 0)"/>
       <use xlink:href="#DejaVuSans-30" transform="translate(127.246094 0)"/>
      </g>
     </g>
    </g>
    <g id="text_10">
     <!-- Time Step -->
     <g transform="translate(248.484375 261.914375) scale(0.12 -0.12)">
      <defs>
       <path id="DejaVuSans-54" d="M -19 4666 
L 3928 4666 
L 3928 4134 
L 2272 4134 
L 2272 0 
L 1638 0 
L 1638 4134 
L -19 4134 
L -19 4666 
z
" transform="scale(0.015625)"/>
       <path id="DejaVuSans-69" d="M 603 3500 
L 1178 3500 
L 1178 0 
L 603 0 
L 603 3500 
z
M 603 4863 
L 1178 4863 
L 1178 4134 
L 603 4134 
L 603 4863 
z
" transform="scale(0.015625)"/>
       <path id="DejaVuSans-6d" d="M 3328 2828 
Q 3544 3216 3844 3400 
Q 4144 3584 4550 3584 
Q 5097 3584 5394 3201 
Q 5691 2819 5691 2113 
L 5691 0 
L 5113 0 
L 5113 2094 
Q 5113 2597 4934 2840 
Q 4756 3084 4391 3084 
Q 3944 3084 3684 2787 
Q 3425 2491 3425 1978 
L 3425 0 
L 2847 0 
L 2847 2094 
Q 2847 2600 2669 2842 
Q 2491 3084 2119 3084 
Q 1678 3084 1418 2786 
Q 1159 2488 1159 1978 
L 1159 0 
L 581 0 
L 581 3500 
L 1159 3500 
L 1159 2956 
Q 1356 3278 1631 3431 
Q 1906 3584 2284 3584 
Q 2666 3584 2933 3390 
Q 3200 3197 3328 2828 
z
" transform="scale(0.015625)"/>
       <path id="DejaVuSans-65" d="M 3597 1894 
L 3597 1613 
L 953 1613 
Q 991 1019 1311 708 
Q 1631 397 2203 397 
Q 2534 397 2845 478 
Q 3156 559 3463 722 
L 3463 178 
Q 3153 47 2828 -22 
Q 2503 -91 2169 -91 
Q 1331 -91 842 396 
Q 353 884 353 1716 
Q 353 2575 817 3079 
Q 1281 3584 2069 3584 
Q 2775 3584 3186 3129 
Q 3597 2675 3597 1894 
z
M 3022 2063 
Q 3016 2534 2758 2815 
Q 2500 3097 2075 3097 
Q 1594 3097 1305 2825 
Q 1016 2553 972 2059 
L 3022 2063 
z
" transform="scale(0.015625)"/>
       <path id="DejaVuSans-20" transform="scale(0.015625)"/>
       <path id="DejaVuSans-53" d="M 3425 4513 
L 3425 3897 
Q 3066 4069 2747 4153 
Q 2428 4238 2131 4238 
Q 1616 4238 1336 4038 
Q 1056 3838 1056 3469 
Q 1056 3159 1242 3001 
Q 1428 2844 1947 2747 
L 2328 2669 
Q 3034 2534 3370 2195 
Q 3706 1856 3706 1288 
Q 3706 609 3251 259 
Q 2797 -91 1919 -91 
Q 1588 -91 1214 -16 
Q 841 59 441 206 
L 441 856 
Q 825 641 1194 531 
Q 1563 422 1919 422 
Q 2459 422 2753 634 
Q 3047 847 3047 1241 
Q 3047 1584 2836 1778 
Q 2625 1972 2144 2069 
L 1759 2144 
Q 1053 2284 737 2584 
Q 422 2884 422 3419 
Q 422 4038 858 4394 
Q 1294 4750 2059 4750 
Q 2388 4750 2728 4690 
Q 3069 4631 3425 4513 
z
" transform="scale(0.015625)"/>
       <path id="DejaVuSans-74" d="M 1172 4494 
L 1172 3500 
L 2356 3500 
L 2356 3053 
L 1172 3053 
L 1172 1153 
Q 1172 725 1289 603 
Q 1406 481 1766 481 
L 2356 481 
L 2356 0 
L 1766 0 
Q 1100 0 847 248 
Q 594 497 594 1153 
L 594 3053 
L 172 3053 
L 172 3500 
L 594 3500 
L 594 4494 
L 1172 4494 
z
" transform="scale(0.015625)"/>
       <path id="DejaVuSans-70" d="M 1159 525 
L 1159 -1331 
L 581 -1331 
L 581 3500 
L 1159 3500 
L 1159 2969 
Q 1341 3281 1617 3432 
Q 1894 3584 2278 3584 
Q 2916 3584 3314 3078 
Q 3713 2572 3713 1747 
Q 3713 922 3314 415 
Q 2916 -91 2278 -91 
Q 1894 -91 1617 61 
Q 1341 213 1159 525 
z
M 3116 1747 
Q 3116 2381 2855 2742 
Q 2594 3103 2138 3103 
Q 1681 3103 1420 2742 
Q 1159 2381 1159 1747 
Q 1159 1113 1420 752 
Q 1681 391 2138 391 
Q 2594 391 2855 752 
Q 3116 1113 3116 1747 
z
" transform="scale(0.015625)"/>
      </defs>
      <use xlink:href="#DejaVuSans-54"/>
      <use xlink:href="#DejaVuSans-69" transform="translate(57.958984 0)"/>
      <use xlink:href="#DejaVuSans-6d" transform="translate(85.742188 0)"/>
      <use xlink:href="#DejaVuSans-65" transform="translate(183.154297 0)"/>
      <use xlink:href="#DejaVuSans-20" transform="translate(244.677734 0)"/>
      <use xlink:href="#DejaVuSans-53" transform="translate(276.464844 0)"/>
      <use xlink:href="#DejaVuSans-74" transform="translate(339.941406 0)"/>
      <use xlink:href="#DejaVuSans-65" transform="translate(379.150391 0)"/>
      <use xlink:href="#DejaVuSans-70" transform="translate(440.673828 0)"/>
     </g>
    </g>
   </g>
   <g id="matplotlib.axis_2">
    <g id="ytick_1">
     <g id="line2d_19">
      <path d="M 42.53875 222.581879 
L 514.92875 222.581879 
" clip-path="url(#p7b088c084b)" style="fill: none; stroke-dasharray: 0.8,1.32; stroke-dashoffset: 0; stroke: #b0b0b0; stroke-opacity: 0.6; stroke-width: 0.8"/>
     </g>
     <g id="line2d_20">
      <defs>
       <path id="m1bce5e0354" d="M 0 0 
L -3.5 0 
" style="stroke: #000000; stroke-width: 0.8"/>
      </defs>
      <g>
       <use xlink:href="#m1bce5e0354" x="42.53875" y="222.581879" style="stroke: #000000; stroke-width: 0.8"/>
      </g>
     </g>
     <g id="text_11">
      <!-- 0 -->
      <g transform="translate(29.17625 226.381098) scale(0.1 -0.1)">
       <use xlink:href="#DejaVuSans-30"/>
      </g>
     </g>
    </g>
    <g id="ytick_2">
     <g id="line2d_21">
      <path d="M 42.53875 184.108665 
L 514.92875 184.108665 
" clip-path="url(#p7b088c084b)" style="fill: none; stroke-dasharray: 0.8,1.32; stroke-dashoffset: 0; stroke: #b0b0b0; stroke-opacity: 0.6; stroke-width: 0.8"/>
     </g>
     <g id="line2d_22">
      <g>
       <use xlink:href="#m1bce5e0354" x="42.53875" y="184.108665" style="stroke: #000000; stroke-width: 0.8"/>
      </g>
     </g>
     <g id="text_12">
      <!-- 2 -->
      <g transform="translate(29.17625 187.907884) scale(0.1 -0.1)">
       <use xlink:href="#DejaVuSans-32"/>
      </g>
     </g>
    </g>
    <g id="ytick_3">
     <g id="line2d_23">
      <path d="M 42.53875 145.635451 
L 514.92875 145.635451 
" clip-path="url(#p7b088c084b)" style="fill: none; stroke-dasharray: 0.8,1.32; stroke-dashoffset: 0; stroke: #b0b0b0; stroke-opacity: 0.6; stroke-width: 0.8"/>
     </g>
     <g id="line2d_24">
      <g>
       <use xlink:href="#m1bce5e0354" x="42.53875" y="145.635451" style="stroke: #000000; stroke-width: 0.8"/>
      </g>
     </g>
     <g id="text_13">
      <!-- 4 -->
      <g transform="translate(29.17625 149.43467) scale(0.1 -0.1)">
       <defs>
        <path id="DejaVuSans-34" d="M 2419 4116 
L 825 1625 
L 2419 1625 
L 2419 4116 
z
M 2253 4666 
L 3047 4666 
L 3047 1625 
L 3713 1625 
L 3713 1100 
L 3047 1100 
L 3047 0 
L 2419 0 
L 2419 1100 
L 313 1100 
L 313 1709 
L 2253 4666 
z
" transform="scale(0.015625)"/>
       </defs>
       <use xlink:href="#DejaVuSans-34"/>
      </g>
     </g>
    </g>
    <g id="ytick_4">
     <g id="line2d_25">
      <path d="M 42.53875 107.162237 
L 514.92875 107.162237 
" clip-path="url(#p7b088c084b)" style="fill: none; stroke-dasharray: 0.8,1.32; stroke-dashoffset: 0; stroke: #b0b0b0; stroke-opacity: 0.6; stroke-width: 0.8"/>
     </g>
     <g id="line2d_26">
      <g>
       <use xlink:href="#m1bce5e0354" x="42.53875" y="107.162237" style="stroke: #000000; stroke-width: 0.8"/>
      </g>
     </g>
     <g id="text_14">
      <!-- 6 -->
      <g transform="translate(29.17625 110.961455) scale(0.1 -0.1)">
       <defs>
        <path id="DejaVuSans-36" d="M 2113 2584 
Q 1688 2584 1439 2293 
Q 1191 2003 1191 1497 
Q 1191 994 1439 701 
Q 1688 409 2113 409 
Q 2538 409 2786 701 
Q 3034 994 3034 1497 
Q 3034 2003 2786 2293 
Q 2538 2584 2113 2584 
z
M 3366 4563 
L 3366 3988 
Q 3128 4100 2886 4159 
Q 2644 4219 2406 4219 
Q 1781 4219 1451 3797 
Q 1122 3375 1075 2522 
Q 1259 2794 1537 2939 
Q 1816 3084 2150 3084 
Q 2853 3084 3261 2657 
Q 3669 2231 3669 1497 
Q 3669 778 3244 343 
Q 2819 -91 2113 -91 
Q 1303 -91 875 529 
Q 447 1150 447 2328 
Q 447 3434 972 4092 
Q 1497 4750 2381 4750 
Q 2619 4750 2861 4703 
Q 3103 4656 3366 4563 
z
" transform="scale(0.015625)"/>
       </defs>
       <use xlink:href="#DejaVuSans-36"/>
      </g>
     </g>
    </g>
    <g id="ytick_5">
     <g id="line2d_27">
      <path d="M 42.53875 68.689023 
L 514.92875 68.689023 
" clip-path="url(#p7b088c084b)" style="fill: none; stroke-dasharray: 0.8,1.32; stroke-dashoffset: 0; stroke: #b0b0b0; stroke-opacity: 0.6; stroke-width: 0.8"/>
     </g>
     <g id="line2d_28">
      <g>
       <use xlink:href="#m1bce5e0354" x="42.53875" y="68.689023" style="stroke: #000000; stroke-width: 0.8"/>
      </g>
     </g>
     <g id="text_15">
      <!-- 8 -->
      <g transform="translate(29.17625 72.488241) scale(0.1 -0.1)">
       <defs>
        <path id="DejaVuSans-38" d="M 2034 2216 
Q 1584 2216 1326 1975 
Q 1069 1734 1069 1313 
Q 1069 891 1326 650 
Q 1584 409 2034 409 
Q 2484 409 2743 651 
Q 3003 894 3003 1313 
Q 3003 1734 2745 1975 
Q 2488 2216 2034 2216 
z
M 1403 2484 
Q 997 2584 770 2862 
Q 544 3141 544 3541 
Q 544 4100 942 4425 
Q 1341 4750 2034 4750 
Q 2731 4750 3128 4425 
Q 3525 4100 3525 3541 
Q 3525 3141 3298 2862 
Q 3072 2584 2669 2484 
Q 3125 2378 3379 2068 
Q 3634 1759 3634 1313 
Q 3634 634 3220 271 
Q 2806 -91 2034 -91 
Q 1263 -91 848 271 
Q 434 634 434 1313 
Q 434 1759 690 2068 
Q 947 2378 1403 2484 
z
M 1172 3481 
Q 1172 3119 1398 2916 
Q 1625 2713 2034 2713 
Q 2441 2713 2670 2916 
Q 2900 3119 2900 3481 
Q 2900 3844 2670 4047 
Q 2441 4250 2034 4250 
Q 1625 4250 1398 4047 
Q 1172 3844 1172 3481 
z
" transform="scale(0.015625)"/>
       </defs>
       <use xlink:href="#DejaVuSans-38"/>
      </g>
     </g>
    </g>
    <g id="ytick_6">
     <g id="line2d_29">
      <path d="M 42.53875 30.215808 
L 514.92875 30.215808 
" clip-path="url(#p7b088c084b)" style="fill: none; stroke-dasharray: 0.8,1.32; stroke-dashoffset: 0; stroke: #b0b0b0; stroke-opacity: 0.6; stroke-width: 0.8"/>
     </g>
     <g id="line2d_30">
      <g>
       <use xlink:href="#m1bce5e0354" x="42.53875" y="30.215808" style="stroke: #000000; stroke-width: 0.8"/>
      </g>
     </g>
     <g id="text_16">
      <!-- 10 -->
      <g transform="translate(22.81375 34.015027) scale(0.1 -0.1)">
       <use xlink:href="#DejaVuSans-31"/>
       <use xlink:href="#DejaVuSans-30" transform="translate(63.623047 0)"/>
      </g>
     </g>
    </g>
    <g id="text_17">
     <!-- Membrane Potential -->
     <g transform="translate(16.318125 187.565938) rotate(-90) scale(0.12 -0.12)">
      <defs>
       <path id="DejaVuSans-4d" d="M 628 4666 
L 1569 4666 
L 2759 1491 
L 3956 4666 
L 4897 4666 
L 4897 0 
L 4281 0 
L 4281 4097 
L 3078 897 
L 2444 897 
L 1241 4097 
L 1241 0 
L 628 0 
L 628 4666 
z
" transform="scale(0.015625)"/>
       <path id="DejaVuSans-62" d="M 3116 1747 
Q 3116 2381 2855 2742 
Q 2594 3103 2138 3103 
Q 1681 3103 1420 2742 
Q 1159 2381 1159 1747 
Q 1159 1113 1420 752 
Q 1681 391 2138 391 
Q 2594 391 2855 752 
Q 3116 1113 3116 1747 
z
M 1159 2969 
Q 1341 3281 1617 3432 
Q 1894 3584 2278 3584 
Q 2916 3584 3314 3078 
Q 3713 2572 3713 1747 
Q 3713 922 3314 415 
Q 2916 -91 2278 -91 
Q 1894 -91 1617 61 
Q 1341 213 1159 525 
L 1159 0 
L 581 0 
L 581 4863 
L 1159 4863 
L 1159 2969 
z
" transform="scale(0.015625)"/>
       <path id="DejaVuSans-72" d="M 2631 2963 
Q 2534 3019 2420 3045 
Q 2306 3072 2169 3072 
Q 1681 3072 1420 2755 
Q 1159 2438 1159 1844 
L 1159 0 
L 581 0 
L 581 3500 
L 1159 3500 
L 1159 2956 
Q 1341 3275 1631 3429 
Q 1922 3584 2338 3584 
Q 2397 3584 2469 3576 
Q 2541 3569 2628 3553 
L 2631 2963 
z
" transform="scale(0.015625)"/>
       <path id="DejaVuSans-61" d="M 2194 1759 
Q 1497 1759 1228 1600 
Q 959 1441 959 1056 
Q 959 750 1161 570 
Q 1363 391 1709 391 
Q 2188 391 2477 730 
Q 2766 1069 2766 1631 
L 2766 1759 
L 2194 1759 
z
M 3341 1997 
L 3341 0 
L 2766 0 
L 2766 531 
Q 2569 213 2275 61 
Q 1981 -91 1556 -91 
Q 1019 -91 701 211 
Q 384 513 384 1019 
Q 384 1609 779 1909 
Q 1175 2209 1959 2209 
L 2766 2209 
L 2766 2266 
Q 2766 2663 2505 2880 
Q 2244 3097 1772 3097 
Q 1472 3097 1187 3025 
Q 903 2953 641 2809 
L 641 3341 
Q 956 3463 1253 3523 
Q 1550 3584 1831 3584 
Q 2591 3584 2966 3190 
Q 3341 2797 3341 1997 
z
" transform="scale(0.015625)"/>
       <path id="DejaVuSans-6e" d="M 3513 2113 
L 3513 0 
L 2938 0 
L 2938 2094 
Q 2938 2591 2744 2837 
Q 2550 3084 2163 3084 
Q 1697 3084 1428 2787 
Q 1159 2491 1159 1978 
L 1159 0 
L 581 0 
L 581 3500 
L 1159 3500 
L 1159 2956 
Q 1366 3272 1645 3428 
Q 1925 3584 2291 3584 
Q 2894 3584 3203 3211 
Q 3513 2838 3513 2113 
z
" transform="scale(0.015625)"/>
       <path id="DejaVuSans-50" d="M 1259 4147 
L 1259 2394 
L 2053 2394 
Q 2494 2394 2734 2622 
Q 2975 2850 2975 3272 
Q 2975 3691 2734 3919 
Q 2494 4147 2053 4147 
L 1259 4147 
z
M 628 4666 
L 2053 4666 
Q 2838 4666 3239 4311 
Q 3641 3956 3641 3272 
Q 3641 2581 3239 2228 
Q 2838 1875 2053 1875 
L 1259 1875 
L 1259 0 
L 628 0 
L 628 4666 
z
" transform="scale(0.015625)"/>
       <path id="DejaVuSans-6f" d="M 1959 3097 
Q 1497 3097 1228 2736 
Q 959 2375 959 1747 
Q 959 1119 1226 758 
Q 1494 397 1959 397 
Q 2419 397 2687 759 
Q 2956 1122 2956 1747 
Q 2956 2369 2687 2733 
Q 2419 3097 1959 3097 
z
M 1959 3584 
Q 2709 3584 3137 3096 
Q 3566 2609 3566 1747 
Q 3566 888 3137 398 
Q 2709 -91 1959 -91 
Q 1206 -91 779 398 
Q 353 888 353 1747 
Q 353 2609 779 3096 
Q 1206 3584 1959 3584 
z
" transform="scale(0.015625)"/>
       <path id="DejaVuSans-6c" d="M 603 4863 
L 1178 4863 
L 1178 0 
L 603 0 
L 603 4863 
z
" transform="scale(0.015625)"/>
      </defs>
      <use xlink:href="#DejaVuSans-4d"/>
      <use xlink:href="#DejaVuSans-65" transform="translate(86.279297 0)"/>
      <use xlink:href="#DejaVuSans-6d" transform="translate(147.802734 0)"/>
      <use xlink:href="#DejaVuSans-62" transform="translate(245.214844 0)"/>
      <use xlink:href="#DejaVuSans-72" transform="translate(308.691406 0)"/>
      <use xlink:href="#DejaVuSans-61" transform="translate(349.804688 0)"/>
      <use xlink:href="#DejaVuSans-6e" transform="translate(411.083984 0)"/>
      <use xlink:href="#DejaVuSans-65" transform="translate(474.462891 0)"/>
      <use xlink:href="#DejaVuSans-20" transform="translate(535.986328 0)"/>
      <use xlink:href="#DejaVuSans-50" transform="translate(567.773438 0)"/>
      <use xlink:href="#DejaVuSans-6f" transform="translate(624.451172 0)"/>
      <use xlink:href="#DejaVuSans-74" transform="translate(685.632812 0)"/>
      <use xlink:href="#DejaVuSans-65" transform="translate(724.841797 0)"/>
      <use xlink:href="#DejaVuSans-6e" transform="translate(786.365234 0)"/>
      <use xlink:href="#DejaVuSans-74" transform="translate(849.744141 0)"/>
      <use xlink:href="#DejaVuSans-69" transform="translate(888.953125 0)"/>
      <use xlink:href="#DejaVuSans-61" transform="translate(916.736328 0)"/>
      <use xlink:href="#DejaVuSans-6c" transform="translate(978.015625 0)"/>
     </g>
    </g>
   </g>
   <g id="line2d_31">
    <path d="M 64.011023 205.094055 
L 66.16904 203.504252 
L 68.327057 202.644314 
L 70.485075 202.048007 
L 74.80111 201.214439 
L 79.117144 200.622246 
L 85.591196 199.961864 
L 94.223266 199.311055 
L 107.17137 198.594073 
L 124.435509 197.893764 
L 148.1737 197.18248 
L 169.753873 196.680417 
L 171.911891 214.123337 
L 174.069908 215.669051 
L 176.227925 216.485687 
L 178.385943 217.039449 
L 182.701978 217.790091 
L 187.018012 218.302081 
L 193.492064 218.846877 
L 202.124134 219.351568 
L 215.072238 219.864404 
L 232.336377 220.316243 
L 258.232585 220.750897 
L 294.91888 221.129574 
L 351.027332 221.469262 
L 439.506043 221.762084 
L 493.456477 221.873418 
L 493.456477 221.873418 
" clip-path="url(#p7b088c084b)" style="fill: none; stroke: #0072b2; stroke-width: 1.5; stroke-linecap: square"/>
   </g>
   <g id="line2d_32">
    <path d="M 64.011023 205.094055 
L 66.16904 200.324648 
L 68.327057 197.354608 
L 70.485075 195.143404 
L 72.643092 193.360358 
L 74.80111 191.855721 
L 76.959127 190.548137 
L 81.275162 188.343278 
L 85.591196 186.514895 
L 89.907231 184.945214 
L 94.223266 183.565402 
L 100.697318 181.759497 
L 107.17137 180.190161 
L 115.803439 178.367766 
L 124.435509 176.776567 
L 135.225596 175.03045 
L 148.1737 173.202886 
L 161.121804 171.596217 
L 169.753873 170.622366 
L 171.911891 187.877234 
L 174.069908 192.417587 
L 176.227925 195.162339 
L 178.385943 197.151894 
L 180.54396 198.716805 
L 182.701978 200.006707 
L 184.859995 201.102845 
L 189.17603 202.894268 
L 193.492064 204.321178 
L 197.808099 205.500642 
L 204.282151 206.947917 
L 210.756203 208.123043 
L 219.388273 209.397245 
L 228.020342 210.434292 
L 238.810429 211.495048 
L 251.758533 212.522528 
L 266.864655 213.483816 
L 284.128793 214.363348 
L 305.708967 215.23485 
L 331.605175 216.051674 
L 363.975436 216.837522 
L 402.819748 217.553432 
L 452.454147 218.23661 
L 493.456477 218.671285 
L 493.456477 218.671285 
" clip-path="url(#p7b088c084b)" style="fill: none; stroke: #d55e00; stroke-width: 1.5; stroke-linecap: square"/>
   </g>
   <g id="line2d_33">
    <path d="M 64.011023 205.094055 
L 66.16904 197.145043 
L 68.327057 191.544604 
L 70.485075 187.102026 
L 72.643092 183.373594 
L 74.80111 180.138816 
L 76.959127 177.269848 
L 79.117144 174.684997 
L 81.275162 172.328426 
L 83.433179 170.160044 
L 87.749214 166.275177 
L 92.065248 162.862795 
L 96.381283 159.815785 
L 100.697318 157.060992 
L 105.013353 154.545954 
L 109.329387 152.23162 
L 115.803439 149.072743 
L 122.277491 146.223766 
L 128.751544 143.629745 
L 135.225596 141.249459 
L 143.857665 138.354285 
L 152.489734 135.725725 
L 161.121804 133.32046 
L 169.753873 131.105045 
L 171.911891 148.065461 
L 174.069908 155.496898 
L 176.227925 160.58926 
L 178.385943 164.532935 
L 180.54396 167.771335 
L 182.701978 170.524663 
L 184.859995 172.920485 
L 187.018012 175.040233 
L 189.17603 176.939493 
L 191.334047 178.658118 
L 195.650082 181.665229 
L 199.966116 184.22746 
L 204.282151 186.450364 
L 208.598186 188.405664 
L 212.914221 190.144502 
L 217.230255 191.704715 
L 223.704307 193.771373 
L 230.178359 195.57185 
L 236.652411 197.158006 
L 245.284481 199.004564 
L 253.91655 200.604467 
L 264.706637 202.329953 
L 275.496724 203.81312 
L 288.444828 205.341132 
L 301.392932 206.651346 
L 316.499054 207.962817 
L 333.763193 209.236244 
L 353.185349 210.445085 
L 374.765522 211.573385 
L 400.661731 212.699134 
L 430.873974 213.775434 
L 465.402252 214.773773 
L 493.456477 215.447552 
L 493.456477 215.447552 
" clip-path="url(#p7b088c084b)" style="fill: none; stroke: #009e73; stroke-width: 1.5; stroke-linecap: square"/>
   </g>
   <g id="line2d_34">
    <path d="M 64.011023 205.094055 
L 66.16904 193.965439 
L 68.327057 185.2143 
L 70.485075 177.859757 
L 72.643092 171.468005 
L 74.80111 165.797324 
L 76.959127 160.694811 
L 79.117144 156.055634 
L 81.275162 151.803799 
L 83.433179 147.881918 
L 85.591196 144.245281 
L 87.749214 140.858185 
L 92.065248 134.721284 
L 96.381283 129.292037 
L 100.697318 124.441701 
L 105.013353 120.074057 
L 109.329387 116.115002 
L 113.645422 112.506091 
L 117.961457 109.200334 
L 122.277491 106.159342 
L 126.593526 103.351327 
L 130.909561 100.749665 
L 135.225596 98.33183 
L 141.699648 95.008453 
L 148.1737 92.002037 
L 154.647752 89.268863 
L 161.121804 86.773096 
L 167.595856 84.485026 
L 169.753873 83.764073 
L 171.911891 100.550408 
L 174.069908 110.996222 
L 176.227925 119.082514 
L 178.385943 125.789471 
L 180.54396 131.550235 
L 182.701978 136.605902 
L 184.859995 141.108779 
L 187.018012 145.163134 
L 189.17603 148.844422 
L 191.334047 152.209518 
L 193.492064 155.302647 
L 195.650082 158.159044 
L 197.808099 160.80735 
L 202.124134 165.57049 
L 206.440168 169.739928 
L 210.756203 173.423602 
L 215.072238 176.703027 
L 219.388273 179.641413 
L 223.704307 182.288819 
L 228.020342 184.685588 
L 232.336377 186.864702 
L 236.652411 188.853464 
L 243.126464 191.528671 
L 249.600516 193.888964 
L 256.074568 195.983915 
L 262.54862 197.853245 
L 269.022672 199.529189 
L 277.654741 201.508024 
L 286.286811 203.240218 
L 294.91888 204.765775 
L 305.708967 206.430318 
L 316.499054 207.871121 
L 329.447158 209.358547 
L 342.395262 210.630754 
L 357.501384 211.895417 
L 374.765522 213.109041 
L 394.187679 214.242019 
L 415.767852 215.27705 
L 441.664061 216.282224 
L 471.876304 217.211597 
L 493.456477 217.753963 
L 493.456477 217.753963 
" clip-path="url(#p7b088c084b)" style="fill: none; stroke: #cc79a7; stroke-width: 1.5; stroke-linecap: square"/>
   </g>
   <g id="line2d_35">
    <path d="M 64.011023 205.094055 
L 66.16904 190.785834 
L 68.327057 178.363698 
L 70.485075 167.352478 
L 72.643092 157.48278 
L 74.80111 148.57272 
L 76.959127 140.487712 
L 79.117144 133.122546 
L 81.275162 126.391975 
L 83.433179 120.225188 
L 85.591196 114.562291 
L 87.749214 109.351928 
L 89.907231 104.549595 
L 92.065248 100.116395 
L 94.223266 96.0181 
L 96.381283 92.224415 
L 98.5393 88.708395 
L 100.697318 85.44598 
L 102.855335 82.415603 
L 105.013353 79.597874 
L 107.17137 76.975313 
L 111.487405 72.253986 
L 115.803439 68.142109 
L 120.119474 64.549171 
L 124.435509 61.399873 
L 128.751544 58.631218 
L 133.067578 56.190243 
L 137.383613 54.032228 
L 141.699648 52.119265 
L 146.015682 50.419106 
L 150.331717 48.904229 
L 156.805769 46.928708 
L 163.279821 45.251853 
L 169.753873 43.82088 
L 171.911891 60.878764 
L 174.069908 74.778225 
L 176.227925 86.811518 
L 178.385943 97.452632 
L 180.54396 106.969862 
L 182.701978 115.544064 
L 184.859995 123.308866 
L 187.018012 130.368579 
L 189.17603 136.807613 
L 191.334047 142.695996 
L 193.492064 148.092887 
L 195.650082 153.048954 
L 197.808099 157.60806 
L 199.966116 161.808495 
L 202.124134 165.683923 
L 204.282151 169.264109 
L 206.440168 172.575498 
L 208.598186 175.641684 
L 210.756203 178.483795 
L 212.914221 181.120807 
L 215.072238 183.569812 
L 219.388273 187.964072 
L 223.704307 191.773418 
L 228.020342 195.085992 
L 232.336377 197.974991 
L 236.652411 200.501538 
L 240.968446 202.716929 
L 245.284481 204.664392 
L 249.600516 206.380505 
L 253.91655 207.896322 
L 258.232585 209.238294 
L 264.706637 210.973827 
L 271.180689 212.431437 
L 277.654741 213.661469 
L 286.286811 215.016084 
L 294.91888 216.111684 
L 303.55095 217.00473 
L 314.341036 217.900689 
L 327.289141 218.732711 
L 342.395262 219.46191 
L 359.659401 220.074108 
L 381.239575 220.618681 
L 409.2938 221.096817 
L 448.138113 221.513287 
L 493.456477 221.807158 
L 493.456477 221.807158 
" clip-path="url(#p7b088c084b)" style="fill: none; stroke: #56b4e9; stroke-width: 1.5; stroke-linecap: square"/>
   </g>
   <g id="line2d_36">
    <path d="M 64.011023 205.094055 
L 66.16904 189.196032 
L 68.327057 174.743285 
L 70.485075 161.604423 
L 72.643092 149.660004 
L 74.80111 138.80144 
L 76.959127 128.930019 
L 79.117144 119.956 
L 81.275162 111.797801 
L 83.433179 104.381256 
L 85.591196 97.638943 
L 87.749214 91.509567 
L 89.907231 85.937407 
L 92.065248 80.871807 
L 94.223266 76.266716 
L 96.381283 72.08027 
L 98.5393 68.27441 
L 100.697318 64.814537 
L 102.855335 61.669198 
L 105.013353 58.809799 
L 107.17137 56.210345 
L 109.329387 53.847206 
L 111.487405 51.698897 
L 113.645422 49.745889 
L 115.803439 47.970427 
L 117.961457 46.356371 
L 122.277491 43.555116 
L 126.593526 41.24003 
L 130.909561 39.326735 
L 135.225596 37.7455 
L 139.54163 36.438694 
L 143.857665 35.358689 
L 148.1737 34.466123 
L 154.647752 33.409133 
L 161.121804 32.615 
L 167.595856 32.018357 
L 169.753873 31.854489 
L 171.911891 49.193342 
L 174.069908 64.955937 
L 176.227925 79.285568 
L 178.385943 92.312505 
L 180.54396 104.155176 
L 182.701978 114.92124 
L 184.859995 124.70857 
L 187.018012 133.606144 
L 189.17603 141.694847 
L 191.334047 149.048214 
L 193.492064 155.733092 
L 195.650082 161.810255 
L 197.808099 167.334948 
L 199.966116 172.357396 
L 202.124134 176.923258 
L 204.282151 181.074042 
L 206.440168 184.847482 
L 208.598186 188.277882 
L 210.756203 191.396427 
L 212.914221 194.231468 
L 215.072238 196.808778 
L 217.230255 199.151787 
L 219.388273 201.281796 
L 221.54629 203.218167 
L 223.704307 204.978504 
L 225.862325 206.578811 
L 230.178359 209.356203 
L 234.494394 211.651568 
L 238.810429 213.548565 
L 243.126464 215.11633 
L 247.442498 216.412004 
L 251.758533 217.482809 
L 256.074568 218.367771 
L 262.54862 219.415758 
L 269.022672 220.203125 
L 277.654741 220.957158 
L 286.286811 221.472173 
L 297.076898 221.892839 
L 312.183019 222.228293 
L 333.763193 222.445556 
L 370.449488 222.554908 
L 491.29846 222.58175 
L 493.456477 222.581761 
L 493.456477 222.581761 
" clip-path="url(#p7b088c084b)" style="fill: none; stroke: #e69f00; stroke-width: 1.5; stroke-linecap: square"/>
   </g>
   <g id="line2d_37">
    <path d="M 171.911891 232.118125 
L 171.911891 22.318125 
" clip-path="url(#p7b088c084b)" style="fill: none; stroke-dasharray: 5.55,2.4; stroke-dashoffset: 0; stroke: #808080; stroke-opacity: 0.7; stroke-width: 1.5"/>
   </g>
   <g id="patch_3">
    <path d="M 42.53875 232.118125 
L 42.53875 22.318125 
" style="fill: none; stroke: #000000; stroke-width: 0.8; stroke-linejoin: miter; stroke-linecap: square"/>
   </g>
   <g id="patch_4">
    <path d="M 514.92875 232.118125 
L 514.92875 22.318125 
" style="fill: none; stroke: #000000; stroke-width: 0.8; stroke-linejoin: miter; stroke-linecap: square"/>
   </g>
   <g id="patch_5">
    <path d="M 42.53875 232.118125 
L 514.92875 232.118125 
" style="fill: none; stroke: #000000; stroke-width: 0.8; stroke-linejoin: miter; stroke-linecap: square"/>
   </g>
   <g id="patch_6">
    <path d="M 42.53875 22.318125 
L 514.92875 22.318125 
" style="fill: none; stroke: #000000; stroke-width: 0.8; stroke-linejoin: miter; stroke-linecap: square"/>
   </g>
   <g id="text_18">
    <!-- FractionalLIF Sub-threshold Dynamics (Charge and Discharge) -->
    <g transform="translate(92.359688 16.318125) scale(0.12 -0.12)">
     <defs>
      <path id="DejaVuSans-46" d="M 628 4666 
L 3309 4666 
L 3309 4134 
L 1259 4134 
L 1259 2759 
L 3109 2759 
L 3109 2228 
L 1259 2228 
L 1259 0 
L 628 0 
L 628 4666 
z
" transform="scale(0.015625)"/>
      <path id="DejaVuSans-63" d="M 3122 3366 
L 3122 2828 
Q 2878 2963 2633 3030 
Q 2388 3097 2138 3097 
Q 1578 3097 1268 2742 
Q 959 2388 959 1747 
Q 959 1106 1268 751 
Q 1578 397 2138 397 
Q 2388 397 2633 464 
Q 2878 531 3122 666 
L 3122 134 
Q 2881 22 2623 -34 
Q 2366 -91 2075 -91 
Q 1284 -91 818 406 
Q 353 903 353 1747 
Q 353 2603 823 3093 
Q 1294 3584 2113 3584 
Q 2378 3584 2631 3529 
Q 2884 3475 3122 3366 
z
" transform="scale(0.015625)"/>
      <path id="DejaVuSans-4c" d="M 628 4666 
L 1259 4666 
L 1259 531 
L 3531 531 
L 3531 0 
L 628 0 
L 628 4666 
z
" transform="scale(0.015625)"/>
      <path id="DejaVuSans-49" d="M 628 4666 
L 1259 4666 
L 1259 0 
L 628 0 
L 628 4666 
z
" transform="scale(0.015625)"/>
      <path id="DejaVuSans-75" d="M 544 1381 
L 544 3500 
L 1119 3500 
L 1119 1403 
Q 1119 906 1312 657 
Q 1506 409 1894 409 
Q 2359 409 2629 706 
Q 2900 1003 2900 1516 
L 2900 3500 
L 3475 3500 
L 3475 0 
L 2900 0 
L 2900 538 
Q 2691 219 2414 64 
Q 2138 -91 1772 -91 
Q 1169 -91 856 284 
Q 544 659 544 1381 
z
M 1991 3584 
L 1991 3584 
z
" transform="scale(0.015625)"/>
      <path id="DejaVuSans-2d" d="M 313 2009 
L 1997 2009 
L 1997 1497 
L 313 1497 
L 313 2009 
z
" transform="scale(0.015625)"/>
      <path id="DejaVuSans-68" d="M 3513 2113 
L 3513 0 
L 2938 0 
L 2938 2094 
Q 2938 2591 2744 2837 
Q 2550 3084 2163 3084 
Q 1697 3084 1428 2787 
Q 1159 2491 1159 1978 
L 1159 0 
L 581 0 
L 581 4863 
L 1159 4863 
L 1159 2956 
Q 1366 3272 1645 3428 
Q 1925 3584 2291 3584 
Q 2894 3584 3203 3211 
Q 3513 2838 3513 2113 
z
" transform="scale(0.015625)"/>
      <path id="DejaVuSans-73" d="M 2834 3397 
L 2834 2853 
Q 2591 2978 2328 3040 
Q 2066 3103 1784 3103 
Q 1356 3103 1142 2972 
Q 928 2841 928 2578 
Q 928 2378 1081 2264 
Q 1234 2150 1697 2047 
L 1894 2003 
Q 2506 1872 2764 1633 
Q 3022 1394 3022 966 
Q 3022 478 2636 193 
Q 2250 -91 1575 -91 
Q 1294 -91 989 -36 
Q 684 19 347 128 
L 347 722 
Q 666 556 975 473 
Q 1284 391 1588 391 
Q 1994 391 2212 530 
Q 2431 669 2431 922 
Q 2431 1156 2273 1281 
Q 2116 1406 1581 1522 
L 1381 1569 
Q 847 1681 609 1914 
Q 372 2147 372 2553 
Q 372 3047 722 3315 
Q 1072 3584 1716 3584 
Q 2034 3584 2315 3537 
Q 2597 3491 2834 3397 
z
" transform="scale(0.015625)"/>
      <path id="DejaVuSans-64" d="M 2906 2969 
L 2906 4863 
L 3481 4863 
L 3481 0 
L 2906 0 
L 2906 525 
Q 2725 213 2448 61 
Q 2172 -91 1784 -91 
Q 1150 -91 751 415 
Q 353 922 353 1747 
Q 353 2572 751 3078 
Q 1150 3584 1784 3584 
Q 2172 3584 2448 3432 
Q 2725 3281 2906 2969 
z
M 947 1747 
Q 947 1113 1208 752 
Q 1469 391 1925 391 
Q 2381 391 2643 752 
Q 2906 1113 2906 1747 
Q 2906 2381 2643 2742 
Q 2381 3103 1925 3103 
Q 1469 3103 1208 2742 
Q 947 2381 947 1747 
z
" transform="scale(0.015625)"/>
      <path id="DejaVuSans-44" d="M 1259 4147 
L 1259 519 
L 2022 519 
Q 2988 519 3436 956 
Q 3884 1394 3884 2338 
Q 3884 3275 3436 3711 
Q 2988 4147 2022 4147 
L 1259 4147 
z
M 628 4666 
L 1925 4666 
Q 3281 4666 3915 4102 
Q 4550 3538 4550 2338 
Q 4550 1131 3912 565 
Q 3275 0 1925 0 
L 628 0 
L 628 4666 
z
" transform="scale(0.015625)"/>
      <path id="DejaVuSans-79" d="M 2059 -325 
Q 1816 -950 1584 -1140 
Q 1353 -1331 966 -1331 
L 506 -1331 
L 506 -850 
L 844 -850 
Q 1081 -850 1212 -737 
Q 1344 -625 1503 -206 
L 1606 56 
L 191 3500 
L 800 3500 
L 1894 763 
L 2988 3500 
L 3597 3500 
L 2059 -325 
z
" transform="scale(0.015625)"/>
      <path id="DejaVuSans-28" d="M 1984 4856 
Q 1566 4138 1362 3434 
Q 1159 2731 1159 2009 
Q 1159 1288 1364 580 
Q 1569 -128 1984 -844 
L 1484 -844 
Q 1016 -109 783 600 
Q 550 1309 550 2009 
Q 550 2706 781 3412 
Q 1013 4119 1484 4856 
L 1984 4856 
z
" transform="scale(0.015625)"/>
      <path id="DejaVuSans-43" d="M 4122 4306 
L 4122 3641 
Q 3803 3938 3442 4084 
Q 3081 4231 2675 4231 
Q 1875 4231 1450 3742 
Q 1025 3253 1025 2328 
Q 1025 1406 1450 917 
Q 1875 428 2675 428 
Q 3081 428 3442 575 
Q 3803 722 4122 1019 
L 4122 359 
Q 3791 134 3420 21 
Q 3050 -91 2638 -91 
Q 1578 -91 968 557 
Q 359 1206 359 2328 
Q 359 3453 968 4101 
Q 1578 4750 2638 4750 
Q 3056 4750 3426 4639 
Q 3797 4528 4122 4306 
z
" transform="scale(0.015625)"/>
      <path id="DejaVuSans-67" d="M 2906 1791 
Q 2906 2416 2648 2759 
Q 2391 3103 1925 3103 
Q 1463 3103 1205 2759 
Q 947 2416 947 1791 
Q 947 1169 1205 825 
Q 1463 481 1925 481 
Q 2391 481 2648 825 
Q 2906 1169 2906 1791 
z
M 3481 434 
Q 3481 -459 3084 -895 
Q 2688 -1331 1869 -1331 
Q 1566 -1331 1297 -1286 
Q 1028 -1241 775 -1147 
L 775 -588 
Q 1028 -725 1275 -790 
Q 1522 -856 1778 -856 
Q 2344 -856 2625 -561 
Q 2906 -266 2906 331 
L 2906 616 
Q 2728 306 2450 153 
Q 2172 0 1784 0 
Q 1141 0 747 490 
Q 353 981 353 1791 
Q 353 2603 747 3093 
Q 1141 3584 1784 3584 
Q 2172 3584 2450 3431 
Q 2728 3278 2906 2969 
L 2906 3500 
L 3481 3500 
L 3481 434 
z
" transform="scale(0.015625)"/>
      <path id="DejaVuSans-29" d="M 513 4856 
L 1013 4856 
Q 1481 4119 1714 3412 
Q 1947 2706 1947 2009 
Q 1947 1309 1714 600 
Q 1481 -109 1013 -844 
L 513 -844 
Q 928 -128 1133 580 
Q 1338 1288 1338 2009 
Q 1338 2731 1133 3434 
Q 928 4138 513 4856 
z
" transform="scale(0.015625)"/>
     </defs>
     <use xlink:href="#DejaVuSans-46"/>
     <use xlink:href="#DejaVuSans-72" transform="translate(50.269531 0)"/>
     <use xlink:href="#DejaVuSans-61" transform="translate(91.382812 0)"/>
     <use xlink:href="#DejaVuSans-63" transform="translate(152.662109 0)"/>
     <use xlink:href="#DejaVuSans-74" transform="translate(207.642578 0)"/>
     <use xlink:href="#DejaVuSans-69" transform="translate(246.851562 0)"/>
     <use xlink:href="#DejaVuSans-6f" transform="translate(274.634766 0)"/>
     <use xlink:href="#DejaVuSans-6e" transform="translate(335.816406 0)"/>
     <use xlink:href="#DejaVuSans-61" transform="translate(399.195312 0)"/>
     <use xlink:href="#DejaVuSans-6c" transform="translate(460.474609 0)"/>
     <use xlink:href="#DejaVuSans-4c" transform="translate(488.257812 0)"/>
     <use xlink:href="#DejaVuSans-49" transform="translate(543.970703 0)"/>
     <use xlink:href="#DejaVuSans-46" transform="translate(573.462891 0)"/>
     <use xlink:href="#DejaVuSans-20" transform="translate(630.982422 0)"/>
     <use xlink:href="#DejaVuSans-53" transform="translate(662.769531 0)"/>
     <use xlink:href="#DejaVuSans-75" transform="translate(726.246094 0)"/>
     <use xlink:href="#DejaVuSans-62" transform="translate(789.625 0)"/>
     <use xlink:href="#DejaVuSans-2d" transform="translate(853.101562 0)"/>
     <use xlink:href="#DejaVuSans-74" transform="translate(889.185547 0)"/>
     <use xlink:href="#DejaVuSans-68" transform="translate(928.394531 0)"/>
     <use xlink:href="#DejaVuSans-72" transform="translate(991.773438 0)"/>
     <use xlink:href="#DejaVuSans-65" transform="translate(1030.636719 0)"/>
     <use xlink:href="#DejaVuSans-73" transform="translate(1092.160156 0)"/>
     <use xlink:href="#DejaVuSans-68" transform="translate(1144.259766 0)"/>
     <use xlink:href="#DejaVuSans-6f" transform="translate(1207.638672 0)"/>
     <use xlink:href="#DejaVuSans-6c" transform="translate(1268.820312 0)"/>
     <use xlink:href="#DejaVuSans-64" transform="translate(1296.603516 0)"/>
     <use xlink:href="#DejaVuSans-20" transform="translate(1360.080078 0)"/>
     <use xlink:href="#DejaVuSans-44" transform="translate(1391.867188 0)"/>
     <use xlink:href="#DejaVuSans-79" transform="translate(1468.869141 0)"/>
     <use xlink:href="#DejaVuSans-6e" transform="translate(1528.048828 0)"/>
     <use xlink:href="#DejaVuSans-61" transform="translate(1591.427734 0)"/>
     <use xlink:href="#DejaVuSans-6d" transform="translate(1652.707031 0)"/>
     <use xlink:href="#DejaVuSans-69" transform="translate(1750.119141 0)"/>
     <use xlink:href="#DejaVuSans-63" transform="translate(1777.902344 0)"/>
     <use xlink:href="#DejaVuSans-73" transform="translate(1832.882812 0)"/>
     <use xlink:href="#DejaVuSans-20" transform="translate(1884.982422 0)"/>
     <use xlink:href="#DejaVuSans-28" transform="translate(1916.769531 0)"/>
     <use xlink:href="#DejaVuSans-43" transform="translate(1955.783203 0)"/>
     <use xlink:href="#DejaVuSans-68" transform="translate(2025.607422 0)"/>
     <use xlink:href="#DejaVuSans-61" transform="translate(2088.986328 0)"/>
     <use xlink:href="#DejaVuSans-72" transform="translate(2150.265625 0)"/>
     <use xlink:href="#DejaVuSans-67" transform="translate(2189.628906 0)"/>
     <use xlink:href="#DejaVuSans-65" transform="translate(2253.105469 0)"/>
     <use xlink:href="#DejaVuSans-20" transform="translate(2314.628906 0)"/>
     <use xlink:href="#DejaVuSans-61" transform="translate(2346.416016 0)"/>
     <use xlink:href="#DejaVuSans-6e" transform="translate(2407.695312 0)"/>
     <use xlink:href="#DejaVuSans-64" transform="translate(2471.074219 0)"/>
     <use xlink:href="#DejaVuSans-20" transform="translate(2534.550781 0)"/>
     <use xlink:href="#DejaVuSans-44" transform="translate(2566.337891 0)"/>
     <use xlink:href="#DejaVuSans-69" transform="translate(2643.339844 0)"/>
     <use xlink:href="#DejaVuSans-73" transform="translate(2671.123047 0)"/>
     <use xlink:href="#DejaVuSans-63" transform="translate(2723.222656 0)"/>
     <use xlink:href="#DejaVuSans-68" transform="translate(2778.203125 0)"/>
     <use xlink:href="#DejaVuSans-61" transform="translate(2841.582031 0)"/>
     <use xlink:href="#DejaVuSans-72" transform="translate(2902.861328 0)"/>
     <use xlink:href="#DejaVuSans-67" transform="translate(2942.224609 0)"/>
     <use xlink:href="#DejaVuSans-65" transform="translate(3005.701172 0)"/>
     <use xlink:href="#DejaVuSans-29" transform="translate(3067.224609 0)"/>
    </g>
   </g>
   <g id="line2d_38">
    <path d="M 64.011023 205.094055 
L 66.16904 189.196032 
L 68.327057 174.743285 
L 70.485075 161.604423 
L 72.643092 149.660004 
L 74.80111 138.80144 
L 76.959127 128.930019 
L 79.117144 119.956 
L 81.275162 111.797801 
L 83.433179 104.381256 
L 85.591196 97.638943 
L 87.749214 91.509567 
L 89.907231 85.937407 
L 92.065248 80.871807 
L 94.223266 76.266716 
L 96.381283 72.08027 
L 98.5393 68.27441 
L 100.697318 64.814537 
L 102.855335 61.669198 
L 105.013353 58.809799 
L 107.17137 56.210345 
L 109.329387 53.847206 
L 111.487405 51.698897 
L 113.645422 49.745889 
L 115.803439 47.970427 
L 117.961457 46.356371 
L 122.277491 43.555116 
L 126.593526 41.24003 
L 130.909561 39.326735 
L 135.225596 37.7455 
L 139.54163 36.438694 
L 143.857665 35.358689 
L 148.1737 34.466123 
L 154.647752 33.409133 
L 161.121804 32.615 
L 167.595856 32.018357 
L 169.753873 31.854489 
L 171.911891 49.193342 
L 174.069908 64.955937 
L 176.227925 79.285568 
L 178.385943 92.312505 
L 180.54396 104.155176 
L 182.701978 114.92124 
L 184.859995 124.70857 
L 187.018012 133.606144 
L 189.17603 141.694847 
L 191.334047 149.048214 
L 193.492064 155.733092 
L 195.650082 161.810255 
L 197.808099 167.334948 
L 199.966116 172.357396 
L 202.124134 176.923258 
L 204.282151 181.074042 
L 206.440168 184.847482 
L 208.598186 188.277882 
L 210.756203 191.396427 
L 212.914221 194.231468 
L 215.072238 196.808778 
L 217.230255 199.151787 
L 219.388273 201.281796 
L 221.54629 203.218167 
L 223.704307 204.978504 
L 225.862325 206.578811 
L 230.178359 209.356203 
L 234.494394 211.651568 
L 238.810429 213.548565 
L 243.126464 215.11633 
L 247.442498 216.412004 
L 251.758533 217.482809 
L 256.074568 218.367771 
L 262.54862 219.415758 
L 269.022672 220.203125 
L 277.654741 220.957158 
L 286.286811 221.472173 
L 297.076898 221.892839 
L 312.183019 222.228293 
L 333.763193 222.445556 
L 370.449488 222.554908 
L 491.29846 222.58175 
L 493.456477 222.581761 
L 493.456477 222.581761 
" clip-path="url(#p7b088c084b)" style="fill: none; stroke-dasharray: 9.25,4; stroke-dashoffset: 0; stroke: #999999; stroke-width: 2.5"/>
   </g>
   <g id="legend_1">
    <g id="patch_7">
     <path d="M 397.56875 134.400625 
L 509.32875 134.400625 
Q 510.92875 134.400625 510.92875 132.800625 
L 510.92875 27.918125 
Q 510.92875 26.318125 509.32875 26.318125 
L 397.56875 26.318125 
Q 395.96875 26.318125 395.96875 27.918125 
L 395.96875 132.800625 
Q 395.96875 134.400625 397.56875 134.400625 
z
" style="fill: #ffffff; opacity: 0.8; stroke: #cccccc; stroke-linejoin: miter"/>
    </g>
    <g id="line2d_39">
     <path d="M 399.16875 32.796875 
L 407.16875 32.796875 
L 415.16875 32.796875 
" style="fill: none; stroke-dasharray: 9.25,4; stroke-dashoffset: 0; stroke: #999999; stroke-width: 2.5"/>
    </g>
    <g id="text_19">
     <!-- snnTorch.Leaky -->
     <g transform="translate(421.56875 35.596875) scale(0.08 -0.08)">
      <defs>
       <path id="DejaVuSans-2e" d="M 684 794 
L 1344 794 
L 1344 0 
L 684 0 
L 684 794 
z
" transform="scale(0.015625)"/>
       <path id="DejaVuSans-6b" d="M 581 4863 
L 1159 4863 
L 1159 1991 
L 2875 3500 
L 3609 3500 
L 1753 1863 
L 3688 0 
L 2938 0 
L 1159 1709 
L 1159 0 
L 581 0 
L 581 4863 
z
" transform="scale(0.015625)"/>
      </defs>
      <use xlink:href="#DejaVuSans-73"/>
      <use xlink:href="#DejaVuSans-6e" transform="translate(52.099609 0)"/>
      <use xlink:href="#DejaVuSans-6e" transform="translate(115.478516 0)"/>
      <use xlink:href="#DejaVuSans-54" transform="translate(178.857422 0)"/>
      <use xlink:href="#DejaVuSans-6f" transform="translate(222.941406 0)"/>
      <use xlink:href="#DejaVuSans-72" transform="translate(284.123047 0)"/>
      <use xlink:href="#DejaVuSans-63" transform="translate(322.986328 0)"/>
      <use xlink:href="#DejaVuSans-68" transform="translate(377.966797 0)"/>
      <use xlink:href="#DejaVuSans-2e" transform="translate(441.345703 0)"/>
      <use xlink:href="#DejaVuSans-4c" transform="translate(473.132812 0)"/>
      <use xlink:href="#DejaVuSans-65" transform="translate(527.095703 0)"/>
      <use xlink:href="#DejaVuSans-61" transform="translate(588.619141 0)"/>
      <use xlink:href="#DejaVuSans-6b" transform="translate(649.898438 0)"/>
      <use xlink:href="#DejaVuSans-79" transform="translate(704.183594 0)"/>
     </g>
    </g>
    <g id="line2d_40">
     <path d="M 399.16875 44.539375 
L 407.16875 44.539375 
L 415.16875 44.539375 
" style="fill: none; stroke: #0072b2; stroke-width: 1.5; stroke-linecap: square"/>
    </g>
    <g id="text_20">
     <!-- $\alpha$ = 0.1 -->
     <g transform="translate(421.56875 47.339375) scale(0.08 -0.08)">
      <defs>
       <path id="DejaVuSans-Oblique-3b1" d="M 2619 1628 
L 2622 2350 
Q 2625 3088 2069 3091 
Q 1653 3094 1394 2747 
Q 1069 2319 959 1747 
Q 825 1059 994 731 
Q 1169 397 1547 397 
Q 1966 397 2319 1063 
L 2619 1628 
z
M 2166 3578 
Q 3141 3594 3128 2584 
Q 3128 2584 3616 3500 
L 4128 3500 
L 3119 1603 
L 3109 919 
Q 3109 766 3194 638 
Q 3291 488 3391 488 
L 3669 488 
L 3575 0 
L 3228 0 
Q 2934 0 2722 263 
Q 2622 394 2619 669 
Q 2416 334 2066 50 
Q 1900 -81 1453 -78 
Q 722 -72 456 397 
Q 184 884 353 1747 
Q 534 2675 1009 3097 
Q 1544 3569 2166 3578 
z
" transform="scale(0.015625)"/>
       <path id="DejaVuSans-3d" d="M 678 2906 
L 4684 2906 
L 4684 2381 
L 678 2381 
L 678 2906 
z
M 678 1631 
L 4684 1631 
L 4684 1100 
L 678 1100 
L 678 1631 
z
" transform="scale(0.015625)"/>
      </defs>
      <use xlink:href="#DejaVuSans-Oblique-3b1" transform="translate(0 0.78125)"/>
      <use xlink:href="#DejaVuSans-20" transform="translate(65.917969 0.78125)"/>
      <use xlink:href="#DejaVuSans-3d" transform="translate(97.705078 0.78125)"/>
      <use xlink:href="#DejaVuSans-20" transform="translate(181.494141 0.78125)"/>
      <use xlink:href="#DejaVuSans-30" transform="translate(213.28125 0.78125)"/>
      <use xlink:href="#DejaVuSans-2e" transform="translate(276.904297 0.78125)"/>
      <use xlink:href="#DejaVuSans-31" transform="translate(308.691406 0.78125)"/>
     </g>
    </g>
    <g id="line2d_41">
     <path d="M 399.16875 56.281875 
L 407.16875 56.281875 
L 415.16875 56.281875 
" style="fill: none; stroke: #d55e00; stroke-width: 1.5; stroke-linecap: square"/>
    </g>
    <g id="text_21">
     <!-- $\alpha$ = 0.3 -->
     <g transform="translate(421.56875 59.081875) scale(0.08 -0.08)">
      <defs>
       <path id="DejaVuSans-33" d="M 2597 2516 
Q 3050 2419 3304 2112 
Q 3559 1806 3559 1356 
Q 3559 666 3084 287 
Q 2609 -91 1734 -91 
Q 1441 -91 1130 -33 
Q 819 25 488 141 
L 488 750 
Q 750 597 1062 519 
Q 1375 441 1716 441 
Q 2309 441 2620 675 
Q 2931 909 2931 1356 
Q 2931 1769 2642 2001 
Q 2353 2234 1838 2234 
L 1294 2234 
L 1294 2753 
L 1863 2753 
Q 2328 2753 2575 2939 
Q 2822 3125 2822 3475 
Q 2822 3834 2567 4026 
Q 2313 4219 1838 4219 
Q 1578 4219 1281 4162 
Q 984 4106 628 3988 
L 628 4550 
Q 988 4650 1302 4700 
Q 1616 4750 1894 4750 
Q 2613 4750 3031 4423 
Q 3450 4097 3450 3541 
Q 3450 3153 3228 2886 
Q 3006 2619 2597 2516 
z
" transform="scale(0.015625)"/>
      </defs>
      <use xlink:href="#DejaVuSans-Oblique-3b1" transform="translate(0 0.78125)"/>
      <use xlink:href="#DejaVuSans-20" transform="translate(65.917969 0.78125)"/>
      <use xlink:href="#DejaVuSans-3d" transform="translate(97.705078 0.78125)"/>
      <use xlink:href="#DejaVuSans-20" transform="translate(181.494141 0.78125)"/>
      <use xlink:href="#DejaVuSans-30" transform="translate(213.28125 0.78125)"/>
      <use xlink:href="#DejaVuSans-2e" transform="translate(276.904297 0.78125)"/>
      <use xlink:href="#DejaVuSans-33" transform="translate(308.691406 0.78125)"/>
     </g>
    </g>
    <g id="line2d_42">
     <path d="M 399.16875 68.024375 
L 407.16875 68.024375 
L 415.16875 68.024375 
" style="fill: none; stroke: #009e73; stroke-width: 1.5; stroke-linecap: square"/>
    </g>
    <g id="text_22">
     <!-- $\alpha$ = 0.5 -->
     <g transform="translate(421.56875 70.824375) scale(0.08 -0.08)">
      <use xlink:href="#DejaVuSans-Oblique-3b1" transform="translate(0 0.78125)"/>
      <use xlink:href="#DejaVuSans-20" transform="translate(65.917969 0.78125)"/>
      <use xlink:href="#DejaVuSans-3d" transform="translate(97.705078 0.78125)"/>
      <use xlink:href="#DejaVuSans-20" transform="translate(181.494141 0.78125)"/>
      <use xlink:href="#DejaVuSans-30" transform="translate(213.28125 0.78125)"/>
      <use xlink:href="#DejaVuSans-2e" transform="translate(276.904297 0.78125)"/>
      <use xlink:href="#DejaVuSans-35" transform="translate(308.691406 0.78125)"/>
     </g>
    </g>
    <g id="line2d_43">
     <path d="M 399.16875 79.766875 
L 407.16875 79.766875 
L 415.16875 79.766875 
" style="fill: none; stroke: #cc79a7; stroke-width: 1.5; stroke-linecap: square"/>
    </g>
    <g id="text_23">
     <!-- $\alpha$ = 0.7 -->
     <g transform="translate(421.56875 82.566875) scale(0.08 -0.08)">
      <use xlink:href="#DejaVuSans-Oblique-3b1" transform="translate(0 0.78125)"/>
      <use xlink:href="#DejaVuSans-20" transform="translate(65.917969 0.78125)"/>
      <use xlink:href="#DejaVuSans-3d" transform="translate(97.705078 0.78125)"/>
      <use xlink:href="#DejaVuSans-20" transform="translate(181.494141 0.78125)"/>
      <use xlink:href="#DejaVuSans-30" transform="translate(213.28125 0.78125)"/>
      <use xlink:href="#DejaVuSans-2e" transform="translate(276.904297 0.78125)"/>
      <use xlink:href="#DejaVuSans-37" transform="translate(300.941406 0.78125)"/>
     </g>
    </g>
    <g id="line2d_44">
     <path d="M 399.16875 91.509375 
L 407.16875 91.509375 
L 415.16875 91.509375 
" style="fill: none; stroke: #56b4e9; stroke-width: 1.5; stroke-linecap: square"/>
    </g>
    <g id="text_24">
     <!-- $\alpha$ = 0.9 -->
     <g transform="translate(421.56875 94.309375) scale(0.08 -0.08)">
      <defs>
       <path id="DejaVuSans-39" d="M 703 97 
L 703 672 
Q 941 559 1184 500 
Q 1428 441 1663 441 
Q 2288 441 2617 861 
Q 2947 1281 2994 2138 
Q 2813 1869 2534 1725 
Q 2256 1581 1919 1581 
Q 1219 1581 811 2004 
Q 403 2428 403 3163 
Q 403 3881 828 4315 
Q 1253 4750 1959 4750 
Q 2769 4750 3195 4129 
Q 3622 3509 3622 2328 
Q 3622 1225 3098 567 
Q 2575 -91 1691 -91 
Q 1453 -91 1209 -44 
Q 966 3 703 97 
z
M 1959 2075 
Q 2384 2075 2632 2365 
Q 2881 2656 2881 3163 
Q 2881 3666 2632 3958 
Q 2384 4250 1959 4250 
Q 1534 4250 1286 3958 
Q 1038 3666 1038 3163 
Q 1038 2656 1286 2365 
Q 1534 2075 1959 2075 
z
" transform="scale(0.015625)"/>
      </defs>
      <use xlink:href="#DejaVuSans-Oblique-3b1" transform="translate(0 0.78125)"/>
      <use xlink:href="#DejaVuSans-20" transform="translate(65.917969 0.78125)"/>
      <use xlink:href="#DejaVuSans-3d" transform="translate(97.705078 0.78125)"/>
      <use xlink:href="#DejaVuSans-20" transform="translate(181.494141 0.78125)"/>
      <use xlink:href="#DejaVuSans-30" transform="translate(213.28125 0.78125)"/>
      <use xlink:href="#DejaVuSans-2e" transform="translate(276.904297 0.78125)"/>
      <use xlink:href="#DejaVuSans-39" transform="translate(308.691406 0.78125)"/>
     </g>
    </g>
    <g id="line2d_45">
     <path d="M 399.16875 103.251875 
L 407.16875 103.251875 
L 415.16875 103.251875 
" style="fill: none; stroke: #e69f00; stroke-width: 1.5; stroke-linecap: square"/>
    </g>
    <g id="text_25">
     <!-- $\alpha$ = 1.0 -->
     <g transform="translate(421.56875 106.051875) scale(0.08 -0.08)">
      <use xlink:href="#DejaVuSans-Oblique-3b1" transform="translate(0 0.78125)"/>
      <use xlink:href="#DejaVuSans-20" transform="translate(65.917969 0.78125)"/>
      <use xlink:href="#DejaVuSans-3d" transform="translate(97.705078 0.78125)"/>
      <use xlink:href="#DejaVuSans-20" transform="translate(181.494141 0.78125)"/>
      <use xlink:href="#DejaVuSans-31" transform="translate(213.28125 0.78125)"/>
      <use xlink:href="#DejaVuSans-2e" transform="translate(276.904297 0.78125)"/>
      <use xlink:href="#DejaVuSans-30" transform="translate(308.691406 0.78125)"/>
     </g>
    </g>
    <g id="line2d_46">
     <path d="M 399.16875 114.994375 
L 407.16875 114.994375 
L 415.16875 114.994375 
" style="fill: none; stroke-dasharray: 2.5,4.125; stroke-dashoffset: 0; stroke: #000000; stroke-width: 2.5"/>
    </g>
    <g id="text_26">
     <!-- BitshiftLIF ($\approx \alpha=0.5$) -->
     <g transform="translate(421.56875 117.794375) scale(0.08 -0.08)">
      <defs>
       <path id="DejaVuSans-42" d="M 1259 2228 
L 1259 519 
L 2272 519 
Q 2781 519 3026 730 
Q 3272 941 3272 1375 
Q 3272 1813 3026 2020 
Q 2781 2228 2272 2228 
L 1259 2228 
z
M 1259 4147 
L 1259 2741 
L 2194 2741 
Q 2656 2741 2882 2914 
Q 3109 3088 3109 3444 
Q 3109 3797 2882 3972 
Q 2656 4147 2194 4147 
L 1259 4147 
z
M 628 4666 
L 2241 4666 
Q 2963 4666 3353 4366 
Q 3744 4066 3744 3513 
Q 3744 3084 3544 2831 
Q 3344 2578 2956 2516 
Q 3422 2416 3680 2098 
Q 3938 1781 3938 1306 
Q 3938 681 3513 340 
Q 3088 0 2303 0 
L 628 0 
L 628 4666 
z
" transform="scale(0.015625)"/>
       <path id="DejaVuSans-66" d="M 2375 4863 
L 2375 4384 
L 1825 4384 
Q 1516 4384 1395 4259 
Q 1275 4134 1275 3809 
L 1275 3500 
L 2222 3500 
L 2222 3053 
L 1275 3053 
L 1275 0 
L 697 0 
L 697 3053 
L 147 3053 
L 147 3500 
L 697 3500 
L 697 3744 
Q 697 4328 969 4595 
Q 1241 4863 1831 4863 
L 2375 4863 
z
" transform="scale(0.015625)"/>
       <path id="DejaVuSans-2248" d="M 4684 1947 
L 4684 1388 
Q 4356 1144 4076 1036 
Q 3797 928 3494 928 
Q 3150 928 2694 1113 
Q 2663 1125 2641 1134 
Q 2622 1141 2575 1159 
Q 2091 1350 1797 1350 
Q 1522 1350 1253 1231 
Q 984 1113 678 850 
L 678 1409 
Q 1006 1653 1286 1761 
Q 1566 1869 1869 1869 
Q 2213 1869 2672 1684 
Q 2706 1669 2722 1663 
Q 2741 1656 2788 1638 
Q 3272 1447 3566 1447 
Q 3834 1447 4098 1564 
Q 4363 1681 4684 1947 
z
M 4684 3163 
L 4684 2606 
Q 4356 2359 4076 2251 
Q 3797 2144 3494 2144 
Q 3150 2144 2694 2328 
Q 2663 2341 2641 2350 
Q 2622 2356 2575 2375 
Q 2091 2566 1797 2566 
Q 1522 2566 1253 2447 
Q 984 2328 678 2069 
L 678 2625 
Q 1006 2869 1286 2976 
Q 1566 3084 1869 3084 
Q 2213 3084 2672 2900 
Q 2703 2888 2719 2881 
Q 2741 2872 2788 2853 
Q 3272 2663 3566 2663 
Q 3834 2663 4098 2780 
Q 4363 2897 4684 3163 
z
" transform="scale(0.015625)"/>
      </defs>
      <use xlink:href="#DejaVuSans-42" transform="translate(0 0.015625)"/>
      <use xlink:href="#DejaVuSans-69" transform="translate(68.603516 0.015625)"/>
      <use xlink:href="#DejaVuSans-74" transform="translate(96.386719 0.015625)"/>
      <use xlink:href="#DejaVuSans-73" transform="translate(135.595703 0.015625)"/>
      <use xlink:href="#DejaVuSans-68" transform="translate(187.695312 0.015625)"/>
      <use xlink:href="#DejaVuSans-69" transform="translate(251.074219 0.015625)"/>
      <use xlink:href="#DejaVuSans-66" transform="translate(278.857422 0.015625)"/>
      <use xlink:href="#DejaVuSans-74" transform="translate(314.0625 0.015625)"/>
      <use xlink:href="#DejaVuSans-4c" transform="translate(353.271484 0.015625)"/>
      <use xlink:href="#DejaVuSans-49" transform="translate(408.984375 0.015625)"/>
      <use xlink:href="#DejaVuSans-46" transform="translate(438.476562 0.015625)"/>
      <use xlink:href="#DejaVuSans-20" transform="translate(495.996094 0.015625)"/>
      <use xlink:href="#DejaVuSans-28" transform="translate(527.783203 0.015625)"/>
      <use xlink:href="#DejaVuSans-2248" transform="translate(586.279297 0.015625)"/>
      <use xlink:href="#DejaVuSans-Oblique-3b1" transform="translate(689.550781 0.015625)"/>
      <use xlink:href="#DejaVuSans-3d" transform="translate(774.951172 0.015625)"/>
      <use xlink:href="#DejaVuSans-30" transform="translate(878.222656 0.015625)"/>
      <use xlink:href="#DejaVuSans-2e" transform="translate(941.845703 0.015625)"/>
      <use xlink:href="#DejaVuSans-35" transform="translate(973.632812 0.015625)"/>
      <use xlink:href="#DejaVuSans-29" transform="translate(1037.255859 0.015625)"/>
     </g>
    </g>
    <g id="line2d_47">
     <path d="M 399.16875 126.736875 
L 407.16875 126.736875 
L 415.16875 126.736875 
" style="fill: none; stroke-dasharray: 5.55,2.4; stroke-dashoffset: 0; stroke: #808080; stroke-opacity: 0.7; stroke-width: 1.5"/>
    </g>
    <g id="text_27">
     <!-- Current off -->
     <g transform="translate(421.56875 129.536875) scale(0.08 -0.08)">
      <use xlink:href="#DejaVuSans-43"/>
      <use xlink:href="#DejaVuSans-75" transform="translate(69.824219 0)"/>
      <use xlink:href="#DejaVuSans-72" transform="translate(133.203125 0)"/>
      <use xlink:href="#DejaVuSans-72" transform="translate(172.566406 0)"/>
      <use xlink:href="#DejaVuSans-65" transform="translate(211.429688 0)"/>
      <use xlink:href="#DejaVuSans-6e" transform="translate(272.953125 0)"/>
      <use xlink:href="#DejaVuSans-74" transform="translate(336.332031 0)"/>
      <use xlink:href="#DejaVuSans-20" transform="translate(375.541016 0)"/>
      <use xlink:href="#DejaVuSans-6f" transform="translate(407.328125 0)"/>
      <use xlink:href="#DejaVuSans-66" transform="translate(468.509766 0)"/>
      <use xlink:href="#DejaVuSans-66" transform="translate(503.714844 0)"/>
     </g>
    </g>
   </g>
   <g id="line2d_48">
    <path d="M 64.011023 205.094055 
L 66.16904 197.145043 
L 68.327057 191.544604 
L 70.485075 187.102026 
L 72.643092 183.497798 
L 76.959127 177.32284 
L 79.117144 174.637155 
L 83.433179 169.779428 
L 87.749214 165.350402 
L 92.065248 161.405941 
L 96.381283 157.736945 
L 100.697318 154.388305 
L 105.013353 151.308704 
L 109.329387 148.414372 
L 113.645422 145.741467 
L 120.119474 142.085871 
L 126.593526 138.758067 
L 133.067578 135.769408 
L 139.54163 133.054438 
L 146.015682 130.579376 
L 152.489734 128.341154 
L 158.963787 126.297937 
L 165.437839 124.431227 
L 169.753873 123.283382 
L 171.911891 140.223291 
L 174.069908 147.640599 
L 176.227925 152.724861 
L 178.385943 156.666061 
L 180.54396 159.783037 
L 184.859995 165.025423 
L 187.018012 167.266466 
L 191.334047 171.274981 
L 195.650082 174.904371 
L 199.966116 178.09483 
L 204.282151 181.05196 
L 208.598186 183.728788 
L 212.914221 186.176343 
L 219.388273 189.554591 
L 225.862325 192.533956 
L 232.336377 195.229828 
L 238.810429 197.648487 
L 245.284481 199.826509 
L 251.758533 201.814721 
L 258.232585 203.604069 
L 266.864655 205.739731 
L 275.496724 207.628256 
L 284.128793 209.288525 
L 294.91888 211.103497 
L 305.708967 212.657603 
L 316.499054 213.998796 
L 329.447158 215.362105 
L 342.395262 216.50615 
L 357.501384 217.608004 
L 374.765522 218.622112 
L 394.187679 219.513876 
L 415.767852 220.269061 
L 441.664061 220.931887 
L 471.876304 221.467341 
L 493.456477 221.738845 
L 493.456477 221.738845 
" clip-path="url(#p7b088c084b)" style="fill: none; stroke-dasharray: 2.5,4.125; stroke-dashoffset: 0; stroke: #000000; stroke-width: 2.5"/>
   </g>
  </g>
 </g>
 <defs>
  <clipPath id="p7b088c084b">
   <rect x="42.53875" y="22.318125" width="472.39" height="209.8"/>
  </clipPath>
 </defs>
</svg>
