<?xml version="1.0" encoding="utf-8" standalone="no"?>
<!DOCTYPE svg PUBLIC "-//W3C//DTD SVG 1.1//EN"
  "http://www.w3.org/Graphics/SVG/1.1/DTD/svg11.dtd">
<svg xmlns:xlink="http://www.w3.org/1999/xlink" width="855.676563pt" height="566.836pt" viewBox="0 0 855.676563 566.836" xmlns="http://www.w3.org/2000/svg" version="1.1">
 <metadata>
  <rdf:RDF xmlns:dc="http://purl.org/dc/elements/1.1/" xmlns:cc="http://creativecommons.org/ns#" xmlns:rdf="http://www.w3.org/1999/02/22-rdf-syntax-ns#">
   <cc:Work>
    <dc:type rdf:resource="http://purl.org/dc/dcmitype/StillImage"/>
    <dc:date>2025-07-24T12:52:18.117225</dc:date>
    <dc:format>image/svg+xml</dc:format>
    <dc:creator>
     <cc:Agent>
      <dc:title>Matplotlib v3.10.3, https://matplotlib.org/</dc:title>
     </cc:Agent>
    </dc:creator>
   </cc:Work>
  </rdf:RDF>
 </metadata>
 <defs>
  <style type="text/css">*{stroke-linejoin: round; stroke-linecap: butt}</style>
 </defs>
 <g id="figure_1">
  <g id="patch_1">
   <path d="M 0 566.836 
L 855.676563 566.836 
L 855.676563 0 
L 0 0 
z
" style="fill: #ffffff"/>
  </g>
  <g id="axes_1">
   <g id="patch_2">
    <path d="M 48.995 527.344125 
L 840.525 527.344125 
L 840.525 53.624125 
L 48.995 53.624125 
z
" style="fill: #ffffff"/>
   </g>
   <g id="matplotlib.axis_1">
    <g id="xtick_1">
     <g id="line2d_1">
      <path d="M 48.995 527.344125 
L 48.995 53.624125 
" clip-path="url(#p2cb9f1343a)" style="fill: none; stroke-dasharray: 0.5,0.825; stroke-dashoffset: 0; stroke: #b0b0b0; stroke-opacity: 0.3; stroke-width: 0.5"/>
     </g>
     <g id="line2d_2">
      <defs>
       <path id="m719274f1be" d="M 0 0 
L 0 3.5 
" style="stroke: #000000; stroke-width: 0.8"/>
      </defs>
      <g>
       <use xlink:href="#m719274f1be" x="48.995" y="527.344125" style="stroke: #000000; stroke-width: 0.8"/>
      </g>
     </g>
     <g id="text_1">
      <!-- 0.0 -->
      <g transform="translate(41.043438 541.942562) scale(0.1 -0.1)">
       <defs>
        <path id="DejaVuSans-30" d="M 2034 4250 
Q 1547 4250 1301 3770 
Q 1056 3291 1056 2328 
Q 1056 1369 1301 889 
Q 1547 409 2034 409 
Q 2525 409 2770 889 
Q 3016 1369 3016 2328 
Q 3016 3291 2770 3770 
Q 2525 4250 2034 4250 
z
M 2034 4750 
Q 2819 4750 3233 4129 
Q 3647 3509 3647 2328 
Q 3647 1150 3233 529 
Q 2819 -91 2034 -91 
Q 1250 -91 836 529 
Q 422 1150 422 2328 
Q 422 3509 836 4129 
Q 1250 4750 2034 4750 
z
" transform="scale(0.015625)"/>
        <path id="DejaVuSans-2e" d="M 684 794 
L 1344 794 
L 1344 0 
L 684 0 
L 684 794 
z
" transform="scale(0.015625)"/>
       </defs>
       <use xlink:href="#DejaVuSans-30"/>
       <use xlink:href="#DejaVuSans-2e" transform="translate(63.623047 0)"/>
       <use xlink:href="#DejaVuSans-30" transform="translate(95.410156 0)"/>
      </g>
     </g>
    </g>
    <g id="xtick_2">
     <g id="line2d_3">
      <path d="M 207.301 527.344125 
L 207.301 53.624125 
" clip-path="url(#p2cb9f1343a)" style="fill: none; stroke-dasharray: 0.5,0.825; stroke-dashoffset: 0; stroke: #b0b0b0; stroke-opacity: 0.3; stroke-width: 0.5"/>
     </g>
     <g id="line2d_4">
      <g>
       <use xlink:href="#m719274f1be" x="207.301" y="527.344125" style="stroke: #000000; stroke-width: 0.8"/>
      </g>
     </g>
     <g id="text_2">
      <!-- 0.2 -->
      <g transform="translate(199.349438 541.942562) scale(0.1 -0.1)">
       <defs>
        <path id="DejaVuSans-32" d="M 1228 531 
L 3431 531 
L 3431 0 
L 469 0 
L 469 531 
Q 828 903 1448 1529 
Q 2069 2156 2228 2338 
Q 2531 2678 2651 2914 
Q 2772 3150 2772 3378 
Q 2772 3750 2511 3984 
Q 2250 4219 1831 4219 
Q 1534 4219 1204 4116 
Q 875 4013 500 3803 
L 500 4441 
Q 881 4594 1212 4672 
Q 1544 4750 1819 4750 
Q 2544 4750 2975 4387 
Q 3406 4025 3406 3419 
Q 3406 3131 3298 2873 
Q 3191 2616 2906 2266 
Q 2828 2175 2409 1742 
Q 1991 1309 1228 531 
z
" transform="scale(0.015625)"/>
       </defs>
       <use xlink:href="#DejaVuSans-30"/>
       <use xlink:href="#DejaVuSans-2e" transform="translate(63.623047 0)"/>
       <use xlink:href="#DejaVuSans-32" transform="translate(95.410156 0)"/>
      </g>
     </g>
    </g>
    <g id="xtick_3">
     <g id="line2d_5">
      <path d="M 365.607 527.344125 
L 365.607 53.624125 
" clip-path="url(#p2cb9f1343a)" style="fill: none; stroke-dasharray: 0.5,0.825; stroke-dashoffset: 0; stroke: #b0b0b0; stroke-opacity: 0.3; stroke-width: 0.5"/>
     </g>
     <g id="line2d_6">
      <g>
       <use xlink:href="#m719274f1be" x="365.607" y="527.344125" style="stroke: #000000; stroke-width: 0.8"/>
      </g>
     </g>
     <g id="text_3">
      <!-- 0.4 -->
      <g transform="translate(357.655438 541.942562) scale(0.1 -0.1)">
       <defs>
        <path id="DejaVuSans-34" d="M 2419 4116 
L 825 1625 
L 2419 1625 
L 2419 4116 
z
M 2253 4666 
L 3047 4666 
L 3047 1625 
L 3713 1625 
L 3713 1100 
L 3047 1100 
L 3047 0 
L 2419 0 
L 2419 1100 
L 313 1100 
L 313 1709 
L 2253 4666 
z
" transform="scale(0.015625)"/>
       </defs>
       <use xlink:href="#DejaVuSans-30"/>
       <use xlink:href="#DejaVuSans-2e" transform="translate(63.623047 0)"/>
       <use xlink:href="#DejaVuSans-34" transform="translate(95.410156 0)"/>
      </g>
     </g>
    </g>
    <g id="xtick_4">
     <g id="line2d_7">
      <path d="M 523.913 527.344125 
L 523.913 53.624125 
" clip-path="url(#p2cb9f1343a)" style="fill: none; stroke-dasharray: 0.5,0.825; stroke-dashoffset: 0; stroke: #b0b0b0; stroke-opacity: 0.3; stroke-width: 0.5"/>
     </g>
     <g id="line2d_8">
      <g>
       <use xlink:href="#m719274f1be" x="523.913" y="527.344125" style="stroke: #000000; stroke-width: 0.8"/>
      </g>
     </g>
     <g id="text_4">
      <!-- 0.6 -->
      <g transform="translate(515.961438 541.942562) scale(0.1 -0.1)">
       <defs>
        <path id="DejaVuSans-36" d="M 2113 2584 
Q 1688 2584 1439 2293 
Q 1191 2003 1191 1497 
Q 1191 994 1439 701 
Q 1688 409 2113 409 
Q 2538 409 2786 701 
Q 3034 994 3034 1497 
Q 3034 2003 2786 2293 
Q 2538 2584 2113 2584 
z
M 3366 4563 
L 3366 3988 
Q 3128 4100 2886 4159 
Q 2644 4219 2406 4219 
Q 1781 4219 1451 3797 
Q 1122 3375 1075 2522 
Q 1259 2794 1537 2939 
Q 1816 3084 2150 3084 
Q 2853 3084 3261 2657 
Q 3669 2231 3669 1497 
Q 3669 778 3244 343 
Q 2819 -91 2113 -91 
Q 1303 -91 875 529 
Q 447 1150 447 2328 
Q 447 3434 972 4092 
Q 1497 4750 2381 4750 
Q 2619 4750 2861 4703 
Q 3103 4656 3366 4563 
z
" transform="scale(0.015625)"/>
       </defs>
       <use xlink:href="#DejaVuSans-30"/>
       <use xlink:href="#DejaVuSans-2e" transform="translate(63.623047 0)"/>
       <use xlink:href="#DejaVuSans-36" transform="translate(95.410156 0)"/>
      </g>
     </g>
    </g>
    <g id="xtick_5">
     <g id="line2d_9">
      <path d="M 682.219 527.344125 
L 682.219 53.624125 
" clip-path="url(#p2cb9f1343a)" style="fill: none; stroke-dasharray: 0.5,0.825; stroke-dashoffset: 0; stroke: #b0b0b0; stroke-opacity: 0.3; stroke-width: 0.5"/>
     </g>
     <g id="line2d_10">
      <g>
       <use xlink:href="#m719274f1be" x="682.219" y="527.344125" style="stroke: #000000; stroke-width: 0.8"/>
      </g>
     </g>
     <g id="text_5">
      <!-- 0.8 -->
      <g transform="translate(674.267438 541.942562) scale(0.1 -0.1)">
       <defs>
        <path id="DejaVuSans-38" d="M 2034 2216 
Q 1584 2216 1326 1975 
Q 1069 1734 1069 1313 
Q 1069 891 1326 650 
Q 1584 409 2034 409 
Q 2484 409 2743 651 
Q 3003 894 3003 1313 
Q 3003 1734 2745 1975 
Q 2488 2216 2034 2216 
z
M 1403 2484 
Q 997 2584 770 2862 
Q 544 3141 544 3541 
Q 544 4100 942 4425 
Q 1341 4750 2034 4750 
Q 2731 4750 3128 4425 
Q 3525 4100 3525 3541 
Q 3525 3141 3298 2862 
Q 3072 2584 2669 2484 
Q 3125 2378 3379 2068 
Q 3634 1759 3634 1313 
Q 3634 634 3220 271 
Q 2806 -91 2034 -91 
Q 1263 -91 848 271 
Q 434 634 434 1313 
Q 434 1759 690 2068 
Q 947 2378 1403 2484 
z
M 1172 3481 
Q 1172 3119 1398 2916 
Q 1625 2713 2034 2713 
Q 2441 2713 2670 2916 
Q 2900 3119 2900 3481 
Q 2900 3844 2670 4047 
Q 2441 4250 2034 4250 
Q 1625 4250 1398 4047 
Q 1172 3844 1172 3481 
z
" transform="scale(0.015625)"/>
       </defs>
       <use xlink:href="#DejaVuSans-30"/>
       <use xlink:href="#DejaVuSans-2e" transform="translate(63.623047 0)"/>
       <use xlink:href="#DejaVuSans-38" transform="translate(95.410156 0)"/>
      </g>
     </g>
    </g>
    <g id="xtick_6">
     <g id="line2d_11">
      <path d="M 840.525 527.344125 
L 840.525 53.624125 
" clip-path="url(#p2cb9f1343a)" style="fill: none; stroke-dasharray: 0.5,0.825; stroke-dashoffset: 0; stroke: #b0b0b0; stroke-opacity: 0.3; stroke-width: 0.5"/>
     </g>
     <g id="line2d_12">
      <g>
       <use xlink:href="#m719274f1be" x="840.525" y="527.344125" style="stroke: #000000; stroke-width: 0.8"/>
      </g>
     </g>
     <g id="text_6">
      <!-- 1.0 -->
      <g transform="translate(832.573438 541.942562) scale(0.1 -0.1)">
       <defs>
        <path id="DejaVuSans-31" d="M 794 531 
L 1825 531 
L 1825 4091 
L 703 3866 
L 703 4441 
L 1819 4666 
L 2450 4666 
L 2450 531 
L 3481 531 
L 3481 0 
L 794 0 
L 794 531 
z
" transform="scale(0.015625)"/>
       </defs>
       <use xlink:href="#DejaVuSans-31"/>
       <use xlink:href="#DejaVuSans-2e" transform="translate(63.623047 0)"/>
       <use xlink:href="#DejaVuSans-30" transform="translate(95.410156 0)"/>
      </g>
     </g>
    </g>
    <g id="text_7">
     <!-- Alpha Value (α) -->
     <g transform="translate(392.900313 557.140375) scale(0.12 -0.12)">
      <defs>
       <path id="DejaVuSans-Bold-41" d="M 3419 850 
L 1538 850 
L 1241 0 
L 31 0 
L 1759 4666 
L 3194 4666 
L 4922 0 
L 3713 0 
L 3419 850 
z
M 1838 1716 
L 3116 1716 
L 2478 3572 
L 1838 1716 
z
" transform="scale(0.015625)"/>
       <path id="DejaVuSans-Bold-6c" d="M 538 4863 
L 1656 4863 
L 1656 0 
L 538 0 
L 538 4863 
z
" transform="scale(0.015625)"/>
       <path id="DejaVuSans-Bold-70" d="M 1656 506 
L 1656 -1331 
L 538 -1331 
L 538 3500 
L 1656 3500 
L 1656 2988 
Q 1888 3294 2169 3439 
Q 2450 3584 2816 3584 
Q 3463 3584 3878 3070 
Q 4294 2556 4294 1747 
Q 4294 938 3878 423 
Q 3463 -91 2816 -91 
Q 2450 -91 2169 54 
Q 1888 200 1656 506 
z
M 2400 2772 
Q 2041 2772 1848 2508 
Q 1656 2244 1656 1747 
Q 1656 1250 1848 986 
Q 2041 722 2400 722 
Q 2759 722 2948 984 
Q 3138 1247 3138 1747 
Q 3138 2247 2948 2509 
Q 2759 2772 2400 2772 
z
" transform="scale(0.015625)"/>
       <path id="DejaVuSans-Bold-68" d="M 4056 2131 
L 4056 0 
L 2931 0 
L 2931 347 
L 2931 1625 
Q 2931 2084 2911 2256 
Q 2891 2428 2841 2509 
Q 2775 2619 2662 2680 
Q 2550 2741 2406 2741 
Q 2056 2741 1856 2470 
Q 1656 2200 1656 1722 
L 1656 0 
L 538 0 
L 538 4863 
L 1656 4863 
L 1656 2988 
Q 1909 3294 2193 3439 
Q 2478 3584 2822 3584 
Q 3428 3584 3742 3212 
Q 4056 2841 4056 2131 
z
" transform="scale(0.015625)"/>
       <path id="DejaVuSans-Bold-61" d="M 2106 1575 
Q 1756 1575 1579 1456 
Q 1403 1338 1403 1106 
Q 1403 894 1545 773 
Q 1688 653 1941 653 
Q 2256 653 2472 879 
Q 2688 1106 2688 1447 
L 2688 1575 
L 2106 1575 
z
M 3816 1997 
L 3816 0 
L 2688 0 
L 2688 519 
Q 2463 200 2181 54 
Q 1900 -91 1497 -91 
Q 953 -91 614 226 
Q 275 544 275 1050 
Q 275 1666 698 1953 
Q 1122 2241 2028 2241 
L 2688 2241 
L 2688 2328 
Q 2688 2594 2478 2717 
Q 2269 2841 1825 2841 
Q 1466 2841 1156 2769 
Q 847 2697 581 2553 
L 581 3406 
Q 941 3494 1303 3539 
Q 1666 3584 2028 3584 
Q 2975 3584 3395 3211 
Q 3816 2838 3816 1997 
z
" transform="scale(0.015625)"/>
       <path id="DejaVuSans-Bold-20" transform="scale(0.015625)"/>
       <path id="DejaVuSans-Bold-56" d="M 31 4666 
L 1241 4666 
L 2478 1222 
L 3713 4666 
L 4922 4666 
L 3194 0 
L 1759 0 
L 31 4666 
z
" transform="scale(0.015625)"/>
       <path id="DejaVuSans-Bold-75" d="M 500 1363 
L 500 3500 
L 1625 3500 
L 1625 3150 
Q 1625 2866 1622 2436 
Q 1619 2006 1619 1863 
Q 1619 1441 1641 1255 
Q 1663 1069 1716 984 
Q 1784 875 1895 815 
Q 2006 756 2150 756 
Q 2500 756 2700 1025 
Q 2900 1294 2900 1772 
L 2900 3500 
L 4019 3500 
L 4019 0 
L 2900 0 
L 2900 506 
Q 2647 200 2364 54 
Q 2081 -91 1741 -91 
Q 1134 -91 817 281 
Q 500 653 500 1363 
z
" transform="scale(0.015625)"/>
       <path id="DejaVuSans-Bold-65" d="M 4031 1759 
L 4031 1441 
L 1416 1441 
Q 1456 1047 1700 850 
Q 1944 653 2381 653 
Q 2734 653 3104 758 
Q 3475 863 3866 1075 
L 3866 213 
Q 3469 63 3072 -14 
Q 2675 -91 2278 -91 
Q 1328 -91 801 392 
Q 275 875 275 1747 
Q 275 2603 792 3093 
Q 1309 3584 2216 3584 
Q 3041 3584 3536 3087 
Q 4031 2591 4031 1759 
z
M 2881 2131 
Q 2881 2450 2695 2645 
Q 2509 2841 2209 2841 
Q 1884 2841 1681 2658 
Q 1478 2475 1428 2131 
L 2881 2131 
z
" transform="scale(0.015625)"/>
       <path id="DejaVuSans-Bold-28" d="M 2413 -844 
L 1484 -844 
Q 1006 -72 778 623 
Q 550 1319 550 2003 
Q 550 2688 779 3389 
Q 1009 4091 1484 4856 
L 2413 4856 
Q 2013 4116 1813 3408 
Q 1613 2700 1613 2009 
Q 1613 1319 1811 609 
Q 2009 -100 2413 -844 
z
" transform="scale(0.015625)"/>
       <path id="DejaVuSans-Bold-3b1" d="M 3006 3163 
L 3119 3500 
L 4088 3500 
L 3484 1697 
L 3569 1219 
Q 3659 703 3872 703 
L 4128 703 
L 4128 0 
L 3809 0 
Q 3313 0 3059 263 
Q 3003 322 2988 353 
Q 2838 163 2689 39 
Q 2541 -84 1763 -78 
Q 988 -72 648 400 
Q 309 872 309 1794 
Q 309 2713 663 3088 
Q 1109 3569 1966 3578 
Q 2688 3588 3006 3163 
z
M 2575 1841 
L 2481 2350 
Q 2394 2825 1981 2828 
Q 1772 2828 1598 2558 
Q 1425 2288 1425 1741 
Q 1425 1191 1581 944 
Q 1738 697 1969 691 
Q 2213 684 2363 1163 
L 2575 1841 
z
" transform="scale(0.015625)"/>
       <path id="DejaVuSans-Bold-29" d="M 513 -844 
Q 913 -100 1113 609 
Q 1313 1319 1313 2009 
Q 1313 2700 1113 3408 
Q 913 4116 513 4856 
L 1441 4856 
Q 1916 4091 2145 3389 
Q 2375 2688 2375 2003 
Q 2375 1319 2147 623 
Q 1919 -72 1441 -844 
L 513 -844 
z
" transform="scale(0.015625)"/>
      </defs>
      <use xlink:href="#DejaVuSans-Bold-41"/>
      <use xlink:href="#DejaVuSans-Bold-6c" transform="translate(77.392578 0)"/>
      <use xlink:href="#DejaVuSans-Bold-70" transform="translate(111.669922 0)"/>
      <use xlink:href="#DejaVuSans-Bold-68" transform="translate(183.251953 0)"/>
      <use xlink:href="#DejaVuSans-Bold-61" transform="translate(254.443359 0)"/>
      <use xlink:href="#DejaVuSans-Bold-20" transform="translate(321.923828 0)"/>
      <use xlink:href="#DejaVuSans-Bold-56" transform="translate(356.738281 0)"/>
      <use xlink:href="#DejaVuSans-Bold-61" transform="translate(428.630859 0)"/>
      <use xlink:href="#DejaVuSans-Bold-6c" transform="translate(496.111328 0)"/>
      <use xlink:href="#DejaVuSans-Bold-75" transform="translate(530.388672 0)"/>
      <use xlink:href="#DejaVuSans-Bold-65" transform="translate(601.580078 0)"/>
      <use xlink:href="#DejaVuSans-Bold-20" transform="translate(669.402344 0)"/>
      <use xlink:href="#DejaVuSans-Bold-28" transform="translate(704.216797 0)"/>
      <use xlink:href="#DejaVuSans-Bold-3b1" transform="translate(749.919922 0)"/>
      <use xlink:href="#DejaVuSans-Bold-29" transform="translate(818.621094 0)"/>
     </g>
    </g>
   </g>
   <g id="matplotlib.axis_2">
    <g id="ytick_1">
     <g id="line2d_13">
      <path d="M 48.995 527.344125 
L 840.525 527.344125 
" clip-path="url(#p2cb9f1343a)" style="fill: none; stroke-dasharray: 0.5,0.825; stroke-dashoffset: 0; stroke: #b0b0b0; stroke-opacity: 0.3; stroke-width: 0.5"/>
     </g>
     <g id="line2d_14">
      <defs>
       <path id="m5bbcd01c17" d="M 0 0 
L -3.5 0 
" style="stroke: #000000; stroke-width: 0.8"/>
      </defs>
      <g>
       <use xlink:href="#m5bbcd01c17" x="48.995" y="527.344125" style="stroke: #000000; stroke-width: 0.8"/>
      </g>
     </g>
     <g id="text_8">
      <!-- 0 -->
      <g transform="translate(35.6325 531.143344) scale(0.1 -0.1)">
       <use xlink:href="#DejaVuSans-30"/>
      </g>
     </g>
    </g>
    <g id="ytick_2">
     <g id="line2d_15">
      <path d="M 48.995 455.568367 
L 840.525 455.568367 
" clip-path="url(#p2cb9f1343a)" style="fill: none; stroke-dasharray: 0.5,0.825; stroke-dashoffset: 0; stroke: #b0b0b0; stroke-opacity: 0.3; stroke-width: 0.5"/>
     </g>
     <g id="line2d_16">
      <g>
       <use xlink:href="#m5bbcd01c17" x="48.995" y="455.568367" style="stroke: #000000; stroke-width: 0.8"/>
      </g>
     </g>
     <g id="text_9">
      <!-- 50 -->
      <g transform="translate(29.27 459.367586) scale(0.1 -0.1)">
       <defs>
        <path id="DejaVuSans-35" d="M 691 4666 
L 3169 4666 
L 3169 4134 
L 1269 4134 
L 1269 2991 
Q 1406 3038 1543 3061 
Q 1681 3084 1819 3084 
Q 2600 3084 3056 2656 
Q 3513 2228 3513 1497 
Q 3513 744 3044 326 
Q 2575 -91 1722 -91 
Q 1428 -91 1123 -41 
Q 819 9 494 109 
L 494 744 
Q 775 591 1075 516 
Q 1375 441 1709 441 
Q 2250 441 2565 725 
Q 2881 1009 2881 1497 
Q 2881 1984 2565 2268 
Q 2250 2553 1709 2553 
Q 1456 2553 1204 2497 
Q 953 2441 691 2322 
L 691 4666 
z
" transform="scale(0.015625)"/>
       </defs>
       <use xlink:href="#DejaVuSans-35"/>
       <use xlink:href="#DejaVuSans-30" transform="translate(63.623047 0)"/>
      </g>
     </g>
    </g>
    <g id="ytick_3">
     <g id="line2d_17">
      <path d="M 48.995 383.79261 
L 840.525 383.79261 
" clip-path="url(#p2cb9f1343a)" style="fill: none; stroke-dasharray: 0.5,0.825; stroke-dashoffset: 0; stroke: #b0b0b0; stroke-opacity: 0.3; stroke-width: 0.5"/>
     </g>
     <g id="line2d_18">
      <g>
       <use xlink:href="#m5bbcd01c17" x="48.995" y="383.79261" style="stroke: #000000; stroke-width: 0.8"/>
      </g>
     </g>
     <g id="text_10">
      <!-- 100 -->
      <g transform="translate(22.9075 387.591829) scale(0.1 -0.1)">
       <use xlink:href="#DejaVuSans-31"/>
       <use xlink:href="#DejaVuSans-30" transform="translate(63.623047 0)"/>
       <use xlink:href="#DejaVuSans-30" transform="translate(127.246094 0)"/>
      </g>
     </g>
    </g>
    <g id="ytick_4">
     <g id="line2d_19">
      <path d="M 48.995 312.016852 
L 840.525 312.016852 
" clip-path="url(#p2cb9f1343a)" style="fill: none; stroke-dasharray: 0.5,0.825; stroke-dashoffset: 0; stroke: #b0b0b0; stroke-opacity: 0.3; stroke-width: 0.5"/>
     </g>
     <g id="line2d_20">
      <g>
       <use xlink:href="#m5bbcd01c17" x="48.995" y="312.016852" style="stroke: #000000; stroke-width: 0.8"/>
      </g>
     </g>
     <g id="text_11">
      <!-- 150 -->
      <g transform="translate(22.9075 315.816071) scale(0.1 -0.1)">
       <use xlink:href="#DejaVuSans-31"/>
       <use xlink:href="#DejaVuSans-35" transform="translate(63.623047 0)"/>
       <use xlink:href="#DejaVuSans-30" transform="translate(127.246094 0)"/>
      </g>
     </g>
    </g>
    <g id="ytick_5">
     <g id="line2d_21">
      <path d="M 48.995 240.241095 
L 840.525 240.241095 
" clip-path="url(#p2cb9f1343a)" style="fill: none; stroke-dasharray: 0.5,0.825; stroke-dashoffset: 0; stroke: #b0b0b0; stroke-opacity: 0.3; stroke-width: 0.5"/>
     </g>
     <g id="line2d_22">
      <g>
       <use xlink:href="#m5bbcd01c17" x="48.995" y="240.241095" style="stroke: #000000; stroke-width: 0.8"/>
      </g>
     </g>
     <g id="text_12">
      <!-- 200 -->
      <g transform="translate(22.9075 244.040313) scale(0.1 -0.1)">
       <use xlink:href="#DejaVuSans-32"/>
       <use xlink:href="#DejaVuSans-30" transform="translate(63.623047 0)"/>
       <use xlink:href="#DejaVuSans-30" transform="translate(127.246094 0)"/>
      </g>
     </g>
    </g>
    <g id="ytick_6">
     <g id="line2d_23">
      <path d="M 48.995 168.465337 
L 840.525 168.465337 
" clip-path="url(#p2cb9f1343a)" style="fill: none; stroke-dasharray: 0.5,0.825; stroke-dashoffset: 0; stroke: #b0b0b0; stroke-opacity: 0.3; stroke-width: 0.5"/>
     </g>
     <g id="line2d_24">
      <g>
       <use xlink:href="#m5bbcd01c17" x="48.995" y="168.465337" style="stroke: #000000; stroke-width: 0.8"/>
      </g>
     </g>
     <g id="text_13">
      <!-- 250 -->
      <g transform="translate(22.9075 172.264556) scale(0.1 -0.1)">
       <use xlink:href="#DejaVuSans-32"/>
       <use xlink:href="#DejaVuSans-35" transform="translate(63.623047 0)"/>
       <use xlink:href="#DejaVuSans-30" transform="translate(127.246094 0)"/>
      </g>
     </g>
    </g>
    <g id="ytick_7">
     <g id="line2d_25">
      <path d="M 48.995 96.68958 
L 840.525 96.68958 
" clip-path="url(#p2cb9f1343a)" style="fill: none; stroke-dasharray: 0.5,0.825; stroke-dashoffset: 0; stroke: #b0b0b0; stroke-opacity: 0.3; stroke-width: 0.5"/>
     </g>
     <g id="line2d_26">
      <g>
       <use xlink:href="#m5bbcd01c17" x="48.995" y="96.68958" style="stroke: #000000; stroke-width: 0.8"/>
      </g>
     </g>
     <g id="text_14">
      <!-- 300 -->
      <g transform="translate(22.9075 100.488798) scale(0.1 -0.1)">
       <defs>
        <path id="DejaVuSans-33" d="M 2597 2516 
Q 3050 2419 3304 2112 
Q 3559 1806 3559 1356 
Q 3559 666 3084 287 
Q 2609 -91 1734 -91 
Q 1441 -91 1130 -33 
Q 819 25 488 141 
L 488 750 
Q 750 597 1062 519 
Q 1375 441 1716 441 
Q 2309 441 2620 675 
Q 2931 909 2931 1356 
Q 2931 1769 2642 2001 
Q 2353 2234 1838 2234 
L 1294 2234 
L 1294 2753 
L 1863 2753 
Q 2328 2753 2575 2939 
Q 2822 3125 2822 3475 
Q 2822 3834 2567 4026 
Q 2313 4219 1838 4219 
Q 1578 4219 1281 4162 
Q 984 4106 628 3988 
L 628 4550 
Q 988 4650 1302 4700 
Q 1616 4750 1894 4750 
Q 2613 4750 3031 4423 
Q 3450 4097 3450 3541 
Q 3450 3153 3228 2886 
Q 3006 2619 2597 2516 
z
" transform="scale(0.015625)"/>
       </defs>
       <use xlink:href="#DejaVuSans-33"/>
       <use xlink:href="#DejaVuSans-30" transform="translate(63.623047 0)"/>
       <use xlink:href="#DejaVuSans-30" transform="translate(127.246094 0)"/>
      </g>
     </g>
    </g>
    <g id="text_15">
     <!-- Maximum History Size -->
     <g transform="translate(16.318125 365.832875) rotate(-90) scale(0.12 -0.12)">
      <defs>
       <path id="DejaVuSans-Bold-4d" d="M 588 4666 
L 2119 4666 
L 3181 2169 
L 4250 4666 
L 5778 4666 
L 5778 0 
L 4641 0 
L 4641 3413 
L 3566 897 
L 2803 897 
L 1728 3413 
L 1728 0 
L 588 0 
L 588 4666 
z
" transform="scale(0.015625)"/>
       <path id="DejaVuSans-Bold-78" d="M 1422 1791 
L 159 3500 
L 1344 3500 
L 2059 2463 
L 2784 3500 
L 3969 3500 
L 2706 1797 
L 4031 0 
L 2847 0 
L 2059 1106 
L 1281 0 
L 97 0 
L 1422 1791 
z
" transform="scale(0.015625)"/>
       <path id="DejaVuSans-Bold-69" d="M 538 3500 
L 1656 3500 
L 1656 0 
L 538 0 
L 538 3500 
z
M 538 4863 
L 1656 4863 
L 1656 3950 
L 538 3950 
L 538 4863 
z
" transform="scale(0.015625)"/>
       <path id="DejaVuSans-Bold-6d" d="M 3781 2919 
Q 3994 3244 4286 3414 
Q 4578 3584 4928 3584 
Q 5531 3584 5847 3212 
Q 6163 2841 6163 2131 
L 6163 0 
L 5038 0 
L 5038 1825 
Q 5041 1866 5042 1909 
Q 5044 1953 5044 2034 
Q 5044 2406 4934 2573 
Q 4825 2741 4581 2741 
Q 4263 2741 4089 2478 
Q 3916 2216 3909 1719 
L 3909 0 
L 2784 0 
L 2784 1825 
Q 2784 2406 2684 2573 
Q 2584 2741 2328 2741 
Q 2006 2741 1831 2477 
Q 1656 2213 1656 1722 
L 1656 0 
L 531 0 
L 531 3500 
L 1656 3500 
L 1656 2988 
Q 1863 3284 2130 3434 
Q 2397 3584 2719 3584 
Q 3081 3584 3359 3409 
Q 3638 3234 3781 2919 
z
" transform="scale(0.015625)"/>
       <path id="DejaVuSans-Bold-48" d="M 588 4666 
L 1791 4666 
L 1791 2888 
L 3566 2888 
L 3566 4666 
L 4769 4666 
L 4769 0 
L 3566 0 
L 3566 1978 
L 1791 1978 
L 1791 0 
L 588 0 
L 588 4666 
z
" transform="scale(0.015625)"/>
       <path id="DejaVuSans-Bold-73" d="M 3272 3391 
L 3272 2541 
Q 2913 2691 2578 2766 
Q 2244 2841 1947 2841 
Q 1628 2841 1473 2761 
Q 1319 2681 1319 2516 
Q 1319 2381 1436 2309 
Q 1553 2238 1856 2203 
L 2053 2175 
Q 2913 2066 3209 1816 
Q 3506 1566 3506 1031 
Q 3506 472 3093 190 
Q 2681 -91 1863 -91 
Q 1516 -91 1145 -36 
Q 775 19 384 128 
L 384 978 
Q 719 816 1070 734 
Q 1422 653 1784 653 
Q 2113 653 2278 743 
Q 2444 834 2444 1013 
Q 2444 1163 2330 1236 
Q 2216 1309 1875 1350 
L 1678 1375 
Q 931 1469 631 1722 
Q 331 1975 331 2491 
Q 331 3047 712 3315 
Q 1094 3584 1881 3584 
Q 2191 3584 2531 3537 
Q 2872 3491 3272 3391 
z
" transform="scale(0.015625)"/>
       <path id="DejaVuSans-Bold-74" d="M 1759 4494 
L 1759 3500 
L 2913 3500 
L 2913 2700 
L 1759 2700 
L 1759 1216 
Q 1759 972 1856 886 
Q 1953 800 2241 800 
L 2816 800 
L 2816 0 
L 1856 0 
Q 1194 0 917 276 
Q 641 553 641 1216 
L 641 2700 
L 84 2700 
L 84 3500 
L 641 3500 
L 641 4494 
L 1759 4494 
z
" transform="scale(0.015625)"/>
       <path id="DejaVuSans-Bold-6f" d="M 2203 2784 
Q 1831 2784 1636 2517 
Q 1441 2250 1441 1747 
Q 1441 1244 1636 976 
Q 1831 709 2203 709 
Q 2569 709 2762 976 
Q 2956 1244 2956 1747 
Q 2956 2250 2762 2517 
Q 2569 2784 2203 2784 
z
M 2203 3584 
Q 3106 3584 3614 3096 
Q 4122 2609 4122 1747 
Q 4122 884 3614 396 
Q 3106 -91 2203 -91 
Q 1297 -91 786 396 
Q 275 884 275 1747 
Q 275 2609 786 3096 
Q 1297 3584 2203 3584 
z
" transform="scale(0.015625)"/>
       <path id="DejaVuSans-Bold-72" d="M 3138 2547 
Q 2991 2616 2845 2648 
Q 2700 2681 2553 2681 
Q 2122 2681 1889 2404 
Q 1656 2128 1656 1613 
L 1656 0 
L 538 0 
L 538 3500 
L 1656 3500 
L 1656 2925 
Q 1872 3269 2151 3426 
Q 2431 3584 2822 3584 
Q 2878 3584 2943 3579 
Q 3009 3575 3134 3559 
L 3138 2547 
z
" transform="scale(0.015625)"/>
       <path id="DejaVuSans-Bold-79" d="M 78 3500 
L 1197 3500 
L 2138 1125 
L 2938 3500 
L 4056 3500 
L 2584 -331 
Q 2363 -916 2067 -1148 
Q 1772 -1381 1288 -1381 
L 641 -1381 
L 641 -647 
L 991 -647 
Q 1275 -647 1404 -556 
Q 1534 -466 1606 -231 
L 1638 -134 
L 78 3500 
z
" transform="scale(0.015625)"/>
       <path id="DejaVuSans-Bold-53" d="M 3834 4519 
L 3834 3531 
Q 3450 3703 3084 3790 
Q 2719 3878 2394 3878 
Q 1963 3878 1756 3759 
Q 1550 3641 1550 3391 
Q 1550 3203 1689 3098 
Q 1828 2994 2194 2919 
L 2706 2816 
Q 3484 2659 3812 2340 
Q 4141 2022 4141 1434 
Q 4141 663 3683 286 
Q 3225 -91 2284 -91 
Q 1841 -91 1394 -6 
Q 947 78 500 244 
L 500 1259 
Q 947 1022 1364 901 
Q 1781 781 2169 781 
Q 2563 781 2772 912 
Q 2981 1044 2981 1288 
Q 2981 1506 2839 1625 
Q 2697 1744 2272 1838 
L 1806 1941 
Q 1106 2091 782 2419 
Q 459 2747 459 3303 
Q 459 4000 909 4375 
Q 1359 4750 2203 4750 
Q 2588 4750 2994 4692 
Q 3400 4634 3834 4519 
z
" transform="scale(0.015625)"/>
       <path id="DejaVuSans-Bold-7a" d="M 366 3500 
L 3419 3500 
L 3419 2719 
L 1575 800 
L 3419 800 
L 3419 0 
L 288 0 
L 288 781 
L 2131 2700 
L 366 2700 
L 366 3500 
z
" transform="scale(0.015625)"/>
      </defs>
      <use xlink:href="#DejaVuSans-Bold-4d"/>
      <use xlink:href="#DejaVuSans-Bold-61" transform="translate(99.511719 0)"/>
      <use xlink:href="#DejaVuSans-Bold-78" transform="translate(166.992188 0)"/>
      <use xlink:href="#DejaVuSans-Bold-69" transform="translate(231.494141 0)"/>
      <use xlink:href="#DejaVuSans-Bold-6d" transform="translate(265.771484 0)"/>
      <use xlink:href="#DejaVuSans-Bold-75" transform="translate(369.970703 0)"/>
      <use xlink:href="#DejaVuSans-Bold-6d" transform="translate(441.162109 0)"/>
      <use xlink:href="#DejaVuSans-Bold-20" transform="translate(545.361328 0)"/>
      <use xlink:href="#DejaVuSans-Bold-48" transform="translate(580.175781 0)"/>
      <use xlink:href="#DejaVuSans-Bold-69" transform="translate(663.867188 0)"/>
      <use xlink:href="#DejaVuSans-Bold-73" transform="translate(698.144531 0)"/>
      <use xlink:href="#DejaVuSans-Bold-74" transform="translate(757.666016 0)"/>
      <use xlink:href="#DejaVuSans-Bold-6f" transform="translate(805.46875 0)"/>
      <use xlink:href="#DejaVuSans-Bold-72" transform="translate(874.169922 0)"/>
      <use xlink:href="#DejaVuSans-Bold-79" transform="translate(923.486328 0)"/>
      <use xlink:href="#DejaVuSans-Bold-20" transform="translate(988.671875 0)"/>
      <use xlink:href="#DejaVuSans-Bold-53" transform="translate(1023.486328 0)"/>
      <use xlink:href="#DejaVuSans-Bold-69" transform="translate(1095.507812 0)"/>
      <use xlink:href="#DejaVuSans-Bold-7a" transform="translate(1129.785156 0)"/>
      <use xlink:href="#DejaVuSans-Bold-65" transform="translate(1187.988281 0)"/>
     </g>
    </g>
   </g>
   <g id="line2d_27">
    <path d="M 101.763667 508.682428 
L 154.532333 498.633822 
L 207.301 494.327277 
L 260.069667 494.327277 
L 312.838333 495.762792 
L 365.607 498.633822 
L 418.375667 501.504852 
L 471.144333 504.375883 
L 523.913 507.246913 
L 576.681667 510.117943 
L 629.450333 512.988973 
L 682.219 515.860004 
L 734.987667 518.731034 
L 787.756333 521.602064 
" clip-path="url(#p2cb9f1343a)" style="fill: none; stroke: #1f77b4; stroke-width: 2; stroke-linecap: square"/>
    <defs>
     <path id="m5ea7f42d52" d="M 0 2 
C 0.530406 2 1.03916 1.789267 1.414214 1.414214 
C 1.789267 1.03916 2 0.530406 2 0 
C 2 -0.530406 1.789267 -1.03916 1.414214 -1.414214 
C 1.03916 -1.789267 0.530406 -2 0 -2 
C -0.530406 -2 -1.03916 -1.789267 -1.414214 -1.414214 
C -1.789267 -1.03916 -2 -0.530406 -2 0 
C -2 0.530406 -1.789267 1.03916 -1.414214 1.414214 
C -1.03916 1.789267 -0.530406 2 0 2 
z
" style="stroke: #1f77b4"/>
    </defs>
    <g clip-path="url(#p2cb9f1343a)">
     <use xlink:href="#m5ea7f42d52" x="101.763667" y="508.682428" style="fill: #1f77b4; stroke: #1f77b4"/>
     <use xlink:href="#m5ea7f42d52" x="207.301" y="494.327277" style="fill: #1f77b4; stroke: #1f77b4"/>
     <use xlink:href="#m5ea7f42d52" x="312.838333" y="495.762792" style="fill: #1f77b4; stroke: #1f77b4"/>
     <use xlink:href="#m5ea7f42d52" x="418.375667" y="501.504852" style="fill: #1f77b4; stroke: #1f77b4"/>
     <use xlink:href="#m5ea7f42d52" x="523.913" y="507.246913" style="fill: #1f77b4; stroke: #1f77b4"/>
     <use xlink:href="#m5ea7f42d52" x="629.450333" y="512.988973" style="fill: #1f77b4; stroke: #1f77b4"/>
     <use xlink:href="#m5ea7f42d52" x="734.987667" y="518.731034" style="fill: #1f77b4; stroke: #1f77b4"/>
    </g>
   </g>
   <g id="line2d_28">
    <path d="M 101.763667 263.209337 
L 154.532333 184.256004 
L 207.301 188.562549 
L 260.069667 225.885943 
L 312.838333 270.386913 
L 365.607 314.887883 
L 418.375667 352.211277 
L 471.144333 385.228125 
L 523.913 412.502913 
L 576.681667 435.471155 
L 629.450333 455.568367 
L 682.219 472.794549 
L 734.987667 487.149701 
L 787.756333 501.504852 
" clip-path="url(#p2cb9f1343a)" style="fill: none; stroke-dasharray: 7.4,3.2; stroke-dashoffset: 0; stroke: #ff7f0e; stroke-width: 2"/>
    <defs>
     <path id="m1fc3ba9ea6" d="M -2 2 
L 2 2 
L 2 -2 
L -2 -2 
z
" style="stroke: #ff7f0e; stroke-linejoin: miter"/>
    </defs>
    <g clip-path="url(#p2cb9f1343a)">
     <use xlink:href="#m1fc3ba9ea6" x="101.763667" y="263.209337" style="fill: #ff7f0e; stroke: #ff7f0e; stroke-linejoin: miter"/>
     <use xlink:href="#m1fc3ba9ea6" x="207.301" y="188.562549" style="fill: #ff7f0e; stroke: #ff7f0e; stroke-linejoin: miter"/>
     <use xlink:href="#m1fc3ba9ea6" x="312.838333" y="270.386913" style="fill: #ff7f0e; stroke: #ff7f0e; stroke-linejoin: miter"/>
     <use xlink:href="#m1fc3ba9ea6" x="418.375667" y="352.211277" style="fill: #ff7f0e; stroke: #ff7f0e; stroke-linejoin: miter"/>
     <use xlink:href="#m1fc3ba9ea6" x="523.913" y="412.502913" style="fill: #ff7f0e; stroke: #ff7f0e; stroke-linejoin: miter"/>
     <use xlink:href="#m1fc3ba9ea6" x="629.450333" y="455.568367" style="fill: #ff7f0e; stroke: #ff7f0e; stroke-linejoin: miter"/>
     <use xlink:href="#m1fc3ba9ea6" x="734.987667" y="487.149701" style="fill: #ff7f0e; stroke: #ff7f0e; stroke-linejoin: miter"/>
    </g>
   </g>
   <g id="line2d_29">
    <path d="M 101.763667 96.68958 
L 154.532333 96.68958 
L 207.301 96.68958 
L 260.069667 96.68958 
L 312.838333 96.68958 
L 365.607 96.68958 
L 418.375667 96.68958 
L 471.144333 96.68958 
L 523.913 96.68958 
L 576.681667 96.68958 
L 629.450333 171.336367 
L 682.219 270.386913 
L 734.987667 349.340246 
L 787.756333 419.680489 
" clip-path="url(#p2cb9f1343a)" style="fill: none; stroke-dasharray: 12.8,3.2,2,3.2; stroke-dashoffset: 0; stroke: #2ca02c; stroke-width: 2"/>
    <defs>
     <path id="ma30badf60c" d="M 0 -2 
L -2 2 
L 2 2 
z
" style="stroke: #2ca02c; stroke-linejoin: miter"/>
    </defs>
    <g clip-path="url(#p2cb9f1343a)">
     <use xlink:href="#ma30badf60c" x="101.763667" y="96.68958" style="fill: #2ca02c; stroke: #2ca02c; stroke-linejoin: miter"/>
     <use xlink:href="#ma30badf60c" x="207.301" y="96.68958" style="fill: #2ca02c; stroke: #2ca02c; stroke-linejoin: miter"/>
     <use xlink:href="#ma30badf60c" x="312.838333" y="96.68958" style="fill: #2ca02c; stroke: #2ca02c; stroke-linejoin: miter"/>
     <use xlink:href="#ma30badf60c" x="418.375667" y="96.68958" style="fill: #2ca02c; stroke: #2ca02c; stroke-linejoin: miter"/>
     <use xlink:href="#ma30badf60c" x="523.913" y="96.68958" style="fill: #2ca02c; stroke: #2ca02c; stroke-linejoin: miter"/>
     <use xlink:href="#ma30badf60c" x="629.450333" y="171.336367" style="fill: #2ca02c; stroke: #2ca02c; stroke-linejoin: miter"/>
     <use xlink:href="#ma30badf60c" x="734.987667" y="349.340246" style="fill: #2ca02c; stroke: #2ca02c; stroke-linejoin: miter"/>
    </g>
   </g>
   <g id="patch_3">
    <path d="M 48.995 527.344125 
L 48.995 53.624125 
" style="fill: none; stroke: #000000; stroke-width: 0.8; stroke-linejoin: miter; stroke-linecap: square"/>
   </g>
   <g id="patch_4">
    <path d="M 840.525 527.344125 
L 840.525 53.624125 
" style="fill: none; stroke: #000000; stroke-width: 0.8; stroke-linejoin: miter; stroke-linecap: square"/>
   </g>
   <g id="patch_5">
    <path d="M 48.995 527.344125 
L 840.525 527.344125 
" style="fill: none; stroke: #000000; stroke-width: 0.8; stroke-linejoin: miter; stroke-linecap: square"/>
   </g>
   <g id="patch_6">
    <path d="M 48.995 53.624125 
L 840.525 53.624125 
" style="fill: none; stroke: #000000; stroke-width: 0.8; stroke-linejoin: miter; stroke-linecap: square"/>
   </g>
   <g id="text_16">
    <g id="patch_7">
     <path d="M 64.8256 114.820962 
L 294.795288 114.820962 
Q 297.495288 114.820962 297.495288 112.120962 
L 297.495288 63.098525 
Q 297.495288 60.398525 294.795288 60.398525 
L 64.8256 60.398525 
Q 62.1256 60.398525 62.1256 63.098525 
L 62.1256 112.120962 
Q 62.1256 114.820962 64.8256 114.820962 
z
" style="fill: #add8e6; opacity: 0.8; stroke: #000000; stroke-linejoin: miter"/>
    </g>
    <!-- Format Details (all unsigned magnitude): -->
    <g transform="translate(64.8256 69.937119) scale(0.09 -0.09)">
     <defs>
      <path id="DejaVuSans-46" d="M 628 4666 
L 3309 4666 
L 3309 4134 
L 1259 4134 
L 1259 2759 
L 3109 2759 
L 3109 2228 
L 1259 2228 
L 1259 0 
L 628 0 
L 628 4666 
z
" transform="scale(0.015625)"/>
      <path id="DejaVuSans-6f" d="M 1959 3097 
Q 1497 3097 1228 2736 
Q 959 2375 959 1747 
Q 959 1119 1226 758 
Q 1494 397 1959 397 
Q 2419 397 2687 759 
Q 2956 1122 2956 1747 
Q 2956 2369 2687 2733 
Q 2419 3097 1959 3097 
z
M 1959 3584 
Q 2709 3584 3137 3096 
Q 3566 2609 3566 1747 
Q 3566 888 3137 398 
Q 2709 -91 1959 -91 
Q 1206 -91 779 398 
Q 353 888 353 1747 
Q 353 2609 779 3096 
Q 1206 3584 1959 3584 
z
" transform="scale(0.015625)"/>
      <path id="DejaVuSans-72" d="M 2631 2963 
Q 2534 3019 2420 3045 
Q 2306 3072 2169 3072 
Q 1681 3072 1420 2755 
Q 1159 2438 1159 1844 
L 1159 0 
L 581 0 
L 581 3500 
L 1159 3500 
L 1159 2956 
Q 1341 3275 1631 3429 
Q 1922 3584 2338 3584 
Q 2397 3584 2469 3576 
Q 2541 3569 2628 3553 
L 2631 2963 
z
" transform="scale(0.015625)"/>
      <path id="DejaVuSans-6d" d="M 3328 2828 
Q 3544 3216 3844 3400 
Q 4144 3584 4550 3584 
Q 5097 3584 5394 3201 
Q 5691 2819 5691 2113 
L 5691 0 
L 5113 0 
L 5113 2094 
Q 5113 2597 4934 2840 
Q 4756 3084 4391 3084 
Q 3944 3084 3684 2787 
Q 3425 2491 3425 1978 
L 3425 0 
L 2847 0 
L 2847 2094 
Q 2847 2600 2669 2842 
Q 2491 3084 2119 3084 
Q 1678 3084 1418 2786 
Q 1159 2488 1159 1978 
L 1159 0 
L 581 0 
L 581 3500 
L 1159 3500 
L 1159 2956 
Q 1356 3278 1631 3431 
Q 1906 3584 2284 3584 
Q 2666 3584 2933 3390 
Q 3200 3197 3328 2828 
z
" transform="scale(0.015625)"/>
      <path id="DejaVuSans-61" d="M 2194 1759 
Q 1497 1759 1228 1600 
Q 959 1441 959 1056 
Q 959 750 1161 570 
Q 1363 391 1709 391 
Q 2188 391 2477 730 
Q 2766 1069 2766 1631 
L 2766 1759 
L 2194 1759 
z
M 3341 1997 
L 3341 0 
L 2766 0 
L 2766 531 
Q 2569 213 2275 61 
Q 1981 -91 1556 -91 
Q 1019 -91 701 211 
Q 384 513 384 1019 
Q 384 1609 779 1909 
Q 1175 2209 1959 2209 
L 2766 2209 
L 2766 2266 
Q 2766 2663 2505 2880 
Q 2244 3097 1772 3097 
Q 1472 3097 1187 3025 
Q 903 2953 641 2809 
L 641 3341 
Q 956 3463 1253 3523 
Q 1550 3584 1831 3584 
Q 2591 3584 2966 3190 
Q 3341 2797 3341 1997 
z
" transform="scale(0.015625)"/>
      <path id="DejaVuSans-74" d="M 1172 4494 
L 1172 3500 
L 2356 3500 
L 2356 3053 
L 1172 3053 
L 1172 1153 
Q 1172 725 1289 603 
Q 1406 481 1766 481 
L 2356 481 
L 2356 0 
L 1766 0 
Q 1100 0 847 248 
Q 594 497 594 1153 
L 594 3053 
L 172 3053 
L 172 3500 
L 594 3500 
L 594 4494 
L 1172 4494 
z
" transform="scale(0.015625)"/>
      <path id="DejaVuSans-20" transform="scale(0.015625)"/>
      <path id="DejaVuSans-44" d="M 1259 4147 
L 1259 519 
L 2022 519 
Q 2988 519 3436 956 
Q 3884 1394 3884 2338 
Q 3884 3275 3436 3711 
Q 2988 4147 2022 4147 
L 1259 4147 
z
M 628 4666 
L 1925 4666 
Q 3281 4666 3915 4102 
Q 4550 3538 4550 2338 
Q 4550 1131 3912 565 
Q 3275 0 1925 0 
L 628 0 
L 628 4666 
z
" transform="scale(0.015625)"/>
      <path id="DejaVuSans-65" d="M 3597 1894 
L 3597 1613 
L 953 1613 
Q 991 1019 1311 708 
Q 1631 397 2203 397 
Q 2534 397 2845 478 
Q 3156 559 3463 722 
L 3463 178 
Q 3153 47 2828 -22 
Q 2503 -91 2169 -91 
Q 1331 -91 842 396 
Q 353 884 353 1716 
Q 353 2575 817 3079 
Q 1281 3584 2069 3584 
Q 2775 3584 3186 3129 
Q 3597 2675 3597 1894 
z
M 3022 2063 
Q 3016 2534 2758 2815 
Q 2500 3097 2075 3097 
Q 1594 3097 1305 2825 
Q 1016 2553 972 2059 
L 3022 2063 
z
" transform="scale(0.015625)"/>
      <path id="DejaVuSans-69" d="M 603 3500 
L 1178 3500 
L 1178 0 
L 603 0 
L 603 3500 
z
M 603 4863 
L 1178 4863 
L 1178 4134 
L 603 4134 
L 603 4863 
z
" transform="scale(0.015625)"/>
      <path id="DejaVuSans-6c" d="M 603 4863 
L 1178 4863 
L 1178 0 
L 603 0 
L 603 4863 
z
" transform="scale(0.015625)"/>
      <path id="DejaVuSans-73" d="M 2834 3397 
L 2834 2853 
Q 2591 2978 2328 3040 
Q 2066 3103 1784 3103 
Q 1356 3103 1142 2972 
Q 928 2841 928 2578 
Q 928 2378 1081 2264 
Q 1234 2150 1697 2047 
L 1894 2003 
Q 2506 1872 2764 1633 
Q 3022 1394 3022 966 
Q 3022 478 2636 193 
Q 2250 -91 1575 -91 
Q 1294 -91 989 -36 
Q 684 19 347 128 
L 347 722 
Q 666 556 975 473 
Q 1284 391 1588 391 
Q 1994 391 2212 530 
Q 2431 669 2431 922 
Q 2431 1156 2273 1281 
Q 2116 1406 1581 1522 
L 1381 1569 
Q 847 1681 609 1914 
Q 372 2147 372 2553 
Q 372 3047 722 3315 
Q 1072 3584 1716 3584 
Q 2034 3584 2315 3537 
Q 2597 3491 2834 3397 
z
" transform="scale(0.015625)"/>
      <path id="DejaVuSans-28" d="M 1984 4856 
Q 1566 4138 1362 3434 
Q 1159 2731 1159 2009 
Q 1159 1288 1364 580 
Q 1569 -128 1984 -844 
L 1484 -844 
Q 1016 -109 783 600 
Q 550 1309 550 2009 
Q 550 2706 781 3412 
Q 1013 4119 1484 4856 
L 1984 4856 
z
" transform="scale(0.015625)"/>
      <path id="DejaVuSans-75" d="M 544 1381 
L 544 3500 
L 1119 3500 
L 1119 1403 
Q 1119 906 1312 657 
Q 1506 409 1894 409 
Q 2359 409 2629 706 
Q 2900 1003 2900 1516 
L 2900 3500 
L 3475 3500 
L 3475 0 
L 2900 0 
L 2900 538 
Q 2691 219 2414 64 
Q 2138 -91 1772 -91 
Q 1169 -91 856 284 
Q 544 659 544 1381 
z
M 1991 3584 
L 1991 3584 
z
" transform="scale(0.015625)"/>
      <path id="DejaVuSans-6e" d="M 3513 2113 
L 3513 0 
L 2938 0 
L 2938 2094 
Q 2938 2591 2744 2837 
Q 2550 3084 2163 3084 
Q 1697 3084 1428 2787 
Q 1159 2491 1159 1978 
L 1159 0 
L 581 0 
L 581 3500 
L 1159 3500 
L 1159 2956 
Q 1366 3272 1645 3428 
Q 1925 3584 2291 3584 
Q 2894 3584 3203 3211 
Q 3513 2838 3513 2113 
z
" transform="scale(0.015625)"/>
      <path id="DejaVuSans-67" d="M 2906 1791 
Q 2906 2416 2648 2759 
Q 2391 3103 1925 3103 
Q 1463 3103 1205 2759 
Q 947 2416 947 1791 
Q 947 1169 1205 825 
Q 1463 481 1925 481 
Q 2391 481 2648 825 
Q 2906 1169 2906 1791 
z
M 3481 434 
Q 3481 -459 3084 -895 
Q 2688 -1331 1869 -1331 
Q 1566 -1331 1297 -1286 
Q 1028 -1241 775 -1147 
L 775 -588 
Q 1028 -725 1275 -790 
Q 1522 -856 1778 -856 
Q 2344 -856 2625 -561 
Q 2906 -266 2906 331 
L 2906 616 
Q 2728 306 2450 153 
Q 2172 0 1784 0 
Q 1141 0 747 490 
Q 353 981 353 1791 
Q 353 2603 747 3093 
Q 1141 3584 1784 3584 
Q 2172 3584 2450 3431 
Q 2728 3278 2906 2969 
L 2906 3500 
L 3481 3500 
L 3481 434 
z
" transform="scale(0.015625)"/>
      <path id="DejaVuSans-64" d="M 2906 2969 
L 2906 4863 
L 3481 4863 
L 3481 0 
L 2906 0 
L 2906 525 
Q 2725 213 2448 61 
Q 2172 -91 1784 -91 
Q 1150 -91 751 415 
Q 353 922 353 1747 
Q 353 2572 751 3078 
Q 1150 3584 1784 3584 
Q 2172 3584 2448 3432 
Q 2725 3281 2906 2969 
z
M 947 1747 
Q 947 1113 1208 752 
Q 1469 391 1925 391 
Q 2381 391 2643 752 
Q 2906 1113 2906 1747 
Q 2906 2381 2643 2742 
Q 2381 3103 1925 3103 
Q 1469 3103 1208 2742 
Q 947 2381 947 1747 
z
" transform="scale(0.015625)"/>
      <path id="DejaVuSans-29" d="M 513 4856 
L 1013 4856 
Q 1481 4119 1714 3412 
Q 1947 2706 1947 2009 
Q 1947 1309 1714 600 
Q 1481 -109 1013 -844 
L 513 -844 
Q 928 -128 1133 580 
Q 1338 1288 1338 2009 
Q 1338 2731 1133 3434 
Q 928 4138 513 4856 
z
" transform="scale(0.015625)"/>
      <path id="DejaVuSans-3a" d="M 750 794 
L 1409 794 
L 1409 0 
L 750 0 
L 750 794 
z
M 750 3309 
L 1409 3309 
L 1409 2516 
L 750 2516 
L 750 3309 
z
" transform="scale(0.015625)"/>
     </defs>
     <use xlink:href="#DejaVuSans-46"/>
     <use xlink:href="#DejaVuSans-6f" transform="translate(53.894531 0)"/>
     <use xlink:href="#DejaVuSans-72" transform="translate(115.076172 0)"/>
     <use xlink:href="#DejaVuSans-6d" transform="translate(154.439453 0)"/>
     <use xlink:href="#DejaVuSans-61" transform="translate(251.851562 0)"/>
     <use xlink:href="#DejaVuSans-74" transform="translate(313.130859 0)"/>
     <use xlink:href="#DejaVuSans-20" transform="translate(352.339844 0)"/>
     <use xlink:href="#DejaVuSans-44" transform="translate(384.126953 0)"/>
     <use xlink:href="#DejaVuSans-65" transform="translate(461.128906 0)"/>
     <use xlink:href="#DejaVuSans-74" transform="translate(522.652344 0)"/>
     <use xlink:href="#DejaVuSans-61" transform="translate(561.861328 0)"/>
     <use xlink:href="#DejaVuSans-69" transform="translate(623.140625 0)"/>
     <use xlink:href="#DejaVuSans-6c" transform="translate(650.923828 0)"/>
     <use xlink:href="#DejaVuSans-73" transform="translate(678.707031 0)"/>
     <use xlink:href="#DejaVuSans-20" transform="translate(730.806641 0)"/>
     <use xlink:href="#DejaVuSans-28" transform="translate(762.59375 0)"/>
     <use xlink:href="#DejaVuSans-61" transform="translate(801.607422 0)"/>
     <use xlink:href="#DejaVuSans-6c" transform="translate(862.886719 0)"/>
     <use xlink:href="#DejaVuSans-6c" transform="translate(890.669922 0)"/>
     <use xlink:href="#DejaVuSans-20" transform="translate(918.453125 0)"/>
     <use xlink:href="#DejaVuSans-75" transform="translate(950.240234 0)"/>
     <use xlink:href="#DejaVuSans-6e" transform="translate(1013.619141 0)"/>
     <use xlink:href="#DejaVuSans-73" transform="translate(1076.998047 0)"/>
     <use xlink:href="#DejaVuSans-69" transform="translate(1129.097656 0)"/>
     <use xlink:href="#DejaVuSans-67" transform="translate(1156.880859 0)"/>
     <use xlink:href="#DejaVuSans-6e" transform="translate(1220.357422 0)"/>
     <use xlink:href="#DejaVuSans-65" transform="translate(1283.736328 0)"/>
     <use xlink:href="#DejaVuSans-64" transform="translate(1345.259766 0)"/>
     <use xlink:href="#DejaVuSans-20" transform="translate(1408.736328 0)"/>
     <use xlink:href="#DejaVuSans-6d" transform="translate(1440.523438 0)"/>
     <use xlink:href="#DejaVuSans-61" transform="translate(1537.935547 0)"/>
     <use xlink:href="#DejaVuSans-67" transform="translate(1599.214844 0)"/>
     <use xlink:href="#DejaVuSans-6e" transform="translate(1662.691406 0)"/>
     <use xlink:href="#DejaVuSans-69" transform="translate(1726.070312 0)"/>
     <use xlink:href="#DejaVuSans-74" transform="translate(1753.853516 0)"/>
     <use xlink:href="#DejaVuSans-75" transform="translate(1793.0625 0)"/>
     <use xlink:href="#DejaVuSans-64" transform="translate(1856.441406 0)"/>
     <use xlink:href="#DejaVuSans-65" transform="translate(1919.917969 0)"/>
     <use xlink:href="#DejaVuSans-29" transform="translate(1981.441406 0)"/>
     <use xlink:href="#DejaVuSans-3a" transform="translate(2020.455078 0)"/>
    </g>
    <!-- • UQ0.8: k=0 uses UQ1.7, k≥1 uses UQ0.8 -->
    <g transform="translate(64.8256 80.01515) scale(0.09 -0.09)">
     <defs>
      <path id="DejaVuSans-2022" d="M 959 2381 
Q 959 2769 1229 3036 
Q 1500 3303 1894 3303 
Q 2281 3303 2548 3036 
Q 2816 2769 2816 2381 
Q 2816 1991 2547 1722 
Q 2278 1453 1888 1453 
Q 1497 1453 1228 1722 
Q 959 1991 959 2381 
z
" transform="scale(0.015625)"/>
      <path id="DejaVuSans-55" d="M 556 4666 
L 1191 4666 
L 1191 1831 
Q 1191 1081 1462 751 
Q 1734 422 2344 422 
Q 2950 422 3222 751 
Q 3494 1081 3494 1831 
L 3494 4666 
L 4128 4666 
L 4128 1753 
Q 4128 841 3676 375 
Q 3225 -91 2344 -91 
Q 1459 -91 1007 375 
Q 556 841 556 1753 
L 556 4666 
z
" transform="scale(0.015625)"/>
      <path id="DejaVuSans-51" d="M 2522 4238 
Q 1834 4238 1429 3725 
Q 1025 3213 1025 2328 
Q 1025 1447 1429 934 
Q 1834 422 2522 422 
Q 3209 422 3611 934 
Q 4013 1447 4013 2328 
Q 4013 3213 3611 3725 
Q 3209 4238 2522 4238 
z
M 3406 84 
L 4238 -825 
L 3475 -825 
L 2784 -78 
Q 2681 -84 2626 -87 
Q 2572 -91 2522 -91 
Q 1538 -91 948 567 
Q 359 1225 359 2328 
Q 359 3434 948 4092 
Q 1538 4750 2522 4750 
Q 3503 4750 4090 4092 
Q 4678 3434 4678 2328 
Q 4678 1516 4351 937 
Q 4025 359 3406 84 
z
" transform="scale(0.015625)"/>
      <path id="DejaVuSans-6b" d="M 581 4863 
L 1159 4863 
L 1159 1991 
L 2875 3500 
L 3609 3500 
L 1753 1863 
L 3688 0 
L 2938 0 
L 1159 1709 
L 1159 0 
L 581 0 
L 581 4863 
z
" transform="scale(0.015625)"/>
      <path id="DejaVuSans-3d" d="M 678 2906 
L 4684 2906 
L 4684 2381 
L 678 2381 
L 678 2906 
z
M 678 1631 
L 4684 1631 
L 4684 1100 
L 678 1100 
L 678 1631 
z
" transform="scale(0.015625)"/>
      <path id="DejaVuSans-37" d="M 525 4666 
L 3525 4666 
L 3525 4397 
L 1831 0 
L 1172 0 
L 2766 4134 
L 525 4134 
L 525 4666 
z
" transform="scale(0.015625)"/>
      <path id="DejaVuSans-2c" d="M 750 794 
L 1409 794 
L 1409 256 
L 897 -744 
L 494 -744 
L 750 256 
L 750 794 
z
" transform="scale(0.015625)"/>
      <path id="DejaVuSans-2265" d="M 678 3175 
L 678 3725 
L 4684 2578 
L 4684 2047 
L 678 897 
L 678 1453 
L 3681 2309 
L 678 3175 
z
M 4684 531 
L 4684 0 
L 678 0 
L 678 531 
L 4684 531 
z
" transform="scale(0.015625)"/>
     </defs>
     <use xlink:href="#DejaVuSans-2022"/>
     <use xlink:href="#DejaVuSans-20" transform="translate(58.984375 0)"/>
     <use xlink:href="#DejaVuSans-55" transform="translate(90.771484 0)"/>
     <use xlink:href="#DejaVuSans-51" transform="translate(163.964844 0)"/>
     <use xlink:href="#DejaVuSans-30" transform="translate(242.675781 0)"/>
     <use xlink:href="#DejaVuSans-2e" transform="translate(306.298828 0)"/>
     <use xlink:href="#DejaVuSans-38" transform="translate(338.085938 0)"/>
     <use xlink:href="#DejaVuSans-3a" transform="translate(401.708984 0)"/>
     <use xlink:href="#DejaVuSans-20" transform="translate(435.400391 0)"/>
     <use xlink:href="#DejaVuSans-6b" transform="translate(467.1875 0)"/>
     <use xlink:href="#DejaVuSans-3d" transform="translate(525.097656 0)"/>
     <use xlink:href="#DejaVuSans-30" transform="translate(608.886719 0)"/>
     <use xlink:href="#DejaVuSans-20" transform="translate(672.509766 0)"/>
     <use xlink:href="#DejaVuSans-75" transform="translate(704.296875 0)"/>
     <use xlink:href="#DejaVuSans-73" transform="translate(767.675781 0)"/>
     <use xlink:href="#DejaVuSans-65" transform="translate(819.775391 0)"/>
     <use xlink:href="#DejaVuSans-73" transform="translate(881.298828 0)"/>
     <use xlink:href="#DejaVuSans-20" transform="translate(933.398438 0)"/>
     <use xlink:href="#DejaVuSans-55" transform="translate(965.185547 0)"/>
     <use xlink:href="#DejaVuSans-51" transform="translate(1038.378906 0)"/>
     <use xlink:href="#DejaVuSans-31" transform="translate(1117.089844 0)"/>
     <use xlink:href="#DejaVuSans-2e" transform="translate(1180.712891 0)"/>
     <use xlink:href="#DejaVuSans-37" transform="translate(1212.5 0)"/>
     <use xlink:href="#DejaVuSans-2c" transform="translate(1276.123047 0)"/>
     <use xlink:href="#DejaVuSans-20" transform="translate(1307.910156 0)"/>
     <use xlink:href="#DejaVuSans-6b" transform="translate(1339.697266 0)"/>
     <use xlink:href="#DejaVuSans-2265" transform="translate(1397.607422 0)"/>
     <use xlink:href="#DejaVuSans-31" transform="translate(1481.396484 0)"/>
     <use xlink:href="#DejaVuSans-20" transform="translate(1545.019531 0)"/>
     <use xlink:href="#DejaVuSans-75" transform="translate(1576.806641 0)"/>
     <use xlink:href="#DejaVuSans-73" transform="translate(1640.185547 0)"/>
     <use xlink:href="#DejaVuSans-65" transform="translate(1692.285156 0)"/>
     <use xlink:href="#DejaVuSans-73" transform="translate(1753.808594 0)"/>
     <use xlink:href="#DejaVuSans-20" transform="translate(1805.908203 0)"/>
     <use xlink:href="#DejaVuSans-55" transform="translate(1837.695312 0)"/>
     <use xlink:href="#DejaVuSans-51" transform="translate(1910.888672 0)"/>
     <use xlink:href="#DejaVuSans-30" transform="translate(1989.599609 0)"/>
     <use xlink:href="#DejaVuSans-2e" transform="translate(2053.222656 0)"/>
     <use xlink:href="#DejaVuSans-38" transform="translate(2085.009766 0)"/>
    </g>
    <!-- • UQ0.12: k=0 uses UQ1.11, k≥1 uses UQ0.12 -->
    <g transform="translate(64.8256 90.093181) scale(0.09 -0.09)">
     <use xlink:href="#DejaVuSans-2022"/>
     <use xlink:href="#DejaVuSans-20" transform="translate(58.984375 0)"/>
     <use xlink:href="#DejaVuSans-55" transform="translate(90.771484 0)"/>
     <use xlink:href="#DejaVuSans-51" transform="translate(163.964844 0)"/>
     <use xlink:href="#DejaVuSans-30" transform="translate(242.675781 0)"/>
     <use xlink:href="#DejaVuSans-2e" transform="translate(306.298828 0)"/>
     <use xlink:href="#DejaVuSans-31" transform="translate(338.085938 0)"/>
     <use xlink:href="#DejaVuSans-32" transform="translate(401.708984 0)"/>
     <use xlink:href="#DejaVuSans-3a" transform="translate(465.332031 0)"/>
     <use xlink:href="#DejaVuSans-20" transform="translate(499.023438 0)"/>
     <use xlink:href="#DejaVuSans-6b" transform="translate(530.810547 0)"/>
     <use xlink:href="#DejaVuSans-3d" transform="translate(588.720703 0)"/>
     <use xlink:href="#DejaVuSans-30" transform="translate(672.509766 0)"/>
     <use xlink:href="#DejaVuSans-20" transform="translate(736.132812 0)"/>
     <use xlink:href="#DejaVuSans-75" transform="translate(767.919922 0)"/>
     <use xlink:href="#DejaVuSans-73" transform="translate(831.298828 0)"/>
     <use xlink:href="#DejaVuSans-65" transform="translate(883.398438 0)"/>
     <use xlink:href="#DejaVuSans-73" transform="translate(944.921875 0)"/>
     <use xlink:href="#DejaVuSans-20" transform="translate(997.021484 0)"/>
     <use xlink:href="#DejaVuSans-55" transform="translate(1028.808594 0)"/>
     <use xlink:href="#DejaVuSans-51" transform="translate(1102.001953 0)"/>
     <use xlink:href="#DejaVuSans-31" transform="translate(1180.712891 0)"/>
     <use xlink:href="#DejaVuSans-2e" transform="translate(1244.335938 0)"/>
     <use xlink:href="#DejaVuSans-31" transform="translate(1276.123047 0)"/>
     <use xlink:href="#DejaVuSans-31" transform="translate(1339.746094 0)"/>
     <use xlink:href="#DejaVuSans-2c" transform="translate(1403.369141 0)"/>
     <use xlink:href="#DejaVuSans-20" transform="translate(1435.15625 0)"/>
     <use xlink:href="#DejaVuSans-6b" transform="translate(1466.943359 0)"/>
     <use xlink:href="#DejaVuSans-2265" transform="translate(1524.853516 0)"/>
     <use xlink:href="#DejaVuSans-31" transform="translate(1608.642578 0)"/>
     <use xlink:href="#DejaVuSans-20" transform="translate(1672.265625 0)"/>
     <use xlink:href="#DejaVuSans-75" transform="translate(1704.052734 0)"/>
     <use xlink:href="#DejaVuSans-73" transform="translate(1767.431641 0)"/>
     <use xlink:href="#DejaVuSans-65" transform="translate(1819.53125 0)"/>
     <use xlink:href="#DejaVuSans-73" transform="translate(1881.054688 0)"/>
     <use xlink:href="#DejaVuSans-20" transform="translate(1933.154297 0)"/>
     <use xlink:href="#DejaVuSans-55" transform="translate(1964.941406 0)"/>
     <use xlink:href="#DejaVuSans-51" transform="translate(2038.134766 0)"/>
     <use xlink:href="#DejaVuSans-30" transform="translate(2116.845703 0)"/>
     <use xlink:href="#DejaVuSans-2e" transform="translate(2180.46875 0)"/>
     <use xlink:href="#DejaVuSans-31" transform="translate(2212.255859 0)"/>
     <use xlink:href="#DejaVuSans-32" transform="translate(2275.878906 0)"/>
    </g>
    <!-- • UQ0.16: k=0 uses UQ1.15, k≥1 uses UQ0.16 -->
    <g transform="translate(64.8256 100.171212) scale(0.09 -0.09)">
     <use xlink:href="#DejaVuSans-2022"/>
     <use xlink:href="#DejaVuSans-20" transform="translate(58.984375 0)"/>
     <use xlink:href="#DejaVuSans-55" transform="translate(90.771484 0)"/>
     <use xlink:href="#DejaVuSans-51" transform="translate(163.964844 0)"/>
     <use xlink:href="#DejaVuSans-30" transform="translate(242.675781 0)"/>
     <use xlink:href="#DejaVuSans-2e" transform="translate(306.298828 0)"/>
     <use xlink:href="#DejaVuSans-31" transform="translate(338.085938 0)"/>
     <use xlink:href="#DejaVuSans-36" transform="translate(401.708984 0)"/>
     <use xlink:href="#DejaVuSans-3a" transform="translate(465.332031 0)"/>
     <use xlink:href="#DejaVuSans-20" transform="translate(499.023438 0)"/>
     <use xlink:href="#DejaVuSans-6b" transform="translate(530.810547 0)"/>
     <use xlink:href="#DejaVuSans-3d" transform="translate(588.720703 0)"/>
     <use xlink:href="#DejaVuSans-30" transform="translate(672.509766 0)"/>
     <use xlink:href="#DejaVuSans-20" transform="translate(736.132812 0)"/>
     <use xlink:href="#DejaVuSans-75" transform="translate(767.919922 0)"/>
     <use xlink:href="#DejaVuSans-73" transform="translate(831.298828 0)"/>
     <use xlink:href="#DejaVuSans-65" transform="translate(883.398438 0)"/>
     <use xlink:href="#DejaVuSans-73" transform="translate(944.921875 0)"/>
     <use xlink:href="#DejaVuSans-20" transform="translate(997.021484 0)"/>
     <use xlink:href="#DejaVuSans-55" transform="translate(1028.808594 0)"/>
     <use xlink:href="#DejaVuSans-51" transform="translate(1102.001953 0)"/>
     <use xlink:href="#DejaVuSans-31" transform="translate(1180.712891 0)"/>
     <use xlink:href="#DejaVuSans-2e" transform="translate(1244.335938 0)"/>
     <use xlink:href="#DejaVuSans-31" transform="translate(1276.123047 0)"/>
     <use xlink:href="#DejaVuSans-35" transform="translate(1339.746094 0)"/>
     <use xlink:href="#DejaVuSans-2c" transform="translate(1403.369141 0)"/>
     <use xlink:href="#DejaVuSans-20" transform="translate(1435.15625 0)"/>
     <use xlink:href="#DejaVuSans-6b" transform="translate(1466.943359 0)"/>
     <use xlink:href="#DejaVuSans-2265" transform="translate(1524.853516 0)"/>
     <use xlink:href="#DejaVuSans-31" transform="translate(1608.642578 0)"/>
     <use xlink:href="#DejaVuSans-20" transform="translate(1672.265625 0)"/>
     <use xlink:href="#DejaVuSans-75" transform="translate(1704.052734 0)"/>
     <use xlink:href="#DejaVuSans-73" transform="translate(1767.431641 0)"/>
     <use xlink:href="#DejaVuSans-65" transform="translate(1819.53125 0)"/>
     <use xlink:href="#DejaVuSans-73" transform="translate(1881.054688 0)"/>
     <use xlink:href="#DejaVuSans-20" transform="translate(1933.154297 0)"/>
     <use xlink:href="#DejaVuSans-55" transform="translate(1964.941406 0)"/>
     <use xlink:href="#DejaVuSans-51" transform="translate(2038.134766 0)"/>
     <use xlink:href="#DejaVuSans-30" transform="translate(2116.845703 0)"/>
     <use xlink:href="#DejaVuSans-2e" transform="translate(2180.46875 0)"/>
     <use xlink:href="#DejaVuSans-31" transform="translate(2212.255859 0)"/>
     <use xlink:href="#DejaVuSans-36" transform="translate(2275.878906 0)"/>
    </g>
    <!-- • Alpha values: 14 points from 4-bit representation -->
    <g transform="translate(64.8256 110.249244) scale(0.09 -0.09)">
     <defs>
      <path id="DejaVuSans-41" d="M 2188 4044 
L 1331 1722 
L 3047 1722 
L 2188 4044 
z
M 1831 4666 
L 2547 4666 
L 4325 0 
L 3669 0 
L 3244 1197 
L 1141 1197 
L 716 0 
L 50 0 
L 1831 4666 
z
" transform="scale(0.015625)"/>
      <path id="DejaVuSans-70" d="M 1159 525 
L 1159 -1331 
L 581 -1331 
L 581 3500 
L 1159 3500 
L 1159 2969 
Q 1341 3281 1617 3432 
Q 1894 3584 2278 3584 
Q 2916 3584 3314 3078 
Q 3713 2572 3713 1747 
Q 3713 922 3314 415 
Q 2916 -91 2278 -91 
Q 1894 -91 1617 61 
Q 1341 213 1159 525 
z
M 3116 1747 
Q 3116 2381 2855 2742 
Q 2594 3103 2138 3103 
Q 1681 3103 1420 2742 
Q 1159 2381 1159 1747 
Q 1159 1113 1420 752 
Q 1681 391 2138 391 
Q 2594 391 2855 752 
Q 3116 1113 3116 1747 
z
" transform="scale(0.015625)"/>
      <path id="DejaVuSans-68" d="M 3513 2113 
L 3513 0 
L 2938 0 
L 2938 2094 
Q 2938 2591 2744 2837 
Q 2550 3084 2163 3084 
Q 1697 3084 1428 2787 
Q 1159 2491 1159 1978 
L 1159 0 
L 581 0 
L 581 4863 
L 1159 4863 
L 1159 2956 
Q 1366 3272 1645 3428 
Q 1925 3584 2291 3584 
Q 2894 3584 3203 3211 
Q 3513 2838 3513 2113 
z
" transform="scale(0.015625)"/>
      <path id="DejaVuSans-76" d="M 191 3500 
L 800 3500 
L 1894 563 
L 2988 3500 
L 3597 3500 
L 2284 0 
L 1503 0 
L 191 3500 
z
" transform="scale(0.015625)"/>
      <path id="DejaVuSans-66" d="M 2375 4863 
L 2375 4384 
L 1825 4384 
Q 1516 4384 1395 4259 
Q 1275 4134 1275 3809 
L 1275 3500 
L 2222 3500 
L 2222 3053 
L 1275 3053 
L 1275 0 
L 697 0 
L 697 3053 
L 147 3053 
L 147 3500 
L 697 3500 
L 697 3744 
Q 697 4328 969 4595 
Q 1241 4863 1831 4863 
L 2375 4863 
z
" transform="scale(0.015625)"/>
      <path id="DejaVuSans-2d" d="M 313 2009 
L 1997 2009 
L 1997 1497 
L 313 1497 
L 313 2009 
z
" transform="scale(0.015625)"/>
      <path id="DejaVuSans-62" d="M 3116 1747 
Q 3116 2381 2855 2742 
Q 2594 3103 2138 3103 
Q 1681 3103 1420 2742 
Q 1159 2381 1159 1747 
Q 1159 1113 1420 752 
Q 1681 391 2138 391 
Q 2594 391 2855 752 
Q 3116 1113 3116 1747 
z
M 1159 2969 
Q 1341 3281 1617 3432 
Q 1894 3584 2278 3584 
Q 2916 3584 3314 3078 
Q 3713 2572 3713 1747 
Q 3713 922 3314 415 
Q 2916 -91 2278 -91 
Q 1894 -91 1617 61 
Q 1341 213 1159 525 
L 1159 0 
L 581 0 
L 581 4863 
L 1159 4863 
L 1159 2969 
z
" transform="scale(0.015625)"/>
     </defs>
     <use xlink:href="#DejaVuSans-2022"/>
     <use xlink:href="#DejaVuSans-20" transform="translate(58.984375 0)"/>
     <use xlink:href="#DejaVuSans-41" transform="translate(90.771484 0)"/>
     <use xlink:href="#DejaVuSans-6c" transform="translate(159.179688 0)"/>
     <use xlink:href="#DejaVuSans-70" transform="translate(186.962891 0)"/>
     <use xlink:href="#DejaVuSans-68" transform="translate(250.439453 0)"/>
     <use xlink:href="#DejaVuSans-61" transform="translate(313.818359 0)"/>
     <use xlink:href="#DejaVuSans-20" transform="translate(375.097656 0)"/>
     <use xlink:href="#DejaVuSans-76" transform="translate(406.884766 0)"/>
     <use xlink:href="#DejaVuSans-61" transform="translate(466.064453 0)"/>
     <use xlink:href="#DejaVuSans-6c" transform="translate(527.34375 0)"/>
     <use xlink:href="#DejaVuSans-75" transform="translate(555.126953 0)"/>
     <use xlink:href="#DejaVuSans-65" transform="translate(618.505859 0)"/>
     <use xlink:href="#DejaVuSans-73" transform="translate(680.029297 0)"/>
     <use xlink:href="#DejaVuSans-3a" transform="translate(732.128906 0)"/>
     <use xlink:href="#DejaVuSans-20" transform="translate(765.820312 0)"/>
     <use xlink:href="#DejaVuSans-31" transform="translate(797.607422 0)"/>
     <use xlink:href="#DejaVuSans-34" transform="translate(861.230469 0)"/>
     <use xlink:href="#DejaVuSans-20" transform="translate(924.853516 0)"/>
     <use xlink:href="#DejaVuSans-70" transform="translate(956.640625 0)"/>
     <use xlink:href="#DejaVuSans-6f" transform="translate(1020.117188 0)"/>
     <use xlink:href="#DejaVuSans-69" transform="translate(1081.298828 0)"/>
     <use xlink:href="#DejaVuSans-6e" transform="translate(1109.082031 0)"/>
     <use xlink:href="#DejaVuSans-74" transform="translate(1172.460938 0)"/>
     <use xlink:href="#DejaVuSans-73" transform="translate(1211.669922 0)"/>
     <use xlink:href="#DejaVuSans-20" transform="translate(1263.769531 0)"/>
     <use xlink:href="#DejaVuSans-66" transform="translate(1295.556641 0)"/>
     <use xlink:href="#DejaVuSans-72" transform="translate(1330.761719 0)"/>
     <use xlink:href="#DejaVuSans-6f" transform="translate(1369.625 0)"/>
     <use xlink:href="#DejaVuSans-6d" transform="translate(1430.806641 0)"/>
     <use xlink:href="#DejaVuSans-20" transform="translate(1528.21875 0)"/>
     <use xlink:href="#DejaVuSans-34" transform="translate(1560.005859 0)"/>
     <use xlink:href="#DejaVuSans-2d" transform="translate(1623.628906 0)"/>
     <use xlink:href="#DejaVuSans-62" transform="translate(1659.712891 0)"/>
     <use xlink:href="#DejaVuSans-69" transform="translate(1723.189453 0)"/>
     <use xlink:href="#DejaVuSans-74" transform="translate(1750.972656 0)"/>
     <use xlink:href="#DejaVuSans-20" transform="translate(1790.181641 0)"/>
     <use xlink:href="#DejaVuSans-72" transform="translate(1821.96875 0)"/>
     <use xlink:href="#DejaVuSans-65" transform="translate(1860.832031 0)"/>
     <use xlink:href="#DejaVuSans-70" transform="translate(1922.355469 0)"/>
     <use xlink:href="#DejaVuSans-72" transform="translate(1985.832031 0)"/>
     <use xlink:href="#DejaVuSans-65" transform="translate(2024.695312 0)"/>
     <use xlink:href="#DejaVuSans-73" transform="translate(2086.21875 0)"/>
     <use xlink:href="#DejaVuSans-65" transform="translate(2138.318359 0)"/>
     <use xlink:href="#DejaVuSans-6e" transform="translate(2199.841797 0)"/>
     <use xlink:href="#DejaVuSans-74" transform="translate(2263.220703 0)"/>
     <use xlink:href="#DejaVuSans-61" transform="translate(2302.429688 0)"/>
     <use xlink:href="#DejaVuSans-74" transform="translate(2363.708984 0)"/>
     <use xlink:href="#DejaVuSans-69" transform="translate(2402.917969 0)"/>
     <use xlink:href="#DejaVuSans-6f" transform="translate(2430.701172 0)"/>
     <use xlink:href="#DejaVuSans-6e" transform="translate(2491.882812 0)"/>
    </g>
   </g>
   <g id="text_17">
    <g id="patch_8">
     <path d="M 614.2919 520.269725 
L 824.6944 520.269725 
Q 827.0944 520.269725 827.0944 517.869725 
L 827.0944 510.127225 
Q 827.0944 507.727225 824.6944 507.727225 
L 614.2919 507.727225 
Q 611.8919 507.727225 611.8919 510.127225 
L 611.8919 517.869725 
Q 611.8919 520.269725 614.2919 520.269725 
z
" style="fill: #ffffe0; opacity: 0.8; stroke: #000000; stroke-linejoin: miter"/>
    </g>
    <!-- Values at 300 indicate max history ≥ 300 (test limit) -->
    <g transform="translate(614.2919 516.205975) scale(0.08 -0.08)">
     <defs>
      <path id="DejaVuSans-56" d="M 1831 0 
L 50 4666 
L 709 4666 
L 2188 738 
L 3669 4666 
L 4325 4666 
L 2547 0 
L 1831 0 
z
" transform="scale(0.015625)"/>
      <path id="DejaVuSans-63" d="M 3122 3366 
L 3122 2828 
Q 2878 2963 2633 3030 
Q 2388 3097 2138 3097 
Q 1578 3097 1268 2742 
Q 959 2388 959 1747 
Q 959 1106 1268 751 
Q 1578 397 2138 397 
Q 2388 397 2633 464 
Q 2878 531 3122 666 
L 3122 134 
Q 2881 22 2623 -34 
Q 2366 -91 2075 -91 
Q 1284 -91 818 406 
Q 353 903 353 1747 
Q 353 2603 823 3093 
Q 1294 3584 2113 3584 
Q 2378 3584 2631 3529 
Q 2884 3475 3122 3366 
z
" transform="scale(0.015625)"/>
      <path id="DejaVuSans-78" d="M 3513 3500 
L 2247 1797 
L 3578 0 
L 2900 0 
L 1881 1375 
L 863 0 
L 184 0 
L 1544 1831 
L 300 3500 
L 978 3500 
L 1906 2253 
L 2834 3500 
L 3513 3500 
z
" transform="scale(0.015625)"/>
      <path id="DejaVuSans-79" d="M 2059 -325 
Q 1816 -950 1584 -1140 
Q 1353 -1331 966 -1331 
L 506 -1331 
L 506 -850 
L 844 -850 
Q 1081 -850 1212 -737 
Q 1344 -625 1503 -206 
L 1606 56 
L 191 3500 
L 800 3500 
L 1894 763 
L 2988 3500 
L 3597 3500 
L 2059 -325 
z
" transform="scale(0.015625)"/>
     </defs>
     <use xlink:href="#DejaVuSans-56"/>
     <use xlink:href="#DejaVuSans-61" transform="translate(60.658203 0)"/>
     <use xlink:href="#DejaVuSans-6c" transform="translate(121.9375 0)"/>
     <use xlink:href="#DejaVuSans-75" transform="translate(149.720703 0)"/>
     <use xlink:href="#DejaVuSans-65" transform="translate(213.099609 0)"/>
     <use xlink:href="#DejaVuSans-73" transform="translate(274.623047 0)"/>
     <use xlink:href="#DejaVuSans-20" transform="translate(326.722656 0)"/>
     <use xlink:href="#DejaVuSans-61" transform="translate(358.509766 0)"/>
     <use xlink:href="#DejaVuSans-74" transform="translate(419.789062 0)"/>
     <use xlink:href="#DejaVuSans-20" transform="translate(458.998047 0)"/>
     <use xlink:href="#DejaVuSans-33" transform="translate(490.785156 0)"/>
     <use xlink:href="#DejaVuSans-30" transform="translate(554.408203 0)"/>
     <use xlink:href="#DejaVuSans-30" transform="translate(618.03125 0)"/>
     <use xlink:href="#DejaVuSans-20" transform="translate(681.654297 0)"/>
     <use xlink:href="#DejaVuSans-69" transform="translate(713.441406 0)"/>
     <use xlink:href="#DejaVuSans-6e" transform="translate(741.224609 0)"/>
     <use xlink:href="#DejaVuSans-64" transform="translate(804.603516 0)"/>
     <use xlink:href="#DejaVuSans-69" transform="translate(868.080078 0)"/>
     <use xlink:href="#DejaVuSans-63" transform="translate(895.863281 0)"/>
     <use xlink:href="#DejaVuSans-61" transform="translate(950.84375 0)"/>
     <use xlink:href="#DejaVuSans-74" transform="translate(1012.123047 0)"/>
     <use xlink:href="#DejaVuSans-65" transform="translate(1051.332031 0)"/>
     <use xlink:href="#DejaVuSans-20" transform="translate(1112.855469 0)"/>
     <use xlink:href="#DejaVuSans-6d" transform="translate(1144.642578 0)"/>
     <use xlink:href="#DejaVuSans-61" transform="translate(1242.054688 0)"/>
     <use xlink:href="#DejaVuSans-78" transform="translate(1303.333984 0)"/>
     <use xlink:href="#DejaVuSans-20" transform="translate(1362.513672 0)"/>
     <use xlink:href="#DejaVuSans-68" transform="translate(1394.300781 0)"/>
     <use xlink:href="#DejaVuSans-69" transform="translate(1457.679688 0)"/>
     <use xlink:href="#DejaVuSans-73" transform="translate(1485.462891 0)"/>
     <use xlink:href="#DejaVuSans-74" transform="translate(1537.5625 0)"/>
     <use xlink:href="#DejaVuSans-6f" transform="translate(1576.771484 0)"/>
     <use xlink:href="#DejaVuSans-72" transform="translate(1637.953125 0)"/>
     <use xlink:href="#DejaVuSans-79" transform="translate(1679.066406 0)"/>
     <use xlink:href="#DejaVuSans-20" transform="translate(1738.246094 0)"/>
     <use xlink:href="#DejaVuSans-2265" transform="translate(1770.033203 0)"/>
     <use xlink:href="#DejaVuSans-20" transform="translate(1853.822266 0)"/>
     <use xlink:href="#DejaVuSans-33" transform="translate(1885.609375 0)"/>
     <use xlink:href="#DejaVuSans-30" transform="translate(1949.232422 0)"/>
     <use xlink:href="#DejaVuSans-30" transform="translate(2012.855469 0)"/>
     <use xlink:href="#DejaVuSans-20" transform="translate(2076.478516 0)"/>
     <use xlink:href="#DejaVuSans-28" transform="translate(2108.265625 0)"/>
     <use xlink:href="#DejaVuSans-74" transform="translate(2147.279297 0)"/>
     <use xlink:href="#DejaVuSans-65" transform="translate(2186.488281 0)"/>
     <use xlink:href="#DejaVuSans-73" transform="translate(2248.011719 0)"/>
     <use xlink:href="#DejaVuSans-74" transform="translate(2300.111328 0)"/>
     <use xlink:href="#DejaVuSans-20" transform="translate(2339.320312 0)"/>
     <use xlink:href="#DejaVuSans-6c" transform="translate(2371.107422 0)"/>
     <use xlink:href="#DejaVuSans-69" transform="translate(2398.890625 0)"/>
     <use xlink:href="#DejaVuSans-6d" transform="translate(2426.673828 0)"/>
     <use xlink:href="#DejaVuSans-69" transform="translate(2524.085938 0)"/>
     <use xlink:href="#DejaVuSans-74" transform="translate(2551.869141 0)"/>
     <use xlink:href="#DejaVuSans-29" transform="translate(2591.078125 0)"/>
    </g>
   </g>
   <g id="text_18">
    <!-- History Length vs Alpha Value (4-bit Alpha Representation) -->
    <g transform="translate(210.109063 17.837812) scale(0.14 -0.14)">
     <defs>
      <path id="DejaVuSans-Bold-4c" d="M 588 4666 
L 1791 4666 
L 1791 909 
L 3903 909 
L 3903 0 
L 588 0 
L 588 4666 
z
" transform="scale(0.015625)"/>
      <path id="DejaVuSans-Bold-6e" d="M 4056 2131 
L 4056 0 
L 2931 0 
L 2931 347 
L 2931 1631 
Q 2931 2084 2911 2256 
Q 2891 2428 2841 2509 
Q 2775 2619 2662 2680 
Q 2550 2741 2406 2741 
Q 2056 2741 1856 2470 
Q 1656 2200 1656 1722 
L 1656 0 
L 538 0 
L 538 3500 
L 1656 3500 
L 1656 2988 
Q 1909 3294 2193 3439 
Q 2478 3584 2822 3584 
Q 3428 3584 3742 3212 
Q 4056 2841 4056 2131 
z
" transform="scale(0.015625)"/>
      <path id="DejaVuSans-Bold-67" d="M 2919 594 
Q 2688 288 2409 144 
Q 2131 0 1766 0 
Q 1125 0 706 504 
Q 288 1009 288 1791 
Q 288 2575 706 3076 
Q 1125 3578 1766 3578 
Q 2131 3578 2409 3434 
Q 2688 3291 2919 2981 
L 2919 3500 
L 4044 3500 
L 4044 353 
Q 4044 -491 3511 -936 
Q 2978 -1381 1966 -1381 
Q 1638 -1381 1331 -1331 
Q 1025 -1281 716 -1178 
L 716 -306 
Q 1009 -475 1290 -558 
Q 1572 -641 1856 -641 
Q 2406 -641 2662 -400 
Q 2919 -159 2919 353 
L 2919 594 
z
M 2181 2772 
Q 1834 2772 1640 2515 
Q 1447 2259 1447 1791 
Q 1447 1309 1634 1061 
Q 1822 813 2181 813 
Q 2531 813 2725 1069 
Q 2919 1325 2919 1791 
Q 2919 2259 2725 2515 
Q 2531 2772 2181 2772 
z
" transform="scale(0.015625)"/>
      <path id="DejaVuSans-Bold-76" d="M 97 3500 
L 1216 3500 
L 2088 1081 
L 2956 3500 
L 4078 3500 
L 2700 0 
L 1472 0 
L 97 3500 
z
" transform="scale(0.015625)"/>
      <path id="DejaVuSans-Bold-34" d="M 2356 3675 
L 1038 1722 
L 2356 1722 
L 2356 3675 
z
M 2156 4666 
L 3494 4666 
L 3494 1722 
L 4159 1722 
L 4159 850 
L 3494 850 
L 3494 0 
L 2356 0 
L 2356 850 
L 288 850 
L 288 1881 
L 2156 4666 
z
" transform="scale(0.015625)"/>
      <path id="DejaVuSans-Bold-2d" d="M 347 2297 
L 2309 2297 
L 2309 1388 
L 347 1388 
L 347 2297 
z
" transform="scale(0.015625)"/>
      <path id="DejaVuSans-Bold-62" d="M 2400 722 
Q 2759 722 2948 984 
Q 3138 1247 3138 1747 
Q 3138 2247 2948 2509 
Q 2759 2772 2400 2772 
Q 2041 2772 1848 2508 
Q 1656 2244 1656 1747 
Q 1656 1250 1848 986 
Q 2041 722 2400 722 
z
M 1656 2988 
Q 1888 3294 2169 3439 
Q 2450 3584 2816 3584 
Q 3463 3584 3878 3070 
Q 4294 2556 4294 1747 
Q 4294 938 3878 423 
Q 3463 -91 2816 -91 
Q 2450 -91 2169 54 
Q 1888 200 1656 506 
L 1656 0 
L 538 0 
L 538 4863 
L 1656 4863 
L 1656 2988 
z
" transform="scale(0.015625)"/>
      <path id="DejaVuSans-Bold-52" d="M 2297 2597 
Q 2675 2597 2839 2737 
Q 3003 2878 3003 3200 
Q 3003 3519 2839 3656 
Q 2675 3794 2297 3794 
L 1791 3794 
L 1791 2597 
L 2297 2597 
z
M 1791 1766 
L 1791 0 
L 588 0 
L 588 4666 
L 2425 4666 
Q 3347 4666 3776 4356 
Q 4206 4047 4206 3378 
Q 4206 2916 3982 2619 
Q 3759 2322 3309 2181 
Q 3556 2125 3751 1926 
Q 3947 1728 4147 1325 
L 4800 0 
L 3519 0 
L 2950 1159 
Q 2778 1509 2601 1637 
Q 2425 1766 2131 1766 
L 1791 1766 
z
" transform="scale(0.015625)"/>
     </defs>
     <use xlink:href="#DejaVuSans-Bold-48"/>
     <use xlink:href="#DejaVuSans-Bold-69" transform="translate(83.691406 0)"/>
     <use xlink:href="#DejaVuSans-Bold-73" transform="translate(117.96875 0)"/>
     <use xlink:href="#DejaVuSans-Bold-74" transform="translate(177.490234 0)"/>
     <use xlink:href="#DejaVuSans-Bold-6f" transform="translate(225.292969 0)"/>
     <use xlink:href="#DejaVuSans-Bold-72" transform="translate(293.994141 0)"/>
     <use xlink:href="#DejaVuSans-Bold-79" transform="translate(343.310547 0)"/>
     <use xlink:href="#DejaVuSans-Bold-20" transform="translate(408.496094 0)"/>
     <use xlink:href="#DejaVuSans-Bold-4c" transform="translate(443.310547 0)"/>
     <use xlink:href="#DejaVuSans-Bold-65" transform="translate(507.03125 0)"/>
     <use xlink:href="#DejaVuSans-Bold-6e" transform="translate(574.853516 0)"/>
     <use xlink:href="#DejaVuSans-Bold-67" transform="translate(646.044922 0)"/>
     <use xlink:href="#DejaVuSans-Bold-74" transform="translate(717.626953 0)"/>
     <use xlink:href="#DejaVuSans-Bold-68" transform="translate(765.429688 0)"/>
     <use xlink:href="#DejaVuSans-Bold-20" transform="translate(836.621094 0)"/>
     <use xlink:href="#DejaVuSans-Bold-76" transform="translate(871.435547 0)"/>
     <use xlink:href="#DejaVuSans-Bold-73" transform="translate(936.621094 0)"/>
     <use xlink:href="#DejaVuSans-Bold-20" transform="translate(996.142578 0)"/>
     <use xlink:href="#DejaVuSans-Bold-41" transform="translate(1030.957031 0)"/>
     <use xlink:href="#DejaVuSans-Bold-6c" transform="translate(1108.349609 0)"/>
     <use xlink:href="#DejaVuSans-Bold-70" transform="translate(1142.626953 0)"/>
     <use xlink:href="#DejaVuSans-Bold-68" transform="translate(1214.208984 0)"/>
     <use xlink:href="#DejaVuSans-Bold-61" transform="translate(1285.400391 0)"/>
     <use xlink:href="#DejaVuSans-Bold-20" transform="translate(1352.880859 0)"/>
     <use xlink:href="#DejaVuSans-Bold-56" transform="translate(1387.695312 0)"/>
     <use xlink:href="#DejaVuSans-Bold-61" transform="translate(1459.587891 0)"/>
     <use xlink:href="#DejaVuSans-Bold-6c" transform="translate(1527.068359 0)"/>
     <use xlink:href="#DejaVuSans-Bold-75" transform="translate(1561.345703 0)"/>
     <use xlink:href="#DejaVuSans-Bold-65" transform="translate(1632.537109 0)"/>
     <use xlink:href="#DejaVuSans-Bold-20" transform="translate(1700.359375 0)"/>
     <use xlink:href="#DejaVuSans-Bold-28" transform="translate(1735.173828 0)"/>
     <use xlink:href="#DejaVuSans-Bold-34" transform="translate(1780.876953 0)"/>
     <use xlink:href="#DejaVuSans-Bold-2d" transform="translate(1850.457031 0)"/>
     <use xlink:href="#DejaVuSans-Bold-62" transform="translate(1891.960938 0)"/>
     <use xlink:href="#DejaVuSans-Bold-69" transform="translate(1963.542969 0)"/>
     <use xlink:href="#DejaVuSans-Bold-74" transform="translate(1997.820312 0)"/>
     <use xlink:href="#DejaVuSans-Bold-20" transform="translate(2045.623047 0)"/>
     <use xlink:href="#DejaVuSans-Bold-41" transform="translate(2080.4375 0)"/>
     <use xlink:href="#DejaVuSans-Bold-6c" transform="translate(2157.830078 0)"/>
     <use xlink:href="#DejaVuSans-Bold-70" transform="translate(2192.107422 0)"/>
     <use xlink:href="#DejaVuSans-Bold-68" transform="translate(2263.689453 0)"/>
     <use xlink:href="#DejaVuSans-Bold-61" transform="translate(2334.880859 0)"/>
     <use xlink:href="#DejaVuSans-Bold-20" transform="translate(2402.361328 0)"/>
     <use xlink:href="#DejaVuSans-Bold-52" transform="translate(2437.175781 0)"/>
     <use xlink:href="#DejaVuSans-Bold-65" transform="translate(2514.177734 0)"/>
     <use xlink:href="#DejaVuSans-Bold-70" transform="translate(2582 0)"/>
     <use xlink:href="#DejaVuSans-Bold-72" transform="translate(2653.582031 0)"/>
     <use xlink:href="#DejaVuSans-Bold-65" transform="translate(2702.898438 0)"/>
     <use xlink:href="#DejaVuSans-Bold-73" transform="translate(2770.720703 0)"/>
     <use xlink:href="#DejaVuSans-Bold-65" transform="translate(2830.242188 0)"/>
     <use xlink:href="#DejaVuSans-Bold-6e" transform="translate(2898.064453 0)"/>
     <use xlink:href="#DejaVuSans-Bold-74" transform="translate(2969.255859 0)"/>
     <use xlink:href="#DejaVuSans-Bold-61" transform="translate(3017.058594 0)"/>
     <use xlink:href="#DejaVuSans-Bold-74" transform="translate(3084.539062 0)"/>
     <use xlink:href="#DejaVuSans-Bold-69" transform="translate(3132.341797 0)"/>
     <use xlink:href="#DejaVuSans-Bold-6f" transform="translate(3166.619141 0)"/>
     <use xlink:href="#DejaVuSans-Bold-6e" transform="translate(3235.320312 0)"/>
     <use xlink:href="#DejaVuSans-Bold-29" transform="translate(3306.511719 0)"/>
    </g>
    <!-- Unsigned Magnitude Fixed-Point Formats -->
    <g transform="translate(280.972031 33.624125) scale(0.14 -0.14)">
     <defs>
      <path id="DejaVuSans-Bold-55" d="M 588 4666 
L 1791 4666 
L 1791 1869 
Q 1791 1291 1980 1042 
Q 2169 794 2597 794 
Q 3028 794 3217 1042 
Q 3406 1291 3406 1869 
L 3406 4666 
L 4609 4666 
L 4609 1869 
Q 4609 878 4112 393 
Q 3616 -91 2597 -91 
Q 1581 -91 1084 393 
Q 588 878 588 1869 
L 588 4666 
z
" transform="scale(0.015625)"/>
      <path id="DejaVuSans-Bold-64" d="M 2919 2988 
L 2919 4863 
L 4044 4863 
L 4044 0 
L 2919 0 
L 2919 506 
Q 2688 197 2409 53 
Q 2131 -91 1766 -91 
Q 1119 -91 703 423 
Q 288 938 288 1747 
Q 288 2556 703 3070 
Q 1119 3584 1766 3584 
Q 2128 3584 2408 3439 
Q 2688 3294 2919 2988 
z
M 2181 722 
Q 2541 722 2730 984 
Q 2919 1247 2919 1747 
Q 2919 2247 2730 2509 
Q 2541 2772 2181 2772 
Q 1825 2772 1636 2509 
Q 1447 2247 1447 1747 
Q 1447 1247 1636 984 
Q 1825 722 2181 722 
z
" transform="scale(0.015625)"/>
      <path id="DejaVuSans-Bold-46" d="M 588 4666 
L 3834 4666 
L 3834 3756 
L 1791 3756 
L 1791 2888 
L 3713 2888 
L 3713 1978 
L 1791 1978 
L 1791 0 
L 588 0 
L 588 4666 
z
" transform="scale(0.015625)"/>
      <path id="DejaVuSans-Bold-50" d="M 588 4666 
L 2584 4666 
Q 3475 4666 3951 4270 
Q 4428 3875 4428 3144 
Q 4428 2409 3951 2014 
Q 3475 1619 2584 1619 
L 1791 1619 
L 1791 0 
L 588 0 
L 588 4666 
z
M 1791 3794 
L 1791 2491 
L 2456 2491 
Q 2806 2491 2997 2661 
Q 3188 2831 3188 3144 
Q 3188 3456 2997 3625 
Q 2806 3794 2456 3794 
L 1791 3794 
z
" transform="scale(0.015625)"/>
     </defs>
     <use xlink:href="#DejaVuSans-Bold-55"/>
     <use xlink:href="#DejaVuSans-Bold-6e" transform="translate(81.201172 0)"/>
     <use xlink:href="#DejaVuSans-Bold-73" transform="translate(152.392578 0)"/>
     <use xlink:href="#DejaVuSans-Bold-69" transform="translate(211.914062 0)"/>
     <use xlink:href="#DejaVuSans-Bold-67" transform="translate(246.191406 0)"/>
     <use xlink:href="#DejaVuSans-Bold-6e" transform="translate(317.773438 0)"/>
     <use xlink:href="#DejaVuSans-Bold-65" transform="translate(388.964844 0)"/>
     <use xlink:href="#DejaVuSans-Bold-64" transform="translate(456.787109 0)"/>
     <use xlink:href="#DejaVuSans-Bold-20" transform="translate(528.369141 0)"/>
     <use xlink:href="#DejaVuSans-Bold-4d" transform="translate(563.183594 0)"/>
     <use xlink:href="#DejaVuSans-Bold-61" transform="translate(662.695312 0)"/>
     <use xlink:href="#DejaVuSans-Bold-67" transform="translate(730.175781 0)"/>
     <use xlink:href="#DejaVuSans-Bold-6e" transform="translate(801.757812 0)"/>
     <use xlink:href="#DejaVuSans-Bold-69" transform="translate(872.949219 0)"/>
     <use xlink:href="#DejaVuSans-Bold-74" transform="translate(907.226562 0)"/>
     <use xlink:href="#DejaVuSans-Bold-75" transform="translate(955.029297 0)"/>
     <use xlink:href="#DejaVuSans-Bold-64" transform="translate(1026.220703 0)"/>
     <use xlink:href="#DejaVuSans-Bold-65" transform="translate(1097.802734 0)"/>
     <use xlink:href="#DejaVuSans-Bold-20" transform="translate(1165.625 0)"/>
     <use xlink:href="#DejaVuSans-Bold-46" transform="translate(1200.439453 0)"/>
     <use xlink:href="#DejaVuSans-Bold-69" transform="translate(1268.75 0)"/>
     <use xlink:href="#DejaVuSans-Bold-78" transform="translate(1303.027344 0)"/>
     <use xlink:href="#DejaVuSans-Bold-65" transform="translate(1367.529297 0)"/>
     <use xlink:href="#DejaVuSans-Bold-64" transform="translate(1435.351562 0)"/>
     <use xlink:href="#DejaVuSans-Bold-2d" transform="translate(1506.933594 0)"/>
     <use xlink:href="#DejaVuSans-Bold-50" transform="translate(1548.4375 0)"/>
     <use xlink:href="#DejaVuSans-Bold-6f" transform="translate(1621.728516 0)"/>
     <use xlink:href="#DejaVuSans-Bold-69" transform="translate(1690.429688 0)"/>
     <use xlink:href="#DejaVuSans-Bold-6e" transform="translate(1724.707031 0)"/>
     <use xlink:href="#DejaVuSans-Bold-74" transform="translate(1795.898438 0)"/>
     <use xlink:href="#DejaVuSans-Bold-20" transform="translate(1843.701172 0)"/>
     <use xlink:href="#DejaVuSans-Bold-46" transform="translate(1878.515625 0)"/>
     <use xlink:href="#DejaVuSans-Bold-6f" transform="translate(1942.826172 0)"/>
     <use xlink:href="#DejaVuSans-Bold-72" transform="translate(2011.527344 0)"/>
     <use xlink:href="#DejaVuSans-Bold-6d" transform="translate(2060.84375 0)"/>
     <use xlink:href="#DejaVuSans-Bold-61" transform="translate(2165.042969 0)"/>
     <use xlink:href="#DejaVuSans-Bold-74" transform="translate(2232.523438 0)"/>
     <use xlink:href="#DejaVuSans-Bold-73" transform="translate(2280.326172 0)"/>
    </g>
   </g>
   <g id="legend_1">
    <g id="patch_9">
     <path d="M 736.771875 120.336625 
L 833.525 120.336625 
Q 835.525 120.336625 835.525 118.336625 
L 835.525 60.624125 
Q 835.525 58.624125 833.525 58.624125 
L 736.771875 58.624125 
Q 734.771875 58.624125 734.771875 60.624125 
L 734.771875 118.336625 
Q 734.771875 120.336625 736.771875 120.336625 
z
" style="fill: #ffffff; opacity: 0.8; stroke: #cccccc; stroke-linejoin: miter"/>
    </g>
    <g id="text_19">
     <!-- Fixed-Point Format -->
     <g transform="translate(738.771875 70.222562) scale(0.1 -0.1)">
      <defs>
       <path id="DejaVuSans-50" d="M 1259 4147 
L 1259 2394 
L 2053 2394 
Q 2494 2394 2734 2622 
Q 2975 2850 2975 3272 
Q 2975 3691 2734 3919 
Q 2494 4147 2053 4147 
L 1259 4147 
z
M 628 4666 
L 2053 4666 
Q 2838 4666 3239 4311 
Q 3641 3956 3641 3272 
Q 3641 2581 3239 2228 
Q 2838 1875 2053 1875 
L 1259 1875 
L 1259 0 
L 628 0 
L 628 4666 
z
" transform="scale(0.015625)"/>
      </defs>
      <use xlink:href="#DejaVuSans-46"/>
      <use xlink:href="#DejaVuSans-69" transform="translate(50.269531 0)"/>
      <use xlink:href="#DejaVuSans-78" transform="translate(78.052734 0)"/>
      <use xlink:href="#DejaVuSans-65" transform="translate(134.107422 0)"/>
      <use xlink:href="#DejaVuSans-64" transform="translate(195.630859 0)"/>
      <use xlink:href="#DejaVuSans-2d" transform="translate(259.107422 0)"/>
      <use xlink:href="#DejaVuSans-50" transform="translate(295.191406 0)"/>
      <use xlink:href="#DejaVuSans-6f" transform="translate(351.869141 0)"/>
      <use xlink:href="#DejaVuSans-69" transform="translate(413.050781 0)"/>
      <use xlink:href="#DejaVuSans-6e" transform="translate(440.833984 0)"/>
      <use xlink:href="#DejaVuSans-74" transform="translate(504.212891 0)"/>
      <use xlink:href="#DejaVuSans-20" transform="translate(543.421875 0)"/>
      <use xlink:href="#DejaVuSans-46" transform="translate(575.208984 0)"/>
      <use xlink:href="#DejaVuSans-6f" transform="translate(629.103516 0)"/>
      <use xlink:href="#DejaVuSans-72" transform="translate(690.285156 0)"/>
      <use xlink:href="#DejaVuSans-6d" transform="translate(729.648438 0)"/>
      <use xlink:href="#DejaVuSans-61" transform="translate(827.060547 0)"/>
      <use xlink:href="#DejaVuSans-74" transform="translate(888.339844 0)"/>
     </g>
    </g>
    <g id="line2d_30">
     <path d="M 752.420313 81.400688 
L 762.420313 81.400688 
L 772.420313 81.400688 
" style="fill: none; stroke: #1f77b4; stroke-width: 2; stroke-linecap: square"/>
     <g>
      <use xlink:href="#m5ea7f42d52" x="762.420313" y="81.400688" style="fill: #1f77b4; stroke: #1f77b4"/>
     </g>
    </g>
    <g id="text_20">
     <!-- UQ0.8 -->
     <g transform="translate(780.420313 84.900688) scale(0.1 -0.1)">
      <use xlink:href="#DejaVuSans-55"/>
      <use xlink:href="#DejaVuSans-51" transform="translate(73.193359 0)"/>
      <use xlink:href="#DejaVuSans-30" transform="translate(151.904297 0)"/>
      <use xlink:href="#DejaVuSans-2e" transform="translate(215.527344 0)"/>
      <use xlink:href="#DejaVuSans-38" transform="translate(247.314453 0)"/>
     </g>
    </g>
    <g id="line2d_31">
     <path d="M 752.420313 96.078813 
L 762.420313 96.078813 
L 772.420313 96.078813 
" style="fill: none; stroke-dasharray: 7.4,3.2; stroke-dashoffset: 0; stroke: #ff7f0e; stroke-width: 2"/>
     <g>
      <use xlink:href="#m1fc3ba9ea6" x="762.420313" y="96.078813" style="fill: #ff7f0e; stroke: #ff7f0e; stroke-linejoin: miter"/>
     </g>
    </g>
    <g id="text_21">
     <!-- UQ0.12 -->
     <g transform="translate(780.420313 99.578813) scale(0.1 -0.1)">
      <use xlink:href="#DejaVuSans-55"/>
      <use xlink:href="#DejaVuSans-51" transform="translate(73.193359 0)"/>
      <use xlink:href="#DejaVuSans-30" transform="translate(151.904297 0)"/>
      <use xlink:href="#DejaVuSans-2e" transform="translate(215.527344 0)"/>
      <use xlink:href="#DejaVuSans-31" transform="translate(247.314453 0)"/>
      <use xlink:href="#DejaVuSans-32" transform="translate(310.9375 0)"/>
     </g>
    </g>
    <g id="line2d_32">
     <path d="M 752.420313 110.756937 
L 762.420313 110.756937 
L 772.420313 110.756937 
" style="fill: none; stroke-dasharray: 12.8,3.2,2,3.2; stroke-dashoffset: 0; stroke: #2ca02c; stroke-width: 2"/>
     <g>
      <use xlink:href="#ma30badf60c" x="762.420313" y="110.756937" style="fill: #2ca02c; stroke: #2ca02c; stroke-linejoin: miter"/>
     </g>
    </g>
    <g id="text_22">
     <!-- UQ0.16 -->
     <g transform="translate(780.420313 114.256937) scale(0.1 -0.1)">
      <use xlink:href="#DejaVuSans-55"/>
      <use xlink:href="#DejaVuSans-51" transform="translate(73.193359 0)"/>
      <use xlink:href="#DejaVuSans-30" transform="translate(151.904297 0)"/>
      <use xlink:href="#DejaVuSans-2e" transform="translate(215.527344 0)"/>
      <use xlink:href="#DejaVuSans-31" transform="translate(247.314453 0)"/>
      <use xlink:href="#DejaVuSans-36" transform="translate(310.9375 0)"/>
     </g>
    </g>
   </g>
  </g>
 </g>
 <defs>
  <clipPath id="p2cb9f1343a">
   <rect x="48.995" y="53.624125" width="791.53" height="473.72"/>
  </clipPath>
 </defs>
</svg>
