<?xml version="1.0" encoding="utf-8" standalone="no"?>
<!DOCTYPE svg PUBLIC "-//W3C//DTD SVG 1.1//EN"
  "http://www.w3.org/Graphics/SVG/1.1/DTD/svg11.dtd">
<svg xmlns:xlink="http://www.w3.org/1999/xlink" width="864pt" height="504pt" viewBox="0 0 864 504" xmlns="http://www.w3.org/2000/svg" version="1.1">
 <metadata>
  <rdf:RDF xmlns:dc="http://purl.org/dc/elements/1.1/" xmlns:cc="http://creativecommons.org/ns#" xmlns:rdf="http://www.w3.org/1999/02/22-rdf-syntax-ns#">
   <cc:Work>
    <dc:type rdf:resource="http://purl.org/dc/dcmitype/StillImage"/>
    <dc:date>2026-04-17T12:18:53.129346</dc:date>
    <dc:format>image/svg+xml</dc:format>
    <dc:creator>
     <cc:Agent>
      <dc:title>Matplotlib v3.10.8, https://matplotlib.org/</dc:title>
     </cc:Agent>
    </dc:creator>
   </cc:Work>
  </rdf:RDF>
 </metadata>
 <defs>
  <style type="text/css">*{stroke-linejoin: round; stroke-linecap: butt}</style>
 </defs>
 <g id="figure_1">
  <g id="patch_1">
   <path d="M 0 504 
L 864 504 
L 864 0 
L 0 0 
z
" style="fill: #ffffff"/>
  </g>
  <g id="axes_1">
   <g id="patch_2">
    <path d="M 50.092685 462.04 
L 853.2 462.04 
L 853.2 10.8 
L 50.092685 10.8 
z
" style="fill: #ffffff"/>
   </g>
   <g id="matplotlib.axis_1">
    <g id="xtick_1">
     <g id="line2d_1">
      <path d="M 86.597563 462.04 
L 86.597563 10.8 
" clip-path="url(#p5c308fcfd3)" style="fill: none; stroke: #b0b0b0; stroke-opacity: 0.25; stroke-width: 0.8; stroke-linecap: square"/>
     </g>
     <g id="line2d_2">
      <defs>
       <path id="mdae98ec000" d="M 0 0 
L 0 3.5 
" style="stroke: #000000; stroke-width: 0.8"/>
      </defs>
      <g>
       <use xlink:href="#mdae98ec000" x="86.597563" y="462.04" style="stroke: #000000; stroke-width: 0.8"/>
      </g>
     </g>
     <g id="text_1">
      <!-- 0 -->
      <g transform="translate(83.416313 476.638438) scale(0.1 -0.1)">
       <defs>
        <path id="DejaVuSans-30" d="M 2034 4250 
Q 1547 4250 1301 3770 
Q 1056 3291 1056 2328 
Q 1056 1369 1301 889 
Q 1547 409 2034 409 
Q 2525 409 2770 889 
Q 3016 1369 3016 2328 
Q 3016 3291 2770 3770 
Q 2525 4250 2034 4250 
z
M 2034 4750 
Q 2819 4750 3233 4129 
Q 3647 3509 3647 2328 
Q 3647 1150 3233 529 
Q 2819 -91 2034 -91 
Q 1250 -91 836 529 
Q 422 1150 422 2328 
Q 422 3509 836 4129 
Q 1250 4750 2034 4750 
z
" transform="scale(0.015625)"/>
       </defs>
       <use xlink:href="#DejaVuSans-30"/>
      </g>
     </g>
    </g>
    <g id="xtick_2">
     <g id="line2d_3">
      <path d="M 204.355234 462.04 
L 204.355234 10.8 
" clip-path="url(#p5c308fcfd3)" style="fill: none; stroke: #b0b0b0; stroke-opacity: 0.25; stroke-width: 0.8; stroke-linecap: square"/>
     </g>
     <g id="line2d_4">
      <g>
       <use xlink:href="#mdae98ec000" x="204.355234" y="462.04" style="stroke: #000000; stroke-width: 0.8"/>
      </g>
     </g>
     <g id="text_2">
      <!-- 5 -->
      <g transform="translate(201.173984 476.638438) scale(0.1 -0.1)">
       <defs>
        <path id="DejaVuSans-35" d="M 691 4666 
L 3169 4666 
L 3169 4134 
L 1269 4134 
L 1269 2991 
Q 1406 3038 1543 3061 
Q 1681 3084 1819 3084 
Q 2600 3084 3056 2656 
Q 3513 2228 3513 1497 
Q 3513 744 3044 326 
Q 2575 -91 1722 -91 
Q 1428 -91 1123 -41 
Q 819 9 494 109 
L 494 744 
Q 775 591 1075 516 
Q 1375 441 1709 441 
Q 2250 441 2565 725 
Q 2881 1009 2881 1497 
Q 2881 1984 2565 2268 
Q 2250 2553 1709 2553 
Q 1456 2553 1204 2497 
Q 953 2441 691 2322 
L 691 4666 
z
" transform="scale(0.015625)"/>
       </defs>
       <use xlink:href="#DejaVuSans-35"/>
      </g>
     </g>
    </g>
    <g id="xtick_3">
     <g id="line2d_5">
      <path d="M 322.112904 462.04 
L 322.112904 10.8 
" clip-path="url(#p5c308fcfd3)" style="fill: none; stroke: #b0b0b0; stroke-opacity: 0.25; stroke-width: 0.8; stroke-linecap: square"/>
     </g>
     <g id="line2d_6">
      <g>
       <use xlink:href="#mdae98ec000" x="322.112904" y="462.04" style="stroke: #000000; stroke-width: 0.8"/>
      </g>
     </g>
     <g id="text_3">
      <!-- 10 -->
      <g transform="translate(315.750404 476.638438) scale(0.1 -0.1)">
       <defs>
        <path id="DejaVuSans-31" d="M 794 531 
L 1825 531 
L 1825 4091 
L 703 3866 
L 703 4441 
L 1819 4666 
L 2450 4666 
L 2450 531 
L 3481 531 
L 3481 0 
L 794 0 
L 794 531 
z
" transform="scale(0.015625)"/>
       </defs>
       <use xlink:href="#DejaVuSans-31"/>
       <use xlink:href="#DejaVuSans-30" transform="translate(63.623047 0)"/>
      </g>
     </g>
    </g>
    <g id="xtick_4">
     <g id="line2d_7">
      <path d="M 439.870575 462.04 
L 439.870575 10.8 
" clip-path="url(#p5c308fcfd3)" style="fill: none; stroke: #b0b0b0; stroke-opacity: 0.25; stroke-width: 0.8; stroke-linecap: square"/>
     </g>
     <g id="line2d_8">
      <g>
       <use xlink:href="#mdae98ec000" x="439.870575" y="462.04" style="stroke: #000000; stroke-width: 0.8"/>
      </g>
     </g>
     <g id="text_4">
      <!-- 15 -->
      <g transform="translate(433.508075 476.638438) scale(0.1 -0.1)">
       <use xlink:href="#DejaVuSans-31"/>
       <use xlink:href="#DejaVuSans-35" transform="translate(63.623047 0)"/>
      </g>
     </g>
    </g>
    <g id="xtick_5">
     <g id="line2d_9">
      <path d="M 557.628246 462.04 
L 557.628246 10.8 
" clip-path="url(#p5c308fcfd3)" style="fill: none; stroke: #b0b0b0; stroke-opacity: 0.25; stroke-width: 0.8; stroke-linecap: square"/>
     </g>
     <g id="line2d_10">
      <g>
       <use xlink:href="#mdae98ec000" x="557.628246" y="462.04" style="stroke: #000000; stroke-width: 0.8"/>
      </g>
     </g>
     <g id="text_5">
      <!-- 20 -->
      <g transform="translate(551.265746 476.638438) scale(0.1 -0.1)">
       <defs>
        <path id="DejaVuSans-32" d="M 1228 531 
L 3431 531 
L 3431 0 
L 469 0 
L 469 531 
Q 828 903 1448 1529 
Q 2069 2156 2228 2338 
Q 2531 2678 2651 2914 
Q 2772 3150 2772 3378 
Q 2772 3750 2511 3984 
Q 2250 4219 1831 4219 
Q 1534 4219 1204 4116 
Q 875 4013 500 3803 
L 500 4441 
Q 881 4594 1212 4672 
Q 1544 4750 1819 4750 
Q 2544 4750 2975 4387 
Q 3406 4025 3406 3419 
Q 3406 3131 3298 2873 
Q 3191 2616 2906 2266 
Q 2828 2175 2409 1742 
Q 1991 1309 1228 531 
z
" transform="scale(0.015625)"/>
       </defs>
       <use xlink:href="#DejaVuSans-32"/>
       <use xlink:href="#DejaVuSans-30" transform="translate(63.623047 0)"/>
      </g>
     </g>
    </g>
    <g id="xtick_6">
     <g id="line2d_11">
      <path d="M 675.385917 462.04 
L 675.385917 10.8 
" clip-path="url(#p5c308fcfd3)" style="fill: none; stroke: #b0b0b0; stroke-opacity: 0.25; stroke-width: 0.8; stroke-linecap: square"/>
     </g>
     <g id="line2d_12">
      <g>
       <use xlink:href="#mdae98ec000" x="675.385917" y="462.04" style="stroke: #000000; stroke-width: 0.8"/>
      </g>
     </g>
     <g id="text_6">
      <!-- 25 -->
      <g transform="translate(669.023417 476.638438) scale(0.1 -0.1)">
       <use xlink:href="#DejaVuSans-32"/>
       <use xlink:href="#DejaVuSans-35" transform="translate(63.623047 0)"/>
      </g>
     </g>
    </g>
    <g id="xtick_7">
     <g id="line2d_13">
      <path d="M 793.143588 462.04 
L 793.143588 10.8 
" clip-path="url(#p5c308fcfd3)" style="fill: none; stroke: #b0b0b0; stroke-opacity: 0.25; stroke-width: 0.8; stroke-linecap: square"/>
     </g>
     <g id="line2d_14">
      <g>
       <use xlink:href="#mdae98ec000" x="793.143588" y="462.04" style="stroke: #000000; stroke-width: 0.8"/>
      </g>
     </g>
     <g id="text_7">
      <!-- 30 -->
      <g transform="translate(786.781088 476.638438) scale(0.1 -0.1)">
       <defs>
        <path id="DejaVuSans-33" d="M 2597 2516 
Q 3050 2419 3304 2112 
Q 3559 1806 3559 1356 
Q 3559 666 3084 287 
Q 2609 -91 1734 -91 
Q 1441 -91 1130 -33 
Q 819 25 488 141 
L 488 750 
Q 750 597 1062 519 
Q 1375 441 1716 441 
Q 2309 441 2620 675 
Q 2931 909 2931 1356 
Q 2931 1769 2642 2001 
Q 2353 2234 1838 2234 
L 1294 2234 
L 1294 2753 
L 1863 2753 
Q 2328 2753 2575 2939 
Q 2822 3125 2822 3475 
Q 2822 3834 2567 4026 
Q 2313 4219 1838 4219 
Q 1578 4219 1281 4162 
Q 984 4106 628 3988 
L 628 4550 
Q 988 4650 1302 4700 
Q 1616 4750 1894 4750 
Q 2613 4750 3031 4423 
Q 3450 4097 3450 3541 
Q 3450 3153 3228 2886 
Q 3006 2619 2597 2516 
z
" transform="scale(0.015625)"/>
       </defs>
       <use xlink:href="#DejaVuSans-33"/>
       <use xlink:href="#DejaVuSans-30" transform="translate(63.623047 0)"/>
      </g>
     </g>
    </g>
    <g id="text_8">
     <!-- History Step (k) -->
     <g transform="translate(412.497905 490.316563) scale(0.1 -0.1)">
      <defs>
       <path id="DejaVuSans-48" d="M 628 4666 
L 1259 4666 
L 1259 2753 
L 3553 2753 
L 3553 4666 
L 4184 4666 
L 4184 0 
L 3553 0 
L 3553 2222 
L 1259 2222 
L 1259 0 
L 628 0 
L 628 4666 
z
" transform="scale(0.015625)"/>
       <path id="DejaVuSans-69" d="M 603 3500 
L 1178 3500 
L 1178 0 
L 603 0 
L 603 3500 
z
M 603 4863 
L 1178 4863 
L 1178 4134 
L 603 4134 
L 603 4863 
z
" transform="scale(0.015625)"/>
       <path id="DejaVuSans-73" d="M 2834 3397 
L 2834 2853 
Q 2591 2978 2328 3040 
Q 2066 3103 1784 3103 
Q 1356 3103 1142 2972 
Q 928 2841 928 2578 
Q 928 2378 1081 2264 
Q 1234 2150 1697 2047 
L 1894 2003 
Q 2506 1872 2764 1633 
Q 3022 1394 3022 966 
Q 3022 478 2636 193 
Q 2250 -91 1575 -91 
Q 1294 -91 989 -36 
Q 684 19 347 128 
L 347 722 
Q 666 556 975 473 
Q 1284 391 1588 391 
Q 1994 391 2212 530 
Q 2431 669 2431 922 
Q 2431 1156 2273 1281 
Q 2116 1406 1581 1522 
L 1381 1569 
Q 847 1681 609 1914 
Q 372 2147 372 2553 
Q 372 3047 722 3315 
Q 1072 3584 1716 3584 
Q 2034 3584 2315 3537 
Q 2597 3491 2834 3397 
z
" transform="scale(0.015625)"/>
       <path id="DejaVuSans-74" d="M 1172 4494 
L 1172 3500 
L 2356 3500 
L 2356 3053 
L 1172 3053 
L 1172 1153 
Q 1172 725 1289 603 
Q 1406 481 1766 481 
L 2356 481 
L 2356 0 
L 1766 0 
Q 1100 0 847 248 
Q 594 497 594 1153 
L 594 3053 
L 172 3053 
L 172 3500 
L 594 3500 
L 594 4494 
L 1172 4494 
z
" transform="scale(0.015625)"/>
       <path id="DejaVuSans-6f" d="M 1959 3097 
Q 1497 3097 1228 2736 
Q 959 2375 959 1747 
Q 959 1119 1226 758 
Q 1494 397 1959 397 
Q 2419 397 2687 759 
Q 2956 1122 2956 1747 
Q 2956 2369 2687 2733 
Q 2419 3097 1959 3097 
z
M 1959 3584 
Q 2709 3584 3137 3096 
Q 3566 2609 3566 1747 
Q 3566 888 3137 398 
Q 2709 -91 1959 -91 
Q 1206 -91 779 398 
Q 353 888 353 1747 
Q 353 2609 779 3096 
Q 1206 3584 1959 3584 
z
" transform="scale(0.015625)"/>
       <path id="DejaVuSans-72" d="M 2631 2963 
Q 2534 3019 2420 3045 
Q 2306 3072 2169 3072 
Q 1681 3072 1420 2755 
Q 1159 2438 1159 1844 
L 1159 0 
L 581 0 
L 581 3500 
L 1159 3500 
L 1159 2956 
Q 1341 3275 1631 3429 
Q 1922 3584 2338 3584 
Q 2397 3584 2469 3576 
Q 2541 3569 2628 3553 
L 2631 2963 
z
" transform="scale(0.015625)"/>
       <path id="DejaVuSans-79" d="M 2059 -325 
Q 1816 -950 1584 -1140 
Q 1353 -1331 966 -1331 
L 506 -1331 
L 506 -850 
L 844 -850 
Q 1081 -850 1212 -737 
Q 1344 -625 1503 -206 
L 1606 56 
L 191 3500 
L 800 3500 
L 1894 763 
L 2988 3500 
L 3597 3500 
L 2059 -325 
z
" transform="scale(0.015625)"/>
       <path id="DejaVuSans-20" transform="scale(0.015625)"/>
       <path id="DejaVuSans-53" d="M 3425 4513 
L 3425 3897 
Q 3066 4069 2747 4153 
Q 2428 4238 2131 4238 
Q 1616 4238 1336 4038 
Q 1056 3838 1056 3469 
Q 1056 3159 1242 3001 
Q 1428 2844 1947 2747 
L 2328 2669 
Q 3034 2534 3370 2195 
Q 3706 1856 3706 1288 
Q 3706 609 3251 259 
Q 2797 -91 1919 -91 
Q 1588 -91 1214 -16 
Q 841 59 441 206 
L 441 856 
Q 825 641 1194 531 
Q 1563 422 1919 422 
Q 2459 422 2753 634 
Q 3047 847 3047 1241 
Q 3047 1584 2836 1778 
Q 2625 1972 2144 2069 
L 1759 2144 
Q 1053 2284 737 2584 
Q 422 2884 422 3419 
Q 422 4038 858 4394 
Q 1294 4750 2059 4750 
Q 2388 4750 2728 4690 
Q 3069 4631 3425 4513 
z
" transform="scale(0.015625)"/>
       <path id="DejaVuSans-65" d="M 3597 1894 
L 3597 1613 
L 953 1613 
Q 991 1019 1311 708 
Q 1631 397 2203 397 
Q 2534 397 2845 478 
Q 3156 559 3463 722 
L 3463 178 
Q 3153 47 2828 -22 
Q 2503 -91 2169 -91 
Q 1331 -91 842 396 
Q 353 884 353 1716 
Q 353 2575 817 3079 
Q 1281 3584 2069 3584 
Q 2775 3584 3186 3129 
Q 3597 2675 3597 1894 
z
M 3022 2063 
Q 3016 2534 2758 2815 
Q 2500 3097 2075 3097 
Q 1594 3097 1305 2825 
Q 1016 2553 972 2059 
L 3022 2063 
z
" transform="scale(0.015625)"/>
       <path id="DejaVuSans-70" d="M 1159 525 
L 1159 -1331 
L 581 -1331 
L 581 3500 
L 1159 3500 
L 1159 2969 
Q 1341 3281 1617 3432 
Q 1894 3584 2278 3584 
Q 2916 3584 3314 3078 
Q 3713 2572 3713 1747 
Q 3713 922 3314 415 
Q 2916 -91 2278 -91 
Q 1894 -91 1617 61 
Q 1341 213 1159 525 
z
M 3116 1747 
Q 3116 2381 2855 2742 
Q 2594 3103 2138 3103 
Q 1681 3103 1420 2742 
Q 1159 2381 1159 1747 
Q 1159 1113 1420 752 
Q 1681 391 2138 391 
Q 2594 391 2855 752 
Q 3116 1113 3116 1747 
z
" transform="scale(0.015625)"/>
       <path id="DejaVuSans-28" d="M 1984 4856 
Q 1566 4138 1362 3434 
Q 1159 2731 1159 2009 
Q 1159 1288 1364 580 
Q 1569 -128 1984 -844 
L 1484 -844 
Q 1016 -109 783 600 
Q 550 1309 550 2009 
Q 550 2706 781 3412 
Q 1013 4119 1484 4856 
L 1984 4856 
z
" transform="scale(0.015625)"/>
       <path id="DejaVuSans-6b" d="M 581 4863 
L 1159 4863 
L 1159 1991 
L 2875 3500 
L 3609 3500 
L 1753 1863 
L 3688 0 
L 2938 0 
L 1159 1709 
L 1159 0 
L 581 0 
L 581 4863 
z
" transform="scale(0.015625)"/>
       <path id="DejaVuSans-29" d="M 513 4856 
L 1013 4856 
Q 1481 4119 1714 3412 
Q 1947 2706 1947 2009 
Q 1947 1309 1714 600 
Q 1481 -109 1013 -844 
L 513 -844 
Q 928 -128 1133 580 
Q 1338 1288 1338 2009 
Q 1338 2731 1133 3434 
Q 928 4138 513 4856 
z
" transform="scale(0.015625)"/>
      </defs>
      <use xlink:href="#DejaVuSans-48"/>
      <use xlink:href="#DejaVuSans-69" transform="translate(75.195312 0)"/>
      <use xlink:href="#DejaVuSans-73" transform="translate(102.978516 0)"/>
      <use xlink:href="#DejaVuSans-74" transform="translate(155.078125 0)"/>
      <use xlink:href="#DejaVuSans-6f" transform="translate(194.287109 0)"/>
      <use xlink:href="#DejaVuSans-72" transform="translate(255.46875 0)"/>
      <use xlink:href="#DejaVuSans-79" transform="translate(296.582031 0)"/>
      <use xlink:href="#DejaVuSans-20" transform="translate(355.761719 0)"/>
      <use xlink:href="#DejaVuSans-53" transform="translate(387.548828 0)"/>
      <use xlink:href="#DejaVuSans-74" transform="translate(451.025391 0)"/>
      <use xlink:href="#DejaVuSans-65" transform="translate(490.234375 0)"/>
      <use xlink:href="#DejaVuSans-70" transform="translate(551.757812 0)"/>
      <use xlink:href="#DejaVuSans-20" transform="translate(615.234375 0)"/>
      <use xlink:href="#DejaVuSans-28" transform="translate(647.021484 0)"/>
      <use xlink:href="#DejaVuSans-6b" transform="translate(686.035156 0)"/>
      <use xlink:href="#DejaVuSans-29" transform="translate(743.945312 0)"/>
     </g>
    </g>
   </g>
   <g id="matplotlib.axis_2">
    <g id="ytick_1">
     <g id="line2d_15">
      <path d="M 50.092685 462.04 
L 853.2 462.04 
" clip-path="url(#p5c308fcfd3)" style="fill: none; stroke: #b0b0b0; stroke-opacity: 0.25; stroke-width: 0.8; stroke-linecap: square"/>
     </g>
     <g id="line2d_16">
      <defs>
       <path id="m338b97a164" d="M 0 0 
L -3.5 0 
" style="stroke: #000000; stroke-width: 0.8"/>
      </defs>
      <g>
       <use xlink:href="#m338b97a164" x="50.092685" y="462.04" style="stroke: #000000; stroke-width: 0.8"/>
      </g>
     </g>
     <g id="text_9">
      <!-- $\mathdefault{0}$ -->
      <g transform="translate(36.692685 465.839219) scale(0.1 -0.1)">
       <use xlink:href="#DejaVuSans-30" transform="translate(0 0.78125)"/>
      </g>
     </g>
    </g>
    <g id="ytick_2">
     <g id="line2d_17">
      <path d="M 50.092685 332.981828 
L 853.2 332.981828 
" clip-path="url(#p5c308fcfd3)" style="fill: none; stroke: #b0b0b0; stroke-opacity: 0.25; stroke-width: 0.8; stroke-linecap: square"/>
     </g>
     <g id="line2d_18">
      <g>
       <use xlink:href="#m338b97a164" x="50.092685" y="332.981828" style="stroke: #000000; stroke-width: 0.8"/>
      </g>
     </g>
     <g id="text_10">
      <!-- $\mathdefault{10^{0}}$ -->
      <g transform="translate(25.492685 336.781047) scale(0.1 -0.1)">
       <use xlink:href="#DejaVuSans-31" transform="translate(0 0.765625)"/>
       <use xlink:href="#DejaVuSans-30" transform="translate(63.623047 0.765625)"/>
       <use xlink:href="#DejaVuSans-30" transform="translate(128.203125 39.046875) scale(0.7)"/>
      </g>
     </g>
    </g>
    <g id="ytick_3">
     <g id="line2d_19">
      <path d="M 50.092685 216.829473 
L 853.2 216.829473 
" clip-path="url(#p5c308fcfd3)" style="fill: none; stroke: #b0b0b0; stroke-opacity: 0.25; stroke-width: 0.8; stroke-linecap: square"/>
     </g>
     <g id="line2d_20">
      <g>
       <use xlink:href="#m338b97a164" x="50.092685" y="216.829473" style="stroke: #000000; stroke-width: 0.8"/>
      </g>
     </g>
     <g id="text_11">
      <!-- $\mathdefault{10^{1}}$ -->
      <g transform="translate(25.492685 220.628692) scale(0.1 -0.1)">
       <use xlink:href="#DejaVuSans-31" transform="translate(0 0.684375)"/>
       <use xlink:href="#DejaVuSans-30" transform="translate(63.623047 0.684375)"/>
       <use xlink:href="#DejaVuSans-31" transform="translate(128.203125 38.965625) scale(0.7)"/>
      </g>
     </g>
    </g>
    <g id="ytick_4">
     <g id="line2d_21">
      <path d="M 50.092685 100.677118 
L 853.2 100.677118 
" clip-path="url(#p5c308fcfd3)" style="fill: none; stroke: #b0b0b0; stroke-opacity: 0.25; stroke-width: 0.8; stroke-linecap: square"/>
     </g>
     <g id="line2d_22">
      <g>
       <use xlink:href="#m338b97a164" x="50.092685" y="100.677118" style="stroke: #000000; stroke-width: 0.8"/>
      </g>
     </g>
     <g id="text_12">
      <!-- $\mathdefault{10^{2}}$ -->
      <g transform="translate(25.492685 104.476337) scale(0.1 -0.1)">
       <use xlink:href="#DejaVuSans-31" transform="translate(0 0.765625)"/>
       <use xlink:href="#DejaVuSans-30" transform="translate(63.623047 0.765625)"/>
       <use xlink:href="#DejaVuSans-32" transform="translate(128.203125 39.046875) scale(0.7)"/>
      </g>
     </g>
    </g>
    <g id="text_13">
     <!-- Absolute Relative Error (%) -->
     <g transform="translate(19.412997 304.041875) rotate(-90) scale(0.1 -0.1)">
      <defs>
       <path id="DejaVuSans-41" d="M 2188 4044 
L 1331 1722 
L 3047 1722 
L 2188 4044 
z
M 1831 4666 
L 2547 4666 
L 4325 0 
L 3669 0 
L 3244 1197 
L 1141 1197 
L 716 0 
L 50 0 
L 1831 4666 
z
" transform="scale(0.015625)"/>
       <path id="DejaVuSans-62" d="M 3116 1747 
Q 3116 2381 2855 2742 
Q 2594 3103 2138 3103 
Q 1681 3103 1420 2742 
Q 1159 2381 1159 1747 
Q 1159 1113 1420 752 
Q 1681 391 2138 391 
Q 2594 391 2855 752 
Q 3116 1113 3116 1747 
z
M 1159 2969 
Q 1341 3281 1617 3432 
Q 1894 3584 2278 3584 
Q 2916 3584 3314 3078 
Q 3713 2572 3713 1747 
Q 3713 922 3314 415 
Q 2916 -91 2278 -91 
Q 1894 -91 1617 61 
Q 1341 213 1159 525 
L 1159 0 
L 581 0 
L 581 4863 
L 1159 4863 
L 1159 2969 
z
" transform="scale(0.015625)"/>
       <path id="DejaVuSans-6c" d="M 603 4863 
L 1178 4863 
L 1178 0 
L 603 0 
L 603 4863 
z
" transform="scale(0.015625)"/>
       <path id="DejaVuSans-75" d="M 544 1381 
L 544 3500 
L 1119 3500 
L 1119 1403 
Q 1119 906 1312 657 
Q 1506 409 1894 409 
Q 2359 409 2629 706 
Q 2900 1003 2900 1516 
L 2900 3500 
L 3475 3500 
L 3475 0 
L 2900 0 
L 2900 538 
Q 2691 219 2414 64 
Q 2138 -91 1772 -91 
Q 1169 -91 856 284 
Q 544 659 544 1381 
z
M 1991 3584 
L 1991 3584 
z
" transform="scale(0.015625)"/>
       <path id="DejaVuSans-52" d="M 2841 2188 
Q 3044 2119 3236 1894 
Q 3428 1669 3622 1275 
L 4263 0 
L 3584 0 
L 2988 1197 
Q 2756 1666 2539 1819 
Q 2322 1972 1947 1972 
L 1259 1972 
L 1259 0 
L 628 0 
L 628 4666 
L 2053 4666 
Q 2853 4666 3247 4331 
Q 3641 3997 3641 3322 
Q 3641 2881 3436 2590 
Q 3231 2300 2841 2188 
z
M 1259 4147 
L 1259 2491 
L 2053 2491 
Q 2509 2491 2742 2702 
Q 2975 2913 2975 3322 
Q 2975 3731 2742 3939 
Q 2509 4147 2053 4147 
L 1259 4147 
z
" transform="scale(0.015625)"/>
       <path id="DejaVuSans-61" d="M 2194 1759 
Q 1497 1759 1228 1600 
Q 959 1441 959 1056 
Q 959 750 1161 570 
Q 1363 391 1709 391 
Q 2188 391 2477 730 
Q 2766 1069 2766 1631 
L 2766 1759 
L 2194 1759 
z
M 3341 1997 
L 3341 0 
L 2766 0 
L 2766 531 
Q 2569 213 2275 61 
Q 1981 -91 1556 -91 
Q 1019 -91 701 211 
Q 384 513 384 1019 
Q 384 1609 779 1909 
Q 1175 2209 1959 2209 
L 2766 2209 
L 2766 2266 
Q 2766 2663 2505 2880 
Q 2244 3097 1772 3097 
Q 1472 3097 1187 3025 
Q 903 2953 641 2809 
L 641 3341 
Q 956 3463 1253 3523 
Q 1550 3584 1831 3584 
Q 2591 3584 2966 3190 
Q 3341 2797 3341 1997 
z
" transform="scale(0.015625)"/>
       <path id="DejaVuSans-76" d="M 191 3500 
L 800 3500 
L 1894 563 
L 2988 3500 
L 3597 3500 
L 2284 0 
L 1503 0 
L 191 3500 
z
" transform="scale(0.015625)"/>
       <path id="DejaVuSans-45" d="M 628 4666 
L 3578 4666 
L 3578 4134 
L 1259 4134 
L 1259 2753 
L 3481 2753 
L 3481 2222 
L 1259 2222 
L 1259 531 
L 3634 531 
L 3634 0 
L 628 0 
L 628 4666 
z
" transform="scale(0.015625)"/>
       <path id="DejaVuSans-25" d="M 4653 2053 
Q 4381 2053 4226 1822 
Q 4072 1591 4072 1178 
Q 4072 772 4226 539 
Q 4381 306 4653 306 
Q 4919 306 5073 539 
Q 5228 772 5228 1178 
Q 5228 1588 5073 1820 
Q 4919 2053 4653 2053 
z
M 4653 2450 
Q 5147 2450 5437 2106 
Q 5728 1763 5728 1178 
Q 5728 594 5436 251 
Q 5144 -91 4653 -91 
Q 4153 -91 3862 251 
Q 3572 594 3572 1178 
Q 3572 1766 3864 2108 
Q 4156 2450 4653 2450 
z
M 1428 4353 
Q 1159 4353 1004 4120 
Q 850 3888 850 3481 
Q 850 3069 1003 2837 
Q 1156 2606 1428 2606 
Q 1700 2606 1854 2837 
Q 2009 3069 2009 3481 
Q 2009 3884 1853 4118 
Q 1697 4353 1428 4353 
z
M 4250 4750 
L 4750 4750 
L 1831 -91 
L 1331 -91 
L 4250 4750 
z
M 1428 4750 
Q 1922 4750 2215 4408 
Q 2509 4066 2509 3481 
Q 2509 2891 2217 2550 
Q 1925 2209 1428 2209 
Q 931 2209 642 2551 
Q 353 2894 353 3481 
Q 353 4063 643 4406 
Q 934 4750 1428 4750 
z
" transform="scale(0.015625)"/>
      </defs>
      <use xlink:href="#DejaVuSans-41"/>
      <use xlink:href="#DejaVuSans-62" transform="translate(68.408203 0)"/>
      <use xlink:href="#DejaVuSans-73" transform="translate(131.884766 0)"/>
      <use xlink:href="#DejaVuSans-6f" transform="translate(183.984375 0)"/>
      <use xlink:href="#DejaVuSans-6c" transform="translate(245.166016 0)"/>
      <use xlink:href="#DejaVuSans-75" transform="translate(272.949219 0)"/>
      <use xlink:href="#DejaVuSans-74" transform="translate(336.328125 0)"/>
      <use xlink:href="#DejaVuSans-65" transform="translate(375.537109 0)"/>
      <use xlink:href="#DejaVuSans-20" transform="translate(437.060547 0)"/>
      <use xlink:href="#DejaVuSans-52" transform="translate(468.847656 0)"/>
      <use xlink:href="#DejaVuSans-65" transform="translate(533.830078 0)"/>
      <use xlink:href="#DejaVuSans-6c" transform="translate(595.353516 0)"/>
      <use xlink:href="#DejaVuSans-61" transform="translate(623.136719 0)"/>
      <use xlink:href="#DejaVuSans-74" transform="translate(684.416016 0)"/>
      <use xlink:href="#DejaVuSans-69" transform="translate(723.625 0)"/>
      <use xlink:href="#DejaVuSans-76" transform="translate(751.408203 0)"/>
      <use xlink:href="#DejaVuSans-65" transform="translate(810.587891 0)"/>
      <use xlink:href="#DejaVuSans-20" transform="translate(872.111328 0)"/>
      <use xlink:href="#DejaVuSans-45" transform="translate(903.898438 0)"/>
      <use xlink:href="#DejaVuSans-72" transform="translate(967.082031 0)"/>
      <use xlink:href="#DejaVuSans-72" transform="translate(1006.445312 0)"/>
      <use xlink:href="#DejaVuSans-6f" transform="translate(1045.308594 0)"/>
      <use xlink:href="#DejaVuSans-72" transform="translate(1106.490234 0)"/>
      <use xlink:href="#DejaVuSans-20" transform="translate(1147.603516 0)"/>
      <use xlink:href="#DejaVuSans-28" transform="translate(1179.390625 0)"/>
      <use xlink:href="#DejaVuSans-25" transform="translate(1218.404297 0)"/>
      <use xlink:href="#DejaVuSans-29" transform="translate(1313.423828 0)"/>
     </g>
    </g>
   </g>
   <g id="line2d_23">
    <path d="M 86.597563 462.04 
L 110.149097 462.04 
L 133.700631 462.04 
L 157.252165 462.04 
L 180.803699 462.04 
L 204.355234 462.04 
L 227.906768 462.04 
L 251.458302 462.04 
L 275.009836 462.04 
L 298.56137 443.989906 
L 322.112904 456.731149 
L 345.664439 440.525182 
L 369.215973 441.403338 
L 392.767507 453.353893 
L 416.319041 435.564747 
L 439.870575 443.471034 
L 463.422109 456.072212 
L 486.973644 450.443709 
L 510.525178 424.347925 
L 534.076712 448.206928 
L 557.628246 420.739429 
L 581.17978 437.36869 
L 604.731314 441.657343 
L 628.282849 431.7784 
L 651.834383 441.809225 
L 675.385917 447.892987 
L 698.937451 416.552076 
L 722.488985 427.282237 
L 746.04052 412.981028 
L 769.592054 455.44201 
L 793.143588 455.44201 
L 816.695122 411.044702 
" clip-path="url(#p5c308fcfd3)" style="fill: none; stroke: #1f77b4; stroke-opacity: 0.9; stroke-width: 1.8; stroke-linecap: square"/>
    <defs>
     <path id="m320be7325f" d="M -2 2 
L 2 2 
L 2 -2 
L -2 -2 
z
" style="stroke: #1f77b4; stroke-opacity: 0.9; stroke-linejoin: miter"/>
    </defs>
    <g clip-path="url(#p5c308fcfd3)">
     <use xlink:href="#m320be7325f" x="86.597563" y="462.04" style="fill: #1f77b4; fill-opacity: 0.9; stroke: #1f77b4; stroke-opacity: 0.9; stroke-linejoin: miter"/>
     <use xlink:href="#m320be7325f" x="133.700631" y="462.04" style="fill: #1f77b4; fill-opacity: 0.9; stroke: #1f77b4; stroke-opacity: 0.9; stroke-linejoin: miter"/>
     <use xlink:href="#m320be7325f" x="180.803699" y="462.04" style="fill: #1f77b4; fill-opacity: 0.9; stroke: #1f77b4; stroke-opacity: 0.9; stroke-linejoin: miter"/>
     <use xlink:href="#m320be7325f" x="227.906768" y="462.04" style="fill: #1f77b4; fill-opacity: 0.9; stroke: #1f77b4; stroke-opacity: 0.9; stroke-linejoin: miter"/>
     <use xlink:href="#m320be7325f" x="275.009836" y="462.04" style="fill: #1f77b4; fill-opacity: 0.9; stroke: #1f77b4; stroke-opacity: 0.9; stroke-linejoin: miter"/>
     <use xlink:href="#m320be7325f" x="322.112904" y="456.731149" style="fill: #1f77b4; fill-opacity: 0.9; stroke: #1f77b4; stroke-opacity: 0.9; stroke-linejoin: miter"/>
     <use xlink:href="#m320be7325f" x="369.215973" y="441.403338" style="fill: #1f77b4; fill-opacity: 0.9; stroke: #1f77b4; stroke-opacity: 0.9; stroke-linejoin: miter"/>
     <use xlink:href="#m320be7325f" x="416.319041" y="435.564747" style="fill: #1f77b4; fill-opacity: 0.9; stroke: #1f77b4; stroke-opacity: 0.9; stroke-linejoin: miter"/>
     <use xlink:href="#m320be7325f" x="463.422109" y="456.072212" style="fill: #1f77b4; fill-opacity: 0.9; stroke: #1f77b4; stroke-opacity: 0.9; stroke-linejoin: miter"/>
     <use xlink:href="#m320be7325f" x="510.525178" y="424.347925" style="fill: #1f77b4; fill-opacity: 0.9; stroke: #1f77b4; stroke-opacity: 0.9; stroke-linejoin: miter"/>
     <use xlink:href="#m320be7325f" x="557.628246" y="420.739429" style="fill: #1f77b4; fill-opacity: 0.9; stroke: #1f77b4; stroke-opacity: 0.9; stroke-linejoin: miter"/>
     <use xlink:href="#m320be7325f" x="604.731314" y="441.657343" style="fill: #1f77b4; fill-opacity: 0.9; stroke: #1f77b4; stroke-opacity: 0.9; stroke-linejoin: miter"/>
     <use xlink:href="#m320be7325f" x="651.834383" y="441.809225" style="fill: #1f77b4; fill-opacity: 0.9; stroke: #1f77b4; stroke-opacity: 0.9; stroke-linejoin: miter"/>
     <use xlink:href="#m320be7325f" x="698.937451" y="416.552076" style="fill: #1f77b4; fill-opacity: 0.9; stroke: #1f77b4; stroke-opacity: 0.9; stroke-linejoin: miter"/>
     <use xlink:href="#m320be7325f" x="746.04052" y="412.981028" style="fill: #1f77b4; fill-opacity: 0.9; stroke: #1f77b4; stroke-opacity: 0.9; stroke-linejoin: miter"/>
     <use xlink:href="#m320be7325f" x="793.143588" y="455.44201" style="fill: #1f77b4; fill-opacity: 0.9; stroke: #1f77b4; stroke-opacity: 0.9; stroke-linejoin: miter"/>
    </g>
   </g>
   <g id="line2d_24">
    <path d="M 86.597563 462.04 
L 110.149097 462.04 
L 133.700631 100.677118 
L 157.252165 100.677118 
L 180.803699 126.445373 
L 204.355234 198.837245 
L 227.906768 173.068991 
L 251.458302 134.136548 
L 275.009836 118.551896 
L 298.56137 110.627651 
L 322.112904 106.290261 
L 345.664439 103.850295 
L 369.215973 102.465851 
L 392.767507 101.680336 
L 416.319041 101.23646 
L 439.870575 100.987097 
L 463.422109 100.847905 
L 486.973644 100.770704 
L 510.525178 100.728143 
L 534.076712 100.704811 
L 557.628246 100.692085 
L 581.17978 100.685177 
L 604.731314 100.681442 
L 628.282849 100.679431 
L 651.834383 100.678351 
L 675.385917 100.677774 
L 698.937451 100.677466 
L 722.488985 100.677302 
L 746.04052 100.677215 
L 769.592054 100.677169 
L 793.143588 100.677145 
L 816.695122 100.677132 
" clip-path="url(#p5c308fcfd3)" style="fill: none; stroke: #ff7f0e; stroke-opacity: 0.9; stroke-width: 1.6; stroke-linecap: square"/>
    <defs>
     <path id="m2e4e64923d" d="M 0 2 
C 0.530406 2 1.03916 1.789267 1.414214 1.414214 
C 1.789267 1.03916 2 0.530406 2 0 
C 2 -0.530406 1.789267 -1.03916 1.414214 -1.414214 
C 1.03916 -1.789267 0.530406 -2 0 -2 
C -0.530406 -2 -1.03916 -1.789267 -1.414214 -1.414214 
C -1.789267 -1.03916 -2 -0.530406 -2 0 
C -2 0.530406 -1.789267 1.03916 -1.414214 1.414214 
C -1.03916 1.789267 -0.530406 2 0 2 
z
" style="stroke: #ff7f0e; stroke-opacity: 0.9"/>
    </defs>
    <g clip-path="url(#p5c308fcfd3)">
     <use xlink:href="#m2e4e64923d" x="86.597563" y="462.04" style="fill: #ff7f0e; fill-opacity: 0.9; stroke: #ff7f0e; stroke-opacity: 0.9"/>
     <use xlink:href="#m2e4e64923d" x="133.700631" y="100.677118" style="fill: #ff7f0e; fill-opacity: 0.9; stroke: #ff7f0e; stroke-opacity: 0.9"/>
     <use xlink:href="#m2e4e64923d" x="180.803699" y="126.445373" style="fill: #ff7f0e; fill-opacity: 0.9; stroke: #ff7f0e; stroke-opacity: 0.9"/>
     <use xlink:href="#m2e4e64923d" x="227.906768" y="173.068991" style="fill: #ff7f0e; fill-opacity: 0.9; stroke: #ff7f0e; stroke-opacity: 0.9"/>
     <use xlink:href="#m2e4e64923d" x="275.009836" y="118.551896" style="fill: #ff7f0e; fill-opacity: 0.9; stroke: #ff7f0e; stroke-opacity: 0.9"/>
     <use xlink:href="#m2e4e64923d" x="322.112904" y="106.290261" style="fill: #ff7f0e; fill-opacity: 0.9; stroke: #ff7f0e; stroke-opacity: 0.9"/>
     <use xlink:href="#m2e4e64923d" x="369.215973" y="102.465851" style="fill: #ff7f0e; fill-opacity: 0.9; stroke: #ff7f0e; stroke-opacity: 0.9"/>
     <use xlink:href="#m2e4e64923d" x="416.319041" y="101.23646" style="fill: #ff7f0e; fill-opacity: 0.9; stroke: #ff7f0e; stroke-opacity: 0.9"/>
     <use xlink:href="#m2e4e64923d" x="463.422109" y="100.847905" style="fill: #ff7f0e; fill-opacity: 0.9; stroke: #ff7f0e; stroke-opacity: 0.9"/>
     <use xlink:href="#m2e4e64923d" x="510.525178" y="100.728143" style="fill: #ff7f0e; fill-opacity: 0.9; stroke: #ff7f0e; stroke-opacity: 0.9"/>
     <use xlink:href="#m2e4e64923d" x="557.628246" y="100.692085" style="fill: #ff7f0e; fill-opacity: 0.9; stroke: #ff7f0e; stroke-opacity: 0.9"/>
     <use xlink:href="#m2e4e64923d" x="604.731314" y="100.681442" style="fill: #ff7f0e; fill-opacity: 0.9; stroke: #ff7f0e; stroke-opacity: 0.9"/>
     <use xlink:href="#m2e4e64923d" x="651.834383" y="100.678351" style="fill: #ff7f0e; fill-opacity: 0.9; stroke: #ff7f0e; stroke-opacity: 0.9"/>
     <use xlink:href="#m2e4e64923d" x="698.937451" y="100.677466" style="fill: #ff7f0e; fill-opacity: 0.9; stroke: #ff7f0e; stroke-opacity: 0.9"/>
     <use xlink:href="#m2e4e64923d" x="746.04052" y="100.677215" style="fill: #ff7f0e; fill-opacity: 0.9; stroke: #ff7f0e; stroke-opacity: 0.9"/>
     <use xlink:href="#m2e4e64923d" x="793.143588" y="100.677145" style="fill: #ff7f0e; fill-opacity: 0.9; stroke: #ff7f0e; stroke-opacity: 0.9"/>
    </g>
   </g>
   <g id="line2d_25">
    <path d="M 86.597563 462.04 
L 110.149097 462.04 
L 133.700631 45.25836 
L 157.252165 45.25836 
L 180.803699 15.607858 
L 204.355234 36.463221 
L 227.906768 18.538298 
L 251.458302 47.338834 
L 275.009836 33.681653 
L 298.56137 69.255106 
L 322.112904 57.15333 
L 345.664439 103.214648 
L 369.215973 90.248927 
L 392.767507 168.583771 
L 416.319041 145.473482 
L 439.870575 178.01604 
L 463.422109 201.789937 
L 486.973644 133.133259 
L 510.525178 137.453913 
L 534.076712 117.318579 
L 557.628246 118.942962 
L 581.17978 109.687549 
L 604.731314 110.414614 
L 628.282849 105.651042 
L 651.834383 106.000745 
L 675.385917 103.438767 
L 698.937451 103.612862 
L 722.488985 102.210031 
L 746.04052 102.298209 
L 769.592054 101.525379 
L 793.143588 101.570422 
L 816.695122 101.144508 
" clip-path="url(#p5c308fcfd3)" style="fill: none; stroke: #2ca02c; stroke-opacity: 0.9; stroke-width: 1.6; stroke-linecap: square"/>
    <defs>
     <path id="m95a6abfe8b" d="M 0 -2 
L -2 2 
L 2 2 
z
" style="stroke: #2ca02c; stroke-opacity: 0.9; stroke-linejoin: miter"/>
    </defs>
    <g clip-path="url(#p5c308fcfd3)">
     <use xlink:href="#m95a6abfe8b" x="86.597563" y="462.04" style="fill: #2ca02c; fill-opacity: 0.9; stroke: #2ca02c; stroke-opacity: 0.9; stroke-linejoin: miter"/>
     <use xlink:href="#m95a6abfe8b" x="133.700631" y="45.25836" style="fill: #2ca02c; fill-opacity: 0.9; stroke: #2ca02c; stroke-opacity: 0.9; stroke-linejoin: miter"/>
     <use xlink:href="#m95a6abfe8b" x="180.803699" y="15.607858" style="fill: #2ca02c; fill-opacity: 0.9; stroke: #2ca02c; stroke-opacity: 0.9; stroke-linejoin: miter"/>
     <use xlink:href="#m95a6abfe8b" x="227.906768" y="18.538298" style="fill: #2ca02c; fill-opacity: 0.9; stroke: #2ca02c; stroke-opacity: 0.9; stroke-linejoin: miter"/>
     <use xlink:href="#m95a6abfe8b" x="275.009836" y="33.681653" style="fill: #2ca02c; fill-opacity: 0.9; stroke: #2ca02c; stroke-opacity: 0.9; stroke-linejoin: miter"/>
     <use xlink:href="#m95a6abfe8b" x="322.112904" y="57.15333" style="fill: #2ca02c; fill-opacity: 0.9; stroke: #2ca02c; stroke-opacity: 0.9; stroke-linejoin: miter"/>
     <use xlink:href="#m95a6abfe8b" x="369.215973" y="90.248927" style="fill: #2ca02c; fill-opacity: 0.9; stroke: #2ca02c; stroke-opacity: 0.9; stroke-linejoin: miter"/>
     <use xlink:href="#m95a6abfe8b" x="416.319041" y="145.473482" style="fill: #2ca02c; fill-opacity: 0.9; stroke: #2ca02c; stroke-opacity: 0.9; stroke-linejoin: miter"/>
     <use xlink:href="#m95a6abfe8b" x="463.422109" y="201.789937" style="fill: #2ca02c; fill-opacity: 0.9; stroke: #2ca02c; stroke-opacity: 0.9; stroke-linejoin: miter"/>
     <use xlink:href="#m95a6abfe8b" x="510.525178" y="137.453913" style="fill: #2ca02c; fill-opacity: 0.9; stroke: #2ca02c; stroke-opacity: 0.9; stroke-linejoin: miter"/>
     <use xlink:href="#m95a6abfe8b" x="557.628246" y="118.942962" style="fill: #2ca02c; fill-opacity: 0.9; stroke: #2ca02c; stroke-opacity: 0.9; stroke-linejoin: miter"/>
     <use xlink:href="#m95a6abfe8b" x="604.731314" y="110.414614" style="fill: #2ca02c; fill-opacity: 0.9; stroke: #2ca02c; stroke-opacity: 0.9; stroke-linejoin: miter"/>
     <use xlink:href="#m95a6abfe8b" x="651.834383" y="106.000745" style="fill: #2ca02c; fill-opacity: 0.9; stroke: #2ca02c; stroke-opacity: 0.9; stroke-linejoin: miter"/>
     <use xlink:href="#m95a6abfe8b" x="698.937451" y="103.612862" style="fill: #2ca02c; fill-opacity: 0.9; stroke: #2ca02c; stroke-opacity: 0.9; stroke-linejoin: miter"/>
     <use xlink:href="#m95a6abfe8b" x="746.04052" y="102.298209" style="fill: #2ca02c; fill-opacity: 0.9; stroke: #2ca02c; stroke-opacity: 0.9; stroke-linejoin: miter"/>
     <use xlink:href="#m95a6abfe8b" x="793.143588" y="101.570422" style="fill: #2ca02c; fill-opacity: 0.9; stroke: #2ca02c; stroke-opacity: 0.9; stroke-linejoin: miter"/>
    </g>
   </g>
   <g id="line2d_26">
    <path d="M 86.597563 462.04 
L 110.149097 462.04 
L 133.700631 462.04 
L 157.252165 462.04 
L 180.803699 181.86413 
L 204.355234 198.837245 
L 227.906768 133.29579 
L 251.458302 277.056088 
L 275.009836 183.537792 
L 298.56137 142.996945 
L 322.112904 193.899393 
L 345.664439 287.71826 
L 369.215973 209.856863 
L 392.767507 150.847526 
L 416.319041 162.383795 
L 439.870575 178.01604 
L 463.422109 129.266332 
L 486.973644 133.133259 
L 510.525178 137.453913 
L 534.076712 117.318579 
L 557.628246 118.942962 
L 581.17978 120.665179 
L 604.731314 110.414614 
L 628.282849 111.169597 
L 651.834383 111.953217 
L 675.385917 106.360409 
L 698.937451 106.730075 
L 722.488985 107.1098 
L 746.04052 103.97313 
L 769.592054 104.159259 
L 793.143588 104.349361 
L 816.695122 102.573238 
" clip-path="url(#p5c308fcfd3)" style="fill: none; stroke: #d62728; stroke-opacity: 0.9; stroke-width: 1.6; stroke-linecap: square"/>
    <defs>
     <path id="mb52074a9c5" d="M -0 2.828427 
L 2.828427 0 
L 0 -2.828427 
L -2.828427 -0 
z
" style="stroke: #d62728; stroke-opacity: 0.9; stroke-linejoin: miter"/>
    </defs>
    <g clip-path="url(#p5c308fcfd3)">
     <use xlink:href="#mb52074a9c5" x="86.597563" y="462.04" style="fill: #d62728; fill-opacity: 0.9; stroke: #d62728; stroke-opacity: 0.9; stroke-linejoin: miter"/>
     <use xlink:href="#mb52074a9c5" x="133.700631" y="462.04" style="fill: #d62728; fill-opacity: 0.9; stroke: #d62728; stroke-opacity: 0.9; stroke-linejoin: miter"/>
     <use xlink:href="#mb52074a9c5" x="180.803699" y="181.86413" style="fill: #d62728; fill-opacity: 0.9; stroke: #d62728; stroke-opacity: 0.9; stroke-linejoin: miter"/>
     <use xlink:href="#mb52074a9c5" x="227.906768" y="133.29579" style="fill: #d62728; fill-opacity: 0.9; stroke: #d62728; stroke-opacity: 0.9; stroke-linejoin: miter"/>
     <use xlink:href="#mb52074a9c5" x="275.009836" y="183.537792" style="fill: #d62728; fill-opacity: 0.9; stroke: #d62728; stroke-opacity: 0.9; stroke-linejoin: miter"/>
     <use xlink:href="#mb52074a9c5" x="322.112904" y="193.899393" style="fill: #d62728; fill-opacity: 0.9; stroke: #d62728; stroke-opacity: 0.9; stroke-linejoin: miter"/>
     <use xlink:href="#mb52074a9c5" x="369.215973" y="209.856863" style="fill: #d62728; fill-opacity: 0.9; stroke: #d62728; stroke-opacity: 0.9; stroke-linejoin: miter"/>
     <use xlink:href="#mb52074a9c5" x="416.319041" y="162.383795" style="fill: #d62728; fill-opacity: 0.9; stroke: #d62728; stroke-opacity: 0.9; stroke-linejoin: miter"/>
     <use xlink:href="#mb52074a9c5" x="463.422109" y="129.266332" style="fill: #d62728; fill-opacity: 0.9; stroke: #d62728; stroke-opacity: 0.9; stroke-linejoin: miter"/>
     <use xlink:href="#mb52074a9c5" x="510.525178" y="137.453913" style="fill: #d62728; fill-opacity: 0.9; stroke: #d62728; stroke-opacity: 0.9; stroke-linejoin: miter"/>
     <use xlink:href="#mb52074a9c5" x="557.628246" y="118.942962" style="fill: #d62728; fill-opacity: 0.9; stroke: #d62728; stroke-opacity: 0.9; stroke-linejoin: miter"/>
     <use xlink:href="#mb52074a9c5" x="604.731314" y="110.414614" style="fill: #d62728; fill-opacity: 0.9; stroke: #d62728; stroke-opacity: 0.9; stroke-linejoin: miter"/>
     <use xlink:href="#mb52074a9c5" x="651.834383" y="111.953217" style="fill: #d62728; fill-opacity: 0.9; stroke: #d62728; stroke-opacity: 0.9; stroke-linejoin: miter"/>
     <use xlink:href="#mb52074a9c5" x="698.937451" y="106.730075" style="fill: #d62728; fill-opacity: 0.9; stroke: #d62728; stroke-opacity: 0.9; stroke-linejoin: miter"/>
     <use xlink:href="#mb52074a9c5" x="746.04052" y="103.97313" style="fill: #d62728; fill-opacity: 0.9; stroke: #d62728; stroke-opacity: 0.9; stroke-linejoin: miter"/>
     <use xlink:href="#mb52074a9c5" x="793.143588" y="104.349361" style="fill: #d62728; fill-opacity: 0.9; stroke: #d62728; stroke-opacity: 0.9; stroke-linejoin: miter"/>
    </g>
   </g>
   <g id="line2d_27">
    <path d="M 86.597563 462.04 
L 110.149097 462.04 
L 133.700631 462.04 
L 157.252165 462.04 
L 180.803699 181.86413 
L 204.355234 198.837245 
L 227.906768 133.29579 
L 251.458302 277.056088 
L 275.009836 183.537792 
L 298.56137 142.996945 
L 322.112904 119.769164 
L 345.664439 287.71826 
L 369.215973 209.856863 
L 392.767507 168.583771 
L 416.319041 145.473482 
L 439.870575 129.184173 
L 463.422109 201.789937 
L 486.973644 250.795974 
L 510.525178 269.395354 
L 534.076712 205.974054 
L 557.628246 178.181606 
L 581.17978 159.981831 
L 604.731314 161.779625 
L 628.282849 170.845588 
L 651.834383 182.181426 
L 675.385917 197.188987 
L 698.937451 219.197343 
L 722.488985 260.346102 
L 746.04052 323.736963 
L 769.592054 139.152242 
L 793.143588 142.285114 
L 816.695122 145.684083 
" clip-path="url(#p5c308fcfd3)" style="fill: none; stroke: #9467bd; stroke-opacity: 0.9; stroke-width: 1.6; stroke-linecap: square"/>
    <defs>
     <path id="m83a53c40a0" d="M -0 2 
L 2 -2 
L -2 -2 
z
" style="stroke: #9467bd; stroke-opacity: 0.9; stroke-linejoin: miter"/>
    </defs>
    <g clip-path="url(#p5c308fcfd3)">
     <use xlink:href="#m83a53c40a0" x="86.597563" y="462.04" style="fill: #9467bd; fill-opacity: 0.9; stroke: #9467bd; stroke-opacity: 0.9; stroke-linejoin: miter"/>
     <use xlink:href="#m83a53c40a0" x="133.700631" y="462.04" style="fill: #9467bd; fill-opacity: 0.9; stroke: #9467bd; stroke-opacity: 0.9; stroke-linejoin: miter"/>
     <use xlink:href="#m83a53c40a0" x="180.803699" y="181.86413" style="fill: #9467bd; fill-opacity: 0.9; stroke: #9467bd; stroke-opacity: 0.9; stroke-linejoin: miter"/>
     <use xlink:href="#m83a53c40a0" x="227.906768" y="133.29579" style="fill: #9467bd; fill-opacity: 0.9; stroke: #9467bd; stroke-opacity: 0.9; stroke-linejoin: miter"/>
     <use xlink:href="#m83a53c40a0" x="275.009836" y="183.537792" style="fill: #9467bd; fill-opacity: 0.9; stroke: #9467bd; stroke-opacity: 0.9; stroke-linejoin: miter"/>
     <use xlink:href="#m83a53c40a0" x="322.112904" y="119.769164" style="fill: #9467bd; fill-opacity: 0.9; stroke: #9467bd; stroke-opacity: 0.9; stroke-linejoin: miter"/>
     <use xlink:href="#m83a53c40a0" x="369.215973" y="209.856863" style="fill: #9467bd; fill-opacity: 0.9; stroke: #9467bd; stroke-opacity: 0.9; stroke-linejoin: miter"/>
     <use xlink:href="#m83a53c40a0" x="416.319041" y="145.473482" style="fill: #9467bd; fill-opacity: 0.9; stroke: #9467bd; stroke-opacity: 0.9; stroke-linejoin: miter"/>
     <use xlink:href="#m83a53c40a0" x="463.422109" y="201.789937" style="fill: #9467bd; fill-opacity: 0.9; stroke: #9467bd; stroke-opacity: 0.9; stroke-linejoin: miter"/>
     <use xlink:href="#m83a53c40a0" x="510.525178" y="269.395354" style="fill: #9467bd; fill-opacity: 0.9; stroke: #9467bd; stroke-opacity: 0.9; stroke-linejoin: miter"/>
     <use xlink:href="#m83a53c40a0" x="557.628246" y="178.181606" style="fill: #9467bd; fill-opacity: 0.9; stroke: #9467bd; stroke-opacity: 0.9; stroke-linejoin: miter"/>
     <use xlink:href="#m83a53c40a0" x="604.731314" y="161.779625" style="fill: #9467bd; fill-opacity: 0.9; stroke: #9467bd; stroke-opacity: 0.9; stroke-linejoin: miter"/>
     <use xlink:href="#m83a53c40a0" x="651.834383" y="182.181426" style="fill: #9467bd; fill-opacity: 0.9; stroke: #9467bd; stroke-opacity: 0.9; stroke-linejoin: miter"/>
     <use xlink:href="#m83a53c40a0" x="698.937451" y="219.197343" style="fill: #9467bd; fill-opacity: 0.9; stroke: #9467bd; stroke-opacity: 0.9; stroke-linejoin: miter"/>
     <use xlink:href="#m83a53c40a0" x="746.04052" y="323.736963" style="fill: #9467bd; fill-opacity: 0.9; stroke: #9467bd; stroke-opacity: 0.9; stroke-linejoin: miter"/>
     <use xlink:href="#m83a53c40a0" x="793.143588" y="142.285114" style="fill: #9467bd; fill-opacity: 0.9; stroke: #9467bd; stroke-opacity: 0.9; stroke-linejoin: miter"/>
    </g>
   </g>
   <g id="patch_3">
    <path d="M 50.092685 462.04 
L 50.092685 10.8 
" style="fill: none; stroke: #000000; stroke-width: 0.8; stroke-linejoin: miter; stroke-linecap: square"/>
   </g>
   <g id="patch_4">
    <path d="M 853.2 462.04 
L 853.2 10.8 
" style="fill: none; stroke: #000000; stroke-width: 0.8; stroke-linejoin: miter; stroke-linecap: square"/>
   </g>
   <g id="patch_5">
    <path d="M 50.092685 462.04 
L 853.2 462.04 
" style="fill: none; stroke: #000000; stroke-width: 0.8; stroke-linejoin: miter; stroke-linecap: square"/>
   </g>
   <g id="patch_6">
    <path d="M 50.092685 10.8 
L 853.2 10.8 
" style="fill: none; stroke: #000000; stroke-width: 0.8; stroke-linejoin: miter; stroke-linecap: square"/>
   </g>
   <g id="legend_1">
    <g id="patch_7">
     <path d="M 750.090625 92.746875 
L 846.2 92.746875 
Q 848.2 92.746875 848.2 90.746875 
L 848.2 17.8 
Q 848.2 15.8 846.2 15.8 
L 750.090625 15.8 
Q 748.090625 15.8 748.090625 17.8 
L 748.090625 90.746875 
Q 748.090625 92.746875 750.090625 92.746875 
z
" style="fill: #ffffff; opacity: 0.8; stroke: #cccccc; stroke-linejoin: miter"/>
    </g>
    <g id="line2d_28">
     <path d="M 752.090625 23.898438 
L 762.090625 23.898438 
L 772.090625 23.898438 
" style="fill: none; stroke: #1f77b4; stroke-opacity: 0.9; stroke-width: 1.8; stroke-linecap: square"/>
     <g>
      <use xlink:href="#m320be7325f" x="762.090625" y="23.898438" style="fill: #1f77b4; fill-opacity: 0.9; stroke: #1f77b4; stroke-opacity: 0.9; stroke-linejoin: miter"/>
     </g>
    </g>
    <g id="text_14">
     <!-- quantized -->
     <g transform="translate(780.090625 27.398438) scale(0.1 -0.1)">
      <defs>
       <path id="DejaVuSans-71" d="M 947 1747 
Q 947 1113 1208 752 
Q 1469 391 1925 391 
Q 2381 391 2643 752 
Q 2906 1113 2906 1747 
Q 2906 2381 2643 2742 
Q 2381 3103 1925 3103 
Q 1469 3103 1208 2742 
Q 947 2381 947 1747 
z
M 2906 525 
Q 2725 213 2448 61 
Q 2172 -91 1784 -91 
Q 1150 -91 751 415 
Q 353 922 353 1747 
Q 353 2572 751 3078 
Q 1150 3584 1784 3584 
Q 2172 3584 2448 3432 
Q 2725 3281 2906 2969 
L 2906 3500 
L 3481 3500 
L 3481 -1331 
L 2906 -1331 
L 2906 525 
z
" transform="scale(0.015625)"/>
       <path id="DejaVuSans-6e" d="M 3513 2113 
L 3513 0 
L 2938 0 
L 2938 2094 
Q 2938 2591 2744 2837 
Q 2550 3084 2163 3084 
Q 1697 3084 1428 2787 
Q 1159 2491 1159 1978 
L 1159 0 
L 581 0 
L 581 3500 
L 1159 3500 
L 1159 2956 
Q 1366 3272 1645 3428 
Q 1925 3584 2291 3584 
Q 2894 3584 3203 3211 
Q 3513 2838 3513 2113 
z
" transform="scale(0.015625)"/>
       <path id="DejaVuSans-7a" d="M 353 3500 
L 3084 3500 
L 3084 2975 
L 922 459 
L 3084 459 
L 3084 0 
L 275 0 
L 275 525 
L 2438 3041 
L 353 3041 
L 353 3500 
z
" transform="scale(0.015625)"/>
       <path id="DejaVuSans-64" d="M 2906 2969 
L 2906 4863 
L 3481 4863 
L 3481 0 
L 2906 0 
L 2906 525 
Q 2725 213 2448 61 
Q 2172 -91 1784 -91 
Q 1150 -91 751 415 
Q 353 922 353 1747 
Q 353 2572 751 3078 
Q 1150 3584 1784 3584 
Q 2172 3584 2448 3432 
Q 2725 3281 2906 2969 
z
M 947 1747 
Q 947 1113 1208 752 
Q 1469 391 1925 391 
Q 2381 391 2643 752 
Q 2906 1113 2906 1747 
Q 2906 2381 2643 2742 
Q 2381 3103 1925 3103 
Q 1469 3103 1208 2742 
Q 947 2381 947 1747 
z
" transform="scale(0.015625)"/>
      </defs>
      <use xlink:href="#DejaVuSans-71"/>
      <use xlink:href="#DejaVuSans-75" transform="translate(63.476562 0)"/>
      <use xlink:href="#DejaVuSans-61" transform="translate(126.855469 0)"/>
      <use xlink:href="#DejaVuSans-6e" transform="translate(188.134766 0)"/>
      <use xlink:href="#DejaVuSans-74" transform="translate(251.513672 0)"/>
      <use xlink:href="#DejaVuSans-69" transform="translate(290.722656 0)"/>
      <use xlink:href="#DejaVuSans-7a" transform="translate(318.505859 0)"/>
      <use xlink:href="#DejaVuSans-65" transform="translate(370.996094 0)"/>
      <use xlink:href="#DejaVuSans-64" transform="translate(432.519531 0)"/>
     </g>
    </g>
    <g id="line2d_29">
     <path d="M 752.090625 38.576563 
L 762.090625 38.576563 
L 772.090625 38.576563 
" style="fill: none; stroke: #ff7f0e; stroke-opacity: 0.9; stroke-width: 1.6; stroke-linecap: square"/>
     <g>
      <use xlink:href="#m2e4e64923d" x="762.090625" y="38.576563" style="fill: #ff7f0e; fill-opacity: 0.9; stroke: #ff7f0e; stroke-opacity: 0.9"/>
     </g>
    </g>
    <g id="text_15">
     <!-- simple -->
     <g transform="translate(780.090625 42.076563) scale(0.1 -0.1)">
      <defs>
       <path id="DejaVuSans-6d" d="M 3328 2828 
Q 3544 3216 3844 3400 
Q 4144 3584 4550 3584 
Q 5097 3584 5394 3201 
Q 5691 2819 5691 2113 
L 5691 0 
L 5113 0 
L 5113 2094 
Q 5113 2597 4934 2840 
Q 4756 3084 4391 3084 
Q 3944 3084 3684 2787 
Q 3425 2491 3425 1978 
L 3425 0 
L 2847 0 
L 2847 2094 
Q 2847 2600 2669 2842 
Q 2491 3084 2119 3084 
Q 1678 3084 1418 2786 
Q 1159 2488 1159 1978 
L 1159 0 
L 581 0 
L 581 3500 
L 1159 3500 
L 1159 2956 
Q 1356 3278 1631 3431 
Q 1906 3584 2284 3584 
Q 2666 3584 2933 3390 
Q 3200 3197 3328 2828 
z
" transform="scale(0.015625)"/>
      </defs>
      <use xlink:href="#DejaVuSans-73"/>
      <use xlink:href="#DejaVuSans-69" transform="translate(52.099609 0)"/>
      <use xlink:href="#DejaVuSans-6d" transform="translate(79.882812 0)"/>
      <use xlink:href="#DejaVuSans-70" transform="translate(177.294922 0)"/>
      <use xlink:href="#DejaVuSans-6c" transform="translate(240.771484 0)"/>
      <use xlink:href="#DejaVuSans-65" transform="translate(268.554688 0)"/>
     </g>
    </g>
    <g id="line2d_30">
     <path d="M 752.090625 53.254688 
L 762.090625 53.254688 
L 772.090625 53.254688 
" style="fill: none; stroke: #2ca02c; stroke-opacity: 0.9; stroke-width: 1.6; stroke-linecap: square"/>
     <g>
      <use xlink:href="#m95a6abfe8b" x="762.090625" y="53.254688" style="fill: #2ca02c; fill-opacity: 0.9; stroke: #2ca02c; stroke-opacity: 0.9; stroke-linejoin: miter"/>
     </g>
    </g>
    <g id="text_16">
     <!-- slow_decay -->
     <g transform="translate(780.090625 56.754688) scale(0.1 -0.1)">
      <defs>
       <path id="DejaVuSans-77" d="M 269 3500 
L 844 3500 
L 1563 769 
L 2278 3500 
L 2956 3500 
L 3675 769 
L 4391 3500 
L 4966 3500 
L 4050 0 
L 3372 0 
L 2619 2869 
L 1863 0 
L 1184 0 
L 269 3500 
z
" transform="scale(0.015625)"/>
       <path id="DejaVuSans-5f" d="M 3263 -1063 
L 3263 -1509 
L -63 -1509 
L -63 -1063 
L 3263 -1063 
z
" transform="scale(0.015625)"/>
       <path id="DejaVuSans-63" d="M 3122 3366 
L 3122 2828 
Q 2878 2963 2633 3030 
Q 2388 3097 2138 3097 
Q 1578 3097 1268 2742 
Q 959 2388 959 1747 
Q 959 1106 1268 751 
Q 1578 397 2138 397 
Q 2388 397 2633 464 
Q 2878 531 3122 666 
L 3122 134 
Q 2881 22 2623 -34 
Q 2366 -91 2075 -91 
Q 1284 -91 818 406 
Q 353 903 353 1747 
Q 353 2603 823 3093 
Q 1294 3584 2113 3584 
Q 2378 3584 2631 3529 
Q 2884 3475 3122 3366 
z
" transform="scale(0.015625)"/>
      </defs>
      <use xlink:href="#DejaVuSans-73"/>
      <use xlink:href="#DejaVuSans-6c" transform="translate(52.099609 0)"/>
      <use xlink:href="#DejaVuSans-6f" transform="translate(79.882812 0)"/>
      <use xlink:href="#DejaVuSans-77" transform="translate(141.064453 0)"/>
      <use xlink:href="#DejaVuSans-5f" transform="translate(222.851562 0)"/>
      <use xlink:href="#DejaVuSans-64" transform="translate(272.851562 0)"/>
      <use xlink:href="#DejaVuSans-65" transform="translate(336.328125 0)"/>
      <use xlink:href="#DejaVuSans-63" transform="translate(397.851562 0)"/>
      <use xlink:href="#DejaVuSans-61" transform="translate(452.832031 0)"/>
      <use xlink:href="#DejaVuSans-79" transform="translate(514.111328 0)"/>
     </g>
    </g>
    <g id="line2d_31">
     <path d="M 752.090625 68.210938 
L 762.090625 68.210938 
L 772.090625 68.210938 
" style="fill: none; stroke: #d62728; stroke-opacity: 0.9; stroke-width: 1.6; stroke-linecap: square"/>
     <g>
      <use xlink:href="#mb52074a9c5" x="762.090625" y="68.210938" style="fill: #d62728; fill-opacity: 0.9; stroke: #d62728; stroke-opacity: 0.9; stroke-linejoin: miter"/>
     </g>
    </g>
    <g id="text_17">
     <!-- custom -->
     <g transform="translate(780.090625 71.710938) scale(0.1 -0.1)">
      <use xlink:href="#DejaVuSans-63"/>
      <use xlink:href="#DejaVuSans-75" transform="translate(54.980469 0)"/>
      <use xlink:href="#DejaVuSans-73" transform="translate(118.359375 0)"/>
      <use xlink:href="#DejaVuSans-74" transform="translate(170.458984 0)"/>
      <use xlink:href="#DejaVuSans-6f" transform="translate(209.667969 0)"/>
      <use xlink:href="#DejaVuSans-6d" transform="translate(270.849609 0)"/>
     </g>
    </g>
    <g id="line2d_32">
     <path d="M 752.090625 82.889063 
L 762.090625 82.889063 
L 772.090625 82.889063 
" style="fill: none; stroke: #9467bd; stroke-opacity: 0.9; stroke-width: 1.6; stroke-linecap: square"/>
     <g>
      <use xlink:href="#m83a53c40a0" x="762.090625" y="82.889063" style="fill: #9467bd; fill-opacity: 0.9; stroke: #9467bd; stroke-opacity: 0.9; stroke-linejoin: miter"/>
     </g>
    </g>
    <g id="text_18">
     <!-- custom_slow -->
     <g transform="translate(780.090625 86.389063) scale(0.1 -0.1)">
      <use xlink:href="#DejaVuSans-63"/>
      <use xlink:href="#DejaVuSans-75" transform="translate(54.980469 0)"/>
      <use xlink:href="#DejaVuSans-73" transform="translate(118.359375 0)"/>
      <use xlink:href="#DejaVuSans-74" transform="translate(170.458984 0)"/>
      <use xlink:href="#DejaVuSans-6f" transform="translate(209.667969 0)"/>
      <use xlink:href="#DejaVuSans-6d" transform="translate(270.849609 0)"/>
      <use xlink:href="#DejaVuSans-5f" transform="translate(368.261719 0)"/>
      <use xlink:href="#DejaVuSans-73" transform="translate(418.261719 0)"/>
      <use xlink:href="#DejaVuSans-6c" transform="translate(470.361328 0)"/>
      <use xlink:href="#DejaVuSans-6f" transform="translate(498.144531 0)"/>
      <use xlink:href="#DejaVuSans-77" transform="translate(559.326172 0)"/>
     </g>
    </g>
   </g>
  </g>
 </g>
 <defs>
  <clipPath id="p5c308fcfd3">
   <rect x="50.092685" y="10.8" width="803.107315" height="451.24"/>
  </clipPath>
 </defs>
</svg>
