<?xml version="1.0" encoding="utf-8" standalone="no"?>
<!DOCTYPE svg PUBLIC "-//W3C//DTD SVG 1.1//EN"
  "http://www.w3.org/Graphics/SVG/1.1/DTD/svg11.dtd">
<svg xmlns:xlink="http://www.w3.org/1999/xlink" width="490.103125pt" height="241.069375pt" viewBox="0 0 490.103125 241.069375" xmlns="http://www.w3.org/2000/svg" version="1.1">
 <metadata>
  <rdf:RDF xmlns:dc="http://purl.org/dc/elements/1.1/" xmlns:cc="http://creativecommons.org/ns#" xmlns:rdf="http://www.w3.org/1999/02/22-rdf-syntax-ns#">
   <cc:Work>
    <dc:type rdf:resource="http://purl.org/dc/dcmitype/StillImage"/>
    <dc:date>2025-10-01T08:13:08.108217</dc:date>
    <dc:format>image/svg+xml</dc:format>
    <dc:creator>
     <cc:Agent>
      <dc:title>Matplotlib v3.10.3, https://matplotlib.org/</dc:title>
     </cc:Agent>
    </dc:creator>
   </cc:Work>
  </rdf:RDF>
 </metadata>
 <defs>
  <style type="text/css">*{stroke-linejoin: round; stroke-linecap: butt}</style>
 </defs>
 <g id="figure_1">
  <g id="patch_1">
   <path d="M 0 241.069375 
L 490.103125 241.069375 
L 490.103125 0 
L 0 0 
z
" style="fill: #ffffff"/>
  </g>
  <g id="axes_1">
   <g id="patch_2">
    <path d="M 33.5775 101.11 
L 474.3775 101.11 
L 474.3775 7.2 
L 33.5775 7.2 
z
" style="fill: #ffffff"/>
   </g>
   <g id="matplotlib.axis_1">
    <g id="xtick_1">
     <g id="line2d_1">
      <path d="M 33.5775 101.11 
L 33.5775 7.2 
" clip-path="url(#pce68896d9a)" style="fill: none; stroke-dasharray: 0.8,1.32; stroke-dashoffset: 0; stroke: #b0b0b0; stroke-opacity: 0.6; stroke-width: 0.8"/>
     </g>
     <g id="line2d_2">
      <defs>
       <path id="m936fdd0e25" d="M 0 0 
L 0 3.5 
" style="stroke: #000000; stroke-width: 0.8"/>
      </defs>
      <g>
       <use xlink:href="#m936fdd0e25" x="33.5775" y="101.11" style="stroke: #000000; stroke-width: 0.8"/>
      </g>
     </g>
    </g>
    <g id="xtick_2">
     <g id="line2d_3">
      <path d="M 121.7375 101.11 
L 121.7375 7.2 
" clip-path="url(#pce68896d9a)" style="fill: none; stroke-dasharray: 0.8,1.32; stroke-dashoffset: 0; stroke: #b0b0b0; stroke-opacity: 0.6; stroke-width: 0.8"/>
     </g>
     <g id="line2d_4">
      <g>
       <use xlink:href="#m936fdd0e25" x="121.7375" y="101.11" style="stroke: #000000; stroke-width: 0.8"/>
      </g>
     </g>
    </g>
    <g id="xtick_3">
     <g id="line2d_5">
      <path d="M 209.8975 101.11 
L 209.8975 7.2 
" clip-path="url(#pce68896d9a)" style="fill: none; stroke-dasharray: 0.8,1.32; stroke-dashoffset: 0; stroke: #b0b0b0; stroke-opacity: 0.6; stroke-width: 0.8"/>
     </g>
     <g id="line2d_6">
      <g>
       <use xlink:href="#m936fdd0e25" x="209.8975" y="101.11" style="stroke: #000000; stroke-width: 0.8"/>
      </g>
     </g>
    </g>
    <g id="xtick_4">
     <g id="line2d_7">
      <path d="M 298.0575 101.11 
L 298.0575 7.2 
" clip-path="url(#pce68896d9a)" style="fill: none; stroke-dasharray: 0.8,1.32; stroke-dashoffset: 0; stroke: #b0b0b0; stroke-opacity: 0.6; stroke-width: 0.8"/>
     </g>
     <g id="line2d_8">
      <g>
       <use xlink:href="#m936fdd0e25" x="298.0575" y="101.11" style="stroke: #000000; stroke-width: 0.8"/>
      </g>
     </g>
    </g>
    <g id="xtick_5">
     <g id="line2d_9">
      <path d="M 386.2175 101.11 
L 386.2175 7.2 
" clip-path="url(#pce68896d9a)" style="fill: none; stroke-dasharray: 0.8,1.32; stroke-dashoffset: 0; stroke: #b0b0b0; stroke-opacity: 0.6; stroke-width: 0.8"/>
     </g>
     <g id="line2d_10">
      <g>
       <use xlink:href="#m936fdd0e25" x="386.2175" y="101.11" style="stroke: #000000; stroke-width: 0.8"/>
      </g>
     </g>
    </g>
    <g id="xtick_6">
     <g id="line2d_11">
      <path d="M 474.3775 101.11 
L 474.3775 7.2 
" clip-path="url(#pce68896d9a)" style="fill: none; stroke-dasharray: 0.8,1.32; stroke-dashoffset: 0; stroke: #b0b0b0; stroke-opacity: 0.6; stroke-width: 0.8"/>
     </g>
     <g id="line2d_12">
      <g>
       <use xlink:href="#m936fdd0e25" x="474.3775" y="101.11" style="stroke: #000000; stroke-width: 0.8"/>
      </g>
     </g>
    </g>
   </g>
   <g id="matplotlib.axis_2">
    <g id="ytick_1">
     <g id="line2d_13">
      <path d="M 33.5775 96.841364 
L 474.3775 96.841364 
" clip-path="url(#pce68896d9a)" style="fill: none; stroke-dasharray: 0.8,1.32; stroke-dashoffset: 0; stroke: #b0b0b0; stroke-opacity: 0.6; stroke-width: 0.8"/>
     </g>
     <g id="line2d_14">
      <defs>
       <path id="m2e32a59e71" d="M 0 0 
L -3.5 0 
" style="stroke: #000000; stroke-width: 0.8"/>
      </defs>
      <g>
       <use xlink:href="#m2e32a59e71" x="33.5775" y="96.841364" style="stroke: #000000; stroke-width: 0.8"/>
      </g>
     </g>
     <g id="text_1">
      <!-- 0 -->
      <g transform="translate(22.76 99.120895) scale(0.06 -0.06)">
       <defs>
        <path id="DejaVuSans-30" d="M 2034 4250 
Q 1547 4250 1301 3770 
Q 1056 3291 1056 2328 
Q 1056 1369 1301 889 
Q 1547 409 2034 409 
Q 2525 409 2770 889 
Q 3016 1369 3016 2328 
Q 3016 3291 2770 3770 
Q 2525 4250 2034 4250 
z
M 2034 4750 
Q 2819 4750 3233 4129 
Q 3647 3509 3647 2328 
Q 3647 1150 3233 529 
Q 2819 -91 2034 -91 
Q 1250 -91 836 529 
Q 422 1150 422 2328 
Q 422 3509 836 4129 
Q 1250 4750 2034 4750 
z
" transform="scale(0.015625)"/>
       </defs>
       <use xlink:href="#DejaVuSans-30"/>
      </g>
     </g>
    </g>
    <g id="ytick_2">
     <g id="line2d_15">
      <path d="M 33.5775 75.498182 
L 474.3775 75.498182 
" clip-path="url(#pce68896d9a)" style="fill: none; stroke-dasharray: 0.8,1.32; stroke-dashoffset: 0; stroke: #b0b0b0; stroke-opacity: 0.6; stroke-width: 0.8"/>
     </g>
     <g id="line2d_16">
      <g>
       <use xlink:href="#m2e32a59e71" x="33.5775" y="75.498182" style="stroke: #000000; stroke-width: 0.8"/>
      </g>
     </g>
     <g id="text_2">
      <!-- 10 -->
      <g transform="translate(18.9425 77.777713) scale(0.06 -0.06)">
       <defs>
        <path id="DejaVuSans-31" d="M 794 531 
L 1825 531 
L 1825 4091 
L 703 3866 
L 703 4441 
L 1819 4666 
L 2450 4666 
L 2450 531 
L 3481 531 
L 3481 0 
L 794 0 
L 794 531 
z
" transform="scale(0.015625)"/>
       </defs>
       <use xlink:href="#DejaVuSans-31"/>
       <use xlink:href="#DejaVuSans-30" transform="translate(63.623047 0)"/>
      </g>
     </g>
    </g>
    <g id="ytick_3">
     <g id="line2d_17">
      <path d="M 33.5775 54.155 
L 474.3775 54.155 
" clip-path="url(#pce68896d9a)" style="fill: none; stroke-dasharray: 0.8,1.32; stroke-dashoffset: 0; stroke: #b0b0b0; stroke-opacity: 0.6; stroke-width: 0.8"/>
     </g>
     <g id="line2d_18">
      <g>
       <use xlink:href="#m2e32a59e71" x="33.5775" y="54.155" style="stroke: #000000; stroke-width: 0.8"/>
      </g>
     </g>
     <g id="text_3">
      <!-- 20 -->
      <g transform="translate(18.9425 56.434531) scale(0.06 -0.06)">
       <defs>
        <path id="DejaVuSans-32" d="M 1228 531 
L 3431 531 
L 3431 0 
L 469 0 
L 469 531 
Q 828 903 1448 1529 
Q 2069 2156 2228 2338 
Q 2531 2678 2651 2914 
Q 2772 3150 2772 3378 
Q 2772 3750 2511 3984 
Q 2250 4219 1831 4219 
Q 1534 4219 1204 4116 
Q 875 4013 500 3803 
L 500 4441 
Q 881 4594 1212 4672 
Q 1544 4750 1819 4750 
Q 2544 4750 2975 4387 
Q 3406 4025 3406 3419 
Q 3406 3131 3298 2873 
Q 3191 2616 2906 2266 
Q 2828 2175 2409 1742 
Q 1991 1309 1228 531 
z
" transform="scale(0.015625)"/>
       </defs>
       <use xlink:href="#DejaVuSans-32"/>
       <use xlink:href="#DejaVuSans-30" transform="translate(63.623047 0)"/>
      </g>
     </g>
    </g>
    <g id="ytick_4">
     <g id="line2d_19">
      <path d="M 33.5775 32.811818 
L 474.3775 32.811818 
" clip-path="url(#pce68896d9a)" style="fill: none; stroke-dasharray: 0.8,1.32; stroke-dashoffset: 0; stroke: #b0b0b0; stroke-opacity: 0.6; stroke-width: 0.8"/>
     </g>
     <g id="line2d_20">
      <g>
       <use xlink:href="#m2e32a59e71" x="33.5775" y="32.811818" style="stroke: #000000; stroke-width: 0.8"/>
      </g>
     </g>
     <g id="text_4">
      <!-- 30 -->
      <g transform="translate(18.9425 35.091349) scale(0.06 -0.06)">
       <defs>
        <path id="DejaVuSans-33" d="M 2597 2516 
Q 3050 2419 3304 2112 
Q 3559 1806 3559 1356 
Q 3559 666 3084 287 
Q 2609 -91 1734 -91 
Q 1441 -91 1130 -33 
Q 819 25 488 141 
L 488 750 
Q 750 597 1062 519 
Q 1375 441 1716 441 
Q 2309 441 2620 675 
Q 2931 909 2931 1356 
Q 2931 1769 2642 2001 
Q 2353 2234 1838 2234 
L 1294 2234 
L 1294 2753 
L 1863 2753 
Q 2328 2753 2575 2939 
Q 2822 3125 2822 3475 
Q 2822 3834 2567 4026 
Q 2313 4219 1838 4219 
Q 1578 4219 1281 4162 
Q 984 4106 628 3988 
L 628 4550 
Q 988 4650 1302 4700 
Q 1616 4750 1894 4750 
Q 2613 4750 3031 4423 
Q 3450 4097 3450 3541 
Q 3450 3153 3228 2886 
Q 3006 2619 2597 2516 
z
" transform="scale(0.015625)"/>
       </defs>
       <use xlink:href="#DejaVuSans-33"/>
       <use xlink:href="#DejaVuSans-30" transform="translate(63.623047 0)"/>
      </g>
     </g>
    </g>
    <g id="ytick_5">
     <g id="line2d_21">
      <path d="M 33.5775 11.468636 
L 474.3775 11.468636 
" clip-path="url(#pce68896d9a)" style="fill: none; stroke-dasharray: 0.8,1.32; stroke-dashoffset: 0; stroke: #b0b0b0; stroke-opacity: 0.6; stroke-width: 0.8"/>
     </g>
     <g id="line2d_22">
      <g>
       <use xlink:href="#m2e32a59e71" x="33.5775" y="11.468636" style="stroke: #000000; stroke-width: 0.8"/>
      </g>
     </g>
     <g id="text_5">
      <!-- 40 -->
      <g transform="translate(18.9425 13.748168) scale(0.06 -0.06)">
       <defs>
        <path id="DejaVuSans-34" d="M 2419 4116 
L 825 1625 
L 2419 1625 
L 2419 4116 
z
M 2253 4666 
L 3047 4666 
L 3047 1625 
L 3713 1625 
L 3713 1100 
L 3047 1100 
L 3047 0 
L 2419 0 
L 2419 1100 
L 313 1100 
L 313 1709 
L 2253 4666 
z
" transform="scale(0.015625)"/>
       </defs>
       <use xlink:href="#DejaVuSans-34"/>
       <use xlink:href="#DejaVuSans-30" transform="translate(63.623047 0)"/>
      </g>
     </g>
    </g>
    <g id="text_6">
     <!-- Membrane Potential -->
     <g transform="translate(13.27875 94.386875) rotate(-90) scale(0.08 -0.08)">
      <defs>
       <path id="DejaVuSans-4d" d="M 628 4666 
L 1569 4666 
L 2759 1491 
L 3956 4666 
L 4897 4666 
L 4897 0 
L 4281 0 
L 4281 4097 
L 3078 897 
L 2444 897 
L 1241 4097 
L 1241 0 
L 628 0 
L 628 4666 
z
" transform="scale(0.015625)"/>
       <path id="DejaVuSans-65" d="M 3597 1894 
L 3597 1613 
L 953 1613 
Q 991 1019 1311 708 
Q 1631 397 2203 397 
Q 2534 397 2845 478 
Q 3156 559 3463 722 
L 3463 178 
Q 3153 47 2828 -22 
Q 2503 -91 2169 -91 
Q 1331 -91 842 396 
Q 353 884 353 1716 
Q 353 2575 817 3079 
Q 1281 3584 2069 3584 
Q 2775 3584 3186 3129 
Q 3597 2675 3597 1894 
z
M 3022 2063 
Q 3016 2534 2758 2815 
Q 2500 3097 2075 3097 
Q 1594 3097 1305 2825 
Q 1016 2553 972 2059 
L 3022 2063 
z
" transform="scale(0.015625)"/>
       <path id="DejaVuSans-6d" d="M 3328 2828 
Q 3544 3216 3844 3400 
Q 4144 3584 4550 3584 
Q 5097 3584 5394 3201 
Q 5691 2819 5691 2113 
L 5691 0 
L 5113 0 
L 5113 2094 
Q 5113 2597 4934 2840 
Q 4756 3084 4391 3084 
Q 3944 3084 3684 2787 
Q 3425 2491 3425 1978 
L 3425 0 
L 2847 0 
L 2847 2094 
Q 2847 2600 2669 2842 
Q 2491 3084 2119 3084 
Q 1678 3084 1418 2786 
Q 1159 2488 1159 1978 
L 1159 0 
L 581 0 
L 581 3500 
L 1159 3500 
L 1159 2956 
Q 1356 3278 1631 3431 
Q 1906 3584 2284 3584 
Q 2666 3584 2933 3390 
Q 3200 3197 3328 2828 
z
" transform="scale(0.015625)"/>
       <path id="DejaVuSans-62" d="M 3116 1747 
Q 3116 2381 2855 2742 
Q 2594 3103 2138 3103 
Q 1681 3103 1420 2742 
Q 1159 2381 1159 1747 
Q 1159 1113 1420 752 
Q 1681 391 2138 391 
Q 2594 391 2855 752 
Q 3116 1113 3116 1747 
z
M 1159 2969 
Q 1341 3281 1617 3432 
Q 1894 3584 2278 3584 
Q 2916 3584 3314 3078 
Q 3713 2572 3713 1747 
Q 3713 922 3314 415 
Q 2916 -91 2278 -91 
Q 1894 -91 1617 61 
Q 1341 213 1159 525 
L 1159 0 
L 581 0 
L 581 4863 
L 1159 4863 
L 1159 2969 
z
" transform="scale(0.015625)"/>
       <path id="DejaVuSans-72" d="M 2631 2963 
Q 2534 3019 2420 3045 
Q 2306 3072 2169 3072 
Q 1681 3072 1420 2755 
Q 1159 2438 1159 1844 
L 1159 0 
L 581 0 
L 581 3500 
L 1159 3500 
L 1159 2956 
Q 1341 3275 1631 3429 
Q 1922 3584 2338 3584 
Q 2397 3584 2469 3576 
Q 2541 3569 2628 3553 
L 2631 2963 
z
" transform="scale(0.015625)"/>
       <path id="DejaVuSans-61" d="M 2194 1759 
Q 1497 1759 1228 1600 
Q 959 1441 959 1056 
Q 959 750 1161 570 
Q 1363 391 1709 391 
Q 2188 391 2477 730 
Q 2766 1069 2766 1631 
L 2766 1759 
L 2194 1759 
z
M 3341 1997 
L 3341 0 
L 2766 0 
L 2766 531 
Q 2569 213 2275 61 
Q 1981 -91 1556 -91 
Q 1019 -91 701 211 
Q 384 513 384 1019 
Q 384 1609 779 1909 
Q 1175 2209 1959 2209 
L 2766 2209 
L 2766 2266 
Q 2766 2663 2505 2880 
Q 2244 3097 1772 3097 
Q 1472 3097 1187 3025 
Q 903 2953 641 2809 
L 641 3341 
Q 956 3463 1253 3523 
Q 1550 3584 1831 3584 
Q 2591 3584 2966 3190 
Q 3341 2797 3341 1997 
z
" transform="scale(0.015625)"/>
       <path id="DejaVuSans-6e" d="M 3513 2113 
L 3513 0 
L 2938 0 
L 2938 2094 
Q 2938 2591 2744 2837 
Q 2550 3084 2163 3084 
Q 1697 3084 1428 2787 
Q 1159 2491 1159 1978 
L 1159 0 
L 581 0 
L 581 3500 
L 1159 3500 
L 1159 2956 
Q 1366 3272 1645 3428 
Q 1925 3584 2291 3584 
Q 2894 3584 3203 3211 
Q 3513 2838 3513 2113 
z
" transform="scale(0.015625)"/>
       <path id="DejaVuSans-20" transform="scale(0.015625)"/>
       <path id="DejaVuSans-50" d="M 1259 4147 
L 1259 2394 
L 2053 2394 
Q 2494 2394 2734 2622 
Q 2975 2850 2975 3272 
Q 2975 3691 2734 3919 
Q 2494 4147 2053 4147 
L 1259 4147 
z
M 628 4666 
L 2053 4666 
Q 2838 4666 3239 4311 
Q 3641 3956 3641 3272 
Q 3641 2581 3239 2228 
Q 2838 1875 2053 1875 
L 1259 1875 
L 1259 0 
L 628 0 
L 628 4666 
z
" transform="scale(0.015625)"/>
       <path id="DejaVuSans-6f" d="M 1959 3097 
Q 1497 3097 1228 2736 
Q 959 2375 959 1747 
Q 959 1119 1226 758 
Q 1494 397 1959 397 
Q 2419 397 2687 759 
Q 2956 1122 2956 1747 
Q 2956 2369 2687 2733 
Q 2419 3097 1959 3097 
z
M 1959 3584 
Q 2709 3584 3137 3096 
Q 3566 2609 3566 1747 
Q 3566 888 3137 398 
Q 2709 -91 1959 -91 
Q 1206 -91 779 398 
Q 353 888 353 1747 
Q 353 2609 779 3096 
Q 1206 3584 1959 3584 
z
" transform="scale(0.015625)"/>
       <path id="DejaVuSans-74" d="M 1172 4494 
L 1172 3500 
L 2356 3500 
L 2356 3053 
L 1172 3053 
L 1172 1153 
Q 1172 725 1289 603 
Q 1406 481 1766 481 
L 2356 481 
L 2356 0 
L 1766 0 
Q 1100 0 847 248 
Q 594 497 594 1153 
L 594 3053 
L 172 3053 
L 172 3500 
L 594 3500 
L 594 4494 
L 1172 4494 
z
" transform="scale(0.015625)"/>
       <path id="DejaVuSans-69" d="M 603 3500 
L 1178 3500 
L 1178 0 
L 603 0 
L 603 3500 
z
M 603 4863 
L 1178 4863 
L 1178 4134 
L 603 4134 
L 603 4863 
z
" transform="scale(0.015625)"/>
       <path id="DejaVuSans-6c" d="M 603 4863 
L 1178 4863 
L 1178 0 
L 603 0 
L 603 4863 
z
" transform="scale(0.015625)"/>
      </defs>
      <use xlink:href="#DejaVuSans-4d"/>
      <use xlink:href="#DejaVuSans-65" transform="translate(86.279297 0)"/>
      <use xlink:href="#DejaVuSans-6d" transform="translate(147.802734 0)"/>
      <use xlink:href="#DejaVuSans-62" transform="translate(245.214844 0)"/>
      <use xlink:href="#DejaVuSans-72" transform="translate(308.691406 0)"/>
      <use xlink:href="#DejaVuSans-61" transform="translate(349.804688 0)"/>
      <use xlink:href="#DejaVuSans-6e" transform="translate(411.083984 0)"/>
      <use xlink:href="#DejaVuSans-65" transform="translate(474.462891 0)"/>
      <use xlink:href="#DejaVuSans-20" transform="translate(535.986328 0)"/>
      <use xlink:href="#DejaVuSans-50" transform="translate(567.773438 0)"/>
      <use xlink:href="#DejaVuSans-6f" transform="translate(624.451172 0)"/>
      <use xlink:href="#DejaVuSans-74" transform="translate(685.632812 0)"/>
      <use xlink:href="#DejaVuSans-65" transform="translate(724.841797 0)"/>
      <use xlink:href="#DejaVuSans-6e" transform="translate(786.365234 0)"/>
      <use xlink:href="#DejaVuSans-74" transform="translate(849.744141 0)"/>
      <use xlink:href="#DejaVuSans-69" transform="translate(888.953125 0)"/>
      <use xlink:href="#DejaVuSans-61" transform="translate(916.736328 0)"/>
      <use xlink:href="#DejaVuSans-6c" transform="translate(978.015625 0)"/>
     </g>
    </g>
   </g>
   <g id="line2d_23">
    <path d="M 33.5775 96.841364 
L 42.3935 96.841364 
L 42.3935 73.363864 
L 44.1567 73.363864 
L 44.1567 66.960909 
L 45.0383 66.960909 
L 45.0383 64.826591 
L 45.9199 64.826591 
L 45.9199 62.692273 
L 46.8015 62.692273 
L 46.8015 60.557955 
L 47.6831 60.557955 
L 47.6831 58.423636 
L 48.5647 58.423636 
L 48.5647 56.289318 
L 49.4463 56.289318 
L 49.4463 54.155 
L 51.2095 54.155 
L 51.2095 52.020682 
L 52.0911 52.020682 
L 52.0911 49.886364 
L 53.8543 49.886364 
L 53.8543 47.752045 
L 55.6175 47.752045 
L 55.6175 45.617727 
L 57.3807 45.617727 
L 57.3807 43.483409 
L 60.0255 43.483409 
L 60.0255 41.349091 
L 62.6703 41.349091 
L 62.6703 39.214773 
L 66.1967 39.214773 
L 66.1967 37.080455 
L 69.7231 37.080455 
L 69.7231 34.946136 
L 74.1311 34.946136 
L 74.1311 32.811818 
L 78.5391 32.811818 
L 78.5391 30.6775 
L 83.8287 30.6775 
L 83.8287 28.543182 
L 89.9999 28.543182 
L 89.9999 26.408864 
L 97.9343 26.408864 
L 97.9343 24.274545 
L 105.8687 24.274545 
L 105.8687 22.140227 
L 115.5663 22.140227 
L 115.5663 20.005909 
L 126.1455 20.005909 
L 126.1455 17.871591 
L 138.4879 17.871591 
L 138.4879 15.737273 
L 153.4751 15.737273 
L 153.4751 13.602955 
L 170.2255 13.602955 
L 170.2255 11.468636 
L 171.1071 11.468636 
L 171.1071 96.841364 
L 175.5151 96.841364 
L 175.5151 37.080455 
L 177.2783 37.080455 
L 177.2783 26.408864 
L 179.0415 26.408864 
L 179.0415 22.140227 
L 180.8047 22.140227 
L 180.8047 20.005909 
L 182.5679 20.005909 
L 182.5679 17.871591 
L 184.3311 17.871591 
L 184.3311 15.737273 
L 188.7391 15.737273 
L 188.7391 13.602955 
L 195.7919 13.602955 
L 195.7919 11.468636 
L 196.6735 11.468636 
L 196.6735 96.841364 
L 201.0815 96.841364 
L 201.0815 37.080455 
L 202.8447 37.080455 
L 202.8447 26.408864 
L 204.6079 26.408864 
L 204.6079 22.140227 
L 206.3711 22.140227 
L 206.3711 20.005909 
L 207.2527 20.005909 
L 207.2527 17.871591 
L 209.0159 17.871591 
L 209.0159 15.737273 
L 212.5423 15.737273 
L 212.5423 13.602955 
L 218.7135 13.602955 
L 218.7135 11.468636 
L 219.5951 11.468636 
L 219.5951 96.841364 
L 224.0031 96.841364 
L 224.0031 37.080455 
L 225.7663 37.080455 
L 225.7663 26.408864 
L 227.5295 26.408864 
L 227.5295 22.140227 
L 229.2927 22.140227 
L 229.2927 20.005909 
L 230.1743 20.005909 
L 230.1743 17.871591 
L 231.9375 17.871591 
L 231.9375 15.737273 
L 234.5823 15.737273 
L 234.5823 13.602955 
L 239.8719 13.602955 
L 239.8719 11.468636 
L 240.7535 11.468636 
L 240.7535 96.841364 
L 245.1615 96.841364 
L 245.1615 37.080455 
L 246.9247 37.080455 
L 246.9247 26.408864 
L 248.6879 26.408864 
L 248.6879 22.140227 
L 249.5695 22.140227 
L 249.5695 20.005909 
L 251.3327 20.005909 
L 251.3327 17.871591 
L 253.0959 17.871591 
L 253.0959 15.737273 
L 255.7407 15.737273 
L 255.7407 13.602955 
L 260.1487 13.602955 
L 260.1487 11.468636 
L 261.0303 11.468636 
L 261.0303 96.841364 
L 265.4383 96.841364 
L 265.4383 37.080455 
L 267.2015 37.080455 
L 267.2015 26.408864 
L 268.9647 26.408864 
L 268.9647 22.140227 
L 269.8463 22.140227 
L 269.8463 20.005909 
L 271.6095 20.005909 
L 271.6095 17.871591 
L 273.3727 17.871591 
L 273.3727 15.737273 
L 276.0175 15.737273 
L 276.0175 13.602955 
L 279.5439 13.602955 
L 279.5439 11.468636 
L 280.4255 11.468636 
L 280.4255 96.841364 
L 284.8335 96.841364 
L 284.8335 60.557955 
L 286.5967 60.557955 
L 286.5967 56.289318 
L 287.4783 56.289318 
L 287.4783 58.423636 
L 290.1231 58.423636 
L 290.1231 60.557955 
L 292.7679 60.557955 
L 292.7679 62.692273 
L 295.4127 62.692273 
L 295.4127 64.826591 
L 298.9391 64.826591 
L 298.9391 66.960909 
L 303.3471 66.960909 
L 303.3471 45.617727 
L 305.1103 45.617727 
L 305.1103 39.214773 
L 305.9919 39.214773 
L 305.9919 37.080455 
L 306.8735 37.080455 
L 306.8735 34.946136 
L 307.7551 34.946136 
L 307.7551 32.811818 
L 308.6367 32.811818 
L 308.6367 30.6775 
L 309.5183 30.6775 
L 309.5183 28.543182 
L 311.2815 28.543182 
L 311.2815 26.408864 
L 313.0447 26.408864 
L 313.0447 24.274545 
L 314.8079 24.274545 
L 314.8079 22.140227 
L 317.4527 22.140227 
L 317.4527 20.005909 
L 320.0975 20.005909 
L 320.0975 17.871591 
L 324.5055 17.871591 
L 324.5055 15.737273 
L 329.7951 15.737273 
L 329.7951 13.602955 
L 337.7295 13.602955 
L 337.7295 11.468636 
L 338.6111 11.468636 
L 338.6111 96.841364 
L 343.0191 96.841364 
L 343.0191 37.080455 
L 344.7823 37.080455 
L 344.7823 26.408864 
L 346.5455 26.408864 
L 346.5455 22.140227 
L 348.3087 22.140227 
L 348.3087 20.005909 
L 349.1903 20.005909 
L 349.1903 17.871591 
L 350.9535 17.871591 
L 350.9535 15.737273 
L 354.4799 15.737273 
L 354.4799 13.602955 
L 359.7695 13.602955 
L 359.7695 11.468636 
L 360.6511 11.468636 
L 360.6511 96.841364 
L 365.0591 96.841364 
L 365.0591 37.080455 
L 366.8223 37.080455 
L 366.8223 26.408864 
L 368.5855 26.408864 
L 368.5855 22.140227 
L 369.4671 22.140227 
L 369.4671 20.005909 
L 371.2303 20.005909 
L 371.2303 17.871591 
L 372.9935 17.871591 
L 372.9935 15.737273 
L 375.6383 15.737273 
L 375.6383 13.602955 
L 380.0463 13.602955 
L 380.0463 11.468636 
L 380.9279 11.468636 
L 380.9279 96.841364 
L 385.3359 96.841364 
L 385.3359 37.080455 
L 387.0991 37.080455 
L 387.0991 26.408864 
L 388.8623 26.408864 
L 388.8623 22.140227 
L 389.7439 22.140227 
L 389.7439 20.005909 
L 391.5071 20.005909 
L 391.5071 17.871591 
L 393.2703 17.871591 
L 393.2703 15.737273 
L 395.9151 15.737273 
L 395.9151 13.602955 
L 400.3231 13.602955 
L 400.3231 11.468636 
L 401.2047 11.468636 
L 401.2047 96.841364 
L 405.6127 96.841364 
L 405.6127 37.080455 
L 407.3759 37.080455 
L 407.3759 26.408864 
L 409.1391 26.408864 
L 409.1391 22.140227 
L 410.0207 22.140227 
L 410.0207 20.005909 
L 411.7839 20.005909 
L 411.7839 17.871591 
L 413.5471 17.871591 
L 413.5471 15.737273 
L 416.1919 15.737273 
L 416.1919 13.602955 
L 420.5999 13.602955 
L 420.5999 11.468636 
L 421.4815 11.468636 
L 421.4815 96.841364 
L 425.8895 96.841364 
L 425.8895 37.080455 
L 427.6527 37.080455 
L 427.6527 26.408864 
L 429.4159 26.408864 
L 429.4159 22.140227 
L 430.2975 22.140227 
L 430.2975 20.005909 
L 432.0607 20.005909 
L 432.0607 17.871591 
L 433.8239 17.871591 
L 433.8239 15.737273 
L 436.4687 15.737273 
L 436.4687 13.602955 
L 440.8767 13.602955 
L 440.8767 11.468636 
L 441.7583 11.468636 
L 441.7583 96.841364 
L 446.1663 96.841364 
L 446.1663 37.080455 
L 447.9295 37.080455 
L 447.9295 26.408864 
L 449.6927 26.408864 
L 449.6927 22.140227 
L 450.5743 22.140227 
L 450.5743 20.005909 
L 452.3375 20.005909 
L 452.3375 17.871591 
L 454.1007 17.871591 
L 454.1007 15.737273 
L 456.7455 15.737273 
L 456.7455 13.602955 
L 461.1535 13.602955 
L 461.1535 11.468636 
L 462.0351 11.468636 
L 462.0351 96.841364 
L 474.3775 96.841364 
L 474.3775 96.841364 
" clip-path="url(#pce68896d9a)" style="fill: none; stroke: #1e90ff; stroke-width: 1.5; stroke-linecap: square"/>
   </g>
   <g id="patch_3">
    <path d="M 33.5775 101.11 
L 33.5775 7.2 
" style="fill: none; stroke: #000000; stroke-width: 0.8; stroke-linejoin: miter; stroke-linecap: square"/>
   </g>
   <g id="patch_4">
    <path d="M 474.3775 101.11 
L 474.3775 7.2 
" style="fill: none; stroke: #000000; stroke-width: 0.8; stroke-linejoin: miter; stroke-linecap: square"/>
   </g>
   <g id="patch_5">
    <path d="M 33.5775 101.11 
L 474.3775 101.11 
" style="fill: none; stroke: #000000; stroke-width: 0.8; stroke-linejoin: miter; stroke-linecap: square"/>
   </g>
   <g id="patch_6">
    <path d="M 33.5775 7.2 
L 474.3775 7.2 
" style="fill: none; stroke: #000000; stroke-width: 0.8; stroke-linejoin: miter; stroke-linecap: square"/>
   </g>
  </g>
  <g id="axes_2">
   <g id="patch_7">
    <path d="M 33.5775 209.32 
L 474.3775 209.32 
L 474.3775 115.41 
L 33.5775 115.41 
z
" style="fill: #ffffff"/>
   </g>
   <g id="matplotlib.axis_3">
    <g id="xtick_7">
     <g id="line2d_24">
      <path d="M 33.5775 209.32 
L 33.5775 115.41 
" clip-path="url(#p86f00b53eb)" style="fill: none; stroke-dasharray: 0.8,1.32; stroke-dashoffset: 0; stroke: #b0b0b0; stroke-opacity: 0.6; stroke-width: 0.8"/>
     </g>
     <g id="line2d_25">
      <g>
       <use xlink:href="#m936fdd0e25" x="33.5775" y="209.32" style="stroke: #000000; stroke-width: 0.8"/>
      </g>
     </g>
     <g id="text_7">
      <!-- 0 -->
      <g transform="translate(31.66875 220.879063) scale(0.06 -0.06)">
       <use xlink:href="#DejaVuSans-30"/>
      </g>
     </g>
    </g>
    <g id="xtick_8">
     <g id="line2d_26">
      <path d="M 121.7375 209.32 
L 121.7375 115.41 
" clip-path="url(#p86f00b53eb)" style="fill: none; stroke-dasharray: 0.8,1.32; stroke-dashoffset: 0; stroke: #b0b0b0; stroke-opacity: 0.6; stroke-width: 0.8"/>
     </g>
     <g id="line2d_27">
      <g>
       <use xlink:href="#m936fdd0e25" x="121.7375" y="209.32" style="stroke: #000000; stroke-width: 0.8"/>
      </g>
     </g>
     <g id="text_8">
      <!-- 1.0e6 -->
      <g transform="translate(113.211875 220.879063) scale(0.06 -0.06)">
       <defs>
        <path id="DejaVuSans-2e" d="M 684 794 
L 1344 794 
L 1344 0 
L 684 0 
L 684 794 
z
" transform="scale(0.015625)"/>
        <path id="DejaVuSans-36" d="M 2113 2584 
Q 1688 2584 1439 2293 
Q 1191 2003 1191 1497 
Q 1191 994 1439 701 
Q 1688 409 2113 409 
Q 2538 409 2786 701 
Q 3034 994 3034 1497 
Q 3034 2003 2786 2293 
Q 2538 2584 2113 2584 
z
M 3366 4563 
L 3366 3988 
Q 3128 4100 2886 4159 
Q 2644 4219 2406 4219 
Q 1781 4219 1451 3797 
Q 1122 3375 1075 2522 
Q 1259 2794 1537 2939 
Q 1816 3084 2150 3084 
Q 2853 3084 3261 2657 
Q 3669 2231 3669 1497 
Q 3669 778 3244 343 
Q 2819 -91 2113 -91 
Q 1303 -91 875 529 
Q 447 1150 447 2328 
Q 447 3434 972 4092 
Q 1497 4750 2381 4750 
Q 2619 4750 2861 4703 
Q 3103 4656 3366 4563 
z
" transform="scale(0.015625)"/>
       </defs>
       <use xlink:href="#DejaVuSans-31"/>
       <use xlink:href="#DejaVuSans-2e" transform="translate(63.623047 0)"/>
       <use xlink:href="#DejaVuSans-30" transform="translate(95.410156 0)"/>
       <use xlink:href="#DejaVuSans-65" transform="translate(159.033203 0)"/>
       <use xlink:href="#DejaVuSans-36" transform="translate(220.556641 0)"/>
      </g>
     </g>
    </g>
    <g id="xtick_9">
     <g id="line2d_28">
      <path d="M 209.8975 209.32 
L 209.8975 115.41 
" clip-path="url(#p86f00b53eb)" style="fill: none; stroke-dasharray: 0.8,1.32; stroke-dashoffset: 0; stroke: #b0b0b0; stroke-opacity: 0.6; stroke-width: 0.8"/>
     </g>
     <g id="line2d_29">
      <g>
       <use xlink:href="#m936fdd0e25" x="209.8975" y="209.32" style="stroke: #000000; stroke-width: 0.8"/>
      </g>
     </g>
     <g id="text_9">
      <!-- 2.0e6 -->
      <g transform="translate(201.371875 220.879063) scale(0.06 -0.06)">
       <use xlink:href="#DejaVuSans-32"/>
       <use xlink:href="#DejaVuSans-2e" transform="translate(63.623047 0)"/>
       <use xlink:href="#DejaVuSans-30" transform="translate(95.410156 0)"/>
       <use xlink:href="#DejaVuSans-65" transform="translate(159.033203 0)"/>
       <use xlink:href="#DejaVuSans-36" transform="translate(220.556641 0)"/>
      </g>
     </g>
    </g>
    <g id="xtick_10">
     <g id="line2d_30">
      <path d="M 298.0575 209.32 
L 298.0575 115.41 
" clip-path="url(#p86f00b53eb)" style="fill: none; stroke-dasharray: 0.8,1.32; stroke-dashoffset: 0; stroke: #b0b0b0; stroke-opacity: 0.6; stroke-width: 0.8"/>
     </g>
     <g id="line2d_31">
      <g>
       <use xlink:href="#m936fdd0e25" x="298.0575" y="209.32" style="stroke: #000000; stroke-width: 0.8"/>
      </g>
     </g>
     <g id="text_10">
      <!-- 3.0e6 -->
      <g transform="translate(289.531875 220.879063) scale(0.06 -0.06)">
       <use xlink:href="#DejaVuSans-33"/>
       <use xlink:href="#DejaVuSans-2e" transform="translate(63.623047 0)"/>
       <use xlink:href="#DejaVuSans-30" transform="translate(95.410156 0)"/>
       <use xlink:href="#DejaVuSans-65" transform="translate(159.033203 0)"/>
       <use xlink:href="#DejaVuSans-36" transform="translate(220.556641 0)"/>
      </g>
     </g>
    </g>
    <g id="xtick_11">
     <g id="line2d_32">
      <path d="M 386.2175 209.32 
L 386.2175 115.41 
" clip-path="url(#p86f00b53eb)" style="fill: none; stroke-dasharray: 0.8,1.32; stroke-dashoffset: 0; stroke: #b0b0b0; stroke-opacity: 0.6; stroke-width: 0.8"/>
     </g>
     <g id="line2d_33">
      <g>
       <use xlink:href="#m936fdd0e25" x="386.2175" y="209.32" style="stroke: #000000; stroke-width: 0.8"/>
      </g>
     </g>
     <g id="text_11">
      <!-- 4.0e6 -->
      <g transform="translate(377.691875 220.879063) scale(0.06 -0.06)">
       <use xlink:href="#DejaVuSans-34"/>
       <use xlink:href="#DejaVuSans-2e" transform="translate(63.623047 0)"/>
       <use xlink:href="#DejaVuSans-30" transform="translate(95.410156 0)"/>
       <use xlink:href="#DejaVuSans-65" transform="translate(159.033203 0)"/>
       <use xlink:href="#DejaVuSans-36" transform="translate(220.556641 0)"/>
      </g>
     </g>
    </g>
    <g id="xtick_12">
     <g id="line2d_34">
      <path d="M 474.3775 209.32 
L 474.3775 115.41 
" clip-path="url(#p86f00b53eb)" style="fill: none; stroke-dasharray: 0.8,1.32; stroke-dashoffset: 0; stroke: #b0b0b0; stroke-opacity: 0.6; stroke-width: 0.8"/>
     </g>
     <g id="line2d_35">
      <g>
       <use xlink:href="#m936fdd0e25" x="474.3775" y="209.32" style="stroke: #000000; stroke-width: 0.8"/>
      </g>
     </g>
     <g id="text_12">
      <!-- 5.0e6 -->
      <g transform="translate(465.851875 220.879063) scale(0.06 -0.06)">
       <defs>
        <path id="DejaVuSans-35" d="M 691 4666 
L 3169 4666 
L 3169 4134 
L 1269 4134 
L 1269 2991 
Q 1406 3038 1543 3061 
Q 1681 3084 1819 3084 
Q 2600 3084 3056 2656 
Q 3513 2228 3513 1497 
Q 3513 744 3044 326 
Q 2575 -91 1722 -91 
Q 1428 -91 1123 -41 
Q 819 9 494 109 
L 494 744 
Q 775 591 1075 516 
Q 1375 441 1709 441 
Q 2250 441 2565 725 
Q 2881 1009 2881 1497 
Q 2881 1984 2565 2268 
Q 2250 2553 1709 2553 
Q 1456 2553 1204 2497 
Q 953 2441 691 2322 
L 691 4666 
z
" transform="scale(0.015625)"/>
       </defs>
       <use xlink:href="#DejaVuSans-35"/>
       <use xlink:href="#DejaVuSans-2e" transform="translate(63.623047 0)"/>
       <use xlink:href="#DejaVuSans-30" transform="translate(95.410156 0)"/>
       <use xlink:href="#DejaVuSans-65" transform="translate(159.033203 0)"/>
       <use xlink:href="#DejaVuSans-36" transform="translate(220.556641 0)"/>
      </g>
     </g>
    </g>
    <g id="text_13">
     <!-- Time (ns) -->
     <g transform="translate(235.179375 232.205625) scale(0.08 -0.08)">
      <defs>
       <path id="DejaVuSans-54" d="M -19 4666 
L 3928 4666 
L 3928 4134 
L 2272 4134 
L 2272 0 
L 1638 0 
L 1638 4134 
L -19 4134 
L -19 4666 
z
" transform="scale(0.015625)"/>
       <path id="DejaVuSans-28" d="M 1984 4856 
Q 1566 4138 1362 3434 
Q 1159 2731 1159 2009 
Q 1159 1288 1364 580 
Q 1569 -128 1984 -844 
L 1484 -844 
Q 1016 -109 783 600 
Q 550 1309 550 2009 
Q 550 2706 781 3412 
Q 1013 4119 1484 4856 
L 1984 4856 
z
" transform="scale(0.015625)"/>
       <path id="DejaVuSans-73" d="M 2834 3397 
L 2834 2853 
Q 2591 2978 2328 3040 
Q 2066 3103 1784 3103 
Q 1356 3103 1142 2972 
Q 928 2841 928 2578 
Q 928 2378 1081 2264 
Q 1234 2150 1697 2047 
L 1894 2003 
Q 2506 1872 2764 1633 
Q 3022 1394 3022 966 
Q 3022 478 2636 193 
Q 2250 -91 1575 -91 
Q 1294 -91 989 -36 
Q 684 19 347 128 
L 347 722 
Q 666 556 975 473 
Q 1284 391 1588 391 
Q 1994 391 2212 530 
Q 2431 669 2431 922 
Q 2431 1156 2273 1281 
Q 2116 1406 1581 1522 
L 1381 1569 
Q 847 1681 609 1914 
Q 372 2147 372 2553 
Q 372 3047 722 3315 
Q 1072 3584 1716 3584 
Q 2034 3584 2315 3537 
Q 2597 3491 2834 3397 
z
" transform="scale(0.015625)"/>
       <path id="DejaVuSans-29" d="M 513 4856 
L 1013 4856 
Q 1481 4119 1714 3412 
Q 1947 2706 1947 2009 
Q 1947 1309 1714 600 
Q 1481 -109 1013 -844 
L 513 -844 
Q 928 -128 1133 580 
Q 1338 1288 1338 2009 
Q 1338 2731 1133 3434 
Q 928 4138 513 4856 
z
" transform="scale(0.015625)"/>
      </defs>
      <use xlink:href="#DejaVuSans-54"/>
      <use xlink:href="#DejaVuSans-69" transform="translate(57.958984 0)"/>
      <use xlink:href="#DejaVuSans-6d" transform="translate(85.742188 0)"/>
      <use xlink:href="#DejaVuSans-65" transform="translate(183.154297 0)"/>
      <use xlink:href="#DejaVuSans-20" transform="translate(244.677734 0)"/>
      <use xlink:href="#DejaVuSans-28" transform="translate(276.464844 0)"/>
      <use xlink:href="#DejaVuSans-6e" transform="translate(315.478516 0)"/>
      <use xlink:href="#DejaVuSans-73" transform="translate(378.857422 0)"/>
      <use xlink:href="#DejaVuSans-29" transform="translate(430.957031 0)"/>
     </g>
    </g>
   </g>
   <g id="matplotlib.axis_4">
    <g id="ytick_6">
     <g id="line2d_36">
      <path d="M 33.5775 205.051364 
L 474.3775 205.051364 
" clip-path="url(#p86f00b53eb)" style="fill: none; stroke-dasharray: 0.8,1.32; stroke-dashoffset: 0; stroke: #b0b0b0; stroke-opacity: 0.6; stroke-width: 0.8"/>
     </g>
     <g id="line2d_37">
      <g>
       <use xlink:href="#m2e32a59e71" x="33.5775" y="205.051364" style="stroke: #000000; stroke-width: 0.8"/>
      </g>
     </g>
     <g id="text_14">
      <!-- 0 -->
      <g transform="translate(22.76 207.330895) scale(0.06 -0.06)">
       <use xlink:href="#DejaVuSans-30"/>
      </g>
     </g>
    </g>
    <g id="ytick_7">
     <g id="line2d_38">
      <path d="M 33.5775 180.659156 
L 474.3775 180.659156 
" clip-path="url(#p86f00b53eb)" style="fill: none; stroke-dasharray: 0.8,1.32; stroke-dashoffset: 0; stroke: #b0b0b0; stroke-opacity: 0.6; stroke-width: 0.8"/>
     </g>
     <g id="line2d_39">
      <g>
       <use xlink:href="#m2e32a59e71" x="33.5775" y="180.659156" style="stroke: #000000; stroke-width: 0.8"/>
      </g>
     </g>
     <g id="text_15">
      <!-- 10 -->
      <g transform="translate(18.9425 182.938687) scale(0.06 -0.06)">
       <use xlink:href="#DejaVuSans-31"/>
       <use xlink:href="#DejaVuSans-30" transform="translate(63.623047 0)"/>
      </g>
     </g>
    </g>
    <g id="ytick_8">
     <g id="line2d_40">
      <path d="M 33.5775 156.266948 
L 474.3775 156.266948 
" clip-path="url(#p86f00b53eb)" style="fill: none; stroke-dasharray: 0.8,1.32; stroke-dashoffset: 0; stroke: #b0b0b0; stroke-opacity: 0.6; stroke-width: 0.8"/>
     </g>
     <g id="line2d_41">
      <g>
       <use xlink:href="#m2e32a59e71" x="33.5775" y="156.266948" style="stroke: #000000; stroke-width: 0.8"/>
      </g>
     </g>
     <g id="text_16">
      <!-- 20 -->
      <g transform="translate(18.9425 158.546479) scale(0.06 -0.06)">
       <use xlink:href="#DejaVuSans-32"/>
       <use xlink:href="#DejaVuSans-30" transform="translate(63.623047 0)"/>
      </g>
     </g>
    </g>
    <g id="ytick_9">
     <g id="line2d_42">
      <path d="M 33.5775 131.87474 
L 474.3775 131.87474 
" clip-path="url(#p86f00b53eb)" style="fill: none; stroke-dasharray: 0.8,1.32; stroke-dashoffset: 0; stroke: #b0b0b0; stroke-opacity: 0.6; stroke-width: 0.8"/>
     </g>
     <g id="line2d_43">
      <g>
       <use xlink:href="#m2e32a59e71" x="33.5775" y="131.87474" style="stroke: #000000; stroke-width: 0.8"/>
      </g>
     </g>
     <g id="text_17">
      <!-- 30 -->
      <g transform="translate(18.9425 134.154272) scale(0.06 -0.06)">
       <use xlink:href="#DejaVuSans-33"/>
       <use xlink:href="#DejaVuSans-30" transform="translate(63.623047 0)"/>
      </g>
     </g>
    </g>
    <g id="text_18">
     <!-- Input Current -->
     <g transform="translate(13.27875 189.015) rotate(-90) scale(0.08 -0.08)">
      <defs>
       <path id="DejaVuSans-49" d="M 628 4666 
L 1259 4666 
L 1259 0 
L 628 0 
L 628 4666 
z
" transform="scale(0.015625)"/>
       <path id="DejaVuSans-70" d="M 1159 525 
L 1159 -1331 
L 581 -1331 
L 581 3500 
L 1159 3500 
L 1159 2969 
Q 1341 3281 1617 3432 
Q 1894 3584 2278 3584 
Q 2916 3584 3314 3078 
Q 3713 2572 3713 1747 
Q 3713 922 3314 415 
Q 2916 -91 2278 -91 
Q 1894 -91 1617 61 
Q 1341 213 1159 525 
z
M 3116 1747 
Q 3116 2381 2855 2742 
Q 2594 3103 2138 3103 
Q 1681 3103 1420 2742 
Q 1159 2381 1159 1747 
Q 1159 1113 1420 752 
Q 1681 391 2138 391 
Q 2594 391 2855 752 
Q 3116 1113 3116 1747 
z
" transform="scale(0.015625)"/>
       <path id="DejaVuSans-75" d="M 544 1381 
L 544 3500 
L 1119 3500 
L 1119 1403 
Q 1119 906 1312 657 
Q 1506 409 1894 409 
Q 2359 409 2629 706 
Q 2900 1003 2900 1516 
L 2900 3500 
L 3475 3500 
L 3475 0 
L 2900 0 
L 2900 538 
Q 2691 219 2414 64 
Q 2138 -91 1772 -91 
Q 1169 -91 856 284 
Q 544 659 544 1381 
z
M 1991 3584 
L 1991 3584 
z
" transform="scale(0.015625)"/>
       <path id="DejaVuSans-43" d="M 4122 4306 
L 4122 3641 
Q 3803 3938 3442 4084 
Q 3081 4231 2675 4231 
Q 1875 4231 1450 3742 
Q 1025 3253 1025 2328 
Q 1025 1406 1450 917 
Q 1875 428 2675 428 
Q 3081 428 3442 575 
Q 3803 722 4122 1019 
L 4122 359 
Q 3791 134 3420 21 
Q 3050 -91 2638 -91 
Q 1578 -91 968 557 
Q 359 1206 359 2328 
Q 359 3453 968 4101 
Q 1578 4750 2638 4750 
Q 3056 4750 3426 4639 
Q 3797 4528 4122 4306 
z
" transform="scale(0.015625)"/>
      </defs>
      <use xlink:href="#DejaVuSans-49"/>
      <use xlink:href="#DejaVuSans-6e" transform="translate(29.492188 0)"/>
      <use xlink:href="#DejaVuSans-70" transform="translate(92.871094 0)"/>
      <use xlink:href="#DejaVuSans-75" transform="translate(156.347656 0)"/>
      <use xlink:href="#DejaVuSans-74" transform="translate(219.726562 0)"/>
      <use xlink:href="#DejaVuSans-20" transform="translate(258.935547 0)"/>
      <use xlink:href="#DejaVuSans-43" transform="translate(290.722656 0)"/>
      <use xlink:href="#DejaVuSans-75" transform="translate(360.546875 0)"/>
      <use xlink:href="#DejaVuSans-72" transform="translate(423.925781 0)"/>
      <use xlink:href="#DejaVuSans-72" transform="translate(463.289062 0)"/>
      <use xlink:href="#DejaVuSans-65" transform="translate(502.152344 0)"/>
      <use xlink:href="#DejaVuSans-6e" transform="translate(563.675781 0)"/>
      <use xlink:href="#DejaVuSans-74" transform="translate(627.054688 0)"/>
     </g>
    </g>
   </g>
   <g id="line2d_44">
    <path d="M 33.5775 205.051364 
L 41.5119 205.051364 
L 41.5119 119.678636 
L 280.4255 119.678636 
L 280.4255 205.051364 
L 302.4655 205.051364 
L 302.4655 119.678636 
L 474.3775 119.678636 
L 474.3775 119.678636 
" clip-path="url(#p86f00b53eb)" style="fill: none; stroke: #ff8c00; stroke-width: 1.5; stroke-linecap: square"/>
   </g>
   <g id="patch_8">
    <path d="M 33.5775 209.32 
L 33.5775 115.41 
" style="fill: none; stroke: #000000; stroke-width: 0.8; stroke-linejoin: miter; stroke-linecap: square"/>
   </g>
   <g id="patch_9">
    <path d="M 474.3775 209.32 
L 474.3775 115.41 
" style="fill: none; stroke: #000000; stroke-width: 0.8; stroke-linejoin: miter; stroke-linecap: square"/>
   </g>
   <g id="patch_10">
    <path d="M 33.5775 209.32 
L 474.3775 209.32 
" style="fill: none; stroke: #000000; stroke-width: 0.8; stroke-linejoin: miter; stroke-linecap: square"/>
   </g>
   <g id="patch_11">
    <path d="M 33.5775 115.41 
L 474.3775 115.41 
" style="fill: none; stroke: #000000; stroke-width: 0.8; stroke-linejoin: miter; stroke-linecap: square"/>
   </g>
  </g>
 </g>
 <defs>
  <clipPath id="pce68896d9a">
   <rect x="33.5775" y="7.2" width="440.8" height="93.91"/>
  </clipPath>
  <clipPath id="p86f00b53eb">
   <rect x="33.5775" y="115.41" width="440.8" height="93.91"/>
  </clipPath>
 </defs>
</svg>
