<?xml version="1.0" encoding="UTF-8" standalone="no"?>
<!DOCTYPE svg PUBLIC "-//W3C//DTD SVG 1.1//EN"
 "http://www.w3.org/Graphics/SVG/1.1/DTD/svg11.dtd">
<!-- Generated by graphviz version 2.43.20190912.0211 (20190912.0211)
 -->
<!-- Title: lapicque Pages: 1 -->
<svg width="1774pt" height="754pt"
 viewBox="0.00 0.00 1774.05 754.33" xmlns="http://www.w3.org/2000/svg" xmlns:xlink="http://www.w3.org/1999/xlink">
<g id="graph0" class="graph" transform="scale(1 1) rotate(0) translate(4 750.33)">
<title>lapicque</title>
<polygon fill="white" stroke="transparent" points="-4,4 -4,-750.33 1770.05,-750.33 1770.05,4 -4,4"/>
<text text-anchor="middle" x="883.03" y="-7.8" font-family="Times,serif" font-size="14.00">lapicque</text>
<!-- n17 -->
<g id="node1" class="node">
<title>n17</title>
<polygon fill="none" stroke="black" points="109.22,-500 5.49,-482 109.22,-464 212.95,-482 109.22,-500"/>
<text text-anchor="middle" x="109.22" y="-478.3" font-family="Times,serif" font-size="14.00">updated_potential</text>
</g>
<!-- c28 -->
<g id="node10" class="node">
<title>c28</title>
<polygon fill="none" stroke="black" points="249.08,-522 249.08,-568 338.08,-568 338.08,-522 249.08,-522"/>
<text text-anchor="middle" x="262.08" y="-552.8" font-family="Times,serif" font-size="14.00">A</text>
<polyline fill="none" stroke="black" points="249.08,-545 275.08,-545 "/>
<text text-anchor="middle" x="262.08" y="-529.8" font-family="Times,serif" font-size="14.00">B</text>
<polyline fill="none" stroke="black" points="275.08,-522 275.08,-568 "/>
<text text-anchor="middle" x="293.58" y="-548.8" font-family="Times,serif" font-size="14.00">$13</text>
<text text-anchor="middle" x="293.58" y="-533.8" font-family="Times,serif" font-size="14.00">$gt</text>
<polyline fill="none" stroke="black" points="312.08,-522 312.08,-568 "/>
<text text-anchor="middle" x="325.08" y="-541.3" font-family="Times,serif" font-size="14.00">Y</text>
</g>
<!-- n17&#45;&gt;c28 -->
<g id="edge9" class="edge">
<title>n17:e&#45;&gt;c28:w</title>
<path fill="none" stroke="black" stroke-width="3" d="M213.08,-482C245.87,-482 219.74,-540.97 239.18,-554.33"/>
<polygon fill="black" stroke="black" stroke-width="3" points="238.52,-557.78 249.08,-557 240.34,-551.02 238.52,-557.78"/>
</g>
<!-- x13 -->
<g id="node33" class="node">
<title>x13</title>
<path fill="none" stroke="black" d="M274.08,-467C274.08,-467 313.08,-467 313.08,-467 319.08,-467 325.08,-473 325.08,-479 325.08,-479 325.08,-491 325.08,-491 325.08,-497 319.08,-503 313.08,-503 313.08,-503 274.08,-503 274.08,-503 268.08,-503 262.08,-497 262.08,-491 262.08,-491 262.08,-479 262.08,-479 262.08,-473 268.08,-467 274.08,-467"/>
<text text-anchor="middle" x="293.58" y="-481.3" font-family="Times,serif" font-size="14.00">7:0 &#45; 7:0</text>
</g>
<!-- n17&#45;&gt;x13 -->
<g id="edge10" class="edge">
<title>n17:e&#45;&gt;x13:w</title>
<path fill="none" stroke="black" stroke-width="3" d="M213.08,-482C230.43,-482 237.05,-484.02 250.54,-484.74"/>
<polygon fill="black" stroke="black" stroke-width="3" points="250.5,-488.24 260.58,-485 250.67,-481.25 250.5,-488.24"/>
</g>
<!-- n18 -->
<g id="node2" class="node">
<title>n18</title>
<polygon fill="none" stroke="black" points="1214.19,-503 1134.26,-485 1214.19,-467 1294.12,-485 1214.19,-503"/>
<text text-anchor="middle" x="1214.19" y="-481.3" font-family="Times,serif" font-size="14.00">in_refractory</text>
</g>
<!-- c37 -->
<g id="node25" class="node">
<title>c37</title>
<polygon fill="none" stroke="black" points="1330.16,-478 1330.16,-516 1456.16,-516 1456.16,-478 1330.16,-478"/>
<text text-anchor="middle" x="1343.16" y="-493.3" font-family="Times,serif" font-size="14.00">A</text>
<polyline fill="none" stroke="black" points="1356.16,-478 1356.16,-516 "/>
<text text-anchor="middle" x="1393.16" y="-500.8" font-family="Times,serif" font-size="14.00">$3</text>
<text text-anchor="middle" x="1393.16" y="-485.8" font-family="Times,serif" font-size="14.00">$logic_not</text>
<polyline fill="none" stroke="black" points="1430.16,-478 1430.16,-516 "/>
<text text-anchor="middle" x="1443.16" y="-493.3" font-family="Times,serif" font-size="14.00">Y</text>
</g>
<!-- n18&#45;&gt;c37 -->
<g id="edge12" class="edge">
<title>n18:e&#45;&gt;c37:w</title>
<path fill="none" stroke="black" d="M1294.16,-485C1306.94,-485 1311.34,-491.89 1320.06,-495.23"/>
<polygon fill="black" stroke="black" points="1319.7,-498.72 1330.16,-497 1320.91,-491.83 1319.7,-498.72"/>
</g>
<!-- p11 -->
<g id="node34" class="node">
<title>p11</title>
<path fill="none" stroke="black" d="M548.58,-504C548.58,-504 389.58,-504 389.58,-504 383.58,-504 377.58,-498 377.58,-492 377.58,-492 377.58,-478 377.58,-478 377.58,-472 383.58,-466 389.58,-466 389.58,-466 548.58,-466 548.58,-466 554.58,-466 560.58,-472 560.58,-478 560.58,-478 560.58,-492 560.58,-492 560.58,-498 554.58,-504 548.58,-504"/>
<text text-anchor="middle" x="469.08" y="-488.8" font-family="Times,serif" font-size="14.00">PROC $10</text>
<text text-anchor="middle" x="469.08" y="-473.8" font-family="Times,serif" font-size="14.00">../../src/lapicque.sv:85.5&#45;104.8</text>
</g>
<!-- n18&#45;&gt;p11 -->
<g id="edge13" class="edge">
<title>n18:e&#45;&gt;p11:w</title>
<path fill="none" stroke="black" d="M1295.19,-485C1303.2,-485 1300.01,-497.49 1294.19,-503 1293.27,-503.88 561.86,-504 560.58,-504 479.03,-504.06 436.25,-560.13 377.08,-504 374.4,-501.45 372.25,-497.5 371.4,-493.85"/>
<polygon fill="black" stroke="black" points="374.5,-495.48 376.08,-485 368.31,-492.2 374.5,-495.48"/>
</g>
<!-- n19 -->
<g id="node3" class="node">
<title>n19</title>
<polygon fill="none" stroke="black" points="718.65,-311 611.07,-293 718.65,-275 826.24,-293 718.65,-311"/>
<text text-anchor="middle" x="718.65" y="-289.3" font-family="Times,serif" font-size="14.00">refractory_counter</text>
</g>
<!-- c30 -->
<g id="node14" class="node">
<title>c30</title>
<polygon fill="none" stroke="black" points="874.72,-307 874.72,-353 968.72,-353 968.72,-307 874.72,-307"/>
<text text-anchor="middle" x="887.72" y="-337.8" font-family="Times,serif" font-size="14.00">A</text>
<polyline fill="none" stroke="black" points="874.72,-330 900.72,-330 "/>
<text text-anchor="middle" x="887.72" y="-314.8" font-family="Times,serif" font-size="14.00">B</text>
<polyline fill="none" stroke="black" points="900.72,-307 900.72,-353 "/>
<text text-anchor="middle" x="921.72" y="-333.8" font-family="Times,serif" font-size="14.00">$11</text>
<text text-anchor="middle" x="921.72" y="-318.8" font-family="Times,serif" font-size="14.00">$sub</text>
<polyline fill="none" stroke="black" points="942.72,-307 942.72,-353 "/>
<text text-anchor="middle" x="955.72" y="-326.3" font-family="Times,serif" font-size="14.00">Y</text>
</g>
<!-- n19&#45;&gt;c30 -->
<g id="edge16" class="edge">
<title>n19:e&#45;&gt;c30:w</title>
<path fill="none" stroke="black" stroke-width="3" d="M827.65,-293C853.58,-293 846.71,-329.85 863.92,-339.64"/>
<polygon fill="black" stroke="black" stroke-width="3" points="863.18,-343.06 873.72,-342 864.82,-336.25 863.18,-343.06"/>
</g>
<!-- c39 -->
<g id="node29" class="node">
<title>c39</title>
<polygon fill="none" stroke="black" points="878.72,-242 878.72,-288 964.72,-288 964.72,-242 878.72,-242"/>
<text text-anchor="middle" x="891.72" y="-272.8" font-family="Times,serif" font-size="14.00">A</text>
<polyline fill="none" stroke="black" points="878.72,-265 904.72,-265 "/>
<text text-anchor="middle" x="891.72" y="-249.8" font-family="Times,serif" font-size="14.00">B</text>
<polyline fill="none" stroke="black" points="904.72,-242 904.72,-288 "/>
<text text-anchor="middle" x="921.72" y="-268.8" font-family="Times,serif" font-size="14.00">$1</text>
<text text-anchor="middle" x="921.72" y="-253.8" font-family="Times,serif" font-size="14.00">$gt</text>
<polyline fill="none" stroke="black" points="938.72,-242 938.72,-288 "/>
<text text-anchor="middle" x="951.72" y="-261.3" font-family="Times,serif" font-size="14.00">Y</text>
</g>
<!-- n19&#45;&gt;c39 -->
<g id="edge17" class="edge">
<title>n19:e&#45;&gt;c39:w</title>
<path fill="none" stroke="black" stroke-width="3" d="M827.65,-293C847.18,-293 852.73,-281.82 867.67,-278.15"/>
<polygon fill="black" stroke="black" stroke-width="3" points="868.19,-281.61 877.72,-277 867.39,-274.66 868.19,-281.61"/>
</g>
<!-- n19&#45;&gt;p11 -->
<g id="edge18" class="edge">
<title>n19:e&#45;&gt;p11:w</title>
<path fill="none" stroke="black" stroke-width="3" d="M827.65,-293C835.67,-293 832.36,-305.38 826.65,-311 808.7,-328.67 619.36,-303.78 600.08,-320 536.08,-373.85 625.64,-451.43 560.58,-504 497.15,-555.26 436.25,-560.13 377.08,-504 374.4,-501.45 372.25,-497.5 371.4,-493.85"/>
<polygon fill="black" stroke="black" stroke-width="3" points="374.5,-495.48 376.08,-485 368.31,-492.2 374.5,-495.48"/>
</g>
<!-- n20 -->
<g id="node4" class="node">
<title>n20</title>
<polygon fill="none" stroke="black" points="718.65,-603 600.01,-585 718.65,-567 837.3,-585 718.65,-603"/>
<text text-anchor="middle" x="718.65" y="-581.3" font-family="Times,serif" font-size="14.00">membrane_potential</text>
</g>
<!-- c29 -->
<g id="node12" class="node">
<title>c29</title>
<polygon fill="none" stroke="black" points="874.72,-628 874.72,-674 968.72,-674 968.72,-628 874.72,-628"/>
<text text-anchor="middle" x="887.72" y="-658.8" font-family="Times,serif" font-size="14.00">A</text>
<polyline fill="none" stroke="black" points="874.72,-651 900.72,-651 "/>
<text text-anchor="middle" x="887.72" y="-635.8" font-family="Times,serif" font-size="14.00">B</text>
<polyline fill="none" stroke="black" points="900.72,-628 900.72,-674 "/>
<text text-anchor="middle" x="921.72" y="-654.8" font-family="Times,serif" font-size="14.00">$12</text>
<text text-anchor="middle" x="921.72" y="-639.8" font-family="Times,serif" font-size="14.00">$sub</text>
<polyline fill="none" stroke="black" points="942.72,-628 942.72,-674 "/>
<text text-anchor="middle" x="955.72" y="-647.3" font-family="Times,serif" font-size="14.00">Y</text>
</g>
<!-- n20&#45;&gt;c29 -->
<g id="edge21" class="edge">
<title>n20:e&#45;&gt;c29:w</title>
<path fill="none" stroke="black" stroke-width="3" d="M837.22,-585C871.31,-585 843.27,-646.87 863.77,-660.4"/>
<polygon fill="black" stroke="black" stroke-width="3" points="863.17,-663.86 873.72,-663 864.93,-657.09 863.17,-663.86"/>
</g>
<!-- c33 -->
<g id="node19" class="node">
<title>c33</title>
<polygon fill="none" stroke="black" points="873.22,-372 873.22,-418 970.22,-418 970.22,-372 873.22,-372"/>
<text text-anchor="middle" x="886.22" y="-402.8" font-family="Times,serif" font-size="14.00">A</text>
<polyline fill="none" stroke="black" points="873.22,-395 899.22,-395 "/>
<text text-anchor="middle" x="886.22" y="-379.8" font-family="Times,serif" font-size="14.00">B</text>
<polyline fill="none" stroke="black" points="899.22,-372 899.22,-418 "/>
<text text-anchor="middle" x="921.72" y="-398.8" font-family="Times,serif" font-size="14.00">$7</text>
<text text-anchor="middle" x="921.72" y="-383.8" font-family="Times,serif" font-size="14.00">$mul</text>
<polyline fill="none" stroke="black" points="944.22,-372 944.22,-418 "/>
<text text-anchor="middle" x="957.22" y="-391.3" font-family="Times,serif" font-size="14.00">Y</text>
</g>
<!-- n20&#45;&gt;c33 -->
<g id="edge22" class="edge">
<title>n20:e&#45;&gt;c33:w</title>
<path fill="none" stroke="black" stroke-width="3" d="M837.22,-585C914.15,-585 803.82,-423.3 863.19,-408.14"/>
<polygon fill="black" stroke="black" stroke-width="3" points="863.68,-411.6 873.22,-407 862.89,-404.65 863.68,-411.6"/>
</g>
<!-- c38 -->
<g id="node27" class="node">
<title>c38</title>
<polygon fill="none" stroke="black" points="877.72,-535 877.72,-581 965.72,-581 965.72,-535 877.72,-535"/>
<text text-anchor="middle" x="890.72" y="-565.8" font-family="Times,serif" font-size="14.00">A</text>
<polyline fill="none" stroke="black" points="877.72,-558 903.72,-558 "/>
<text text-anchor="middle" x="890.72" y="-542.8" font-family="Times,serif" font-size="14.00">B</text>
<polyline fill="none" stroke="black" points="903.72,-535 903.72,-581 "/>
<text text-anchor="middle" x="921.72" y="-561.8" font-family="Times,serif" font-size="14.00">$2</text>
<text text-anchor="middle" x="921.72" y="-546.8" font-family="Times,serif" font-size="14.00">$ge</text>
<polyline fill="none" stroke="black" points="939.72,-535 939.72,-581 "/>
<text text-anchor="middle" x="952.72" y="-554.3" font-family="Times,serif" font-size="14.00">Y</text>
</g>
<!-- n20&#45;&gt;c38 -->
<g id="edge23" class="edge">
<title>n20:e&#45;&gt;c38:w</title>
<path fill="none" stroke="black" stroke-width="3" d="M837.22,-585C852.04,-585 856.38,-575.66 866.77,-571.72"/>
<polygon fill="black" stroke="black" stroke-width="3" points="867.47,-575.15 876.72,-570 866.27,-568.25 867.47,-575.15"/>
</g>
<!-- n20&#45;&gt;p11 -->
<g id="edge24" class="edge">
<title>n20:e&#45;&gt;p11:w</title>
<path fill="none" stroke="black" stroke-width="3" d="M838.65,-585C846.67,-585 843.47,-597.49 837.65,-603 828.07,-612.07 611.95,-608.78 600.08,-603 576.74,-591.63 585.63,-571.48 564.08,-557 492.37,-508.83 430.97,-571.52 377.08,-504 374.94,-501.32 372.98,-497.68 371.97,-494.3"/>
<polygon fill="black" stroke="black" stroke-width="3" points="375.24,-495.56 376.08,-485 368.84,-492.73 375.24,-495.56"/>
</g>
<!-- n21 -->
<g id="node5" class="node">
<title>n21</title>
<polygon fill="none" stroke="black" points="1760.23,-627.54 1760.23,-642.46 1741.59,-653 1715.24,-653 1696.6,-642.46 1696.6,-627.54 1715.24,-617 1741.59,-617 1760.23,-627.54"/>
<text text-anchor="middle" x="1728.42" y="-631.3" font-family="Times,serif" font-size="14.00">spike</text>
</g>
<!-- n21&#45;&gt;p11 -->
<g id="edge26" class="edge">
<title>n21:e&#45;&gt;p11:w</title>
<path fill="none" stroke="black" d="M1761.42,-635C1769.43,-635 1765.24,-646.61 1760.42,-653 1702.95,-729.07 1652.99,-723 1557.66,-723 920.72,-723 920.72,-723 920.72,-723 777.75,-723 709.44,-789.11 600.08,-697 550.94,-655.61 608.95,-602.98 564.08,-557 503.75,-495.17 430.97,-571.52 377.08,-504 374.94,-501.32 372.98,-497.68 371.97,-494.3"/>
<polygon fill="black" stroke="black" points="375.24,-495.56 376.08,-485 368.84,-492.73 375.24,-495.56"/>
</g>
<!-- n22 -->
<g id="node6" class="node">
<title>n22</title>
<polygon fill="none" stroke="black" points="757.54,-51.54 757.54,-66.46 734.76,-77 702.55,-77 679.77,-66.46 679.77,-51.54 702.55,-41 734.76,-41 757.54,-51.54"/>
<text text-anchor="middle" x="718.65" y="-55.3" font-family="Times,serif" font-size="14.00">current</text>
</g>
<!-- c35 -->
<g id="node23" class="node">
<title>c35</title>
<polygon fill="none" stroke="black" points="873.22,-78 873.22,-124 970.22,-124 970.22,-78 873.22,-78"/>
<text text-anchor="middle" x="886.22" y="-108.8" font-family="Times,serif" font-size="14.00">A</text>
<polyline fill="none" stroke="black" points="873.22,-101 899.22,-101 "/>
<text text-anchor="middle" x="886.22" y="-85.8" font-family="Times,serif" font-size="14.00">B</text>
<polyline fill="none" stroke="black" points="899.22,-78 899.22,-124 "/>
<text text-anchor="middle" x="921.72" y="-104.8" font-family="Times,serif" font-size="14.00">$5</text>
<text text-anchor="middle" x="921.72" y="-89.8" font-family="Times,serif" font-size="14.00">$mul</text>
<polyline fill="none" stroke="black" points="944.22,-78 944.22,-124 "/>
<text text-anchor="middle" x="957.22" y="-97.3" font-family="Times,serif" font-size="14.00">Y</text>
</g>
<!-- n22&#45;&gt;c35 -->
<g id="edge27" class="edge">
<title>n22:e&#45;&gt;c35:w</title>
<path fill="none" stroke="black" stroke-width="3" d="M758.65,-59C807.69,-59 819.11,-85.04 863.01,-88.6"/>
<polygon fill="black" stroke="black" stroke-width="3" points="863.09,-92.1 873.22,-89 863.37,-85.11 863.09,-92.1"/>
</g>
<!-- n23 -->
<g id="node7" class="node">
<title>n23</title>
<polygon fill="none" stroke="black" points="320.58,-422.54 320.58,-437.46 304.77,-448 282.4,-448 266.58,-437.46 266.58,-422.54 282.4,-412 304.77,-412 320.58,-422.54"/>
<text text-anchor="middle" x="293.58" y="-426.3" font-family="Times,serif" font-size="14.00">rst</text>
</g>
<!-- n23&#45;&gt;p11 -->
<g id="edge28" class="edge">
<title>n23:e&#45;&gt;p11:w</title>
<path fill="none" stroke="black" d="M321.58,-430C352.1,-430 344.29,-473.24 366.12,-483.04"/>
<polygon fill="black" stroke="black" points="365.59,-486.51 376.08,-485 366.94,-479.64 365.59,-486.51"/>
</g>
<!-- n24 -->
<g id="node8" class="node">
<title>n24</title>
<polygon fill="none" stroke="black" points="320.58,-368.54 320.58,-383.46 304.77,-394 282.4,-394 266.58,-383.46 266.58,-368.54 282.4,-358 304.77,-358 320.58,-368.54"/>
<text text-anchor="middle" x="293.58" y="-372.3" font-family="Times,serif" font-size="14.00">clk</text>
</g>
<!-- n24&#45;&gt;p11 -->
<g id="edge29" class="edge">
<title>n24:e&#45;&gt;p11:w</title>
<path fill="none" stroke="black" d="M321.58,-376C371.94,-376 328.95,-470.21 366.18,-483.46"/>
<polygon fill="black" stroke="black" points="365.66,-486.92 376.08,-485 366.74,-480 365.66,-486.92"/>
</g>
<!-- v0 -->
<g id="node9" class="node">
<title>v0</title>
<ellipse fill="none" stroke="black" cx="109.22" cy="-536" rx="90.98" ry="18"/>
<text text-anchor="middle" x="109.22" y="-532.3" font-family="Times,serif" font-size="14.00">16&#39;0000000011111111</text>
</g>
<!-- v0&#45;&gt;c28 -->
<g id="edge35" class="edge">
<title>v0:e&#45;&gt;c28:w</title>
<path fill="none" stroke="black" stroke-width="3" d="M201.22,-536C218.7,-536 225.37,-533.98 238.96,-533.26"/>
<polygon fill="black" stroke="black" stroke-width="3" points="239.17,-536.75 249.08,-533 239,-529.75 239.17,-536.75"/>
</g>
<!-- c28&#45;&gt;p11 -->
<g id="edge30" class="edge">
<title>c28:e&#45;&gt;p11:w</title>
<path fill="none" stroke="black" d="M338.08,-545C365.45,-545 350.19,-499.88 366.24,-487.89"/>
<polygon fill="black" stroke="black" points="367.48,-491.18 376.08,-485 365.5,-484.46 367.48,-491.18"/>
</g>
<!-- v1 -->
<g id="node11" class="node">
<title>v1</title>
<ellipse fill="none" stroke="black" cx="718.65" cy="-639" rx="51.99" ry="18"/>
<text text-anchor="middle" x="718.65" y="-635.3" font-family="Times,serif" font-size="14.00">8&#39;11001000</text>
</g>
<!-- v1&#45;&gt;c29 -->
<g id="edge36" class="edge">
<title>v1:e&#45;&gt;c29:w</title>
<path fill="none" stroke="black" stroke-width="3" d="M771.65,-639C813.47,-639 826.38,-639 863.68,-639"/>
<polygon fill="black" stroke="black" stroke-width="3" points="863.72,-642.5 873.72,-639 863.72,-635.5 863.72,-642.5"/>
</g>
<!-- c29&#45;&gt;p11 -->
<g id="edge31" class="edge">
<title>c29:e&#45;&gt;p11:w</title>
<path fill="none" stroke="black" stroke-width="3" d="M969.72,-651C980.18,-651 976.27,-667.27 968.72,-674.5 938.56,-703.41 916.5,-675.15 874.72,-674.5 752.62,-672.61 697.94,-739.06 600.08,-666 559.2,-635.48 600.92,-592.29 564.08,-557 501.71,-497.24 430.97,-571.52 377.08,-504 374.94,-501.32 372.98,-497.68 371.97,-494.3"/>
<polygon fill="black" stroke="black" stroke-width="3" points="375.24,-495.56 376.08,-485 368.84,-492.73 375.24,-495.56"/>
</g>
<!-- v2 -->
<g id="node13" class="node">
<title>v2</title>
<ellipse fill="none" stroke="black" cx="718.65" cy="-347" rx="27" ry="18"/>
<text text-anchor="middle" x="718.65" y="-343.3" font-family="Times,serif" font-size="14.00">1</text>
</g>
<!-- v2&#45;&gt;c30 -->
<g id="edge37" class="edge">
<title>v2:e&#45;&gt;c30:w</title>
<path fill="none" stroke="black" stroke-width="3" d="M746.65,-347C801.07,-347 814.27,-321.41 863.7,-318.31"/>
<polygon fill="black" stroke="black" stroke-width="3" points="863.84,-321.8 873.72,-318 863.62,-314.81 863.84,-321.8"/>
</g>
<!-- x12 -->
<g id="node32" class="node">
<title>x12</title>
<path fill="none" stroke="black" d="M1032.72,-366C1032.72,-366 1071.72,-366 1071.72,-366 1077.72,-366 1083.72,-372 1083.72,-378 1083.72,-378 1083.72,-390 1083.72,-390 1083.72,-396 1077.72,-402 1071.72,-402 1071.72,-402 1032.72,-402 1032.72,-402 1026.72,-402 1020.72,-396 1020.72,-390 1020.72,-390 1020.72,-378 1020.72,-378 1020.72,-372 1026.72,-366 1032.72,-366"/>
<text text-anchor="middle" x="1052.22" y="-380.3" font-family="Times,serif" font-size="14.00">4:0 &#45; 4:0</text>
</g>
<!-- c30&#45;&gt;x12 -->
<g id="edge32" class="edge">
<title>c30:e&#45;&gt;x12:w</title>
<path fill="none" stroke="black" stroke-width="3" d="M969.72,-330C998.34,-330 989.74,-371.71 1009.35,-381.82"/>
<polygon fill="black" stroke="black" stroke-width="3" points="1008.7,-385.26 1019.22,-384 1010.22,-378.42 1008.7,-385.26"/>
</g>
<!-- c31 -->
<g id="node15" class="node">
<title>c31</title>
<polygon fill="none" stroke="black" points="1166.69,-188 1166.69,-234 1261.69,-234 1261.69,-188 1166.69,-188"/>
<text text-anchor="middle" x="1179.69" y="-218.8" font-family="Times,serif" font-size="14.00">A</text>
<polyline fill="none" stroke="black" points="1166.69,-211 1192.69,-211 "/>
<text text-anchor="middle" x="1179.69" y="-195.8" font-family="Times,serif" font-size="14.00">B</text>
<polyline fill="none" stroke="black" points="1192.69,-188 1192.69,-234 "/>
<text text-anchor="middle" x="1214.19" y="-214.8" font-family="Times,serif" font-size="14.00">$9</text>
<text text-anchor="middle" x="1214.19" y="-199.8" font-family="Times,serif" font-size="14.00">$add</text>
<polyline fill="none" stroke="black" points="1235.69,-188 1235.69,-234 "/>
<text text-anchor="middle" x="1248.69" y="-207.3" font-family="Times,serif" font-size="14.00">Y</text>
</g>
<!-- x16 -->
<g id="node37" class="node">
<title>x16</title>
<ellipse fill="black" stroke="black" cx="1393.16" cy="-185" rx="1.8" ry="1.8"/>
</g>
<!-- c31&#45;&gt;x16 -->
<g id="edge33" class="edge">
<title>c31:e&#45;&gt;x16:w</title>
<path fill="none" stroke="black" stroke-width="3" d="M1263.19,-211C1317.19,-211 1330.91,-188.15 1379.87,-185.29"/>
<polygon fill="black" stroke="black" stroke-width="3" points="1380.26,-188.78 1390.16,-185 1380.06,-181.79 1380.26,-188.78"/>
</g>
<!-- v3 -->
<g id="node16" class="node">
<title>v3</title>
<ellipse fill="none" stroke="black" cx="921.72" cy="-205" rx="27" ry="18"/>
<text text-anchor="middle" x="921.72" y="-201.3" font-family="Times,serif" font-size="14.00">8</text>
</g>
<!-- c32 -->
<g id="node17" class="node">
<title>c32</title>
<polygon fill="none" stroke="black" points="1006.22,-194 1006.22,-240 1098.22,-240 1098.22,-194 1006.22,-194"/>
<text text-anchor="middle" x="1019.22" y="-224.8" font-family="Times,serif" font-size="14.00">A</text>
<polyline fill="none" stroke="black" points="1006.22,-217 1032.22,-217 "/>
<text text-anchor="middle" x="1019.22" y="-201.8" font-family="Times,serif" font-size="14.00">B</text>
<polyline fill="none" stroke="black" points="1032.22,-194 1032.22,-240 "/>
<text text-anchor="middle" x="1052.22" y="-220.8" font-family="Times,serif" font-size="14.00">$8</text>
<text text-anchor="middle" x="1052.22" y="-205.8" font-family="Times,serif" font-size="14.00">$shr</text>
<polyline fill="none" stroke="black" points="1072.22,-194 1072.22,-240 "/>
<text text-anchor="middle" x="1085.22" y="-213.3" font-family="Times,serif" font-size="14.00">Y</text>
</g>
<!-- v3&#45;&gt;c32 -->
<g id="edge38" class="edge">
<title>v3:e&#45;&gt;c32:w</title>
<path fill="none" stroke="black" stroke-width="3" d="M949.72,-205C971.11,-205 978.83,-205 996.16,-205"/>
<polygon fill="black" stroke="black" stroke-width="3" points="996.22,-208.5 1006.22,-205 996.22,-201.5 996.22,-208.5"/>
</g>
<!-- c32&#45;&gt;c31 -->
<g id="edge34" class="edge">
<title>c32:e&#45;&gt;c31:w</title>
<path fill="none" stroke="black" stroke-width="3" d="M1098.22,-217C1125.31,-217 1132.71,-203.1 1155.03,-199.73"/>
<polygon fill="black" stroke="black" stroke-width="3" points="1155.47,-203.21 1165.19,-199 1154.97,-196.22 1155.47,-203.21"/>
</g>
<!-- v4 -->
<g id="node18" class="node">
<title>v4</title>
<ellipse fill="none" stroke="black" cx="718.65" cy="-401" rx="51.99" ry="18"/>
<text text-anchor="middle" x="718.65" y="-397.3" font-family="Times,serif" font-size="14.00">8&#39;10000000</text>
</g>
<!-- v4&#45;&gt;c33 -->
<g id="edge39" class="edge">
<title>v4:e&#45;&gt;c33:w</title>
<path fill="none" stroke="black" stroke-width="3" d="M771.65,-401C813.92,-401 825.62,-385.7 863.1,-383.31"/>
<polygon fill="black" stroke="black" stroke-width="3" points="863.34,-386.81 873.22,-383 863.12,-379.81 863.34,-386.81"/>
</g>
<!-- c33&#45;&gt;c32 -->
<g id="edge1" class="edge">
<title>c33:e&#45;&gt;c32:w</title>
<path fill="none" stroke="black" stroke-width="3" d="M970.22,-395C1041.88,-395 941.92,-245.43 996.15,-230.24"/>
<polygon fill="black" stroke="black" stroke-width="3" points="996.73,-233.7 1006.22,-229 995.87,-226.75 996.73,-233.7"/>
</g>
<!-- v5 -->
<g id="node20" class="node">
<title>v5</title>
<ellipse fill="none" stroke="black" cx="921.72" cy="-41" rx="27" ry="18"/>
<text text-anchor="middle" x="921.72" y="-37.3" font-family="Times,serif" font-size="14.00">8</text>
</g>
<!-- c34 -->
<g id="node21" class="node">
<title>c34</title>
<polygon fill="none" stroke="black" points="1006.22,-66 1006.22,-112 1098.22,-112 1098.22,-66 1006.22,-66"/>
<text text-anchor="middle" x="1019.22" y="-96.8" font-family="Times,serif" font-size="14.00">A</text>
<polyline fill="none" stroke="black" points="1006.22,-89 1032.22,-89 "/>
<text text-anchor="middle" x="1019.22" y="-73.8" font-family="Times,serif" font-size="14.00">B</text>
<polyline fill="none" stroke="black" points="1032.22,-66 1032.22,-112 "/>
<text text-anchor="middle" x="1052.22" y="-92.8" font-family="Times,serif" font-size="14.00">$6</text>
<text text-anchor="middle" x="1052.22" y="-77.8" font-family="Times,serif" font-size="14.00">$shr</text>
<polyline fill="none" stroke="black" points="1072.22,-66 1072.22,-112 "/>
<text text-anchor="middle" x="1085.22" y="-85.3" font-family="Times,serif" font-size="14.00">Y</text>
</g>
<!-- v5&#45;&gt;c34 -->
<g id="edge40" class="edge">
<title>v5:e&#45;&gt;c34:w</title>
<path fill="none" stroke="black" stroke-width="3" d="M949.72,-41C975.66,-41 976.69,-68.32 996.21,-75.36"/>
<polygon fill="black" stroke="black" stroke-width="3" points="995.79,-78.84 1006.22,-77 996.92,-71.93 995.79,-78.84"/>
</g>
<!-- c34&#45;&gt;c31 -->
<g id="edge2" class="edge">
<title>c34:e&#45;&gt;c31:w</title>
<path fill="none" stroke="black" stroke-width="3" d="M1098.22,-89C1161.03,-89 1105.69,-208.25 1155.11,-221.76"/>
<polygon fill="black" stroke="black" stroke-width="3" points="1154.84,-225.25 1165.19,-223 1155.69,-218.3 1154.84,-225.25"/>
</g>
<!-- v6 -->
<g id="node22" class="node">
<title>v6</title>
<ellipse fill="none" stroke="black" cx="718.65" cy="-113" rx="90.98" ry="18"/>
<text text-anchor="middle" x="718.65" y="-109.3" font-family="Times,serif" font-size="14.00">16&#39;0000000010000000</text>
</g>
<!-- v6&#45;&gt;c35 -->
<g id="edge41" class="edge">
<title>v6:e&#45;&gt;c35:w</title>
<path fill="none" stroke="black" stroke-width="3" d="M810.65,-113C834.77,-113 843.2,-113 863.15,-113"/>
<polygon fill="black" stroke="black" stroke-width="3" points="863.22,-116.5 873.22,-113 863.22,-109.5 863.22,-116.5"/>
</g>
<!-- c35&#45;&gt;c34 -->
<g id="edge3" class="edge">
<title>c35:e&#45;&gt;c34:w</title>
<path fill="none" stroke="black" stroke-width="3" d="M970.22,-101C982.22,-101 987.47,-101 996.1,-101"/>
<polygon fill="black" stroke="black" stroke-width="3" points="996.22,-104.5 1006.22,-101 996.22,-97.5 996.22,-104.5"/>
</g>
<!-- c36 -->
<g id="node24" class="node">
<title>c36</title>
<polygon fill="none" stroke="black" points="1492.16,-523 1492.16,-569 1621.16,-569 1621.16,-523 1492.16,-523"/>
<text text-anchor="middle" x="1505.16" y="-553.8" font-family="Times,serif" font-size="14.00">A</text>
<polyline fill="none" stroke="black" points="1492.16,-546 1518.16,-546 "/>
<text text-anchor="middle" x="1505.16" y="-530.8" font-family="Times,serif" font-size="14.00">B</text>
<polyline fill="none" stroke="black" points="1518.16,-523 1518.16,-569 "/>
<text text-anchor="middle" x="1556.66" y="-549.8" font-family="Times,serif" font-size="14.00">$4</text>
<text text-anchor="middle" x="1556.66" y="-534.8" font-family="Times,serif" font-size="14.00">$logic_and</text>
<polyline fill="none" stroke="black" points="1595.16,-523 1595.16,-569 "/>
<text text-anchor="middle" x="1608.16" y="-542.3" font-family="Times,serif" font-size="14.00">Y</text>
</g>
<!-- x15 -->
<g id="node36" class="node">
<title>x15</title>
<ellipse fill="black" stroke="black" cx="1658.96" cy="-620" rx="1.8" ry="1.8"/>
</g>
<!-- c36&#45;&gt;x15 -->
<g id="edge4" class="edge">
<title>c36:e&#45;&gt;x15:w</title>
<path fill="none" stroke="black" d="M1621.16,-546C1653.59,-546 1628.05,-604.18 1647.35,-617.37"/>
<polygon fill="black" stroke="black" points="1646.59,-620.79 1657.16,-620 1648.41,-614.03 1646.59,-620.79"/>
</g>
<!-- c37&#45;&gt;c36 -->
<g id="edge5" class="edge">
<title>c37:e&#45;&gt;c36:w</title>
<path fill="none" stroke="black" d="M1456.16,-497C1474.98,-497 1471.71,-521.9 1482.59,-530.85"/>
<polygon fill="black" stroke="black" points="1481.56,-534.19 1492.16,-534 1483.76,-527.54 1481.56,-534.19"/>
</g>
<!-- v7 -->
<g id="node26" class="node">
<title>v7</title>
<ellipse fill="none" stroke="black" cx="718.65" cy="-531" rx="51.99" ry="18"/>
<text text-anchor="middle" x="718.65" y="-527.3" font-family="Times,serif" font-size="14.00">8&#39;11001000</text>
</g>
<!-- v7&#45;&gt;c38 -->
<g id="edge42" class="edge">
<title>v7:e&#45;&gt;c38:w</title>
<path fill="none" stroke="black" stroke-width="3" d="M771.65,-531C815.14,-531 827.65,-543.75 866.3,-545.74"/>
<polygon fill="black" stroke="black" stroke-width="3" points="866.64,-549.25 876.72,-546 866.82,-542.25 866.64,-549.25"/>
</g>
<!-- c38&#45;&gt;c36 -->
<g id="edge6" class="edge">
<title>c38:e&#45;&gt;c36:w</title>
<path fill="none" stroke="black" d="M966.72,-558C1196.83,-558 1256.88,-558 1482.01,-558"/>
<polygon fill="black" stroke="black" points="1482.16,-561.5 1492.16,-558 1482.16,-554.5 1482.16,-561.5"/>
</g>
<!-- v8 -->
<g id="node28" class="node">
<title>v8</title>
<ellipse fill="none" stroke="black" cx="718.65" cy="-239" rx="27" ry="18"/>
<text text-anchor="middle" x="718.65" y="-235.3" font-family="Times,serif" font-size="14.00">0</text>
</g>
<!-- v8&#45;&gt;c39 -->
<g id="edge43" class="edge">
<title>v8:e&#45;&gt;c39:w</title>
<path fill="none" stroke="black" stroke-width="3" d="M746.65,-239C801.69,-239 817.29,-251.36 867.55,-252.85"/>
<polygon fill="black" stroke="black" stroke-width="3" points="867.67,-256.35 877.72,-253 867.78,-249.36 867.67,-256.35"/>
</g>
<!-- x14 -->
<g id="node35" class="node">
<title>x14</title>
<ellipse fill="black" stroke="black" cx="1052.22" cy="-333" rx="1.8" ry="1.8"/>
</g>
<!-- c39&#45;&gt;x14 -->
<g id="edge7" class="edge">
<title>c39:e&#45;&gt;x14:w</title>
<path fill="none" stroke="black" d="M965.72,-265C1009.85,-265 1002.91,-322.79 1039.05,-331.82"/>
<polygon fill="black" stroke="black" points="1038.89,-335.32 1049.22,-333 1039.69,-328.37 1038.89,-335.32"/>
</g>
<!-- p9 -->
<g id="node30" class="node">
<title>p9</title>
<path fill="none" stroke="black" d="M552.08,-312C552.08,-312 386.08,-312 386.08,-312 380.08,-312 374.08,-306 374.08,-300 374.08,-300 374.08,-286 374.08,-286 374.08,-280 380.08,-274 386.08,-274 386.08,-274 552.08,-274 552.08,-274 558.08,-274 564.08,-280 564.08,-286 564.08,-286 564.08,-300 564.08,-300 564.08,-306 558.08,-312 552.08,-312"/>
<text text-anchor="middle" x="469.08" y="-296.8" font-family="Times,serif" font-size="14.00">PROC $15</text>
<text text-anchor="middle" x="469.08" y="-281.8" font-family="Times,serif" font-size="14.00">../../src/lapicque.sv:73.17&#45;73.42</text>
</g>
<!-- p9&#45;&gt;n19 -->
<g id="edge15" class="edge">
<title>p9:e&#45;&gt;n19:w</title>
<path fill="none" stroke="black" stroke-width="3" d="M564.08,-293C580.38,-293 586.84,-293 599.3,-293"/>
<polygon fill="black" stroke="black" stroke-width="3" points="599.65,-296.5 609.65,-293 599.65,-289.5 599.65,-296.5"/>
</g>
<!-- p10 -->
<g id="node31" class="node">
<title>p10</title>
<path fill="none" stroke="black" d="M552.08,-604C552.08,-604 386.08,-604 386.08,-604 380.08,-604 374.08,-598 374.08,-592 374.08,-592 374.08,-578 374.08,-578 374.08,-572 380.08,-566 386.08,-566 386.08,-566 552.08,-566 552.08,-566 558.08,-566 564.08,-572 564.08,-578 564.08,-578 564.08,-592 564.08,-592 564.08,-598 558.08,-604 552.08,-604"/>
<text text-anchor="middle" x="469.08" y="-588.8" font-family="Times,serif" font-size="14.00">PROC $14</text>
<text text-anchor="middle" x="469.08" y="-573.8" font-family="Times,serif" font-size="14.00">../../src/lapicque.sv:72.17&#45;72.42</text>
</g>
<!-- p10&#45;&gt;n20 -->
<g id="edge19" class="edge">
<title>p10:e&#45;&gt;n20:w</title>
<path fill="none" stroke="black" stroke-width="3" d="M564.08,-585C576.08,-585 581.33,-585 589.96,-585"/>
<polygon fill="black" stroke="black" stroke-width="3" points="590.08,-588.5 600.08,-585 590.08,-581.5 590.08,-588.5"/>
</g>
<!-- x12&#45;&gt;p11 -->
<g id="edge44" class="edge">
<title>x12:e&#45;&gt;p11:w</title>
<path fill="none" stroke="black" stroke-width="3" d="M1085.22,-384C1093.46,-384 1089.57,-396.24 1084.22,-402.5 1050.58,-441.92 1021.34,-418.49 970.22,-427 806.81,-454.21 752.21,-405.4 600.08,-471 579.08,-480.06 582.09,-496.2 560.58,-504 483.91,-531.81 436.25,-560.13 377.08,-504 374.4,-501.45 372.25,-497.5 371.4,-493.85"/>
<polygon fill="black" stroke="black" stroke-width="3" points="374.5,-495.48 376.08,-485 368.31,-492.2 374.5,-495.48"/>
</g>
<!-- x13&#45;&gt;p11 -->
<g id="edge45" class="edge">
<title>x13:e&#45;&gt;p11:w</title>
<path fill="none" stroke="black" stroke-width="3" d="M326.58,-485C344.8,-485 351.7,-485 366.03,-485"/>
<polygon fill="black" stroke="black" stroke-width="3" points="366.08,-488.5 376.08,-485 366.08,-481.5 366.08,-488.5"/>
</g>
<!-- p11&#45;&gt;n19 -->
<g id="edge14" class="edge">
<title>p11:e&#45;&gt;n19:w</title>
<path fill="none" stroke="black" stroke-width="3" d="M562.08,-485C646.22,-485 532.36,-309.15 599.48,-294.03"/>
<polygon fill="black" stroke="black" stroke-width="3" points="600.06,-297.49 609.65,-293 599.35,-290.53 600.06,-297.49"/>
</g>
<!-- p11&#45;&gt;n20 -->
<g id="edge20" class="edge">
<title>p11:e&#45;&gt;n20:w</title>
<path fill="none" stroke="black" stroke-width="3" d="M562.08,-485C605.54,-485 561.58,-568.55 590.01,-582.91"/>
<polygon fill="black" stroke="black" stroke-width="3" points="589.58,-586.4 600.08,-585 591,-579.54 589.58,-586.4"/>
</g>
<!-- x14&#45;&gt;n18 -->
<g id="edge11" class="edge">
<title>x14:e&#45;&gt;n18:w</title>
<path fill="none" stroke="black" d="M1055.22,-333C1076.9,-333 1084.67,-339.09 1098.22,-356 1133.06,-399.44 1082.13,-474.51 1124.16,-484"/>
<polygon fill="black" stroke="black" points="1123.93,-487.5 1134.22,-485 1124.62,-480.53 1123.93,-487.5"/>
</g>
<!-- x15&#45;&gt;n21 -->
<g id="edge25" class="edge">
<title>x15:e&#45;&gt;n21:w</title>
<path fill="none" stroke="black" d="M1660.76,-620C1674.03,-620 1677.92,-628.79 1686.8,-632.91"/>
<polygon fill="black" stroke="black" points="1686.25,-636.38 1696.76,-635 1687.69,-629.53 1686.25,-636.38"/>
</g>
<!-- x16&#45;&gt;n17 -->
<g id="edge8" class="edge">
<title>x16:e&#45;&gt;n17:w</title>
<path fill="none" stroke="black" stroke-width="3" d="M1396.16,-185C1406.75,-185 1411.15,-187.69 1391.36,-186.8 1348.03,-184.84 1337.38,-181.66 1294.16,-178 1187.13,-168.94 1160.64,-159 1053.22,-159 468.08,-159 468.08,-159 468.08,-159 339.22,-159 315.9,-238.82 249.08,-349 213.31,-407.99 267.23,-457.24 213.08,-500 204.02,-507.16 13.61,-507.94 5.22,-500 2.85,-497.76 0.92,-494.37 0,-491.14"/>
<polygon fill="black" stroke="black" stroke-width="3" points="3.2,-492.55 4.22,-482 -3.15,-489.61 3.2,-492.55"/>
</g>
</g>
</svg>
