<?xml version="1.0" encoding="utf-8" standalone="no"?>
<!DOCTYPE svg PUBLIC "-//W3C//DTD SVG 1.1//EN"
  "http://www.w3.org/Graphics/SVG/1.1/DTD/svg11.dtd">
<svg xmlns:xlink="http://www.w3.org/1999/xlink" width="443.516875pt" height="200.939844pt" viewBox="0 0 443.516875 200.939844" xmlns="http://www.w3.org/2000/svg" version="1.1">
 <metadata>
  <rdf:RDF xmlns:dc="http://purl.org/dc/elements/1.1/" xmlns:cc="http://creativecommons.org/ns#" xmlns:rdf="http://www.w3.org/1999/02/22-rdf-syntax-ns#">
   <cc:Work>
    <dc:type rdf:resource="http://purl.org/dc/dcmitype/StillImage"/>
    <dc:date>2026-05-29T14:05:58.465686</dc:date>
    <dc:format>image/svg+xml</dc:format>
    <dc:creator>
     <cc:Agent>
      <dc:title>Matplotlib v3.10.8, https://matplotlib.org/</dc:title>
     </cc:Agent>
    </dc:creator>
   </cc:Work>
  </rdf:RDF>
 </metadata>
 <defs>
  <style type="text/css">*{stroke-linejoin: round; stroke-linecap: butt}</style>
 </defs>
 <g id="figure_1">
  <g id="patch_1">
   <path d="M 0 200.939844 
L 443.516875 200.939844 
L 443.516875 0 
L 0 0 
z
" style="fill: #ffffff"/>
  </g>
  <g id="axes_1">
   <g id="patch_2">
    <path d="M 45.716875 131.04 
L 436.316875 131.04 
L 436.316875 7.2 
L 45.716875 7.2 
z
" style="fill: #ffffff"/>
   </g>
   <g id="patch_3">
    <path d="M 63.47142 131.04 
L 80.380511 131.04 
L 80.380511 118.44915 
L 63.47142 118.44915 
z
" clip-path="url(#p31fe43756f)" style="stroke: #000000; stroke-width: 0.5; stroke-linejoin: miter"/>
   </g>
   <g id="patch_4">
    <path d="M 190.289602 131.04 
L 207.198693 131.04 
L 207.198693 118.320672 
L 190.289602 118.320672 
z
" clip-path="url(#p31fe43756f)" style="stroke: #000000; stroke-width: 0.5; stroke-linejoin: miter"/>
   </g>
   <g id="patch_5">
    <path d="M 317.107784 131.04 
L 334.016875 131.04 
L 334.016875 118.44915 
L 317.107784 118.44915 
z
" clip-path="url(#p31fe43756f)" style="stroke: #000000; stroke-width: 0.5; stroke-linejoin: miter"/>
   </g>
   <g id="patch_6">
    <path d="M 63.47142 118.44915 
L 80.380511 118.44915 
L 80.380511 63.58902 
L 63.47142 63.58902 
z
" clip-path="url(#p31fe43756f)" style="fill: #e69f00; stroke: #000000; stroke-width: 0.5; stroke-linejoin: miter"/>
   </g>
   <g id="patch_7">
    <path d="M 190.289602 118.320672 
L 207.198693 118.320672 
L 207.198693 53.439253 
L 190.289602 53.439253 
z
" clip-path="url(#p31fe43756f)" style="fill: #e69f00; stroke: #000000; stroke-width: 0.5; stroke-linejoin: miter"/>
   </g>
   <g id="patch_8">
    <path d="M 317.107784 118.44915 
L 334.016875 118.44915 
L 334.016875 85.044855 
L 317.107784 85.044855 
z
" clip-path="url(#p31fe43756f)" style="fill: #e69f00; stroke: #000000; stroke-width: 0.5; stroke-linejoin: miter"/>
   </g>
   <g id="patch_9">
    <path d="M 80.380511 131.04 
L 97.289602 131.04 
L 97.289602 118.44915 
L 80.380511 118.44915 
z
" clip-path="url(#p31fe43756f)" style="stroke: #000000; stroke-width: 0.5; stroke-linejoin: miter"/>
   </g>
   <g id="patch_10">
    <path d="M 207.198693 131.04 
L 224.107784 131.04 
L 224.107784 118.320672 
L 207.198693 118.320672 
z
" clip-path="url(#p31fe43756f)" style="stroke: #000000; stroke-width: 0.5; stroke-linejoin: miter"/>
   </g>
   <g id="patch_11">
    <path d="M 334.016875 131.04 
L 350.925966 131.04 
L 350.925966 118.44915 
L 334.016875 118.44915 
z
" clip-path="url(#p31fe43756f)" style="stroke: #000000; stroke-width: 0.5; stroke-linejoin: miter"/>
   </g>
   <g id="patch_12">
    <path d="M 80.380511 118.44915 
L 97.289602 118.44915 
L 97.289602 73.353352 
L 80.380511 73.353352 
z
" clip-path="url(#p31fe43756f)" style="fill: #e69f00; stroke: #000000; stroke-width: 0.5; stroke-linejoin: miter"/>
   </g>
   <g id="patch_13">
    <path d="M 207.198693 118.320672 
L 224.107784 118.320672 
L 224.107784 56.008814 
L 207.198693 56.008814 
z
" clip-path="url(#p31fe43756f)" style="fill: #e69f00; stroke: #000000; stroke-width: 0.5; stroke-linejoin: miter"/>
   </g>
   <g id="patch_14">
    <path d="M 334.016875 118.44915 
L 350.925966 118.44915 
L 350.925966 87.228982 
L 334.016875 87.228982 
z
" clip-path="url(#p31fe43756f)" style="fill: #e69f00; stroke: #000000; stroke-width: 0.5; stroke-linejoin: miter"/>
   </g>
   <g id="patch_15">
    <path d="M 97.289602 131.04 
L 114.198693 131.04 
L 114.198693 118.44915 
L 97.289602 118.44915 
z
" clip-path="url(#p31fe43756f)" style="stroke: #000000; stroke-width: 0.5; stroke-linejoin: miter"/>
   </g>
   <g id="patch_16">
    <path d="M 224.107784 131.04 
L 241.016875 131.04 
L 241.016875 118.320672 
L 224.107784 118.320672 
z
" clip-path="url(#p31fe43756f)" style="stroke: #000000; stroke-width: 0.5; stroke-linejoin: miter"/>
   </g>
   <g id="patch_17">
    <path d="M 350.925966 131.04 
L 367.835057 131.04 
L 367.835057 118.44915 
L 350.925966 118.44915 
z
" clip-path="url(#p31fe43756f)" style="stroke: #000000; stroke-width: 0.5; stroke-linejoin: miter"/>
   </g>
   <g id="patch_18">
    <path d="M 97.289602 118.44915 
L 114.198693 118.44915 
L 114.198693 62.432717 
L 97.289602 62.432717 
z
" clip-path="url(#p31fe43756f)" style="fill: #e69f00; stroke: #000000; stroke-width: 0.5; stroke-linejoin: miter"/>
   </g>
   <g id="patch_19">
    <path d="M 224.107784 118.320672 
L 241.016875 118.320672 
L 241.016875 52.668385 
L 224.107784 52.668385 
z
" clip-path="url(#p31fe43756f)" style="fill: #e69f00; stroke: #000000; stroke-width: 0.5; stroke-linejoin: miter"/>
   </g>
   <g id="patch_20">
    <path d="M 350.925966 118.44915 
L 367.835057 118.44915 
L 367.835057 87.742894 
L 350.925966 87.742894 
z
" clip-path="url(#p31fe43756f)" style="fill: #e69f00; stroke: #000000; stroke-width: 0.5; stroke-linejoin: miter"/>
   </g>
   <g id="patch_21">
    <path d="M 114.198693 131.04 
L 131.107784 131.04 
L 131.107784 118.44915 
L 114.198693 118.44915 
z
" clip-path="url(#p31fe43756f)" style="stroke: #000000; stroke-width: 0.5; stroke-linejoin: miter"/>
   </g>
   <g id="patch_22">
    <path d="M 241.016875 131.04 
L 257.925966 131.04 
L 257.925966 118.320672 
L 241.016875 118.320672 
z
" clip-path="url(#p31fe43756f)" style="stroke: #000000; stroke-width: 0.5; stroke-linejoin: miter"/>
   </g>
   <g id="patch_23">
    <path d="M 367.835057 131.04 
L 384.744148 131.04 
L 384.744148 118.44915 
L 367.835057 118.44915 
z
" clip-path="url(#p31fe43756f)" style="stroke: #000000; stroke-width: 0.5; stroke-linejoin: miter"/>
   </g>
   <g id="patch_24">
    <path d="M 114.198693 118.44915 
L 131.107784 118.44915 
L 131.107784 63.974454 
L 114.198693 63.974454 
z
" clip-path="url(#p31fe43756f)" style="fill: #e69f00; stroke: #000000; stroke-width: 0.5; stroke-linejoin: miter"/>
   </g>
   <g id="patch_25">
    <path d="M 241.016875 118.320672 
L 257.925966 118.320672 
L 257.925966 56.522726 
L 241.016875 56.522726 
z
" clip-path="url(#p31fe43756f)" style="fill: #e69f00; stroke: #000000; stroke-width: 0.5; stroke-linejoin: miter"/>
   </g>
   <g id="patch_26">
    <path d="M 367.835057 118.44915 
L 384.744148 118.44915 
L 384.744148 91.597236 
L 367.835057 91.597236 
z
" clip-path="url(#p31fe43756f)" style="fill: #e69f00; stroke: #000000; stroke-width: 0.5; stroke-linejoin: miter"/>
   </g>
   <g id="patch_27">
    <path d="M 131.107784 131.04 
L 148.016875 131.04 
L 148.016875 118.44915 
L 131.107784 118.44915 
z
" clip-path="url(#p31fe43756f)" style="stroke: #000000; stroke-width: 0.5; stroke-linejoin: miter"/>
   </g>
   <g id="patch_28">
    <path d="M 257.925966 131.04 
L 274.835057 131.04 
L 274.835057 118.320672 
L 257.925966 118.320672 
z
" clip-path="url(#p31fe43756f)" style="stroke: #000000; stroke-width: 0.5; stroke-linejoin: miter"/>
   </g>
   <g id="patch_29">
    <path d="M 384.744148 131.04 
L 401.653239 131.04 
L 401.653239 118.44915 
L 384.744148 118.44915 
z
" clip-path="url(#p31fe43756f)" style="stroke: #000000; stroke-width: 0.5; stroke-linejoin: miter"/>
   </g>
   <g id="patch_30">
    <path d="M 131.107784 118.44915 
L 148.016875 118.44915 
L 148.016875 63.974454 
L 131.107784 63.974454 
z
" clip-path="url(#p31fe43756f)" style="fill: #e69f00; stroke: #000000; stroke-width: 0.5; stroke-linejoin: miter"/>
   </g>
   <g id="patch_31">
    <path d="M 257.925966 118.320672 
L 274.835057 118.320672 
L 274.835057 57.807507 
L 257.925966 57.807507 
z
" clip-path="url(#p31fe43756f)" style="fill: #e69f00; stroke: #000000; stroke-width: 0.5; stroke-linejoin: miter"/>
   </g>
   <g id="patch_32">
    <path d="M 384.744148 118.44915 
L 401.653239 118.44915 
L 401.653239 89.927021 
L 384.744148 89.927021 
z
" clip-path="url(#p31fe43756f)" style="fill: #e69f00; stroke: #000000; stroke-width: 0.5; stroke-linejoin: miter"/>
   </g>
   <g id="patch_33">
    <path d="M 148.016875 131.04 
L 164.925966 131.04 
L 164.925966 118.320672 
L 148.016875 118.320672 
z
" clip-path="url(#p31fe43756f)" style="stroke: #000000; stroke-width: 0.5; stroke-linejoin: miter"/>
   </g>
   <g id="patch_34">
    <path d="M 274.835057 131.04 
L 291.744148 131.04 
L 291.744148 118.192194 
L 274.835057 118.192194 
z
" clip-path="url(#p31fe43756f)" style="stroke: #000000; stroke-width: 0.5; stroke-linejoin: miter"/>
   </g>
   <g id="patch_35">
    <path d="M 401.653239 131.04 
L 418.56233 131.04 
L 418.56233 131.04 
L 401.653239 131.04 
z
" clip-path="url(#p31fe43756f)" style="stroke: #000000; stroke-width: 0.5; stroke-linejoin: miter"/>
   </g>
   <g id="patch_36">
    <path d="M 148.016875 118.320672 
L 164.925966 118.320672 
L 164.925966 26.715817 
L 148.016875 26.715817 
z
" clip-path="url(#p31fe43756f)" style="fill: #e69f00; stroke: #000000; stroke-width: 0.5; stroke-linejoin: miter"/>
   </g>
   <g id="patch_37">
    <path d="M 274.835057 118.192194 
L 291.744148 118.192194 
L 291.744148 13.097143 
L 274.835057 13.097143 
z
" clip-path="url(#p31fe43756f)" style="fill: #e69f00; stroke: #000000; stroke-width: 0.5; stroke-linejoin: miter"/>
   </g>
   <g id="patch_38">
    <path d="M 401.653239 131.04 
L 418.56233 131.04 
L 418.56233 131.04 
L 401.653239 131.04 
z
" clip-path="url(#p31fe43756f)" style="fill: #e69f00; stroke: #000000; stroke-width: 0.5; stroke-linejoin: miter"/>
   </g>
   <g id="matplotlib.axis_1">
    <g id="xtick_1">
     <g id="line2d_1">
      <defs>
       <path id="mbdaefd2416" d="M 0 0 
L 0 3.5 
" style="stroke: #000000; stroke-width: 0.8"/>
      </defs>
      <g>
       <use xlink:href="#mbdaefd2416" x="71.925966" y="131.04" style="stroke: #000000; stroke-width: 0.8"/>
      </g>
     </g>
     <g id="text_1">
      <!-- baseline -->
      <g transform="translate(37.639013 169.815209) rotate(-38) scale(0.1 -0.1)">
       <defs>
        <path id="DejaVuSans-62" d="M 3116 1747 
Q 3116 2381 2855 2742 
Q 2594 3103 2138 3103 
Q 1681 3103 1420 2742 
Q 1159 2381 1159 1747 
Q 1159 1113 1420 752 
Q 1681 391 2138 391 
Q 2594 391 2855 752 
Q 3116 1113 3116 1747 
z
M 1159 2969 
Q 1341 3281 1617 3432 
Q 1894 3584 2278 3584 
Q 2916 3584 3314 3078 
Q 3713 2572 3713 1747 
Q 3713 922 3314 415 
Q 2916 -91 2278 -91 
Q 1894 -91 1617 61 
Q 1341 213 1159 525 
L 1159 0 
L 581 0 
L 581 4863 
L 1159 4863 
L 1159 2969 
z
" transform="scale(0.015625)"/>
        <path id="DejaVuSans-61" d="M 2194 1759 
Q 1497 1759 1228 1600 
Q 959 1441 959 1056 
Q 959 750 1161 570 
Q 1363 391 1709 391 
Q 2188 391 2477 730 
Q 2766 1069 2766 1631 
L 2766 1759 
L 2194 1759 
z
M 3341 1997 
L 3341 0 
L 2766 0 
L 2766 531 
Q 2569 213 2275 61 
Q 1981 -91 1556 -91 
Q 1019 -91 701 211 
Q 384 513 384 1019 
Q 384 1609 779 1909 
Q 1175 2209 1959 2209 
L 2766 2209 
L 2766 2266 
Q 2766 2663 2505 2880 
Q 2244 3097 1772 3097 
Q 1472 3097 1187 3025 
Q 903 2953 641 2809 
L 641 3341 
Q 956 3463 1253 3523 
Q 1550 3584 1831 3584 
Q 2591 3584 2966 3190 
Q 3341 2797 3341 1997 
z
" transform="scale(0.015625)"/>
        <path id="DejaVuSans-73" d="M 2834 3397 
L 2834 2853 
Q 2591 2978 2328 3040 
Q 2066 3103 1784 3103 
Q 1356 3103 1142 2972 
Q 928 2841 928 2578 
Q 928 2378 1081 2264 
Q 1234 2150 1697 2047 
L 1894 2003 
Q 2506 1872 2764 1633 
Q 3022 1394 3022 966 
Q 3022 478 2636 193 
Q 2250 -91 1575 -91 
Q 1294 -91 989 -36 
Q 684 19 347 128 
L 347 722 
Q 666 556 975 473 
Q 1284 391 1588 391 
Q 1994 391 2212 530 
Q 2431 669 2431 922 
Q 2431 1156 2273 1281 
Q 2116 1406 1581 1522 
L 1381 1569 
Q 847 1681 609 1914 
Q 372 2147 372 2553 
Q 372 3047 722 3315 
Q 1072 3584 1716 3584 
Q 2034 3584 2315 3537 
Q 2597 3491 2834 3397 
z
" transform="scale(0.015625)"/>
        <path id="DejaVuSans-65" d="M 3597 1894 
L 3597 1613 
L 953 1613 
Q 991 1019 1311 708 
Q 1631 397 2203 397 
Q 2534 397 2845 478 
Q 3156 559 3463 722 
L 3463 178 
Q 3153 47 2828 -22 
Q 2503 -91 2169 -91 
Q 1331 -91 842 396 
Q 353 884 353 1716 
Q 353 2575 817 3079 
Q 1281 3584 2069 3584 
Q 2775 3584 3186 3129 
Q 3597 2675 3597 1894 
z
M 3022 2063 
Q 3016 2534 2758 2815 
Q 2500 3097 2075 3097 
Q 1594 3097 1305 2825 
Q 1016 2553 972 2059 
L 3022 2063 
z
" transform="scale(0.015625)"/>
        <path id="DejaVuSans-6c" d="M 603 4863 
L 1178 4863 
L 1178 0 
L 603 0 
L 603 4863 
z
" transform="scale(0.015625)"/>
        <path id="DejaVuSans-69" d="M 603 3500 
L 1178 3500 
L 1178 0 
L 603 0 
L 603 3500 
z
M 603 4863 
L 1178 4863 
L 1178 4134 
L 603 4134 
L 603 4863 
z
" transform="scale(0.015625)"/>
        <path id="DejaVuSans-6e" d="M 3513 2113 
L 3513 0 
L 2938 0 
L 2938 2094 
Q 2938 2591 2744 2837 
Q 2550 3084 2163 3084 
Q 1697 3084 1428 2787 
Q 1159 2491 1159 1978 
L 1159 0 
L 581 0 
L 581 3500 
L 1159 3500 
L 1159 2956 
Q 1366 3272 1645 3428 
Q 1925 3584 2291 3584 
Q 2894 3584 3203 3211 
Q 3513 2838 3513 2113 
z
" transform="scale(0.015625)"/>
       </defs>
       <use xlink:href="#DejaVuSans-62"/>
       <use xlink:href="#DejaVuSans-61" transform="translate(63.476562 0)"/>
       <use xlink:href="#DejaVuSans-73" transform="translate(124.755859 0)"/>
       <use xlink:href="#DejaVuSans-65" transform="translate(176.855469 0)"/>
       <use xlink:href="#DejaVuSans-6c" transform="translate(238.378906 0)"/>
       <use xlink:href="#DejaVuSans-69" transform="translate(266.162109 0)"/>
       <use xlink:href="#DejaVuSans-6e" transform="translate(293.945312 0)"/>
       <use xlink:href="#DejaVuSans-65" transform="translate(357.324219 0)"/>
      </g>
     </g>
    </g>
    <g id="xtick_2">
     <g id="line2d_2">
      <g>
       <use xlink:href="#mbdaefd2416" x="88.835057" y="131.04" style="stroke: #000000; stroke-width: 0.8"/>
      </g>
     </g>
     <g id="text_2">
      <!-- fc1 batch 8 -->
      <g transform="translate(43.163811 178.709593) rotate(-38) scale(0.1 -0.1)">
       <defs>
        <path id="DejaVuSans-66" d="M 2375 4863 
L 2375 4384 
L 1825 4384 
Q 1516 4384 1395 4259 
Q 1275 4134 1275 3809 
L 1275 3500 
L 2222 3500 
L 2222 3053 
L 1275 3053 
L 1275 0 
L 697 0 
L 697 3053 
L 147 3053 
L 147 3500 
L 697 3500 
L 697 3744 
Q 697 4328 969 4595 
Q 1241 4863 1831 4863 
L 2375 4863 
z
" transform="scale(0.015625)"/>
        <path id="DejaVuSans-63" d="M 3122 3366 
L 3122 2828 
Q 2878 2963 2633 3030 
Q 2388 3097 2138 3097 
Q 1578 3097 1268 2742 
Q 959 2388 959 1747 
Q 959 1106 1268 751 
Q 1578 397 2138 397 
Q 2388 397 2633 464 
Q 2878 531 3122 666 
L 3122 134 
Q 2881 22 2623 -34 
Q 2366 -91 2075 -91 
Q 1284 -91 818 406 
Q 353 903 353 1747 
Q 353 2603 823 3093 
Q 1294 3584 2113 3584 
Q 2378 3584 2631 3529 
Q 2884 3475 3122 3366 
z
" transform="scale(0.015625)"/>
        <path id="DejaVuSans-31" d="M 794 531 
L 1825 531 
L 1825 4091 
L 703 3866 
L 703 4441 
L 1819 4666 
L 2450 4666 
L 2450 531 
L 3481 531 
L 3481 0 
L 794 0 
L 794 531 
z
" transform="scale(0.015625)"/>
        <path id="DejaVuSans-20" transform="scale(0.015625)"/>
        <path id="DejaVuSans-74" d="M 1172 4494 
L 1172 3500 
L 2356 3500 
L 2356 3053 
L 1172 3053 
L 1172 1153 
Q 1172 725 1289 603 
Q 1406 481 1766 481 
L 2356 481 
L 2356 0 
L 1766 0 
Q 1100 0 847 248 
Q 594 497 594 1153 
L 594 3053 
L 172 3053 
L 172 3500 
L 594 3500 
L 594 4494 
L 1172 4494 
z
" transform="scale(0.015625)"/>
        <path id="DejaVuSans-68" d="M 3513 2113 
L 3513 0 
L 2938 0 
L 2938 2094 
Q 2938 2591 2744 2837 
Q 2550 3084 2163 3084 
Q 1697 3084 1428 2787 
Q 1159 2491 1159 1978 
L 1159 0 
L 581 0 
L 581 4863 
L 1159 4863 
L 1159 2956 
Q 1366 3272 1645 3428 
Q 1925 3584 2291 3584 
Q 2894 3584 3203 3211 
Q 3513 2838 3513 2113 
z
" transform="scale(0.015625)"/>
        <path id="DejaVuSans-38" d="M 2034 2216 
Q 1584 2216 1326 1975 
Q 1069 1734 1069 1313 
Q 1069 891 1326 650 
Q 1584 409 2034 409 
Q 2484 409 2743 651 
Q 3003 894 3003 1313 
Q 3003 1734 2745 1975 
Q 2488 2216 2034 2216 
z
M 1403 2484 
Q 997 2584 770 2862 
Q 544 3141 544 3541 
Q 544 4100 942 4425 
Q 1341 4750 2034 4750 
Q 2731 4750 3128 4425 
Q 3525 4100 3525 3541 
Q 3525 3141 3298 2862 
Q 3072 2584 2669 2484 
Q 3125 2378 3379 2068 
Q 3634 1759 3634 1313 
Q 3634 634 3220 271 
Q 2806 -91 2034 -91 
Q 1263 -91 848 271 
Q 434 634 434 1313 
Q 434 1759 690 2068 
Q 947 2378 1403 2484 
z
M 1172 3481 
Q 1172 3119 1398 2916 
Q 1625 2713 2034 2713 
Q 2441 2713 2670 2916 
Q 2900 3119 2900 3481 
Q 2900 3844 2670 4047 
Q 2441 4250 2034 4250 
Q 1625 4250 1398 4047 
Q 1172 3844 1172 3481 
z
" transform="scale(0.015625)"/>
       </defs>
       <use xlink:href="#DejaVuSans-66"/>
       <use xlink:href="#DejaVuSans-63" transform="translate(35.205078 0)"/>
       <use xlink:href="#DejaVuSans-31" transform="translate(90.185547 0)"/>
       <use xlink:href="#DejaVuSans-20" transform="translate(153.808594 0)"/>
       <use xlink:href="#DejaVuSans-62" transform="translate(185.595703 0)"/>
       <use xlink:href="#DejaVuSans-61" transform="translate(249.072266 0)"/>
       <use xlink:href="#DejaVuSans-74" transform="translate(310.351562 0)"/>
       <use xlink:href="#DejaVuSans-63" transform="translate(349.560547 0)"/>
       <use xlink:href="#DejaVuSans-68" transform="translate(404.541016 0)"/>
       <use xlink:href="#DejaVuSans-20" transform="translate(467.919922 0)"/>
       <use xlink:href="#DejaVuSans-38" transform="translate(499.707031 0)"/>
      </g>
     </g>
    </g>
    <g id="xtick_3">
     <g id="line2d_3">
      <g>
       <use xlink:href="#mbdaefd2416" x="105.744148" y="131.04" style="stroke: #000000; stroke-width: 0.8"/>
      </g>
     </g>
     <g id="text_3">
      <!-- fc2 batch 8 -->
      <g transform="translate(60.072902 178.709593) rotate(-38) scale(0.1 -0.1)">
       <defs>
        <path id="DejaVuSans-32" d="M 1228 531 
L 3431 531 
L 3431 0 
L 469 0 
L 469 531 
Q 828 903 1448 1529 
Q 2069 2156 2228 2338 
Q 2531 2678 2651 2914 
Q 2772 3150 2772 3378 
Q 2772 3750 2511 3984 
Q 2250 4219 1831 4219 
Q 1534 4219 1204 4116 
Q 875 4013 500 3803 
L 500 4441 
Q 881 4594 1212 4672 
Q 1544 4750 1819 4750 
Q 2544 4750 2975 4387 
Q 3406 4025 3406 3419 
Q 3406 3131 3298 2873 
Q 3191 2616 2906 2266 
Q 2828 2175 2409 1742 
Q 1991 1309 1228 531 
z
" transform="scale(0.015625)"/>
       </defs>
       <use xlink:href="#DejaVuSans-66"/>
       <use xlink:href="#DejaVuSans-63" transform="translate(35.205078 0)"/>
       <use xlink:href="#DejaVuSans-32" transform="translate(90.185547 0)"/>
       <use xlink:href="#DejaVuSans-20" transform="translate(153.808594 0)"/>
       <use xlink:href="#DejaVuSans-62" transform="translate(185.595703 0)"/>
       <use xlink:href="#DejaVuSans-61" transform="translate(249.072266 0)"/>
       <use xlink:href="#DejaVuSans-74" transform="translate(310.351562 0)"/>
       <use xlink:href="#DejaVuSans-63" transform="translate(349.560547 0)"/>
       <use xlink:href="#DejaVuSans-68" transform="translate(404.541016 0)"/>
       <use xlink:href="#DejaVuSans-20" transform="translate(467.919922 0)"/>
       <use xlink:href="#DejaVuSans-38" transform="translate(499.707031 0)"/>
      </g>
     </g>
    </g>
    <g id="xtick_4">
     <g id="line2d_4">
      <g>
       <use xlink:href="#mbdaefd2416" x="122.653239" y="131.04" style="stroke: #000000; stroke-width: 0.8"/>
      </g>
     </g>
     <g id="text_4">
      <!-- Q batch 1, -->
      <g transform="translate(73.501003 176.043009) rotate(-38) scale(0.1 -0.1)">
       <defs>
        <path id="DejaVuSans-51" d="M 2522 4238 
Q 1834 4238 1429 3725 
Q 1025 3213 1025 2328 
Q 1025 1447 1429 934 
Q 1834 422 2522 422 
Q 3209 422 3611 934 
Q 4013 1447 4013 2328 
Q 4013 3213 3611 3725 
Q 3209 4238 2522 4238 
z
M 3406 84 
L 4238 -825 
L 3475 -825 
L 2784 -78 
Q 2681 -84 2626 -87 
Q 2572 -91 2522 -91 
Q 1538 -91 948 567 
Q 359 1225 359 2328 
Q 359 3434 948 4092 
Q 1538 4750 2522 4750 
Q 3503 4750 4090 4092 
Q 4678 3434 4678 2328 
Q 4678 1516 4351 937 
Q 4025 359 3406 84 
z
" transform="scale(0.015625)"/>
        <path id="DejaVuSans-2c" d="M 750 794 
L 1409 794 
L 1409 256 
L 897 -744 
L 494 -744 
L 750 256 
L 750 794 
z
" transform="scale(0.015625)"/>
       </defs>
       <use xlink:href="#DejaVuSans-51"/>
       <use xlink:href="#DejaVuSans-20" transform="translate(78.710938 0)"/>
       <use xlink:href="#DejaVuSans-62" transform="translate(110.498047 0)"/>
       <use xlink:href="#DejaVuSans-61" transform="translate(173.974609 0)"/>
       <use xlink:href="#DejaVuSans-74" transform="translate(235.253906 0)"/>
       <use xlink:href="#DejaVuSans-63" transform="translate(274.462891 0)"/>
       <use xlink:href="#DejaVuSans-68" transform="translate(329.443359 0)"/>
       <use xlink:href="#DejaVuSans-20" transform="translate(392.822266 0)"/>
       <use xlink:href="#DejaVuSans-31" transform="translate(424.609375 0)"/>
       <use xlink:href="#DejaVuSans-2c" transform="translate(488.232422 0)"/>
      </g>
      <!-- fc2 batch 8 -->
      <g transform="translate(76.981993 187.53359) rotate(-38) scale(0.1 -0.1)">
       <use xlink:href="#DejaVuSans-66"/>
       <use xlink:href="#DejaVuSans-63" transform="translate(35.205078 0)"/>
       <use xlink:href="#DejaVuSans-32" transform="translate(90.185547 0)"/>
       <use xlink:href="#DejaVuSans-20" transform="translate(153.808594 0)"/>
       <use xlink:href="#DejaVuSans-62" transform="translate(185.595703 0)"/>
       <use xlink:href="#DejaVuSans-61" transform="translate(249.072266 0)"/>
       <use xlink:href="#DejaVuSans-74" transform="translate(310.351562 0)"/>
       <use xlink:href="#DejaVuSans-63" transform="translate(349.560547 0)"/>
       <use xlink:href="#DejaVuSans-68" transform="translate(404.541016 0)"/>
       <use xlink:href="#DejaVuSans-20" transform="translate(467.919922 0)"/>
       <use xlink:href="#DejaVuSans-38" transform="translate(499.707031 0)"/>
      </g>
     </g>
    </g>
    <g id="xtick_5">
     <g id="line2d_5">
      <g>
       <use xlink:href="#mbdaefd2416" x="139.56233" y="131.04" style="stroke: #000000; stroke-width: 0.8"/>
      </g>
     </g>
     <g id="text_5">
      <!-- Q batch 1 -->
      <g transform="translate(99.808552 174.08636) rotate(-38) scale(0.1 -0.1)">
       <use xlink:href="#DejaVuSans-51"/>
       <use xlink:href="#DejaVuSans-20" transform="translate(78.710938 0)"/>
       <use xlink:href="#DejaVuSans-62" transform="translate(110.498047 0)"/>
       <use xlink:href="#DejaVuSans-61" transform="translate(173.974609 0)"/>
       <use xlink:href="#DejaVuSans-74" transform="translate(235.253906 0)"/>
       <use xlink:href="#DejaVuSans-63" transform="translate(274.462891 0)"/>
       <use xlink:href="#DejaVuSans-68" transform="translate(329.443359 0)"/>
       <use xlink:href="#DejaVuSans-20" transform="translate(392.822266 0)"/>
       <use xlink:href="#DejaVuSans-31" transform="translate(424.609375 0)"/>
      </g>
     </g>
    </g>
    <g id="xtick_6">
     <g id="line2d_6">
      <g>
       <use xlink:href="#mbdaefd2416" x="156.47142" y="131.04" style="stroke: #000000; stroke-width: 0.8"/>
      </g>
     </g>
     <g id="text_6">
      <!-- One-hot -->
      <g transform="translate(116.503204 168.867667) rotate(-38) scale(0.1 -0.1)">
       <defs>
        <path id="DejaVuSans-4f" d="M 2522 4238 
Q 1834 4238 1429 3725 
Q 1025 3213 1025 2328 
Q 1025 1447 1429 934 
Q 1834 422 2522 422 
Q 3209 422 3611 934 
Q 4013 1447 4013 2328 
Q 4013 3213 3611 3725 
Q 3209 4238 2522 4238 
z
M 2522 4750 
Q 3503 4750 4090 4092 
Q 4678 3434 4678 2328 
Q 4678 1225 4090 567 
Q 3503 -91 2522 -91 
Q 1538 -91 948 565 
Q 359 1222 359 2328 
Q 359 3434 948 4092 
Q 1538 4750 2522 4750 
z
" transform="scale(0.015625)"/>
        <path id="DejaVuSans-2d" d="M 313 2009 
L 1997 2009 
L 1997 1497 
L 313 1497 
L 313 2009 
z
" transform="scale(0.015625)"/>
        <path id="DejaVuSans-6f" d="M 1959 3097 
Q 1497 3097 1228 2736 
Q 959 2375 959 1747 
Q 959 1119 1226 758 
Q 1494 397 1959 397 
Q 2419 397 2687 759 
Q 2956 1122 2956 1747 
Q 2956 2369 2687 2733 
Q 2419 3097 1959 3097 
z
M 1959 3584 
Q 2709 3584 3137 3096 
Q 3566 2609 3566 1747 
Q 3566 888 3137 398 
Q 2709 -91 1959 -91 
Q 1206 -91 779 398 
Q 353 888 353 1747 
Q 353 2609 779 3096 
Q 1206 3584 1959 3584 
z
" transform="scale(0.015625)"/>
       </defs>
       <use xlink:href="#DejaVuSans-4f"/>
       <use xlink:href="#DejaVuSans-6e" transform="translate(78.710938 0)"/>
       <use xlink:href="#DejaVuSans-65" transform="translate(142.089844 0)"/>
       <use xlink:href="#DejaVuSans-2d" transform="translate(203.613281 0)"/>
       <use xlink:href="#DejaVuSans-68" transform="translate(239.697266 0)"/>
       <use xlink:href="#DejaVuSans-6f" transform="translate(303.076172 0)"/>
       <use xlink:href="#DejaVuSans-74" transform="translate(364.257812 0)"/>
      </g>
      <!-- reverse case -->
      <g transform="translate(104.95412 192.101028) rotate(-38) scale(0.1 -0.1)">
       <defs>
        <path id="DejaVuSans-72" d="M 2631 2963 
Q 2534 3019 2420 3045 
Q 2306 3072 2169 3072 
Q 1681 3072 1420 2755 
Q 1159 2438 1159 1844 
L 1159 0 
L 581 0 
L 581 3500 
L 1159 3500 
L 1159 2956 
Q 1341 3275 1631 3429 
Q 1922 3584 2338 3584 
Q 2397 3584 2469 3576 
Q 2541 3569 2628 3553 
L 2631 2963 
z
" transform="scale(0.015625)"/>
        <path id="DejaVuSans-76" d="M 191 3500 
L 800 3500 
L 1894 563 
L 2988 3500 
L 3597 3500 
L 2284 0 
L 1503 0 
L 191 3500 
z
" transform="scale(0.015625)"/>
       </defs>
       <use xlink:href="#DejaVuSans-72"/>
       <use xlink:href="#DejaVuSans-65" transform="translate(38.863281 0)"/>
       <use xlink:href="#DejaVuSans-76" transform="translate(100.386719 0)"/>
       <use xlink:href="#DejaVuSans-65" transform="translate(159.566406 0)"/>
       <use xlink:href="#DejaVuSans-72" transform="translate(221.089844 0)"/>
       <use xlink:href="#DejaVuSans-73" transform="translate(262.203125 0)"/>
       <use xlink:href="#DejaVuSans-65" transform="translate(314.302734 0)"/>
       <use xlink:href="#DejaVuSans-20" transform="translate(375.826172 0)"/>
       <use xlink:href="#DejaVuSans-63" transform="translate(407.613281 0)"/>
       <use xlink:href="#DejaVuSans-61" transform="translate(462.59375 0)"/>
       <use xlink:href="#DejaVuSans-73" transform="translate(523.873047 0)"/>
       <use xlink:href="#DejaVuSans-65" transform="translate(575.972656 0)"/>
      </g>
     </g>
    </g>
    <g id="xtick_7">
     <g id="line2d_7">
      <g>
       <use xlink:href="#mbdaefd2416" x="198.744148" y="131.04" style="stroke: #000000; stroke-width: 0.8"/>
      </g>
     </g>
     <g id="text_7">
      <!-- baseline -->
      <g transform="translate(164.457195 169.815209) rotate(-38) scale(0.1 -0.1)">
       <use xlink:href="#DejaVuSans-62"/>
       <use xlink:href="#DejaVuSans-61" transform="translate(63.476562 0)"/>
       <use xlink:href="#DejaVuSans-73" transform="translate(124.755859 0)"/>
       <use xlink:href="#DejaVuSans-65" transform="translate(176.855469 0)"/>
       <use xlink:href="#DejaVuSans-6c" transform="translate(238.378906 0)"/>
       <use xlink:href="#DejaVuSans-69" transform="translate(266.162109 0)"/>
       <use xlink:href="#DejaVuSans-6e" transform="translate(293.945312 0)"/>
       <use xlink:href="#DejaVuSans-65" transform="translate(357.324219 0)"/>
      </g>
     </g>
    </g>
    <g id="xtick_8">
     <g id="line2d_8">
      <g>
       <use xlink:href="#mbdaefd2416" x="215.653239" y="131.04" style="stroke: #000000; stroke-width: 0.8"/>
      </g>
     </g>
     <g id="text_8">
      <!-- fc1 batch 8 -->
      <g transform="translate(169.981993 178.709593) rotate(-38) scale(0.1 -0.1)">
       <use xlink:href="#DejaVuSans-66"/>
       <use xlink:href="#DejaVuSans-63" transform="translate(35.205078 0)"/>
       <use xlink:href="#DejaVuSans-31" transform="translate(90.185547 0)"/>
       <use xlink:href="#DejaVuSans-20" transform="translate(153.808594 0)"/>
       <use xlink:href="#DejaVuSans-62" transform="translate(185.595703 0)"/>
       <use xlink:href="#DejaVuSans-61" transform="translate(249.072266 0)"/>
       <use xlink:href="#DejaVuSans-74" transform="translate(310.351562 0)"/>
       <use xlink:href="#DejaVuSans-63" transform="translate(349.560547 0)"/>
       <use xlink:href="#DejaVuSans-68" transform="translate(404.541016 0)"/>
       <use xlink:href="#DejaVuSans-20" transform="translate(467.919922 0)"/>
       <use xlink:href="#DejaVuSans-38" transform="translate(499.707031 0)"/>
      </g>
     </g>
    </g>
    <g id="xtick_9">
     <g id="line2d_9">
      <g>
       <use xlink:href="#mbdaefd2416" x="232.56233" y="131.04" style="stroke: #000000; stroke-width: 0.8"/>
      </g>
     </g>
     <g id="text_9">
      <!-- fc2 batch 8 -->
      <g transform="translate(186.891084 178.709593) rotate(-38) scale(0.1 -0.1)">
       <use xlink:href="#DejaVuSans-66"/>
       <use xlink:href="#DejaVuSans-63" transform="translate(35.205078 0)"/>
       <use xlink:href="#DejaVuSans-32" transform="translate(90.185547 0)"/>
       <use xlink:href="#DejaVuSans-20" transform="translate(153.808594 0)"/>
       <use xlink:href="#DejaVuSans-62" transform="translate(185.595703 0)"/>
       <use xlink:href="#DejaVuSans-61" transform="translate(249.072266 0)"/>
       <use xlink:href="#DejaVuSans-74" transform="translate(310.351562 0)"/>
       <use xlink:href="#DejaVuSans-63" transform="translate(349.560547 0)"/>
       <use xlink:href="#DejaVuSans-68" transform="translate(404.541016 0)"/>
       <use xlink:href="#DejaVuSans-20" transform="translate(467.919922 0)"/>
       <use xlink:href="#DejaVuSans-38" transform="translate(499.707031 0)"/>
      </g>
     </g>
    </g>
    <g id="xtick_10">
     <g id="line2d_10">
      <g>
       <use xlink:href="#mbdaefd2416" x="249.47142" y="131.04" style="stroke: #000000; stroke-width: 0.8"/>
      </g>
     </g>
     <g id="text_10">
      <!-- Q batch 1, -->
      <g transform="translate(200.319185 176.043009) rotate(-38) scale(0.1 -0.1)">
       <use xlink:href="#DejaVuSans-51"/>
       <use xlink:href="#DejaVuSans-20" transform="translate(78.710938 0)"/>
       <use xlink:href="#DejaVuSans-62" transform="translate(110.498047 0)"/>
       <use xlink:href="#DejaVuSans-61" transform="translate(173.974609 0)"/>
       <use xlink:href="#DejaVuSans-74" transform="translate(235.253906 0)"/>
       <use xlink:href="#DejaVuSans-63" transform="translate(274.462891 0)"/>
       <use xlink:href="#DejaVuSans-68" transform="translate(329.443359 0)"/>
       <use xlink:href="#DejaVuSans-20" transform="translate(392.822266 0)"/>
       <use xlink:href="#DejaVuSans-31" transform="translate(424.609375 0)"/>
       <use xlink:href="#DejaVuSans-2c" transform="translate(488.232422 0)"/>
      </g>
      <!-- fc2 batch 8 -->
      <g transform="translate(203.800175 187.53359) rotate(-38) scale(0.1 -0.1)">
       <use xlink:href="#DejaVuSans-66"/>
       <use xlink:href="#DejaVuSans-63" transform="translate(35.205078 0)"/>
       <use xlink:href="#DejaVuSans-32" transform="translate(90.185547 0)"/>
       <use xlink:href="#DejaVuSans-20" transform="translate(153.808594 0)"/>
       <use xlink:href="#DejaVuSans-62" transform="translate(185.595703 0)"/>
       <use xlink:href="#DejaVuSans-61" transform="translate(249.072266 0)"/>
       <use xlink:href="#DejaVuSans-74" transform="translate(310.351562 0)"/>
       <use xlink:href="#DejaVuSans-63" transform="translate(349.560547 0)"/>
       <use xlink:href="#DejaVuSans-68" transform="translate(404.541016 0)"/>
       <use xlink:href="#DejaVuSans-20" transform="translate(467.919922 0)"/>
       <use xlink:href="#DejaVuSans-38" transform="translate(499.707031 0)"/>
      </g>
     </g>
    </g>
    <g id="xtick_11">
     <g id="line2d_11">
      <g>
       <use xlink:href="#mbdaefd2416" x="266.380511" y="131.04" style="stroke: #000000; stroke-width: 0.8"/>
      </g>
     </g>
     <g id="text_11">
      <!-- Q batch 1 -->
      <g transform="translate(226.626734 174.08636) rotate(-38) scale(0.1 -0.1)">
       <use xlink:href="#DejaVuSans-51"/>
       <use xlink:href="#DejaVuSans-20" transform="translate(78.710938 0)"/>
       <use xlink:href="#DejaVuSans-62" transform="translate(110.498047 0)"/>
       <use xlink:href="#DejaVuSans-61" transform="translate(173.974609 0)"/>
       <use xlink:href="#DejaVuSans-74" transform="translate(235.253906 0)"/>
       <use xlink:href="#DejaVuSans-63" transform="translate(274.462891 0)"/>
       <use xlink:href="#DejaVuSans-68" transform="translate(329.443359 0)"/>
       <use xlink:href="#DejaVuSans-20" transform="translate(392.822266 0)"/>
       <use xlink:href="#DejaVuSans-31" transform="translate(424.609375 0)"/>
      </g>
     </g>
    </g>
    <g id="xtick_12">
     <g id="line2d_12">
      <g>
       <use xlink:href="#mbdaefd2416" x="283.289602" y="131.04" style="stroke: #000000; stroke-width: 0.8"/>
      </g>
     </g>
     <g id="text_12">
      <!-- One-hot -->
      <g transform="translate(243.321386 168.867667) rotate(-38) scale(0.1 -0.1)">
       <use xlink:href="#DejaVuSans-4f"/>
       <use xlink:href="#DejaVuSans-6e" transform="translate(78.710938 0)"/>
       <use xlink:href="#DejaVuSans-65" transform="translate(142.089844 0)"/>
       <use xlink:href="#DejaVuSans-2d" transform="translate(203.613281 0)"/>
       <use xlink:href="#DejaVuSans-68" transform="translate(239.697266 0)"/>
       <use xlink:href="#DejaVuSans-6f" transform="translate(303.076172 0)"/>
       <use xlink:href="#DejaVuSans-74" transform="translate(364.257812 0)"/>
      </g>
      <!-- reverse case -->
      <g transform="translate(231.772302 192.101028) rotate(-38) scale(0.1 -0.1)">
       <use xlink:href="#DejaVuSans-72"/>
       <use xlink:href="#DejaVuSans-65" transform="translate(38.863281 0)"/>
       <use xlink:href="#DejaVuSans-76" transform="translate(100.386719 0)"/>
       <use xlink:href="#DejaVuSans-65" transform="translate(159.566406 0)"/>
       <use xlink:href="#DejaVuSans-72" transform="translate(221.089844 0)"/>
       <use xlink:href="#DejaVuSans-73" transform="translate(262.203125 0)"/>
       <use xlink:href="#DejaVuSans-65" transform="translate(314.302734 0)"/>
       <use xlink:href="#DejaVuSans-20" transform="translate(375.826172 0)"/>
       <use xlink:href="#DejaVuSans-63" transform="translate(407.613281 0)"/>
       <use xlink:href="#DejaVuSans-61" transform="translate(462.59375 0)"/>
       <use xlink:href="#DejaVuSans-73" transform="translate(523.873047 0)"/>
       <use xlink:href="#DejaVuSans-65" transform="translate(575.972656 0)"/>
      </g>
     </g>
    </g>
    <g id="xtick_13">
     <g id="line2d_13">
      <g>
       <use xlink:href="#mbdaefd2416" x="325.56233" y="131.04" style="stroke: #000000; stroke-width: 0.8"/>
      </g>
     </g>
     <g id="text_13">
      <!-- baseline -->
      <g transform="translate(291.275377 169.815209) rotate(-38) scale(0.1 -0.1)">
       <use xlink:href="#DejaVuSans-62"/>
       <use xlink:href="#DejaVuSans-61" transform="translate(63.476562 0)"/>
       <use xlink:href="#DejaVuSans-73" transform="translate(124.755859 0)"/>
       <use xlink:href="#DejaVuSans-65" transform="translate(176.855469 0)"/>
       <use xlink:href="#DejaVuSans-6c" transform="translate(238.378906 0)"/>
       <use xlink:href="#DejaVuSans-69" transform="translate(266.162109 0)"/>
       <use xlink:href="#DejaVuSans-6e" transform="translate(293.945312 0)"/>
       <use xlink:href="#DejaVuSans-65" transform="translate(357.324219 0)"/>
      </g>
     </g>
    </g>
    <g id="xtick_14">
     <g id="line2d_14">
      <g>
       <use xlink:href="#mbdaefd2416" x="342.47142" y="131.04" style="stroke: #000000; stroke-width: 0.8"/>
      </g>
     </g>
     <g id="text_14">
      <!-- fc1 batch 8 -->
      <g transform="translate(296.800175 178.709593) rotate(-38) scale(0.1 -0.1)">
       <use xlink:href="#DejaVuSans-66"/>
       <use xlink:href="#DejaVuSans-63" transform="translate(35.205078 0)"/>
       <use xlink:href="#DejaVuSans-31" transform="translate(90.185547 0)"/>
       <use xlink:href="#DejaVuSans-20" transform="translate(153.808594 0)"/>
       <use xlink:href="#DejaVuSans-62" transform="translate(185.595703 0)"/>
       <use xlink:href="#DejaVuSans-61" transform="translate(249.072266 0)"/>
       <use xlink:href="#DejaVuSans-74" transform="translate(310.351562 0)"/>
       <use xlink:href="#DejaVuSans-63" transform="translate(349.560547 0)"/>
       <use xlink:href="#DejaVuSans-68" transform="translate(404.541016 0)"/>
       <use xlink:href="#DejaVuSans-20" transform="translate(467.919922 0)"/>
       <use xlink:href="#DejaVuSans-38" transform="translate(499.707031 0)"/>
      </g>
     </g>
    </g>
    <g id="xtick_15">
     <g id="line2d_15">
      <g>
       <use xlink:href="#mbdaefd2416" x="359.380511" y="131.04" style="stroke: #000000; stroke-width: 0.8"/>
      </g>
     </g>
     <g id="text_15">
      <!-- fc2 batch 8 -->
      <g transform="translate(313.709266 178.709593) rotate(-38) scale(0.1 -0.1)">
       <use xlink:href="#DejaVuSans-66"/>
       <use xlink:href="#DejaVuSans-63" transform="translate(35.205078 0)"/>
       <use xlink:href="#DejaVuSans-32" transform="translate(90.185547 0)"/>
       <use xlink:href="#DejaVuSans-20" transform="translate(153.808594 0)"/>
       <use xlink:href="#DejaVuSans-62" transform="translate(185.595703 0)"/>
       <use xlink:href="#DejaVuSans-61" transform="translate(249.072266 0)"/>
       <use xlink:href="#DejaVuSans-74" transform="translate(310.351562 0)"/>
       <use xlink:href="#DejaVuSans-63" transform="translate(349.560547 0)"/>
       <use xlink:href="#DejaVuSans-68" transform="translate(404.541016 0)"/>
       <use xlink:href="#DejaVuSans-20" transform="translate(467.919922 0)"/>
       <use xlink:href="#DejaVuSans-38" transform="translate(499.707031 0)"/>
      </g>
     </g>
    </g>
    <g id="xtick_16">
     <g id="line2d_16">
      <g>
       <use xlink:href="#mbdaefd2416" x="376.289602" y="131.04" style="stroke: #000000; stroke-width: 0.8"/>
      </g>
     </g>
     <g id="text_16">
      <!-- Q batch 1, -->
      <g transform="translate(327.137367 176.043009) rotate(-38) scale(0.1 -0.1)">
       <use xlink:href="#DejaVuSans-51"/>
       <use xlink:href="#DejaVuSans-20" transform="translate(78.710938 0)"/>
       <use xlink:href="#DejaVuSans-62" transform="translate(110.498047 0)"/>
       <use xlink:href="#DejaVuSans-61" transform="translate(173.974609 0)"/>
       <use xlink:href="#DejaVuSans-74" transform="translate(235.253906 0)"/>
       <use xlink:href="#DejaVuSans-63" transform="translate(274.462891 0)"/>
       <use xlink:href="#DejaVuSans-68" transform="translate(329.443359 0)"/>
       <use xlink:href="#DejaVuSans-20" transform="translate(392.822266 0)"/>
       <use xlink:href="#DejaVuSans-31" transform="translate(424.609375 0)"/>
       <use xlink:href="#DejaVuSans-2c" transform="translate(488.232422 0)"/>
      </g>
      <!-- fc2 batch 8 -->
      <g transform="translate(330.618357 187.53359) rotate(-38) scale(0.1 -0.1)">
       <use xlink:href="#DejaVuSans-66"/>
       <use xlink:href="#DejaVuSans-63" transform="translate(35.205078 0)"/>
       <use xlink:href="#DejaVuSans-32" transform="translate(90.185547 0)"/>
       <use xlink:href="#DejaVuSans-20" transform="translate(153.808594 0)"/>
       <use xlink:href="#DejaVuSans-62" transform="translate(185.595703 0)"/>
       <use xlink:href="#DejaVuSans-61" transform="translate(249.072266 0)"/>
       <use xlink:href="#DejaVuSans-74" transform="translate(310.351562 0)"/>
       <use xlink:href="#DejaVuSans-63" transform="translate(349.560547 0)"/>
       <use xlink:href="#DejaVuSans-68" transform="translate(404.541016 0)"/>
       <use xlink:href="#DejaVuSans-20" transform="translate(467.919922 0)"/>
       <use xlink:href="#DejaVuSans-38" transform="translate(499.707031 0)"/>
      </g>
     </g>
    </g>
    <g id="xtick_17">
     <g id="line2d_17">
      <g>
       <use xlink:href="#mbdaefd2416" x="393.198693" y="131.04" style="stroke: #000000; stroke-width: 0.8"/>
      </g>
     </g>
     <g id="text_17">
      <!-- Q batch 1 -->
      <g transform="translate(353.444916 174.08636) rotate(-38) scale(0.1 -0.1)">
       <use xlink:href="#DejaVuSans-51"/>
       <use xlink:href="#DejaVuSans-20" transform="translate(78.710938 0)"/>
       <use xlink:href="#DejaVuSans-62" transform="translate(110.498047 0)"/>
       <use xlink:href="#DejaVuSans-61" transform="translate(173.974609 0)"/>
       <use xlink:href="#DejaVuSans-74" transform="translate(235.253906 0)"/>
       <use xlink:href="#DejaVuSans-63" transform="translate(274.462891 0)"/>
       <use xlink:href="#DejaVuSans-68" transform="translate(329.443359 0)"/>
       <use xlink:href="#DejaVuSans-20" transform="translate(392.822266 0)"/>
       <use xlink:href="#DejaVuSans-31" transform="translate(424.609375 0)"/>
      </g>
     </g>
    </g>
    <g id="xtick_18">
     <g id="line2d_18">
      <g>
       <use xlink:href="#mbdaefd2416" x="410.107784" y="131.04" style="stroke: #000000; stroke-width: 0.8"/>
      </g>
     </g>
     <g id="text_18">
      <!-- One-hot -->
      <g transform="translate(370.139567 168.867667) rotate(-38) scale(0.1 -0.1)">
       <use xlink:href="#DejaVuSans-4f"/>
       <use xlink:href="#DejaVuSans-6e" transform="translate(78.710938 0)"/>
       <use xlink:href="#DejaVuSans-65" transform="translate(142.089844 0)"/>
       <use xlink:href="#DejaVuSans-2d" transform="translate(203.613281 0)"/>
       <use xlink:href="#DejaVuSans-68" transform="translate(239.697266 0)"/>
       <use xlink:href="#DejaVuSans-6f" transform="translate(303.076172 0)"/>
       <use xlink:href="#DejaVuSans-74" transform="translate(364.257812 0)"/>
      </g>
      <!-- reverse case -->
      <g transform="translate(358.590484 192.101028) rotate(-38) scale(0.1 -0.1)">
       <use xlink:href="#DejaVuSans-72"/>
       <use xlink:href="#DejaVuSans-65" transform="translate(38.863281 0)"/>
       <use xlink:href="#DejaVuSans-76" transform="translate(100.386719 0)"/>
       <use xlink:href="#DejaVuSans-65" transform="translate(159.566406 0)"/>
       <use xlink:href="#DejaVuSans-72" transform="translate(221.089844 0)"/>
       <use xlink:href="#DejaVuSans-73" transform="translate(262.203125 0)"/>
       <use xlink:href="#DejaVuSans-65" transform="translate(314.302734 0)"/>
       <use xlink:href="#DejaVuSans-20" transform="translate(375.826172 0)"/>
       <use xlink:href="#DejaVuSans-63" transform="translate(407.613281 0)"/>
       <use xlink:href="#DejaVuSans-61" transform="translate(462.59375 0)"/>
       <use xlink:href="#DejaVuSans-73" transform="translate(523.873047 0)"/>
       <use xlink:href="#DejaVuSans-65" transform="translate(575.972656 0)"/>
      </g>
     </g>
    </g>
   </g>
   <g id="matplotlib.axis_2">
    <g id="ytick_1">
     <g id="line2d_19">
      <defs>
       <path id="mf78dd27fb0" d="M 0 0 
L -3.5 0 
" style="stroke: #000000; stroke-width: 0.8"/>
      </defs>
      <g>
       <use xlink:href="#mf78dd27fb0" x="45.716875" y="131.04" style="stroke: #000000; stroke-width: 0.8"/>
      </g>
     </g>
     <g id="text_19">
      <!-- 0.0 -->
      <g transform="translate(22.81375 134.839219) scale(0.1 -0.1)">
       <defs>
        <path id="DejaVuSans-30" d="M 2034 4250 
Q 1547 4250 1301 3770 
Q 1056 3291 1056 2328 
Q 1056 1369 1301 889 
Q 1547 409 2034 409 
Q 2525 409 2770 889 
Q 3016 1369 3016 2328 
Q 3016 3291 2770 3770 
Q 2525 4250 2034 4250 
z
M 2034 4750 
Q 2819 4750 3233 4129 
Q 3647 3509 3647 2328 
Q 3647 1150 3233 529 
Q 2819 -91 2034 -91 
Q 1250 -91 836 529 
Q 422 1150 422 2328 
Q 422 3509 836 4129 
Q 1250 4750 2034 4750 
z
" transform="scale(0.015625)"/>
        <path id="DejaVuSans-2e" d="M 684 794 
L 1344 794 
L 1344 0 
L 684 0 
L 684 794 
z
" transform="scale(0.015625)"/>
       </defs>
       <use xlink:href="#DejaVuSans-30"/>
       <use xlink:href="#DejaVuSans-2e" transform="translate(63.623047 0)"/>
       <use xlink:href="#DejaVuSans-30" transform="translate(95.410156 0)"/>
      </g>
     </g>
    </g>
    <g id="ytick_2">
     <g id="line2d_20">
      <g>
       <use xlink:href="#mf78dd27fb0" x="45.716875" y="105.344388" style="stroke: #000000; stroke-width: 0.8"/>
      </g>
     </g>
     <g id="text_20">
      <!-- 0.2 -->
      <g transform="translate(22.81375 109.143607) scale(0.1 -0.1)">
       <use xlink:href="#DejaVuSans-30"/>
       <use xlink:href="#DejaVuSans-2e" transform="translate(63.623047 0)"/>
       <use xlink:href="#DejaVuSans-32" transform="translate(95.410156 0)"/>
      </g>
     </g>
    </g>
    <g id="ytick_3">
     <g id="line2d_21">
      <g>
       <use xlink:href="#mf78dd27fb0" x="45.716875" y="79.648777" style="stroke: #000000; stroke-width: 0.8"/>
      </g>
     </g>
     <g id="text_21">
      <!-- 0.4 -->
      <g transform="translate(22.81375 83.447996) scale(0.1 -0.1)">
       <defs>
        <path id="DejaVuSans-34" d="M 2419 4116 
L 825 1625 
L 2419 1625 
L 2419 4116 
z
M 2253 4666 
L 3047 4666 
L 3047 1625 
L 3713 1625 
L 3713 1100 
L 3047 1100 
L 3047 0 
L 2419 0 
L 2419 1100 
L 313 1100 
L 313 1709 
L 2253 4666 
z
" transform="scale(0.015625)"/>
       </defs>
       <use xlink:href="#DejaVuSans-30"/>
       <use xlink:href="#DejaVuSans-2e" transform="translate(63.623047 0)"/>
       <use xlink:href="#DejaVuSans-34" transform="translate(95.410156 0)"/>
      </g>
     </g>
    </g>
    <g id="ytick_4">
     <g id="line2d_22">
      <g>
       <use xlink:href="#mf78dd27fb0" x="45.716875" y="53.953165" style="stroke: #000000; stroke-width: 0.8"/>
      </g>
     </g>
     <g id="text_22">
      <!-- 0.6 -->
      <g transform="translate(22.81375 57.752384) scale(0.1 -0.1)">
       <defs>
        <path id="DejaVuSans-36" d="M 2113 2584 
Q 1688 2584 1439 2293 
Q 1191 2003 1191 1497 
Q 1191 994 1439 701 
Q 1688 409 2113 409 
Q 2538 409 2786 701 
Q 3034 994 3034 1497 
Q 3034 2003 2786 2293 
Q 2538 2584 2113 2584 
z
M 3366 4563 
L 3366 3988 
Q 3128 4100 2886 4159 
Q 2644 4219 2406 4219 
Q 1781 4219 1451 3797 
Q 1122 3375 1075 2522 
Q 1259 2794 1537 2939 
Q 1816 3084 2150 3084 
Q 2853 3084 3261 2657 
Q 3669 2231 3669 1497 
Q 3669 778 3244 343 
Q 2819 -91 2113 -91 
Q 1303 -91 875 529 
Q 447 1150 447 2328 
Q 447 3434 972 4092 
Q 1497 4750 2381 4750 
Q 2619 4750 2861 4703 
Q 3103 4656 3366 4563 
z
" transform="scale(0.015625)"/>
       </defs>
       <use xlink:href="#DejaVuSans-30"/>
       <use xlink:href="#DejaVuSans-2e" transform="translate(63.623047 0)"/>
       <use xlink:href="#DejaVuSans-36" transform="translate(95.410156 0)"/>
      </g>
     </g>
    </g>
    <g id="ytick_5">
     <g id="line2d_23">
      <g>
       <use xlink:href="#mf78dd27fb0" x="45.716875" y="28.257554" style="stroke: #000000; stroke-width: 0.8"/>
      </g>
     </g>
     <g id="text_23">
      <!-- 0.8 -->
      <g transform="translate(22.81375 32.056772) scale(0.1 -0.1)">
       <use xlink:href="#DejaVuSans-30"/>
       <use xlink:href="#DejaVuSans-2e" transform="translate(63.623047 0)"/>
       <use xlink:href="#DejaVuSans-38" transform="translate(95.410156 0)"/>
      </g>
     </g>
    </g>
    <g id="text_24">
     <!-- On-chip power (W) -->
     <g transform="translate(16.318125 125.361563) rotate(-90) scale(0.12 -0.12)">
      <defs>
       <path id="DejaVuSans-70" d="M 1159 525 
L 1159 -1331 
L 581 -1331 
L 581 3500 
L 1159 3500 
L 1159 2969 
Q 1341 3281 1617 3432 
Q 1894 3584 2278 3584 
Q 2916 3584 3314 3078 
Q 3713 2572 3713 1747 
Q 3713 922 3314 415 
Q 2916 -91 2278 -91 
Q 1894 -91 1617 61 
Q 1341 213 1159 525 
z
M 3116 1747 
Q 3116 2381 2855 2742 
Q 2594 3103 2138 3103 
Q 1681 3103 1420 2742 
Q 1159 2381 1159 1747 
Q 1159 1113 1420 752 
Q 1681 391 2138 391 
Q 2594 391 2855 752 
Q 3116 1113 3116 1747 
z
" transform="scale(0.015625)"/>
       <path id="DejaVuSans-77" d="M 269 3500 
L 844 3500 
L 1563 769 
L 2278 3500 
L 2956 3500 
L 3675 769 
L 4391 3500 
L 4966 3500 
L 4050 0 
L 3372 0 
L 2619 2869 
L 1863 0 
L 1184 0 
L 269 3500 
z
" transform="scale(0.015625)"/>
       <path id="DejaVuSans-28" d="M 1984 4856 
Q 1566 4138 1362 3434 
Q 1159 2731 1159 2009 
Q 1159 1288 1364 580 
Q 1569 -128 1984 -844 
L 1484 -844 
Q 1016 -109 783 600 
Q 550 1309 550 2009 
Q 550 2706 781 3412 
Q 1013 4119 1484 4856 
L 1984 4856 
z
" transform="scale(0.015625)"/>
       <path id="DejaVuSans-57" d="M 213 4666 
L 850 4666 
L 1831 722 
L 2809 4666 
L 3519 4666 
L 4500 722 
L 5478 4666 
L 6119 4666 
L 4947 0 
L 4153 0 
L 3169 4050 
L 2175 0 
L 1381 0 
L 213 4666 
z
" transform="scale(0.015625)"/>
       <path id="DejaVuSans-29" d="M 513 4856 
L 1013 4856 
Q 1481 4119 1714 3412 
Q 1947 2706 1947 2009 
Q 1947 1309 1714 600 
Q 1481 -109 1013 -844 
L 513 -844 
Q 928 -128 1133 580 
Q 1338 1288 1338 2009 
Q 1338 2731 1133 3434 
Q 928 4138 513 4856 
z
" transform="scale(0.015625)"/>
      </defs>
      <use xlink:href="#DejaVuSans-4f"/>
      <use xlink:href="#DejaVuSans-6e" transform="translate(78.710938 0)"/>
      <use xlink:href="#DejaVuSans-2d" transform="translate(142.089844 0)"/>
      <use xlink:href="#DejaVuSans-63" transform="translate(178.173828 0)"/>
      <use xlink:href="#DejaVuSans-68" transform="translate(233.154297 0)"/>
      <use xlink:href="#DejaVuSans-69" transform="translate(296.533203 0)"/>
      <use xlink:href="#DejaVuSans-70" transform="translate(324.316406 0)"/>
      <use xlink:href="#DejaVuSans-20" transform="translate(387.792969 0)"/>
      <use xlink:href="#DejaVuSans-70" transform="translate(419.580078 0)"/>
      <use xlink:href="#DejaVuSans-6f" transform="translate(483.056641 0)"/>
      <use xlink:href="#DejaVuSans-77" transform="translate(544.238281 0)"/>
      <use xlink:href="#DejaVuSans-65" transform="translate(626.025391 0)"/>
      <use xlink:href="#DejaVuSans-72" transform="translate(687.548828 0)"/>
      <use xlink:href="#DejaVuSans-20" transform="translate(728.662109 0)"/>
      <use xlink:href="#DejaVuSans-28" transform="translate(760.449219 0)"/>
      <use xlink:href="#DejaVuSans-57" transform="translate(799.462891 0)"/>
      <use xlink:href="#DejaVuSans-29" transform="translate(898.339844 0)"/>
     </g>
    </g>
   </g>
   <g id="patch_39">
    <path d="M 45.716875 131.04 
L 45.716875 7.2 
" style="fill: none; stroke: #000000; stroke-width: 0.8; stroke-linejoin: miter; stroke-linecap: square"/>
   </g>
   <g id="patch_40">
    <path d="M 436.316875 131.04 
L 436.316875 7.2 
" style="fill: none; stroke: #000000; stroke-width: 0.8; stroke-linejoin: miter; stroke-linecap: square"/>
   </g>
   <g id="patch_41">
    <path d="M 45.716875 131.04 
L 436.316875 131.04 
" style="fill: none; stroke: #000000; stroke-width: 0.8; stroke-linejoin: miter; stroke-linecap: square"/>
   </g>
   <g id="patch_42">
    <path d="M 45.716875 7.2 
L 436.316875 7.2 
" style="fill: none; stroke: #000000; stroke-width: 0.8; stroke-linejoin: miter; stroke-linecap: square"/>
   </g>
   <g id="text_25">
    <!-- Frac 32-8-8 -->
    <g transform="translate(82.491662 188.174437) scale(0.1 -0.1)">
     <defs>
      <path id="DejaVuSans-Bold-46" d="M 588 4666 
L 3834 4666 
L 3834 3756 
L 1791 3756 
L 1791 2888 
L 3713 2888 
L 3713 1978 
L 1791 1978 
L 1791 0 
L 588 0 
L 588 4666 
z
" transform="scale(0.015625)"/>
      <path id="DejaVuSans-Bold-72" d="M 3138 2547 
Q 2991 2616 2845 2648 
Q 2700 2681 2553 2681 
Q 2122 2681 1889 2404 
Q 1656 2128 1656 1613 
L 1656 0 
L 538 0 
L 538 3500 
L 1656 3500 
L 1656 2925 
Q 1872 3269 2151 3426 
Q 2431 3584 2822 3584 
Q 2878 3584 2943 3579 
Q 3009 3575 3134 3559 
L 3138 2547 
z
" transform="scale(0.015625)"/>
      <path id="DejaVuSans-Bold-61" d="M 2106 1575 
Q 1756 1575 1579 1456 
Q 1403 1338 1403 1106 
Q 1403 894 1545 773 
Q 1688 653 1941 653 
Q 2256 653 2472 879 
Q 2688 1106 2688 1447 
L 2688 1575 
L 2106 1575 
z
M 3816 1997 
L 3816 0 
L 2688 0 
L 2688 519 
Q 2463 200 2181 54 
Q 1900 -91 1497 -91 
Q 953 -91 614 226 
Q 275 544 275 1050 
Q 275 1666 698 1953 
Q 1122 2241 2028 2241 
L 2688 2241 
L 2688 2328 
Q 2688 2594 2478 2717 
Q 2269 2841 1825 2841 
Q 1466 2841 1156 2769 
Q 847 2697 581 2553 
L 581 3406 
Q 941 3494 1303 3539 
Q 1666 3584 2028 3584 
Q 2975 3584 3395 3211 
Q 3816 2838 3816 1997 
z
" transform="scale(0.015625)"/>
      <path id="DejaVuSans-Bold-63" d="M 3366 3391 
L 3366 2478 
Q 3138 2634 2908 2709 
Q 2678 2784 2431 2784 
Q 1963 2784 1702 2511 
Q 1441 2238 1441 1747 
Q 1441 1256 1702 982 
Q 1963 709 2431 709 
Q 2694 709 2930 787 
Q 3166 866 3366 1019 
L 3366 103 
Q 3103 6 2833 -42 
Q 2563 -91 2291 -91 
Q 1344 -91 809 395 
Q 275 881 275 1747 
Q 275 2613 809 3098 
Q 1344 3584 2291 3584 
Q 2566 3584 2833 3536 
Q 3100 3488 3366 3391 
z
" transform="scale(0.015625)"/>
      <path id="DejaVuSans-Bold-20" transform="scale(0.015625)"/>
      <path id="DejaVuSans-Bold-33" d="M 2981 2516 
Q 3453 2394 3698 2092 
Q 3944 1791 3944 1325 
Q 3944 631 3412 270 
Q 2881 -91 1863 -91 
Q 1503 -91 1142 -33 
Q 781 25 428 141 
L 428 1069 
Q 766 900 1098 814 
Q 1431 728 1753 728 
Q 2231 728 2486 893 
Q 2741 1059 2741 1369 
Q 2741 1688 2480 1852 
Q 2219 2016 1709 2016 
L 1228 2016 
L 1228 2791 
L 1734 2791 
Q 2188 2791 2409 2933 
Q 2631 3075 2631 3366 
Q 2631 3634 2415 3781 
Q 2200 3928 1806 3928 
Q 1516 3928 1219 3862 
Q 922 3797 628 3669 
L 628 4550 
Q 984 4650 1334 4700 
Q 1684 4750 2022 4750 
Q 2931 4750 3382 4451 
Q 3834 4153 3834 3553 
Q 3834 3144 3618 2883 
Q 3403 2622 2981 2516 
z
" transform="scale(0.015625)"/>
      <path id="DejaVuSans-Bold-32" d="M 1844 884 
L 3897 884 
L 3897 0 
L 506 0 
L 506 884 
L 2209 2388 
Q 2438 2594 2547 2791 
Q 2656 2988 2656 3200 
Q 2656 3528 2436 3728 
Q 2216 3928 1850 3928 
Q 1569 3928 1234 3808 
Q 900 3688 519 3450 
L 519 4475 
Q 925 4609 1322 4679 
Q 1719 4750 2100 4750 
Q 2938 4750 3402 4381 
Q 3866 4013 3866 3353 
Q 3866 2972 3669 2642 
Q 3472 2313 2841 1759 
L 1844 884 
z
" transform="scale(0.015625)"/>
      <path id="DejaVuSans-Bold-2d" d="M 347 2297 
L 2309 2297 
L 2309 1388 
L 347 1388 
L 347 2297 
z
" transform="scale(0.015625)"/>
      <path id="DejaVuSans-Bold-38" d="M 2228 2088 
Q 1891 2088 1709 1903 
Q 1528 1719 1528 1375 
Q 1528 1031 1709 848 
Q 1891 666 2228 666 
Q 2563 666 2741 848 
Q 2919 1031 2919 1375 
Q 2919 1722 2741 1905 
Q 2563 2088 2228 2088 
z
M 1350 2484 
Q 925 2613 709 2878 
Q 494 3144 494 3541 
Q 494 4131 934 4440 
Q 1375 4750 2228 4750 
Q 3075 4750 3515 4442 
Q 3956 4134 3956 3541 
Q 3956 3144 3739 2878 
Q 3522 2613 3097 2484 
Q 3572 2353 3814 2058 
Q 4056 1763 4056 1313 
Q 4056 619 3595 264 
Q 3134 -91 2228 -91 
Q 1319 -91 855 264 
Q 391 619 391 1313 
Q 391 1763 633 2058 
Q 875 2353 1350 2484 
z
M 1631 3419 
Q 1631 3141 1786 2991 
Q 1941 2841 2228 2841 
Q 2509 2841 2662 2991 
Q 2816 3141 2816 3419 
Q 2816 3697 2662 3845 
Q 2509 3994 2228 3994 
Q 1941 3994 1786 3844 
Q 1631 3694 1631 3419 
z
" transform="scale(0.015625)"/>
     </defs>
     <use xlink:href="#DejaVuSans-Bold-46"/>
     <use xlink:href="#DejaVuSans-Bold-72" transform="translate(61.935547 0)"/>
     <use xlink:href="#DejaVuSans-Bold-61" transform="translate(111.251953 0)"/>
     <use xlink:href="#DejaVuSans-Bold-63" transform="translate(178.732422 0)"/>
     <use xlink:href="#DejaVuSans-Bold-20" transform="translate(238.009766 0)"/>
     <use xlink:href="#DejaVuSans-Bold-33" transform="translate(272.824219 0)"/>
     <use xlink:href="#DejaVuSans-Bold-32" transform="translate(342.404297 0)"/>
     <use xlink:href="#DejaVuSans-Bold-2d" transform="translate(411.984375 0)"/>
     <use xlink:href="#DejaVuSans-Bold-38" transform="translate(453.488281 0)"/>
     <use xlink:href="#DejaVuSans-Bold-2d" transform="translate(523.068359 0)"/>
     <use xlink:href="#DejaVuSans-Bold-38" transform="translate(564.572266 0)"/>
    </g>
   </g>
   <g id="text_26">
    <!-- Bitshift 64-32-4 -->
    <g transform="translate(197.002813 188.174437) scale(0.1 -0.1)">
     <defs>
      <path id="DejaVuSans-Bold-42" d="M 2456 2859 
Q 2741 2859 2887 2984 
Q 3034 3109 3034 3353 
Q 3034 3594 2887 3720 
Q 2741 3847 2456 3847 
L 1791 3847 
L 1791 2859 
L 2456 2859 
z
M 2497 819 
Q 2859 819 3042 972 
Q 3225 1125 3225 1434 
Q 3225 1738 3044 1889 
Q 2863 2041 2497 2041 
L 1791 2041 
L 1791 819 
L 2497 819 
z
M 3616 2497 
Q 4003 2384 4215 2081 
Q 4428 1778 4428 1338 
Q 4428 663 3972 331 
Q 3516 0 2584 0 
L 588 0 
L 588 4666 
L 2394 4666 
Q 3366 4666 3802 4372 
Q 4238 4078 4238 3431 
Q 4238 3091 4078 2852 
Q 3919 2613 3616 2497 
z
" transform="scale(0.015625)"/>
      <path id="DejaVuSans-Bold-69" d="M 538 3500 
L 1656 3500 
L 1656 0 
L 538 0 
L 538 3500 
z
M 538 4863 
L 1656 4863 
L 1656 3950 
L 538 3950 
L 538 4863 
z
" transform="scale(0.015625)"/>
      <path id="DejaVuSans-Bold-74" d="M 1759 4494 
L 1759 3500 
L 2913 3500 
L 2913 2700 
L 1759 2700 
L 1759 1216 
Q 1759 972 1856 886 
Q 1953 800 2241 800 
L 2816 800 
L 2816 0 
L 1856 0 
Q 1194 0 917 276 
Q 641 553 641 1216 
L 641 2700 
L 84 2700 
L 84 3500 
L 641 3500 
L 641 4494 
L 1759 4494 
z
" transform="scale(0.015625)"/>
      <path id="DejaVuSans-Bold-73" d="M 3272 3391 
L 3272 2541 
Q 2913 2691 2578 2766 
Q 2244 2841 1947 2841 
Q 1628 2841 1473 2761 
Q 1319 2681 1319 2516 
Q 1319 2381 1436 2309 
Q 1553 2238 1856 2203 
L 2053 2175 
Q 2913 2066 3209 1816 
Q 3506 1566 3506 1031 
Q 3506 472 3093 190 
Q 2681 -91 1863 -91 
Q 1516 -91 1145 -36 
Q 775 19 384 128 
L 384 978 
Q 719 816 1070 734 
Q 1422 653 1784 653 
Q 2113 653 2278 743 
Q 2444 834 2444 1013 
Q 2444 1163 2330 1236 
Q 2216 1309 1875 1350 
L 1678 1375 
Q 931 1469 631 1722 
Q 331 1975 331 2491 
Q 331 3047 712 3315 
Q 1094 3584 1881 3584 
Q 2191 3584 2531 3537 
Q 2872 3491 3272 3391 
z
" transform="scale(0.015625)"/>
      <path id="DejaVuSans-Bold-68" d="M 4056 2131 
L 4056 0 
L 2931 0 
L 2931 347 
L 2931 1625 
Q 2931 2084 2911 2256 
Q 2891 2428 2841 2509 
Q 2775 2619 2662 2680 
Q 2550 2741 2406 2741 
Q 2056 2741 1856 2470 
Q 1656 2200 1656 1722 
L 1656 0 
L 538 0 
L 538 4863 
L 1656 4863 
L 1656 2988 
Q 1909 3294 2193 3439 
Q 2478 3584 2822 3584 
Q 3428 3584 3742 3212 
Q 4056 2841 4056 2131 
z
" transform="scale(0.015625)"/>
      <path id="DejaVuSans-Bold-66" d="M 2841 4863 
L 2841 4128 
L 2222 4128 
Q 1984 4128 1890 4042 
Q 1797 3956 1797 3744 
L 1797 3500 
L 2753 3500 
L 2753 2700 
L 1797 2700 
L 1797 0 
L 678 0 
L 678 2700 
L 122 2700 
L 122 3500 
L 678 3500 
L 678 3744 
Q 678 4316 997 4589 
Q 1316 4863 1984 4863 
L 2841 4863 
z
" transform="scale(0.015625)"/>
      <path id="DejaVuSans-Bold-36" d="M 2316 2303 
Q 2000 2303 1842 2098 
Q 1684 1894 1684 1484 
Q 1684 1075 1842 870 
Q 2000 666 2316 666 
Q 2634 666 2792 870 
Q 2950 1075 2950 1484 
Q 2950 1894 2792 2098 
Q 2634 2303 2316 2303 
z
M 3803 4544 
L 3803 3681 
Q 3506 3822 3243 3889 
Q 2981 3956 2731 3956 
Q 2194 3956 1894 3657 
Q 1594 3359 1544 2772 
Q 1750 2925 1990 3001 
Q 2231 3078 2516 3078 
Q 3231 3078 3670 2659 
Q 4109 2241 4109 1563 
Q 4109 813 3618 361 
Q 3128 -91 2303 -91 
Q 1394 -91 895 523 
Q 397 1138 397 2266 
Q 397 3422 980 4083 
Q 1563 4744 2578 4744 
Q 2900 4744 3203 4694 
Q 3506 4644 3803 4544 
z
" transform="scale(0.015625)"/>
      <path id="DejaVuSans-Bold-34" d="M 2356 3675 
L 1038 1722 
L 2356 1722 
L 2356 3675 
z
M 2156 4666 
L 3494 4666 
L 3494 1722 
L 4159 1722 
L 4159 850 
L 3494 850 
L 3494 0 
L 2356 0 
L 2356 850 
L 288 850 
L 288 1881 
L 2156 4666 
z
" transform="scale(0.015625)"/>
     </defs>
     <use xlink:href="#DejaVuSans-Bold-42"/>
     <use xlink:href="#DejaVuSans-Bold-69" transform="translate(76.220703 0)"/>
     <use xlink:href="#DejaVuSans-Bold-74" transform="translate(110.498047 0)"/>
     <use xlink:href="#DejaVuSans-Bold-73" transform="translate(158.300781 0)"/>
     <use xlink:href="#DejaVuSans-Bold-68" transform="translate(217.822266 0)"/>
     <use xlink:href="#DejaVuSans-Bold-69" transform="translate(289.013672 0)"/>
     <use xlink:href="#DejaVuSans-Bold-66" transform="translate(323.291016 0)"/>
     <use xlink:href="#DejaVuSans-Bold-74" transform="translate(366.796875 0)"/>
     <use xlink:href="#DejaVuSans-Bold-20" transform="translate(414.599609 0)"/>
     <use xlink:href="#DejaVuSans-Bold-36" transform="translate(449.414062 0)"/>
     <use xlink:href="#DejaVuSans-Bold-34" transform="translate(518.994141 0)"/>
     <use xlink:href="#DejaVuSans-Bold-2d" transform="translate(588.574219 0)"/>
     <use xlink:href="#DejaVuSans-Bold-33" transform="translate(630.078125 0)"/>
     <use xlink:href="#DejaVuSans-Bold-32" transform="translate(699.658203 0)"/>
     <use xlink:href="#DejaVuSans-Bold-2d" transform="translate(769.238281 0)"/>
     <use xlink:href="#DejaVuSans-Bold-34" transform="translate(810.742188 0)"/>
    </g>
   </g>
   <g id="text_27">
    <!-- LIF 32-32 -->
    <g transform="translate(341.642088 188.174437) scale(0.1 -0.1)">
     <defs>
      <path id="DejaVuSans-Bold-4c" d="M 588 4666 
L 1791 4666 
L 1791 909 
L 3903 909 
L 3903 0 
L 588 0 
L 588 4666 
z
" transform="scale(0.015625)"/>
      <path id="DejaVuSans-Bold-49" d="M 588 4666 
L 1791 4666 
L 1791 0 
L 588 0 
L 588 4666 
z
" transform="scale(0.015625)"/>
     </defs>
     <use xlink:href="#DejaVuSans-Bold-4c"/>
     <use xlink:href="#DejaVuSans-Bold-49" transform="translate(63.720703 0)"/>
     <use xlink:href="#DejaVuSans-Bold-46" transform="translate(100.927734 0)"/>
     <use xlink:href="#DejaVuSans-Bold-20" transform="translate(169.238281 0)"/>
     <use xlink:href="#DejaVuSans-Bold-33" transform="translate(204.052734 0)"/>
     <use xlink:href="#DejaVuSans-Bold-32" transform="translate(273.632812 0)"/>
     <use xlink:href="#DejaVuSans-Bold-2d" transform="translate(343.212891 0)"/>
     <use xlink:href="#DejaVuSans-Bold-33" transform="translate(384.716797 0)"/>
     <use xlink:href="#DejaVuSans-Bold-32" transform="translate(454.296875 0)"/>
    </g>
   </g>
   <g id="legend_1">
    <g id="patch_43">
     <path d="M 369.835625 37.085 
L 430.716875 37.085 
Q 432.316875 37.085 432.316875 35.485 
L 432.316875 12.8 
Q 432.316875 11.2 430.716875 11.2 
L 369.835625 11.2 
Q 368.235625 11.2 368.235625 12.8 
L 368.235625 35.485 
Q 368.235625 37.085 369.835625 37.085 
z
" style="fill: #ffffff; opacity: 0.8; stroke: #cccccc; stroke-linejoin: miter"/>
    </g>
    <g id="patch_44">
     <path d="M 371.435625 20.47875 
L 387.435625 20.47875 
L 387.435625 14.87875 
L 371.435625 14.87875 
z
" style="stroke: #000000; stroke-width: 0.5; stroke-linejoin: miter"/>
    </g>
    <g id="text_28">
     <!-- Static -->
     <g transform="translate(393.835625 20.47875) scale(0.08 -0.08)">
      <defs>
       <path id="DejaVuSans-53" d="M 3425 4513 
L 3425 3897 
Q 3066 4069 2747 4153 
Q 2428 4238 2131 4238 
Q 1616 4238 1336 4038 
Q 1056 3838 1056 3469 
Q 1056 3159 1242 3001 
Q 1428 2844 1947 2747 
L 2328 2669 
Q 3034 2534 3370 2195 
Q 3706 1856 3706 1288 
Q 3706 609 3251 259 
Q 2797 -91 1919 -91 
Q 1588 -91 1214 -16 
Q 841 59 441 206 
L 441 856 
Q 825 641 1194 531 
Q 1563 422 1919 422 
Q 2459 422 2753 634 
Q 3047 847 3047 1241 
Q 3047 1584 2836 1778 
Q 2625 1972 2144 2069 
L 1759 2144 
Q 1053 2284 737 2584 
Q 422 2884 422 3419 
Q 422 4038 858 4394 
Q 1294 4750 2059 4750 
Q 2388 4750 2728 4690 
Q 3069 4631 3425 4513 
z
" transform="scale(0.015625)"/>
      </defs>
      <use xlink:href="#DejaVuSans-53"/>
      <use xlink:href="#DejaVuSans-74" transform="translate(63.476562 0)"/>
      <use xlink:href="#DejaVuSans-61" transform="translate(102.685547 0)"/>
      <use xlink:href="#DejaVuSans-74" transform="translate(163.964844 0)"/>
      <use xlink:href="#DejaVuSans-69" transform="translate(203.173828 0)"/>
      <use xlink:href="#DejaVuSans-63" transform="translate(230.957031 0)"/>
     </g>
    </g>
    <g id="patch_45">
     <path d="M 371.435625 32.22125 
L 387.435625 32.22125 
L 387.435625 26.62125 
L 371.435625 26.62125 
z
" style="fill: #e69f00; stroke: #000000; stroke-width: 0.5; stroke-linejoin: miter"/>
    </g>
    <g id="text_29">
     <!-- Dynamic -->
     <g transform="translate(393.835625 32.22125) scale(0.08 -0.08)">
      <defs>
       <path id="DejaVuSans-44" d="M 1259 4147 
L 1259 519 
L 2022 519 
Q 2988 519 3436 956 
Q 3884 1394 3884 2338 
Q 3884 3275 3436 3711 
Q 2988 4147 2022 4147 
L 1259 4147 
z
M 628 4666 
L 1925 4666 
Q 3281 4666 3915 4102 
Q 4550 3538 4550 2338 
Q 4550 1131 3912 565 
Q 3275 0 1925 0 
L 628 0 
L 628 4666 
z
" transform="scale(0.015625)"/>
       <path id="DejaVuSans-79" d="M 2059 -325 
Q 1816 -950 1584 -1140 
Q 1353 -1331 966 -1331 
L 506 -1331 
L 506 -850 
L 844 -850 
Q 1081 -850 1212 -737 
Q 1344 -625 1503 -206 
L 1606 56 
L 191 3500 
L 800 3500 
L 1894 763 
L 2988 3500 
L 3597 3500 
L 2059 -325 
z
" transform="scale(0.015625)"/>
       <path id="DejaVuSans-6d" d="M 3328 2828 
Q 3544 3216 3844 3400 
Q 4144 3584 4550 3584 
Q 5097 3584 5394 3201 
Q 5691 2819 5691 2113 
L 5691 0 
L 5113 0 
L 5113 2094 
Q 5113 2597 4934 2840 
Q 4756 3084 4391 3084 
Q 3944 3084 3684 2787 
Q 3425 2491 3425 1978 
L 3425 0 
L 2847 0 
L 2847 2094 
Q 2847 2600 2669 2842 
Q 2491 3084 2119 3084 
Q 1678 3084 1418 2786 
Q 1159 2488 1159 1978 
L 1159 0 
L 581 0 
L 581 3500 
L 1159 3500 
L 1159 2956 
Q 1356 3278 1631 3431 
Q 1906 3584 2284 3584 
Q 2666 3584 2933 3390 
Q 3200 3197 3328 2828 
z
" transform="scale(0.015625)"/>
      </defs>
      <use xlink:href="#DejaVuSans-44"/>
      <use xlink:href="#DejaVuSans-79" transform="translate(77.001953 0)"/>
      <use xlink:href="#DejaVuSans-6e" transform="translate(136.181641 0)"/>
      <use xlink:href="#DejaVuSans-61" transform="translate(199.560547 0)"/>
      <use xlink:href="#DejaVuSans-6d" transform="translate(260.839844 0)"/>
      <use xlink:href="#DejaVuSans-69" transform="translate(358.251953 0)"/>
      <use xlink:href="#DejaVuSans-63" transform="translate(386.035156 0)"/>
     </g>
    </g>
   </g>
  </g>
 </g>
 <defs>
  <clipPath id="p31fe43756f">
   <rect x="45.716875" y="7.2" width="390.6" height="123.84"/>
  </clipPath>
 </defs>
</svg>
