<?xml version="1.0" encoding="utf-8" standalone="no"?>
<!DOCTYPE svg PUBLIC "-//W3C//DTD SVG 1.1//EN"
  "http://www.w3.org/Graphics/SVG/1.1/DTD/svg11.dtd">
<svg xmlns:xlink="http://www.w3.org/1999/xlink" width="800.39952pt" height="692.39952pt" viewBox="0 0 800.39952 692.39952" xmlns="http://www.w3.org/2000/svg" version="1.1">
 <metadata>
  <rdf:RDF xmlns:dc="http://purl.org/dc/elements/1.1/" xmlns:cc="http://creativecommons.org/ns#" xmlns:rdf="http://www.w3.org/1999/02/22-rdf-syntax-ns#">
   <cc:Work>
    <dc:type rdf:resource="http://purl.org/dc/dcmitype/StillImage"/>
    <dc:date>2026-04-24T09:42:04.933902</dc:date>
    <dc:format>image/svg+xml</dc:format>
    <dc:creator>
     <cc:Agent>
      <dc:title>Matplotlib v3.10.8, https://matplotlib.org/</dc:title>
     </cc:Agent>
    </dc:creator>
   </cc:Work>
  </rdf:RDF>
 </metadata>
 <defs>
  <style type="text/css">*{stroke-linejoin: round; stroke-linecap: butt}</style>
 </defs>
 <g id="figure_1">
  <g id="patch_1">
   <path d="M 0 692.39952 
L 800.39952 692.39952 
L 800.39952 0 
L 0 0 
z
" style="fill: #ffffff"/>
  </g>
  <g id="axes_1">
   <g id="patch_2">
    <path d="M 46.965625 129.12827 
L 793.19952 129.12827 
L 793.19952 7.2 
L 46.965625 7.2 
z
" style="fill: #ffffff"/>
   </g>
   <g id="matplotlib.axis_1">
    <g id="xtick_1">
     <g id="line2d_1">
      <path d="M 188.71436 129.12827 
L 188.71436 7.2 
" clip-path="url(#p31564b02a4)" style="fill: none; stroke: #b0b0b0; stroke-opacity: 0.3; stroke-width: 0.8; stroke-linecap: square"/>
     </g>
     <g id="line2d_2">
      <defs>
       <path id="m37329a178e" d="M 0 0 
L 0 3.5 
" style="stroke: #000000; stroke-width: 0.8"/>
      </defs>
      <g>
       <use xlink:href="#m37329a178e" x="188.71436" y="129.12827" style="stroke: #000000; stroke-width: 0.8"/>
      </g>
     </g>
    </g>
    <g id="xtick_2">
     <g id="line2d_3">
      <path d="M 331.534244 129.12827 
L 331.534244 7.2 
" clip-path="url(#p31564b02a4)" style="fill: none; stroke: #b0b0b0; stroke-opacity: 0.3; stroke-width: 0.8; stroke-linecap: square"/>
     </g>
     <g id="line2d_4">
      <g>
       <use xlink:href="#m37329a178e" x="331.534244" y="129.12827" style="stroke: #000000; stroke-width: 0.8"/>
      </g>
     </g>
    </g>
    <g id="xtick_3">
     <g id="line2d_5">
      <path d="M 474.354128 129.12827 
L 474.354128 7.2 
" clip-path="url(#p31564b02a4)" style="fill: none; stroke: #b0b0b0; stroke-opacity: 0.3; stroke-width: 0.8; stroke-linecap: square"/>
     </g>
     <g id="line2d_6">
      <g>
       <use xlink:href="#m37329a178e" x="474.354128" y="129.12827" style="stroke: #000000; stroke-width: 0.8"/>
      </g>
     </g>
    </g>
    <g id="xtick_4">
     <g id="line2d_7">
      <path d="M 617.174013 129.12827 
L 617.174013 7.2 
" clip-path="url(#p31564b02a4)" style="fill: none; stroke: #b0b0b0; stroke-opacity: 0.3; stroke-width: 0.8; stroke-linecap: square"/>
     </g>
     <g id="line2d_8">
      <g>
       <use xlink:href="#m37329a178e" x="617.174013" y="129.12827" style="stroke: #000000; stroke-width: 0.8"/>
      </g>
     </g>
    </g>
    <g id="xtick_5">
     <g id="line2d_9">
      <path d="M 759.993897 129.12827 
L 759.993897 7.2 
" clip-path="url(#p31564b02a4)" style="fill: none; stroke: #b0b0b0; stroke-opacity: 0.3; stroke-width: 0.8; stroke-linecap: square"/>
     </g>
     <g id="line2d_10">
      <g>
       <use xlink:href="#m37329a178e" x="759.993897" y="129.12827" style="stroke: #000000; stroke-width: 0.8"/>
      </g>
     </g>
    </g>
   </g>
   <g id="matplotlib.axis_2">
    <g id="ytick_1">
     <g id="line2d_11">
      <path d="M 46.965625 101.4173 
L 793.19952 101.4173 
" clip-path="url(#p31564b02a4)" style="fill: none; stroke: #b0b0b0; stroke-opacity: 0.3; stroke-width: 0.8; stroke-linecap: square"/>
     </g>
     <g id="line2d_12">
      <defs>
       <path id="m96b6deb163" d="M 0 0 
L -3.5 0 
" style="stroke: #000000; stroke-width: 0.8"/>
      </defs>
      <g>
       <use xlink:href="#m96b6deb163" x="46.965625" y="101.4173" style="stroke: #000000; stroke-width: 0.8"/>
      </g>
     </g>
     <g id="text_1">
      <!-- 100 -->
      <g transform="translate(20.878125 105.216518) scale(0.1 -0.1)">
       <defs>
        <path id="DejaVuSans-31" d="M 794 531 
L 1825 531 
L 1825 4091 
L 703 3866 
L 703 4441 
L 1819 4666 
L 2450 4666 
L 2450 531 
L 3481 531 
L 3481 0 
L 794 0 
L 794 531 
z
" transform="scale(0.015625)"/>
        <path id="DejaVuSans-30" d="M 2034 4250 
Q 1547 4250 1301 3770 
Q 1056 3291 1056 2328 
Q 1056 1369 1301 889 
Q 1547 409 2034 409 
Q 2525 409 2770 889 
Q 3016 1369 3016 2328 
Q 3016 3291 2770 3770 
Q 2525 4250 2034 4250 
z
M 2034 4750 
Q 2819 4750 3233 4129 
Q 3647 3509 3647 2328 
Q 3647 1150 3233 529 
Q 2819 -91 2034 -91 
Q 1250 -91 836 529 
Q 422 1150 422 2328 
Q 422 3509 836 4129 
Q 1250 4750 2034 4750 
z
" transform="scale(0.015625)"/>
       </defs>
       <use xlink:href="#DejaVuSans-31"/>
       <use xlink:href="#DejaVuSans-30" transform="translate(63.623047 0)"/>
       <use xlink:href="#DejaVuSans-30" transform="translate(127.246094 0)"/>
      </g>
     </g>
    </g>
    <g id="ytick_2">
     <g id="line2d_13">
      <path d="M 46.965625 57.079747 
L 793.19952 57.079747 
" clip-path="url(#p31564b02a4)" style="fill: none; stroke: #b0b0b0; stroke-opacity: 0.3; stroke-width: 0.8; stroke-linecap: square"/>
     </g>
     <g id="line2d_14">
      <g>
       <use xlink:href="#m96b6deb163" x="46.965625" y="57.079747" style="stroke: #000000; stroke-width: 0.8"/>
      </g>
     </g>
     <g id="text_2">
      <!-- 300 -->
      <g transform="translate(20.878125 60.878966) scale(0.1 -0.1)">
       <defs>
        <path id="DejaVuSans-33" d="M 2597 2516 
Q 3050 2419 3304 2112 
Q 3559 1806 3559 1356 
Q 3559 666 3084 287 
Q 2609 -91 1734 -91 
Q 1441 -91 1130 -33 
Q 819 25 488 141 
L 488 750 
Q 750 597 1062 519 
Q 1375 441 1716 441 
Q 2309 441 2620 675 
Q 2931 909 2931 1356 
Q 2931 1769 2642 2001 
Q 2353 2234 1838 2234 
L 1294 2234 
L 1294 2753 
L 1863 2753 
Q 2328 2753 2575 2939 
Q 2822 3125 2822 3475 
Q 2822 3834 2567 4026 
Q 2313 4219 1838 4219 
Q 1578 4219 1281 4162 
Q 984 4106 628 3988 
L 628 4550 
Q 988 4650 1302 4700 
Q 1616 4750 1894 4750 
Q 2613 4750 3031 4423 
Q 3450 4097 3450 3541 
Q 3450 3153 3228 2886 
Q 3006 2619 2597 2516 
z
" transform="scale(0.015625)"/>
       </defs>
       <use xlink:href="#DejaVuSans-33"/>
       <use xlink:href="#DejaVuSans-30" transform="translate(63.623047 0)"/>
       <use xlink:href="#DejaVuSans-30" transform="translate(127.246094 0)"/>
      </g>
     </g>
    </g>
    <g id="ytick_3">
     <g id="line2d_15">
      <path d="M 46.965625 12.742194 
L 793.19952 12.742194 
" clip-path="url(#p31564b02a4)" style="fill: none; stroke: #b0b0b0; stroke-opacity: 0.3; stroke-width: 0.8; stroke-linecap: square"/>
     </g>
     <g id="line2d_16">
      <g>
       <use xlink:href="#m96b6deb163" x="46.965625" y="12.742194" style="stroke: #000000; stroke-width: 0.8"/>
      </g>
     </g>
     <g id="text_3">
      <!-- 500 -->
      <g transform="translate(20.878125 16.541413) scale(0.1 -0.1)">
       <defs>
        <path id="DejaVuSans-35" d="M 691 4666 
L 3169 4666 
L 3169 4134 
L 1269 4134 
L 1269 2991 
Q 1406 3038 1543 3061 
Q 1681 3084 1819 3084 
Q 2600 3084 3056 2656 
Q 3513 2228 3513 1497 
Q 3513 744 3044 326 
Q 2575 -91 1722 -91 
Q 1428 -91 1123 -41 
Q 819 9 494 109 
L 494 744 
Q 775 591 1075 516 
Q 1375 441 1709 441 
Q 2250 441 2565 725 
Q 2881 1009 2881 1497 
Q 2881 1984 2565 2268 
Q 2250 2553 1709 2553 
Q 1456 2553 1204 2497 
Q 953 2441 691 2322 
L 691 4666 
z
" transform="scale(0.015625)"/>
       </defs>
       <use xlink:href="#DejaVuSans-35"/>
       <use xlink:href="#DejaVuSans-30" transform="translate(63.623047 0)"/>
       <use xlink:href="#DejaVuSans-30" transform="translate(127.246094 0)"/>
      </g>
     </g>
    </g>
    <g id="text_4">
     <!-- Reward -->
     <g transform="translate(14.798437 86.785229) rotate(-90) scale(0.1 -0.1)">
      <defs>
       <path id="DejaVuSans-52" d="M 2841 2188 
Q 3044 2119 3236 1894 
Q 3428 1669 3622 1275 
L 4263 0 
L 3584 0 
L 2988 1197 
Q 2756 1666 2539 1819 
Q 2322 1972 1947 1972 
L 1259 1972 
L 1259 0 
L 628 0 
L 628 4666 
L 2053 4666 
Q 2853 4666 3247 4331 
Q 3641 3997 3641 3322 
Q 3641 2881 3436 2590 
Q 3231 2300 2841 2188 
z
M 1259 4147 
L 1259 2491 
L 2053 2491 
Q 2509 2491 2742 2702 
Q 2975 2913 2975 3322 
Q 2975 3731 2742 3939 
Q 2509 4147 2053 4147 
L 1259 4147 
z
" transform="scale(0.015625)"/>
       <path id="DejaVuSans-65" d="M 3597 1894 
L 3597 1613 
L 953 1613 
Q 991 1019 1311 708 
Q 1631 397 2203 397 
Q 2534 397 2845 478 
Q 3156 559 3463 722 
L 3463 178 
Q 3153 47 2828 -22 
Q 2503 -91 2169 -91 
Q 1331 -91 842 396 
Q 353 884 353 1716 
Q 353 2575 817 3079 
Q 1281 3584 2069 3584 
Q 2775 3584 3186 3129 
Q 3597 2675 3597 1894 
z
M 3022 2063 
Q 3016 2534 2758 2815 
Q 2500 3097 2075 3097 
Q 1594 3097 1305 2825 
Q 1016 2553 972 2059 
L 3022 2063 
z
" transform="scale(0.015625)"/>
       <path id="DejaVuSans-77" d="M 269 3500 
L 844 3500 
L 1563 769 
L 2278 3500 
L 2956 3500 
L 3675 769 
L 4391 3500 
L 4966 3500 
L 4050 0 
L 3372 0 
L 2619 2869 
L 1863 0 
L 1184 0 
L 269 3500 
z
" transform="scale(0.015625)"/>
       <path id="DejaVuSans-61" d="M 2194 1759 
Q 1497 1759 1228 1600 
Q 959 1441 959 1056 
Q 959 750 1161 570 
Q 1363 391 1709 391 
Q 2188 391 2477 730 
Q 2766 1069 2766 1631 
L 2766 1759 
L 2194 1759 
z
M 3341 1997 
L 3341 0 
L 2766 0 
L 2766 531 
Q 2569 213 2275 61 
Q 1981 -91 1556 -91 
Q 1019 -91 701 211 
Q 384 513 384 1019 
Q 384 1609 779 1909 
Q 1175 2209 1959 2209 
L 2766 2209 
L 2766 2266 
Q 2766 2663 2505 2880 
Q 2244 3097 1772 3097 
Q 1472 3097 1187 3025 
Q 903 2953 641 2809 
L 641 3341 
Q 956 3463 1253 3523 
Q 1550 3584 1831 3584 
Q 2591 3584 2966 3190 
Q 3341 2797 3341 1997 
z
" transform="scale(0.015625)"/>
       <path id="DejaVuSans-72" d="M 2631 2963 
Q 2534 3019 2420 3045 
Q 2306 3072 2169 3072 
Q 1681 3072 1420 2755 
Q 1159 2438 1159 1844 
L 1159 0 
L 581 0 
L 581 3500 
L 1159 3500 
L 1159 2956 
Q 1341 3275 1631 3429 
Q 1922 3584 2338 3584 
Q 2397 3584 2469 3576 
Q 2541 3569 2628 3553 
L 2631 2963 
z
" transform="scale(0.015625)"/>
       <path id="DejaVuSans-64" d="M 2906 2969 
L 2906 4863 
L 3481 4863 
L 3481 0 
L 2906 0 
L 2906 525 
Q 2725 213 2448 61 
Q 2172 -91 1784 -91 
Q 1150 -91 751 415 
Q 353 922 353 1747 
Q 353 2572 751 3078 
Q 1150 3584 1784 3584 
Q 2172 3584 2448 3432 
Q 2725 3281 2906 2969 
z
M 947 1747 
Q 947 1113 1208 752 
Q 1469 391 1925 391 
Q 2381 391 2643 752 
Q 2906 1113 2906 1747 
Q 2906 2381 2643 2742 
Q 2381 3103 1925 3103 
Q 1469 3103 1208 2742 
Q 947 2381 947 1747 
z
" transform="scale(0.015625)"/>
      </defs>
      <use xlink:href="#DejaVuSans-52"/>
      <use xlink:href="#DejaVuSans-65" transform="translate(64.982422 0)"/>
      <use xlink:href="#DejaVuSans-77" transform="translate(126.505859 0)"/>
      <use xlink:href="#DejaVuSans-61" transform="translate(208.292969 0)"/>
      <use xlink:href="#DejaVuSans-72" transform="translate(269.572266 0)"/>
      <use xlink:href="#DejaVuSans-64" transform="translate(308.935547 0)"/>
     </g>
    </g>
   </g>
   <g id="patch_3">
    <path d="M 46.965625 129.12827 
L 46.965625 7.2 
" style="fill: none; stroke: #000000; stroke-width: 0.8; stroke-linejoin: miter; stroke-linecap: square"/>
   </g>
   <g id="patch_4">
    <path d="M 793.19952 129.12827 
L 793.19952 7.2 
" style="fill: none; stroke: #000000; stroke-width: 0.8; stroke-linejoin: miter; stroke-linecap: square"/>
   </g>
   <g id="patch_5">
    <path d="M 46.965625 129.12827 
L 793.19952 129.12827 
" style="fill: none; stroke: #000000; stroke-width: 0.8; stroke-linejoin: miter; stroke-linecap: square"/>
   </g>
   <g id="patch_6">
    <path d="M 46.965625 7.2 
L 793.19952 7.2 
" style="fill: none; stroke: #000000; stroke-width: 0.8; stroke-linejoin: miter; stroke-linecap: square"/>
   </g>
   <g id="line2d_17">
    <path d="M 80.885347 121.169679 
L 115.876219 121.169679 
L 116.590319 120.319876 
L 151.58119 120.319876 
L 152.29529 100.611834 
L 187.286161 100.611834 
L 188.000261 120.172084 
L 222.991132 120.172084 
L 223.705232 119.558748 
L 258.696103 119.558748 
L 259.410203 119.085814 
L 294.401074 119.085814 
L 295.115174 83.172397 
L 330.106045 83.172397 
L 330.820145 100.109342 
L 365.811016 100.109342 
L 366.525116 107.728011 
L 401.515988 107.728011 
L 402.230087 100.486211 
L 437.220959 100.486211 
L 437.935058 120.600681 
L 472.92593 120.600681 
L 473.640029 74.578301 
L 508.630901 74.578301 
L 509.345 12.742194 
L 544.335872 12.742194 
L 545.049971 117.253195 
L 580.040843 117.253195 
L 580.754942 120.778031 
L 615.745814 120.778031 
L 616.459913 99.385162 
L 651.450785 99.385162 
L 652.164884 120.526785 
L 687.155756 120.526785 
L 687.869855 120.645018 
L 722.860727 120.645018 
L 723.574826 121.354419 
L 758.565698 121.354419 
L 759.279797 120.918433 
L 759.279797 120.918433 
" clip-path="url(#p31564b02a4)" style="fill: none; stroke: #0072b2; stroke-width: 1.6; stroke-linecap: round"/>
   </g>
   <g id="line2d_18">
    <path d="M 80.885347 121.169679 
L 115.876219 121.169679 
L 116.590319 120.319876 
L 151.58119 120.319876 
L 152.29529 100.611834 
L 294.401074 100.611834 
L 295.115174 83.172397 
L 472.92593 83.172397 
L 473.640029 74.578301 
L 508.630901 74.578301 
L 509.345 12.742194 
L 759.279797 12.742194 
L 759.279797 12.742194 
" clip-path="url(#p31564b02a4)" style="fill: none; stroke-dasharray: 3.7,1.6; stroke-dashoffset: 0; stroke: #d55e00; stroke-opacity: 0.9"/>
   </g>
   <g id="text_5">
    <g id="patch_7">
     <path d="M 53.940432 27.714887 
L 263.605275 27.714887 
L 263.605275 14.974262 
L 53.940432 14.974262 
z
" style="fill: #ffffff; opacity: 0.8"/>
    </g>
    <!-- bitshift custom slow decay 32-8 (hist=8) -->
    <g transform="translate(55.920432 23.792855) scale(0.09 -0.09)">
     <defs>
      <path id="DejaVuSans-Bold-62" d="M 2400 722 
Q 2759 722 2948 984 
Q 3138 1247 3138 1747 
Q 3138 2247 2948 2509 
Q 2759 2772 2400 2772 
Q 2041 2772 1848 2508 
Q 1656 2244 1656 1747 
Q 1656 1250 1848 986 
Q 2041 722 2400 722 
z
M 1656 2988 
Q 1888 3294 2169 3439 
Q 2450 3584 2816 3584 
Q 3463 3584 3878 3070 
Q 4294 2556 4294 1747 
Q 4294 938 3878 423 
Q 3463 -91 2816 -91 
Q 2450 -91 2169 54 
Q 1888 200 1656 506 
L 1656 0 
L 538 0 
L 538 4863 
L 1656 4863 
L 1656 2988 
z
" transform="scale(0.015625)"/>
      <path id="DejaVuSans-Bold-69" d="M 538 3500 
L 1656 3500 
L 1656 0 
L 538 0 
L 538 3500 
z
M 538 4863 
L 1656 4863 
L 1656 3950 
L 538 3950 
L 538 4863 
z
" transform="scale(0.015625)"/>
      <path id="DejaVuSans-Bold-74" d="M 1759 4494 
L 1759 3500 
L 2913 3500 
L 2913 2700 
L 1759 2700 
L 1759 1216 
Q 1759 972 1856 886 
Q 1953 800 2241 800 
L 2816 800 
L 2816 0 
L 1856 0 
Q 1194 0 917 276 
Q 641 553 641 1216 
L 641 2700 
L 84 2700 
L 84 3500 
L 641 3500 
L 641 4494 
L 1759 4494 
z
" transform="scale(0.015625)"/>
      <path id="DejaVuSans-Bold-73" d="M 3272 3391 
L 3272 2541 
Q 2913 2691 2578 2766 
Q 2244 2841 1947 2841 
Q 1628 2841 1473 2761 
Q 1319 2681 1319 2516 
Q 1319 2381 1436 2309 
Q 1553 2238 1856 2203 
L 2053 2175 
Q 2913 2066 3209 1816 
Q 3506 1566 3506 1031 
Q 3506 472 3093 190 
Q 2681 -91 1863 -91 
Q 1516 -91 1145 -36 
Q 775 19 384 128 
L 384 978 
Q 719 816 1070 734 
Q 1422 653 1784 653 
Q 2113 653 2278 743 
Q 2444 834 2444 1013 
Q 2444 1163 2330 1236 
Q 2216 1309 1875 1350 
L 1678 1375 
Q 931 1469 631 1722 
Q 331 1975 331 2491 
Q 331 3047 712 3315 
Q 1094 3584 1881 3584 
Q 2191 3584 2531 3537 
Q 2872 3491 3272 3391 
z
" transform="scale(0.015625)"/>
      <path id="DejaVuSans-Bold-68" d="M 4056 2131 
L 4056 0 
L 2931 0 
L 2931 347 
L 2931 1625 
Q 2931 2084 2911 2256 
Q 2891 2428 2841 2509 
Q 2775 2619 2662 2680 
Q 2550 2741 2406 2741 
Q 2056 2741 1856 2470 
Q 1656 2200 1656 1722 
L 1656 0 
L 538 0 
L 538 4863 
L 1656 4863 
L 1656 2988 
Q 1909 3294 2193 3439 
Q 2478 3584 2822 3584 
Q 3428 3584 3742 3212 
Q 4056 2841 4056 2131 
z
" transform="scale(0.015625)"/>
      <path id="DejaVuSans-Bold-66" d="M 2841 4863 
L 2841 4128 
L 2222 4128 
Q 1984 4128 1890 4042 
Q 1797 3956 1797 3744 
L 1797 3500 
L 2753 3500 
L 2753 2700 
L 1797 2700 
L 1797 0 
L 678 0 
L 678 2700 
L 122 2700 
L 122 3500 
L 678 3500 
L 678 3744 
Q 678 4316 997 4589 
Q 1316 4863 1984 4863 
L 2841 4863 
z
" transform="scale(0.015625)"/>
      <path id="DejaVuSans-Bold-20" transform="scale(0.015625)"/>
      <path id="DejaVuSans-Bold-63" d="M 3366 3391 
L 3366 2478 
Q 3138 2634 2908 2709 
Q 2678 2784 2431 2784 
Q 1963 2784 1702 2511 
Q 1441 2238 1441 1747 
Q 1441 1256 1702 982 
Q 1963 709 2431 709 
Q 2694 709 2930 787 
Q 3166 866 3366 1019 
L 3366 103 
Q 3103 6 2833 -42 
Q 2563 -91 2291 -91 
Q 1344 -91 809 395 
Q 275 881 275 1747 
Q 275 2613 809 3098 
Q 1344 3584 2291 3584 
Q 2566 3584 2833 3536 
Q 3100 3488 3366 3391 
z
" transform="scale(0.015625)"/>
      <path id="DejaVuSans-Bold-75" d="M 500 1363 
L 500 3500 
L 1625 3500 
L 1625 3150 
Q 1625 2866 1622 2436 
Q 1619 2006 1619 1863 
Q 1619 1441 1641 1255 
Q 1663 1069 1716 984 
Q 1784 875 1895 815 
Q 2006 756 2150 756 
Q 2500 756 2700 1025 
Q 2900 1294 2900 1772 
L 2900 3500 
L 4019 3500 
L 4019 0 
L 2900 0 
L 2900 506 
Q 2647 200 2364 54 
Q 2081 -91 1741 -91 
Q 1134 -91 817 281 
Q 500 653 500 1363 
z
" transform="scale(0.015625)"/>
      <path id="DejaVuSans-Bold-6f" d="M 2203 2784 
Q 1831 2784 1636 2517 
Q 1441 2250 1441 1747 
Q 1441 1244 1636 976 
Q 1831 709 2203 709 
Q 2569 709 2762 976 
Q 2956 1244 2956 1747 
Q 2956 2250 2762 2517 
Q 2569 2784 2203 2784 
z
M 2203 3584 
Q 3106 3584 3614 3096 
Q 4122 2609 4122 1747 
Q 4122 884 3614 396 
Q 3106 -91 2203 -91 
Q 1297 -91 786 396 
Q 275 884 275 1747 
Q 275 2609 786 3096 
Q 1297 3584 2203 3584 
z
" transform="scale(0.015625)"/>
      <path id="DejaVuSans-Bold-6d" d="M 3781 2919 
Q 3994 3244 4286 3414 
Q 4578 3584 4928 3584 
Q 5531 3584 5847 3212 
Q 6163 2841 6163 2131 
L 6163 0 
L 5038 0 
L 5038 1825 
Q 5041 1866 5042 1909 
Q 5044 1953 5044 2034 
Q 5044 2406 4934 2573 
Q 4825 2741 4581 2741 
Q 4263 2741 4089 2478 
Q 3916 2216 3909 1719 
L 3909 0 
L 2784 0 
L 2784 1825 
Q 2784 2406 2684 2573 
Q 2584 2741 2328 2741 
Q 2006 2741 1831 2477 
Q 1656 2213 1656 1722 
L 1656 0 
L 531 0 
L 531 3500 
L 1656 3500 
L 1656 2988 
Q 1863 3284 2130 3434 
Q 2397 3584 2719 3584 
Q 3081 3584 3359 3409 
Q 3638 3234 3781 2919 
z
" transform="scale(0.015625)"/>
      <path id="DejaVuSans-Bold-6c" d="M 538 4863 
L 1656 4863 
L 1656 0 
L 538 0 
L 538 4863 
z
" transform="scale(0.015625)"/>
      <path id="DejaVuSans-Bold-77" d="M 225 3500 
L 1313 3500 
L 1900 1088 
L 2491 3500 
L 3425 3500 
L 4013 1113 
L 4603 3500 
L 5691 3500 
L 4769 0 
L 3547 0 
L 2956 2406 
L 2369 0 
L 1147 0 
L 225 3500 
z
" transform="scale(0.015625)"/>
      <path id="DejaVuSans-Bold-64" d="M 2919 2988 
L 2919 4863 
L 4044 4863 
L 4044 0 
L 2919 0 
L 2919 506 
Q 2688 197 2409 53 
Q 2131 -91 1766 -91 
Q 1119 -91 703 423 
Q 288 938 288 1747 
Q 288 2556 703 3070 
Q 1119 3584 1766 3584 
Q 2128 3584 2408 3439 
Q 2688 3294 2919 2988 
z
M 2181 722 
Q 2541 722 2730 984 
Q 2919 1247 2919 1747 
Q 2919 2247 2730 2509 
Q 2541 2772 2181 2772 
Q 1825 2772 1636 2509 
Q 1447 2247 1447 1747 
Q 1447 1247 1636 984 
Q 1825 722 2181 722 
z
" transform="scale(0.015625)"/>
      <path id="DejaVuSans-Bold-65" d="M 4031 1759 
L 4031 1441 
L 1416 1441 
Q 1456 1047 1700 850 
Q 1944 653 2381 653 
Q 2734 653 3104 758 
Q 3475 863 3866 1075 
L 3866 213 
Q 3469 63 3072 -14 
Q 2675 -91 2278 -91 
Q 1328 -91 801 392 
Q 275 875 275 1747 
Q 275 2603 792 3093 
Q 1309 3584 2216 3584 
Q 3041 3584 3536 3087 
Q 4031 2591 4031 1759 
z
M 2881 2131 
Q 2881 2450 2695 2645 
Q 2509 2841 2209 2841 
Q 1884 2841 1681 2658 
Q 1478 2475 1428 2131 
L 2881 2131 
z
" transform="scale(0.015625)"/>
      <path id="DejaVuSans-Bold-61" d="M 2106 1575 
Q 1756 1575 1579 1456 
Q 1403 1338 1403 1106 
Q 1403 894 1545 773 
Q 1688 653 1941 653 
Q 2256 653 2472 879 
Q 2688 1106 2688 1447 
L 2688 1575 
L 2106 1575 
z
M 3816 1997 
L 3816 0 
L 2688 0 
L 2688 519 
Q 2463 200 2181 54 
Q 1900 -91 1497 -91 
Q 953 -91 614 226 
Q 275 544 275 1050 
Q 275 1666 698 1953 
Q 1122 2241 2028 2241 
L 2688 2241 
L 2688 2328 
Q 2688 2594 2478 2717 
Q 2269 2841 1825 2841 
Q 1466 2841 1156 2769 
Q 847 2697 581 2553 
L 581 3406 
Q 941 3494 1303 3539 
Q 1666 3584 2028 3584 
Q 2975 3584 3395 3211 
Q 3816 2838 3816 1997 
z
" transform="scale(0.015625)"/>
      <path id="DejaVuSans-Bold-79" d="M 78 3500 
L 1197 3500 
L 2138 1125 
L 2938 3500 
L 4056 3500 
L 2584 -331 
Q 2363 -916 2067 -1148 
Q 1772 -1381 1288 -1381 
L 641 -1381 
L 641 -647 
L 991 -647 
Q 1275 -647 1404 -556 
Q 1534 -466 1606 -231 
L 1638 -134 
L 78 3500 
z
" transform="scale(0.015625)"/>
      <path id="DejaVuSans-Bold-33" d="M 2981 2516 
Q 3453 2394 3698 2092 
Q 3944 1791 3944 1325 
Q 3944 631 3412 270 
Q 2881 -91 1863 -91 
Q 1503 -91 1142 -33 
Q 781 25 428 141 
L 428 1069 
Q 766 900 1098 814 
Q 1431 728 1753 728 
Q 2231 728 2486 893 
Q 2741 1059 2741 1369 
Q 2741 1688 2480 1852 
Q 2219 2016 1709 2016 
L 1228 2016 
L 1228 2791 
L 1734 2791 
Q 2188 2791 2409 2933 
Q 2631 3075 2631 3366 
Q 2631 3634 2415 3781 
Q 2200 3928 1806 3928 
Q 1516 3928 1219 3862 
Q 922 3797 628 3669 
L 628 4550 
Q 984 4650 1334 4700 
Q 1684 4750 2022 4750 
Q 2931 4750 3382 4451 
Q 3834 4153 3834 3553 
Q 3834 3144 3618 2883 
Q 3403 2622 2981 2516 
z
" transform="scale(0.015625)"/>
      <path id="DejaVuSans-Bold-32" d="M 1844 884 
L 3897 884 
L 3897 0 
L 506 0 
L 506 884 
L 2209 2388 
Q 2438 2594 2547 2791 
Q 2656 2988 2656 3200 
Q 2656 3528 2436 3728 
Q 2216 3928 1850 3928 
Q 1569 3928 1234 3808 
Q 900 3688 519 3450 
L 519 4475 
Q 925 4609 1322 4679 
Q 1719 4750 2100 4750 
Q 2938 4750 3402 4381 
Q 3866 4013 3866 3353 
Q 3866 2972 3669 2642 
Q 3472 2313 2841 1759 
L 1844 884 
z
" transform="scale(0.015625)"/>
      <path id="DejaVuSans-Bold-2d" d="M 347 2297 
L 2309 2297 
L 2309 1388 
L 347 1388 
L 347 2297 
z
" transform="scale(0.015625)"/>
      <path id="DejaVuSans-Bold-38" d="M 2228 2088 
Q 1891 2088 1709 1903 
Q 1528 1719 1528 1375 
Q 1528 1031 1709 848 
Q 1891 666 2228 666 
Q 2563 666 2741 848 
Q 2919 1031 2919 1375 
Q 2919 1722 2741 1905 
Q 2563 2088 2228 2088 
z
M 1350 2484 
Q 925 2613 709 2878 
Q 494 3144 494 3541 
Q 494 4131 934 4440 
Q 1375 4750 2228 4750 
Q 3075 4750 3515 4442 
Q 3956 4134 3956 3541 
Q 3956 3144 3739 2878 
Q 3522 2613 3097 2484 
Q 3572 2353 3814 2058 
Q 4056 1763 4056 1313 
Q 4056 619 3595 264 
Q 3134 -91 2228 -91 
Q 1319 -91 855 264 
Q 391 619 391 1313 
Q 391 1763 633 2058 
Q 875 2353 1350 2484 
z
M 1631 3419 
Q 1631 3141 1786 2991 
Q 1941 2841 2228 2841 
Q 2509 2841 2662 2991 
Q 2816 3141 2816 3419 
Q 2816 3697 2662 3845 
Q 2509 3994 2228 3994 
Q 1941 3994 1786 3844 
Q 1631 3694 1631 3419 
z
" transform="scale(0.015625)"/>
      <path id="DejaVuSans-Bold-28" d="M 2413 -844 
L 1484 -844 
Q 1006 -72 778 623 
Q 550 1319 550 2003 
Q 550 2688 779 3389 
Q 1009 4091 1484 4856 
L 2413 4856 
Q 2013 4116 1813 3408 
Q 1613 2700 1613 2009 
Q 1613 1319 1811 609 
Q 2009 -100 2413 -844 
z
" transform="scale(0.015625)"/>
      <path id="DejaVuSans-Bold-3d" d="M 678 3084 
L 4684 3084 
L 4684 2350 
L 678 2350 
L 678 3084 
z
M 678 1663 
L 4684 1663 
L 4684 922 
L 678 922 
L 678 1663 
z
" transform="scale(0.015625)"/>
      <path id="DejaVuSans-Bold-29" d="M 513 -844 
Q 913 -100 1113 609 
Q 1313 1319 1313 2009 
Q 1313 2700 1113 3408 
Q 913 4116 513 4856 
L 1441 4856 
Q 1916 4091 2145 3389 
Q 2375 2688 2375 2003 
Q 2375 1319 2147 623 
Q 1919 -72 1441 -844 
L 513 -844 
z
" transform="scale(0.015625)"/>
     </defs>
     <use xlink:href="#DejaVuSans-Bold-62"/>
     <use xlink:href="#DejaVuSans-Bold-69" transform="translate(71.582031 0)"/>
     <use xlink:href="#DejaVuSans-Bold-74" transform="translate(105.859375 0)"/>
     <use xlink:href="#DejaVuSans-Bold-73" transform="translate(153.662109 0)"/>
     <use xlink:href="#DejaVuSans-Bold-68" transform="translate(213.183594 0)"/>
     <use xlink:href="#DejaVuSans-Bold-69" transform="translate(284.375 0)"/>
     <use xlink:href="#DejaVuSans-Bold-66" transform="translate(318.652344 0)"/>
     <use xlink:href="#DejaVuSans-Bold-74" transform="translate(362.158203 0)"/>
     <use xlink:href="#DejaVuSans-Bold-20" transform="translate(409.960938 0)"/>
     <use xlink:href="#DejaVuSans-Bold-63" transform="translate(444.775391 0)"/>
     <use xlink:href="#DejaVuSans-Bold-75" transform="translate(504.052734 0)"/>
     <use xlink:href="#DejaVuSans-Bold-73" transform="translate(575.244141 0)"/>
     <use xlink:href="#DejaVuSans-Bold-74" transform="translate(634.765625 0)"/>
     <use xlink:href="#DejaVuSans-Bold-6f" transform="translate(682.568359 0)"/>
     <use xlink:href="#DejaVuSans-Bold-6d" transform="translate(751.269531 0)"/>
     <use xlink:href="#DejaVuSans-Bold-20" transform="translate(855.46875 0)"/>
     <use xlink:href="#DejaVuSans-Bold-73" transform="translate(890.283203 0)"/>
     <use xlink:href="#DejaVuSans-Bold-6c" transform="translate(949.804688 0)"/>
     <use xlink:href="#DejaVuSans-Bold-6f" transform="translate(984.082031 0)"/>
     <use xlink:href="#DejaVuSans-Bold-77" transform="translate(1052.783203 0)"/>
     <use xlink:href="#DejaVuSans-Bold-20" transform="translate(1145.166016 0)"/>
     <use xlink:href="#DejaVuSans-Bold-64" transform="translate(1179.980469 0)"/>
     <use xlink:href="#DejaVuSans-Bold-65" transform="translate(1251.5625 0)"/>
     <use xlink:href="#DejaVuSans-Bold-63" transform="translate(1319.384766 0)"/>
     <use xlink:href="#DejaVuSans-Bold-61" transform="translate(1378.662109 0)"/>
     <use xlink:href="#DejaVuSans-Bold-79" transform="translate(1443.017578 0)"/>
     <use xlink:href="#DejaVuSans-Bold-20" transform="translate(1508.203125 0)"/>
     <use xlink:href="#DejaVuSans-Bold-33" transform="translate(1543.017578 0)"/>
     <use xlink:href="#DejaVuSans-Bold-32" transform="translate(1612.597656 0)"/>
     <use xlink:href="#DejaVuSans-Bold-2d" transform="translate(1682.177734 0)"/>
     <use xlink:href="#DejaVuSans-Bold-38" transform="translate(1723.681641 0)"/>
     <use xlink:href="#DejaVuSans-Bold-20" transform="translate(1793.261719 0)"/>
     <use xlink:href="#DejaVuSans-Bold-28" transform="translate(1828.076172 0)"/>
     <use xlink:href="#DejaVuSans-Bold-68" transform="translate(1873.779297 0)"/>
     <use xlink:href="#DejaVuSans-Bold-69" transform="translate(1944.970703 0)"/>
     <use xlink:href="#DejaVuSans-Bold-73" transform="translate(1979.248047 0)"/>
     <use xlink:href="#DejaVuSans-Bold-74" transform="translate(2038.769531 0)"/>
     <use xlink:href="#DejaVuSans-Bold-3d" transform="translate(2086.572266 0)"/>
     <use xlink:href="#DejaVuSans-Bold-38" transform="translate(2170.361328 0)"/>
     <use xlink:href="#DejaVuSans-Bold-29" transform="translate(2239.941406 0)"/>
    </g>
   </g>
   <g id="PathCollection_1">
    <defs>
     <path id="m657e5360a3" d="M 0 -3.708099 
L -3.708099 3.708099 
L 3.708099 3.708099 
z
" style="stroke: #000000; stroke-width: 0.5"/>
    </defs>
    <g clip-path="url(#p31564b02a4)">
     <use xlink:href="#m657e5360a3" x="509.345" y="12.742194" style="fill: #e69f00; stroke: #000000; stroke-width: 0.5"/>
    </g>
   </g>
  </g>
  <g id="axes_2">
   <g id="patch_8">
    <path d="M 46.965625 260.55702 
L 793.19952 260.55702 
L 793.19952 138.62875 
L 46.965625 138.62875 
z
" style="fill: #ffffff"/>
   </g>
   <g id="matplotlib.axis_3">
    <g id="xtick_6">
     <g id="line2d_19">
      <path d="M 188.71436 260.55702 
L 188.71436 138.62875 
" clip-path="url(#p7ad1ba1a91)" style="fill: none; stroke: #b0b0b0; stroke-opacity: 0.3; stroke-width: 0.8; stroke-linecap: square"/>
     </g>
     <g id="line2d_20">
      <g>
       <use xlink:href="#m37329a178e" x="188.71436" y="260.55702" style="stroke: #000000; stroke-width: 0.8"/>
      </g>
     </g>
    </g>
    <g id="xtick_7">
     <g id="line2d_21">
      <path d="M 331.534244 260.55702 
L 331.534244 138.62875 
" clip-path="url(#p7ad1ba1a91)" style="fill: none; stroke: #b0b0b0; stroke-opacity: 0.3; stroke-width: 0.8; stroke-linecap: square"/>
     </g>
     <g id="line2d_22">
      <g>
       <use xlink:href="#m37329a178e" x="331.534244" y="260.55702" style="stroke: #000000; stroke-width: 0.8"/>
      </g>
     </g>
    </g>
    <g id="xtick_8">
     <g id="line2d_23">
      <path d="M 474.354128 260.55702 
L 474.354128 138.62875 
" clip-path="url(#p7ad1ba1a91)" style="fill: none; stroke: #b0b0b0; stroke-opacity: 0.3; stroke-width: 0.8; stroke-linecap: square"/>
     </g>
     <g id="line2d_24">
      <g>
       <use xlink:href="#m37329a178e" x="474.354128" y="260.55702" style="stroke: #000000; stroke-width: 0.8"/>
      </g>
     </g>
    </g>
    <g id="xtick_9">
     <g id="line2d_25">
      <path d="M 617.174013 260.55702 
L 617.174013 138.62875 
" clip-path="url(#p7ad1ba1a91)" style="fill: none; stroke: #b0b0b0; stroke-opacity: 0.3; stroke-width: 0.8; stroke-linecap: square"/>
     </g>
     <g id="line2d_26">
      <g>
       <use xlink:href="#m37329a178e" x="617.174013" y="260.55702" style="stroke: #000000; stroke-width: 0.8"/>
      </g>
     </g>
    </g>
    <g id="xtick_10">
     <g id="line2d_27">
      <path d="M 759.993897 260.55702 
L 759.993897 138.62875 
" clip-path="url(#p7ad1ba1a91)" style="fill: none; stroke: #b0b0b0; stroke-opacity: 0.3; stroke-width: 0.8; stroke-linecap: square"/>
     </g>
     <g id="line2d_28">
      <g>
       <use xlink:href="#m37329a178e" x="759.993897" y="260.55702" style="stroke: #000000; stroke-width: 0.8"/>
      </g>
     </g>
    </g>
   </g>
   <g id="matplotlib.axis_4">
    <g id="ytick_4">
     <g id="line2d_29">
      <path d="M 46.965625 232.84605 
L 793.19952 232.84605 
" clip-path="url(#p7ad1ba1a91)" style="fill: none; stroke: #b0b0b0; stroke-opacity: 0.3; stroke-width: 0.8; stroke-linecap: square"/>
     </g>
     <g id="line2d_30">
      <g>
       <use xlink:href="#m96b6deb163" x="46.965625" y="232.84605" style="stroke: #000000; stroke-width: 0.8"/>
      </g>
     </g>
     <g id="text_6">
      <!-- 100 -->
      <g transform="translate(20.878125 236.645268) scale(0.1 -0.1)">
       <use xlink:href="#DejaVuSans-31"/>
       <use xlink:href="#DejaVuSans-30" transform="translate(63.623047 0)"/>
       <use xlink:href="#DejaVuSans-30" transform="translate(127.246094 0)"/>
      </g>
     </g>
    </g>
    <g id="ytick_5">
     <g id="line2d_31">
      <path d="M 46.965625 188.508497 
L 793.19952 188.508497 
" clip-path="url(#p7ad1ba1a91)" style="fill: none; stroke: #b0b0b0; stroke-opacity: 0.3; stroke-width: 0.8; stroke-linecap: square"/>
     </g>
     <g id="line2d_32">
      <g>
       <use xlink:href="#m96b6deb163" x="46.965625" y="188.508497" style="stroke: #000000; stroke-width: 0.8"/>
      </g>
     </g>
     <g id="text_7">
      <!-- 300 -->
      <g transform="translate(20.878125 192.307716) scale(0.1 -0.1)">
       <use xlink:href="#DejaVuSans-33"/>
       <use xlink:href="#DejaVuSans-30" transform="translate(63.623047 0)"/>
       <use xlink:href="#DejaVuSans-30" transform="translate(127.246094 0)"/>
      </g>
     </g>
    </g>
    <g id="ytick_6">
     <g id="line2d_33">
      <path d="M 46.965625 144.170944 
L 793.19952 144.170944 
" clip-path="url(#p7ad1ba1a91)" style="fill: none; stroke: #b0b0b0; stroke-opacity: 0.3; stroke-width: 0.8; stroke-linecap: square"/>
     </g>
     <g id="line2d_34">
      <g>
       <use xlink:href="#m96b6deb163" x="46.965625" y="144.170944" style="stroke: #000000; stroke-width: 0.8"/>
      </g>
     </g>
     <g id="text_8">
      <!-- 500 -->
      <g transform="translate(20.878125 147.970163) scale(0.1 -0.1)">
       <use xlink:href="#DejaVuSans-35"/>
       <use xlink:href="#DejaVuSans-30" transform="translate(63.623047 0)"/>
       <use xlink:href="#DejaVuSans-30" transform="translate(127.246094 0)"/>
      </g>
     </g>
    </g>
    <g id="text_9">
     <!-- Reward -->
     <g transform="translate(14.798437 218.213979) rotate(-90) scale(0.1 -0.1)">
      <use xlink:href="#DejaVuSans-52"/>
      <use xlink:href="#DejaVuSans-65" transform="translate(64.982422 0)"/>
      <use xlink:href="#DejaVuSans-77" transform="translate(126.505859 0)"/>
      <use xlink:href="#DejaVuSans-61" transform="translate(208.292969 0)"/>
      <use xlink:href="#DejaVuSans-72" transform="translate(269.572266 0)"/>
      <use xlink:href="#DejaVuSans-64" transform="translate(308.935547 0)"/>
     </g>
    </g>
   </g>
   <g id="patch_9">
    <path d="M 46.965625 260.55702 
L 46.965625 138.62875 
" style="fill: none; stroke: #000000; stroke-width: 0.8; stroke-linejoin: miter; stroke-linecap: square"/>
   </g>
   <g id="patch_10">
    <path d="M 793.19952 260.55702 
L 793.19952 138.62875 
" style="fill: none; stroke: #000000; stroke-width: 0.8; stroke-linejoin: miter; stroke-linecap: square"/>
   </g>
   <g id="patch_11">
    <path d="M 46.965625 260.55702 
L 793.19952 260.55702 
" style="fill: none; stroke: #000000; stroke-width: 0.8; stroke-linejoin: miter; stroke-linecap: square"/>
   </g>
   <g id="patch_12">
    <path d="M 46.965625 138.62875 
L 793.19952 138.62875 
" style="fill: none; stroke: #000000; stroke-width: 0.8; stroke-linejoin: miter; stroke-linecap: square"/>
   </g>
   <g id="line2d_35">
    <path d="M 80.885347 252.95313 
L 151.58119 252.95313 
L 152.29529 250.455448 
L 187.286161 250.455448 
L 188.000261 246.080809 
L 222.991132 246.080809 
L 223.705232 252.812727 
L 258.696103 252.812727 
L 259.410203 252.073768 
L 294.401074 252.073768 
L 295.115174 252.664936 
L 330.106045 252.664936 
L 330.820145 252.842286 
L 401.515988 252.76839 
L 402.230087 221.776441 
L 437.220959 221.776441 
L 437.935058 206.812517 
L 472.92593 206.812517 
L 473.640029 177.39455 
L 508.630901 177.39455 
L 509.345 228.441853 
L 544.335872 228.441853 
L 545.049971 226.68313 
L 580.040843 226.68313 
L 580.754942 213.950862 
L 615.745814 213.950862 
L 616.459913 227.259518 
L 651.450785 227.259518 
L 652.164884 196.710944 
L 687.155756 196.710944 
L 687.869855 237.789687 
L 722.860727 237.789687 
L 723.574826 189.461754 
L 758.565698 189.461754 
L 759.279797 144.170944 
L 759.279797 144.170944 
" clip-path="url(#p7ad1ba1a91)" style="fill: none; stroke: #d55e00; stroke-width: 1.6; stroke-linecap: round"/>
   </g>
   <g id="line2d_36">
    <path d="M 80.885347 252.95313 
L 151.58119 252.95313 
L 152.29529 250.455448 
L 187.286161 250.455448 
L 188.000261 246.080809 
L 401.515988 246.080809 
L 402.230087 221.776441 
L 437.220959 221.776441 
L 437.935058 206.812517 
L 472.92593 206.812517 
L 473.640029 177.39455 
L 758.565698 177.39455 
L 759.279797 144.170944 
L 759.279797 144.170944 
" clip-path="url(#p7ad1ba1a91)" style="fill: none; stroke-dasharray: 3.7,1.6; stroke-dashoffset: 0; stroke: #d55e00; stroke-opacity: 0.9"/>
   </g>
   <g id="text_10">
    <g id="patch_13">
     <path d="M 53.940432 159.073324 
L 183.028557 159.073324 
L 183.028557 146.403012 
L 53.940432 146.403012 
z
" style="fill: #ffffff; opacity: 0.8"/>
    </g>
    <!-- fractional 16-4 (hist=32) -->
    <g transform="translate(55.920432 155.221605) scale(0.09 -0.09)">
     <defs>
      <path id="DejaVuSans-Bold-72" d="M 3138 2547 
Q 2991 2616 2845 2648 
Q 2700 2681 2553 2681 
Q 2122 2681 1889 2404 
Q 1656 2128 1656 1613 
L 1656 0 
L 538 0 
L 538 3500 
L 1656 3500 
L 1656 2925 
Q 1872 3269 2151 3426 
Q 2431 3584 2822 3584 
Q 2878 3584 2943 3579 
Q 3009 3575 3134 3559 
L 3138 2547 
z
" transform="scale(0.015625)"/>
      <path id="DejaVuSans-Bold-6e" d="M 4056 2131 
L 4056 0 
L 2931 0 
L 2931 347 
L 2931 1631 
Q 2931 2084 2911 2256 
Q 2891 2428 2841 2509 
Q 2775 2619 2662 2680 
Q 2550 2741 2406 2741 
Q 2056 2741 1856 2470 
Q 1656 2200 1656 1722 
L 1656 0 
L 538 0 
L 538 3500 
L 1656 3500 
L 1656 2988 
Q 1909 3294 2193 3439 
Q 2478 3584 2822 3584 
Q 3428 3584 3742 3212 
Q 4056 2841 4056 2131 
z
" transform="scale(0.015625)"/>
      <path id="DejaVuSans-Bold-31" d="M 750 831 
L 1813 831 
L 1813 3847 
L 722 3622 
L 722 4441 
L 1806 4666 
L 2950 4666 
L 2950 831 
L 4013 831 
L 4013 0 
L 750 0 
L 750 831 
z
" transform="scale(0.015625)"/>
      <path id="DejaVuSans-Bold-36" d="M 2316 2303 
Q 2000 2303 1842 2098 
Q 1684 1894 1684 1484 
Q 1684 1075 1842 870 
Q 2000 666 2316 666 
Q 2634 666 2792 870 
Q 2950 1075 2950 1484 
Q 2950 1894 2792 2098 
Q 2634 2303 2316 2303 
z
M 3803 4544 
L 3803 3681 
Q 3506 3822 3243 3889 
Q 2981 3956 2731 3956 
Q 2194 3956 1894 3657 
Q 1594 3359 1544 2772 
Q 1750 2925 1990 3001 
Q 2231 3078 2516 3078 
Q 3231 3078 3670 2659 
Q 4109 2241 4109 1563 
Q 4109 813 3618 361 
Q 3128 -91 2303 -91 
Q 1394 -91 895 523 
Q 397 1138 397 2266 
Q 397 3422 980 4083 
Q 1563 4744 2578 4744 
Q 2900 4744 3203 4694 
Q 3506 4644 3803 4544 
z
" transform="scale(0.015625)"/>
      <path id="DejaVuSans-Bold-34" d="M 2356 3675 
L 1038 1722 
L 2356 1722 
L 2356 3675 
z
M 2156 4666 
L 3494 4666 
L 3494 1722 
L 4159 1722 
L 4159 850 
L 3494 850 
L 3494 0 
L 2356 0 
L 2356 850 
L 288 850 
L 288 1881 
L 2156 4666 
z
" transform="scale(0.015625)"/>
     </defs>
     <use xlink:href="#DejaVuSans-Bold-66"/>
     <use xlink:href="#DejaVuSans-Bold-72" transform="translate(43.505859 0)"/>
     <use xlink:href="#DejaVuSans-Bold-61" transform="translate(92.822266 0)"/>
     <use xlink:href="#DejaVuSans-Bold-63" transform="translate(160.302734 0)"/>
     <use xlink:href="#DejaVuSans-Bold-74" transform="translate(219.580078 0)"/>
     <use xlink:href="#DejaVuSans-Bold-69" transform="translate(267.382812 0)"/>
     <use xlink:href="#DejaVuSans-Bold-6f" transform="translate(301.660156 0)"/>
     <use xlink:href="#DejaVuSans-Bold-6e" transform="translate(370.361328 0)"/>
     <use xlink:href="#DejaVuSans-Bold-61" transform="translate(441.552734 0)"/>
     <use xlink:href="#DejaVuSans-Bold-6c" transform="translate(509.033203 0)"/>
     <use xlink:href="#DejaVuSans-Bold-20" transform="translate(543.310547 0)"/>
     <use xlink:href="#DejaVuSans-Bold-31" transform="translate(578.125 0)"/>
     <use xlink:href="#DejaVuSans-Bold-36" transform="translate(647.705078 0)"/>
     <use xlink:href="#DejaVuSans-Bold-2d" transform="translate(717.285156 0)"/>
     <use xlink:href="#DejaVuSans-Bold-34" transform="translate(758.789062 0)"/>
     <use xlink:href="#DejaVuSans-Bold-20" transform="translate(828.369141 0)"/>
     <use xlink:href="#DejaVuSans-Bold-28" transform="translate(863.183594 0)"/>
     <use xlink:href="#DejaVuSans-Bold-68" transform="translate(908.886719 0)"/>
     <use xlink:href="#DejaVuSans-Bold-69" transform="translate(980.078125 0)"/>
     <use xlink:href="#DejaVuSans-Bold-73" transform="translate(1014.355469 0)"/>
     <use xlink:href="#DejaVuSans-Bold-74" transform="translate(1073.876953 0)"/>
     <use xlink:href="#DejaVuSans-Bold-3d" transform="translate(1121.679688 0)"/>
     <use xlink:href="#DejaVuSans-Bold-33" transform="translate(1205.46875 0)"/>
     <use xlink:href="#DejaVuSans-Bold-32" transform="translate(1275.048828 0)"/>
     <use xlink:href="#DejaVuSans-Bold-29" transform="translate(1344.628906 0)"/>
    </g>
   </g>
   <g id="PathCollection_2">
    <g clip-path="url(#p7ad1ba1a91)">
     <use xlink:href="#m657e5360a3" x="759.279797" y="144.170944" style="fill: #e69f00; stroke: #000000; stroke-width: 0.5"/>
    </g>
   </g>
  </g>
  <g id="axes_3">
   <g id="patch_14">
    <path d="M 46.965625 391.98577 
L 793.19952 391.98577 
L 793.19952 270.0575 
L 46.965625 270.0575 
z
" style="fill: #ffffff"/>
   </g>
   <g id="matplotlib.axis_5">
    <g id="xtick_11">
     <g id="line2d_37">
      <path d="M 188.71436 391.98577 
L 188.71436 270.0575 
" clip-path="url(#p81b40a3ad8)" style="fill: none; stroke: #b0b0b0; stroke-opacity: 0.3; stroke-width: 0.8; stroke-linecap: square"/>
     </g>
     <g id="line2d_38">
      <g>
       <use xlink:href="#m37329a178e" x="188.71436" y="391.98577" style="stroke: #000000; stroke-width: 0.8"/>
      </g>
     </g>
    </g>
    <g id="xtick_12">
     <g id="line2d_39">
      <path d="M 331.534244 391.98577 
L 331.534244 270.0575 
" clip-path="url(#p81b40a3ad8)" style="fill: none; stroke: #b0b0b0; stroke-opacity: 0.3; stroke-width: 0.8; stroke-linecap: square"/>
     </g>
     <g id="line2d_40">
      <g>
       <use xlink:href="#m37329a178e" x="331.534244" y="391.98577" style="stroke: #000000; stroke-width: 0.8"/>
      </g>
     </g>
    </g>
    <g id="xtick_13">
     <g id="line2d_41">
      <path d="M 474.354128 391.98577 
L 474.354128 270.0575 
" clip-path="url(#p81b40a3ad8)" style="fill: none; stroke: #b0b0b0; stroke-opacity: 0.3; stroke-width: 0.8; stroke-linecap: square"/>
     </g>
     <g id="line2d_42">
      <g>
       <use xlink:href="#m37329a178e" x="474.354128" y="391.98577" style="stroke: #000000; stroke-width: 0.8"/>
      </g>
     </g>
    </g>
    <g id="xtick_14">
     <g id="line2d_43">
      <path d="M 617.174013 391.98577 
L 617.174013 270.0575 
" clip-path="url(#p81b40a3ad8)" style="fill: none; stroke: #b0b0b0; stroke-opacity: 0.3; stroke-width: 0.8; stroke-linecap: square"/>
     </g>
     <g id="line2d_44">
      <g>
       <use xlink:href="#m37329a178e" x="617.174013" y="391.98577" style="stroke: #000000; stroke-width: 0.8"/>
      </g>
     </g>
    </g>
    <g id="xtick_15">
     <g id="line2d_45">
      <path d="M 759.993897 391.98577 
L 759.993897 270.0575 
" clip-path="url(#p81b40a3ad8)" style="fill: none; stroke: #b0b0b0; stroke-opacity: 0.3; stroke-width: 0.8; stroke-linecap: square"/>
     </g>
     <g id="line2d_46">
      <g>
       <use xlink:href="#m37329a178e" x="759.993897" y="391.98577" style="stroke: #000000; stroke-width: 0.8"/>
      </g>
     </g>
    </g>
   </g>
   <g id="matplotlib.axis_6">
    <g id="ytick_7">
     <g id="line2d_47">
      <path d="M 46.965625 364.2748 
L 793.19952 364.2748 
" clip-path="url(#p81b40a3ad8)" style="fill: none; stroke: #b0b0b0; stroke-opacity: 0.3; stroke-width: 0.8; stroke-linecap: square"/>
     </g>
     <g id="line2d_48">
      <g>
       <use xlink:href="#m96b6deb163" x="46.965625" y="364.2748" style="stroke: #000000; stroke-width: 0.8"/>
      </g>
     </g>
     <g id="text_11">
      <!-- 100 -->
      <g transform="translate(20.878125 368.074018) scale(0.1 -0.1)">
       <use xlink:href="#DejaVuSans-31"/>
       <use xlink:href="#DejaVuSans-30" transform="translate(63.623047 0)"/>
       <use xlink:href="#DejaVuSans-30" transform="translate(127.246094 0)"/>
      </g>
     </g>
    </g>
    <g id="ytick_8">
     <g id="line2d_49">
      <path d="M 46.965625 319.937247 
L 793.19952 319.937247 
" clip-path="url(#p81b40a3ad8)" style="fill: none; stroke: #b0b0b0; stroke-opacity: 0.3; stroke-width: 0.8; stroke-linecap: square"/>
     </g>
     <g id="line2d_50">
      <g>
       <use xlink:href="#m96b6deb163" x="46.965625" y="319.937247" style="stroke: #000000; stroke-width: 0.8"/>
      </g>
     </g>
     <g id="text_12">
      <!-- 300 -->
      <g transform="translate(20.878125 323.736466) scale(0.1 -0.1)">
       <use xlink:href="#DejaVuSans-33"/>
       <use xlink:href="#DejaVuSans-30" transform="translate(63.623047 0)"/>
       <use xlink:href="#DejaVuSans-30" transform="translate(127.246094 0)"/>
      </g>
     </g>
    </g>
    <g id="ytick_9">
     <g id="line2d_51">
      <path d="M 46.965625 275.599694 
L 793.19952 275.599694 
" clip-path="url(#p81b40a3ad8)" style="fill: none; stroke: #b0b0b0; stroke-opacity: 0.3; stroke-width: 0.8; stroke-linecap: square"/>
     </g>
     <g id="line2d_52">
      <g>
       <use xlink:href="#m96b6deb163" x="46.965625" y="275.599694" style="stroke: #000000; stroke-width: 0.8"/>
      </g>
     </g>
     <g id="text_13">
      <!-- 500 -->
      <g transform="translate(20.878125 279.398913) scale(0.1 -0.1)">
       <use xlink:href="#DejaVuSans-35"/>
       <use xlink:href="#DejaVuSans-30" transform="translate(63.623047 0)"/>
       <use xlink:href="#DejaVuSans-30" transform="translate(127.246094 0)"/>
      </g>
     </g>
    </g>
    <g id="text_14">
     <!-- Reward -->
     <g transform="translate(14.798437 349.642729) rotate(-90) scale(0.1 -0.1)">
      <use xlink:href="#DejaVuSans-52"/>
      <use xlink:href="#DejaVuSans-65" transform="translate(64.982422 0)"/>
      <use xlink:href="#DejaVuSans-77" transform="translate(126.505859 0)"/>
      <use xlink:href="#DejaVuSans-61" transform="translate(208.292969 0)"/>
      <use xlink:href="#DejaVuSans-72" transform="translate(269.572266 0)"/>
      <use xlink:href="#DejaVuSans-64" transform="translate(308.935547 0)"/>
     </g>
    </g>
   </g>
   <g id="patch_15">
    <path d="M 46.965625 391.98577 
L 46.965625 270.0575 
" style="fill: none; stroke: #000000; stroke-width: 0.8; stroke-linejoin: miter; stroke-linecap: square"/>
   </g>
   <g id="patch_16">
    <path d="M 793.19952 391.98577 
L 793.19952 270.0575 
" style="fill: none; stroke: #000000; stroke-width: 0.8; stroke-linejoin: miter; stroke-linecap: square"/>
   </g>
   <g id="patch_17">
    <path d="M 46.965625 391.98577 
L 793.19952 391.98577 
" style="fill: none; stroke: #000000; stroke-width: 0.8; stroke-linejoin: miter; stroke-linecap: square"/>
   </g>
   <g id="patch_18">
    <path d="M 46.965625 270.0575 
L 793.19952 270.0575 
" style="fill: none; stroke: #000000; stroke-width: 0.8; stroke-linejoin: miter; stroke-linecap: square"/>
   </g>
   <g id="line2d_53">
    <path d="M 80.885347 384.38188 
L 115.876219 384.38188 
L 116.590319 383.672479 
L 151.58119 383.672479 
L 152.29529 381.950704 
L 187.286161 381.950704 
L 188.000261 377.147469 
L 222.991132 377.147469 
L 223.705232 382.682274 
L 258.696103 382.682274 
L 259.410203 382.497534 
L 294.401074 382.497534 
L 295.115174 381.588614 
L 330.106045 381.588614 
L 330.820145 368.715944 
L 365.811016 368.715944 
L 366.525116 363.949657 
L 401.515988 363.949657 
L 402.230087 351.77161 
L 437.220959 351.77161 
L 437.935058 286.972276 
L 472.92593 286.972276 
L 473.640029 370.275148 
L 508.630901 370.275148 
L 509.345 356.899987 
L 544.335872 356.899987 
L 545.049971 358.126659 
L 580.040843 358.126659 
L 580.754942 348.305891 
L 615.745814 348.305891 
L 616.459913 358.444411 
L 651.450785 358.444411 
L 652.164884 372.514195 
L 687.155756 372.514195 
L 687.869855 369.536189 
L 722.860727 369.536189 
L 723.574826 352.880048 
L 758.565698 352.880048 
L 759.279797 275.599694 
L 759.279797 275.599694 
" clip-path="url(#p81b40a3ad8)" style="fill: none; stroke: #009e73; stroke-width: 1.6; stroke-linecap: round"/>
   </g>
   <g id="line2d_54">
    <path d="M 80.885347 384.38188 
L 115.876219 384.38188 
L 116.590319 383.672479 
L 151.58119 383.672479 
L 152.29529 381.950704 
L 187.286161 381.950704 
L 188.000261 377.147469 
L 330.106045 377.147469 
L 330.820145 368.715944 
L 365.811016 368.715944 
L 366.525116 363.949657 
L 401.515988 363.949657 
L 402.230087 351.77161 
L 437.220959 351.77161 
L 437.935058 286.972276 
L 758.565698 286.972276 
L 759.279797 275.599694 
L 759.279797 275.599694 
" clip-path="url(#p81b40a3ad8)" style="fill: none; stroke-dasharray: 3.7,1.6; stroke-dashoffset: 0; stroke: #d55e00; stroke-opacity: 0.9"/>
   </g>
   <g id="text_15">
    <g id="patch_19">
     <path d="M 53.940432 290.502074 
L 183.028557 290.502074 
L 183.028557 277.831762 
L 53.940432 277.831762 
z
" style="fill: #ffffff; opacity: 0.8"/>
    </g>
    <!-- fractional 32-4 (hist=16) -->
    <g transform="translate(55.920432 286.650355) scale(0.09 -0.09)">
     <use xlink:href="#DejaVuSans-Bold-66"/>
     <use xlink:href="#DejaVuSans-Bold-72" transform="translate(43.505859 0)"/>
     <use xlink:href="#DejaVuSans-Bold-61" transform="translate(92.822266 0)"/>
     <use xlink:href="#DejaVuSans-Bold-63" transform="translate(160.302734 0)"/>
     <use xlink:href="#DejaVuSans-Bold-74" transform="translate(219.580078 0)"/>
     <use xlink:href="#DejaVuSans-Bold-69" transform="translate(267.382812 0)"/>
     <use xlink:href="#DejaVuSans-Bold-6f" transform="translate(301.660156 0)"/>
     <use xlink:href="#DejaVuSans-Bold-6e" transform="translate(370.361328 0)"/>
     <use xlink:href="#DejaVuSans-Bold-61" transform="translate(441.552734 0)"/>
     <use xlink:href="#DejaVuSans-Bold-6c" transform="translate(509.033203 0)"/>
     <use xlink:href="#DejaVuSans-Bold-20" transform="translate(543.310547 0)"/>
     <use xlink:href="#DejaVuSans-Bold-33" transform="translate(578.125 0)"/>
     <use xlink:href="#DejaVuSans-Bold-32" transform="translate(647.705078 0)"/>
     <use xlink:href="#DejaVuSans-Bold-2d" transform="translate(717.285156 0)"/>
     <use xlink:href="#DejaVuSans-Bold-34" transform="translate(758.789062 0)"/>
     <use xlink:href="#DejaVuSans-Bold-20" transform="translate(828.369141 0)"/>
     <use xlink:href="#DejaVuSans-Bold-28" transform="translate(863.183594 0)"/>
     <use xlink:href="#DejaVuSans-Bold-68" transform="translate(908.886719 0)"/>
     <use xlink:href="#DejaVuSans-Bold-69" transform="translate(980.078125 0)"/>
     <use xlink:href="#DejaVuSans-Bold-73" transform="translate(1014.355469 0)"/>
     <use xlink:href="#DejaVuSans-Bold-74" transform="translate(1073.876953 0)"/>
     <use xlink:href="#DejaVuSans-Bold-3d" transform="translate(1121.679688 0)"/>
     <use xlink:href="#DejaVuSans-Bold-31" transform="translate(1205.46875 0)"/>
     <use xlink:href="#DejaVuSans-Bold-36" transform="translate(1275.048828 0)"/>
     <use xlink:href="#DejaVuSans-Bold-29" transform="translate(1344.628906 0)"/>
    </g>
   </g>
   <g id="PathCollection_3">
    <g clip-path="url(#p81b40a3ad8)">
     <use xlink:href="#m657e5360a3" x="759.279797" y="275.599694" style="fill: #e69f00; stroke: #000000; stroke-width: 0.5"/>
    </g>
   </g>
  </g>
  <g id="axes_4">
   <g id="patch_20">
    <path d="M 46.965625 523.41452 
L 793.19952 523.41452 
L 793.19952 401.48625 
L 46.965625 401.48625 
z
" style="fill: #ffffff"/>
   </g>
   <g id="matplotlib.axis_7">
    <g id="xtick_16">
     <g id="line2d_55">
      <path d="M 188.71436 523.41452 
L 188.71436 401.48625 
" clip-path="url(#p9d43deaa1c)" style="fill: none; stroke: #b0b0b0; stroke-opacity: 0.3; stroke-width: 0.8; stroke-linecap: square"/>
     </g>
     <g id="line2d_56">
      <g>
       <use xlink:href="#m37329a178e" x="188.71436" y="523.41452" style="stroke: #000000; stroke-width: 0.8"/>
      </g>
     </g>
    </g>
    <g id="xtick_17">
     <g id="line2d_57">
      <path d="M 331.534244 523.41452 
L 331.534244 401.48625 
" clip-path="url(#p9d43deaa1c)" style="fill: none; stroke: #b0b0b0; stroke-opacity: 0.3; stroke-width: 0.8; stroke-linecap: square"/>
     </g>
     <g id="line2d_58">
      <g>
       <use xlink:href="#m37329a178e" x="331.534244" y="523.41452" style="stroke: #000000; stroke-width: 0.8"/>
      </g>
     </g>
    </g>
    <g id="xtick_18">
     <g id="line2d_59">
      <path d="M 474.354128 523.41452 
L 474.354128 401.48625 
" clip-path="url(#p9d43deaa1c)" style="fill: none; stroke: #b0b0b0; stroke-opacity: 0.3; stroke-width: 0.8; stroke-linecap: square"/>
     </g>
     <g id="line2d_60">
      <g>
       <use xlink:href="#m37329a178e" x="474.354128" y="523.41452" style="stroke: #000000; stroke-width: 0.8"/>
      </g>
     </g>
    </g>
    <g id="xtick_19">
     <g id="line2d_61">
      <path d="M 617.174013 523.41452 
L 617.174013 401.48625 
" clip-path="url(#p9d43deaa1c)" style="fill: none; stroke: #b0b0b0; stroke-opacity: 0.3; stroke-width: 0.8; stroke-linecap: square"/>
     </g>
     <g id="line2d_62">
      <g>
       <use xlink:href="#m37329a178e" x="617.174013" y="523.41452" style="stroke: #000000; stroke-width: 0.8"/>
      </g>
     </g>
    </g>
    <g id="xtick_20">
     <g id="line2d_63">
      <path d="M 759.993897 523.41452 
L 759.993897 401.48625 
" clip-path="url(#p9d43deaa1c)" style="fill: none; stroke: #b0b0b0; stroke-opacity: 0.3; stroke-width: 0.8; stroke-linecap: square"/>
     </g>
     <g id="line2d_64">
      <g>
       <use xlink:href="#m37329a178e" x="759.993897" y="523.41452" style="stroke: #000000; stroke-width: 0.8"/>
      </g>
     </g>
    </g>
   </g>
   <g id="matplotlib.axis_8">
    <g id="ytick_10">
     <g id="line2d_65">
      <path d="M 46.965625 495.70355 
L 793.19952 495.70355 
" clip-path="url(#p9d43deaa1c)" style="fill: none; stroke: #b0b0b0; stroke-opacity: 0.3; stroke-width: 0.8; stroke-linecap: square"/>
     </g>
     <g id="line2d_66">
      <g>
       <use xlink:href="#m96b6deb163" x="46.965625" y="495.70355" style="stroke: #000000; stroke-width: 0.8"/>
      </g>
     </g>
     <g id="text_16">
      <!-- 100 -->
      <g transform="translate(20.878125 499.502768) scale(0.1 -0.1)">
       <use xlink:href="#DejaVuSans-31"/>
       <use xlink:href="#DejaVuSans-30" transform="translate(63.623047 0)"/>
       <use xlink:href="#DejaVuSans-30" transform="translate(127.246094 0)"/>
      </g>
     </g>
    </g>
    <g id="ytick_11">
     <g id="line2d_67">
      <path d="M 46.965625 451.365997 
L 793.19952 451.365997 
" clip-path="url(#p9d43deaa1c)" style="fill: none; stroke: #b0b0b0; stroke-opacity: 0.3; stroke-width: 0.8; stroke-linecap: square"/>
     </g>
     <g id="line2d_68">
      <g>
       <use xlink:href="#m96b6deb163" x="46.965625" y="451.365997" style="stroke: #000000; stroke-width: 0.8"/>
      </g>
     </g>
     <g id="text_17">
      <!-- 300 -->
      <g transform="translate(20.878125 455.165216) scale(0.1 -0.1)">
       <use xlink:href="#DejaVuSans-33"/>
       <use xlink:href="#DejaVuSans-30" transform="translate(63.623047 0)"/>
       <use xlink:href="#DejaVuSans-30" transform="translate(127.246094 0)"/>
      </g>
     </g>
    </g>
    <g id="ytick_12">
     <g id="line2d_69">
      <path d="M 46.965625 407.028444 
L 793.19952 407.028444 
" clip-path="url(#p9d43deaa1c)" style="fill: none; stroke: #b0b0b0; stroke-opacity: 0.3; stroke-width: 0.8; stroke-linecap: square"/>
     </g>
     <g id="line2d_70">
      <g>
       <use xlink:href="#m96b6deb163" x="46.965625" y="407.028444" style="stroke: #000000; stroke-width: 0.8"/>
      </g>
     </g>
     <g id="text_18">
      <!-- 500 -->
      <g transform="translate(20.878125 410.827663) scale(0.1 -0.1)">
       <use xlink:href="#DejaVuSans-35"/>
       <use xlink:href="#DejaVuSans-30" transform="translate(63.623047 0)"/>
       <use xlink:href="#DejaVuSans-30" transform="translate(127.246094 0)"/>
      </g>
     </g>
    </g>
    <g id="text_19">
     <!-- Reward -->
     <g transform="translate(14.798437 481.071479) rotate(-90) scale(0.1 -0.1)">
      <use xlink:href="#DejaVuSans-52"/>
      <use xlink:href="#DejaVuSans-65" transform="translate(64.982422 0)"/>
      <use xlink:href="#DejaVuSans-77" transform="translate(126.505859 0)"/>
      <use xlink:href="#DejaVuSans-61" transform="translate(208.292969 0)"/>
      <use xlink:href="#DejaVuSans-72" transform="translate(269.572266 0)"/>
      <use xlink:href="#DejaVuSans-64" transform="translate(308.935547 0)"/>
     </g>
    </g>
   </g>
   <g id="patch_21">
    <path d="M 46.965625 523.41452 
L 46.965625 401.48625 
" style="fill: none; stroke: #000000; stroke-width: 0.8; stroke-linejoin: miter; stroke-linecap: square"/>
   </g>
   <g id="patch_22">
    <path d="M 793.19952 523.41452 
L 793.19952 401.48625 
" style="fill: none; stroke: #000000; stroke-width: 0.8; stroke-linejoin: miter; stroke-linecap: square"/>
   </g>
   <g id="patch_23">
    <path d="M 46.965625 523.41452 
L 793.19952 523.41452 
" style="fill: none; stroke: #000000; stroke-width: 0.8; stroke-linejoin: miter; stroke-linecap: square"/>
   </g>
   <g id="patch_24">
    <path d="M 46.965625 401.48625 
L 793.19952 401.48625 
" style="fill: none; stroke: #000000; stroke-width: 0.8; stroke-linejoin: miter; stroke-linecap: square"/>
   </g>
   <g id="line2d_71">
    <path d="M 80.885347 515.81063 
L 115.876219 515.81063 
L 116.590319 514.731749 
L 151.58119 514.731749 
L 152.29529 511.931094 
L 187.286161 511.931094 
L 188.000261 499.86389 
L 222.991132 499.86389 
L 223.705232 483.074737 
L 258.696103 483.074737 
L 259.410203 493.531009 
L 294.401074 493.531009 
L 295.115174 515.389423 
L 330.106045 515.389423 
L 330.820145 515.6185 
L 365.811016 515.6185 
L 366.525116 505.856849 
L 401.515988 505.856849 
L 402.230087 496.2356 
L 437.220959 496.2356 
L 437.935058 495.8809 
L 472.92593 495.8809 
L 473.640029 496.080419 
L 508.630901 496.080419 
L 509.345 474.8649 
L 544.335872 474.8649 
L 545.049971 486.570014 
L 580.040843 486.570014 
L 580.754942 496.287327 
L 615.745814 496.287327 
L 616.459913 481.944129 
L 651.450785 481.944129 
L 652.164884 458.681693 
L 687.155756 458.681693 
L 687.869855 407.028444 
L 759.279797 407.028444 
L 759.279797 407.028444 
" clip-path="url(#p9d43deaa1c)" style="fill: none; stroke: #cc79a7; stroke-width: 1.6; stroke-linecap: round"/>
   </g>
   <g id="line2d_72">
    <path d="M 80.885347 515.81063 
L 115.876219 515.81063 
L 116.590319 514.731749 
L 151.58119 514.731749 
L 152.29529 511.931094 
L 187.286161 511.931094 
L 188.000261 499.86389 
L 222.991132 499.86389 
L 223.705232 483.074737 
L 508.630901 483.074737 
L 509.345 474.8649 
L 651.450785 474.8649 
L 652.164884 458.681693 
L 687.155756 458.681693 
L 687.869855 407.028444 
L 759.279797 407.028444 
L 759.279797 407.028444 
" clip-path="url(#p9d43deaa1c)" style="fill: none; stroke-dasharray: 3.7,1.6; stroke-dashoffset: 0; stroke: #d55e00; stroke-opacity: 0.9"/>
   </g>
   <g id="text_20">
    <g id="patch_25">
     <path d="M 53.940432 422.001137 
L 116.931994 422.001137 
L 116.931994 409.260512 
L 53.940432 409.260512 
z
" style="fill: #ffffff; opacity: 0.8"/>
    </g>
    <!-- leaky 32-16 -->
    <g transform="translate(55.920432 418.079105) scale(0.09 -0.09)">
     <defs>
      <path id="DejaVuSans-Bold-6b" d="M 538 4863 
L 1656 4863 
L 1656 2216 
L 2944 3500 
L 4244 3500 
L 2534 1894 
L 4378 0 
L 3022 0 
L 1656 1459 
L 1656 0 
L 538 0 
L 538 4863 
z
" transform="scale(0.015625)"/>
     </defs>
     <use xlink:href="#DejaVuSans-Bold-6c"/>
     <use xlink:href="#DejaVuSans-Bold-65" transform="translate(34.277344 0)"/>
     <use xlink:href="#DejaVuSans-Bold-61" transform="translate(102.099609 0)"/>
     <use xlink:href="#DejaVuSans-Bold-6b" transform="translate(169.580078 0)"/>
     <use xlink:href="#DejaVuSans-Bold-79" transform="translate(236.083984 0)"/>
     <use xlink:href="#DejaVuSans-Bold-20" transform="translate(301.269531 0)"/>
     <use xlink:href="#DejaVuSans-Bold-33" transform="translate(336.083984 0)"/>
     <use xlink:href="#DejaVuSans-Bold-32" transform="translate(405.664062 0)"/>
     <use xlink:href="#DejaVuSans-Bold-2d" transform="translate(475.244141 0)"/>
     <use xlink:href="#DejaVuSans-Bold-31" transform="translate(516.748047 0)"/>
     <use xlink:href="#DejaVuSans-Bold-36" transform="translate(586.328125 0)"/>
    </g>
   </g>
   <g id="PathCollection_4">
    <g clip-path="url(#p9d43deaa1c)">
     <use xlink:href="#m657e5360a3" x="687.869855" y="407.028444" style="fill: #e69f00; stroke: #000000; stroke-width: 0.5"/>
    </g>
   </g>
  </g>
  <g id="axes_5">
   <g id="patch_26">
    <path d="M 46.965625 654.84327 
L 793.19952 654.84327 
L 793.19952 532.915 
L 46.965625 532.915 
z
" style="fill: #ffffff"/>
   </g>
   <g id="matplotlib.axis_9">
    <g id="xtick_21">
     <g id="line2d_73">
      <path d="M 188.71436 654.84327 
L 188.71436 532.915 
" clip-path="url(#p3b4ad65180)" style="fill: none; stroke: #b0b0b0; stroke-opacity: 0.3; stroke-width: 0.8; stroke-linecap: square"/>
     </g>
     <g id="line2d_74">
      <g>
       <use xlink:href="#m37329a178e" x="188.71436" y="654.84327" style="stroke: #000000; stroke-width: 0.8"/>
      </g>
     </g>
     <g id="text_21">
      <!-- 200 -->
      <g transform="translate(179.17061 669.441707) scale(0.1 -0.1)">
       <defs>
        <path id="DejaVuSans-32" d="M 1228 531 
L 3431 531 
L 3431 0 
L 469 0 
L 469 531 
Q 828 903 1448 1529 
Q 2069 2156 2228 2338 
Q 2531 2678 2651 2914 
Q 2772 3150 2772 3378 
Q 2772 3750 2511 3984 
Q 2250 4219 1831 4219 
Q 1534 4219 1204 4116 
Q 875 4013 500 3803 
L 500 4441 
Q 881 4594 1212 4672 
Q 1544 4750 1819 4750 
Q 2544 4750 2975 4387 
Q 3406 4025 3406 3419 
Q 3406 3131 3298 2873 
Q 3191 2616 2906 2266 
Q 2828 2175 2409 1742 
Q 1991 1309 1228 531 
z
" transform="scale(0.015625)"/>
       </defs>
       <use xlink:href="#DejaVuSans-32"/>
       <use xlink:href="#DejaVuSans-30" transform="translate(63.623047 0)"/>
       <use xlink:href="#DejaVuSans-30" transform="translate(127.246094 0)"/>
      </g>
     </g>
    </g>
    <g id="xtick_22">
     <g id="line2d_75">
      <path d="M 331.534244 654.84327 
L 331.534244 532.915 
" clip-path="url(#p3b4ad65180)" style="fill: none; stroke: #b0b0b0; stroke-opacity: 0.3; stroke-width: 0.8; stroke-linecap: square"/>
     </g>
     <g id="line2d_76">
      <g>
       <use xlink:href="#m37329a178e" x="331.534244" y="654.84327" style="stroke: #000000; stroke-width: 0.8"/>
      </g>
     </g>
     <g id="text_22">
      <!-- 400 -->
      <g transform="translate(321.990494 669.441707) scale(0.1 -0.1)">
       <defs>
        <path id="DejaVuSans-34" d="M 2419 4116 
L 825 1625 
L 2419 1625 
L 2419 4116 
z
M 2253 4666 
L 3047 4666 
L 3047 1625 
L 3713 1625 
L 3713 1100 
L 3047 1100 
L 3047 0 
L 2419 0 
L 2419 1100 
L 313 1100 
L 313 1709 
L 2253 4666 
z
" transform="scale(0.015625)"/>
       </defs>
       <use xlink:href="#DejaVuSans-34"/>
       <use xlink:href="#DejaVuSans-30" transform="translate(63.623047 0)"/>
       <use xlink:href="#DejaVuSans-30" transform="translate(127.246094 0)"/>
      </g>
     </g>
    </g>
    <g id="xtick_23">
     <g id="line2d_77">
      <path d="M 474.354128 654.84327 
L 474.354128 532.915 
" clip-path="url(#p3b4ad65180)" style="fill: none; stroke: #b0b0b0; stroke-opacity: 0.3; stroke-width: 0.8; stroke-linecap: square"/>
     </g>
     <g id="line2d_78">
      <g>
       <use xlink:href="#m37329a178e" x="474.354128" y="654.84327" style="stroke: #000000; stroke-width: 0.8"/>
      </g>
     </g>
     <g id="text_23">
      <!-- 600 -->
      <g transform="translate(464.810378 669.441707) scale(0.1 -0.1)">
       <defs>
        <path id="DejaVuSans-36" d="M 2113 2584 
Q 1688 2584 1439 2293 
Q 1191 2003 1191 1497 
Q 1191 994 1439 701 
Q 1688 409 2113 409 
Q 2538 409 2786 701 
Q 3034 994 3034 1497 
Q 3034 2003 2786 2293 
Q 2538 2584 2113 2584 
z
M 3366 4563 
L 3366 3988 
Q 3128 4100 2886 4159 
Q 2644 4219 2406 4219 
Q 1781 4219 1451 3797 
Q 1122 3375 1075 2522 
Q 1259 2794 1537 2939 
Q 1816 3084 2150 3084 
Q 2853 3084 3261 2657 
Q 3669 2231 3669 1497 
Q 3669 778 3244 343 
Q 2819 -91 2113 -91 
Q 1303 -91 875 529 
Q 447 1150 447 2328 
Q 447 3434 972 4092 
Q 1497 4750 2381 4750 
Q 2619 4750 2861 4703 
Q 3103 4656 3366 4563 
z
" transform="scale(0.015625)"/>
       </defs>
       <use xlink:href="#DejaVuSans-36"/>
       <use xlink:href="#DejaVuSans-30" transform="translate(63.623047 0)"/>
       <use xlink:href="#DejaVuSans-30" transform="translate(127.246094 0)"/>
      </g>
     </g>
    </g>
    <g id="xtick_24">
     <g id="line2d_79">
      <path d="M 617.174013 654.84327 
L 617.174013 532.915 
" clip-path="url(#p3b4ad65180)" style="fill: none; stroke: #b0b0b0; stroke-opacity: 0.3; stroke-width: 0.8; stroke-linecap: square"/>
     </g>
     <g id="line2d_80">
      <g>
       <use xlink:href="#m37329a178e" x="617.174013" y="654.84327" style="stroke: #000000; stroke-width: 0.8"/>
      </g>
     </g>
     <g id="text_24">
      <!-- 800 -->
      <g transform="translate(607.630263 669.441707) scale(0.1 -0.1)">
       <defs>
        <path id="DejaVuSans-38" d="M 2034 2216 
Q 1584 2216 1326 1975 
Q 1069 1734 1069 1313 
Q 1069 891 1326 650 
Q 1584 409 2034 409 
Q 2484 409 2743 651 
Q 3003 894 3003 1313 
Q 3003 1734 2745 1975 
Q 2488 2216 2034 2216 
z
M 1403 2484 
Q 997 2584 770 2862 
Q 544 3141 544 3541 
Q 544 4100 942 4425 
Q 1341 4750 2034 4750 
Q 2731 4750 3128 4425 
Q 3525 4100 3525 3541 
Q 3525 3141 3298 2862 
Q 3072 2584 2669 2484 
Q 3125 2378 3379 2068 
Q 3634 1759 3634 1313 
Q 3634 634 3220 271 
Q 2806 -91 2034 -91 
Q 1263 -91 848 271 
Q 434 634 434 1313 
Q 434 1759 690 2068 
Q 947 2378 1403 2484 
z
M 1172 3481 
Q 1172 3119 1398 2916 
Q 1625 2713 2034 2713 
Q 2441 2713 2670 2916 
Q 2900 3119 2900 3481 
Q 2900 3844 2670 4047 
Q 2441 4250 2034 4250 
Q 1625 4250 1398 4047 
Q 1172 3844 1172 3481 
z
" transform="scale(0.015625)"/>
       </defs>
       <use xlink:href="#DejaVuSans-38"/>
       <use xlink:href="#DejaVuSans-30" transform="translate(63.623047 0)"/>
       <use xlink:href="#DejaVuSans-30" transform="translate(127.246094 0)"/>
      </g>
     </g>
    </g>
    <g id="xtick_25">
     <g id="line2d_81">
      <path d="M 759.993897 654.84327 
L 759.993897 532.915 
" clip-path="url(#p3b4ad65180)" style="fill: none; stroke: #b0b0b0; stroke-opacity: 0.3; stroke-width: 0.8; stroke-linecap: square"/>
     </g>
     <g id="line2d_82">
      <g>
       <use xlink:href="#m37329a178e" x="759.993897" y="654.84327" style="stroke: #000000; stroke-width: 0.8"/>
      </g>
     </g>
     <g id="text_25">
      <!-- 1000 -->
      <g transform="translate(747.268897 669.441707) scale(0.1 -0.1)">
       <use xlink:href="#DejaVuSans-31"/>
       <use xlink:href="#DejaVuSans-30" transform="translate(63.623047 0)"/>
       <use xlink:href="#DejaVuSans-30" transform="translate(127.246094 0)"/>
       <use xlink:href="#DejaVuSans-30" transform="translate(190.869141 0)"/>
      </g>
     </g>
    </g>
    <g id="text_26">
     <!-- Episode -->
     <g transform="translate(400.445072 683.119832) scale(0.1 -0.1)">
      <defs>
       <path id="DejaVuSans-45" d="M 628 4666 
L 3578 4666 
L 3578 4134 
L 1259 4134 
L 1259 2753 
L 3481 2753 
L 3481 2222 
L 1259 2222 
L 1259 531 
L 3634 531 
L 3634 0 
L 628 0 
L 628 4666 
z
" transform="scale(0.015625)"/>
       <path id="DejaVuSans-70" d="M 1159 525 
L 1159 -1331 
L 581 -1331 
L 581 3500 
L 1159 3500 
L 1159 2969 
Q 1341 3281 1617 3432 
Q 1894 3584 2278 3584 
Q 2916 3584 3314 3078 
Q 3713 2572 3713 1747 
Q 3713 922 3314 415 
Q 2916 -91 2278 -91 
Q 1894 -91 1617 61 
Q 1341 213 1159 525 
z
M 3116 1747 
Q 3116 2381 2855 2742 
Q 2594 3103 2138 3103 
Q 1681 3103 1420 2742 
Q 1159 2381 1159 1747 
Q 1159 1113 1420 752 
Q 1681 391 2138 391 
Q 2594 391 2855 752 
Q 3116 1113 3116 1747 
z
" transform="scale(0.015625)"/>
       <path id="DejaVuSans-69" d="M 603 3500 
L 1178 3500 
L 1178 0 
L 603 0 
L 603 3500 
z
M 603 4863 
L 1178 4863 
L 1178 4134 
L 603 4134 
L 603 4863 
z
" transform="scale(0.015625)"/>
       <path id="DejaVuSans-73" d="M 2834 3397 
L 2834 2853 
Q 2591 2978 2328 3040 
Q 2066 3103 1784 3103 
Q 1356 3103 1142 2972 
Q 928 2841 928 2578 
Q 928 2378 1081 2264 
Q 1234 2150 1697 2047 
L 1894 2003 
Q 2506 1872 2764 1633 
Q 3022 1394 3022 966 
Q 3022 478 2636 193 
Q 2250 -91 1575 -91 
Q 1294 -91 989 -36 
Q 684 19 347 128 
L 347 722 
Q 666 556 975 473 
Q 1284 391 1588 391 
Q 1994 391 2212 530 
Q 2431 669 2431 922 
Q 2431 1156 2273 1281 
Q 2116 1406 1581 1522 
L 1381 1569 
Q 847 1681 609 1914 
Q 372 2147 372 2553 
Q 372 3047 722 3315 
Q 1072 3584 1716 3584 
Q 2034 3584 2315 3537 
Q 2597 3491 2834 3397 
z
" transform="scale(0.015625)"/>
       <path id="DejaVuSans-6f" d="M 1959 3097 
Q 1497 3097 1228 2736 
Q 959 2375 959 1747 
Q 959 1119 1226 758 
Q 1494 397 1959 397 
Q 2419 397 2687 759 
Q 2956 1122 2956 1747 
Q 2956 2369 2687 2733 
Q 2419 3097 1959 3097 
z
M 1959 3584 
Q 2709 3584 3137 3096 
Q 3566 2609 3566 1747 
Q 3566 888 3137 398 
Q 2709 -91 1959 -91 
Q 1206 -91 779 398 
Q 353 888 353 1747 
Q 353 2609 779 3096 
Q 1206 3584 1959 3584 
z
" transform="scale(0.015625)"/>
      </defs>
      <use xlink:href="#DejaVuSans-45"/>
      <use xlink:href="#DejaVuSans-70" transform="translate(63.183594 0)"/>
      <use xlink:href="#DejaVuSans-69" transform="translate(126.660156 0)"/>
      <use xlink:href="#DejaVuSans-73" transform="translate(154.443359 0)"/>
      <use xlink:href="#DejaVuSans-6f" transform="translate(206.542969 0)"/>
      <use xlink:href="#DejaVuSans-64" transform="translate(267.724609 0)"/>
      <use xlink:href="#DejaVuSans-65" transform="translate(331.201172 0)"/>
     </g>
    </g>
   </g>
   <g id="matplotlib.axis_10">
    <g id="ytick_13">
     <g id="line2d_83">
      <path d="M 46.965625 627.1323 
L 793.19952 627.1323 
" clip-path="url(#p3b4ad65180)" style="fill: none; stroke: #b0b0b0; stroke-opacity: 0.3; stroke-width: 0.8; stroke-linecap: square"/>
     </g>
     <g id="line2d_84">
      <g>
       <use xlink:href="#m96b6deb163" x="46.965625" y="627.1323" style="stroke: #000000; stroke-width: 0.8"/>
      </g>
     </g>
     <g id="text_27">
      <!-- 100 -->
      <g transform="translate(20.878125 630.931518) scale(0.1 -0.1)">
       <use xlink:href="#DejaVuSans-31"/>
       <use xlink:href="#DejaVuSans-30" transform="translate(63.623047 0)"/>
       <use xlink:href="#DejaVuSans-30" transform="translate(127.246094 0)"/>
      </g>
     </g>
    </g>
    <g id="ytick_14">
     <g id="line2d_85">
      <path d="M 46.965625 582.794747 
L 793.19952 582.794747 
" clip-path="url(#p3b4ad65180)" style="fill: none; stroke: #b0b0b0; stroke-opacity: 0.3; stroke-width: 0.8; stroke-linecap: square"/>
     </g>
     <g id="line2d_86">
      <g>
       <use xlink:href="#m96b6deb163" x="46.965625" y="582.794747" style="stroke: #000000; stroke-width: 0.8"/>
      </g>
     </g>
     <g id="text_28">
      <!-- 300 -->
      <g transform="translate(20.878125 586.593966) scale(0.1 -0.1)">
       <use xlink:href="#DejaVuSans-33"/>
       <use xlink:href="#DejaVuSans-30" transform="translate(63.623047 0)"/>
       <use xlink:href="#DejaVuSans-30" transform="translate(127.246094 0)"/>
      </g>
     </g>
    </g>
    <g id="ytick_15">
     <g id="line2d_87">
      <path d="M 46.965625 538.457194 
L 793.19952 538.457194 
" clip-path="url(#p3b4ad65180)" style="fill: none; stroke: #b0b0b0; stroke-opacity: 0.3; stroke-width: 0.8; stroke-linecap: square"/>
     </g>
     <g id="line2d_88">
      <g>
       <use xlink:href="#m96b6deb163" x="46.965625" y="538.457194" style="stroke: #000000; stroke-width: 0.8"/>
      </g>
     </g>
     <g id="text_29">
      <!-- 500 -->
      <g transform="translate(20.878125 542.256413) scale(0.1 -0.1)">
       <use xlink:href="#DejaVuSans-35"/>
       <use xlink:href="#DejaVuSans-30" transform="translate(63.623047 0)"/>
       <use xlink:href="#DejaVuSans-30" transform="translate(127.246094 0)"/>
      </g>
     </g>
    </g>
    <g id="text_30">
     <!-- Reward -->
     <g transform="translate(14.798437 612.500229) rotate(-90) scale(0.1 -0.1)">
      <use xlink:href="#DejaVuSans-52"/>
      <use xlink:href="#DejaVuSans-65" transform="translate(64.982422 0)"/>
      <use xlink:href="#DejaVuSans-77" transform="translate(126.505859 0)"/>
      <use xlink:href="#DejaVuSans-61" transform="translate(208.292969 0)"/>
      <use xlink:href="#DejaVuSans-72" transform="translate(269.572266 0)"/>
      <use xlink:href="#DejaVuSans-64" transform="translate(308.935547 0)"/>
     </g>
    </g>
   </g>
   <g id="patch_27">
    <path d="M 46.965625 654.84327 
L 46.965625 532.915 
" style="fill: none; stroke: #000000; stroke-width: 0.8; stroke-linejoin: miter; stroke-linecap: square"/>
   </g>
   <g id="patch_28">
    <path d="M 793.19952 654.84327 
L 793.19952 532.915 
" style="fill: none; stroke: #000000; stroke-width: 0.8; stroke-linejoin: miter; stroke-linecap: square"/>
   </g>
   <g id="patch_29">
    <path d="M 46.965625 654.84327 
L 793.19952 654.84327 
" style="fill: none; stroke: #000000; stroke-width: 0.8; stroke-linejoin: miter; stroke-linecap: square"/>
   </g>
   <g id="patch_30">
    <path d="M 46.965625 532.915 
L 793.19952 532.915 
" style="fill: none; stroke: #000000; stroke-width: 0.8; stroke-linejoin: miter; stroke-linecap: square"/>
   </g>
   <g id="line2d_89">
    <path d="M 80.885347 646.921627 
L 115.876219 646.921627 
L 116.590319 646.278733 
L 151.58119 646.278733 
L 152.29529 631.336977 
L 187.286161 631.336977 
L 188.000261 624.715903 
L 222.991132 624.715903 
L 223.705232 618.050491 
L 258.696103 618.050491 
L 259.410203 639.923684 
L 294.401074 639.923684 
L 295.115174 627.272702 
L 330.106045 627.272702 
L 330.820145 613.143802 
L 365.811016 613.143802 
L 366.525116 625.077993 
L 401.515988 625.077993 
L 402.230087 645.680176 
L 437.220959 645.680176 
L 437.935058 540.88098 
L 472.92593 540.88098 
L 473.640029 602.997892 
L 508.630901 602.997892 
L 509.345 558.394314 
L 544.335872 558.394314 
L 545.049971 539.580412 
L 580.040843 539.580412 
L 580.754942 538.457194 
L 759.279797 538.457194 
L 759.279797 538.457194 
" clip-path="url(#p3b4ad65180)" style="fill: none; stroke: #56b4e9; stroke-width: 1.6; stroke-linecap: round"/>
   </g>
   <g id="line2d_90">
    <path d="M 80.885347 646.921627 
L 115.876219 646.921627 
L 116.590319 646.278733 
L 151.58119 646.278733 
L 152.29529 631.336977 
L 187.286161 631.336977 
L 188.000261 624.715903 
L 222.991132 624.715903 
L 223.705232 618.050491 
L 330.106045 618.050491 
L 330.820145 613.143802 
L 437.220959 613.143802 
L 437.935058 540.88098 
L 544.335872 540.88098 
L 545.049971 539.580412 
L 580.040843 539.580412 
L 580.754942 538.457194 
L 759.279797 538.457194 
L 759.279797 538.457194 
" clip-path="url(#p3b4ad65180)" style="fill: none; stroke-dasharray: 3.7,1.6; stroke-dashoffset: 0; stroke: #d55e00; stroke-opacity: 0.9"/>
   </g>
   <g id="text_31">
    <g id="patch_31">
     <path d="M 53.940432 553.429887 
L 116.931994 553.429887 
L 116.931994 540.689262 
L 53.940432 540.689262 
z
" style="fill: #ffffff; opacity: 0.8"/>
    </g>
    <!-- leaky 64-16 -->
    <g transform="translate(55.920432 549.507855) scale(0.09 -0.09)">
     <use xlink:href="#DejaVuSans-Bold-6c"/>
     <use xlink:href="#DejaVuSans-Bold-65" transform="translate(34.277344 0)"/>
     <use xlink:href="#DejaVuSans-Bold-61" transform="translate(102.099609 0)"/>
     <use xlink:href="#DejaVuSans-Bold-6b" transform="translate(169.580078 0)"/>
     <use xlink:href="#DejaVuSans-Bold-79" transform="translate(236.083984 0)"/>
     <use xlink:href="#DejaVuSans-Bold-20" transform="translate(301.269531 0)"/>
     <use xlink:href="#DejaVuSans-Bold-36" transform="translate(336.083984 0)"/>
     <use xlink:href="#DejaVuSans-Bold-34" transform="translate(405.664062 0)"/>
     <use xlink:href="#DejaVuSans-Bold-2d" transform="translate(475.244141 0)"/>
     <use xlink:href="#DejaVuSans-Bold-31" transform="translate(516.748047 0)"/>
     <use xlink:href="#DejaVuSans-Bold-36" transform="translate(586.328125 0)"/>
    </g>
   </g>
   <g id="PathCollection_5">
    <g clip-path="url(#p3b4ad65180)">
     <use xlink:href="#m657e5360a3" x="580.754942" y="538.457194" style="fill: #e69f00; stroke: #000000; stroke-width: 0.5"/>
    </g>
   </g>
   <g id="legend_1">
    <g id="patch_32">
     <path d="M 597.58327 650.84327 
L 787.59952 650.84327 
Q 789.19952 650.84327 789.19952 649.24327 
L 789.19952 614.81577 
Q 789.19952 613.21577 787.59952 613.21577 
L 597.58327 613.21577 
Q 595.98327 613.21577 595.98327 614.81577 
L 595.98327 649.24327 
Q 595.98327 650.84327 597.58327 650.84327 
z
" style="fill: #ffffff; opacity: 0.9; stroke: #cccccc; stroke-linejoin: miter"/>
    </g>
    <g id="line2d_91">
     <path d="M 599.18327 619.69452 
L 607.18327 619.69452 
L 615.18327 619.69452 
" style="fill: none; stroke: #555555; stroke-width: 1.6; stroke-linecap: square"/>
    </g>
    <g id="text_32">
     <!-- Generalization mean -->
     <g transform="translate(621.58327 622.49452) scale(0.08 -0.08)">
      <defs>
       <path id="DejaVuSans-47" d="M 3809 666 
L 3809 1919 
L 2778 1919 
L 2778 2438 
L 4434 2438 
L 4434 434 
Q 4069 175 3628 42 
Q 3188 -91 2688 -91 
Q 1594 -91 976 548 
Q 359 1188 359 2328 
Q 359 3472 976 4111 
Q 1594 4750 2688 4750 
Q 3144 4750 3555 4637 
Q 3966 4525 4313 4306 
L 4313 3634 
Q 3963 3931 3569 4081 
Q 3175 4231 2741 4231 
Q 1884 4231 1454 3753 
Q 1025 3275 1025 2328 
Q 1025 1384 1454 906 
Q 1884 428 2741 428 
Q 3075 428 3337 486 
Q 3600 544 3809 666 
z
" transform="scale(0.015625)"/>
       <path id="DejaVuSans-6e" d="M 3513 2113 
L 3513 0 
L 2938 0 
L 2938 2094 
Q 2938 2591 2744 2837 
Q 2550 3084 2163 3084 
Q 1697 3084 1428 2787 
Q 1159 2491 1159 1978 
L 1159 0 
L 581 0 
L 581 3500 
L 1159 3500 
L 1159 2956 
Q 1366 3272 1645 3428 
Q 1925 3584 2291 3584 
Q 2894 3584 3203 3211 
Q 3513 2838 3513 2113 
z
" transform="scale(0.015625)"/>
       <path id="DejaVuSans-6c" d="M 603 4863 
L 1178 4863 
L 1178 0 
L 603 0 
L 603 4863 
z
" transform="scale(0.015625)"/>
       <path id="DejaVuSans-7a" d="M 353 3500 
L 3084 3500 
L 3084 2975 
L 922 459 
L 3084 459 
L 3084 0 
L 275 0 
L 275 525 
L 2438 3041 
L 353 3041 
L 353 3500 
z
" transform="scale(0.015625)"/>
       <path id="DejaVuSans-74" d="M 1172 4494 
L 1172 3500 
L 2356 3500 
L 2356 3053 
L 1172 3053 
L 1172 1153 
Q 1172 725 1289 603 
Q 1406 481 1766 481 
L 2356 481 
L 2356 0 
L 1766 0 
Q 1100 0 847 248 
Q 594 497 594 1153 
L 594 3053 
L 172 3053 
L 172 3500 
L 594 3500 
L 594 4494 
L 1172 4494 
z
" transform="scale(0.015625)"/>
       <path id="DejaVuSans-20" transform="scale(0.015625)"/>
       <path id="DejaVuSans-6d" d="M 3328 2828 
Q 3544 3216 3844 3400 
Q 4144 3584 4550 3584 
Q 5097 3584 5394 3201 
Q 5691 2819 5691 2113 
L 5691 0 
L 5113 0 
L 5113 2094 
Q 5113 2597 4934 2840 
Q 4756 3084 4391 3084 
Q 3944 3084 3684 2787 
Q 3425 2491 3425 1978 
L 3425 0 
L 2847 0 
L 2847 2094 
Q 2847 2600 2669 2842 
Q 2491 3084 2119 3084 
Q 1678 3084 1418 2786 
Q 1159 2488 1159 1978 
L 1159 0 
L 581 0 
L 581 3500 
L 1159 3500 
L 1159 2956 
Q 1356 3278 1631 3431 
Q 1906 3584 2284 3584 
Q 2666 3584 2933 3390 
Q 3200 3197 3328 2828 
z
" transform="scale(0.015625)"/>
      </defs>
      <use xlink:href="#DejaVuSans-47"/>
      <use xlink:href="#DejaVuSans-65" transform="translate(77.490234 0)"/>
      <use xlink:href="#DejaVuSans-6e" transform="translate(139.013672 0)"/>
      <use xlink:href="#DejaVuSans-65" transform="translate(202.392578 0)"/>
      <use xlink:href="#DejaVuSans-72" transform="translate(263.916016 0)"/>
      <use xlink:href="#DejaVuSans-61" transform="translate(305.029297 0)"/>
      <use xlink:href="#DejaVuSans-6c" transform="translate(366.308594 0)"/>
      <use xlink:href="#DejaVuSans-69" transform="translate(394.091797 0)"/>
      <use xlink:href="#DejaVuSans-7a" transform="translate(421.875 0)"/>
      <use xlink:href="#DejaVuSans-61" transform="translate(474.365234 0)"/>
      <use xlink:href="#DejaVuSans-74" transform="translate(535.644531 0)"/>
      <use xlink:href="#DejaVuSans-69" transform="translate(574.853516 0)"/>
      <use xlink:href="#DejaVuSans-6f" transform="translate(602.636719 0)"/>
      <use xlink:href="#DejaVuSans-6e" transform="translate(663.818359 0)"/>
      <use xlink:href="#DejaVuSans-20" transform="translate(727.197266 0)"/>
      <use xlink:href="#DejaVuSans-6d" transform="translate(758.984375 0)"/>
      <use xlink:href="#DejaVuSans-65" transform="translate(856.396484 0)"/>
      <use xlink:href="#DejaVuSans-61" transform="translate(917.919922 0)"/>
      <use xlink:href="#DejaVuSans-6e" transform="translate(979.199219 0)"/>
     </g>
    </g>
    <g id="line2d_92">
     <path d="M 599.18327 631.43702 
L 607.18327 631.43702 
L 615.18327 631.43702 
" style="fill: none; stroke-dasharray: 3.7,1.6; stroke-dashoffset: 0; stroke: #d55e00"/>
    </g>
    <g id="text_33">
     <!-- Best generalization to date -->
     <g transform="translate(621.58327 634.23702) scale(0.08 -0.08)">
      <defs>
       <path id="DejaVuSans-42" d="M 1259 2228 
L 1259 519 
L 2272 519 
Q 2781 519 3026 730 
Q 3272 941 3272 1375 
Q 3272 1813 3026 2020 
Q 2781 2228 2272 2228 
L 1259 2228 
z
M 1259 4147 
L 1259 2741 
L 2194 2741 
Q 2656 2741 2882 2914 
Q 3109 3088 3109 3444 
Q 3109 3797 2882 3972 
Q 2656 4147 2194 4147 
L 1259 4147 
z
M 628 4666 
L 2241 4666 
Q 2963 4666 3353 4366 
Q 3744 4066 3744 3513 
Q 3744 3084 3544 2831 
Q 3344 2578 2956 2516 
Q 3422 2416 3680 2098 
Q 3938 1781 3938 1306 
Q 3938 681 3513 340 
Q 3088 0 2303 0 
L 628 0 
L 628 4666 
z
" transform="scale(0.015625)"/>
       <path id="DejaVuSans-67" d="M 2906 1791 
Q 2906 2416 2648 2759 
Q 2391 3103 1925 3103 
Q 1463 3103 1205 2759 
Q 947 2416 947 1791 
Q 947 1169 1205 825 
Q 1463 481 1925 481 
Q 2391 481 2648 825 
Q 2906 1169 2906 1791 
z
M 3481 434 
Q 3481 -459 3084 -895 
Q 2688 -1331 1869 -1331 
Q 1566 -1331 1297 -1286 
Q 1028 -1241 775 -1147 
L 775 -588 
Q 1028 -725 1275 -790 
Q 1522 -856 1778 -856 
Q 2344 -856 2625 -561 
Q 2906 -266 2906 331 
L 2906 616 
Q 2728 306 2450 153 
Q 2172 0 1784 0 
Q 1141 0 747 490 
Q 353 981 353 1791 
Q 353 2603 747 3093 
Q 1141 3584 1784 3584 
Q 2172 3584 2450 3431 
Q 2728 3278 2906 2969 
L 2906 3500 
L 3481 3500 
L 3481 434 
z
" transform="scale(0.015625)"/>
      </defs>
      <use xlink:href="#DejaVuSans-42"/>
      <use xlink:href="#DejaVuSans-65" transform="translate(68.603516 0)"/>
      <use xlink:href="#DejaVuSans-73" transform="translate(130.126953 0)"/>
      <use xlink:href="#DejaVuSans-74" transform="translate(182.226562 0)"/>
      <use xlink:href="#DejaVuSans-20" transform="translate(221.435547 0)"/>
      <use xlink:href="#DejaVuSans-67" transform="translate(253.222656 0)"/>
      <use xlink:href="#DejaVuSans-65" transform="translate(316.699219 0)"/>
      <use xlink:href="#DejaVuSans-6e" transform="translate(378.222656 0)"/>
      <use xlink:href="#DejaVuSans-65" transform="translate(441.601562 0)"/>
      <use xlink:href="#DejaVuSans-72" transform="translate(503.125 0)"/>
      <use xlink:href="#DejaVuSans-61" transform="translate(544.238281 0)"/>
      <use xlink:href="#DejaVuSans-6c" transform="translate(605.517578 0)"/>
      <use xlink:href="#DejaVuSans-69" transform="translate(633.300781 0)"/>
      <use xlink:href="#DejaVuSans-7a" transform="translate(661.083984 0)"/>
      <use xlink:href="#DejaVuSans-61" transform="translate(713.574219 0)"/>
      <use xlink:href="#DejaVuSans-74" transform="translate(774.853516 0)"/>
      <use xlink:href="#DejaVuSans-69" transform="translate(814.0625 0)"/>
      <use xlink:href="#DejaVuSans-6f" transform="translate(841.845703 0)"/>
      <use xlink:href="#DejaVuSans-6e" transform="translate(903.027344 0)"/>
      <use xlink:href="#DejaVuSans-20" transform="translate(966.40625 0)"/>
      <use xlink:href="#DejaVuSans-74" transform="translate(998.193359 0)"/>
      <use xlink:href="#DejaVuSans-6f" transform="translate(1037.402344 0)"/>
      <use xlink:href="#DejaVuSans-20" transform="translate(1098.583984 0)"/>
      <use xlink:href="#DejaVuSans-64" transform="translate(1130.371094 0)"/>
      <use xlink:href="#DejaVuSans-61" transform="translate(1193.847656 0)"/>
      <use xlink:href="#DejaVuSans-74" transform="translate(1255.126953 0)"/>
      <use xlink:href="#DejaVuSans-65" transform="translate(1294.335938 0)"/>
     </g>
    </g>
    <g id="line2d_93">
     <defs>
      <path id="md2cbf9ecff" d="M 0 -3.5 
L -3.5 3.5 
L 3.5 3.5 
z
" style="stroke: #000000; stroke-width: 0.5; stroke-linejoin: miter"/>
     </defs>
     <g>
      <use xlink:href="#md2cbf9ecff" x="607.18327" y="643.17952" style="fill: #e69f00; stroke: #000000; stroke-width: 0.5; stroke-linejoin: miter"/>
     </g>
    </g>
    <g id="text_34">
     <!-- Best generalization model saved (= 500) -->
     <g transform="translate(621.58327 645.97952) scale(0.08 -0.08)">
      <defs>
       <path id="DejaVuSans-76" d="M 191 3500 
L 800 3500 
L 1894 563 
L 2988 3500 
L 3597 3500 
L 2284 0 
L 1503 0 
L 191 3500 
z
" transform="scale(0.015625)"/>
       <path id="DejaVuSans-28" d="M 1984 4856 
Q 1566 4138 1362 3434 
Q 1159 2731 1159 2009 
Q 1159 1288 1364 580 
Q 1569 -128 1984 -844 
L 1484 -844 
Q 1016 -109 783 600 
Q 550 1309 550 2009 
Q 550 2706 781 3412 
Q 1013 4119 1484 4856 
L 1984 4856 
z
" transform="scale(0.015625)"/>
       <path id="DejaVuSans-3d" d="M 678 2906 
L 4684 2906 
L 4684 2381 
L 678 2381 
L 678 2906 
z
M 678 1631 
L 4684 1631 
L 4684 1100 
L 678 1100 
L 678 1631 
z
" transform="scale(0.015625)"/>
       <path id="DejaVuSans-29" d="M 513 4856 
L 1013 4856 
Q 1481 4119 1714 3412 
Q 1947 2706 1947 2009 
Q 1947 1309 1714 600 
Q 1481 -109 1013 -844 
L 513 -844 
Q 928 -128 1133 580 
Q 1338 1288 1338 2009 
Q 1338 2731 1133 3434 
Q 928 4138 513 4856 
z
" transform="scale(0.015625)"/>
      </defs>
      <use xlink:href="#DejaVuSans-42"/>
      <use xlink:href="#DejaVuSans-65" transform="translate(68.603516 0)"/>
      <use xlink:href="#DejaVuSans-73" transform="translate(130.126953 0)"/>
      <use xlink:href="#DejaVuSans-74" transform="translate(182.226562 0)"/>
      <use xlink:href="#DejaVuSans-20" transform="translate(221.435547 0)"/>
      <use xlink:href="#DejaVuSans-67" transform="translate(253.222656 0)"/>
      <use xlink:href="#DejaVuSans-65" transform="translate(316.699219 0)"/>
      <use xlink:href="#DejaVuSans-6e" transform="translate(378.222656 0)"/>
      <use xlink:href="#DejaVuSans-65" transform="translate(441.601562 0)"/>
      <use xlink:href="#DejaVuSans-72" transform="translate(503.125 0)"/>
      <use xlink:href="#DejaVuSans-61" transform="translate(544.238281 0)"/>
      <use xlink:href="#DejaVuSans-6c" transform="translate(605.517578 0)"/>
      <use xlink:href="#DejaVuSans-69" transform="translate(633.300781 0)"/>
      <use xlink:href="#DejaVuSans-7a" transform="translate(661.083984 0)"/>
      <use xlink:href="#DejaVuSans-61" transform="translate(713.574219 0)"/>
      <use xlink:href="#DejaVuSans-74" transform="translate(774.853516 0)"/>
      <use xlink:href="#DejaVuSans-69" transform="translate(814.0625 0)"/>
      <use xlink:href="#DejaVuSans-6f" transform="translate(841.845703 0)"/>
      <use xlink:href="#DejaVuSans-6e" transform="translate(903.027344 0)"/>
      <use xlink:href="#DejaVuSans-20" transform="translate(966.40625 0)"/>
      <use xlink:href="#DejaVuSans-6d" transform="translate(998.193359 0)"/>
      <use xlink:href="#DejaVuSans-6f" transform="translate(1095.605469 0)"/>
      <use xlink:href="#DejaVuSans-64" transform="translate(1156.787109 0)"/>
      <use xlink:href="#DejaVuSans-65" transform="translate(1220.263672 0)"/>
      <use xlink:href="#DejaVuSans-6c" transform="translate(1281.787109 0)"/>
      <use xlink:href="#DejaVuSans-20" transform="translate(1309.570312 0)"/>
      <use xlink:href="#DejaVuSans-73" transform="translate(1341.357422 0)"/>
      <use xlink:href="#DejaVuSans-61" transform="translate(1393.457031 0)"/>
      <use xlink:href="#DejaVuSans-76" transform="translate(1454.736328 0)"/>
      <use xlink:href="#DejaVuSans-65" transform="translate(1513.916016 0)"/>
      <use xlink:href="#DejaVuSans-64" transform="translate(1575.439453 0)"/>
      <use xlink:href="#DejaVuSans-20" transform="translate(1638.916016 0)"/>
      <use xlink:href="#DejaVuSans-28" transform="translate(1670.703125 0)"/>
      <use xlink:href="#DejaVuSans-3d" transform="translate(1709.716797 0)"/>
      <use xlink:href="#DejaVuSans-20" transform="translate(1793.505859 0)"/>
      <use xlink:href="#DejaVuSans-35" transform="translate(1825.292969 0)"/>
      <use xlink:href="#DejaVuSans-30" transform="translate(1888.916016 0)"/>
      <use xlink:href="#DejaVuSans-30" transform="translate(1952.539062 0)"/>
      <use xlink:href="#DejaVuSans-29" transform="translate(2016.162109 0)"/>
     </g>
    </g>
   </g>
  </g>
 </g>
 <defs>
  <clipPath id="p31564b02a4">
   <rect x="46.965625" y="7.2" width="746.233895" height="121.92827"/>
  </clipPath>
  <clipPath id="p7ad1ba1a91">
   <rect x="46.965625" y="138.62875" width="746.233895" height="121.92827"/>
  </clipPath>
  <clipPath id="p81b40a3ad8">
   <rect x="46.965625" y="270.0575" width="746.233895" height="121.92827"/>
  </clipPath>
  <clipPath id="p9d43deaa1c">
   <rect x="46.965625" y="401.48625" width="746.233895" height="121.92827"/>
  </clipPath>
  <clipPath id="p3b4ad65180">
   <rect x="46.965625" y="532.915" width="746.233895" height="121.92827"/>
  </clipPath>
 </defs>
</svg>
