<?xml version="1.0" encoding="utf-8" standalone="no"?>
<!DOCTYPE svg PUBLIC "-//W3C//DTD SVG 1.1//EN"
  "http://www.w3.org/Graphics/SVG/1.1/DTD/svg11.dtd">
<svg xmlns:xlink="http://www.w3.org/1999/xlink" width="512.39952pt" height="317.99952pt" viewBox="0 0 512.39952 317.99952" xmlns="http://www.w3.org/2000/svg" version="1.1">
 <metadata>
  <rdf:RDF xmlns:dc="http://purl.org/dc/elements/1.1/" xmlns:cc="http://creativecommons.org/ns#" xmlns:rdf="http://www.w3.org/1999/02/22-rdf-syntax-ns#">
   <cc:Work>
    <dc:type rdf:resource="http://purl.org/dc/dcmitype/StillImage"/>
    <dc:date>2026-05-07T08:43:03.290289</dc:date>
    <dc:format>image/svg+xml</dc:format>
    <dc:creator>
     <cc:Agent>
      <dc:title>Matplotlib v3.10.8, https://matplotlib.org/</dc:title>
     </cc:Agent>
    </dc:creator>
   </cc:Work>
  </rdf:RDF>
 </metadata>
 <defs>
  <style type="text/css">*{stroke-linejoin: round; stroke-linecap: butt}</style>
 </defs>
 <g id="figure_1">
  <g id="patch_1">
   <path d="M 0 317.99952 
L 512.39952 317.99952 
L 512.39952 0 
L 0 0 
z
" style="fill: #ffffff"/>
  </g>
  <g id="axes_1">
   <g id="patch_2">
    <path d="M 46.965625 280.44327 
L 505.19952 280.44327 
L 505.19952 7.2 
L 46.965625 7.2 
z
" style="fill: #ffffff"/>
   </g>
   <g id="matplotlib.axis_1">
    <g id="xtick_1">
     <g id="line2d_1">
      <path d="M 114.543553 280.44327 
L 114.543553 7.2 
" clip-path="url(#p9a5775c54f)" style="fill: none; stroke: #b0b0b0; stroke-opacity: 0.3; stroke-width: 0.8; stroke-linecap: square"/>
     </g>
     <g id="line2d_2">
      <defs>
       <path id="m4f4f2bbe8f" d="M 0 0 
L 0 3.5 
" style="stroke: #000000; stroke-width: 0.8"/>
      </defs>
      <g>
       <use xlink:href="#m4f4f2bbe8f" x="114.543553" y="280.44327" style="stroke: #000000; stroke-width: 0.8"/>
      </g>
     </g>
     <g id="text_1">
      <!-- 200 -->
      <g transform="translate(104.999803 295.041707) scale(0.1 -0.1)">
       <defs>
        <path id="DejaVuSans-32" d="M 1228 531 
L 3431 531 
L 3431 0 
L 469 0 
L 469 531 
Q 828 903 1448 1529 
Q 2069 2156 2228 2338 
Q 2531 2678 2651 2914 
Q 2772 3150 2772 3378 
Q 2772 3750 2511 3984 
Q 2250 4219 1831 4219 
Q 1534 4219 1204 4116 
Q 875 4013 500 3803 
L 500 4441 
Q 881 4594 1212 4672 
Q 1544 4750 1819 4750 
Q 2544 4750 2975 4387 
Q 3406 4025 3406 3419 
Q 3406 3131 3298 2873 
Q 3191 2616 2906 2266 
Q 2828 2175 2409 1742 
Q 1991 1309 1228 531 
z
" transform="scale(0.015625)"/>
        <path id="DejaVuSans-30" d="M 2034 4250 
Q 1547 4250 1301 3770 
Q 1056 3291 1056 2328 
Q 1056 1369 1301 889 
Q 1547 409 2034 409 
Q 2525 409 2770 889 
Q 3016 1369 3016 2328 
Q 3016 3291 2770 3770 
Q 2525 4250 2034 4250 
z
M 2034 4750 
Q 2819 4750 3233 4129 
Q 3647 3509 3647 2328 
Q 3647 1150 3233 529 
Q 2819 -91 2034 -91 
Q 1250 -91 836 529 
Q 422 1150 422 2328 
Q 422 3509 836 4129 
Q 1250 4750 2034 4750 
z
" transform="scale(0.015625)"/>
       </defs>
       <use xlink:href="#DejaVuSans-32"/>
       <use xlink:href="#DejaVuSans-30" transform="translate(63.623047 0)"/>
       <use xlink:href="#DejaVuSans-30" transform="translate(127.246094 0)"/>
      </g>
     </g>
    </g>
    <g id="xtick_2">
     <g id="line2d_3">
      <path d="M 207.116057 280.44327 
L 207.116057 7.2 
" clip-path="url(#p9a5775c54f)" style="fill: none; stroke: #b0b0b0; stroke-opacity: 0.3; stroke-width: 0.8; stroke-linecap: square"/>
     </g>
     <g id="line2d_4">
      <g>
       <use xlink:href="#m4f4f2bbe8f" x="207.116057" y="280.44327" style="stroke: #000000; stroke-width: 0.8"/>
      </g>
     </g>
     <g id="text_2">
      <!-- 400 -->
      <g transform="translate(197.572307 295.041707) scale(0.1 -0.1)">
       <defs>
        <path id="DejaVuSans-34" d="M 2419 4116 
L 825 1625 
L 2419 1625 
L 2419 4116 
z
M 2253 4666 
L 3047 4666 
L 3047 1625 
L 3713 1625 
L 3713 1100 
L 3047 1100 
L 3047 0 
L 2419 0 
L 2419 1100 
L 313 1100 
L 313 1709 
L 2253 4666 
z
" transform="scale(0.015625)"/>
       </defs>
       <use xlink:href="#DejaVuSans-34"/>
       <use xlink:href="#DejaVuSans-30" transform="translate(63.623047 0)"/>
       <use xlink:href="#DejaVuSans-30" transform="translate(127.246094 0)"/>
      </g>
     </g>
    </g>
    <g id="xtick_3">
     <g id="line2d_5">
      <path d="M 299.688561 280.44327 
L 299.688561 7.2 
" clip-path="url(#p9a5775c54f)" style="fill: none; stroke: #b0b0b0; stroke-opacity: 0.3; stroke-width: 0.8; stroke-linecap: square"/>
     </g>
     <g id="line2d_6">
      <g>
       <use xlink:href="#m4f4f2bbe8f" x="299.688561" y="280.44327" style="stroke: #000000; stroke-width: 0.8"/>
      </g>
     </g>
     <g id="text_3">
      <!-- 600 -->
      <g transform="translate(290.144811 295.041707) scale(0.1 -0.1)">
       <defs>
        <path id="DejaVuSans-36" d="M 2113 2584 
Q 1688 2584 1439 2293 
Q 1191 2003 1191 1497 
Q 1191 994 1439 701 
Q 1688 409 2113 409 
Q 2538 409 2786 701 
Q 3034 994 3034 1497 
Q 3034 2003 2786 2293 
Q 2538 2584 2113 2584 
z
M 3366 4563 
L 3366 3988 
Q 3128 4100 2886 4159 
Q 2644 4219 2406 4219 
Q 1781 4219 1451 3797 
Q 1122 3375 1075 2522 
Q 1259 2794 1537 2939 
Q 1816 3084 2150 3084 
Q 2853 3084 3261 2657 
Q 3669 2231 3669 1497 
Q 3669 778 3244 343 
Q 2819 -91 2113 -91 
Q 1303 -91 875 529 
Q 447 1150 447 2328 
Q 447 3434 972 4092 
Q 1497 4750 2381 4750 
Q 2619 4750 2861 4703 
Q 3103 4656 3366 4563 
z
" transform="scale(0.015625)"/>
       </defs>
       <use xlink:href="#DejaVuSans-36"/>
       <use xlink:href="#DejaVuSans-30" transform="translate(63.623047 0)"/>
       <use xlink:href="#DejaVuSans-30" transform="translate(127.246094 0)"/>
      </g>
     </g>
    </g>
    <g id="xtick_4">
     <g id="line2d_7">
      <path d="M 392.261065 280.44327 
L 392.261065 7.2 
" clip-path="url(#p9a5775c54f)" style="fill: none; stroke: #b0b0b0; stroke-opacity: 0.3; stroke-width: 0.8; stroke-linecap: square"/>
     </g>
     <g id="line2d_8">
      <g>
       <use xlink:href="#m4f4f2bbe8f" x="392.261065" y="280.44327" style="stroke: #000000; stroke-width: 0.8"/>
      </g>
     </g>
     <g id="text_4">
      <!-- 800 -->
      <g transform="translate(382.717315 295.041707) scale(0.1 -0.1)">
       <defs>
        <path id="DejaVuSans-38" d="M 2034 2216 
Q 1584 2216 1326 1975 
Q 1069 1734 1069 1313 
Q 1069 891 1326 650 
Q 1584 409 2034 409 
Q 2484 409 2743 651 
Q 3003 894 3003 1313 
Q 3003 1734 2745 1975 
Q 2488 2216 2034 2216 
z
M 1403 2484 
Q 997 2584 770 2862 
Q 544 3141 544 3541 
Q 544 4100 942 4425 
Q 1341 4750 2034 4750 
Q 2731 4750 3128 4425 
Q 3525 4100 3525 3541 
Q 3525 3141 3298 2862 
Q 3072 2584 2669 2484 
Q 3125 2378 3379 2068 
Q 3634 1759 3634 1313 
Q 3634 634 3220 271 
Q 2806 -91 2034 -91 
Q 1263 -91 848 271 
Q 434 634 434 1313 
Q 434 1759 690 2068 
Q 947 2378 1403 2484 
z
M 1172 3481 
Q 1172 3119 1398 2916 
Q 1625 2713 2034 2713 
Q 2441 2713 2670 2916 
Q 2900 3119 2900 3481 
Q 2900 3844 2670 4047 
Q 2441 4250 2034 4250 
Q 1625 4250 1398 4047 
Q 1172 3844 1172 3481 
z
" transform="scale(0.015625)"/>
       </defs>
       <use xlink:href="#DejaVuSans-38"/>
       <use xlink:href="#DejaVuSans-30" transform="translate(63.623047 0)"/>
       <use xlink:href="#DejaVuSans-30" transform="translate(127.246094 0)"/>
      </g>
     </g>
    </g>
    <g id="xtick_5">
     <g id="line2d_9">
      <path d="M 484.833569 280.44327 
L 484.833569 7.2 
" clip-path="url(#p9a5775c54f)" style="fill: none; stroke: #b0b0b0; stroke-opacity: 0.3; stroke-width: 0.8; stroke-linecap: square"/>
     </g>
     <g id="line2d_10">
      <g>
       <use xlink:href="#m4f4f2bbe8f" x="484.833569" y="280.44327" style="stroke: #000000; stroke-width: 0.8"/>
      </g>
     </g>
     <g id="text_5">
      <!-- 1000 -->
      <g transform="translate(472.108569 295.041707) scale(0.1 -0.1)">
       <defs>
        <path id="DejaVuSans-31" d="M 794 531 
L 1825 531 
L 1825 4091 
L 703 3866 
L 703 4441 
L 1819 4666 
L 2450 4666 
L 2450 531 
L 3481 531 
L 3481 0 
L 794 0 
L 794 531 
z
" transform="scale(0.015625)"/>
       </defs>
       <use xlink:href="#DejaVuSans-31"/>
       <use xlink:href="#DejaVuSans-30" transform="translate(63.623047 0)"/>
       <use xlink:href="#DejaVuSans-30" transform="translate(127.246094 0)"/>
       <use xlink:href="#DejaVuSans-30" transform="translate(190.869141 0)"/>
      </g>
     </g>
    </g>
    <g id="text_6">
     <!-- Episode -->
     <g transform="translate(256.445073 308.719832) scale(0.1 -0.1)">
      <defs>
       <path id="DejaVuSans-45" d="M 628 4666 
L 3578 4666 
L 3578 4134 
L 1259 4134 
L 1259 2753 
L 3481 2753 
L 3481 2222 
L 1259 2222 
L 1259 531 
L 3634 531 
L 3634 0 
L 628 0 
L 628 4666 
z
" transform="scale(0.015625)"/>
       <path id="DejaVuSans-70" d="M 1159 525 
L 1159 -1331 
L 581 -1331 
L 581 3500 
L 1159 3500 
L 1159 2969 
Q 1341 3281 1617 3432 
Q 1894 3584 2278 3584 
Q 2916 3584 3314 3078 
Q 3713 2572 3713 1747 
Q 3713 922 3314 415 
Q 2916 -91 2278 -91 
Q 1894 -91 1617 61 
Q 1341 213 1159 525 
z
M 3116 1747 
Q 3116 2381 2855 2742 
Q 2594 3103 2138 3103 
Q 1681 3103 1420 2742 
Q 1159 2381 1159 1747 
Q 1159 1113 1420 752 
Q 1681 391 2138 391 
Q 2594 391 2855 752 
Q 3116 1113 3116 1747 
z
" transform="scale(0.015625)"/>
       <path id="DejaVuSans-69" d="M 603 3500 
L 1178 3500 
L 1178 0 
L 603 0 
L 603 3500 
z
M 603 4863 
L 1178 4863 
L 1178 4134 
L 603 4134 
L 603 4863 
z
" transform="scale(0.015625)"/>
       <path id="DejaVuSans-73" d="M 2834 3397 
L 2834 2853 
Q 2591 2978 2328 3040 
Q 2066 3103 1784 3103 
Q 1356 3103 1142 2972 
Q 928 2841 928 2578 
Q 928 2378 1081 2264 
Q 1234 2150 1697 2047 
L 1894 2003 
Q 2506 1872 2764 1633 
Q 3022 1394 3022 966 
Q 3022 478 2636 193 
Q 2250 -91 1575 -91 
Q 1294 -91 989 -36 
Q 684 19 347 128 
L 347 722 
Q 666 556 975 473 
Q 1284 391 1588 391 
Q 1994 391 2212 530 
Q 2431 669 2431 922 
Q 2431 1156 2273 1281 
Q 2116 1406 1581 1522 
L 1381 1569 
Q 847 1681 609 1914 
Q 372 2147 372 2553 
Q 372 3047 722 3315 
Q 1072 3584 1716 3584 
Q 2034 3584 2315 3537 
Q 2597 3491 2834 3397 
z
" transform="scale(0.015625)"/>
       <path id="DejaVuSans-6f" d="M 1959 3097 
Q 1497 3097 1228 2736 
Q 959 2375 959 1747 
Q 959 1119 1226 758 
Q 1494 397 1959 397 
Q 2419 397 2687 759 
Q 2956 1122 2956 1747 
Q 2956 2369 2687 2733 
Q 2419 3097 1959 3097 
z
M 1959 3584 
Q 2709 3584 3137 3096 
Q 3566 2609 3566 1747 
Q 3566 888 3137 398 
Q 2709 -91 1959 -91 
Q 1206 -91 779 398 
Q 353 888 353 1747 
Q 353 2609 779 3096 
Q 1206 3584 1959 3584 
z
" transform="scale(0.015625)"/>
       <path id="DejaVuSans-64" d="M 2906 2969 
L 2906 4863 
L 3481 4863 
L 3481 0 
L 2906 0 
L 2906 525 
Q 2725 213 2448 61 
Q 2172 -91 1784 -91 
Q 1150 -91 751 415 
Q 353 922 353 1747 
Q 353 2572 751 3078 
Q 1150 3584 1784 3584 
Q 2172 3584 2448 3432 
Q 2725 3281 2906 2969 
z
M 947 1747 
Q 947 1113 1208 752 
Q 1469 391 1925 391 
Q 2381 391 2643 752 
Q 2906 1113 2906 1747 
Q 2906 2381 2643 2742 
Q 2381 3103 1925 3103 
Q 1469 3103 1208 2742 
Q 947 2381 947 1747 
z
" transform="scale(0.015625)"/>
       <path id="DejaVuSans-65" d="M 3597 1894 
L 3597 1613 
L 953 1613 
Q 991 1019 1311 708 
Q 1631 397 2203 397 
Q 2534 397 2845 478 
Q 3156 559 3463 722 
L 3463 178 
Q 3153 47 2828 -22 
Q 2503 -91 2169 -91 
Q 1331 -91 842 396 
Q 353 884 353 1716 
Q 353 2575 817 3079 
Q 1281 3584 2069 3584 
Q 2775 3584 3186 3129 
Q 3597 2675 3597 1894 
z
M 3022 2063 
Q 3016 2534 2758 2815 
Q 2500 3097 2075 3097 
Q 1594 3097 1305 2825 
Q 1016 2553 972 2059 
L 3022 2063 
z
" transform="scale(0.015625)"/>
      </defs>
      <use xlink:href="#DejaVuSans-45"/>
      <use xlink:href="#DejaVuSans-70" transform="translate(63.183594 0)"/>
      <use xlink:href="#DejaVuSans-69" transform="translate(126.660156 0)"/>
      <use xlink:href="#DejaVuSans-73" transform="translate(154.443359 0)"/>
      <use xlink:href="#DejaVuSans-6f" transform="translate(206.542969 0)"/>
      <use xlink:href="#DejaVuSans-64" transform="translate(267.724609 0)"/>
      <use xlink:href="#DejaVuSans-65" transform="translate(331.201172 0)"/>
     </g>
    </g>
   </g>
   <g id="matplotlib.axis_2">
    <g id="ytick_1">
     <g id="line2d_11">
      <path d="M 46.965625 273.611173 
L 505.19952 273.611173 
" clip-path="url(#p9a5775c54f)" style="fill: none; stroke: #b0b0b0; stroke-opacity: 0.3; stroke-width: 0.8; stroke-linecap: square"/>
     </g>
     <g id="line2d_12">
      <defs>
       <path id="mdba8fecc8a" d="M 0 0 
L -3.5 0 
" style="stroke: #000000; stroke-width: 0.8"/>
      </defs>
      <g>
       <use xlink:href="#mdba8fecc8a" x="46.965625" y="273.611173" style="stroke: #000000; stroke-width: 0.8"/>
      </g>
     </g>
     <g id="text_7">
      <!-- 0 -->
      <g transform="translate(33.603125 277.410392) scale(0.1 -0.1)">
       <use xlink:href="#DejaVuSans-30"/>
      </g>
     </g>
    </g>
    <g id="ytick_2">
     <g id="line2d_13">
      <path d="M 46.965625 225.765683 
L 505.19952 225.765683 
" clip-path="url(#p9a5775c54f)" style="fill: none; stroke: #b0b0b0; stroke-opacity: 0.3; stroke-width: 0.8; stroke-linecap: square"/>
     </g>
     <g id="line2d_14">
      <g>
       <use xlink:href="#mdba8fecc8a" x="46.965625" y="225.765683" style="stroke: #000000; stroke-width: 0.8"/>
      </g>
     </g>
     <g id="text_8">
      <!-- 100 -->
      <g transform="translate(20.878125 229.564902) scale(0.1 -0.1)">
       <use xlink:href="#DejaVuSans-31"/>
       <use xlink:href="#DejaVuSans-30" transform="translate(63.623047 0)"/>
       <use xlink:href="#DejaVuSans-30" transform="translate(127.246094 0)"/>
      </g>
     </g>
    </g>
    <g id="ytick_3">
     <g id="line2d_15">
      <path d="M 46.965625 177.920193 
L 505.19952 177.920193 
" clip-path="url(#p9a5775c54f)" style="fill: none; stroke: #b0b0b0; stroke-opacity: 0.3; stroke-width: 0.8; stroke-linecap: square"/>
     </g>
     <g id="line2d_16">
      <g>
       <use xlink:href="#mdba8fecc8a" x="46.965625" y="177.920193" style="stroke: #000000; stroke-width: 0.8"/>
      </g>
     </g>
     <g id="text_9">
      <!-- 200 -->
      <g transform="translate(20.878125 181.719411) scale(0.1 -0.1)">
       <use xlink:href="#DejaVuSans-32"/>
       <use xlink:href="#DejaVuSans-30" transform="translate(63.623047 0)"/>
       <use xlink:href="#DejaVuSans-30" transform="translate(127.246094 0)"/>
      </g>
     </g>
    </g>
    <g id="ytick_4">
     <g id="line2d_17">
      <path d="M 46.965625 130.074702 
L 505.19952 130.074702 
" clip-path="url(#p9a5775c54f)" style="fill: none; stroke: #b0b0b0; stroke-opacity: 0.3; stroke-width: 0.8; stroke-linecap: square"/>
     </g>
     <g id="line2d_18">
      <g>
       <use xlink:href="#mdba8fecc8a" x="46.965625" y="130.074702" style="stroke: #000000; stroke-width: 0.8"/>
      </g>
     </g>
     <g id="text_10">
      <!-- 300 -->
      <g transform="translate(20.878125 133.873921) scale(0.1 -0.1)">
       <defs>
        <path id="DejaVuSans-33" d="M 2597 2516 
Q 3050 2419 3304 2112 
Q 3559 1806 3559 1356 
Q 3559 666 3084 287 
Q 2609 -91 1734 -91 
Q 1441 -91 1130 -33 
Q 819 25 488 141 
L 488 750 
Q 750 597 1062 519 
Q 1375 441 1716 441 
Q 2309 441 2620 675 
Q 2931 909 2931 1356 
Q 2931 1769 2642 2001 
Q 2353 2234 1838 2234 
L 1294 2234 
L 1294 2753 
L 1863 2753 
Q 2328 2753 2575 2939 
Q 2822 3125 2822 3475 
Q 2822 3834 2567 4026 
Q 2313 4219 1838 4219 
Q 1578 4219 1281 4162 
Q 984 4106 628 3988 
L 628 4550 
Q 988 4650 1302 4700 
Q 1616 4750 1894 4750 
Q 2613 4750 3031 4423 
Q 3450 4097 3450 3541 
Q 3450 3153 3228 2886 
Q 3006 2619 2597 2516 
z
" transform="scale(0.015625)"/>
       </defs>
       <use xlink:href="#DejaVuSans-33"/>
       <use xlink:href="#DejaVuSans-30" transform="translate(63.623047 0)"/>
       <use xlink:href="#DejaVuSans-30" transform="translate(127.246094 0)"/>
      </g>
     </g>
    </g>
    <g id="ytick_5">
     <g id="line2d_19">
      <path d="M 46.965625 82.229212 
L 505.19952 82.229212 
" clip-path="url(#p9a5775c54f)" style="fill: none; stroke: #b0b0b0; stroke-opacity: 0.3; stroke-width: 0.8; stroke-linecap: square"/>
     </g>
     <g id="line2d_20">
      <g>
       <use xlink:href="#mdba8fecc8a" x="46.965625" y="82.229212" style="stroke: #000000; stroke-width: 0.8"/>
      </g>
     </g>
     <g id="text_11">
      <!-- 400 -->
      <g transform="translate(20.878125 86.028431) scale(0.1 -0.1)">
       <use xlink:href="#DejaVuSans-34"/>
       <use xlink:href="#DejaVuSans-30" transform="translate(63.623047 0)"/>
       <use xlink:href="#DejaVuSans-30" transform="translate(127.246094 0)"/>
      </g>
     </g>
    </g>
    <g id="ytick_6">
     <g id="line2d_21">
      <path d="M 46.965625 34.383722 
L 505.19952 34.383722 
" clip-path="url(#p9a5775c54f)" style="fill: none; stroke: #b0b0b0; stroke-opacity: 0.3; stroke-width: 0.8; stroke-linecap: square"/>
     </g>
     <g id="line2d_22">
      <g>
       <use xlink:href="#mdba8fecc8a" x="46.965625" y="34.383722" style="stroke: #000000; stroke-width: 0.8"/>
      </g>
     </g>
     <g id="text_12">
      <!-- 500 -->
      <g transform="translate(20.878125 38.18294) scale(0.1 -0.1)">
       <defs>
        <path id="DejaVuSans-35" d="M 691 4666 
L 3169 4666 
L 3169 4134 
L 1269 4134 
L 1269 2991 
Q 1406 3038 1543 3061 
Q 1681 3084 1819 3084 
Q 2600 3084 3056 2656 
Q 3513 2228 3513 1497 
Q 3513 744 3044 326 
Q 2575 -91 1722 -91 
Q 1428 -91 1123 -41 
Q 819 9 494 109 
L 494 744 
Q 775 591 1075 516 
Q 1375 441 1709 441 
Q 2250 441 2565 725 
Q 2881 1009 2881 1497 
Q 2881 1984 2565 2268 
Q 2250 2553 1709 2553 
Q 1456 2553 1204 2497 
Q 953 2441 691 2322 
L 691 4666 
z
" transform="scale(0.015625)"/>
       </defs>
       <use xlink:href="#DejaVuSans-35"/>
       <use xlink:href="#DejaVuSans-30" transform="translate(63.623047 0)"/>
       <use xlink:href="#DejaVuSans-30" transform="translate(127.246094 0)"/>
      </g>
     </g>
    </g>
    <g id="text_13">
     <!-- Reward -->
     <g transform="translate(14.798437 162.442729) rotate(-90) scale(0.1 -0.1)">
      <defs>
       <path id="DejaVuSans-52" d="M 2841 2188 
Q 3044 2119 3236 1894 
Q 3428 1669 3622 1275 
L 4263 0 
L 3584 0 
L 2988 1197 
Q 2756 1666 2539 1819 
Q 2322 1972 1947 1972 
L 1259 1972 
L 1259 0 
L 628 0 
L 628 4666 
L 2053 4666 
Q 2853 4666 3247 4331 
Q 3641 3997 3641 3322 
Q 3641 2881 3436 2590 
Q 3231 2300 2841 2188 
z
M 1259 4147 
L 1259 2491 
L 2053 2491 
Q 2509 2491 2742 2702 
Q 2975 2913 2975 3322 
Q 2975 3731 2742 3939 
Q 2509 4147 2053 4147 
L 1259 4147 
z
" transform="scale(0.015625)"/>
       <path id="DejaVuSans-77" d="M 269 3500 
L 844 3500 
L 1563 769 
L 2278 3500 
L 2956 3500 
L 3675 769 
L 4391 3500 
L 4966 3500 
L 4050 0 
L 3372 0 
L 2619 2869 
L 1863 0 
L 1184 0 
L 269 3500 
z
" transform="scale(0.015625)"/>
       <path id="DejaVuSans-61" d="M 2194 1759 
Q 1497 1759 1228 1600 
Q 959 1441 959 1056 
Q 959 750 1161 570 
Q 1363 391 1709 391 
Q 2188 391 2477 730 
Q 2766 1069 2766 1631 
L 2766 1759 
L 2194 1759 
z
M 3341 1997 
L 3341 0 
L 2766 0 
L 2766 531 
Q 2569 213 2275 61 
Q 1981 -91 1556 -91 
Q 1019 -91 701 211 
Q 384 513 384 1019 
Q 384 1609 779 1909 
Q 1175 2209 1959 2209 
L 2766 2209 
L 2766 2266 
Q 2766 2663 2505 2880 
Q 2244 3097 1772 3097 
Q 1472 3097 1187 3025 
Q 903 2953 641 2809 
L 641 3341 
Q 956 3463 1253 3523 
Q 1550 3584 1831 3584 
Q 2591 3584 2966 3190 
Q 3341 2797 3341 1997 
z
" transform="scale(0.015625)"/>
       <path id="DejaVuSans-72" d="M 2631 2963 
Q 2534 3019 2420 3045 
Q 2306 3072 2169 3072 
Q 1681 3072 1420 2755 
Q 1159 2438 1159 1844 
L 1159 0 
L 581 0 
L 581 3500 
L 1159 3500 
L 1159 2956 
Q 1341 3275 1631 3429 
Q 1922 3584 2338 3584 
Q 2397 3584 2469 3576 
Q 2541 3569 2628 3553 
L 2631 2963 
z
" transform="scale(0.015625)"/>
      </defs>
      <use xlink:href="#DejaVuSans-52"/>
      <use xlink:href="#DejaVuSans-65" transform="translate(64.982422 0)"/>
      <use xlink:href="#DejaVuSans-77" transform="translate(126.505859 0)"/>
      <use xlink:href="#DejaVuSans-61" transform="translate(208.292969 0)"/>
      <use xlink:href="#DejaVuSans-72" transform="translate(269.572266 0)"/>
      <use xlink:href="#DejaVuSans-64" transform="translate(308.935547 0)"/>
     </g>
    </g>
   </g>
   <g id="patch_3">
    <path d="M 46.965625 280.44327 
L 46.965625 7.2 
" style="fill: none; stroke: #000000; stroke-width: 0.8; stroke-linejoin: miter; stroke-linecap: square"/>
   </g>
   <g id="patch_4">
    <path d="M 505.19952 280.44327 
L 505.19952 7.2 
" style="fill: none; stroke: #000000; stroke-width: 0.8; stroke-linejoin: miter; stroke-linecap: square"/>
   </g>
   <g id="patch_5">
    <path d="M 46.965625 280.44327 
L 505.19952 280.44327 
" style="fill: none; stroke: #000000; stroke-width: 0.8; stroke-linejoin: miter; stroke-linecap: square"/>
   </g>
   <g id="patch_6">
    <path d="M 46.965625 7.2 
L 505.19952 7.2 
" style="fill: none; stroke: #000000; stroke-width: 0.8; stroke-linejoin: miter; stroke-linecap: square"/>
   </g>
   <g id="line2d_23">
    <path d="M 67.794438 265.300412 
L 71.960201 265.271704 
L 72.885926 265.10903 
L 73.811651 264.903294 
L 74.274514 264.707127 
L 75.200239 264.697558 
L 76.588826 264.530099 
L 80.291726 264.061213 
L 81.217451 264.123412 
L 83.994627 263.678449 
L 84.920352 263.377023 
L 87.234664 262.98469 
L 89.548977 261.879459 
L 91.863289 259.874733 
L 92.789015 259.27188 
L 94.177602 258.219279 
L 96.491915 256.544687 
L 98.343365 254.492115 
L 99.731952 253.262486 
L 100.657677 252.468251 
L 108.063478 247.554519 
L 110.37779 245.521086 
L 115.006415 241.722154 
L 120.097903 237.128987 
L 121.486491 235.937634 
L 123.800803 233.813294 
L 125.189391 232.708064 
L 127.503704 230.913858 
L 130.280879 229.081375 
L 131.206604 228.555075 
L 132.595191 227.521612 
L 134.446641 225.53124 
L 134.909504 225.253736 
L 135.372366 224.808773 
L 135.835229 223.052844 
L 136.298091 222.689218 
L 136.760954 222.043304 
L 137.223816 222.162917 
L 137.686679 221.995458 
L 138.612404 221.971535 
L 139.075267 222.072011 
L 139.538129 222.301669 
L 140.463854 222.13421 
L 140.926717 222.205978 
L 141.389579 222.08158 
L 141.852442 222.306454 
L 142.778167 221.947613 
L 144.166754 223.048059 
L 144.629617 223.03849 
L 145.092479 223.220303 
L 145.555342 223.612636 
L 146.018204 223.765741 
L 146.943929 224.359025 
L 147.406792 224.569546 
L 147.869654 224.138936 
L 148.332517 224.244196 
L 148.795379 224.095875 
L 149.258242 224.239412 
L 149.721104 224.158074 
L 150.183967 224.248981 
L 150.64683 224.225058 
L 152.035417 224.607822 
L 152.961142 224.684375 
L 153.424005 224.622176 
L 155.738317 224.976232 
L 157.126905 224.832696 
L 158.05263 224.94274 
L 159.90408 225.282443 
L 164.532705 226.363752 
L 164.995568 226.555133 
L 165.921293 226.660394 
L 166.847018 226.990527 
L 167.30988 227.057511 
L 167.772743 226.976174 
L 168.235605 226.765654 
L 169.624193 226.459442 
L 170.549918 225.756114 
L 171.01278 225.646069 
L 171.475643 225.368565 
L 172.401368 225.253736 
L 174.252818 225.00494 
L 175.641406 224.923602 
L 177.029993 224.248981 
L 177.955718 223.650912 
L 178.418581 223.56479 
L 178.881443 223.330347 
L 179.807168 223.430823 
L 180.732893 223.693973 
L 181.195756 223.488238 
L 181.658618 223.540868 
L 182.121481 224.961879 
L 182.584343 225.186752 
L 183.047206 225.574301 
L 183.510068 225.186752 
L 183.972931 225.100631 
L 184.435794 224.861403 
L 186.287244 223.296856 
L 187.212969 222.536112 
L 187.675831 222.497836 
L 188.138694 222.057657 
L 188.601556 221.789723 
L 189.064419 221.655755 
L 190.453006 220.344789 
L 190.915869 220.172545 
L 192.304456 218.861579 
L 193.693044 217.186986 
L 194.155906 217.014743 
L 194.618769 216.292276 
L 195.081631 215.943004 
L 195.544494 215.344935 
L 196.007357 215.019586 
L 198.784532 211.904844 
L 199.247394 211.211085 
L 202.024569 199.378895 
L 202.487432 198.876517 
L 202.950294 199.106176 
L 203.413157 199.096607 
L 203.876019 198.866948 
L 204.338882 198.838241 
L 204.801744 198.240172 
L 205.264607 196.278507 
L 205.727469 195.388581 
L 206.653194 191.441328 
L 207.116057 191.517881 
L 207.57892 190.350451 
L 208.041782 190.25476 
L 208.504645 190.608817 
L 208.967507 190.647093 
L 209.43037 189.953333 
L 209.893232 189.83372 
L 210.356095 189.379187 
L 211.28182 185.422365 
L 212.207545 184.350626 
L 214.058995 176.78147 
L 217.761895 163.537838 
L 220.076208 154.341935 
L 220.53907 153.70559 
L 221.001933 153.820419 
L 221.927658 154.657715 
L 222.39052 155.246215 
L 222.853383 155.466304 
L 224.24197 157.437538 
L 224.704833 156.437567 
L 226.09342 158.193497 
L 227.019145 159.265236 
L 227.94487 160.638401 
L 229.333458 162.336916 
L 230.259183 163.647883 
L 230.722046 163.772281 
L 232.573496 166.360722 
L 233.036358 167.250648 
L 234.424946 168.97787 
L 235.350671 165.681316 
L 235.813533 165.188508 
L 236.276396 163.475639 
L 238.127846 165.705239 
L 239.516433 167.556859 
L 240.442158 169.121407 
L 240.905021 167.695611 
L 241.367883 168.518554 
L 241.830746 167.939623 
L 242.293609 166.729132 
L 242.756471 165.145447 
L 243.682196 166.595165 
L 245.070784 168.973086 
L 245.533646 169.963487 
L 248.310821 184.034846 
L 248.773684 185.010894 
L 249.236546 185.259691 
L 249.699409 185.656808 
L 250.162271 186.274015 
L 250.625134 186.656779 
L 251.087996 187.623258 
L 251.550859 189.977256 
L 252.013721 191.206885 
L 252.939446 195.890959 
L 253.402309 196.168463 
L 253.865172 197.723441 
L 254.328034 198.182758 
L 254.790897 198.187542 
L 255.253759 198.498538 
L 255.716622 199.603769 
L 256.179484 200.125285 
L 256.642347 200.957796 
L 257.568072 205.64187 
L 258.493797 207.574827 
L 266.36246 247.458828 
L 266.825322 248.525783 
L 267.288185 248.841563 
L 268.676772 248.961177 
L 269.139635 249.329587 
L 270.528222 249.410924 
L 270.991085 250.980256 
L 276.545435 251.410866 
L 277.008298 251.975442 
L 280.711198 252.209885 
L 281.636923 256.903528 
L 282.099785 258.05182 
L 282.562648 260.38668 
L 286.72841 260.735952 
L 287.191273 263.070812 
L 287.654136 263.085165 
L 288.116998 264.439193 
L 289.042723 268.726149 
L 292.282761 268.635242 
L 292.745623 267.941483 
L 295.059936 256.214553 
L 295.522798 255.200229 
L 295.985661 255.085399 
L 297.374248 249.363079 
L 304.317186 214.177505 
L 305.705774 212.866539 
L 306.631499 211.498158 
L 308.020086 210.569955 
L 314.037299 209.345111 
L 314.963024 209.239851 
L 315.888749 209.010192 
L 320.517374 208.215957 
L 321.905962 207.995868 
L 322.368825 207.928884 
L 323.29455 207.54612 
L 324.683137 207.354738 
L 325.608862 206.885852 
L 326.99745 205.962434 
L 327.460312 205.201691 
L 328.386037 204.555777 
L 329.311762 203.905078 
L 330.237487 203.010368 
L 330.70035 202.330962 
L 331.163212 201.972121 
L 332.088937 201.010426 
L 333.014662 200.273606 
L 334.40325 199.187513 
L 335.791838 198.235388 
L 336.2547 197.852624 
L 337.643288 190.876751 
L 338.10615 190.154284 
L 338.569013 187.824209 
L 339.031875 187.939038 
L 341.346188 196.756962 
L 342.271913 195.546471 
L 342.734775 196.010572 
L 343.197638 196.938775 
L 344.586225 201.924275 
L 350.603438 225.416411 
L 351.066301 225.382919 
L 351.529163 225.53124 
L 351.992026 225.354212 
L 352.454888 225.521671 
L 352.917751 225.406842 
L 353.380613 224.531269 
L 353.843476 224.148505 
L 354.769201 220.49311 
L 356.157788 218.301786 
L 358.472101 215.550671 
L 358.934964 213.325855 
L 359.397826 212.952661 
L 361.249276 210.756553 
L 361.712139 209.35468 
L 363.100726 202.531913 
L 365.415039 198.976993 
L 365.877901 198.469831 
L 367.729352 189.40311 
L 368.192214 188.417493 
L 369.117939 184.020493 
L 369.580802 183.111428 
L 370.969389 176.283877 
L 371.895114 174.18346 
L 373.283702 168.212343 
L 374.209427 164.958849 
L 374.672289 165.188508 
L 376.060877 159.293943 
L 376.523739 159.33222 
L 377.449464 159.896796 
L 377.912327 158.494923 
L 378.375189 157.9447 
L 378.838052 156.021312 
L 379.300915 156.054803 
L 380.689502 150.136316 
L 381.152365 150.112394 
L 382.07809 150.36119 
L 382.540952 148.413879 
L 383.003815 149.700922 
L 383.92954 149.700922 
L 384.392402 148.093314 
L 384.855265 148.093314 
L 387.63244 137.514676 
L 388.095302 136.734794 
L 388.558165 135.165462 
L 389.021027 134.246829 
L 394.575378 112.807265 
L 395.03824 111.458022 
L 396.88969 104.396028 
L 397.815415 102.577899 
L 398.278278 102.625744 
L 398.74114 100.884169 
L 399.204003 100.305238 
L 399.666865 101.176026 
L 400.129728 100.515758 
L 401.055453 100.673648 
L 401.518315 101.415254 
L 401.981178 100.802831 
L 402.444041 100.998998 
L 402.906903 101.319563 
L 403.832628 102.635314 
L 404.295491 102.683159 
L 404.758353 102.879326 
L 405.221216 105.180694 
L 405.684078 105.544319 
L 406.146941 106.171095 
L 406.609803 106.008421 
L 407.998391 107.71172 
L 409.386978 114.266552 
L 409.849841 114.864621 
L 410.312703 114.668454 
L 412.164153 116.548782 
L 412.627016 117.558322 
L 413.089878 118.046346 
L 413.552741 120.362068 
L 414.015604 122.098859 
L 414.478466 123.084476 
L 414.941329 124.778206 
L 415.404191 127.103497 
L 415.867054 128.108253 
L 416.329916 130.323499 
L 417.255641 130.404836 
L 417.718504 130.309145 
L 418.181366 129.730215 
L 418.644229 131.505282 
L 419.569954 133.074614 
L 420.495679 136.907038 
L 420.958541 136.863977 
L 422.347129 143.380533 
L 422.809991 143.351826 
L 423.272854 143.437948 
L 423.735716 143.35661 
L 424.198579 145.213015 
L 424.661441 146.131649 
L 425.124304 148.327757 
L 425.587167 148.672244 
L 426.975754 155.538072 
L 427.438617 155.772515 
L 427.901479 155.624194 
L 428.364342 155.820361 
L 428.827204 158.045176 
L 429.290067 159.011655 
L 434.844417 186.178324 
L 440.86163 215.703776 
L 441.324492 217.349661 
L 443.175942 226.306337 
L 444.101667 228.961762 
L 444.56453 228.9809 
L 445.027392 231.038256 
L 445.490255 232.062149 
L 445.953117 232.229609 
L 446.41598 233.224795 
L 447.341705 235.674484 
L 447.804567 235.516594 
L 448.26743 236.483073 
L 448.730293 236.741438 
L 449.193155 235.411334 
L 450.581743 228.971331 
L 451.507468 224.746574 
L 453.82178 213.794741 
L 454.284643 212.545974 
L 458.450405 194.197228 
L 458.913268 193.187689 
L 459.376131 192.699665 
L 459.838993 190.383943 
L 460.301856 188.647151 
L 460.764718 186.379275 
L 461.227581 184.685545 
L 462.153306 182.29327 
L 462.616168 180.078024 
L 463.541893 179.996687 
L 464.004756 178.953655 
L 464.467618 178.542184 
L 464.930481 176.767116 
L 465.393343 176.001588 
L 465.856206 176.853238 
L 466.319068 176.891515 
L 466.781931 176.709702 
L 467.244793 176.2456 
L 470.484831 161.313023 
L 471.873419 154.471118 
L 472.799144 152.059705 
L 474.187731 145.476166 
L 474.650594 143.916403 
L 475.576319 141.562404 
L 476.964906 140.500235 
L 478.816356 139.495479 
L 479.279219 139.562463 
L 479.742081 139.227545 
L 481.130669 139.375866 
L 481.593531 139.093577 
L 482.056394 139.261036 
L 483.907844 139.524187 
L 484.370707 139.634231 
L 484.370707 139.634231 
" clip-path="url(#p9a5775c54f)" style="fill: none; stroke: #0072b2; stroke-width: 2; stroke-linecap: round"/>
   </g>
   <g id="line2d_24">
    <path d="M 67.794438 265.726236 
L 68.257301 265.841066 
L 71.034476 265.869773 
L 72.423064 266.080293 
L 73.811651 266.099431 
L 74.274514 266.233399 
L 78.903139 266.271675 
L 79.828864 266.372151 
L 81.217451 266.53961 
L 83.068902 266.396073 
L 87.234664 266.314736 
L 89.086114 266.171199 
L 90.011839 266.147277 
L 93.71474 265.879342 
L 94.177602 265.955895 
L 97.41764 265.649684 
L 98.343365 265.721452 
L 100.194815 265.644899 
L 100.657677 265.68796 
L 102.509127 265.463086 
L 106.212028 265.104245 
L 108.52634 264.372209 
L 108.989203 263.979876 
L 111.303515 263.123442 
L 112.22924 262.190455 
L 112.692103 262.070841 
L 113.154965 262.066056 
L 113.617828 261.903382 
L 114.08069 261.932089 
L 115.006415 261.582817 
L 118.709316 261.300529 
L 119.172178 261.314882 
L 119.635041 261.209622 
L 123.800803 261.28139 
L 127.503704 261.420142 
L 132.595191 261.889028 
L 139.075267 262.444036 
L 140.463854 262.563649 
L 143.241029 262.898568 
L 144.629617 263.08995 
L 150.64683 263.601897 
L 152.49828 263.9416 
L 152.961142 264.09949 
L 153.424005 264.132982 
L 153.886867 264.472685 
L 154.812592 264.635359 
L 155.275455 265.032477 
L 156.664042 265.563562 
L 157.126905 265.812358 
L 157.589767 265.922403 
L 158.515492 266.850605 
L 159.90408 267.132894 
L 160.366942 267.137678 
L 161.292667 267.467812 
L 167.30988 267.573072 
L 168.698468 267.60178 
L 172.86423 267.49652 
L 179.344306 267.467812 
L 182.121481 267.472597 
L 185.824381 267.48695 
L 196.007357 267.477381 
L 199.710257 267.54915 
L 201.561707 267.558719 
L 207.57892 267.687902 
L 211.28182 267.998897 
L 213.596132 268.123295 
L 216.83617 268.252478 
L 219.150483 268.314677 
L 241.830746 268.357738 
L 242.756471 267.711824 
L 243.682196 267.70704 
L 244.607921 267.132894 
L 245.533646 267.06591 
L 249.699409 264.104274 
L 250.625134 262.831584 
L 251.550859 262.13304 
L 252.013721 261.774199 
L 253.865172 259.673782 
L 257.105209 254.267241 
L 257.568072 253.367746 
L 258.956659 251.324744 
L 259.882384 249.430062 
L 261.270972 246.903821 
L 265.436735 239.301172 
L 265.899597 238.224649 
L 266.36246 235.894573 
L 266.825322 235.23909 
L 267.288185 232.913799 
L 267.751047 232.406637 
L 268.21391 231.722446 
L 270.06536 227.378076 
L 270.528222 225.631716 
L 273.76826 219.823273 
L 275.61971 215.732484 
L 277.008298 213.215811 
L 277.934023 211.632125 
L 279.32261 208.230311 
L 280.711198 204.924187 
L 281.17406 204.283058 
L 282.562648 200.895597 
L 283.02551 199.38368 
L 283.488373 198.417201 
L 284.414098 195.249829 
L 284.87696 194.565639 
L 285.339823 193.670928 
L 286.265548 189.283496 
L 286.72841 188.178266 
L 287.191273 187.3936 
L 287.654136 185.063524 
L 288.116998 183.475054 
L 288.579861 181.460759 
L 289.042723 181.030149 
L 289.505586 180.393804 
L 289.968448 178.05416 
L 290.431311 177.853209 
L 290.894173 175.762361 
L 291.357036 174.748037 
L 291.819898 172.451453 
L 292.282761 172.083043 
L 293.208486 170.953889 
L 293.671348 168.910887 
L 294.134211 168.619029 
L 294.597073 167.753026 
L 295.985661 166.509043 
L 296.911386 166.8631 
L 297.374248 166.451629 
L 297.837111 166.346368 
L 299.225699 160.786722 
L 299.688561 160.681462 
L 300.151424 160.772369 
L 301.540011 156.073942 
L 302.465736 156.796409 
L 302.928599 156.93516 
L 303.391461 157.322709 
L 304.317186 157.915993 
L 304.780049 158.303542 
L 305.705774 155.236646 
L 306.168636 153.782143 
L 311.722987 160.241284 
L 312.185849 160.997243 
L 312.648712 163.112013 
L 313.111574 163.356025 
L 313.574437 165.408597 
L 314.963024 166.475551 
L 316.351612 168.748212 
L 316.814474 169.915642 
L 317.277337 170.551987 
L 317.740199 171.484974 
L 318.665924 172.159596 
L 319.128787 172.317486 
L 319.591649 173.011245 
L 320.054512 173.116505 
L 320.517374 174.035139 
L 320.980237 175.346105 
L 322.831687 177.111604 
L 323.757412 177.503937 
L 324.220275 178.035022 
L 324.683137 179.231159 
L 325.146 179.776598 
L 325.608862 180.604325 
L 326.071725 181.202393 
L 326.534587 182.321978 
L 326.99745 182.814786 
L 327.460312 183.058798 
L 327.923175 183.723851 
L 328.386037 184.130537 
L 328.8489 184.790805 
L 329.311762 185.719007 
L 329.774625 186.317076 
L 330.70035 188.604091 
L 331.626075 190.187776 
L 332.5518 193.517822 
L 333.477525 194.867065 
L 333.940388 196.809592 
L 334.40325 197.795209 
L 334.866113 199.732952 
L 335.328975 200.087008 
L 335.791838 200.292744 
L 336.2547 202.010397 
L 336.717563 202.082165 
L 337.180425 203.804603 
L 337.643288 204.30698 
L 338.10615 206.239938 
L 339.031875 206.723178 
L 339.494738 207.134649 
L 339.9576 209.048469 
L 340.420463 209.24942 
L 340.883325 209.962317 
L 341.346188 209.976671 
L 341.80905 210.30202 
L 342.271913 210.928796 
L 343.197638 210.880951 
L 343.6605 211.168024 
L 344.123363 211.287638 
L 345.511951 216.962113 
L 345.974813 216.823361 
L 346.437676 216.880775 
L 346.900538 218.574506 
L 348.751988 218.545798 
L 349.214851 218.947701 
L 349.677713 218.971623 
L 350.140576 217.297031 
L 351.066301 217.019527 
L 352.454888 222.51219 
L 352.917751 222.301669 
L 353.380613 222.497836 
L 353.843476 222.957153 
L 354.306338 223.086335 
L 354.769201 222.789693 
L 355.232063 222.794478 
L 356.157788 223.24901 
L 358.934964 222.268178 
L 359.397826 222.272962 
L 360.786414 221.909336 
L 361.712139 222.18684 
L 362.637864 221.842353 
L 363.100726 222.320808 
L 363.563589 222.119857 
L 364.026451 221.737093 
L 364.489314 221.756231 
L 364.952176 221.617479 
L 365.415039 221.684463 
L 365.877901 222.129426 
L 366.340764 222.23947 
L 366.803626 222.014596 
L 367.266489 222.024166 
L 367.729352 220.80889 
L 368.192214 220.928504 
L 369.580802 222.091149 
L 370.043664 222.497836 
L 370.506527 222.048088 
L 370.969389 221.92369 
L 372.357977 223.004998 
L 372.820839 222.61745 
L 373.283702 221.105532 
L 373.746564 221.512219 
L 374.209427 221.560064 
L 374.672289 221.354329 
L 375.135152 219.560123 
L 376.523739 220.555309 
L 376.986602 219.383094 
L 377.912327 219.225204 
L 378.375189 217.402291 
L 379.300915 218.115189 
L 379.763777 218.191742 
L 380.22664 218.545798 
L 380.689502 216.804223 
L 381.152365 217.081726 
L 381.615227 215.139199 
L 382.07809 215.196614 
L 382.540952 213.478961 
L 383.003815 213.80431 
L 383.466677 212.522051 
L 383.92954 210.703923 
L 384.392402 210.775691 
L 384.855265 211.029272 
L 385.318127 211.493373 
L 385.78099 211.493373 
L 386.243852 211.31156 
L 387.169577 211.378544 
L 387.63244 211.598633 
L 388.558165 211.684755 
L 389.021027 211.995751 
L 389.48389 212.067519 
L 389.946752 212.464637 
L 390.409615 212.474206 
L 390.872478 212.258901 
L 391.798203 212.421576 
L 392.261065 212.842616 
L 393.18679 212.861754 
L 394.112515 216.459735 
L 395.03824 216.871206 
L 395.501103 216.72767 
L 395.963965 216.813792 
L 396.426828 218.612782 
L 396.88969 218.933347 
L 397.352553 219.067314 
L 397.815415 218.588859 
L 398.278278 217.837685 
L 398.74114 217.445352 
L 399.204003 217.378368 
L 399.666865 217.115218 
L 400.129728 214.823419 
L 400.59259 214.598545 
L 401.055453 215.072216 
L 401.518315 213.268441 
L 401.981178 210.990995 
L 402.444041 210.622585 
L 404.295491 210.651292 
L 404.758353 208.727904 
L 405.221216 208.737473 
L 405.684078 206.804515 
L 406.146941 206.818869 
L 407.535528 201.096548 
L 407.998391 201.125255 
L 408.461253 199.158806 
L 408.924116 199.082253 
L 409.386978 196.847869 
L 409.849841 196.819161 
L 410.312703 197.115803 
L 411.701291 191.455682 
L 412.164153 191.044211 
L 412.627016 189.183021 
L 413.089878 189.092115 
L 413.552741 188.714135 
L 414.015604 187.934254 
L 414.941329 187.819424 
L 415.404191 186.159186 
L 415.867054 185.776422 
L 416.329916 185.187923 
L 416.792779 183.62816 
L 417.255641 181.432052 
L 417.718504 181.302869 
L 418.181366 180.982304 
L 419.107091 181.011011 
L 419.569954 182.570774 
L 420.032816 182.211933 
L 420.495679 182.45116 
L 420.958541 182.900908 
L 421.421404 184.781236 
L 421.884266 184.652053 
L 422.347129 184.690329 
L 422.809991 184.245366 
L 423.735716 183.881741 
L 424.198579 183.958293 
L 424.661441 185.288398 
L 425.587167 184.494163 
L 426.512892 183.824326 
L 426.975754 185.776422 
L 427.438617 185.867328 
L 427.901479 187.824209 
L 428.364342 188.044298 
L 428.827204 189.78109 
L 429.290067 189.522724 
L 429.752929 190.958089 
L 430.215792 192.828847 
L 430.678654 192.737941 
L 431.141517 192.891046 
L 431.604379 192.436514 
L 432.067242 192.498713 
L 432.530104 193.034583 
L 433.455829 193.637436 
L 434.844417 193.661359 
L 435.307279 193.460408 
L 435.770142 193.503469 
L 436.233004 193.149412 
L 436.695867 193.163766 
L 437.621592 193.919725 
L 438.084455 193.948432 
L 438.547317 194.139814 
L 439.01018 194.158952 
L 439.473042 194.355118 
L 440.398767 195.197199 
L 440.86163 195.321597 
L 441.324492 195.024955 
L 442.250217 195.08237 
L 442.71308 195.460349 
L 443.175942 195.192415 
L 443.638805 195.24026 
L 444.101667 195.804837 
L 444.56453 197.240202 
L 445.490255 197.646888 
L 445.953117 197.637319 
L 446.41598 199.799935 
L 446.878842 200.134854 
L 447.341705 199.842996 
L 448.26743 203.809387 
L 448.730293 204.14909 
L 449.193155 204.168229 
L 450.581743 205.153846 
L 451.044605 207.354738 
L 451.507468 207.732718 
L 451.97033 209.598692 
L 452.433193 209.622614 
L 453.82178 215.655931 
L 454.284643 215.675069 
L 454.747505 217.751563 
L 455.210368 218.196526 
L 455.67323 220.153407 
L 456.136093 220.469187 
L 456.598955 220.191683 
L 457.061818 220.191683 
L 457.52468 221.890198 
L 458.450405 221.971535 
L 458.913268 223.545652 
L 459.376131 223.689189 
L 459.838993 223.698758 
L 460.301856 225.607793 
L 460.764718 225.555163 
L 461.227581 224.603037 
L 461.690443 225.42598 
L 462.616168 225.402057 
L 463.079031 226.344613 
L 463.541893 226.344613 
L 464.004756 226.129309 
L 464.930481 226.181939 
L 465.393343 225.942711 
L 465.856206 224.105444 
L 466.319068 224.445147 
L 466.781931 222.760986 
L 468.170518 223.430823 
L 468.633381 223.454746 
L 469.096243 223.94277 
L 469.559106 225.469041 
L 470.484831 224.923602 
L 470.947694 223.593498 
L 471.410556 222.607881 
L 471.873419 222.966722 
L 472.799144 222.847108 
L 473.262006 220.895012 
L 473.724869 220.473972 
L 474.650594 219.952456 
L 475.113456 220.225175 
L 475.576319 220.143838 
L 476.039181 218.268295 
L 476.502044 217.837685 
L 476.964906 217.670226 
L 477.427769 217.124787 
L 478.353494 216.93819 
L 479.279219 215.780329 
L 480.204944 211.679971 
L 482.982119 199.598984 
L 484.370707 193.192473 
L 484.370707 193.192473 
" clip-path="url(#p9a5775c54f)" style="fill: none; stroke: #d55e00; stroke-width: 2; stroke-linecap: round"/>
   </g>
   <g id="line2d_25">
    <path d="M 67.794438 266.085078 
L 68.257301 266.080293 
L 68.720163 266.295598 
L 70.571614 266.252537 
L 71.034476 266.247752 
L 71.497339 266.38172 
L 72.423064 266.338659 
L 74.274514 266.525256 
L 75.663101 266.544394 
L 76.588826 266.472626 
L 77.514551 266.577886 
L 79.366001 266.463057 
L 80.291726 266.549179 
L 85.383214 266.31952 
L 87.697527 266.113785 
L 90.011839 266.080293 
L 91.400427 265.975033 
L 92.326152 265.826712 
L 93.251877 265.807574 
L 95.103327 265.769297 
L 96.029052 265.807574 
L 97.41764 265.625761 
L 99.731952 265.333903 
L 101.583402 265.051615 
L 102.046265 264.754973 
L 103.897715 264.534884 
L 104.82344 264.357855 
L 105.286303 264.338717 
L 105.749165 264.166473 
L 106.212028 264.147335 
L 106.67489 263.955953 
L 108.063478 263.697588 
L 109.452065 262.936844 
L 111.766378 262.070841 
L 112.22924 261.92252 
L 113.154965 261.793337 
L 114.08069 261.625878 
L 115.932141 261.482341 
L 116.395003 261.563679 
L 117.783591 261.467988 
L 118.246453 261.573248 
L 121.949353 261.381866 
L 122.875078 261.405789 
L 127.503704 261.262252 
L 133.983779 261.472772 
L 135.835229 261.372297 
L 137.686679 261.444065 
L 138.149541 261.424927 
L 139.538129 261.65937 
L 143.241029 261.668939 
L 144.629617 261.826829 
L 146.943929 262.02778 
L 148.795379 262.44882 
L 150.64683 262.630633 
L 154.34973 263.3531 
L 155.275455 263.917677 
L 158.515492 265.022908 
L 158.978355 264.989416 
L 160.366942 265.228643 
L 162.681255 265.357826 
L 164.069843 265.329119 
L 177.955718 265.37218 
L 183.972931 265.075538 
L 185.361519 264.927217 
L 186.287244 264.721481 
L 186.750106 264.568376 
L 187.675831 264.410485 
L 190.453006 263.621035 
L 195.081631 261.879459 
L 198.321669 260.424956 
L 201.098844 259.00873 
L 202.950294 257.913068 
L 206.653194 255.616484 
L 208.504645 254.319872 
L 210.818957 252.717048 
L 211.28182 252.439544 
L 212.207545 251.630955 
L 213.13327 251.1525 
L 214.521857 250.114253 
L 215.447582 249.501831 
L 216.83617 248.516214 
L 217.299032 247.621503 
L 219.150483 246.047386 
L 219.613345 245.717252 
L 220.076208 245.234013 
L 221.927658 243.903908 
L 222.39052 243.540283 
L 223.316245 242.616865 
L 224.24197 241.793922 
L 225.167695 240.832228 
L 226.09342 240.109761 
L 229.333458 237.884946 
L 229.79632 237.306015 
L 230.259183 237.033296 
L 230.722046 236.200784 
L 231.184908 235.928065 
L 231.647771 235.219952 
L 233.499221 233.865924 
L 233.962083 233.564498 
L 234.424946 233.00949 
L 234.887808 232.22004 
L 237.664983 231.454512 
L 243.219334 230.741614 
L 244.607921 230.617216 
L 247.847959 230.114838 
L 248.773684 229.880395 
L 250.162271 229.741643 
L 250.625134 229.626814 
L 251.087996 229.258404 
L 252.476584 228.92827 
L 253.865172 228.02399 
L 254.328034 227.315877 
L 254.790897 226.148447 
L 255.253759 225.861374 
L 255.716622 224.631745 
L 256.179484 224.354241 
L 256.642347 223.741819 
L 257.568072 222.923661 
L 258.030934 222.93323 
L 258.493797 222.588742 
L 259.419522 221.306483 
L 261.270972 221.139024 
L 262.196697 221.426097 
L 263.122422 221.421312 
L 263.585284 222.13421 
L 264.511009 222.526543 
L 264.973872 222.583958 
L 267.288185 223.464315 
L 267.751047 223.225087 
L 268.676772 223.373408 
L 269.139635 223.717896 
L 270.06536 224.009753 
L 270.528222 224.253765 
L 270.991085 224.665237 
L 271.453947 224.904464 
L 272.379672 225.181968 
L 272.842535 225.296797 
L 273.305397 224.83748 
L 273.76826 225.134122 
L 275.61971 225.172399 
L 276.082573 224.148505 
L 276.545435 224.028892 
L 277.008298 224.225058 
L 277.47116 224.081522 
L 277.934023 224.382948 
L 278.396885 224.473855 
L 279.32261 224.870972 
L 279.785473 224.387733 
L 280.248335 224.507346 
L 280.711198 224.832696 
L 281.17406 225.574301 
L 282.099785 225.445118 
L 286.265548 224.20592 
L 287.654136 224.263334 
L 288.116998 224.110229 
L 289.505586 224.086306 
L 289.968448 223.952339 
L 290.431311 223.990615 
L 291.357036 223.737034 
L 292.282761 223.904493 
L 292.745623 223.789664 
L 293.671348 223.799233 
L 294.597073 224.177213 
L 296.911386 224.435578 
L 297.374248 224.832696 
L 297.837111 225.062354 
L 298.299973 225.038431 
L 299.688561 225.655638 
L 300.614286 226.875698 
L 301.077149 227.976145 
L 301.540011 228.23451 
L 302.002874 229.55983 
L 302.465736 229.918671 
L 302.928599 230.46411 
L 304.317186 231.267914 
L 305.242911 232.124349 
L 305.705774 232.58845 
L 307.557224 232.593234 
L 312.185849 231.712877 
L 313.574437 231.349252 
L 314.963024 231.220069 
L 318.203062 230.038285 
L 319.128787 229.459355 
L 319.591649 229.698582 
L 321.443099 228.92827 
L 321.905962 228.679473 
L 322.368825 229.722505 
L 322.831687 229.540692 
L 323.29455 229.799058 
L 323.757412 229.650737 
L 325.608862 228.449815 
L 326.071725 228.77038 
L 326.99745 228.224941 
L 328.8489 227.315877 
L 329.774625 227.105357 
L 331.163212 226.512073 
L 331.626075 226.402028 
L 333.477525 225.464256 
L 334.866113 225.124553 
L 336.2547 224.36381 
L 338.569013 223.009783 
L 341.80905 221.349544 
L 343.197638 220.550524 
L 355.232063 212.914384 
L 355.694926 212.378515 
L 356.157788 212.11058 
L 356.620651 211.708678 
L 357.083514 210.880951 
L 357.546376 209.809212 
L 358.009239 208.024575 
L 358.472101 206.904991 
L 358.934964 206.565288 
L 359.397826 204.665822 
L 359.860689 204.36918 
L 360.323551 203.933786 
L 360.786414 201.98169 
L 361.712139 201.110902 
L 362.175001 199.168375 
L 362.637864 198.780826 
L 363.563589 197.551197 
L 364.026451 197.20671 
L 364.489314 197.10145 
L 364.952176 196.603857 
L 365.415039 196.685194 
L 366.340764 196.546442 
L 366.803626 195.340736 
L 367.266489 195.364658 
L 368.192214 195.857467 
L 368.655077 195.977081 
L 369.117939 196.221093 
L 369.580802 196.09191 
L 370.043664 196.316784 
L 370.969389 197.125372 
L 371.432252 197.034466 
L 373.283702 197.866977 
L 373.746564 197.866977 
L 374.209427 198.010514 
L 375.135152 198.723412 
L 375.598014 198.929147 
L 376.060877 198.862164 
L 377.449464 199.201867 
L 377.912327 199.407602 
L 378.375189 198.646859 
L 378.838052 198.326294 
L 379.300915 198.407632 
L 379.763777 198.608583 
L 380.22664 198.546383 
L 380.689502 196.910068 
L 381.615227 196.680409 
L 384.855265 197.144511 
L 387.63244 197.737795 
L 388.095302 197.68038 
L 388.558165 197.986591 
L 393.18679 198.833456 
L 394.112515 199.077468 
L 395.963965 198.943501 
L 396.426828 197.249771 
L 396.88969 197.178002 
L 398.278278 192.288193 
L 398.74114 192.436514 
L 399.204003 190.72843 
L 399.666865 190.718861 
L 400.129728 189.106468 
L 401.055453 189.178236 
L 401.518315 187.527567 
L 401.981178 187.776364 
L 402.444041 187.680673 
L 402.906903 187.747656 
L 403.369766 188.254818 
L 403.832628 189.001208 
L 404.295491 190.441357 
L 404.758353 191.249946 
L 405.221216 189.594492 
L 406.146941 189.532293 
L 406.609803 189.733244 
L 407.072666 191.47482 
L 407.535528 191.809738 
L 407.998391 191.991551 
L 408.461253 193.694851 
L 408.924116 193.867094 
L 409.386978 194.465163 
L 410.312703 194.991463 
L 410.775566 194.991463 
L 411.238428 195.469918 
L 411.701291 195.465134 
L 412.164153 195.670869 
L 412.627016 195.623024 
L 413.089878 196.900499 
L 413.552741 196.857438 
L 414.015604 196.632564 
L 414.478466 196.752178 
L 414.941329 197.000974 
L 415.404191 196.809592 
L 415.867054 196.924421 
L 417.255641 196.489027 
L 417.718504 196.651702 
L 418.181366 196.522519 
L 418.644229 196.699547 
L 419.107091 196.675625 
L 419.569954 196.450751 
L 420.032816 196.551226 
L 420.495679 196.479458 
L 421.884266 195.910097 
L 422.347129 196.067987 
L 423.735716 196.029711 
L 424.198579 195.88139 
L 424.661441 197.03925 
L 425.124304 197.422014 
L 426.512892 197.335893 
L 426.975754 199.067899 
L 429.752929 199.503293 
L 430.678654 199.598984 
L 432.067242 199.555923 
L 434.844417 199.244928 
L 436.233004 199.345403 
L 436.695867 199.642045 
L 437.15873 199.532001 
L 438.547317 200.091793 
L 439.01018 200.182699 
L 439.935905 200.598955 
L 440.86163 200.766414 
L 441.324492 200.905166 
L 441.787355 201.259223 
L 442.250217 201.345345 
L 442.71308 203.302225 
L 443.175942 203.536668 
L 444.56453 209.364249 
L 445.027392 209.61783 
L 445.490255 211.397682 
L 445.953117 211.474235 
L 446.41598 213.27801 
L 446.878842 213.589006 
L 447.341705 213.64642 
L 447.804567 215.689423 
L 448.26743 216.062617 
L 448.730293 216.110463 
L 451.044605 217.73721 
L 451.97033 221.698816 
L 452.433193 221.995458 
L 453.358918 221.832784 
L 453.82178 221.981105 
L 454.284643 221.81843 
L 454.747505 221.952397 
L 456.136093 222.851893 
L 456.598955 222.784909 
L 457.987543 223.35427 
L 458.450405 223.229872 
L 460.301856 223.560006 
L 461.227581 223.4069 
L 461.690443 223.536083 
L 462.616168 223.981046 
L 463.079031 224.110229 
L 463.541893 224.359025 
L 465.856206 225.038431 
L 467.244793 225.617362 
L 467.707656 225.684346 
L 468.170518 225.885297 
L 469.096243 226.100601 
L 469.559106 226.258491 
L 470.021968 226.177154 
L 470.947694 225.799175 
L 471.410556 225.976203 
L 471.873419 225.976203 
L 472.336281 225.679561 
L 472.799144 225.579085 
L 473.262006 225.674776 
L 473.724869 225.411626 
L 474.187731 225.540809 
L 475.113456 225.05757 
L 475.576319 224.430794 
L 476.502044 224.5217 
L 480.667806 222.411714 
L 481.593531 221.39739 
L 482.056394 221.182085 
L 482.982119 219.636676 
L 484.370707 214.569838 
L 484.370707 214.569838 
" clip-path="url(#p9a5775c54f)" style="fill: none; stroke: #009e73; stroke-width: 2; stroke-linecap: round"/>
   </g>
   <g id="line2d_26">
    <path d="M 67.794438 266.80276 
L 68.257301 266.783622 
L 68.720163 266.965435 
L 69.645888 266.998926 
L 70.108751 266.955866 
L 70.571614 267.104187 
L 72.885926 267.113756 
L 73.348789 267.204662 
L 74.737376 267.161601 
L 82.143177 266.912805 
L 83.531764 266.668793 
L 84.920352 266.506118 
L 85.846077 266.26689 
L 89.086114 265.539639 
L 94.640465 264.898509 
L 96.029052 264.707127 
L 98.806227 264.439193 
L 99.26909 264.353071 
L 101.12054 262.042134 
L 101.583402 261.099577 
L 102.046265 259.659428 
L 102.97199 258.257555 
L 103.897715 256.893959 
L 104.360578 255.922695 
L 104.82344 255.271997 
L 105.286303 254.008876 
L 105.749165 253.372531 
L 106.67489 251.386943 
L 108.52634 249.095144 
L 109.914928 247.932499 
L 110.840653 247.143048 
L 112.692103 246.066524 
L 113.617828 245.296212 
L 118.246453 242.607295 
L 118.709316 242.24367 
L 119.635041 241.746077 
L 120.560766 240.731752 
L 123.800803 238.640904 
L 124.263666 238.215079 
L 126.115116 237.124202 
L 127.503704 236.095524 
L 128.892291 234.65059 
L 130.280879 233.229579 
L 131.206604 232.406637 
L 132.595191 231.502357 
L 133.520916 230.119622 
L 136.298091 227.201048 
L 137.223816 226.282414 
L 137.686679 225.617362 
L 140.000992 223.56479 
L 140.463854 223.177242 
L 142.778167 220.483541 
L 143.241029 219.48357 
L 144.166754 218.153465 
L 145.555342 216.512365 
L 146.481067 216.670255 
L 146.943929 216.50758 
L 147.406792 216.1918 
L 147.869654 216.713316 
L 148.332517 217.679795 
L 148.795379 218.014713 
L 149.258242 217.919022 
L 149.721104 218.019498 
L 150.183967 217.952514 
L 150.64683 218.402262 
L 151.109692 218.464461 
L 151.572555 219.110375 
L 152.035417 219.387879 
L 152.49828 220.043362 
L 153.886867 220.488325 
L 154.812592 220.105561 
L 155.275455 220.143838 
L 155.738317 219.239558 
L 157.126905 218.799379 
L 157.589767 219.033822 
L 158.515492 218.722827 
L 158.978355 218.287433 
L 159.441217 218.378339 
L 160.829805 218.062559 
L 161.292667 218.277864 
L 161.75553 218.206095 
L 162.218393 218.541014 
L 162.681255 218.483599 
L 163.144118 218.134327 
L 164.069843 218.670197 
L 164.532705 218.651058 
L 164.995568 219.024253 
L 165.45843 219.225204 
L 165.921293 219.201282 
L 166.384155 219.517062 
L 166.847018 219.69409 
L 168.698468 220.961996 
L 169.624193 220.651 
L 170.549918 221.579202 
L 171.01278 221.827999 
L 171.938505 221.574418 
L 174.715681 223.871001 
L 175.641406 225.292013 
L 176.567131 226.263276 
L 177.955718 227.736917 
L 178.881443 228.564644 
L 179.807168 230.224883 
L 180.270031 230.870797 
L 180.732893 231.287052 
L 181.195756 232.148271 
L 181.658618 232.712848 
L 182.121481 233.095612 
L 183.972931 235.55487 
L 185.361519 236.98545 
L 185.824381 237.506966 
L 186.750106 238.329909 
L 189.064419 241.248484 
L 189.527281 242.334576 
L 190.453006 243.755587 
L 193.230181 247.2818 
L 193.693044 248.248279 
L 194.618769 249.123851 
L 195.544494 250.367834 
L 197.858807 253.468222 
L 198.784532 254.319872 
L 199.247394 255.07583 
L 200.173119 256.056663 
L 201.098844 257.46332 
L 201.561707 257.78867 
L 202.024569 259.128343 
L 203.413157 260.783797 
L 203.876019 260.817289 
L 206.653194 263.716726 
L 207.116057 264.113843 
L 207.57892 264.128197 
L 208.041782 264.539668 
L 208.504645 264.544453 
L 208.967507 264.946355 
L 209.43037 265.506147 
L 210.356095 265.520501 
L 210.818957 265.869773 
L 211.744682 265.89848 
L 213.13327 266.860175 
L 214.98472 266.90802 
L 215.910445 267.778808 
L 217.299032 267.783592 
L 218.224757 268.635242 
L 221.001933 268.616104 
L 221.927658 267.788377 
L 223.316245 265.745375 
L 224.704833 264.132982 
L 227.482008 261.204838 
L 227.94487 261.109147 
L 228.870595 260.209651 
L 230.722046 259.740766 
L 231.184908 259.310156 
L 232.573496 258.980022 
L 233.499221 258.769502 
L 233.962083 258.338893 
L 234.887808 258.142726 
L 235.350671 258.061389 
L 235.813533 257.602072 
L 236.739258 257.377198 
L 238.127846 256.951373 
L 238.590708 256.539902 
L 239.053571 256.439427 
L 240.905021 254.750481 
L 241.367883 254.563884 
L 244.145059 251.989796 
L 245.533646 250.473094 
L 246.922234 249.085575 
L 249.699409 246.181354 
L 251.087996 244.860818 
L 251.550859 244.688574 
L 253.402309 242.918291 
L 254.328034 242.128841 
L 256.642347 240.071484 
L 258.030934 238.927977 
L 260.345247 237.004589 
L 262.659559 234.885033 
L 267.288185 230.72726 
L 268.21391 230.645923 
L 269.602497 231.397097 
L 270.991085 231.703308 
L 272.379672 231.861198 
L 272.842535 232.167409 
L 273.76826 232.27267 
L 274.231122 231.94732 
L 275.156847 231.99995 
L 277.008298 230.755968 
L 277.47116 230.760752 
L 278.396885 230.167468 
L 278.859748 230.100484 
L 279.785473 229.5072 
L 280.248335 229.516769 
L 281.636923 228.564644 
L 282.099785 228.578998 
L 283.02551 227.91873 
L 284.414098 227.043157 
L 284.87696 227.038373 
L 285.339823 226.722593 
L 287.191273 226.679532 
L 287.654136 226.430735 
L 290.431311 226.454658 
L 291.819898 226.641255 
L 293.208486 226.760869 
L 296.911386 227.272816 
L 297.374248 227.282385 
L 297.837111 227.06708 
L 299.688561 227.234539 
L 300.614286 227.220186 
L 302.928599 227.263247 
L 304.317186 227.162771 
L 305.705774 226.966605 
L 306.631499 227.258462 
L 314.037299 229.468924 
L 316.814474 229.794273 
L 318.665924 229.660306 
L 319.128787 229.229696 
L 320.054512 229.229696 
L 320.980237 229.272757 
L 321.443099 228.708181 
L 322.368825 228.44503 
L 322.831687 228.114896 
L 323.29455 228.153173 
L 324.220275 227.976145 
L 325.608862 227.301523 
L 327.460312 226.813499 
L 327.923175 226.770438 
L 328.386037 226.378105 
L 328.8489 226.239353 
L 330.237487 226.248922 
L 331.163212 226.11017 
L 336.717563 225.669992 
L 337.180425 225.454687 
L 349.677713 224.110229 
L 350.140576 222.990644 
L 351.066301 222.995429 
L 352.454888 222.421283 
L 353.380613 221.866275 
L 358.472101 219.612753 
L 359.397826 219.316111 
L 360.786414 218.962054 
L 362.637864 218.660628 
L 364.026451 218.646274 
L 366.340764 219.033822 
L 367.266489 218.976408 
L 367.729352 219.545769 
L 369.580802 220.110346 
L 371.432252 220.579232 
L 371.895114 221.043333 
L 373.746564 221.373467 
L 374.209427 221.378251 
L 374.672289 221.703601 
L 375.598014 221.784938 
L 379.763777 221.847137 
L 383.466677 221.454804 
L 383.92954 221.263422 
L 384.855265 221.052902 
L 385.78099 220.880658 
L 386.243852 220.866305 
L 392.261065 218.363986 
L 394.575378 216.742023 
L 395.963965 216.009987 
L 396.426828 216.928621 
L 396.88969 216.483658 
L 397.352553 216.206154 
L 397.815415 216.072187 
L 398.278278 216.110463 
L 398.74114 215.541102 
L 400.129728 214.990878 
L 401.055453 214.359318 
L 401.518315 214.019615 
L 402.906903 213.651205 
L 403.832628 213.06749 
L 404.295491 213.010075 
L 405.684078 212.306746 
L 407.998391 211.321129 
L 409.386978 210.536463 
L 411.701291 209.311619 
L 413.089878 207.904961 
L 413.552741 206.814084 
L 414.015604 205.139492 
L 414.478466 204.378749 
L 414.941329 202.45536 
L 415.404191 201.704186 
L 424.661441 163.451716 
L 431.141517 138.146236 
L 439.01018 109.233207 
L 439.935905 106.238079 
L 443.638805 93.109276 
L 448.26743 77.286773 
L 448.730293 76.315509 
L 456.136093 49.689494 
L 457.987543 43.034186 
L 459.376131 38.646755 
L 459.838993 37.809459 
L 460.301856 37.5798 
L 460.764718 36.421939 
L 461.227581 36.421939 
L 461.690443 35.268863 
L 484.370707 35.268863 
L 484.370707 35.268863 
" clip-path="url(#p9a5775c54f)" style="fill: none; stroke: #cc79a7; stroke-width: 2; stroke-linecap: round"/>
   </g>
   <g id="line2d_27">
    <path d="M 67.794438 267.242938 
L 73.811651 267.214231 
L 78.440276 267.199878 
L 79.366001 267.175955 
L 79.828864 267.075479 
L 80.291726 266.783622 
L 81.680314 266.573102 
L 82.143177 266.405642 
L 82.606039 266.396073 
L 83.994627 265.89848 
L 84.457489 265.142521 
L 84.920352 264.922432 
L 85.383214 264.348286 
L 85.846077 264.209534 
L 86.308939 263.903323 
L 86.771802 263.080381 
L 87.234664 262.50145 
L 88.160389 261.826829 
L 89.086114 261.233545 
L 89.548977 261.032594 
L 90.474702 260.204867 
L 95.103327 257.075772 
L 95.56619 256.645162 
L 96.491915 256.023171 
L 97.41764 254.70742 
L 100.194815 252.353422 
L 101.12054 251.142931 
L 102.97199 249.296095 
L 103.434852 248.755441 
L 103.897715 248.02819 
L 107.137753 244.731635 
L 108.063478 243.717311 
L 108.989203 242.827385 
L 109.452065 241.999658 
L 110.840653 240.746106 
L 111.303515 240.052346 
L 111.766378 239.631306 
L 112.692103 238.248571 
L 113.154965 237.923222 
L 115.469278 235.669699 
L 116.395003 234.87068 
L 117.320728 233.636266 
L 117.783591 233.258287 
L 119.172178 231.794215 
L 120.097903 231.004764 
L 121.023628 230.191391 
L 121.949353 229.19142 
L 122.412216 228.77038 
L 123.800803 227.157987 
L 124.263666 226.679532 
L 125.652253 224.727436 
L 126.577978 223.937985 
L 127.966566 222.34473 
L 128.892291 221.497865 
L 129.818016 220.765829 
L 130.280879 220.210821 
L 132.595191 218.689335 
L 133.058054 218.78981 
L 133.983779 218.268295 
L 134.446641 217.962083 
L 135.372366 217.206125 
L 137.223816 216.301845 
L 137.686679 215.684638 
L 140.000992 214.49807 
L 141.852442 213.665558 
L 142.778167 213.306717 
L 143.703892 213.158396 
L 144.166754 213.024429 
L 144.629617 213.268441 
L 146.481067 212.890461 
L 146.943929 213.411977 
L 147.406792 213.431115 
L 149.258242 215.019586 
L 149.721104 215.081785 
L 150.183967 215.765975 
L 151.572555 217.115218 
L 152.49828 216.809007 
L 152.961142 217.249186 
L 153.886867 218.36877 
L 155.275455 219.607968 
L 155.738317 220.383065 
L 156.20118 220.268236 
L 157.126905 221.043333 
L 157.589767 221.727523 
L 158.05263 222.105503 
L 158.978355 223.445177 
L 159.441217 223.612636 
L 160.366942 224.478639 
L 160.829805 224.799204 
L 161.292667 225.349427 
L 162.681255 226.392459 
L 163.60698 227.646011 
L 164.069843 227.923514 
L 164.532705 228.397185 
L 164.995568 228.631628 
L 165.45843 229.181851 
L 166.384155 229.062237 
L 167.30988 228.913916 
L 167.772743 229.40194 
L 168.235605 229.34931 
L 168.698468 229.038314 
L 169.624193 229.301465 
L 170.549918 229.301465 
L 171.475643 229.516769 
L 171.938505 229.334956 
L 172.401368 229.416294 
L 173.327093 229.904318 
L 174.715681 230.521525 
L 175.641406 230.679415 
L 176.567131 231.196146 
L 177.029993 231.918613 
L 177.955718 232.473621 
L 178.418581 232.564527 
L 178.881443 232.808539 
L 180.270031 233.875493 
L 180.732893 233.9664 
L 181.195756 234.368302 
L 181.658618 234.483131 
L 182.121481 234.430501 
L 183.047206 234.880249 
L 183.510068 235.019001 
L 183.972931 235.593147 
L 184.435794 235.387411 
L 185.824381 235.92328 
L 186.287244 235.459179 
L 186.750106 235.401765 
L 187.212969 235.526163 
L 187.675831 235.526163 
L 188.138694 235.717545 
L 188.601556 235.286935 
L 189.064419 235.358704 
L 189.990144 235.999833 
L 190.453006 236.03811 
L 190.915869 235.507025 
L 191.378731 235.349135 
L 191.841594 235.416118 
L 192.304456 235.310858 
L 193.230181 234.736712 
L 195.544494 231.468865 
L 196.007357 231.310975 
L 197.858807 228.832579 
L 198.321669 228.722534 
L 199.247394 227.756055 
L 200.173119 226.373321 
L 200.635982 225.803959 
L 201.098844 224.832696 
L 202.024569 223.61742 
L 202.487432 223.363839 
L 209.893232 213.531591 
L 210.818957 212.311531 
L 211.744682 211.067548 
L 212.207545 210.904874 
L 213.13327 209.991025 
L 214.058995 207.97673 
L 215.910445 207.01982 
L 216.373307 206.570072 
L 216.83617 206.302137 
L 217.761895 206.330845 
L 218.224757 206.613133 
L 222.853383 204.507932 
L 226.09342 203.665851 
L 226.556283 203.565375 
L 227.019145 203.608436 
L 227.94487 203.503176 
L 228.407733 203.608436 
L 229.333458 203.431408 
L 230.722046 203.383562 
L 231.184908 203.531884 
L 232.110633 203.259164 
L 232.573496 203.699343 
L 233.036358 203.814172 
L 234.424946 203.603652 
L 234.887808 203.761542 
L 235.813533 203.747188 
L 236.276396 203.713696 
L 238.127846 204.249566 
L 239.053571 204.670606 
L 239.516433 204.972033 
L 239.979296 205.64187 
L 240.905021 206.53658 
L 241.830746 207.828409 
L 242.756471 208.364278 
L 244.145059 209.967102 
L 244.607921 210.19676 
L 245.070784 211.072333 
L 249.236546 216.29706 
L 253.402309 221.966751 
L 257.105209 226.650824 
L 258.030934 228.02399 
L 258.956659 229.08616 
L 259.419522 228.631628 
L 259.882384 229.650737 
L 260.345247 230.086131 
L 260.808109 230.277513 
L 261.270972 230.25359 
L 261.733834 229.861257 
L 262.196697 230.129192 
L 263.122422 227.028804 
L 265.436735 218.167819 
L 267.288185 215.684638 
L 268.21391 213.904786 
L 268.676772 213.144043 
L 270.06536 210.325943 
L 270.528222 208.809241 
L 270.991085 208.316433 
L 275.61971 189.72846 
L 276.082573 188.781119 
L 276.545435 187.422307 
L 277.008298 186.929498 
L 277.47116 185.680731 
L 277.934023 185.508487 
L 278.859748 182.494221 
L 279.32261 181.66171 
L 279.785473 181.518173 
L 280.711198 180.479926 
L 281.17406 179.96798 
L 281.636923 179.245513 
L 283.488373 171.685925 
L 283.951235 170.590263 
L 284.414098 170.068748 
L 284.87696 168.705151 
L 285.339823 166.843962 
L 285.802685 165.863129 
L 286.265548 165.475581 
L 286.72841 164.279443 
L 287.191273 162.155103 
L 287.654136 161.317807 
L 288.116998 161.155133 
L 288.579861 160.073825 
L 289.505586 155.858637 
L 289.968448 153.638606 
L 290.431311 152.700835 
L 290.894173 152.121904 
L 291.819898 149.858812 
L 292.282761 147.614859 
L 292.745623 146.059881 
L 295.985661 131.423945 
L 296.911386 128.203944 
L 298.299973 123.859573 
L 299.225699 121.610835 
L 300.151424 118.816658 
L 300.614286 117.740135 
L 301.077149 115.606226 
L 301.540011 114.419658 
L 302.002874 112.883818 
L 302.465736 111.769018 
L 302.928599 109.462865 
L 303.854324 106.793087 
L 304.780049 103.204675 
L 305.242911 101.865001 
L 306.168636 100.764555 
L 306.631499 99.951181 
L 307.557224 97.453647 
L 308.020086 96.88907 
L 308.482949 96.027851 
L 308.945811 96.027851 
L 309.408674 97.267049 
L 310.334399 98.558878 
L 310.797262 99.946397 
L 311.260124 99.951181 
L 311.722987 100.434421 
L 312.185849 100.300454 
L 313.111574 98.850735 
L 313.574437 100.056442 
L 314.037299 101.640127 
L 314.500162 100.888953 
L 314.963024 101.448745 
L 315.425887 102.754927 
L 316.351612 102.850618 
L 317.277337 102.219058 
L 318.203062 104.1568 
L 318.665924 104.563487 
L 319.128787 104.788361 
L 319.591649 105.367291 
L 320.517374 105.994067 
L 320.980237 106.927054 
L 321.443099 108.328927 
L 321.905962 108.821735 
L 322.368825 108.898288 
L 322.831687 108.802597 
L 323.29455 108.903073 
L 323.757412 109.328898 
L 324.220275 109.19493 
L 324.683137 109.52028 
L 325.146 109.266698 
L 325.608862 109.233207 
L 326.071725 107.568184 
L 326.534587 106.625627 
L 326.99745 105.309876 
L 327.923175 104.008479 
L 328.386037 104.989312 
L 329.774625 104.989312 
L 330.237487 104.228568 
L 330.70035 102.788419 
L 331.163212 102.214273 
L 331.626075 102.214273 
L 333.014662 98.778967 
L 333.477525 98.778967 
L 333.940388 97.357956 
L 334.40325 95.271893 
L 334.866113 94.434596 
L 335.328975 94.434596 
L 335.791838 95.14271 
L 336.2547 95.453705 
L 336.717563 94.807791 
L 338.10615 91.425115 
L 338.569013 91.425115 
L 339.031875 90.783986 
L 339.9576 90.783986 
L 340.420463 91.568652 
L 341.80905 91.53516 
L 343.6605 88.697922 
L 344.586225 86.965915 
L 345.511951 84.698039 
L 345.974813 83.918158 
L 346.900538 81.87994 
L 347.363401 81.712481 
L 348.751988 78.722137 
L 349.214851 78.722137 
L 350.140576 76.860948 
L 351.992026 74.851437 
L 352.917751 72.684037 
L 353.380613 72.133813 
L 353.843476 72.062045 
L 354.306338 71.430485 
L 354.769201 70.46879 
L 355.232063 70.851554 
L 355.694926 69.698478 
L 356.620651 68.40665 
L 357.083514 67.01913 
L 357.546376 67.014346 
L 358.009239 67.220082 
L 358.472101 66.296664 
L 359.397826 65.473721 
L 360.323551 61.100643 
L 360.786414 60.885339 
L 361.249276 59.292084 
L 361.712139 57.234728 
L 362.637864 55.282632 
L 363.100726 55.282632 
L 364.489314 52.359272 
L 364.952176 51.952586 
L 365.415039 51.727712 
L 365.877901 51.148781 
L 366.803626 50.522005 
L 367.266489 49.589018 
L 367.729352 48.187146 
L 368.192214 47.694337 
L 368.655077 46.703935 
L 369.117939 46.33074 
L 370.506527 42.273443 
L 370.969389 41.579683 
L 371.432252 41.579683 
L 371.895114 40.55579 
L 372.357977 40.55579 
L 372.820839 40.297424 
L 373.283702 40.297424 
L 374.209427 39.340514 
L 374.672289 38.359682 
L 381.615227 38.354897 
L 382.07809 37.646784 
L 382.540952 37.335788 
L 383.003815 36.766427 
L 383.466677 36.436293 
L 386.243852 36.436293 
L 386.706715 35.651627 
L 401.055453 35.651627 
L 401.518315 35.268863 
L 402.444041 35.182741 
L 403.832628 35.182741 
L 404.295491 34.493766 
L 469.096243 34.383722 
L 469.559106 36.63246 
L 484.370707 36.63246 
L 484.370707 36.63246 
" clip-path="url(#p9a5775c54f)" style="fill: none; stroke: #56b4e9; stroke-width: 2; stroke-linecap: round"/>
   </g>
   <g id="PathCollection_1">
    <path d="M 399.204003 105.549282 
C 400.59474 105.549282 401.928703 104.996737 402.912102 104.013337 
C 403.895502 103.029938 404.448047 101.695975 404.448047 100.305238 
C 404.448047 98.914501 403.895502 97.580538 402.912102 96.597139 
C 401.928703 95.613739 400.59474 95.061194 399.204003 95.061194 
C 397.813266 95.061194 396.479303 95.613739 395.495904 96.597139 
C 394.512504 97.580538 393.959959 98.914501 393.959959 100.305238 
C 393.959959 101.695975 394.512504 103.029938 395.495904 104.013337 
C 396.479303 104.996737 397.813266 105.549282 399.204003 105.549282 
L 399.204003 105.549282 
z
" clip-path="url(#p9a5775c54f)" style="fill: none; stroke: #0072b2; stroke-width: 1.8"/>
   </g>
   <g id="PathCollection_2">
    <path d="M 300.924592 159.026187 
L 311.412681 159.026187 
L 311.412681 148.538098 
L 300.924592 148.538098 
L 300.924592 159.026187 
z
" clip-path="url(#p9a5775c54f)" style="fill: none; stroke: #d55e00; stroke-width: 1.8"/>
   </g>
   <g id="PathCollection_3">
    <path d="M 401.518315 182.283523 
L 396.274271 192.771611 
L 406.76236 192.771611 
L 401.518315 182.283523 
z
" clip-path="url(#p9a5775c54f)" style="fill: none; stroke: #009e73; stroke-width: 1.8"/>
   </g>
   <g id="PathCollection_4">
    <path d="M 461.690443 42.685062 
L 469.106642 35.268863 
L 461.690443 27.852665 
L 454.274245 35.268863 
L 461.690443 42.685062 
z
" clip-path="url(#p9a5775c54f)" style="fill: none; stroke: #cc79a7; stroke-width: 1.8"/>
   </g>
   <g id="PathCollection_5">
    <path d="M 404.398926 39.627766 
L 407.894955 39.627766 
L 407.894955 36.131736 
L 411.390985 36.131736 
L 411.390985 32.635707 
L 407.894955 32.635707 
L 407.894955 29.139677 
L 404.398926 29.139677 
L 404.398926 32.635707 
L 400.902896 32.635707 
L 400.902896 36.131736 
L 404.398926 36.131736 
L 404.398926 39.627766 
z
" clip-path="url(#p9a5775c54f)" style="fill: none; stroke: #56b4e9; stroke-width: 1.8"/>
   </g>
   <g id="legend_1">
    <g id="patch_7">
     <path d="M 53.265625 93.661875 
L 264.918906 93.661875 
Q 266.718906 93.661875 266.718906 91.861875 
L 266.718906 13.5 
Q 266.718906 11.7 264.918906 11.7 
L 53.265625 11.7 
Q 51.465625 11.7 51.465625 13.5 
L 51.465625 91.861875 
Q 51.465625 93.661875 53.265625 93.661875 
z
" style="fill: #ffffff; opacity: 0.9; stroke: #cccccc; stroke-linejoin: miter"/>
    </g>
    <g id="text_14">
     <!-- Model -->
     <g transform="translate(145.580312 22.138594) scale(0.09 -0.09)">
      <defs>
       <path id="DejaVuSans-4d" d="M 628 4666 
L 1569 4666 
L 2759 1491 
L 3956 4666 
L 4897 4666 
L 4897 0 
L 4281 0 
L 4281 4097 
L 3078 897 
L 2444 897 
L 1241 4097 
L 1241 0 
L 628 0 
L 628 4666 
z
" transform="scale(0.015625)"/>
       <path id="DejaVuSans-6c" d="M 603 4863 
L 1178 4863 
L 1178 0 
L 603 0 
L 603 4863 
z
" transform="scale(0.015625)"/>
      </defs>
      <use xlink:href="#DejaVuSans-4d"/>
      <use xlink:href="#DejaVuSans-6f" transform="translate(86.279297 0)"/>
      <use xlink:href="#DejaVuSans-64" transform="translate(147.460938 0)"/>
      <use xlink:href="#DejaVuSans-65" transform="translate(210.9375 0)"/>
      <use xlink:href="#DejaVuSans-6c" transform="translate(272.460938 0)"/>
     </g>
    </g>
    <g id="line2d_28">
     <path d="M 55.065625 32.198906 
L 64.065625 32.198906 
L 73.065625 32.198906 
" style="fill: none; stroke: #0072b2; stroke-width: 2; stroke-linecap: square"/>
     <defs>
      <path id="m144b1ba197" d="M 0 4 
C 1.060812 4 2.078319 3.578535 2.828427 2.828427 
C 3.578535 2.078319 4 1.060812 4 0 
C 4 -1.060812 3.578535 -2.078319 2.828427 -2.828427 
C 2.078319 -3.578535 1.060812 -4 0 -4 
C -1.060812 -4 -2.078319 -3.578535 -2.828427 -2.828427 
C -3.578535 -2.078319 -4 -1.060812 -4 0 
C -4 1.060812 -3.578535 2.078319 -2.828427 2.828427 
C -2.078319 3.578535 -1.060812 4 0 4 
z
" style="stroke: #0072b2; stroke-width: 1.5"/>
     </defs>
     <g>
      <use xlink:href="#m144b1ba197" x="64.065625" y="32.198906" style="fill-opacity: 0; stroke: #0072b2; stroke-width: 1.5"/>
     </g>
    </g>
    <g id="text_15">
     <!-- bitshift custom slow decay 32-8 (hist=8) -->
     <g transform="translate(80.265625 35.348906) scale(0.09 -0.09)">
      <defs>
       <path id="DejaVuSans-62" d="M 3116 1747 
Q 3116 2381 2855 2742 
Q 2594 3103 2138 3103 
Q 1681 3103 1420 2742 
Q 1159 2381 1159 1747 
Q 1159 1113 1420 752 
Q 1681 391 2138 391 
Q 2594 391 2855 752 
Q 3116 1113 3116 1747 
z
M 1159 2969 
Q 1341 3281 1617 3432 
Q 1894 3584 2278 3584 
Q 2916 3584 3314 3078 
Q 3713 2572 3713 1747 
Q 3713 922 3314 415 
Q 2916 -91 2278 -91 
Q 1894 -91 1617 61 
Q 1341 213 1159 525 
L 1159 0 
L 581 0 
L 581 4863 
L 1159 4863 
L 1159 2969 
z
" transform="scale(0.015625)"/>
       <path id="DejaVuSans-74" d="M 1172 4494 
L 1172 3500 
L 2356 3500 
L 2356 3053 
L 1172 3053 
L 1172 1153 
Q 1172 725 1289 603 
Q 1406 481 1766 481 
L 2356 481 
L 2356 0 
L 1766 0 
Q 1100 0 847 248 
Q 594 497 594 1153 
L 594 3053 
L 172 3053 
L 172 3500 
L 594 3500 
L 594 4494 
L 1172 4494 
z
" transform="scale(0.015625)"/>
       <path id="DejaVuSans-68" d="M 3513 2113 
L 3513 0 
L 2938 0 
L 2938 2094 
Q 2938 2591 2744 2837 
Q 2550 3084 2163 3084 
Q 1697 3084 1428 2787 
Q 1159 2491 1159 1978 
L 1159 0 
L 581 0 
L 581 4863 
L 1159 4863 
L 1159 2956 
Q 1366 3272 1645 3428 
Q 1925 3584 2291 3584 
Q 2894 3584 3203 3211 
Q 3513 2838 3513 2113 
z
" transform="scale(0.015625)"/>
       <path id="DejaVuSans-66" d="M 2375 4863 
L 2375 4384 
L 1825 4384 
Q 1516 4384 1395 4259 
Q 1275 4134 1275 3809 
L 1275 3500 
L 2222 3500 
L 2222 3053 
L 1275 3053 
L 1275 0 
L 697 0 
L 697 3053 
L 147 3053 
L 147 3500 
L 697 3500 
L 697 3744 
Q 697 4328 969 4595 
Q 1241 4863 1831 4863 
L 2375 4863 
z
" transform="scale(0.015625)"/>
       <path id="DejaVuSans-20" transform="scale(0.015625)"/>
       <path id="DejaVuSans-63" d="M 3122 3366 
L 3122 2828 
Q 2878 2963 2633 3030 
Q 2388 3097 2138 3097 
Q 1578 3097 1268 2742 
Q 959 2388 959 1747 
Q 959 1106 1268 751 
Q 1578 397 2138 397 
Q 2388 397 2633 464 
Q 2878 531 3122 666 
L 3122 134 
Q 2881 22 2623 -34 
Q 2366 -91 2075 -91 
Q 1284 -91 818 406 
Q 353 903 353 1747 
Q 353 2603 823 3093 
Q 1294 3584 2113 3584 
Q 2378 3584 2631 3529 
Q 2884 3475 3122 3366 
z
" transform="scale(0.015625)"/>
       <path id="DejaVuSans-75" d="M 544 1381 
L 544 3500 
L 1119 3500 
L 1119 1403 
Q 1119 906 1312 657 
Q 1506 409 1894 409 
Q 2359 409 2629 706 
Q 2900 1003 2900 1516 
L 2900 3500 
L 3475 3500 
L 3475 0 
L 2900 0 
L 2900 538 
Q 2691 219 2414 64 
Q 2138 -91 1772 -91 
Q 1169 -91 856 284 
Q 544 659 544 1381 
z
M 1991 3584 
L 1991 3584 
z
" transform="scale(0.015625)"/>
       <path id="DejaVuSans-6d" d="M 3328 2828 
Q 3544 3216 3844 3400 
Q 4144 3584 4550 3584 
Q 5097 3584 5394 3201 
Q 5691 2819 5691 2113 
L 5691 0 
L 5113 0 
L 5113 2094 
Q 5113 2597 4934 2840 
Q 4756 3084 4391 3084 
Q 3944 3084 3684 2787 
Q 3425 2491 3425 1978 
L 3425 0 
L 2847 0 
L 2847 2094 
Q 2847 2600 2669 2842 
Q 2491 3084 2119 3084 
Q 1678 3084 1418 2786 
Q 1159 2488 1159 1978 
L 1159 0 
L 581 0 
L 581 3500 
L 1159 3500 
L 1159 2956 
Q 1356 3278 1631 3431 
Q 1906 3584 2284 3584 
Q 2666 3584 2933 3390 
Q 3200 3197 3328 2828 
z
" transform="scale(0.015625)"/>
       <path id="DejaVuSans-79" d="M 2059 -325 
Q 1816 -950 1584 -1140 
Q 1353 -1331 966 -1331 
L 506 -1331 
L 506 -850 
L 844 -850 
Q 1081 -850 1212 -737 
Q 1344 -625 1503 -206 
L 1606 56 
L 191 3500 
L 800 3500 
L 1894 763 
L 2988 3500 
L 3597 3500 
L 2059 -325 
z
" transform="scale(0.015625)"/>
       <path id="DejaVuSans-2d" d="M 313 2009 
L 1997 2009 
L 1997 1497 
L 313 1497 
L 313 2009 
z
" transform="scale(0.015625)"/>
       <path id="DejaVuSans-28" d="M 1984 4856 
Q 1566 4138 1362 3434 
Q 1159 2731 1159 2009 
Q 1159 1288 1364 580 
Q 1569 -128 1984 -844 
L 1484 -844 
Q 1016 -109 783 600 
Q 550 1309 550 2009 
Q 550 2706 781 3412 
Q 1013 4119 1484 4856 
L 1984 4856 
z
" transform="scale(0.015625)"/>
       <path id="DejaVuSans-3d" d="M 678 2906 
L 4684 2906 
L 4684 2381 
L 678 2381 
L 678 2906 
z
M 678 1631 
L 4684 1631 
L 4684 1100 
L 678 1100 
L 678 1631 
z
" transform="scale(0.015625)"/>
       <path id="DejaVuSans-29" d="M 513 4856 
L 1013 4856 
Q 1481 4119 1714 3412 
Q 1947 2706 1947 2009 
Q 1947 1309 1714 600 
Q 1481 -109 1013 -844 
L 513 -844 
Q 928 -128 1133 580 
Q 1338 1288 1338 2009 
Q 1338 2731 1133 3434 
Q 928 4138 513 4856 
z
" transform="scale(0.015625)"/>
      </defs>
      <use xlink:href="#DejaVuSans-62"/>
      <use xlink:href="#DejaVuSans-69" transform="translate(63.476562 0)"/>
      <use xlink:href="#DejaVuSans-74" transform="translate(91.259766 0)"/>
      <use xlink:href="#DejaVuSans-73" transform="translate(130.46875 0)"/>
      <use xlink:href="#DejaVuSans-68" transform="translate(182.568359 0)"/>
      <use xlink:href="#DejaVuSans-69" transform="translate(245.947266 0)"/>
      <use xlink:href="#DejaVuSans-66" transform="translate(273.730469 0)"/>
      <use xlink:href="#DejaVuSans-74" transform="translate(307.185547 0)"/>
      <use xlink:href="#DejaVuSans-20" transform="translate(346.394531 0)"/>
      <use xlink:href="#DejaVuSans-63" transform="translate(378.181641 0)"/>
      <use xlink:href="#DejaVuSans-75" transform="translate(433.162109 0)"/>
      <use xlink:href="#DejaVuSans-73" transform="translate(496.541016 0)"/>
      <use xlink:href="#DejaVuSans-74" transform="translate(548.640625 0)"/>
      <use xlink:href="#DejaVuSans-6f" transform="translate(587.849609 0)"/>
      <use xlink:href="#DejaVuSans-6d" transform="translate(649.03125 0)"/>
      <use xlink:href="#DejaVuSans-20" transform="translate(746.443359 0)"/>
      <use xlink:href="#DejaVuSans-73" transform="translate(778.230469 0)"/>
      <use xlink:href="#DejaVuSans-6c" transform="translate(830.330078 0)"/>
      <use xlink:href="#DejaVuSans-6f" transform="translate(858.113281 0)"/>
      <use xlink:href="#DejaVuSans-77" transform="translate(919.294922 0)"/>
      <use xlink:href="#DejaVuSans-20" transform="translate(1001.082031 0)"/>
      <use xlink:href="#DejaVuSans-64" transform="translate(1032.869141 0)"/>
      <use xlink:href="#DejaVuSans-65" transform="translate(1096.345703 0)"/>
      <use xlink:href="#DejaVuSans-63" transform="translate(1157.869141 0)"/>
      <use xlink:href="#DejaVuSans-61" transform="translate(1212.849609 0)"/>
      <use xlink:href="#DejaVuSans-79" transform="translate(1274.128906 0)"/>
      <use xlink:href="#DejaVuSans-20" transform="translate(1333.308594 0)"/>
      <use xlink:href="#DejaVuSans-33" transform="translate(1365.095703 0)"/>
      <use xlink:href="#DejaVuSans-32" transform="translate(1428.71875 0)"/>
      <use xlink:href="#DejaVuSans-2d" transform="translate(1492.341797 0)"/>
      <use xlink:href="#DejaVuSans-38" transform="translate(1528.425781 0)"/>
      <use xlink:href="#DejaVuSans-20" transform="translate(1592.048828 0)"/>
      <use xlink:href="#DejaVuSans-28" transform="translate(1623.835938 0)"/>
      <use xlink:href="#DejaVuSans-68" transform="translate(1662.849609 0)"/>
      <use xlink:href="#DejaVuSans-69" transform="translate(1726.228516 0)"/>
      <use xlink:href="#DejaVuSans-73" transform="translate(1754.011719 0)"/>
      <use xlink:href="#DejaVuSans-74" transform="translate(1806.111328 0)"/>
      <use xlink:href="#DejaVuSans-3d" transform="translate(1845.320312 0)"/>
      <use xlink:href="#DejaVuSans-38" transform="translate(1929.109375 0)"/>
      <use xlink:href="#DejaVuSans-29" transform="translate(1992.732422 0)"/>
     </g>
    </g>
    <g id="line2d_29">
     <path d="M 55.065625 45.409219 
L 64.065625 45.409219 
L 73.065625 45.409219 
" style="fill: none; stroke: #d55e00; stroke-width: 2; stroke-linecap: square"/>
     <defs>
      <path id="mc43bc31423" d="M -4 4 
L 4 4 
L 4 -4 
L -4 -4 
z
" style="stroke: #d55e00; stroke-width: 1.5; stroke-linejoin: miter"/>
     </defs>
     <g>
      <use xlink:href="#mc43bc31423" x="64.065625" y="45.409219" style="fill-opacity: 0; stroke: #d55e00; stroke-width: 1.5; stroke-linejoin: miter"/>
     </g>
    </g>
    <g id="text_16">
     <!-- fractional 16-4 (hist=32) -->
     <g transform="translate(80.265625 48.559219) scale(0.09 -0.09)">
      <defs>
       <path id="DejaVuSans-6e" d="M 3513 2113 
L 3513 0 
L 2938 0 
L 2938 2094 
Q 2938 2591 2744 2837 
Q 2550 3084 2163 3084 
Q 1697 3084 1428 2787 
Q 1159 2491 1159 1978 
L 1159 0 
L 581 0 
L 581 3500 
L 1159 3500 
L 1159 2956 
Q 1366 3272 1645 3428 
Q 1925 3584 2291 3584 
Q 2894 3584 3203 3211 
Q 3513 2838 3513 2113 
z
" transform="scale(0.015625)"/>
      </defs>
      <use xlink:href="#DejaVuSans-66"/>
      <use xlink:href="#DejaVuSans-72" transform="translate(35.205078 0)"/>
      <use xlink:href="#DejaVuSans-61" transform="translate(76.318359 0)"/>
      <use xlink:href="#DejaVuSans-63" transform="translate(137.597656 0)"/>
      <use xlink:href="#DejaVuSans-74" transform="translate(192.578125 0)"/>
      <use xlink:href="#DejaVuSans-69" transform="translate(231.787109 0)"/>
      <use xlink:href="#DejaVuSans-6f" transform="translate(259.570312 0)"/>
      <use xlink:href="#DejaVuSans-6e" transform="translate(320.751953 0)"/>
      <use xlink:href="#DejaVuSans-61" transform="translate(384.130859 0)"/>
      <use xlink:href="#DejaVuSans-6c" transform="translate(445.410156 0)"/>
      <use xlink:href="#DejaVuSans-20" transform="translate(473.193359 0)"/>
      <use xlink:href="#DejaVuSans-31" transform="translate(504.980469 0)"/>
      <use xlink:href="#DejaVuSans-36" transform="translate(568.603516 0)"/>
      <use xlink:href="#DejaVuSans-2d" transform="translate(632.226562 0)"/>
      <use xlink:href="#DejaVuSans-34" transform="translate(668.310547 0)"/>
      <use xlink:href="#DejaVuSans-20" transform="translate(731.933594 0)"/>
      <use xlink:href="#DejaVuSans-28" transform="translate(763.720703 0)"/>
      <use xlink:href="#DejaVuSans-68" transform="translate(802.734375 0)"/>
      <use xlink:href="#DejaVuSans-69" transform="translate(866.113281 0)"/>
      <use xlink:href="#DejaVuSans-73" transform="translate(893.896484 0)"/>
      <use xlink:href="#DejaVuSans-74" transform="translate(945.996094 0)"/>
      <use xlink:href="#DejaVuSans-3d" transform="translate(985.205078 0)"/>
      <use xlink:href="#DejaVuSans-33" transform="translate(1068.994141 0)"/>
      <use xlink:href="#DejaVuSans-32" transform="translate(1132.617188 0)"/>
      <use xlink:href="#DejaVuSans-29" transform="translate(1196.240234 0)"/>
     </g>
    </g>
    <g id="line2d_30">
     <path d="M 55.065625 58.619531 
L 64.065625 58.619531 
L 73.065625 58.619531 
" style="fill: none; stroke: #009e73; stroke-width: 2; stroke-linecap: square"/>
     <defs>
      <path id="me2d744d836" d="M 0 -4 
L -4 4 
L 4 4 
z
" style="stroke: #009e73; stroke-width: 1.5; stroke-linejoin: miter"/>
     </defs>
     <g>
      <use xlink:href="#me2d744d836" x="64.065625" y="58.619531" style="fill-opacity: 0; stroke: #009e73; stroke-width: 1.5; stroke-linejoin: miter"/>
     </g>
    </g>
    <g id="text_17">
     <!-- fractional 32-4 (hist=16) -->
     <g transform="translate(80.265625 61.769531) scale(0.09 -0.09)">
      <use xlink:href="#DejaVuSans-66"/>
      <use xlink:href="#DejaVuSans-72" transform="translate(35.205078 0)"/>
      <use xlink:href="#DejaVuSans-61" transform="translate(76.318359 0)"/>
      <use xlink:href="#DejaVuSans-63" transform="translate(137.597656 0)"/>
      <use xlink:href="#DejaVuSans-74" transform="translate(192.578125 0)"/>
      <use xlink:href="#DejaVuSans-69" transform="translate(231.787109 0)"/>
      <use xlink:href="#DejaVuSans-6f" transform="translate(259.570312 0)"/>
      <use xlink:href="#DejaVuSans-6e" transform="translate(320.751953 0)"/>
      <use xlink:href="#DejaVuSans-61" transform="translate(384.130859 0)"/>
      <use xlink:href="#DejaVuSans-6c" transform="translate(445.410156 0)"/>
      <use xlink:href="#DejaVuSans-20" transform="translate(473.193359 0)"/>
      <use xlink:href="#DejaVuSans-33" transform="translate(504.980469 0)"/>
      <use xlink:href="#DejaVuSans-32" transform="translate(568.603516 0)"/>
      <use xlink:href="#DejaVuSans-2d" transform="translate(632.226562 0)"/>
      <use xlink:href="#DejaVuSans-34" transform="translate(668.310547 0)"/>
      <use xlink:href="#DejaVuSans-20" transform="translate(731.933594 0)"/>
      <use xlink:href="#DejaVuSans-28" transform="translate(763.720703 0)"/>
      <use xlink:href="#DejaVuSans-68" transform="translate(802.734375 0)"/>
      <use xlink:href="#DejaVuSans-69" transform="translate(866.113281 0)"/>
      <use xlink:href="#DejaVuSans-73" transform="translate(893.896484 0)"/>
      <use xlink:href="#DejaVuSans-74" transform="translate(945.996094 0)"/>
      <use xlink:href="#DejaVuSans-3d" transform="translate(985.205078 0)"/>
      <use xlink:href="#DejaVuSans-31" transform="translate(1068.994141 0)"/>
      <use xlink:href="#DejaVuSans-36" transform="translate(1132.617188 0)"/>
      <use xlink:href="#DejaVuSans-29" transform="translate(1196.240234 0)"/>
     </g>
    </g>
    <g id="line2d_31">
     <path d="M 55.065625 71.829844 
L 64.065625 71.829844 
L 73.065625 71.829844 
" style="fill: none; stroke: #cc79a7; stroke-width: 2; stroke-linecap: square"/>
     <defs>
      <path id="m0429d324ec" d="M -0 5.656854 
L 5.656854 0 
L 0 -5.656854 
L -5.656854 -0 
z
" style="stroke: #cc79a7; stroke-width: 1.5; stroke-linejoin: miter"/>
     </defs>
     <g>
      <use xlink:href="#m0429d324ec" x="64.065625" y="71.829844" style="fill-opacity: 0; stroke: #cc79a7; stroke-width: 1.5; stroke-linejoin: miter"/>
     </g>
    </g>
    <g id="text_18">
     <!-- leaky 32-16 -->
     <g transform="translate(80.265625 74.979844) scale(0.09 -0.09)">
      <defs>
       <path id="DejaVuSans-6b" d="M 581 4863 
L 1159 4863 
L 1159 1991 
L 2875 3500 
L 3609 3500 
L 1753 1863 
L 3688 0 
L 2938 0 
L 1159 1709 
L 1159 0 
L 581 0 
L 581 4863 
z
" transform="scale(0.015625)"/>
      </defs>
      <use xlink:href="#DejaVuSans-6c"/>
      <use xlink:href="#DejaVuSans-65" transform="translate(27.783203 0)"/>
      <use xlink:href="#DejaVuSans-61" transform="translate(89.306641 0)"/>
      <use xlink:href="#DejaVuSans-6b" transform="translate(150.585938 0)"/>
      <use xlink:href="#DejaVuSans-79" transform="translate(204.871094 0)"/>
      <use xlink:href="#DejaVuSans-20" transform="translate(264.050781 0)"/>
      <use xlink:href="#DejaVuSans-33" transform="translate(295.837891 0)"/>
      <use xlink:href="#DejaVuSans-32" transform="translate(359.460938 0)"/>
      <use xlink:href="#DejaVuSans-2d" transform="translate(423.083984 0)"/>
      <use xlink:href="#DejaVuSans-31" transform="translate(459.167969 0)"/>
      <use xlink:href="#DejaVuSans-36" transform="translate(522.791016 0)"/>
     </g>
    </g>
    <g id="line2d_32">
     <path d="M 55.065625 85.040156 
L 64.065625 85.040156 
L 73.065625 85.040156 
" style="fill: none; stroke: #56b4e9; stroke-width: 2; stroke-linecap: square"/>
     <defs>
      <path id="m015ddbcaec" d="M -1.333333 4 
L 1.333333 4 
L 1.333333 1.333333 
L 4 1.333333 
L 4 -1.333333 
L 1.333333 -1.333333 
L 1.333333 -4 
L -1.333333 -4 
L -1.333333 -1.333333 
L -4 -1.333333 
L -4 1.333333 
L -1.333333 1.333333 
z
" style="stroke: #56b4e9; stroke-width: 1.5; stroke-linejoin: miter"/>
     </defs>
     <g>
      <use xlink:href="#m015ddbcaec" x="64.065625" y="85.040156" style="fill-opacity: 0; stroke: #56b4e9; stroke-width: 1.5; stroke-linejoin: miter"/>
     </g>
    </g>
    <g id="text_19">
     <!-- leaky 64-16 -->
     <g transform="translate(80.265625 88.190156) scale(0.09 -0.09)">
      <use xlink:href="#DejaVuSans-6c"/>
      <use xlink:href="#DejaVuSans-65" transform="translate(27.783203 0)"/>
      <use xlink:href="#DejaVuSans-61" transform="translate(89.306641 0)"/>
      <use xlink:href="#DejaVuSans-6b" transform="translate(150.585938 0)"/>
      <use xlink:href="#DejaVuSans-79" transform="translate(204.871094 0)"/>
      <use xlink:href="#DejaVuSans-20" transform="translate(264.050781 0)"/>
      <use xlink:href="#DejaVuSans-36" transform="translate(295.837891 0)"/>
      <use xlink:href="#DejaVuSans-34" transform="translate(359.460938 0)"/>
      <use xlink:href="#DejaVuSans-2d" transform="translate(423.083984 0)"/>
      <use xlink:href="#DejaVuSans-31" transform="translate(459.167969 0)"/>
      <use xlink:href="#DejaVuSans-36" transform="translate(522.791016 0)"/>
     </g>
    </g>
   </g>
   <g id="text_20">
    <g id="patch_8">
     <path d="M 389.084628 92.835238 
L 409.323378 92.835238 
L 409.323378 81.064926 
L 389.084628 81.064926 
z
" style="fill: #ffffff; opacity: 0.7"/>
    </g>
    <!-- 362 -->
    <g transform="translate(390.614628 89.433519) scale(0.09 -0.09)">
     <use xlink:href="#DejaVuSans-33"/>
     <use xlink:href="#DejaVuSans-36" transform="translate(63.623047 0)"/>
     <use xlink:href="#DejaVuSans-32" transform="translate(127.246094 0)"/>
    </g>
   </g>
   <g id="text_21">
    <g id="patch_9">
     <path d="M 296.049261 146.312143 
L 316.288011 146.312143 
L 316.288011 134.54183 
L 296.049261 134.54183 
z
" style="fill: #ffffff; opacity: 0.7"/>
    </g>
    <!-- 250 -->
    <g transform="translate(297.579261 142.910424) scale(0.09 -0.09)">
     <use xlink:href="#DejaVuSans-32"/>
     <use xlink:href="#DejaVuSans-35" transform="translate(63.623047 0)"/>
     <use xlink:href="#DejaVuSans-30" transform="translate(127.246094 0)"/>
    </g>
   </g>
   <g id="text_22">
    <g id="patch_10">
     <path d="M 391.39894 180.057567 
L 411.63769 180.057567 
L 411.63769 168.287255 
L 391.39894 168.287255 
z
" style="fill: #ffffff; opacity: 0.7"/>
    </g>
    <!-- 180 -->
    <g transform="translate(392.92894 176.655848) scale(0.09 -0.09)">
     <use xlink:href="#DejaVuSans-31"/>
     <use xlink:href="#DejaVuSans-38" transform="translate(63.623047 0)"/>
     <use xlink:href="#DejaVuSans-30" transform="translate(127.246094 0)"/>
    </g>
   </g>
   <g id="text_23">
    <g id="patch_11">
     <path d="M 451.571068 27.798863 
L 471.809818 27.798863 
L 471.809818 16.028551 
L 451.571068 16.028551 
z
" style="fill: #ffffff; opacity: 0.7"/>
    </g>
    <!-- 498 -->
    <g transform="translate(453.101068 24.397144) scale(0.09 -0.09)">
     <defs>
      <path id="DejaVuSans-39" d="M 703 97 
L 703 672 
Q 941 559 1184 500 
Q 1428 441 1663 441 
Q 2288 441 2617 861 
Q 2947 1281 2994 2138 
Q 2813 1869 2534 1725 
Q 2256 1581 1919 1581 
Q 1219 1581 811 2004 
Q 403 2428 403 3163 
Q 403 3881 828 4315 
Q 1253 4750 1959 4750 
Q 2769 4750 3195 4129 
Q 3622 3509 3622 2328 
Q 3622 1225 3098 567 
Q 2575 -91 1691 -91 
Q 1453 -91 1209 -44 
Q 966 3 703 97 
z
M 1959 2075 
Q 2384 2075 2632 2365 
Q 2881 2656 2881 3163 
Q 2881 3666 2632 3958 
Q 2384 4250 1959 4250 
Q 1534 4250 1286 3958 
Q 1038 3666 1038 3163 
Q 1038 2656 1286 2365 
Q 1534 2075 1959 2075 
z
" transform="scale(0.015625)"/>
     </defs>
     <use xlink:href="#DejaVuSans-34"/>
     <use xlink:href="#DejaVuSans-39" transform="translate(63.623047 0)"/>
     <use xlink:href="#DejaVuSans-38" transform="translate(127.246094 0)"/>
    </g>
   </g>
   <g id="text_24">
    <g id="patch_12">
     <path d="M 396.027566 26.913722 
L 416.266316 26.913722 
L 416.266316 15.143409 
L 396.027566 15.143409 
z
" style="fill: #ffffff; opacity: 0.7"/>
    </g>
    <!-- 500 -->
    <g transform="translate(397.557566 23.512003) scale(0.09 -0.09)">
     <use xlink:href="#DejaVuSans-35"/>
     <use xlink:href="#DejaVuSans-30" transform="translate(63.623047 0)"/>
     <use xlink:href="#DejaVuSans-30" transform="translate(127.246094 0)"/>
    </g>
   </g>
  </g>
 </g>
 <defs>
  <clipPath id="p9a5775c54f">
   <rect x="46.965625" y="7.2" width="458.233895" height="273.24327"/>
  </clipPath>
 </defs>
</svg>
